<svg xmlns="http://www.w3.org/2000/svg" viewBox="0 0 656.97 151.82"><defs><style>.cls-1{opacity:0.3;}.cls-2{fill:#c99f4f;}</style></defs><g id="Capa_2" data-name="Capa 2"><g id="Capa_1-2" data-name="Capa 1"><g class="cls-1"><path class="cls-2" d="M596.46,57.53l5.74,5.75,4.37-4.37a30.34,30.34,0,1,0-6-5.46C599.18,54.81,597.8,56.18,596.46,57.53Zm5-1-1.11-1.12.79-.81,1.11,1.12Zm2.77,2.79-1.14-1.16.81-.79L605,58.49Zm0-44.54a27.37,27.37,0,1,1,.44,38.7A27.32,27.32,0,0,1,604.2,14.76Z"/><path class="cls-2" d="M621.84,20.07a3.54,3.54,0,0,0-.65,2.08c0,2.81,0,5.62,0,8.43a3.59,3.59,0,0,0,3.13,3.32c.41.05.82.06,1.28.09v4.78l.2-.15,5.57-4.48a.88.88,0,0,1,.49-.17h8.34a3.7,3.7,0,0,0,3.82-3.7c0-2.68,0-5.37,0-8a3.71,3.71,0,0,0-3.74-3.75c-1.91,0-3.81,0-5.72,0-3.25,0-6.51,0-9.77,0A3.54,3.54,0,0,0,621.84,20.07ZM639,27.33a11.89,11.89,0,0,1-1.15-.52,3.07,3.07,0,0,1-.95-.8,1.56,1.56,0,0,1,.68-2.21,3.51,3.51,0,0,1,2.86,0c-.1.38-.19.72-.26,1-.55-.05-1.06-.12-1.56-.13a.55.55,0,0,0-.57.48.54.54,0,0,0,.36.59c.45.21.91.39,1.35.61a1.57,1.57,0,0,1,.92,1.52,1.65,1.65,0,0,1-1.16,1.59,3.87,3.87,0,0,1-2.91-.14c.1-.37.18-.72.26-1,.51.1,1,.2,1.51.27a1.18,1.18,0,0,0,.49-.06.56.56,0,0,0,.45-.52A.55.55,0,0,0,639,27.33Zm-9.39-3.75h1.81c.36,1.34.73,2.69,1.1,4.07.13-.49.25-1,.39-1.46.25-.82.51-1.65.77-2.47a.32.32,0,0,1,.22-.15h1.33c.2,0,.26.07.27.27.06,1.4.14,2.8.21,4.2,0,.48,0,1,.08,1.46h-1.3c-.06-1.52-.11-3-.16-4.56h0c-.18.59-.35,1.19-.53,1.78l-.76,2.47a.31.31,0,0,1-.35.26c-.79,0-.79,0-1-.72-.28-1.09-.57-2.19-.85-3.29,0-.17-.07-.35-.1-.52h0c-.07,1.52-.14,3-.21,4.58h-1.23C629.4,27.53,629.53,25.56,629.65,23.58Zm-3.76,0a3.62,3.62,0,0,1,2.33.2c-.09.35-.18.69-.28,1a2.67,2.67,0,0,0-1.52-.23c-.28,0-.52.16-.58.47s.15.5.4.62c.42.21.87.36,1.29.58a1.6,1.6,0,0,1,.94,1.61,1.67,1.67,0,0,1-1.23,1.54,3.82,3.82,0,0,1-2.83-.18c.09-.38.17-.72.24-1l1.54.27h.12c.45,0,.75-.24.8-.55s-.11-.56-.55-.76-.73-.29-1.07-.47a1.61,1.61,0,0,1-1-1.65A1.77,1.77,0,0,1,625.89,23.58Z"/><path class="cls-2" d="M610.29,52.35c4.31,0,8.63,0,13,0a3.11,3.11,0,0,0,3.14-3.11V40.93c0-.07,0-.14,0-.27-.48.48-.92.92-1.35,1.37a.5.5,0,0,0-.11.32c0,.61,0,1.22,0,1.83v1.51h-16.2V21.38h11c0-.23,0-.42,0-.62a3.66,3.66,0,0,1,3.8-3.76h2.39a3,3,0,0,0-2.61-1.49H610.27a3,3,0,0,0-3.06,3.06q0,15.33,0,30.65A3.07,3.07,0,0,0,610.29,52.35Zm6.71-5a1.8,1.8,0,0,1,1.83,1.81,1.83,1.83,0,1,1-3.66,0A1.82,1.82,0,0,1,617,47.4ZM614.86,18a.84.84,0,0,1,.38-.08h3.5c.43,0,.7.24.71.61a.63.63,0,0,1-.7.61c-1.17,0-2.33,0-3.5,0a.63.63,0,0,1-.67-.47A.58.58,0,0,1,614.86,18Z"/><path class="cls-2" d="M117.06,145.9c0,2,0,3.95,0,5.92h8.13c0-2,0-4,0-5.95Zm3,5.36h-1.61v-1.14h1.62C120.1,150.48,120.1,150.88,120.09,151.26Zm2.34,0c0-.37,0-.76,0-1.13H124c0,.35,0,.75,0,1.13Z"/><path class="cls-2" d="M43.33,150.46l.48,1.36h8.63c-.48-1.36-1-2.73-1.44-4.07Z"/><path class="cls-2" d="M78.5,151.82h8.13c0-2.2,0-4.41,0-6.58l-8.13,0C78.51,147.4,78.51,149.62,78.5,151.82Zm6.92-2.34c0,.35,0,.75,0,1.13H83.85c0-.37,0-.76,0-1.13Zm-5.51,0h1.63c0,.35,0,.75,0,1.13H79.91Z"/><path class="cls-2" d="M421.1,116.68,416,114.43a30.36,30.36,0,1,0-59.56-11.13l-5.14-.06c0,2.71-.07,5.44-.1,8.14l5.35.06A30.35,30.35,0,0,0,412.92,122l4.91,2.16Zm-65.59-12.17h.79c0,.52-.07,1-.09,1.58h-.72C355.5,105.55,355.5,105,355.51,104.51Zm-.08,5.51,0-1.62.77,0c0,.54.06,1.08.12,1.61Zm31.13,24.29A27.37,27.37,0,1,1,413.92,107,27.4,27.4,0,0,1,386.56,134.31Zm27.87-13-.92-.4c.24-.47.47-.94.69-1.42l.87.37Zm1.57-3.56-.91-.42c.16-.45.32-.91.46-1.37l.07-.15,1.05.46C416.44,116.76,416.22,117.26,416,117.75Z"/><path class="cls-2" d="M79,61l5.56.06c0-2.7.06-5.43.09-8.13L79,52.9A39.61,39.61,0,1,0,79,61Zm.27-6.73,1.14,0,0,1.62-1.13,0C79.21,55.4,79.22,54.86,79.23,54.3Zm1.08,4c0,.53,0,1.07,0,1.58H79.16c0-.5,0-1,0-1.57ZM3,57A36.59,36.59,0,1,1,39.58,93.57,36.62,36.62,0,0,1,3,57Z"/><path class="cls-2" d="M34.9,51.08l1.59,1.41a13.1,13.1,0,0,1,17.41,0l1.61-1.41C49.71,45.45,40,46,34.9,51.08Z"/><path class="cls-2" d="M37.93,53.91l1.59,1.43a8.67,8.67,0,0,1,11.43,0l1.6-1.42A10.78,10.78,0,0,0,37.93,53.91Z"/><path class="cls-2" d="M40.79,56.69c.53.47,1.06.94,1.57,1.41a4.48,4.48,0,0,1,5.77,0l1.59-1.4A6.52,6.52,0,0,0,40.79,56.69Z"/><path class="cls-2" d="M45.22,58.55a1.72,1.72,0,1,0,0,3.43,1.72,1.72,0,1,0,0-3.43Z"/><path class="cls-2" d="M34.54,70.86c-.7,0-.71,0-.88.66s-.37,1.53-.56,2.3H57.28c-.27-.9-.55-1.76-.79-2.63a.41.41,0,0,0-.48-.34H50.14V67.7h.52c4.52,0,9,0,13.56,0a1.69,1.69,0,0,0,1.63-1,1.63,1.63,0,0,1,.11-.17V42.81A1.94,1.94,0,0,0,63.9,41.6q-18.84,0-37.67,0a1.77,1.77,0,0,0-1.88,1.86q0,11.17,0,22.34a1.7,1.7,0,0,0,1.89,1.9h14v3.16Zm-8.13-5.63V44.05h37.5V65.23Z"/><path class="cls-2" d="M21.47,41.54H14.69A1.3,1.3,0,0,0,13.21,43V72.25a1.31,1.31,0,0,0,1.45,1.44h6.78a1.33,1.33,0,0,0,1.48-1.48V43A1.33,1.33,0,0,0,21.47,41.54Zm-6.76,19.2c-.37,0-.47-.28-.47-.6s.08-.67.49-.67.42.4.42.67S15,60.74,14.71,60.74Zm1.58,0a.57.57,0,0,1-.53-.63c0-.3,0-.69.53-.69s.52.42.52.69S16.63,60.74,16.29,60.74ZM21,61a.63.63,0,0,1-.67-.67.64.64,0,0,1,.65-.68.66.66,0,0,1,.67.65A.69.69,0,0,1,21,61Zm.95-10.52a.26.26,0,0,1-.26.26H14.5a.26.26,0,0,1-.26-.26v-.68a.26.26,0,0,1,.26-.26h7.17a.26.26,0,0,1,.26.26Zm0-1.83a.26.26,0,0,1-.26.26H14.5a.26.26,0,0,1-.26-.26v-.69a.26.26,0,0,1,.26-.26h7.17a.26.26,0,0,1,.26.26Zm0-1.84a.26.26,0,0,1-.26.26H14.5a.26.26,0,0,1-.26-.26v-.68a.26.26,0,0,1,.26-.26h7.17a.26.26,0,0,1,.26.26Z"/><path class="cls-2" d="M256.07,151.82h8.14c0-1.92,0-3.85,0-5.75l-8.13,0C256.09,148,256.08,149.89,256.07,151.82Zm6.93-1.51v1.13l-1.58,0V150.3Zm-5.52-.05,1.63,0c0,.35,0,.75,0,1.13h-1.61Z"/><path class="cls-2" d="M454.18,43.84c.89.81,1.76,1.58,2.63,2.35a14.27,14.27,0,0,1,18.82,0l2.64-2.33A17.74,17.74,0,0,0,454.18,43.84Z"/><path class="cls-2" d="M458.9,48.43l2.59,2.31c3.19-2.31,6.34-2.33,9.5,0l2.62-2.3A10.71,10.71,0,0,0,458.9,48.43Z"/><path class="cls-2" d="M466.2,51.48a2.83,2.83,0,1,0,0,5.66,2.84,2.84,0,0,0,2.91-2.88A2.89,2.89,0,0,0,466.2,51.48Z"/><path class="cls-2" d="M588.56,107.78a13.78,13.78,0,0,0-4.95,1,1.31,1.31,0,0,1-.83.13c-.61-.15-1.06.17-1.41.92l-3.92-.09c0,.15,0,.56,0,1.09h-8a8.5,8.5,0,0,0-9.18-8H536.94c-.89.07-3.72,0-5-1.19a2.18,2.18,0,0,1-.67-1.77c0-.33,0-.65,0-1h.83c3.6,0,7.47-2,7.47-6.17V88.8l18.19,0H567c6,0,8.54-1.5,12.77-5.73l8.67-8.68.51.51,2.74-2.75a1.39,1.39,0,0,0,.19.15,1.19,1.19,0,0,0,1.76-.35.74.74,0,0,1,.49-.38,12.36,12.36,0,0,0,4.65-2.79c1.2-1.18,2.39-2.38,3.58-3.57l.19-.21-7.85-7.85-.14.13c-1.27,1.27-2.57,2.52-3.81,3.81a14,14,0,0,0-2.71,4.27,1.27,1.27,0,0,1-.48.69c-.52.34-.6.88-.3,1.66l-2.78,2.76.41.41-8.66,8.65c-3.63,3.63-5,4.27-9.23,4.27h-9.28l-18.19,0V80h.6c0-1.32,0-2.6,0-3.89l.24,0a1.2,1.2,0,0,0,1-1.49.76.76,0,0,1,.09-.61,12.29,12.29,0,0,0,1.37-5.24c0-1.69,0-3.38.06-5.06v-.28l-11.11-.13s0,.12,0,.2c0,1.79-.07,3.59-.05,5.38a13.59,13.59,0,0,0,1.05,4.95,1.3,1.3,0,0,1,.13.83c-.13.61.19,1,.94,1.4,0,1.28,0,2.57,0,3.91h.69v4a9.83,9.83,0,0,0-6.24,2.78c-1.87,2-2.28,4.58-2.29,7.17l-5.76,0h-.08a7.89,7.89,0,0,0-6.27,2.49,8,8,0,0,0-1.75,5.89c0,1.55.05,15.92,0,26.33H455.46v-6.5l0-.38a1.86,1.86,0,0,1,.32-1.14,3.1,3.1,0,0,1,2.29-.64h4.46c2.44-.11,5.93-2,5.93-6.78v-7.41h.6c0-1.31,0-2.6,0-3.88l.23,0a1.19,1.19,0,0,0,1-1.49.8.8,0,0,1,.08-.61,12.35,12.35,0,0,0,1.34-5.26c0-1.68,0-3.37,0-5.06,0-.09,0-.19,0-.27l-11.11,0s0,.12,0,.19c0,1.8-.05,3.59,0,5.39a13.83,13.83,0,0,0,1.08,4.94,1.28,1.28,0,0,1,.14.82c-.13.61.2,1.06.95,1.4,0,1.28,0,2.57,0,3.91h.69v7.41c0,.46,0,1.69-1.15,1.79H458c-3.33,0-5.15,1.29-6.08,2.38a6.74,6.74,0,0,0-1.5,4.92v6.27c-5.64-.22-7.88-.78-11-1.83-.63-.22-1.82-.69-3-1.2l.3-.67-3.56-1.56c0-.07.05-.15.07-.23a1.2,1.2,0,0,0-1-1.51.78.78,0,0,1-.53-.32,12.44,12.44,0,0,0-4.29-3.32c-1.53-.69-3.08-1.36-4.63-2l-.25-.1c-1.5,3.4-3,6.78-4.47,10.17l.17.08c1.64.72,3.28,1.48,4.94,2.16a13.57,13.57,0,0,0,5,1,1.26,1.26,0,0,1,.81.2c.51.36,1,.24,1.66-.32l3.58,1.58.22-.51c1.3.54,2.65,1.08,3.41,1.34,4.92,1.68,8.25,2.2,19.47,2.2h54.81c0,.62,0,1.21,0,1.76,0,6.23-4.61,6.85-15.85,6.81h-1.38c-3.77,0-6.76,1.17-8.88,3.46a12.09,12.09,0,0,0-2.89,6.19h5.1a6.61,6.61,0,0,1,1.48-2.81,6.81,6.81,0,0,1,5.19-1.84h1.37c9.72,0,20.76.05,20.86-11.77,0-.56,0-1.16,0-1.8h35.65c.67,0,5.69-.1,8.6-3a6.89,6.89,0,0,0,2-5v-1.95c0-1.83,0-1.83,0-2.63v-.13a5.23,5.23,0,0,1,4.56-5.07h9.33v.2l3.88.08c0,.08,0,.16,0,.24a1.21,1.21,0,0,0,1.48,1,.76.76,0,0,1,.61.09,12.24,12.24,0,0,0,5.23,1.43c1.68.06,3.37.08,5.05.12h.28c.08-3.71.17-7.4.25-11.1l-.19,0C592.16,107.85,590.36,107.78,588.56,107.78ZM532,90.16A4.71,4.71,0,0,1,534.54,89v3.71c0,1-2.51,1.17-2.51,1.17h-1C531,92.3,531.21,91,532,90.16Zm26.5,30.65V121c0,.82,0,.82,0,2.71v2c0,2.89-5.58,3-5.64,3H517.18c0-11,0-26.29,0-26.48l0-.32a3.21,3.21,0,0,1,.55-2.15,3.39,3.39,0,0,1,2.54-.76c2.18,0,4.24,0,6,0,0,.32,0,.65,0,1a7.21,7.21,0,0,0,2.3,5.46c3,2.73,7.72,2.56,8.68,2.49h23a4.26,4.26,0,0,1,3.25,1.08,4.5,4.5,0,0,1,1,2.72A10.3,10.3,0,0,0,558.45,120.81Z"/><path class="cls-2" d="M344.73,101.68a13.75,13.75,0,0,0-4.94,1,1.3,1.3,0,0,1-.83.13c-.61-.13-1,.19-1.4.94l-3.92,0v.69H316.83l-.05-16.52h.27c0-1.32,0-2.6,0-3.88l.24,0a1.19,1.19,0,0,0,1-1.49.77.77,0,0,1,.09-.61,12.29,12.29,0,0,0,1.37-5.24c0-1.69,0-3.37.06-5.06v-.28l-11.11-.12s0,.12,0,.19c0,1.8-.07,3.59-.05,5.39a13.54,13.54,0,0,0,1.05,4.94,1.3,1.3,0,0,1,.13.83c-.13.61.19,1,.94,1.4,0,1.28,0,2.58,0,3.92h1l.05,16.55H267c-5.62,0-9,3.66-9,9.79,0,1.47,0,3.23,0,5.09H247.5c-.95-.06-5.85-.21-9,2.71a8.06,8.06,0,0,0-2.54,6.07c0,3,0,4.2,0,5.11s0,1.44,0,3c-.06,2.9-.09,4.64-5.63,4.64l-59.24.07a1.34,1.34,0,0,0,0-.2V124.11h53.64a7.54,7.54,0,0,0,5.74-2.25,8.11,8.11,0,0,0,2-5.64v-.82h.63c0-1.32,0-2.6,0-3.89l.24,0a1.2,1.2,0,0,0,1-1.49.77.77,0,0,1,.09-.61,12.44,12.44,0,0,0,1.37-5.24c0-1.69,0-3.37.06-5.06v-.28l-11.11-.12s0,.12,0,.19c0,1.79-.07,3.59-.05,5.39a13.58,13.58,0,0,0,1.05,4.94,1.3,1.3,0,0,1,.13.83c-.13.61.19,1,.94,1.4,0,1.28,0,2.58-.05,3.92h.66v1a3.09,3.09,0,0,1-.66,2,2.82,2.82,0,0,1-2.08.65H171.07v-24a7.49,7.49,0,0,0-1.91-5.23c-1.61-1.75-4-2.64-7.12-2.64H149.28a1.81,1.81,0,0,1-1.94-2v-.49h.48c0-1.31,0-2.59,0-3.88l.24,0a1.19,1.19,0,0,0,1-1.49.76.76,0,0,1,.09-.61,12.34,12.34,0,0,0,1.37-5.25c0-1.68,0-3.37.06-5.06v-.27L139.52,68s0,.12,0,.19c0,1.8-.07,3.6,0,5.39a13.64,13.64,0,0,0,1,5,1.27,1.27,0,0,1,.13.82c-.13.61.19,1.06.94,1.4,0,1.28,0,2.58,0,3.92h.8v.52a6.78,6.78,0,0,0,6.89,7H162a4.9,4.9,0,0,1,3.41,1,2.43,2.43,0,0,1,.63,1.59v24.25H150.31V105.36a9.14,9.14,0,0,0-2.48-6.22,10.08,10.08,0,0,0-7.52-2.83c-6.68,0-15.72-.08-25.08-.1,0-14.23,0-33.68,0-35.48v-.1c0-1.5-.1-6.05-6.43-6.07-2,0-4.45,0-6.61,0a1.78,1.78,0,0,1,0-.26l-3.89,0c0-.07,0-.16,0-.24a1.21,1.21,0,0,0-1.49-1,.76.76,0,0,1-.61-.08A12.15,12.15,0,0,0,91,51.55c-1.69,0-3.38,0-5.06-.07h-.28l-.12,11.1h.19c1.79,0,3.59.08,5.38.06a13.8,13.8,0,0,0,5-1,1.24,1.24,0,0,1,.83-.13c.61.13,1-.19,1.4-.95l3.91,0c0-.14,0-.52,0-1,2.16,0,4.67,0,6.63,0a3.51,3.51,0,0,1,1.38.19,5.61,5.61,0,0,1,.06,1v.11c0,1.75,0,21.47,0,35.38H90.17C85.11,96.19,80,99.54,80,107.05c0,1.71,0,3.78,0,6-16.07,0-34,.1-38.34.1-3.53,0-5.26,1.45-6.09,2.67-1.87,2.75-.6,6.22-.47,6.54l4,11-.53.18,1.3,3.67-.22.1a1.2,1.2,0,0,0-.43,1.74.79.79,0,0,1,.13.61,12.31,12.31,0,0,0,.52,5.39c.55,1.6,1.12,3.18,1.68,4.77l.1.26,10.47-3.71,0-.18c-.6-1.69-1.17-3.4-1.81-5.08a13.76,13.76,0,0,0-2.69-4.28,1.24,1.24,0,0,1-.41-.73c-.08-.62-.54-.92-1.37-1-.42-1.2-.86-2.43-1.3-3.69l-.68.25-4-11.05a2.88,2.88,0,0,1-.09-2c.16-.22.77-.48,2-.48,4.34,0,22.26,0,38.34-.1,0,4.07,0,7.81,0,9.62H79.7c0,1.31,0,2.6,0,3.88l-.24,0a1.18,1.18,0,0,0-1,1.49.83.83,0,0,1-.08.62,12.19,12.19,0,0,0-1.33,5.25c0,1.69,0,3.37,0,5.06,0,.1,0,.2,0,.28l11.1,0s0-.12,0-.19c0-1.8,0-3.6,0-5.39a13.59,13.59,0,0,0-1.09-4.94,1.28,1.28,0,0,1-.14-.82c.13-.61-.2-1.06-1-1.4,0-1.28,0-2.57,0-3.91H85c0-1.81,0-5.56,0-9.63l22.7-.07c3-.13,7.55-2.13,7.55-7.09v-5.27c0-1.28,0-2.75,0-4.34,9.35,0,18.38.05,25,.1,4.67,0,5,3,5,4v13.81H127.47c-5.86,0-9,2.84-9,8.21v1h-.39c0,1.31,0,2.6,0,3.88l-.24,0a1.2,1.2,0,0,0-1,1.5.76.76,0,0,1-.07.61,12.37,12.37,0,0,0-1.29,5.27c0,1.69,0,3.37,0,5.06,0,.1,0,.19,0,.27l11.11,0v-.19c0-1.8,0-3.6,0-5.39a13.57,13.57,0,0,0-1.12-4.93,1.35,1.35,0,0,1-.15-.82c.13-.62-.2-1.05-1-1.39,0-1.28,0-2.58,0-3.92l-.9,0v-.94c0-1.72,0-3.21,4-3.21h17.84V136.7a8.94,8.94,0,0,0,2.56,6.66A10,10,0,0,0,154.5,146h10.68a9.22,9.22,0,0,1-1.9,3.18L161,151.82h6.57A16.45,16.45,0,0,0,170.4,146l59.9-.07c10.44,0,10.57-6.69,10.63-9.54,0-1.67,0-2.27,0-3.18s0-2.09,0-5a3,3,0,0,1,.92-2.42c1.46-1.36,4.38-1.48,5.37-1.41H258c0,1.46,0,2.86,0,4.12h-.73c0,1.31,0,2.59,0,3.88l-.24,0a1.19,1.19,0,0,0-1,1.49.72.72,0,0,1-.08.61,12.34,12.34,0,0,0-1.33,5.26c0,1.68,0,3.37,0,5.06,0,.09,0,.19,0,.27l11.1.05a1.09,1.09,0,0,0,0-.19c0-1.8,0-3.6,0-5.39a13.78,13.78,0,0,0-1.08-4.94,1.23,1.23,0,0,1-.14-.83c.13-.61-.2-1.05-1-1.39,0-1.28,0-2.58,0-3.92H263c0-1.26,0-2.66,0-4.12h45.18c6.81,0,8.63-6.52,8.65-10l0-4.9h16.77c0,.28,0,.49,0,.59l3.88,0q0,.1,0,.24a1.21,1.21,0,0,0,1.49,1,.76.76,0,0,1,.61.08,12.29,12.29,0,0,0,5.24,1.37c1.69,0,3.37,0,5.06.06a2.61,2.61,0,0,0,.28,0l.12-11.11h-.19C348.32,101.71,346.53,101.66,344.73,101.68Zm-234.51,3.87v5.27c0,1.78-2.19,2.05-2.74,2.09L85,113c0-2.15,0-4.21,0-5.92,0-5.3,3.63-5.87,5.19-5.87h20.06C110.23,102.83,110.22,104.3,110.22,105.55ZM154.55,141a5.11,5.11,0,0,1-3.21-1.2,4.13,4.13,0,0,1-1-3.07V124.11h15.76V141Zm157.31-26.64c0,.51-.17,5-3.65,5H263c0-1.86,0-3.62,0-5.09,0-4.21,1.91-4.79,4-4.79h44.85Z"/><path class="cls-2" d="M423.32,46.26a13.54,13.54,0,0,0,4.94-1,1.31,1.31,0,0,1,.83-.13c.61.14,1.06-.19,1.4-.94l3.92,0v-.37H438q0,17.26,0,34.52a2.93,2.93,0,0,0,3.08,3.1h21.13c0,2.23,0,4.47,0,6.67l8.13,0c0-2.22,0-4.48,0-6.71h20.38a2.79,2.79,0,0,0,3.12-3.12c0-7.4,0-55.13,0-62.58a2.78,2.78,0,0,0-1.68-2.68l-.29-.17H439.92c-1.51.63-2,1.76-2,3.39q0,11.28,0,22.55h-3.51c0-.45,0-.79,0-.92l-3.88,0a2,2,0,0,0,0-.24,1.19,1.19,0,0,0-1.48-1,.75.75,0,0,1-.61-.09,12.48,12.48,0,0,0-5.25-1.37c-1.68,0-3.37,0-5.06-.06h-.27q-.08,5.56-.13,11.11h.19C419.73,46.23,421.52,46.28,423.32,46.26Zm40,37.6V82.73l1.58,0v1.12Zm5.51,0-1.62,0,0-1.14,1.61,0C468.86,83.15,468.86,83.54,468.85,83.91ZM442,16.26H489.7V75.35H442Z"/><path class="cls-2" d="M141.09,61.49c0,1.87-.05,3.74-.07,5.58l8.14.09c0-1.88,0-3.78.06-5.67a30.92,30.92,0,1,0-8.13,0Zm1.2,1.34V61.7l1.2,0h.38v1.12Zm5.51.09-1.63,0c0-.35,0-.75,0-1.14l1.61,0C147.81,62.16,147.8,62.55,147.8,62.92ZM145.13,3a27.89,27.89,0,1,1-27.89,27.88A27.92,27.92,0,0,1,145.13,3Z"/><path class="cls-2" d="M127.7,18h1.47l.1.31,5.31,20.42c.24.93.54,1.16,1.47,1.16h19.33c1,0,1.29-.23,1.53-1.18l2.56-9.82c.53-2.06,1.07-4.12,1.6-6.18a1.06,1.06,0,0,0-.63-1.33,2.37,2.37,0,0,0-.76-.1h-27c-.31,0-.44-.08-.52-.39-.32-1.34-.68-2.67-1-4a1.22,1.22,0,0,0-1.42-1.09c-1.66,0-3.33,0-5,0a1.4,1.4,0,0,0-1.46.81v.6a1.39,1.39,0,0,0,1.47.8C125.73,18,126.72,18,127.7,18ZM155.12,37c-.2.76-.2.76-1,.76H151.1V34.47h4.67C155.55,35.32,155.33,36.15,155.12,37Zm1.27-4.91a.3.3,0,0,1-.23.18h-5.07V29h6.1C156.92,30,156.66,31.06,156.39,32.07Zm-5.3-8.54h7.52c-.27,1.07-.55,2.14-.84,3.23h-6.68Zm-2.23,8.7h-6.24V29h6.24Zm-6.24-8.71h6.23v3.24h-6.23Zm0,11h6.25v3.25l-.36,0c-1.84,0-3.67,0-5.5,0-.3,0-.41-.07-.4-.38C142.61,36.4,142.6,35.44,142.6,34.47Zm-2.2,3.24c-.11,0-.23,0-.35,0-1,0-2.09,0-3.14,0-.27,0-.38-.08-.44-.35-.23-1-.49-1.92-.76-2.93h4.69Zm0-5.47-.34,0c-1.53,0-3.06,0-4.58,0a.37.37,0,0,1-.43-.33c-.24-1-.5-2-.75-3h6.1Zm0-8.72v3.23a3,3,0,0,1-.31,0H134c-.13,0-.33-.09-.36-.18-.28-1-.54-2-.81-3.07Z"/><path class="cls-2" d="M152.9,40.81a4,4,0,1,0,3.95,4A4,4,0,0,0,152.9,40.81Zm0,5.77a1.79,1.79,0,1,1,1.78-1.79A1.79,1.79,0,0,1,152.89,46.58Z"/><path class="cls-2" d="M138.64,40.81a4,4,0,1,0,4,4A4,4,0,0,0,138.64,40.81Zm0,5.77a1.79,1.79,0,1,1,1.81-1.8A1.81,1.81,0,0,1,138.61,46.58Z"/><path class="cls-2" d="M226.34,92.45c0,1.77,0,3.54-.06,5.28l8.14.1.06-5.39a33.14,33.14,0,1,0-8.14,0Zm1.2,1c0-.29,0-.61,0-.93.52.05,1,.08,1.58.1v.85Zm5.52.08-1.63,0,0-.87c.54,0,1.08-.05,1.61-.1C233.07,92.92,233.06,93.26,233.06,93.58Zm-2.67-64.19A30.16,30.16,0,1,1,210,81.73V67.9c0-.11,0-.23,0-.34a1.16,1.16,0,0,0-1.35-1.07c-.62.09-1,.6-1,1.39q0,5.72,0,11.42a30.13,30.13,0,0,1,22.76-49.91Z"/><path class="cls-2" d="M228.28,54.9h10.64a1.91,1.91,0,0,0,1.74-.84,2.53,2.53,0,0,1,2.19-1.16h1.79a1.36,1.36,0,0,0,1.46-1.21,5.24,5.24,0,0,1,.24-.86,9,9,0,0,1,4.14-4.65c.15-.08.29-.18.54-.33h-.29q-15.42,0-30.82,0a8.88,8.88,0,0,0-4.3,1.08,9.55,9.55,0,0,0-5.14,8h17.81Z"/><path class="cls-2" d="M237.6,55.85l-.41,0h-26c-.36,0-.52.1-.51.47,0,1.18,0,2.38.13,3.56a7.88,7.88,0,0,0,1.37,3.74,2.61,2.61,0,0,0,2.5,1.3c.5,0,1,0,1.49,0H218v5.76h3.95V64.85h17.67C237.65,62.1,237.37,59.06,237.6,55.85Z"/><path class="cls-2" d="M223.79,71.46H211.23l-.3,0v2.46h12.66a2.25,2.25,0,0,0,.64-.06,1.25,1.25,0,0,0,.85-1.36A1.24,1.24,0,0,0,223.79,71.46Z"/><path class="cls-2" d="M247.65,50a7.54,7.54,0,0,1,1.76,3c.09.26.22.33.47.27.54-.15,1.1-.25,1.63-.43a3.82,3.82,0,0,0,2.65-3,5.28,5.28,0,0,0-.61-3.69.43.43,0,0,0-.39-.16A9.19,9.19,0,0,0,247.65,50Z"/><path class="cls-2" d="M247.25,50.85c-.33.87-.75,1.65.17,2.35a1.4,1.4,0,0,1,.35.53,8.8,8.8,0,0,1,0,7.86,2.46,2.46,0,0,1-2.23,1.65,2.58,2.58,0,0,1-2.24-1.64A7.76,7.76,0,0,1,242.4,58a8.79,8.79,0,0,1,.87-4.24c-1-.13-1.1,0-1.29.83A14.19,14.19,0,0,0,242,61a8,8,0,0,0,1.53,3.31c1.19,1.42,2.66,1.44,3.81,0a7.18,7.18,0,0,0,1.08-1.88,13.53,13.53,0,0,0,.43-8.25A7.63,7.63,0,0,0,247.25,50.85Z"/><path class="cls-2" d="M241,55.07a2.75,2.75,0,0,1-2,.74c-.38,0-.5.15-.49.48,0,.88-.06,1.76,0,2.63a10.21,10.21,0,0,0,1.54,5,2.94,2.94,0,0,0,3.28,1.44C240.74,62.33,240.57,58.79,241,55.07Z"/><path class="cls-2" d="M245.09,54.77a2.4,2.4,0,0,0-.27.53,6.31,6.31,0,0,0-.26,3.22,6.13,6.13,0,0,0,.55,1.68c.27.54.64.53.95,0a5,5,0,0,0,.6-2.92,1.24,1.24,0,0,1-1.34-.93,1.28,1.28,0,0,1,.77-1.49C245.73,54.23,245.44,54.21,245.09,54.77Z"/><path class="cls-2" d="M244.07,54.08a8,8,0,0,0,0,7.14,1.66,1.66,0,0,0,1.48,1.17c.76,0,1.16-.59,1.47-1.18a7.6,7.6,0,0,0,.66-4.72,1.19,1.19,0,0,0-.13.57,7.15,7.15,0,0,1-.48,3.07c-.28.64-.64,1.29-1.46,1.3s-1.23-.65-1.5-1.32a7.26,7.26,0,0,1-.35-4.1,3.89,3.89,0,0,1,1.12-2.28A.57.57,0,0,0,244.07,54.08Z"/><path class="cls-2" d="M214.24,75.28c-.83.47-1.75.78-2.63,1.17s-.86.5-.62,1.41l6.9-3A6,6,0,0,0,214.24,75.28Z"/><path class="cls-2" d="M210.92,74.77v1.06l2.34-1.06Z"/><path class="cls-2" d="M247.41,55.2a3.56,3.56,0,0,0-1.19-2l-.48.36C246.72,53.72,246.85,54.67,247.41,55.2Z"/><path class="cls-2" d="M310.32,64.71c0,1.86-.05,3.72-.07,5.55l8.14.1.06-5.66a28.19,28.19,0,1,0-8.13,0Zm1.2,1.32V64.9h.64c.31,0,.62,0,.94.06v1.08ZM317,65c0,.38,0,.78,0,1.14l-1.62,0c0-.34,0-.73,0-1.1l.51,0Zm-2.68-53.36a25.2,25.2,0,1,1-25.2,25.2A25.23,25.23,0,0,1,314.36,11.61Z"/><path class="cls-2" d="M320.05,40a1.72,1.72,0,0,0-2.19-.15,6.85,6.85,0,0,1-6.8.21c-1.59-.74-1.81-.73-3.14.45a10.66,10.66,0,0,0-3.77,8.85c0,.49,0,1,0,1.47a2.1,2.1,0,0,0,1.54,2.32,17.48,17.48,0,0,0,2.66.56,28.31,28.31,0,0,0,12.85-.17c3.38-.92,3.39-.89,3.34-4.38A11,11,0,0,0,320.05,40Z"/><path class="cls-2" d="M303,45.3a11.38,11.38,0,0,1,4.7-6.25c.61-.39.61-.71.22-1.25a6.39,6.39,0,0,1-1.13-4.88c.13-.84-.13-.91-.83-.65a6.66,6.66,0,0,1-6.22-.62,1.41,1.41,0,0,0-1.73.06,10.19,10.19,0,0,0-4.34,6.1,24.06,24.06,0,0,0-.43,5A2,2,0,0,0,294.8,45a24.07,24.07,0,0,0,7,1.2C302.6,46.27,302.73,46.18,303,45.3Z"/><path class="cls-2" d="M329.09,31.51a6.87,6.87,0,0,1-6.3.81c-.78-.24-1.07-.06-1,.82a6.18,6.18,0,0,1-.7,4.06c-.72,1.17-.69,1.42.39,2.25a11.08,11.08,0,0,1,4,5.75,1.29,1.29,0,0,0,1.61,1,37.52,37.52,0,0,0,5.66-1c2.3-.61,2.48-.81,2.48-3.43a20,20,0,0,0-.16-2.42,9.44,9.44,0,0,0-4.56-7.72A1.21,1.21,0,0,0,329.09,31.51Z"/><path class="cls-2" d="M313.83,39.28a6,6,0,1,0,.52-12,6,6,0,0,0-.52,12Z"/><path class="cls-2" d="M303.61,31.09a5.94,5.94,0,0,0-.22-11.88,5.94,5.94,0,1,0,.22,11.88Z"/><path class="cls-2" d="M325.26,31.09a5.94,5.94,0,1,0-6.07-5.91A5.92,5.92,0,0,0,325.26,31.09Z"/><path class="cls-2" d="M395.18,88.06l-.87-.24H377.6l-.13.06a3.27,3.27,0,0,0-3,3.58q0,15.84,0,31.66a3.32,3.32,0,0,0,3.5,3.56c5.32,0,10.63,0,15.95,0a3.33,3.33,0,0,0,3.38-2.52,5.36,5.36,0,0,0,.11-1.2q0-15.7,0-31.39c0-.18,0-.36,0-.53A3.18,3.18,0,0,0,395.18,88.06Zm-13.05,1.52h7.67c.29,0,.54.06.56.41s-.14.48-.53.48h-7.7c-.31,0-.57,0-.58-.43S381.7,89.58,382.13,89.58ZM386,125.23a1.77,1.77,0,1,1,1.74-1.79A1.76,1.76,0,0,1,386,125.23Zm9.68-4.79H376.27V92.25h19.38Z"/><path class="cls-2" d="M533.41,56.09c0,2.09,0,4.2-.07,6.27l8.14.09c0-2.15,0-4.33.07-6.49a27.27,27.27,0,1,0-8.14.13Zm2.78,2.06-1.59,0c0-.36,0-.76,0-1.13l1.58,0Zm3.93.06-1.63,0c0-.35,0-.75,0-1.13l1.61,0C540.13,57.45,540.12,57.84,540.12,58.21ZM537,4.82a24.26,24.26,0,1,1-24.26,24.26A24.28,24.28,0,0,1,537,4.82Z"/><path class="cls-2" d="M546.44,27.43a.66.66,0,0,1-.52.73,4.11,4.11,0,0,0-.84.34.68.68,0,0,1-.94-.16c-.48-.53-1-1-1.43-1.5-.9.9-1.75,1.73-2.62,2.59l1,1c1,1,.87.73.37,1.85-.32.74-.31.75-1.12.75h-2v3.62h2.2a.55.55,0,0,1,.61.44,5,5,0,0,0,.28.82.7.7,0,0,1-.19.94c-.55.51-1.06,1.05-1.56,1.54.87.87,1.7,1.71,2.57,2.57.46-.46.94-.94,1.41-1.43a.54.54,0,0,1,.71-.14,10.76,10.76,0,0,1,1.12.58.8.8,0,0,1,.32.53,9.3,9.3,0,0,1,0,1.18v1h3.6c0-.62,0-1.21,0-1.8a.59.59,0,0,1,.5-.65,7.6,7.6,0,0,0,1.08-.36.71.71,0,0,1,.92.19c.41.45.85.88,1.24,1.28l2.58-2.6-1.13-1.09a.55.55,0,0,1-.11-.77c.22-.41.41-.82.59-1.25a.63.63,0,0,1,.67-.44l1.78,0V33.63c-.5,0-1,0-1.51,0a.69.69,0,0,1-.78-.55,6.55,6.55,0,0,0-.44-1.14A.67.67,0,0,1,555,31c.42-.39.82-.8,1.15-1.13l-2.57-2.58-1.18,1.21a.56.56,0,0,1-.71.12c-.37-.17-.74-.34-1.13-.48a.68.68,0,0,1-.53-.76c0-.62,0-1.25,0-1.88h-3.62C546.43,26.17,546.41,26.8,546.44,27.43Zm5.68,7.24a4.37,4.37,0,1,1-4.36-4.37A4.37,4.37,0,0,1,552.12,34.67Z"/><path class="cls-2" d="M521.47,31.81l-2.37,2.37,4.42,4.42.25-.24L526,36.12a.61.61,0,0,1,.84-.14c.55.31,1.12.59,1.69.86a.61.61,0,0,1,.4.65c0,1,0,2,0,3v.8h6.26v-.46c0-.91,0-1.82,0-2.73a.61.61,0,0,1,.53-.7c.45-.11.88-.27,1.32-.39a.4.4,0,0,0,.34-.47c0-1.23,0-2.46,0-3.68,0-.68.11-.79.81-.79s1.32,0,2,0c.31,0,.42-.13.54-.38s0-.36-.16-.5c-.46-.45-.92-.91-1.37-1.37s-.32-.55,0-.88c1-1,2-2,3-3,.34-.34.56-.34.91,0s1,.95,1.45,1.46c.2.22.36.12.55,0s.43-.11.41-.43c0-.56,0-1.11,0-1.67s.1-.81.83-.81H548v-1c0-.11,0-.21,0-.36h-2.72c-.6,0-.66-.07-.86-.61s-.48-1.31-.75-1.95-.23-.6.2-1L546,17.48,541.56,13c-.7.7-1.43,1.42-2.15,2.16a.63.63,0,0,1-.81.15c-.66-.3-1.32-.59-2-.85a.63.63,0,0,1-.47-.68c0-.66,0-1.32,0-2V10.38h-6.26v.45c0,1,0,2,0,3a.61.61,0,0,1-.44.65c-.61.23-1.21.47-1.79.74a.61.61,0,0,1-.78-.15l-1.4-1.4-1.27-1.3-4.43,4.44c.83.83,1.69,1.71,2.57,2.56a.69.69,0,0,1,.16.91,15.39,15.39,0,0,0-.64,1.44.7.7,0,0,1-.74.51c-1.22,0-2.43,0-3.64,0h-.41v6.26h.4c1.11,0,2.22,0,3.33,0a.67.67,0,0,1,.77.56,6.75,6.75,0,0,0,.29.9C522.32,31.15,522.42,30.85,521.47,31.81Zm11.06-13a7,7,0,1,1-7,7.07A7.07,7.07,0,0,1,532.53,18.79Z"/><path class="cls-2" d="M653.3,100.37a28.2,28.2,0,0,0-51.71,6.36,28.53,28.53,0,0,0-.63,2.82l-5.87-.13c-.06,2.7-.12,5.43-.19,8.13l5.86.13a28.2,28.2,0,1,0,52.54-17.31Zm-53,15.9-1.14,0c0-.54,0-1.08,0-1.62l1.13,0C600.33,115.17,600.32,115.71,600.31,116.27Zm.09-3.94-1.13,0c0-.53,0-1.07,0-1.58l1.13,0C600.43,111.25,600.41,111.79,600.4,112.33ZM653.05,121a25.21,25.21,0,1,1-2.36-19.14A25.07,25.07,0,0,1,653.05,121Z"/><path class="cls-2" d="M644.08,104.92a6.12,6.12,0,0,1-2.36-.67,13.44,13.44,0,0,1-2.86-2.16,5.74,5.74,0,0,0-4.42-1.93c-1.33,0-2.66,0-4,0a6,6,0,0,0-4.92,2.13,7.66,7.66,0,0,1-5.24,2.69,2.77,2.77,0,0,0-2.67,2.29,31.9,31.9,0,0,0-.27,4.38,9.25,9.25,0,0,1,8.78,11.69,3.66,3.66,0,0,0,.42,0c5.66,0,11.32,0,17,0a3.8,3.8,0,0,0,3.79-3.67c.07-3.82.06-7.65,0-11.47A3.47,3.47,0,0,0,644.08,104.92Zm-11.5,14a6.78,6.78,0,1,1,6.85-6.78A6.78,6.78,0,0,1,632.58,119Zm10.62-8.37a1.48,1.48,0,0,1-1.51-1.53,1.51,1.51,0,0,1,1.48-1.51,1.54,1.54,0,0,1,1.56,1.51A1.52,1.52,0,0,1,643.2,110.58Z"/><path class="cls-2" d="M617.45,113.28a7.46,7.46,0,1,0,7.39,7.5A7.43,7.43,0,0,0,617.45,113.28Zm1.38,9c0,.46,0,.9,0,1.35a1.44,1.44,0,1,1-2.88,0c0-.44,0-.89,0-1.36-1.21-.14-2.83.31-2.81-1.53s1.62-1.3,2.8-1.45c0-.45,0-.87,0-1.29a1.44,1.44,0,1,1,2.88,0c0,.42,0,.84,0,1.3,1.21.13,2.83-.35,2.8,1.51S620,122.08,618.83,122.23Z"/><path class="cls-2" d="M632.72,107.4a4.76,4.76,0,1,0,4.67,4.82A4.78,4.78,0,0,0,632.72,107.4Z"/><path class="cls-2" d="M386.53,66.24a25.61,25.61,0,0,0,25.26-21.6l5,.06c0-2.71.07-5.43.1-8.14l-5.12-.05a25.56,25.56,0,1,0-25.22,29.73Zm26-22.8H412c.05-.52.09-1,.12-1.58h.49C412.55,42.39,412.55,42.92,412.54,43.44Zm.08-5.52c0,.54,0,1.09,0,1.63l-.53,0c0-.54-.07-1.08-.13-1.62ZM386.53,18.11A22.57,22.57,0,1,1,364,40.68,22.6,22.6,0,0,1,386.53,18.11Z"/><path class="cls-2" d="M372.72,45.12a5.51,5.51,0,0,0,6.64,0,.6.6,0,0,1,.77-.09q2.89,1.56,5.81,3.08c.33.17.37.36.36.7a8.65,8.65,0,0,0,0,2,5.54,5.54,0,1,0,2-5.48.87.87,0,0,1-.75.1q-2.9-1.49-5.74-3a.66.66,0,0,1-.32-.49c0-.94,0-1.89,0-2.9,2.19-1.22,4.44-2.49,6.71-3.72a.89.89,0,0,1,.72.07,5.94,5.94,0,0,0,2.94.76,5.54,5.54,0,1,0-5.3-3.54c-2.23,1.25-4.44,2.49-6.66,3.7a.82.82,0,0,1-.65-.15,5.93,5.93,0,0,0-3-1,5.56,5.56,0,0,0-3.51,10Z"/></g></g></g></svg>