<svg xmlns="http://www.w3.org/2000/svg" xmlns:xlink="http://www.w3.org/1999/xlink" viewBox="0 0 498.76 88.43"><defs><style>.cls-1{fill:#ecc358;}.cls-2{fill:url(#Degradado_sin_nombre_105);}.cls-3{fill:#ffe786;}.cls-4{fill:#663815;}.cls-5{fill:#e10a17;}.cls-6{fill:url(#Degradado_sin_nombre_94);}.cls-7{fill:url(#Degradado_sin_nombre_94-2);}.cls-8{fill:url(#Degradado_sin_nombre_94-3);}.cls-9{fill:url(#Degradado_sin_nombre_94-4);}.cls-10{fill:url(#Degradado_sin_nombre_94-5);}.cls-11{fill:url(#Degradado_sin_nombre_94-6);}</style><radialGradient id="Degradado_sin_nombre_105" cx="312.96" cy="44.21" r="38.36" gradientUnits="userSpaceOnUse"><stop offset="0" stop-color="#fff"/><stop offset="0.16" stop-color="#f5ef9d"/><stop offset="1" stop-color="#e84e1c"/></radialGradient><radialGradient id="Degradado_sin_nombre_94" cx="295.91" cy="33.03" fx="286.3898095555495" r="11.28" gradientUnits="userSpaceOnUse"><stop offset="0.06" stop-color="#3c3c3b"/><stop offset="0.15" stop-color="#2a2a29"/><stop offset="0.28" stop-color="#171717"/><stop offset="0.42" stop-color="#0a0a0a"/><stop offset="0.62" stop-color="#020202"/><stop offset="1"/></radialGradient><radialGradient id="Degradado_sin_nombre_94-2" cx="-2264.62" cy="1117.37" fx="-2274.13488308677" r="11.28" gradientTransform="translate(2413.54 1427.37) rotate(60.02)" xlink:href="#Degradado_sin_nombre_94"/><radialGradient id="Degradado_sin_nombre_94-3" cx="2210.52" cy="4430.93" fx="2201.007641649745" r="11.28" gradientTransform="translate(-2419.32 4195.32) rotate(-120.02)" xlink:href="#Degradado_sin_nombre_94"/><radialGradient id="Degradado_sin_nombre_94-4" cx="-367.1" cy="5546.31" fx="-376.6158231280771" r="11.28" gradientTransform="translate(-38.37 5602.16) rotate(-179.99)" xlink:href="#Degradado_sin_nombre_94"/><radialGradient id="Degradado_sin_nombre_94-5" cx="-2608.06" cy="3881.89" fx="-2617.576698040379" r="11.28" gradientTransform="matrix(-0.5, 0.87, -0.87, -0.5, 2388.09, 4235.84)" xlink:href="#Degradado_sin_nombre_94"/><radialGradient id="Degradado_sin_nombre_94-6" cx="2535.97" cy="1655.56" fx="2526.451603814839" r="11.28" gradientTransform="matrix(0.5, -0.87, 0.87, 0.5, -2406.73, 1422.54)" xlink:href="#Degradado_sin_nombre_94"/></defs><g id="Capa_2" data-name="Capa 2"><g id="Capa_1-2" data-name="Capa 1"><path class="cls-1" d="M356.68,21.75h8l9.39,25c.61,1.65,1.12,3.09,1.54,4.33s.78,2.41,1.1,3.49q1.18-3.93,2.47-7.69c.12-.31.19-.53.24-.64l10-26.5,10.51,27c.49,1.31,1,2.62,1.4,3.93s.86,2.63,1.24,4c.23-1,.53-2.13.92-3.35s.88-2.67,1.49-4.34l9.31-25.25h8L403,73.3,391.71,45c-.49-1.26-.94-2.48-1.35-3.64s-.77-2.27-1.09-3.31c-.38,1.34-.76,2.59-1.15,3.75s-.78,2.27-1.18,3.34L375.82,73.3Z"/><path class="cls-1" d="M427.74,71.36V21.75h27.68V28.6H435.8V41h19.62v7.08H435.8v16h19.62v7.21Z"/><path class="cls-1" d="M472.23,49.17V71.36h-7.56V21.75h11.25a35.2,35.2,0,0,1,7.68.65,12.18,12.18,0,0,1,4.66,2.13,11.81,11.81,0,0,1,3.55,4.65,15.18,15.18,0,0,1,1.26,6.23q0,6-2.88,9.34c-1.92,2.25-4.76,3.59-8.51,4l17.08,22.56h-9.11L473.14,49.17Zm.51-6.27h1.45q6.4,0,8.51-1.49t2.1-5.29c0-2.73-.75-4.66-2.25-5.77s-4.29-1.68-8.36-1.68h-1.45Z"/><circle class="cls-1" cx="312.96" cy="44.21" r="44.21"/><circle class="cls-2" cx="312.96" cy="44.21" r="38.36"/><path d="M313,5.86a38.36,38.36,0,1,0,38.36,38.35A38.35,38.35,0,0,0,313,5.86Zm0,75.43A37.08,37.08,0,1,1,350,44.21,37.08,37.08,0,0,1,313,81.29Z"/><path class="cls-3" d="M283.64,55c2.21-5.23,5.69-9,10.07-10.81A16.56,16.56,0,0,1,299.59,43a21.93,21.93,0,0,1,8,1.33,21.24,21.24,0,0,0-7.4-3.43c-.37,0-.75,0-1.13,0-.93,0-1.86.11-2.77.23A23.41,23.41,0,0,0,290.66,43l-.52.26-.46-.36-.58-.5c-7.06,3.85-10.21,12-10.21,12s1.85,1.07,4.16,2.12C283.22,56,283.42,55.53,283.64,55Z"/><path class="cls-3" d="M291.21,24.39h0a18.4,18.4,0,0,1,12,3.5c5.75,4.36,6.85,11.49,7,13.22a21.38,21.38,0,0,0-.32-8.25,25.91,25.91,0,0,0-2.62-4.1,23,23,0,0,0-4.44-3.94l-.49-.32.09-.58s.06-.38.17-.92c-6.83-4.06-15.35-2.73-15.35-2.73s0,2,.22,4.5A26,26,0,0,1,291.21,24.39Z"/><path class="cls-3" d="M303.21,60.8c.8-6.43,5.41-10.72,7.37-12.28a21,21,0,0,0-7.11,4.68,25.19,25.19,0,0,0-1.69,3.41,22.9,22.9,0,0,0-1.18,5.81l0,.58-.54.21s-.44.17-1.07.37c-.34,8.17,5.3,15.16,5.3,15.16s2-1.15,4.16-2.72c-.29-.35-.59-.72-.88-1.1C304.11,70.39,302.62,65.5,303.21,60.8Z"/><path class="cls-3" d="M334.46,64.57a18.37,18.37,0,0,1-12-3.5c-5.37-4.07-6.69-10.54-7-12.8l-.19-.14a21,21,0,0,0,.29,8.15A27,27,0,0,0,318,60a23.22,23.22,0,0,0,4.44,3.93l.48.32-.08.58s-.08.52-.25,1.24c6.89,4.29,15.66,2.92,15.66,2.92s0-2.2-.25-4.78A27,27,0,0,1,334.46,64.57Z"/><path class="cls-3" d="M342.38,33.73c-2.21,5.23-5.69,9-10.06,10.8a16.41,16.41,0,0,1-5.89,1.26,22,22,0,0,1-8.81-1.65l-.14,0A21,21,0,0,0,325,48.11h1.38a25,25,0,0,0,2.76-.24A22.63,22.63,0,0,0,334.79,46l.52-.25.46.36s.37.3.88.77C343.83,43.06,347,34.75,347,34.75s-1.88-1.09-4.21-2.15C342.7,33,342.55,33.35,342.38,33.73Z"/><path class="cls-3" d="M322.09,28c-.74,5.91-4.71,10-6.86,11.85,0,.32-.05.5-.05.5a21,21,0,0,0,7.37-4.77,24.75,24.75,0,0,0,1.69-3.42,23.11,23.11,0,0,0,1.19-5.81l0-.58.54-.21c.05,0,.43-.17,1.06-.38.34-8.16-5.3-15.15-5.3-15.15a52.81,52.81,0,0,0-4.62,3.06c.2.25.41.51.62.79C321.18,18.37,322.68,23.26,322.09,28Z"/><path class="cls-4" d="M283.32,54.07c2.37-5.15,6-8.78,10.4-10.48a16.36,16.36,0,0,1,5.92-1.06,21.92,21.92,0,0,1,7.95,1.58,21.06,21.06,0,0,0-7.29-3.67l-1.13,0c-.93,0-1.86,0-2.77.14a23.36,23.36,0,0,0-5.68,1.7l-.53.24-.45-.38s-.24-.2-.56-.51c-7.18,3.63-10.59,11.7-10.59,11.7s1.81,1.13,4.08,2.25C282.87,55.08,283.08,54.58,283.32,54.07Z"/><path class="cls-4" d="M291.86,23.7h0a18.35,18.35,0,0,1,11.88,3.89c5.61,4.54,6.48,11.7,6.61,13.44a20.93,20.93,0,0,0-.06-8.26,26.05,26.05,0,0,0-2.48-4.19,23.24,23.24,0,0,0-4.31-4.07l-.48-.34.11-.57c0-.05.07-.38.2-.92-6.7-4.28-15.26-3.22-15.26-3.22s-.07,2.05.08,4.5A28.42,28.42,0,0,1,291.86,23.7Z"/><path class="cls-4" d="M302.69,60.48c1-6.4,5.75-10.54,7.76-12a21.15,21.15,0,0,0-7.26,4.45,25.22,25.22,0,0,0-1.79,3.36A22.58,22.58,0,0,0,300,62l-.06.58-.55.19c-.05,0-.44.16-1.08.34-.6,8.15,4.82,15.31,4.82,15.31s2-1.08,4.24-2.58c-.28-.36-.56-.74-.84-1.13C303.29,70.09,302,65.16,302.69,60.48Z"/><path class="cls-4" d="M333.8,65.25a18.37,18.37,0,0,1-11.88-3.89c-5.24-4.23-6.34-10.75-6.58-13l-.18-.14a21,21,0,0,0,0,8.15,26.26,26.26,0,0,0,2.3,3.81,22.91,22.91,0,0,0,4.31,4.07l.47.34-.1.57c0,.06-.1.52-.28,1.24,6.74,4.51,15.55,3.41,15.55,3.41s.08-2.2-.1-4.78A27.75,27.75,0,0,1,333.8,65.25Z"/><path class="cls-4" d="M342.71,34.68c-2.38,5.15-6,8.77-10.41,10.47a16.33,16.33,0,0,1-5.92,1.07,22,22,0,0,1-8.76-1.94l-.13.06a21.07,21.07,0,0,0,7.41,4.16q.66,0,1.38,0a25.38,25.38,0,0,0,2.76-.14,23.66,23.66,0,0,0,5.69-1.7l.53-.24.44.38s.37.31.86.79c7.3-3.58,10.77-11.78,10.77-11.78s-1.84-1.15-4.14-2.28C343,33.93,342.88,34.3,342.71,34.68Z"/><path class="cls-5" d="M308.55,28a26.48,26.48,0,0,1,4.92,12.1s7-4.35,8.23-12c1.72-10.87-8.71-19-8.71-19a42.33,42.33,0,0,0-6.21,7.3A25.32,25.32,0,0,0,304,23.77,23.63,23.63,0,0,1,308.55,28Z"/><path class="cls-6" d="M290.56,41.43a24,24,0,0,1,6-1.78,26.56,26.56,0,0,1,12.94,1.79s-.26-8.26-6.3-13.14c-8.56-6.92-20.81-1.95-20.81-1.95a42.12,42.12,0,0,0,3.22,9A25.43,25.43,0,0,0,290.56,41.43Z"/><path class="cls-7" d="M304,23.76A23.84,23.84,0,0,1,308.55,28a26.48,26.48,0,0,1,4.92,12.1s7-4.35,8.23-12c1.72-10.88-8.71-19-8.71-19a42.37,42.37,0,0,0-6.21,7.3A25.31,25.31,0,0,0,304,23.76Z"/><path class="cls-5" d="M300.56,55.88a26.46,26.46,0,0,1,8-10.32s-7.29-3.9-14.53-1.11c-10.28,3.95-12.1,17-12.1,17a42.17,42.17,0,0,0,9.43,1.73,25.39,25.39,0,0,0,7.73-1.29A23.83,23.83,0,0,1,300.56,55.88Z"/><path class="cls-5" d="M316.75,60.7a26.48,26.48,0,0,1-4.92-12.1s-7,4.36-8.23,12c-1.72,10.88,8.71,19,8.71,19a41.9,41.9,0,0,0,6.21-7.3A25.31,25.31,0,0,0,321.27,65,23.84,23.84,0,0,1,316.75,60.7Z"/><path class="cls-5" d="M335.1,47.53a23.66,23.66,0,0,1-6,1.77,26.42,26.42,0,0,1-12.94-1.79s.26,8.26,6.3,13.14c8.56,6.92,20.81,2,20.81,2a42.12,42.12,0,0,0-3.22-9A25.26,25.26,0,0,0,335.1,47.53Z"/><path class="cls-5" d="M325.47,32.87a26.57,26.57,0,0,1-8,10.31s7.28,3.9,14.52,1.12c10.28-4,12.1-17,12.1-17a42.17,42.17,0,0,0-9.43-1.73,25.31,25.31,0,0,0-7.73,1.3A23.71,23.71,0,0,1,325.47,32.87Z"/><path class="cls-4" d="M322.61,28.27c-.93,5.88-5,9.86-7.24,11.63,0,.32-.06.49-.06.49a21,21,0,0,0,7.52-4.53,25.93,25.93,0,0,0,1.8-3.37A23.51,23.51,0,0,0,326,26.73l.06-.58.54-.2s.44-.15,1.08-.34c.6-8.15-4.81-15.31-4.81-15.31a53.9,53.9,0,0,0-4.73,2.91q.3.39.6.81C322,18.65,323.35,23.58,322.61,28.27Z"/><path class="cls-8" d="M321.27,65a23.63,23.63,0,0,1-4.52-4.27,26.44,26.44,0,0,1-4.93-12.1s-7,4.36-8.22,12c-1.72,10.88,8.72,19,8.72,19a42.8,42.8,0,0,0,6.21-7.3A25.47,25.47,0,0,0,321.27,65Z"/><path class="cls-9" d="M335.11,47.53a24.26,24.26,0,0,1-6,1.77,26.56,26.56,0,0,1-12.94-1.79s.26,8.26,6.3,13.14c8.55,6.92,20.81,2,20.81,2a42.12,42.12,0,0,0-3.22-9A25.09,25.09,0,0,0,335.11,47.53Z"/><path class="cls-10" d="M326.9,26.81a23.83,23.83,0,0,1-1.45,6.05,26.47,26.47,0,0,1-8,10.31s7.28,3.91,14.52,1.12c10.28-3.94,12.11-17,12.11-17a42.17,42.17,0,0,0-9.43-1.73A25.39,25.39,0,0,0,326.9,26.81Z"/><path class="cls-11" d="M299.12,61.93a23.62,23.62,0,0,1,1.44-6,26.46,26.46,0,0,1,8-10.32s-7.29-3.9-14.53-1.11c-10.28,4-12.09,17-12.09,17a42.17,42.17,0,0,0,9.43,1.73A25.31,25.31,0,0,0,299.12,61.93Z"/><path class="cls-1" d="M0,71.26V21.65H12.5a39.72,39.72,0,0,1,7.92.58,11.51,11.51,0,0,1,4.35,1.9,11.28,11.28,0,0,1,3.58,4.44,14.36,14.36,0,0,1,1.27,6.06,11.46,11.46,0,0,1-1.83,6.63A9.58,9.58,0,0,1,22.47,45a10.18,10.18,0,0,1,6.82,3.94,13.22,13.22,0,0,1,2.5,8.26,15.66,15.66,0,0,1-1.06,5.72,12.79,12.79,0,0,1-3,4.61,11.18,11.18,0,0,1-5.05,2.92,42.34,42.34,0,0,1-10.13.84ZM7.9,42.6H11q5.76,0,8.15-1.58t2.39-5.3c0-2.71-.74-4.62-2.21-5.71S15.07,28.36,11,28.36H7.9Zm0,21.92h2.77A42.71,42.71,0,0,0,17,64.18,7.88,7.88,0,0,0,20.33,63a6.51,6.51,0,0,0,2.31-2.64,8.25,8.25,0,0,0,.81-3.66,8.38,8.38,0,0,0-1-4.13,6.92,6.92,0,0,0-2.82-2.75A9.83,9.83,0,0,0,17,49a22.58,22.58,0,0,0-3.92-.28H7.9Z"/><path class="cls-1" d="M40,71.26V21.65h8.06V64h22l-4,7.22Z"/><path class="cls-1" d="M105.39,71.26,99.76,58.49H80.11L74.35,71.26H65.87l24-51.57,24,51.57ZM83.09,51.78H96.91L91.83,40.46c-.29-.72-.6-1.55-.91-2.49s-.64-2-1-3.13q-.41,1.62-.87,3c-.3.94-.61,1.8-.93,2.59Z"/><path class="cls-1" d="M157.16,33.72a24.61,24.61,0,0,0-7.23-4.37,22.07,22.07,0,0,0-8-1.46,17.68,17.68,0,0,0-13.23,5.22q-5.1,5.22-5.1,13.52a18.46,18.46,0,0,0,5,13.25,16.54,16.54,0,0,0,12.52,5.22,22.76,22.76,0,0,0,8.38-1.56,26.59,26.59,0,0,0,7.65-4.71v9.11A23.79,23.79,0,0,1,150,71.43a28.61,28.61,0,0,1-8.3,1.15,29,29,0,0,1-10.52-1.86,24.74,24.74,0,0,1-14.06-13.88,28,28,0,0,1,0-20.53,25.4,25.4,0,0,1,14.11-14,27.86,27.86,0,0,1,10.34-1.88,27,27,0,0,1,8.33,1.27,29.43,29.43,0,0,1,7.69,3.84Z"/><path class="cls-1" d="M167.16,71.26V21.65h8.06V42.19l17.83-20.54h9.86L183.26,43.71l22,27.55H194.84L175.22,45.92V71.26Z"/><path class="cls-1" d="M210.19,71.26V21.65h27.69V28.5H218.26V40.87h19.62V48H218.26V71.26Z"/><path class="cls-1" d="M268.71,64h-14V21.65h-8.07V71.26h26.09A47.81,47.81,0,0,1,268.71,64Z"/></g></g></svg>