<svg xmlns="http://www.w3.org/2000/svg" viewBox="0 0 14.89 16.01"><defs><style>.cls-1{fill:#0e74ba;}</style></defs><g id="Capa_2" data-name="Capa 2"><g id="Capa_1-2" data-name="Capa 1"><path class="cls-1" d="M7.78,0h4.07a.05.05,0,0,1,0,.08L11.7.33,11.59.5a.57.57,0,0,0-.11.16L11.26,1s0,0,0,0a2.11,2.11,0,0,0-.21.31L10.6,2V2a2.2,2.2,0,0,0-.21.32l-.12.17a.54.54,0,0,0-.1.16A2.7,2.7,0,0,0,9.94,3h0a2,2,0,0,0-.2.3c-.16.22-.31.45-.45.68V4a3.46,3.46,0,0,0-.22.31l-.11.17a.54.54,0,0,0-.1.16A3.29,3.29,0,0,0,8.61,5V5a2.9,2.9,0,0,0-.19.29,1.21,1.21,0,0,0-.15.22,2,2,0,0,0,.35,0h3.07s.11,0,.12,0,0,.07-.06.1v0l-.15.16a.93.93,0,0,0-.16.18,1.45,1.45,0,0,0-.17.18.47.47,0,0,0-.13.15,1.31,1.31,0,0,0-.2.21.29.29,0,0,0-.1.12l-.05,0c-.2.23-.4.45-.61.67s-.37.42-.56.62-.21.22-.3.33,0,0,0,0A3.83,3.83,0,0,0,9,8.6l-.05.07a2.16,2.16,0,0,0-.25.27A.26.26,0,0,0,8.6,9a1.64,1.64,0,0,0-.21.24.34.34,0,0,0-.12.12,1.29,1.29,0,0,0-.19.21,1,1,0,0,0-.14.15l-.15.16,0,0L6.42,11.4,6,11.91q-.17.16-.3.33l0,0a2.44,2.44,0,0,0-.27.29.23.23,0,0,0-.07.07,2.1,2.1,0,0,0-.24.27S5,13,5,13a2.41,2.41,0,0,0-.21.24.32.32,0,0,0-.11.12,1,1,0,0,0-.19.21,1.06,1.06,0,0,0-.15.15.93.93,0,0,0-.16.18,1.45,1.45,0,0,0-.17.18.61.61,0,0,0-.13.15h0l0,0-.14.15h0l0,0a.38.38,0,0,0-.1.12l0,0-.61.66-.57.64h0l0,0s0,.08-.09.06,0-.07,0-.1c.12-.23.24-.45.35-.68s.24-.44.34-.67.24-.44.35-.66a1.24,1.24,0,0,0,.1-.2.31.31,0,0,0,.06-.13,2.11,2.11,0,0,0,.18-.33c.12-.22.23-.44.34-.66A.34.34,0,0,0,4,12.46a.91.91,0,0,0,.11-.22l.17-.33a.19.19,0,0,0,0-.1,1,1,0,0,0,.12-.23,2,2,0,0,0,.17-.32.34.34,0,0,0,.06-.12.69.69,0,0,0,.1-.19,2,2,0,0,0,.18-.36.21.21,0,0,0,0-.06,1.66,1.66,0,0,0,.13-.27c.07-.11.12-.22.18-.33l0,0a2.49,2.49,0,0,0,.15-.28c.06-.11.12-.22.17-.33v0c.06-.1.11-.21.16-.31s.12-.22.17-.33.12-.22.17-.33h0v0c.06-.1.11-.21.16-.31s.08-.07,0-.08a1.29,1.29,0,0,0-.34,0H5.63s-.06,0-.09,0H4.9a1.22,1.22,0,0,0-.27,0H4.3a1.22,1.22,0,0,0-.33,0H3.64c-.05,0,0,0,0-.08l.25-.52A.51.51,0,0,0,4,7.1.38.38,0,0,0,4.06,7c.06-.11.12-.22.17-.33s.24-.44.35-.66a.67.67,0,0,0,.06-.12.84.84,0,0,0,.11-.21,2.68,2.68,0,0,0,.18-.33s0,0,0-.08A2.1,2.1,0,0,0,5.1,5a2,2,0,0,0,.17-.32h0a0,0,0,0,0,0,0v0a2.64,2.64,0,0,0,.15-.29A1.71,1.71,0,0,0,5.62,4a0,0,0,0,0,0,0,3.24,3.24,0,0,0,.17-.32A6.82,6.82,0,0,0,6.14,3c.13-.22.24-.44.35-.66s.24-.44.35-.66.24-.44.35-.67.23-.44.35-.66A1.51,1.51,0,0,0,7.63.15.36.36,0,0,1,7.78,0Z"/><path class="cls-1" d="M14.89,7.63v1s0,.05,0,.07c0,.2,0,.4-.07.6l-.06.33c0,.11-.06.22-.08.33l-.09.31a.06.06,0,0,0,0,0,1.92,1.92,0,0,0-.11.31l-.13.33-.31.64-.41.69a.05.05,0,0,0,0,.05,1.79,1.79,0,0,0-.2.28,1.15,1.15,0,0,0-.14.17,1,1,0,0,0-.13.16c-.1.11-.19.22-.3.32s-.37.36-.56.54a.61.61,0,0,0-.15.13.75.75,0,0,0-.18.13l-.28.2-.05,0-.66.4-.66.3-.33.13-.66.2-.33.07-.33.06c-.36,0-.71.08-1.06.09H7.28l-.33,0-.31,0-.35-.05L6,15.37l-.35-.08L5,15.08,4.64,15l-.47-.23c-.12-.06-.12-.06,0-.17l.6-.64a.3.3,0,0,1,.25-.1c.22.07.43.17.66.23a1.59,1.59,0,0,0,.33.08,1.08,1.08,0,0,0,.31.07,3.09,3.09,0,0,0,.68.09H7a1.13,1.13,0,0,0,.26,0h.33a1.83,1.83,0,0,0,.33,0,3,3,0,0,0,.67-.09,1.3,1.3,0,0,0,.33-.07,1.32,1.32,0,0,0,.33-.08,4.88,4.88,0,0,0,.64-.23l0,0h0a2.72,2.72,0,0,0,.66-.33,3,3,0,0,0,.66-.45.38.38,0,0,0,.14-.11.65.65,0,0,0,.18-.15,1.71,1.71,0,0,0,.2-.18l.14-.15a.9.9,0,0,0,.19-.2.75.75,0,0,0,.14-.17.53.53,0,0,0,.12-.14,4.48,4.48,0,0,0,.47-.67,3.78,3.78,0,0,0,.35-.66,3.74,3.74,0,0,0,.25-.66,2,2,0,0,0,.09-.33,5.13,5.13,0,0,0,.13-.66,1.87,1.87,0,0,0,0-.34V8.47a1.34,1.34,0,0,0,0-.2,1.82,1.82,0,0,0,0-.33.56.56,0,0,0,0-.13,0,0,0,0,0,0,0V7.61a2.19,2.19,0,0,0,0-.36,4.13,4.13,0,0,0-.12-.63,1.14,1.14,0,0,0-.08-.33,1.59,1.59,0,0,0-.1-.33.85.85,0,0,0-.09-.22v0h0l0-.07a1.43,1.43,0,0,0-.14-.34A1.91,1.91,0,0,0,12.91,5s0,0,0,0a2.9,2.9,0,0,0-.2-.33l-.1-.15a1.24,1.24,0,0,0-.14-.18,1.45,1.45,0,0,0-.19-.23.39.39,0,0,0-.08-.1,3.2,3.2,0,0,0-.25-.27l-.07-.06a2.16,2.16,0,0,0-.27-.25.27.27,0,0,0-.1-.08,1.11,1.11,0,0,0-.23-.19A1.33,1.33,0,0,0,11.06,3a.71.71,0,0,0-.14-.1l-.21-.15s-.05,0,0-.08l.22-.33,0,0a2.61,2.61,0,0,0,.2-.3.86.86,0,0,0,.13-.2.07.07,0,0,1,.12,0l.21.13a.75.75,0,0,0,.15.09.94.94,0,0,0,.19.14,8.41,8.41,0,0,1,1,.94c.17.18.32.38.47.57a2.43,2.43,0,0,0,.14.2,1.13,1.13,0,0,0,.1.13l.39.68.3.65.23.66.09.33.08.33.05.33c0,.12,0,.25,0,.37A1.63,1.63,0,0,0,14.89,7.63Z"/><path class="cls-1" d="M0,7.28c0-.11,0-.22,0-.33l.06-.3.08-.36L.31,6l.24-.68.28-.63L1.23,4a.56.56,0,0,0,.1-.15,1.4,1.4,0,0,0,.13-.18c.18-.23.36-.45.56-.66s.2-.22.31-.32l0,0c.2-.19.41-.35.62-.52A1.09,1.09,0,0,0,3.15,2a.91.91,0,0,0,.16-.11L4,1.49l.32-.16h0l.34-.14L5.3.94,5.63.86,6,.78,6.29.73l.33,0a.75.75,0,0,0,.15,0c.07,0,.07,0,0,.07L6.69,1l-.35.67,0,.09c0,.09-.09.18-.2.22A.61.61,0,0,0,6,2a1.59,1.59,0,0,0-.33.09L5.3,2.2A1.36,1.36,0,0,0,5,2.31l0,0-.34.16a1.18,1.18,0,0,0-.29.16l0,0A1.67,1.67,0,0,0,4,2.88a.31.31,0,0,0-.15.1,1,1,0,0,0-.18.13,1.57,1.57,0,0,0-.25.2.3.3,0,0,0-.08.08A1.67,1.67,0,0,0,3,3.64s0,0,0,.06A1.27,1.27,0,0,0,2.73,4h0V4l-.05.06a2.31,2.31,0,0,0-.2.24.86.86,0,0,0-.13.2.64.64,0,0,0-.1.13c-.07.11-.14.22-.2.33A.41.41,0,0,0,2,5.05c-.05.08-.09.16-.13.24a2.07,2.07,0,0,0-.15.34.5.5,0,0,0-.05.13A.76.76,0,0,0,1.56,6a1.31,1.31,0,0,0-.1.32,1.59,1.59,0,0,0-.09.33,2.77,2.77,0,0,0-.11.64,1.39,1.39,0,0,0,0,.35l0,.33a1.82,1.82,0,0,0,0,.33,1.83,1.83,0,0,0,0,.33,1.87,1.87,0,0,0,0,.34,3.08,3.08,0,0,0,.13.66,1.35,1.35,0,0,0,.09.33,1.42,1.42,0,0,0,.11.33.47.47,0,0,0,.06.15v0h0a.35.35,0,0,0,.06.14,4,4,0,0,0,.36.68,4.09,4.09,0,0,0,.45.64.81.81,0,0,0,.12.14,1.4,1.4,0,0,0,.16.2.91.91,0,0,0,.17.17.75.75,0,0,0,.15.16c.09.09.17.18.12.33a3.47,3.47,0,0,0-.18.33c-.09.14-.15.29-.23.44s-.07.14-.19.05l-.2-.16a.74.74,0,0,0-.13-.12,1.55,1.55,0,0,0-.23-.21.38.38,0,0,0-.1-.12l-.2-.21a1,1,0,0,0-.13-.16,1.19,1.19,0,0,0-.15-.18,1.51,1.51,0,0,0-.18-.26l-.05-.07-.4-.66-.32-.66a2.19,2.19,0,0,0-.12-.33,2,2,0,0,0-.09-.26.14.14,0,0,0,0-.07l-.1-.33A2,2,0,0,0,.15,9.6l0-.33,0-.33V8.86c0-.31,0-.63,0-.95S0,7.49,0,7.28Z"/></g></g></svg>