<svg xmlns="http://www.w3.org/2000/svg" viewBox="0 0 64.33 64.33"><defs><style>.cls-1{fill:#fff;}.cls-2{fill:#0e74ba;}</style></defs><g id="Capa_2" data-name="Capa 2"><g id="Capa_1-2" data-name="Capa 1"><circle class="cls-1" cx="32.16" cy="32.26" r="27.58"/><path class="cls-2" d="M11.29,32.72l4.21,1.42c1.48-4.32,2.92-8.52,4.41-12.84l-4.16-1.41C14.27,24.16,12.84,28.26,11.29,32.72Z"/><path class="cls-2" d="M43.85,22l6.07,12.3a30.46,30.46,0,0,1,3.94-2.07C51.8,28,49.83,24,47.84,20Z"/><path class="cls-2" d="M32.16,0A32.17,32.17,0,1,0,64.33,32.16,32.16,32.16,0,0,0,32.16,0ZM14.7,35.89c-5.93-2-5.95-1.91-3.93-7.73,1-3,2.1-6,3.06-9,.43-1.35,1.12-1.67,2.41-1.13s2.43.79,3.61,1.27c2.11.86,4.11,1.41,6.38.26.86-.43,2.26-.1,3.3.23,3.15,1,6.26,2.08,9.35,3.23,1,.36,2.55.83,2.27,2-.38,1.53-1.11,3.07-2.78,3.19C36.2,28.4,33,27.15,32,26.81c-.38.58-.73,1.14-1.11,1.67A7.09,7.09,0,0,1,22.48,31c-.42-.19-1.1-.77-.93-1.28s.94-.48,1.38-.44c4.67.52,5.14.26,7.47-3.62A1.8,1.8,0,0,1,32.11,25c1.35.39,2.85,1,4.62,1.42,1.54.35,2.39-.34,2.6-1.15-5.85-2-11.07-5.51-18-2.39-1.19,3.5-2.66,7.61-4,11.77C16.85,36.12,16.22,36.4,14.7,35.89Zm40-1.87c-3.17,1.26-5.61,3.63-8.4,5.45C41.36,42.7,36,45.25,30.75,48c-2.41,1.28-4,1.09-4.84-1.62-2.07.86-3.41.33-4.39-2a1.1,1.1,0,0,0-.46-.23A3.11,3.11,0,0,1,19.13,40c.12-.3,0-.45-.16-.79-.92-2.08-.63-3.07,1.36-4.34a17.82,17.82,0,0,1,3.27-1.7c.45-.16,1.33-.34,1.59.13s-.37,1.12-.76,1.36c-1,.65-2.16,1.1-3.2,1.71-.76.44-1.17,1.14-.85,1.69s1.28.3,1.76.09c2.21-1,4.34-2.15,6.55-3.14.5-.22,1.51-.55,1.79,0s-.58,1.29-1.08,1.56c-2.24,1.22-4.6,2.24-6.84,3.47-.67.37-2,1.07-1.65,1.81s1.63.08,2.29-.22c2.64-1.18,5.2-2.54,7.84-3.72.55-.25,1.66-.64,2-.06s-.62,1.28-1.13,1.55c-2.36,1.28-4.83,2.38-7.2,3.66-.48.26-1.47.7-1.05,1.54.26.53,1.28.24,1.76,0,2.51-1.15,4.94-2.46,7.47-3.58.56-.25,1.8-.55,2.06.1s-.78,1.17-1.33,1.48c-1.58.89-3.27,1.6-4.86,2.48-.35.19-.89.77-.71,1.21a1,1,0,0,0,1.38.37C35.8,43.26,42.6,40.29,48,35.57a1.25,1.25,0,0,0,.25-.26c-1.89-3.87-3.82-8-5.87-11.9-.85-1.63-.73-2.55,1.08-3.19A20.32,20.32,0,0,0,47,18.57c1.26-.73,2-.58,2.66.83,1.91,4.08,3.91,8.13,6,12.15C56.22,32.82,56,33.51,54.69,34Z"/></g></g></svg>