<svg xmlns="http://www.w3.org/2000/svg" viewBox="0 0 27.49 40.94"><defs><style>.cls-1{fill:#0e74ba;}.cls-2{fill:#161b32;}.cls-3{fill:#2f4379;}.cls-4{fill:#fff;}</style></defs><g id="Capa_2" data-name="Capa 2"><g id="Capa_1-2" data-name="Capa 1"><path class="cls-1" d="M.05,7.89c0-.57.43-.8.84-1,3.64-2.12,7.26-4.3,11-6.33a3.75,3.75,0,0,1,3.8,0l11,6.34c.41.24.83.48.84,1-.25.27-.1.62-.17.92a2.07,2.07,0,0,0-.44.15L16,15.27a3.91,3.91,0,0,1-4,.19c-2.49-1.33-4.92-2.8-7.38-4.18A48,48,0,0,0,.22,8.81C.15,8.51.3,8.16.05,7.89Zm14,5.29s.32-.18.6-.33c2.4-1.35,4.81-2.71,7.2-4.08,1.08-.62,1.06-.91,0-1.55C20,6.15,18.11,5.14,16.32,4c-1.62-1-3-1.56-4.84-.2a63.44,63.44,0,0,1-6,3.53c-.3.17-.65.37-.67.74s.41.42.67.57l7,4A2.86,2.86,0,0,0,14.07,13.18Z"/><path class="cls-1" d="M27.28,29.46a57.67,57.67,0,0,0-5.74,3.22c-2,1.11-3.9,2.3-5.83,3.47A3.79,3.79,0,0,1,11.6,36C8,33.83,4.32,31.68.68,29.54a1.17,1.17,0,0,0-.46-.08c-.07-.31.08-.65-.17-.92-.11-.62.85-.85.54-1.54.17.09.19.25.23.41-.19.62.19.95.62,1.24s.77.42,1.16.64c3.1,1.79,6.2,3.59,9.32,5.37a3.59,3.59,0,0,0,3.7.05c3.46-2,6.91-4,10.36-6,.47-.28.9-.62.69-1.28a.38.38,0,0,1,.1,0c.17.37.62.53.67,1C27.19,28.7,27.36,29.09,27.28,29.46Z"/><path class="cls-1" d="M27.28,22.64a24.2,24.2,0,0,0-4.22,2.28c-2.48,1.36-4.9,2.83-7.34,4.27a3.79,3.79,0,0,1-4-.07c-3.5-1.95-6.95-4-10.42-6a4.31,4.31,0,0,0-1.12-.45c-.08-.37.09-.77-.16-1.11a.65.65,0,0,1,.45-.62c.36.21.51.61.88.82,3.36,1.91,6.74,3.78,10,5.81a4.28,4.28,0,0,0,5-.16c1.76-1.1,3.61-2.05,5.37-3.14s3.7-1.85,5.2-3.33a.66.66,0,0,1,.45.62C27.19,21.87,27.36,22.27,27.28,22.64Z"/><path class="cls-1" d="M27.28,15.63l-6.35,3.66c-1.84,1.07-3.67,2.16-5.53,3.19a3.34,3.34,0,0,1-3.35-.08c-1.84-1-3.65-2.1-5.47-3.14C4.46,18,2.34,16.84.21,15.63c-.06-.3.09-.65-.16-.92a.16.16,0,0,1,.08-.23c.2,0,.25-.18.27-.35h0c.47.05.54.56.91.76,3.53,2,7,4,10.56,6a3.62,3.62,0,0,0,3.91-.07c1.78-1.08,3.62-2,5.39-3.13A45.66,45.66,0,0,0,27,14.13c.48.16.51.54.44,1C27.26,15.22,27.31,15.44,27.28,15.63Z"/><path d="M27,14.13a45.66,45.66,0,0,1-5.82,3.58c-1.77,1.09-3.61,2.05-5.39,3.13a3.62,3.62,0,0,1-3.91.07c-3.53-2-7-4-10.56-6-.37-.2-.44-.71-.91-.76l.29-.56a12.09,12.09,0,0,1,2.89,1.52c2.74,1.55,5.45,3.14,8.16,4.72,1.78,1,3.36.44,4.95-.51,3.16-1.88,6.34-3.73,9.51-5.58a2.31,2.31,0,0,1,.53-.15Z"/><path d="M27,20.91c-1.5,1.48-3.46,2.24-5.2,3.33s-3.61,2-5.37,3.14a4.28,4.28,0,0,1-5,.16c-3.29-2-6.67-3.9-10-5.81-.37-.21-.52-.61-.88-.82l.29-.35a12.08,12.08,0,0,1,3.5,1.79c2.61,1.45,5.16,3,7.78,4.46A3.81,3.81,0,0,0,16,26.6c3.2-1.88,6.4-3.77,9.61-5.64.38-.22.78-.62,1.28-.21Z"/><path class="cls-2" d="M27.28,8.81c0,.31,0,.63,0,.94,0-.31,0-.63,0-.94a2.07,2.07,0,0,0-.44.15L16,15.27a3.91,3.91,0,0,1-4,.19c-2.49-1.33-4.92-2.8-7.38-4.18A48,48,0,0,0,.22,8.81c-.07-.3.08-.65-.17-.92,0,1.56,0,3.13,0,4.69.06.43.5.61.66,1a12.09,12.09,0,0,1,2.89,1.52c2.74,1.55,5.45,3.14,8.16,4.72,1.78,1,3.36.44,4.95-.51,3.16-1.88,6.34-3.73,9.51-5.58a2.31,2.31,0,0,1,.53-.15c.17-.37.61-.54.67-1,0-1.56,0-3.12,0-4.69C27.2,8.16,27.35,8.51,27.28,8.81ZM11.16,18.34c-.4.24-.67-.19-1-.36q-4-2.28-7.92-4.54c-1.08-.61-1.26-1-1.1-2.29.07-.61.36-.69.82-.4,1.76,1.09,3.58,2.1,5.4,3.09,1,.56,2,1.23,3,1.75.75.38,1.17.82,1,1.7C11.33,17.64,11.54,18.1,11.16,18.34Zm4.81.25c0-.8,0-1.35,0-1.9a.34.34,0,0,1,.23-.26c.12,0,.23.1.23.23C16.41,17.23,16.65,17.85,16,18.59Zm1.46-.84a3.09,3.09,0,0,1,.09-2.26A3.16,3.16,0,0,1,17.43,17.75Zm1.45-.86a2.21,2.21,0,0,1,0-2.15A4.73,4.73,0,0,1,18.88,16.89ZM20,16.06a4.43,4.43,0,0,1,0-2A2,2,0,0,1,20,16.06Zm1.35-.64a2.65,2.65,0,0,1,.09-2A2.43,2.43,0,0,1,21.37,15.42Zm1.41-.89a1.86,1.86,0,0,1,.06-1.95A3.25,3.25,0,0,1,22.78,14.53ZM24,13.67a2,2,0,0,1,.07-1.76A2.34,2.34,0,0,1,24,13.67Zm1.29-.76a2.21,2.21,0,0,1,.08-1.76A1.92,1.92,0,0,1,25.33,12.91Z"/><path class="cls-2" d="M27.44,21.53c-.25.34-.08.74-.16,1.11a24.2,24.2,0,0,0-4.22,2.28c-2.48,1.36-4.9,2.83-7.34,4.27a3.79,3.79,0,0,1-4-.07c-3.5-1.95-6.95-4-10.42-6a4.31,4.31,0,0,0-1.12-.45c-.09.89.05,1.8,0,2.69.07-.89-.07-1.8,0-2.69-.08-.37.09-.77-.16-1.11,0,1.57,0,3.13,0,4.7A1,1,0,0,0,.59,27c.17.09.19.25.23.41A12.14,12.14,0,0,1,4,29.07c2.58,1.44,5.11,3,7.68,4.43a3.85,3.85,0,0,0,4,.06c3.44-2,6.86-4,10.29-5.94a.88.88,0,0,1,.69-.21.38.38,0,0,1,.1,0c.08-.47.69-.63.68-1.15h0ZM11.38,30.82c0,1.37-.14,1.5-1.17.92-2.85-1.61-5.66-3.27-8.48-4.93a2.1,2.1,0,0,1-.49-2.2c.2-.3.44-.27.73-.1,2.87,1.67,5.75,3.35,8.63,5C11.18,29.85,11.56,30.25,11.38,30.82ZM16.11,32A2.32,2.32,0,0,1,16.29,30,2.13,2.13,0,0,1,16.11,32Zm1.18-.77c0-.54,0-1.08,0-1.62a.38.38,0,0,1,.22-.27c.13,0,.23.09.23.22C17.71,30.17,18,30.78,17.29,31.27Zm1.41-.48c-.11-.92-.27-1.57.15-2.17A2.89,2.89,0,0,1,18.7,30.79Zm1.42-1a2,2,0,0,1,.1-2A3.16,3.16,0,0,1,20.12,29.75ZM21.37,29a2.2,2.2,0,0,1,.14-1.86A2.46,2.46,0,0,1,21.37,29Zm1.26-.58a3,3,0,0,1,.17-2A2.42,2.42,0,0,1,22.63,28.4Zm1.42-.86a2,2,0,0,1,.15-2A3.36,3.36,0,0,1,24.05,27.54Zm1.33-.77a2.07,2.07,0,0,1,.12-2.05A3.2,3.2,0,0,1,25.38,26.77Z"/><path class="cls-2" d="M27.44,28.36c-.25.34-.08.73-.16,1.1a57.67,57.67,0,0,0-5.74,3.22c-2,1.11-3.9,2.3-5.83,3.47A3.79,3.79,0,0,1,11.6,36C8,33.83,4.32,31.68.68,29.54a1.17,1.17,0,0,0-.46-.08c-.07.78,0,1.57,0,2.36,0-.79-.07-1.58,0-2.36-.07-.31.08-.65-.17-.92a45.87,45.87,0,0,0,0,4.69h0c.16.54.64.75,1.07,1q5.31,3.08,10.63,6.14a3.83,3.83,0,0,0,4,0c3.61-2.06,7.2-4.16,10.79-6.26.42-.25.9-.49.92-1.09h0C27.45,31.48,27.44,29.92,27.44,28.36ZM11.38,37.87c0,1.18-.19,1.31-1.14.77-2.89-1.64-5.76-3.32-8.64-5a2.38,2.38,0,0,1-.29-2.32c.33-.28.6,0,.85.15,1.8,1,3.59,2.08,5.38,3.12.92.54,1.81,1.13,2.77,1.59C11.11,36.58,11.5,37.1,11.38,37.87Zm4.73,1.21a2.77,2.77,0,0,1,.13-2.25A2.34,2.34,0,0,1,16.11,39.08Zm1.18-.95c0-.64-.21-1.28.2-1.91C17.94,37.08,17.88,37.73,17.29,38.13Zm1.5-.78a2.16,2.16,0,0,1,0-1.76A2.2,2.2,0,0,1,18.79,37.35Zm1.29-.75a2.56,2.56,0,0,1,.11-2.1A3,3,0,0,1,20.08,36.6ZM21.32,36a4.74,4.74,0,0,1,.07-2.25A2.45,2.45,0,0,1,21.32,36Zm1.37-.95a2.17,2.17,0,0,1,.14-1.86C22.88,33.85,23.12,34.49,22.69,35.09ZM24,34.3a2,2,0,0,1,.14-1.85A2,2,0,0,1,24,34.3Zm1.39-.7a2.25,2.25,0,0,1,.16-2.15A4,4,0,0,1,25.38,33.6Z"/><path class="cls-2" d="M27.28,15.63l-6.35,3.66c-1.84,1.07-3.67,2.16-5.53,3.19a3.34,3.34,0,0,1-3.35-.08c-1.84-1-3.65-2.1-5.47-3.14C4.46,18,2.34,16.84.21,15.63h0c-.06-.3.09-.65-.16-.92V19.4c.09.49.56.74.75,1.16a12.08,12.08,0,0,1,3.5,1.79c2.61,1.45,5.16,3,7.78,4.46A3.81,3.81,0,0,0,16,26.6c3.2-1.88,6.4-3.77,9.61-5.64.38-.22.78-.62,1.28-.21-.19-.62.56-.83.59-1.35h0l0-4.31C27.26,15.22,27.31,15.44,27.28,15.63Zm-15.9,8.42c0,1.33-.13,1.44-1.18.84Q6,22.52,1.91,20.09a2.06,2.06,0,0,1-.72-2.29c.26-.52.66-.22,1-.05,1.34.75,2.68,1.52,4,2.29s2.85,1.7,4.3,2.51C11.1,22.91,11.52,23.35,11.38,24.05Zm4.77,1.18c-.28-.15-.22-.37-.2-.53.07-.48-.22-1,.26-1.41,0,0,.19.08.19.13C16.41,24,16.7,24.69,16.15,25.23Zm1.25-.82a2.65,2.65,0,0,1,.17-2.06A1.93,1.93,0,0,1,17.4,24.41Zm1.26-.55a3.34,3.34,0,0,1,.24-2.28A3,3,0,0,1,18.66,23.86Zm1.51-.79a2.48,2.48,0,0,1,0-2.25A4.88,4.88,0,0,1,20.17,23.07Zm1.22-.94a2.29,2.29,0,0,1,.07-1.85A2.14,2.14,0,0,1,21.39,22.13Zm1.21-.53a4.53,4.53,0,0,1,.12-2.19A2.29,2.29,0,0,1,22.6,21.6ZM24,20.83a3.48,3.48,0,0,1,.19-2.33A3.23,3.23,0,0,1,24,20.83Zm1.28-.76a4.26,4.26,0,0,1,.12-2.18A2.27,2.27,0,0,1,25.24,20.07Z"/><path class="cls-3" d="M.4,14.13c0,.17-.07.32-.27.35C.18,14.34.23,14.19.4,14.13Z"/><path d="M14.07,13.18a2.86,2.86,0,0,1-1.58-.52l-7-4c-.26-.15-.69-.18-.67-.57s.37-.57.67-.74a63.44,63.44,0,0,0,6-3.53c1.82-1.36,3.22-.84,4.84.2C18.11,5.14,20,6.15,21.83,7.22c1.1.64,1.12.93,0,1.55-2.39,1.37-4.8,2.73-7.2,4.08C14.39,13,14.12,13.18,14.07,13.18Z"/><path class="cls-1" d="M11.37,17.29c0,.35.17.81-.21,1.05s-.67-.19-1-.36q-4-2.28-7.92-4.54c-1.08-.61-1.26-1-1.1-2.29.07-.61.36-.69.82-.4,1.77,1.09,3.58,2.1,5.4,3.09,1,.56,2,1.23,3,1.75C11.14,16,11.56,16.41,11.37,17.29ZM7.29,14.64c-.07.5-.26.93.16,1.2.85.54,1.75,1,2.69,1.58.07-.55.26-1-.19-1.25C9.1,15.66,8.23,15.18,7.29,14.64Zm-2.5-1.31c-.22,0-.35.1-.33.28s.17.61.54.67A.24.24,0,0,0,5.29,14,.7.7,0,0,0,4.79,13.33Zm-1.33-.75c-.21,0-.28.19-.24.4s.16.49.44.54S4,13.4,4,13.18A.61.61,0,0,0,3.46,12.58Zm-1.25-.74c-.22,0-.31.12-.29.3a.63.63,0,0,0,.45.63c.26.06.31-.15.3-.35A.57.57,0,0,0,2.21,11.84Z"/><path class="cls-1" d="M11.38,24.05c0,1.33-.13,1.44-1.18.84Q6,22.52,1.91,20.09a2.06,2.06,0,0,1-.72-2.29c.26-.52.66-.22,1-.05,1.34.75,2.68,1.52,4,2.29s2.85,1.7,4.3,2.51C11.1,22.91,11.52,23.35,11.38,24.05ZM7.32,21.52A1,1,0,0,0,7.93,23c.49.21.92.54,1.4.77.26.12.58.62.84.17a.78.78,0,0,0-.43-1.09C8.94,22.46,8.17,22,7.32,21.52Zm-2-.73c-.11-.24-.21-.55-.57-.61a.26.26,0,0,0-.3.28.68.68,0,0,0,.56.66C5.17,21.15,5.27,21,5.3,20.79ZM2.67,19.26c-.06-.27-.18-.53-.5-.57s-.29.2-.25.39.19.54.53.54S2.67,19.44,2.67,19.26ZM4,20a.66.66,0,0,0-.5-.54c-.25,0-.3.18-.26.37s.18.54.52.54C3.92,20.37,4,20.22,4,20Z"/><path d="M26.67,27.41c.21.66-.22,1-.69,1.28-3.45,2-6.9,4-10.36,6a3.59,3.59,0,0,1-3.7-.05C8.8,32.88,5.7,31.08,2.6,29.29c-.39-.22-.79-.4-1.16-.64S.63,28,.82,27.41A12.14,12.14,0,0,1,4,29.07c2.58,1.44,5.11,3,7.68,4.43a3.85,3.85,0,0,0,4,.06c3.44-2,6.86-4,10.29-5.94A.88.88,0,0,1,26.67,27.41Z"/><path class="cls-1" d="M11.38,30.82c0,1.37-.14,1.5-1.17.92-2.85-1.61-5.66-3.27-8.48-4.93a2.1,2.1,0,0,1-.49-2.2c.2-.3.44-.27.73-.1,2.87,1.67,5.75,3.35,8.63,5C11.18,29.85,11.56,30.25,11.38,30.82Zm-1.26.31c.24-.72.09-1.16-.54-1.46s-1-.61-1.55-.89c-.23-.12-.53-.45-.73-.16a.68.68,0,0,0,.19,1C8.34,30.14,9.22,30.62,10.12,31.13ZM5,28c.17-.05.31-.16.24-.38s-.21-.53-.53-.56a.27.27,0,0,0-.28.37A.68.68,0,0,0,5,28ZM2.18,25.53a.27.27,0,0,0-.27.32.67.67,0,0,0,.51.69c.19.05.26-.13.26-.3A.73.73,0,0,0,2.18,25.53Zm1.26.75c-.26.06-.25.26-.22.44a.55.55,0,0,0,.47.51c.22,0,.33-.16.28-.37A.72.72,0,0,0,3.44,26.28Z"/><path class="cls-1" d="M11.38,37.87c0,1.18-.19,1.31-1.14.77-2.89-1.64-5.76-3.32-8.64-5a2.38,2.38,0,0,1-.29-2.32c.33-.28.6,0,.85.15,1.8,1,3.59,2.08,5.38,3.12.92.54,1.81,1.13,2.77,1.59C11.11,36.58,11.5,37.1,11.38,37.87ZM7.31,35.15c-.09.61-.27,1,.1,1.28.88.55,1.79,1,2.68,1.56l.21-.28C10.06,36.1,8.34,36.17,7.31,35.15ZM5,34.9a.3.3,0,0,0,.31-.38.67.67,0,0,0-.58-.64.26.26,0,0,0-.25.32A.76.76,0,0,0,5,34.9ZM3.48,33.13c-.21,0-.27.15-.27.32a.66.66,0,0,0,.51.69c.16,0,.27-.13.27-.31A.78.78,0,0,0,3.48,33.13ZM2.68,33a.57.57,0,0,0-.46-.57.22.22,0,0,0-.3.24.65.65,0,0,0,.51.68C2.63,33.43,2.67,33.24,2.68,33Z"/><path class="cls-4" d="M16.44,16.66c0-.13-.11-.26-.23-.23a.34.34,0,0,0-.23.26c0,.55,0,1.1,0,1.9C16.65,17.85,16.41,17.23,16.44,16.66Z"/><path class="cls-4" d="M25.41,11.15a2.21,2.21,0,0,0-.08,1.76A1.92,1.92,0,0,0,25.41,11.15Z"/><path class="cls-4" d="M24,13.67a2.34,2.34,0,0,0,.07-1.76A2,2,0,0,0,24,13.67Z"/><path class="cls-4" d="M22.78,14.53a3.25,3.25,0,0,0,.06-1.95A1.86,1.86,0,0,0,22.78,14.53Z"/><path class="cls-4" d="M17.43,17.75a3.16,3.16,0,0,0,.09-2.26A3.09,3.09,0,0,0,17.43,17.75Z"/><path class="cls-4" d="M18.88,16.89a4.73,4.73,0,0,0,0-2.15A2.21,2.21,0,0,0,18.88,16.89Z"/><path class="cls-4" d="M20,16.06a2,2,0,0,0,0-2A4.43,4.43,0,0,0,20,16.06Z"/><path class="cls-4" d="M21.37,15.42a2.43,2.43,0,0,0,.09-2A2.65,2.65,0,0,0,21.37,15.42Z"/><path class="cls-4" d="M10,16.17c-.85-.51-1.72-1-2.66-1.53-.07.5-.26.93.16,1.2.85.54,1.75,1,2.69,1.58C10.21,16.87,10.4,16.44,10,16.17Z"/><path class="cls-4" d="M4.79,13.33c-.22,0-.35.1-.33.28s.17.61.54.67A.24.24,0,0,0,5.29,14,.7.7,0,0,0,4.79,13.33Z"/><path class="cls-4" d="M3.46,12.58c-.21,0-.28.19-.24.4s.16.49.44.54S4,13.4,4,13.18A.61.61,0,0,0,3.46,12.58Z"/><path class="cls-4" d="M2.21,11.84c-.22,0-.31.12-.29.3a.63.63,0,0,0,.45.63c.26.06.31-.15.3-.35A.57.57,0,0,0,2.21,11.84Z"/><path class="cls-4" d="M16.21,23.29c-.48.39-.19.93-.26,1.41,0,.16-.08.38.2.53.55-.54.26-1.21.25-1.81C16.4,23.37,16.23,23.27,16.21,23.29Z"/><path class="cls-4" d="M17.4,24.41a1.93,1.93,0,0,0,.17-2.06A2.65,2.65,0,0,0,17.4,24.41Z"/><path class="cls-4" d="M24,20.83a3.23,3.23,0,0,0,.19-2.33A3.48,3.48,0,0,0,24,20.83Z"/><path class="cls-4" d="M25.36,17.89a4.26,4.26,0,0,0-.12,2.18A2.27,2.27,0,0,0,25.36,17.89Z"/><path class="cls-4" d="M22.6,21.6a2.29,2.29,0,0,0,.12-2.19A4.53,4.53,0,0,0,22.6,21.6Z"/><path class="cls-4" d="M18.66,23.86a3,3,0,0,0,.24-2.28A3.34,3.34,0,0,0,18.66,23.86Z"/><path class="cls-4" d="M21.39,22.13a2.14,2.14,0,0,0,.07-1.85A2.29,2.29,0,0,0,21.39,22.13Z"/><path class="cls-4" d="M20.17,23.07a4.88,4.88,0,0,0,0-2.25A2.48,2.48,0,0,0,20.17,23.07Z"/><path class="cls-4" d="M9.74,22.88c-.8-.42-1.57-.88-2.42-1.36A1,1,0,0,0,7.93,23c.49.21.92.54,1.4.77.26.12.58.62.84.17A.78.78,0,0,0,9.74,22.88Z"/><path class="cls-4" d="M4.73,20.18a.26.26,0,0,0-.3.28.68.68,0,0,0,.56.66c.18,0,.28-.1.31-.33S5.09,20.24,4.73,20.18Z"/><path class="cls-4" d="M2.17,18.69c-.24,0-.29.2-.25.39s.19.54.53.54.22-.18.22-.36S2.49,18.73,2.17,18.69Z"/><path class="cls-4" d="M3.48,19.46c-.25,0-.3.18-.26.37s.18.54.52.54c.18,0,.25-.15.24-.37A.66.66,0,0,0,3.48,19.46Z"/><path class="cls-4" d="M16.11,32A2.13,2.13,0,0,0,16.29,30,2.32,2.32,0,0,0,16.11,32Z"/><path class="cls-4" d="M17.75,29.6c0-.13-.1-.26-.23-.22a.38.38,0,0,0-.22.27c0,.54,0,1.08,0,1.62C18,30.78,17.71,30.17,17.75,29.6Z"/><path class="cls-4" d="M18.7,30.79a2.89,2.89,0,0,0,.15-2.17C18.43,29.22,18.59,29.87,18.7,30.79Z"/><path class="cls-4" d="M20.12,29.75a3.16,3.16,0,0,0,.1-2A2,2,0,0,0,20.12,29.75Z"/><path class="cls-4" d="M25.5,24.72a2.07,2.07,0,0,0-.12,2.05A3.2,3.2,0,0,0,25.5,24.72Z"/><path class="cls-4" d="M24.05,27.54a3.36,3.36,0,0,0,.15-2A2,2,0,0,0,24.05,27.54Z"/><path class="cls-4" d="M22.63,28.4a2.42,2.42,0,0,0,.17-2A3,3,0,0,0,22.63,28.4Z"/><path class="cls-4" d="M21.37,29a2.46,2.46,0,0,0,.14-1.86A2.2,2.2,0,0,0,21.37,29Z"/><path class="cls-4" d="M9.58,29.67c-.54-.25-1-.61-1.55-.89-.23-.12-.53-.45-.73-.16a.68.68,0,0,0,.19,1c.85.52,1.73,1,2.63,1.51C10.36,30.41,10.21,30,9.58,29.67Z"/><path class="cls-4" d="M4.74,27a.27.27,0,0,0-.28.37A.68.68,0,0,0,5,28c.17-.05.31-.16.24-.38S5.06,27.07,4.74,27Z"/><path class="cls-4" d="M2.18,25.53a.27.27,0,0,0-.27.32.67.67,0,0,0,.51.69c.19.05.26-.13.26-.3A.73.73,0,0,0,2.18,25.53Z"/><path class="cls-4" d="M3.44,26.28c-.26.06-.25.26-.22.44a.55.55,0,0,0,.47.51c.22,0,.33-.16.28-.37A.72.72,0,0,0,3.44,26.28Z"/><path class="cls-4" d="M17.29,38.13c.59-.4.65-1.05.2-1.91C17.08,36.85,17.32,37.49,17.29,38.13Z"/><path class="cls-4" d="M16.11,39.08a2.34,2.34,0,0,0,.13-2.25A2.77,2.77,0,0,0,16.11,39.08Z"/><path class="cls-4" d="M20.08,36.6a3,3,0,0,0,.11-2.1A2.56,2.56,0,0,0,20.08,36.6Z"/><path class="cls-4" d="M21.32,36a2.45,2.45,0,0,0,.07-2.25A4.74,4.74,0,0,0,21.32,36Z"/><path class="cls-4" d="M22.69,35.09c.43-.6.19-1.24.14-1.86A2.17,2.17,0,0,0,22.69,35.09Z"/><path class="cls-4" d="M25.54,31.45a2.25,2.25,0,0,0-.16,2.15A4,4,0,0,0,25.54,31.45Z"/><path class="cls-4" d="M24,34.3a2,2,0,0,0,.14-1.85A2,2,0,0,0,24,34.3Z"/><path class="cls-4" d="M18.79,37.35a2.2,2.2,0,0,0,0-1.76A2.16,2.16,0,0,0,18.79,37.35Z"/><path class="cls-4" d="M7.31,35.15c-.09.61-.27,1,.1,1.28.88.55,1.79,1,2.68,1.56l.21-.28C10.06,36.1,8.34,36.17,7.31,35.15Z"/><path class="cls-4" d="M4.7,33.88a.26.26,0,0,0-.25.32.76.76,0,0,0,.52.7.3.3,0,0,0,.31-.38A.67.67,0,0,0,4.7,33.88Z"/><path class="cls-4" d="M3.48,33.13c-.21,0-.27.15-.27.32a.66.66,0,0,0,.51.69c.16,0,.27-.13.27-.31A.78.78,0,0,0,3.48,33.13Z"/><path class="cls-4" d="M2.22,32.47a.22.22,0,0,0-.3.24.65.65,0,0,0,.51.68c.2,0,.24-.15.25-.35A.57.57,0,0,0,2.22,32.47Z"/></g></g></svg>