<svg xmlns="http://www.w3.org/2000/svg" viewBox="0 0 9.76 15.6"><defs><style>.cls-1{fill:#0e74ba;}</style></defs><g id="Capa_2" data-name="Capa 2"><g id="Capa_1-2" data-name="Capa 1"><path class="cls-1" d="M4.89,4.89a8.72,8.72,0,0,1,4.4,1.19.21.21,0,0,1,.12.14,7.88,7.88,0,0,1-.72,6.33,6.55,6.55,0,0,1-3.26,2.88L5,15.59a.17.17,0,0,1-.14,0,6.47,6.47,0,0,1-3.19-2.22A7.68,7.68,0,0,1,0,9.3,8.07,8.07,0,0,1,.35,6.21a.28.28,0,0,1,.11-.13A8.83,8.83,0,0,1,4.89,4.89Zm1,6.82c-.11-.69-.22-1.37-.34-2.05a.21.21,0,0,1,.07-.21,1,1,0,0,0,0-1.34,1,1,0,0,0-1.35,0,.93.93,0,0,0-.1,1.31.42.42,0,0,1,.1.42c-.11.63-.22,1.27-.32,1.91Z"/><path class="cls-1" d="M2.93,4.61,1,5.24A7.5,7.5,0,0,1,1.24,2.5,3.82,3.82,0,0,1,3.4.31,3.75,3.75,0,0,1,6.67.45,3.7,3.7,0,0,1,8.72,3.27a18.62,18.62,0,0,1,.09,2l-2-.64c0-.23,0-.48,0-.73a1.95,1.95,0,0,0-3.89-.07C2.92,4.08,2.93,4.35,2.93,4.61Z"/></g></g></svg>