<svg xmlns="http://www.w3.org/2000/svg" viewBox="0 0 16.27 17"><defs><style>.cls-1{fill:#0e74ba;}</style></defs><g id="Capa_2" data-name="Capa 2"><g id="Capa_1-2" data-name="Capa 1"><path class="cls-1" d="M10.36,0a4.7,4.7,0,0,1,2.1,1.58A15,15,0,0,1,14.74,5.2,17.3,17.3,0,0,1,16,8.91a9.2,9.2,0,0,1,.23,2.77,3.83,3.83,0,0,1-.2.89,1.06,1.06,0,0,1-1.53.6c-.48-.22-.93-.51-1.4-.77a6.77,6.77,0,0,0-2.57-.91,9.05,9.05,0,0,0-2.08,0,1.11,1.11,0,0,0-.9.45.53.53,0,0,0-.06.54c.18.44.37.88.56,1.32a5.38,5.38,0,0,1,.24.55,1.33,1.33,0,0,0,.63.71,1.12,1.12,0,0,1,.39.39.6.6,0,0,1-.36.79L7,17c-.24.09-.41-.06-.58-.19a2.45,2.45,0,0,1-.62-1c-.31-.69-.61-1.38-.91-2.08a.47.47,0,0,0-.41-.27,1.48,1.48,0,0,1-1.06-.53.14.14,0,0,0-.13,0,3.71,3.71,0,0,0-.47.16,1.46,1.46,0,0,1-1.26,0A2.35,2.35,0,0,1,.09,11.41a2.19,2.19,0,0,1,.39-2A1.39,1.39,0,0,1,1,9,22.6,22.6,0,0,0,5.48,6.66a9.09,9.09,0,0,0,2.4-2.35,6.47,6.47,0,0,0,.92-2.2c.11-.45.22-.89.36-1.33A1.08,1.08,0,0,1,9.9,0L10,0Zm-.12,3.1a10.64,10.64,0,0,0,.26,2A11.28,11.28,0,0,0,12.82,10a5.78,5.78,0,0,0,1.26,1.21c.35.23.46.17.51-.24a6.29,6.29,0,0,0-.07-1.62,12.47,12.47,0,0,0-1.2-3.72A12.16,12.16,0,0,0,11.56,3a7.69,7.69,0,0,0-.87-.84c-.21-.18-.32-.13-.36.14S10.27,2.82,10.24,3.1Z"/></g></g></svg>