<svg xmlns="http://www.w3.org/2000/svg" viewBox="0 0 64.33 64.33"><defs><style>.cls-1{fill:#fff;}.cls-2{fill:#0e74ba;}</style></defs><g id="Capa_2" data-name="Capa 2"><g id="Capa_1-2" data-name="Capa 1"><circle class="cls-1" cx="32.56" cy="32.07" r="27.58"/><path class="cls-2" d="M32.16,0A32.17,32.17,0,1,0,64.33,32.16,32.16,32.16,0,0,0,32.16,0ZM53,45a4.9,4.9,0,0,1-4.89,2.3,3.26,3.26,0,0,0-2.21.64,20.12,20.12,0,0,1-13.71,5.16,19.62,19.62,0,0,1-13.59-5.42,1.87,1.87,0,0,0-2.21-.58A4.36,4.36,0,0,1,11.12,45a4.25,4.25,0,0,1,.81-5.41,2.08,2.08,0,0,0,.67-2.36A20,20,0,0,1,26.49,13.77a2.42,2.42,0,0,0,1.89-1.68,4.33,4.33,0,0,1,4.33-2.85A4.84,4.84,0,0,1,37,12.32a3,3,0,0,0,1.46,1.52c10.31,3.61,15.79,13.3,13.52,23.9a3,3,0,0,0,.54,2.07A4.52,4.52,0,0,1,53,45Z"/><path class="cls-2" d="M30.47,37.9c.38.53,1.75.34,2.67.48l.76.13c.85-1.5,1.57-3,2.52-4.36,1.15-1.63,1.5-3.12-.27-4.77-2.16,0-4.55,0-6.95,0-.88,0-2.5,1.88-2.13,2.62A40.42,40.42,0,0,0,30.47,37.9Z"/><path class="cls-2" d="M32.19,46.4A3.62,3.62,0,1,0,32,39.16a3.62,3.62,0,1,0,.19,7.24Z"/><path class="cls-2" d="M23.58,24.88a3.64,3.64,0,0,0-3.68,3.59,3.6,3.6,0,0,0,3.55,3.7,3.66,3.66,0,0,0,3.8-3.66A3.7,3.7,0,0,0,23.58,24.88Z"/><path class="cls-2" d="M39.94,42c2.58-.12,5.21.34,6.2-3.37-.83-1.43-1.77-3.15-2.82-4.81A1.87,1.87,0,0,0,42.09,33c-1.07-.11-2.15,0-3.49,0l-3.45,5.87C35.88,41.67,37.62,42.05,39.94,42Z"/><path class="cls-2" d="M39.26,24.21c2.37-.55,4.4-.11,5.7,2s.61,4.13-1,5.94a47.06,47.06,0,0,1,2.43,4.18c.76,1.65,1.77,2.38,3.55,1.69,3.34-9.24-3.64-21.43-13-22.66l-1.61,2.23Z"/><path class="cls-2" d="M41.08,32.16a3.61,3.61,0,0,0,3.63-3.62,3.69,3.69,0,0,0-3.62-3.67,3.65,3.65,0,0,0-3.7,3.57A3.57,3.57,0,0,0,41.08,32.16Z"/><path class="cls-2" d="M33.84,18.18c-1.77,0-3.71-.2-4.3,2.21a4.11,4.11,0,0,1-.73,1.28c-1.44,2-2.66,4-.2,6.45H36.2l1.88-3.44c-1.09-1.87-2.24-3.89-3.44-5.89C34.47,18.51,34.1,18.17,33.84,18.18Z"/><path class="cls-2" d="M36.76,43.11c-.63,2.36-1.94,4.08-4.52,4.2-2.88.13-4.21-1.84-5-4.15H19.8c-.33.89-.63,1.68-.92,2.44,7.07,7.68,20.26,7.75,26.53.2-.41-.88-.82-1.76-1.24-2.69Z"/><path class="cls-2" d="M26.72,41.86a1.47,1.47,0,0,0,1-.57c.61-.82,1.12-1.71,1.69-2.6-1.17-2-2.36-4-3.5-5.91l-3.72.37a40.93,40.93,0,0,1-2.43,4.1c-1.2,1.59-1.36,3,.22,4.64C22.06,41.89,24.39,41.91,26.72,41.86Z"/><path class="cls-2" d="M49,39.16a3.63,3.63,0,1,0,.09,7.26,3.55,3.55,0,0,0,3.53-3.69A3.5,3.5,0,0,0,49,39.16Z"/><path class="cls-2" d="M15.06,39.16a3.62,3.62,0,1,0,.18,7.24,3.62,3.62,0,1,0-.18-7.24Z"/><path class="cls-2" d="M32.64,17.39a3.64,3.64,0,0,0,3.6-3.66,3.68,3.68,0,1,0-7.36.16A3.62,3.62,0,0,0,32.64,17.39Z"/><path class="cls-2" d="M17.38,38.58,21,32.48c-2.1-2.35-2.52-4.08-1.48-6,1.12-2.12,2.89-2.73,6.3-2.15l4-6.71-1.73-2.42A18.2,18.2,0,0,0,14,35.09C14.32,38,14.32,38,17.38,38.58Z"/></g></g></svg>