<svg xmlns="http://www.w3.org/2000/svg" viewBox="0 0 20.22 12.73"><defs><style>.cls-1{fill:#0e74ba;}</style></defs><g id="Capa_2" data-name="Capa 2"><g id="Capa_1-2" data-name="Capa 1"><path class="cls-1" d="M2.36,7.12l-1.09-1A3.69,3.69,0,0,0,.18,5.4C0,5.34,0,5.21,0,5c.16-.37.33-.74.49-1.1L1.92.83C2.17.25,2.4.18,3,.41s1,.36,1.44.5a2.21,2.21,0,0,0,1.14,0C6.26.74,7,.56,7.67.42A12.52,12.52,0,0,1,9,.23a1.33,1.33,0,0,1,.8.23L9.21,1c-.77.73-1.53,1.45-2.31,2.16a1,1,0,0,0-.26,1.46,1.69,1.69,0,0,0,1.42,1,2.14,2.14,0,0,0,1.62-.43c.69-.51,1.41-1,2.11-1.49a.2.2,0,0,1,.27,0,34.52,34.52,0,0,1,3.51,3.11,5.53,5.53,0,0,1,.58.61,1.39,1.39,0,0,1,.13,1.59,1,1,0,0,1-1,.44c-.12,0-.28-.05-.37,0s-.09.21-.15.32a3.1,3.1,0,0,1-.29.5.88.88,0,0,1-.72.28H13c-.1,0-.15,0-.17.12a3.16,3.16,0,0,1-.16.43.86.86,0,0,1-.74.54,2.07,2.07,0,0,1-.35,0,.54.54,0,0,0-.51.3,1.55,1.55,0,0,1-.53.58,1.18,1.18,0,0,1-1.11,0c.18-.2.33-.38.5-.54l.75-.72A1.05,1.05,0,0,0,11,10.14,1.32,1.32,0,0,0,9.5,9.09.17.17,0,0,1,9.29,9,1.49,1.49,0,0,0,8.56,8a1.61,1.61,0,0,0-.92-.12c-.13,0-.19,0-.23-.14A1.41,1.41,0,0,0,6.32,6.7,1.34,1.34,0,0,1,5.44,6a1.17,1.17,0,0,0-1.09-.58A1.34,1.34,0,0,0,3.43,6l-1,1Z"/><path class="cls-1" d="M7.1,4.09a.63.63,0,0,1,.23-.5l1.3-1.18,2.14-2A1.35,1.35,0,0,1,11.51,0a.66.66,0,0,1,.28,0,24.57,24.57,0,0,0,2.91.8A5.19,5.19,0,0,0,15.81,1,2.7,2.7,0,0,0,17.37.42c.44-.29.65-.17.85.26C18.83,2,19.45,3.3,20.07,4.61a1.69,1.69,0,0,1,.12.27.39.39,0,0,1-.12.48l-.92.72-1.4,1.16-.16.13a.44.44,0,0,1-.65-.06c-.18-.18-.35-.37-.52-.55a22.55,22.55,0,0,0-3-2.81q-.5-.37-1-.72a.66.66,0,0,0-.92,0c-.33.26-.65.54-1,.79a10.79,10.79,0,0,1-1.15.75,2.83,2.83,0,0,1-1.26.27A1,1,0,0,1,7.73,5,1.39,1.39,0,0,1,7.1,4.09Z"/><path class="cls-1" d="M7.46,11.89a1,1,0,0,1,.26-.67L9.13,9.81a.75.75,0,0,1,.86-.2,1,1,0,0,1,.62.8.19.19,0,0,1,0,.07,2,2,0,0,1-.44.7c-.42.41-.82.84-1.25,1.25a.83.83,0,0,1-1.41-.38C7.47,12,7.47,11.92,7.46,11.89Z"/><path class="cls-1" d="M7.88,8.34a1,1,0,0,1,1,.81.45.45,0,0,1,0,.16,2.72,2.72,0,0,1-.69.92l-.93.93a.85.85,0,0,1-1.2.08A.82.82,0,0,1,6,10.05c.47-.51,1-1,1.45-1.49A.68.68,0,0,1,7.88,8.34Z"/><path class="cls-1" d="M6.14,7.22a.84.84,0,0,1,.77.49.72.72,0,0,1-.1.84c-.25.3-.53.57-.8.86l-.66.66a.84.84,0,0,1-.92.2.82.82,0,0,1-.54-.82,1,1,0,0,1,.24-.54c.46-.5,1-1,1.44-1.47A.71.71,0,0,1,6.14,7.22Z"/><path class="cls-1" d="M5.25,6.72A.81.81,0,0,1,5,7.34c-.45.47-.91.95-1.39,1.41A1,1,0,0,1,3.1,9a.77.77,0,0,1-.78-.34.77.77,0,0,1,.06-1.06c.49-.49,1-1,1.46-1.47A.75.75,0,0,1,4.72,6,.84.84,0,0,1,5.25,6.72Z"/></g></g></svg>