<svg xmlns="http://www.w3.org/2000/svg" viewBox="0 0 64.33 64.33"><defs><style>.cls-1{fill:#fff;}.cls-2{fill:#0e74ba;}</style></defs><g id="Capa_2" data-name="Capa 2"><g id="Capa_1-2" data-name="Capa 1"><circle class="cls-1" cx="31.2" cy="32.79" r="27.58"/><path class="cls-2" d="M43.09,46.28a1.87,1.87,0,0,0-.39-.15l-.37-.05-.1,0a1.19,1.19,0,0,0-.74.48,1.17,1.17,0,1,0,2.08,1A1.16,1.16,0,0,0,43.09,46.28Z"/><path class="cls-2" d="M34.88,47.83A1.18,1.18,0,0,0,36.14,47a1.14,1.14,0,0,0-.48-1.32,2,2,0,0,0-.4-.15l-.36,0-.09,0a1.14,1.14,0,0,0-.75.48,1.22,1.22,0,0,0-.2.89A1.18,1.18,0,0,0,34.88,47.83Z"/><path class="cls-2" d="M48.5,39.51a1.2,1.2,0,0,0,1.26-.81,1.15,1.15,0,0,0-.48-1.33,2.68,2.68,0,0,0-.39-.15l-.37,0-.09,0a1.17,1.17,0,0,0-.94,1.37A1.18,1.18,0,0,0,48.5,39.51Z"/><path class="cls-2" d="M21,17.59A3.41,3.41,0,1,0,24.37,21,3.41,3.41,0,0,0,21,17.59Z"/><path class="cls-2" d="M32.16,0A32.17,32.17,0,1,0,64.33,32.16,32.16,32.16,0,0,0,32.16,0ZM45,48.08A2.67,2.67,0,0,1,42.42,50h-.21a2.71,2.71,0,0,1-2.42-2.2,2.59,2.59,0,0,1,.28-1.66l-8.51-8.38v4.47l2.17,2.14a2.72,2.72,0,0,1,.85-.32l.12,0,1,.13a3,3,0,0,1,.71.3,2.69,2.69,0,0,1-1.47,5h-.2a2.69,2.69,0,0,1-2.42-2.2,2.58,2.58,0,0,1,.31-1.74L30,42.83V36.2l-1.73-1.71a11.33,11.33,0,0,1-4.64,1A11.51,11.51,0,1,1,34,28.91l4.16,3.41V35h7.43l1.44,1.22a2.74,2.74,0,0,1,1.13-.5l.22,0,.94.12a3,3,0,0,1,.71.3,2.7,2.7,0,0,1-1.47,5h-.2a2.62,2.62,0,0,1-2.25-3.63l-1.09-.92h-8.4V33.05L32.1,29.3l.3-.55a10,10,0,1,0-4.29,4.13l.49-.24L41.08,44.93a2.83,2.83,0,0,1,.93-.35l.13,0,1,.13a3,3,0,0,1,.71.3A2.65,2.65,0,0,1,45,48.08ZM34.33,35.35a.77.77,0,0,1-1.09,0L28.56,31a8.56,8.56,0,0,1-13.49-7,8.58,8.58,0,1,1,14.67,6l4.55,4.29A.77.77,0,0,1,34.33,35.35ZM51.22,50a2.67,2.67,0,0,1-2.62,1.87h-.2A2.69,2.69,0,0,1,46,49.69a2.61,2.61,0,0,1,1.63-2.95l.22-2-2.47-2.3h-3V39.06a.77.77,0,1,1,1.54,0v1.87h2l3.49,3.25-.27,2.4.18,0a3,3,0,0,1,.71.3A2.67,2.67,0,0,1,51.22,50Z"/><path class="cls-2" d="M49.28,48.22a1.87,1.87,0,0,0-.39-.15l-.37,0-.09,0a1.17,1.17,0,0,0,.07,2.31,1.19,1.19,0,0,0,1.26-.81A1.11,1.11,0,0,0,49.28,48.22Z"/></g></g></svg>