<svg xmlns="http://www.w3.org/2000/svg" viewBox="0 0 14.39 17.31"><defs><style>.cls-1{fill:#0e74ba;}</style></defs><g id="Capa_2" data-name="Capa 2"><g id="Capa_1-2" data-name="Capa 1"><path class="cls-1" d="M11.26,7.29l0,0a.33.33,0,0,0-.55.34c0,.07.08.14.11.21.28.49.57,1,.81,1.48a2.64,2.64,0,0,1,.3,1.27.56.56,0,0,1-.6.64,2.49,2.49,0,0,1-.72-.08,7.1,7.1,0,0,1-2.05-1c-.38-.26-.74-.54-1.11-.81a1.69,1.69,0,0,0,.11-2l1.7-1.69s.14,0,.2,0a1.08,1.08,0,0,0,1.1-.24,1,1,0,0,0,.3-1.07A1.08,1.08,0,1,0,8.76,5a.21.21,0,0,1-.07.26l-.59.59-1,1.05a1.68,1.68,0,0,0-2,.1l-.39-.5A8.92,8.92,0,0,1,3.39,4.11,2,2,0,0,1,3.23,3a.51.51,0,0,1,.48-.49,2.42,2.42,0,0,1,.66,0,5.31,5.31,0,0,1,1.76.76c.46.28.89.61,1.34.92A.35.35,0,0,0,8,4.2a.34.34,0,0,0-.11-.5A11.35,11.35,0,0,0,5.79,2.36,4.48,4.48,0,0,0,4,1.83a1.38,1.38,0,0,0-1.08.35A5.35,5.35,0,0,0,1.85,3.72a5.8,5.8,0,0,0-.47,3,6.62,6.62,0,0,0,1,2.83A7.55,7.55,0,0,0,4,11.5a.17.17,0,0,1,.09.21c-.3.92-.59,1.85-.88,2.78,0,.09-.06.12-.15.11H2.33A2.38,2.38,0,0,0,0,16.84a.42.42,0,0,0,.27.47H9.66a.42.42,0,0,0,.27-.47,2.33,2.33,0,0,0-1.79-2.15,8.41,8.41,0,0,0-1.33-.09H6.46V12.81c.17,0,.33.09.5.12a5.68,5.68,0,0,0,4.78-1,1.64,1.64,0,0,0,.77-1,2.55,2.55,0,0,0,0-.87A6.94,6.94,0,0,0,11.26,7.29Z"/><path class="cls-1" d="M14.17,3.2A4.62,4.62,0,0,0,10.05,0H9.77a.33.33,0,0,0-.31.32.32.32,0,0,0,.28.35H10a3.88,3.88,0,0,1,3.18,1.88,4,4,0,0,1,.58,2,.34.34,0,0,0,.35.36.35.35,0,0,0,.32-.38A4.5,4.5,0,0,0,14.17,3.2Z"/><path class="cls-1" d="M10.61,1.94a3.72,3.72,0,0,0-.88-.11.28.28,0,0,0-.27.32.31.31,0,0,0,.27.32l.22,0a2.1,2.1,0,0,1,2,2c0,.31.14.47.36.46s.33-.17.32-.49A2.78,2.78,0,0,0,10.61,1.94Z"/></g></g></svg>