<svg xmlns="http://www.w3.org/2000/svg" viewBox="0 0 23.14 23.13"><defs><style>.cls-1{fill:#fff;}</style></defs><g id="Capa_2" data-name="Capa 2"><g id="Capa_1-2" data-name="Capa 1"><path class="cls-1" d="M20.67,23.13a2.09,2.09,0,0,1-.91-.37,10.16,10.16,0,0,1-.76-.7c-1.59-1.58-3.17-3.17-4.76-4.76l-.1-.11a10.45,10.45,0,0,0,3.07-3.07l.52.53c1.58,1.59,3.16,3.18,4.75,4.75a2.19,2.19,0,0,1,0,3.13,2.09,2.09,0,0,1-1.13.58l-.08,0Z"/><path class="cls-1" d="M17.35,8.7A8.68,8.68,0,1,1,8.8,0,8.67,8.67,0,0,1,17.35,8.7Zm-2.17,0a6.51,6.51,0,1,0-6.71,6.49A6.49,6.49,0,0,0,15.18,8.69Z"/><path class="cls-1" d="M8.67,3.63V5.05A3.65,3.65,0,0,0,5.06,8.66H3.63A5,5,0,0,1,8.67,3.63Z"/></g></g></svg>