<svg xmlns="http://www.w3.org/2000/svg" viewBox="0 0 29.72 50.75"><defs><style>.cls-1{fill:#161b32;}.cls-2{fill:#cccbcb;}.cls-3{fill:#4e4d4d;}.cls-4{fill:#0e74ba;}.cls-5{fill:#3a4f85;}.cls-6{fill:#fff;}</style></defs><g id="Capa_2" data-name="Capa 2"><g id="Capa_1-2" data-name="Capa 1"><path d="M2.28,5a2,2,0,0,1,1.23-2.4c1-.52,1.88-1.13,2.84-1.66a5.75,5.75,0,0,1,6.2,0c5.16,3.05,10.37,6,15.57,9,1,.55,1.68,1.18,1.33,2.42-1.28.75-2.62,1.41-3.82,2.28a5.3,5.3,0,0,1-5.76.48c-2.51-1.25-4.9-2.76-7.34-4.16Z"/><path class="cls-1" d="M2.28,5l10.25,5.92c2.44,1.4,4.83,2.91,7.34,4.16a5.3,5.3,0,0,0,5.76-.48c1.2-.87,2.54-1.53,3.82-2.28a23.94,23.94,0,0,1-.21,5.92c-1.29.73-2.6,1.44-3.87,2.21a5.3,5.3,0,0,1-5.59.28C16,18.59,12.26,16.34,8.46,14.2a61.71,61.71,0,0,0-6-3.31C2,8.94,2.29,7,2.28,5ZM19.22,17.64c0-1.44-.49-1.94-2.4-3-2.34-1.26-4.6-2.65-6.9-4-1.61-.94-3.2-1.91-4.83-2.82-1-.52-1.31-.24-1.47.83-.2,1.42.7,2.11,1.71,2.66q6.26,3.44,12.36,7.14C18.89,19.21,19.22,19,19.22,17.64Z"/><path d="M28.92,20.11c-1.43.79-2.92,1.52-4.3,2.4a4.21,4.21,0,0,1-4.57.1c-5.63-3.17-11.2-6.44-16.79-9.67-.33-.2-.52-.61-1-.65a1.62,1.62,0,0,1,.21-1.4,61.71,61.71,0,0,1,6,3.31c3.8,2.14,7.52,4.39,11.32,6.52a5.3,5.3,0,0,0,5.59-.28c1.27-.77,2.58-1.48,3.87-2.21a1.17,1.17,0,0,1,.21,1.14C29.12,19.5,29.09,19.85,28.92,20.11Z"/><path class="cls-2" d="M24.89,45.38A62.89,62.89,0,0,1,19,41.79c-.72,0-1.05.72-1.71.81l-.14.22c3.21,1.87,6.46,3.68,9.61,5.64,1.12.7,1.88.66,2.68-.31A40,40,0,0,0,24.89,45.38Z"/><path class="cls-2" d="M.32,33.06c1,1.07,2.42,1.53,3.64,2.28,2,1.22,4.07,2.32,6.11,3.47l1.61-1c-2.94-1.71-5.9-3.39-8.81-5.14A1.75,1.75,0,0,0,.32,33.06Z"/><path class="cls-2" d="M12.88,31.65l0,6.16c.32.91-.35,2,.54,2.81a1.51,1.51,0,0,1,.88.5l.47.11A80.4,80.4,0,0,0,15,32.87,9.23,9.23,0,0,0,12.88,31.65Z"/><path class="cls-1" d="M10,40.47c0-.49.07-1,.11-1.45,1.17.4,2,1.55,3.32,1.6a1.51,1.51,0,0,1,.88.5,3.41,3.41,0,0,0,3,1.48l-.14.22a2.84,2.84,0,0,0-.05,2c-.38.37-.7.11-1-.09-1.78-1-3.56-2.1-5.37-3.09A1.17,1.17,0,0,1,10,40.47Z"/><path class="cls-3" d="M29.39,48.15c-.8,1-1.56,1-2.68.31-3.15-2-6.4-3.77-9.61-5.64a2.84,2.84,0,0,0-.05,2,5,5,0,0,1,1.69.79c2.76,1.57,5.53,3.12,8.22,4.8a1.76,1.76,0,0,0,2.31-.3C30,49.59,29.75,48.84,29.39,48.15Z"/><path class="cls-3" d="M4,35.34c-1.22-.75-2.63-1.21-3.64-2.28-.35.74-.59,1.56.25,2,3.11,1.82,6.26,3.58,9.39,5.36L10.07,39a.74.74,0,0,1,0-.21C8,37.66,6,36.56,4,35.34Z"/><path class="cls-3" d="M15,32.87a80.4,80.4,0,0,1-.22,8.36c.89,0,1.43-.69,2.13-1.08q0-3.12,0-6.24Z"/><path d="M16.87,40.15c-.7.39-1.24,1.07-2.13,1.08l-.47-.11a3.41,3.41,0,0,0,3,1.48c.66-.09,1-.86,1.71-.81C18.67,40.73,17.6,40.65,16.87,40.15Z"/><path d="M12.85,37.81c-.39-.36-.78-.14-1.17,0l-1.61,1a.74.74,0,0,0,0,.21c1.17.4,2,1.55,3.32,1.6C12.5,39.82,13.17,38.72,12.85,37.81Z"/><path class="cls-1" d="M29.45,19.37c-.33.13-.36.48-.53.74-1.43.79-2.92,1.52-4.3,2.4a4.21,4.21,0,0,1-4.57.1c-5.63-3.17-11.2-6.44-16.79-9.67-.33-.2-.52-.61-1-.65,0,2-.34,4,.23,5.93l10.6,6.08c2.24,1.29,4.46,2.63,6.72,3.89a4.37,4.37,0,0,0,3.63.46,18.58,18.58,0,0,0,5.44-3.13l.23-.21h0v0h0c.29-.16.3-.46.31-.72A43.46,43.46,0,0,0,29.45,19.37ZM19,25.84c-.32.84-1,.23-1.25,0-1-.67-2-1.13-3-1.72-3.13-1.84-6.28-3.66-9.41-5.5-.83-.48-1.71-.95-1.39-2,0-1.66.25-1.81,1.61-1q6.18,3.54,12.35,7.12C19.22,23.52,19.54,24.33,19,25.84Zm10.2-2.58c0-.69,0-1.37,0-2.05C29.15,21.89,29.16,22.57,29.16,23.26Z"/><path d="M29.18,25.32h0l-.23.21a18.58,18.58,0,0,1-5.44,3.13,4.37,4.37,0,0,1-3.63-.46c-2.26-1.26-4.48-2.6-6.72-3.89L2.53,18.22l-.25.7v.23l0,.7L4.45,21C9.56,24,14.64,26.91,19.78,29.78a4,4,0,0,0,2.48.83,8.51,8.51,0,0,0,3-1c1.29-.76,2.6-1.46,3.9-2.19l.29-.25A2.85,2.85,0,0,0,29.18,25.32Z"/><path class="cls-1" d="M29.23,32.69c.56-1.82.28-3.67.21-5.51l-.29.25c-1.3.73-2.61,1.43-3.9,2.19a8.51,8.51,0,0,1-3,1,4,4,0,0,1-2.48-.83C14.64,26.91,9.56,24,4.45,21L2.3,19.85c0,1.29,0,2.59-.09,3.88a2.48,2.48,0,0,0,1.54,2.61c3.07,1.73,6.09,3.54,9.13,5.31A9.23,9.23,0,0,1,15,32.87l1.89,1,1.54.86a7.62,7.62,0,0,0,4,1.46c1.95,0,3.32-1.24,4.85-2.17l.36-.21.37-.21.47-.28h0l.28-.19h0L29,33h0l.21-.25-.08-.06.08,0ZM19,32.76c.09.88-.16,1.16-1,.66-2.73-1.6-5.49-3.17-8.24-4.76q-2.6-1.5-5.17-3a3.22,3.22,0,0,1-.6-3c.28-.35.58-.12.83,0Q6.85,23.84,8.89,25c2.91,1.68,5.81,3.38,8.74,5,.92.52,1.72,1,1.36,2.07C19,32.44,19,32.6,19,32.76Z"/><path class="cls-4" d="M19.22,17.64c0,1.37-.33,1.57-1.53.86q-6.12-3.69-12.36-7.14c-1-.55-1.91-1.24-1.71-2.66.16-1.07.52-1.35,1.47-.83,1.63.91,3.22,1.88,4.83,2.82,2.3,1.33,4.56,2.72,6.9,4C18.73,15.7,19.23,16.2,19.22,17.64Zm-5.31-3.58A1.35,1.35,0,0,0,14.66,16c.66.32,1.27.76,1.94,1.07.28.14.63.75.93.22a.92.92,0,0,0-.38-1.3C16.06,15.34,15,14.7,13.91,14.06ZM5.39,10.38c.25,0,.37-.19.34-.41a.87.87,0,0,0-.68-.85c-.22,0-.34.18-.31.39A.92.92,0,0,0,5.39,10.38Zm2,.49c-.1-.38-.26-.75-.73-.79-.2,0-.32.23-.27.44.1.38.24.78.73.8C7.36,11.33,7.4,11.1,7.39,10.87Zm1,.17c-.31.07-.27.33-.23.54s.23.68.64.68.33-.29.26-.52A.82.82,0,0,0,8.35,11Z"/><path class="cls-4" d="M19,32.1c0,.34,0,.5,0,.66.09.88-.16,1.16-1,.66-2.73-1.6-5.49-3.17-8.24-4.76q-2.6-1.5-5.17-3a3.22,3.22,0,0,1-.6-3c.28-.35.58-.12.83,0Q6.85,23.84,8.89,25c2.91,1.68,5.81,3.38,8.74,5C18.55,30.55,19.35,31,19,32.1Zm-5.15-3.22c0,.66-.29,1.24.35,1.6a27,27,0,0,0,3.38,1.87c0-.61.26-1.19-.37-1.55C16.12,30.17,15,29.56,13.84,28.88ZM5.11,24c-.32,0-.4.23-.37.47a.88.88,0,0,0,.58.78c.3.09.43-.12.41-.38A1,1,0,0,0,5.11,24Zm1.64,1c-.26,0-.31.2-.31.39a.8.8,0,0,0,.62.87c.21,0,.34-.16.33-.38A1,1,0,0,0,6.75,24.92Zm2.31,1.76C9,26.3,8.8,26,8.35,25.9c-.26,0-.26.24-.25.42,0,.43.21.77.67.81C9,27.15,9.05,26.9,9.06,26.68Z"/><path class="cls-4" d="M3.87,16.63c0-1.66.25-1.81,1.61-1q6.18,3.54,12.35,7.12c1.39.8,1.71,1.61,1.13,3.12-.32.84-1,.23-1.25,0-1-.67-2-1.13-3-1.72-3.13-1.84-6.28-3.66-9.41-5.5C4.43,18.18,3.55,17.71,3.87,16.63ZM13.93,21.5c-.33,1-.07,1.56.78,1.91.62.26,1.16.68,1.76,1,.33.15.74.74,1.06.21a.94.94,0,0,0-.46-1.3C16,22.72,15,22.13,13.93,21.5ZM7,18.71c.23,0,.38-.13.35-.35a.87.87,0,0,0-.56-.81c-.32-.1-.39.15-.38.4A.77.77,0,0,0,7,18.71ZM5.16,16.6c-.32,0-.38.15-.38.35a.75.75,0,0,0,.55.78c.28.07.44-.12.39-.39A.88.88,0,0,0,5.16,16.6ZM8.1,18.92c.05.39.22.68.61.74A.29.29,0,0,0,9,19.3c-.07-.4-.23-.76-.69-.8C8.09,18.48,8.12,18.74,8.1,18.92Z"/><path class="cls-5" d="M29.15,25.31l-.23.21Z"/><path class="cls-6" d="M14.66,16c.66.32,1.27.76,1.94,1.07.28.14.63.75.93.22a.92.92,0,0,0-.38-1.3c-1.09-.6-2.14-1.24-3.24-1.88A1.35,1.35,0,0,0,14.66,16Z"/><path class="cls-6" d="M5.05,9.12c-.22,0-.34.18-.31.39a.92.92,0,0,0,.65.87c.25,0,.37-.19.34-.41A.87.87,0,0,0,5.05,9.12Z"/><path class="cls-6" d="M6.66,10.08c-.2,0-.32.23-.27.44.1.38.24.78.73.8.24,0,.28-.22.27-.45S7.13,10.12,6.66,10.08Z"/><path class="cls-6" d="M8.76,12.26c.31,0,.33-.29.26-.52a.82.82,0,0,0-.67-.7c-.31.07-.27.33-.23.54S8.35,12.26,8.76,12.26Z"/><path class="cls-6" d="M17.2,30.8c-1.08-.63-2.17-1.24-3.36-1.92,0,.66-.29,1.24.35,1.6a27,27,0,0,0,3.38,1.87C17.54,31.73,17.83,31.16,17.2,30.8Z"/><path class="cls-6" d="M5.11,24c-.32,0-.4.23-.37.47a.88.88,0,0,0,.58.78c.3.09.43-.12.41-.38A1,1,0,0,0,5.11,24Z"/><path class="cls-6" d="M6.75,24.92c-.26,0-.31.2-.31.39a.8.8,0,0,0,.62.87c.21,0,.34-.16.33-.38A1,1,0,0,0,6.75,24.92Z"/><path class="cls-6" d="M8.35,25.9c-.26,0-.26.24-.25.42,0,.43.21.77.67.81.24,0,.28-.23.29-.45C9,26.3,8.8,26,8.35,25.9Z"/><path class="cls-6" d="M17.07,23.29c-1-.57-2-1.16-3.14-1.79-.33,1-.07,1.56.78,1.91.62.26,1.16.68,1.76,1,.33.15.74.74,1.06.21A.94.94,0,0,0,17.07,23.29Z"/><path class="cls-6" d="M7,18.72c.23,0,.38-.14.35-.36a.87.87,0,0,0-.56-.81c-.32-.1-.39.15-.38.4A.79.79,0,0,0,7,18.72Z"/><path class="cls-6" d="M5.33,17.73c.28.07.44-.12.39-.39a.88.88,0,0,0-.56-.74c-.32,0-.38.15-.38.35A.75.75,0,0,0,5.33,17.73Z"/><path class="cls-6" d="M8.71,19.66A.29.29,0,0,0,9,19.3c-.07-.4-.23-.76-.69-.8-.26,0-.23.24-.25.42C8.15,19.31,8.32,19.6,8.71,19.66Z"/></g></g></svg>