<svg xmlns="http://www.w3.org/2000/svg" viewBox="0 0 19 13.35"><defs><style>.cls-1{fill:#0e74ba;}</style></defs><g id="Capa_2" data-name="Capa 2"><g id="Capa_1-2" data-name="Capa 1"><path class="cls-1" d="M10.29,11.52a4.84,4.84,0,0,0-.67.83.86.86,0,0,1,0-.35V3.68a.7.7,0,0,1,.24-.6A12.85,12.85,0,0,1,15,.31c.4-.12.81-.19,1.21-.3.17,0,.19.06.19.26s0,.48,0,.71c0,1.8,0,3.59,0,5.39V8.85c0,.18,0,.34-.18.31a6.15,6.15,0,0,0-2.3.12,6.2,6.2,0,0,0-2.42,1.1A5.2,5.2,0,0,0,10.29,11.52Z"/><path class="cls-1" d="M2.58,1c0-.25,0-.49,0-.74s0-.26.16-.23a13.26,13.26,0,0,1,6.3,3,1,1,0,0,1,.37.92c0,2.66,0,5.32,0,8v.47a8,8,0,0,0-.7-.83.6.6,0,0,0-.09-.13A7.31,7.31,0,0,0,6.34,9.71a6.93,6.93,0,0,0-3.48-.57c-.26,0-.28-.09-.28-.4C2.59,6.15,2.58,3.57,2.58,1Z"/><path class="cls-1" d="M10.29,11.52a5.2,5.2,0,0,1,1.22-1.14,6.2,6.2,0,0,1,2.42-1.1,6.15,6.15,0,0,1,2.3-.12c.19,0,.18-.13.18-.31V6.37c0-1.8,0-3.59,0-5.39a3.06,3.06,0,0,0,.51-.1c.17-.06.19.05.19.27q0,3.57,0,7.16c0,.47,0,.94,0,1.41,0,.3-.07.33-.23.31a6.31,6.31,0,0,0-2.79.27,6.93,6.93,0,0,0-3.71,2.86l-.1.07Z"/><path class="cls-1" d="M2.58,1c0,2.59,0,5.17,0,7.76,0,.31,0,.42.28.4a6.93,6.93,0,0,1,3.48.57,7.31,7.31,0,0,1,2.28,1.68.6.6,0,0,1,.09.13v1.65c-.05,0-.07,0-.1,0a6.91,6.91,0,0,0-3.9-2.92A6.23,6.23,0,0,0,2.14,10c-.19,0-.26,0-.26-.34q0-4.26,0-8.5c0-.26,0-.38.22-.31A2.56,2.56,0,0,0,2.58,1Z"/><path class="cls-1" d="M11.09,13.28A6.66,6.66,0,0,1,15.14,11a8.83,8.83,0,0,1,2.4-.17c.2,0,.21-.14.21-.37,0-2,0-3.94,0-5.91,0-.27,0-.4.23-.44a6.36,6.36,0,0,0,.85-.25c.13,0,.18,0,.18.21q0,3.54,0,7.08c0,.26-.07.28-.21.28a14.34,14.34,0,0,0-2.7.06,9.68,9.68,0,0,0-4.8,1.78.39.39,0,0,1-.11.06S11.14,13.29,11.09,13.28Z"/><path class="cls-1" d="M7.88,13.35a8.94,8.94,0,0,0-1.29-.83,11.42,11.42,0,0,0-5.41-1.16c-.33,0-.67,0-1,0-.12,0-.18,0-.18-.24V4c0-.18,0-.2.14-.18a8.32,8.32,0,0,0,1,.26c.16,0,.13.21.13.37v5.66c0,.11,0,.22,0,.32s0,.33.21.32A9.28,9.28,0,0,1,4.18,11a6.37,6.37,0,0,1,3.48,2A.7.7,0,0,1,7.88,13.35Z"/></g></g></svg>