<svg xmlns="http://www.w3.org/2000/svg" viewBox="0 0 19.83 19.84"><defs><style>.cls-1{fill:#0e74ba;}</style></defs><g id="Capa_2" data-name="Capa 2"><g id="Capa_1-2" data-name="Capa 1"><path class="cls-1" d="M9.71,0A9.92,9.92,0,1,0,19.83,9.93,9.91,9.91,0,0,0,9.71,0Zm.54,11.86v1.21c-.51.13-.54.11-.54-.36v-.85H5.46V13.8H4.81V11.2H9.68c0-.38.15-.53.51-.4l.08.38H15V13.8h-.65V11.86Zm4.59-2.09c-.07.64-.35.82-1.09.83h-6l7.49-4.85C15.1,7.09,15,8.43,14.84,9.77ZM6.71,3.41c.45,0,.9,0,1.36,0s.77.21.81.7.24.42.53.42h4.88L5.9,10a2,2,0,0,1,0-.35c0-1.78,0-3.56,0-5.34C5.86,3.69,6.12,3.42,6.71,3.41ZM5,5.29c.35-.2.55-.1.57.31s0,.53,0,.79v3.77l-.12,0L4.93,8.25C4.78,7.63,4.64,7,4.5,6.38A.93.93,0,0,1,5,5.29ZM6.6,15.9h-3c-.21,0-.34-.07-.31-.3,0-.4-.13-.82.22-1.18s.46-.5,1.57-.51a1.93,1.93,0,0,0,.34,0,1.1,1.1,0,0,1,1.3.69,3,3,0,0,1,.14,1.17A.46.46,0,0,1,6.6,15.9Zm5-.05H8.14A1.59,1.59,0,0,1,8.7,14a.59.59,0,0,1,.34-.1c.56,0,1.11,0,1.67,0a.93.93,0,0,1,.43.22A1.54,1.54,0,0,1,11.61,15.85Zm4.82-.26c0,.18-.05.27-.26.27H12.9a1.64,1.64,0,0,1,.53-1.79.6.6,0,0,1,.36-.14c.56,0,1.11,0,1.67,0a.81.81,0,0,1,.41.19A1.48,1.48,0,0,1,16.43,15.59Z"/></g></g></svg>