<svg xmlns="http://www.w3.org/2000/svg" viewBox="0 0 18.01 15.68"><defs><style>.cls-1{fill:#0e74ba;}</style></defs><g id="Capa_2" data-name="Capa 2"><g id="Capa_1-2" data-name="Capa 1"><path class="cls-1" d="M18,3.27c-.12.42-.24.84-.35,1.26C17.11,6.67,16.55,8.8,16,10.94c-.11.4-.26.52-.69.52H6.06c-.42,0-.57-.12-.68-.53L2.85,1.2c0-.12-.07-.16-.2-.16-.67,0-1.35,0-2,0A.74.74,0,0,1,.37,1,.51.51,0,0,1,0,.53.5.5,0,0,1,.37,0,1.09,1.09,0,0,1,.63,0H3.09a.57.57,0,0,1,.65.5c.17.64.34,1.28.5,1.92,0,.15.1.19.24.19H17.34A.62.62,0,0,1,18,3ZM5,5.2H8.15V3.66H4.56Zm8.27,0H16.3c.05,0,.12-.07.14-.11.08-.28.15-.56.22-.83l.15-.61H13.23Zm-4,0h3V3.66h-3Zm0,2.6h3V6.26h-3Zm3,1.07h-3v1.54h3Zm-4-2.6H5.24c.12.47.25.93.36,1.39,0,.13.08.16.21.16H8.15Zm5.08,1.55h2.18c.33,0,.33,0,.41-.31s.21-.83.32-1.24H13.23ZM8.14,10.43V8.87H5.92c.13.5.25,1,.39,1.48,0,0,.09.07.15.07H8.14Zm5.1-1.56v1.56H15a.17.17,0,0,0,.13-.1c.05-.16.09-.32.13-.48.08-.32.16-.64.25-1Z"/><path class="cls-1" d="M12.19,13.81a1.89,1.89,0,1,1,1.93,1.87A1.9,1.9,0,0,1,12.19,13.81Z"/><path class="cls-1" d="M9.19,13.78a1.89,1.89,0,1,1-3.78,0,1.89,1.89,0,1,1,3.78,0Z"/></g></g></svg>