<svg xmlns="http://www.w3.org/2000/svg" viewBox="0 0 26.67 43.3"><defs><style>.cls-1{fill:#161b32;}.cls-2{fill:#0e74ba;}.cls-3{fill:#fff;}</style></defs><g id="Capa_2" data-name="Capa 2"><g id="Capa_1-2" data-name="Capa 1"><path class="cls-1" d="M26.65,7c0,.16,0,.32,0,.48q0,13.49-.07,27a.54.54,0,0,1-.29.57l-14,8.12-.2.09c-.15-.1-.11-.26-.11-.4,0-5.34,0-10.68,0-16a3.84,3.84,0,0,0,0-.83V24.53a3.29,3.29,0,0,0,0-.83V22.31a3.37,3.37,0,0,0,0-.84V20.09a1.21,1.21,0,0,0,0-.86V17.88c.14-.27.05-.56.08-.84-.08-.5.06-1,0-1.52,0-.2.09-.31.26-.41l2.54-1.48,5.39-3.14c1.69-1,3.37-2,5.07-2.92A3.43,3.43,0,0,1,26.65,7ZM24.9,27.78V26.64c0-.09,0-.21-.09-.22a.37.37,0,0,0-.23.09c-.15.09-.11.25-.11.4q0,1,0,2c0,.12-.1.34.13.34s.31-.13.31-.35S24.9,28.15,24.9,27.78ZM16,32.9c0-.38,0-.76,0-1.14,0-.09,0-.21-.08-.22a.38.38,0,0,0-.24.09c-.15.09-.11.26-.11.4,0,.66,0,1.32,0,2,0,.12-.1.34.13.34S16,34.22,16,34,16,33.27,16,32.9Zm8.92,0c0-.37,0-.74,0-1.1,0-.1,0-.24-.1-.26a.31.31,0,0,0-.29.17,1,1,0,0,0,0,.34q0,1,0,2c0,.12-.11.34.14.33s.3-.15.3-.36C24.9,33.62,24.9,33.25,24.9,32.89Zm-.7.36c0-.36,0-.71,0-1.06,0-.11.06-.28-.1-.29a.32.32,0,0,0-.3.21.78.78,0,0,0,0,.31c0,.64,0,1.29,0,1.93,0,.14-.1.38.16.38s.28-.18.28-.38C24.19,34,24.2,33.61,24.2,33.25ZM16,38c0-.34,0-.67,0-1,0-.13.09-.35-.13-.36s-.3.17-.3.37V39.3c0,.18.06.24.24.13A.43.43,0,0,0,16,39C16,38.69,16,38.35,16,38Zm8.22-9.84c0-.36,0-.73,0-1.09,0-.1,0-.24-.12-.24a.27.27,0,0,0-.3.2,1.15,1.15,0,0,0,0,.26c0,.65,0,1.29,0,1.94,0,.13-.09.37.16.37s.28-.18.28-.38Zm-5.74,8.28c0,.34,0,.68,0,1,0,.12-.12.34.13.34a.3.3,0,0,0,.3-.32c0-.72,0-1.44,0-2.16,0-.1,0-.31-.16-.31s-.26.15-.26.34Zm0-5.09c0,.34,0,.67,0,1,0,.11-.08.31.12.31a.29.29,0,0,0,.31-.31,17.79,17.79,0,0,0,0-2.19c0-.09.06-.31-.16-.29s-.23.16-.23.33Zm-.71,1.75c.3,0,.36-.18.36-.38,0-.72,0-1.44,0-2.16,0-.1.07-.28-.13-.27s-.22.12-.22.28Zm-.35-2.43c-.29,0-.36.16-.36.38,0,.71,0,1.43,0,2.15,0,.1-.06.27.12.27s.23-.1.23-.26Zm6,3c0-.39,0-.77,0-1.15,0-.08.05-.2-.09-.21a.22.22,0,0,0-.21.13,1,1,0,0,0-.05.3v2.07c0,.11-.07.31.15.29s.21-.13.21-.29C23.4,34.48,23.41,34.1,23.41,33.72Zm-6,2.08c-.29,0-.36.17-.36.39,0,.71,0,1.43,0,2.14,0,.1-.06.27.12.27a.24.24,0,0,0,.23-.27Zm6-7.18c0-.32,0-.64,0-1,0-.14.1-.38-.16-.37s-.19.21-.19.37v2.07c0,.11-.08.3.13.3s.23-.14.23-.31C23.4,29.36,23.41,29,23.41,28.62Zm1.85-1.16c0,.36,0,.73,0,1.1,0,.09,0,.23.11.24s.18-.09.21-.19a1.09,1.09,0,0,0,0-.31c0-.66,0-1.32,0-2,0-.1.1-.31-.1-.31s-.26.16-.26.35C25.26,26.72,25.26,27.09,25.26,27.46Zm-8.92,6.45c.31,0,.36-.2.35-.43,0-.69,0-1.38,0-2.07,0-.11.08-.31-.13-.3s-.22.16-.22.33Zm8.92,0c.32,0,.35-.2.35-.42,0-.69,0-1.38,0-2.07,0-.11.08-.31-.13-.3s-.22.14-.22.28Zm-2.92,1.67c.32,0,.36-.19.36-.41,0-.69,0-1.38,0-2.07,0-.11.08-.31-.12-.31s-.23.17-.23.33Zm-4.23,1.21c0-.35,0-.71,0-1.06,0-.11.09-.3-.13-.3s-.22.16-.22.33V37.9c0,.11,0,.27.13.28s.23-.15.23-.31Zm-1.42.78v-1.1c0-.09,0-.23-.11-.24s-.18.09-.21.19a1,1,0,0,0,0,.3c0,.66,0,1.32,0,2,0,.11-.1.31.1.32s.26-.16.25-.35Zm6-9.89c-.31,0-.36.2-.36.43,0,.69,0,1.38,0,2.07,0,.1-.09.28.09.28a.27.27,0,0,0,.26-.3Z"/><path class="cls-2" d="M26.65,7a3.43,3.43,0,0,0-1.29.62c-1.7.95-3.38,1.94-5.07,2.92L14.9,13.63l-2.54,1.48c-.17.1-.28.21-.26.41,0,.51-.1,1,0,1.52a6.58,6.58,0,0,1-2.31-.78,2.34,2.34,0,0,0-.91-.37l0-.35a.74.74,0,0,0-.08-.89c0-.64.59-.75,1-1.09L3.19,9.78c-.42.06-.89.19-.95.62a7.27,7.27,0,0,0-.11,1.48v0a13,13,0,0,1-2-1.53s0,0,0,0A5.27,5.27,0,0,1,.14,8.51c.22-.52,1-.67,1.47-1L14.32.14a.71.71,0,0,1,.83,0c3.71,2.16,7.42,4.3,11.13,6.45C26.43,6.66,26.67,6.68,26.65,7Z"/><path class="cls-2" d="M8.74,41c.16-.17.09-.37.09-.55q0-7.08,0-14.17a1.57,1.57,0,0,1,.05-.61c.31.15.62.31.94.44a5.67,5.67,0,0,0,2.19.69c0,5.34,0,10.68,0,16,0,.14,0,.3.11.4a.48.48,0,0,1-.52.1A13.5,13.5,0,0,1,9,42.18c-.18-.09-.15-.23-.16-.37S8.9,41.22,8.74,41Z"/><path class="cls-2" d="M2.23,38.13c-.09.12-.18.06-.26,0a11.06,11.06,0,0,1-1.7-1.27A.76.76,0,0,1,0,36.29q0-8.1.05-16.19a13.94,13.94,0,0,0,2.07,1.6v16C2.12,37.83,2.07,38,2.23,38.13Z"/><path class="cls-2" d="M.05,19.21c0-.44,0-.87,0-1.3a13.48,13.48,0,0,0,2.06,1.54v1.37A11.5,11.5,0,0,1,.05,19.21Z"/><path class="cls-2" d="M.06,17V15.68a11.82,11.82,0,0,0,2.05,1.54V18.6A13.32,13.32,0,0,1,.06,17Z"/><path class="cls-2" d="M.08,12.59V11.26a13.62,13.62,0,0,0,2,1.51v0l0,1.3A10.65,10.65,0,0,1,.08,12.59Z"/><path class="cls-2" d="M.07,14.81c0-.45,0-.9,0-1.34a12.57,12.57,0,0,0,2,1.52v1.34A11.27,11.27,0,0,1,.07,14.81Z"/><path class="cls-3" d="M.05,19.21a11.5,11.5,0,0,0,2.07,1.61v.88A13.94,13.94,0,0,1,.05,20.1,2.06,2.06,0,0,1,.05,19.21Z"/><path class="cls-3" d="M.07,14.81a11.27,11.27,0,0,0,2,1.52.09.09,0,0,0,0,.06l0,.83A11.82,11.82,0,0,1,.07,15.68,1.44,1.44,0,0,1,.07,14.81Z"/><path class="cls-3" d="M2.12,12.77a13.62,13.62,0,0,1-2-1.51,1.27,1.27,0,0,1,0-.88,13,13,0,0,0,2,1.53Z"/><path class="cls-3" d="M2.12,15a12.57,12.57,0,0,1-2-1.52,1.33,1.33,0,0,1,0-.88,10.65,10.65,0,0,0,2,1.52h0Z"/><path class="cls-3" d="M.06,17A13.32,13.32,0,0,0,2.13,18.6c0,.28,0,.57,0,.85A13.48,13.48,0,0,1,.06,17.91,1.79,1.79,0,0,1,.06,17Z"/><path class="cls-2" d="M12,22.31V23.7a1,1,0,0,1-.43,0,12.68,12.68,0,0,1-2.25-.93c-.16-.07-.3-.2-.49-.14l0-.36v-.87l0-.22c.3.15.6.31.91.44A6.35,6.35,0,0,0,12,22.31Z"/><path class="cls-2" d="M8.85,24.8l0-.35v-.88l0-.22c.46.22.91.46,1.38.66a4.46,4.46,0,0,0,1.78.52v1.39a1.31,1.31,0,0,1-.56-.07,14.76,14.76,0,0,1-2.16-.92C9.16,24.86,9,24.74,8.85,24.8Z"/><path class="cls-2" d="M12,20.09c0,.46,0,.92,0,1.38a7.3,7.3,0,0,1-2.6-.93c-.18-.08-.34-.24-.57-.15l0-.38v-.87l0-.21c.17.08.34.17.51.24A8,8,0,0,0,12,20.09Z"/><path class="cls-2" d="M12,17.88v1.35a3.78,3.78,0,0,1-1.55-.43,16.15,16.15,0,0,0-1.6-.7.65.65,0,0,0-.12-.36c.19-.26.06-.55.09-.82l0-.21.76.35A7.42,7.42,0,0,0,12,17.88Z"/><path class="cls-3" d="M12,17.88a7.42,7.42,0,0,1-2.37-.82l-.76-.35c0-.27,0-.55,0-.82a2.34,2.34,0,0,1,.91.37,6.58,6.58,0,0,0,2.31.78C12.05,17.32,12.14,17.61,12,17.88Z"/><path class="cls-3" d="M8.86,18.1a16.15,16.15,0,0,1,1.6.7,3.78,3.78,0,0,0,1.55.43,1.21,1.21,0,0,1,0,.86,8,8,0,0,1-2.63-.92c-.17-.07-.34-.16-.51-.24C8.86,18.65,8.86,18.37,8.86,18.1Z"/><path class="cls-3" d="M8.85,24.8c.18-.06.31.06.45.13a14.76,14.76,0,0,0,2.16.92,1.31,1.31,0,0,0,.56.07,3.84,3.84,0,0,1,0,.83,5.67,5.67,0,0,1-2.19-.69c-.32-.13-.63-.29-.94-.44A3.73,3.73,0,0,1,8.85,24.8Z"/><path class="cls-3" d="M8.85,20.39c.23-.09.39.07.57.15a7.3,7.3,0,0,0,2.6.93,3.37,3.37,0,0,1,0,.84,6.35,6.35,0,0,1-2.24-.73c-.31-.13-.61-.29-.91-.44C8.86,20.89,8.85,20.64,8.85,20.39Z"/><path class="cls-3" d="M12,24.53A4.46,4.46,0,0,1,10.23,24c-.47-.2-.92-.44-1.38-.66v-.76c.19-.06.33.07.49.14a12.68,12.68,0,0,0,2.25.93,1,1,0,0,0,.43,0A3.29,3.29,0,0,1,12,24.53Z"/><path class="cls-3" d="M24.6,29.23c.18,0,.31-.13.3-.35V26.64c0-.09,0-.21-.09-.22a.37.37,0,0,0-.23.09c-.15.09-.11.25-.11.4q0,1,0,2C24.47,29,24.37,29.23,24.6,29.23Z"/><path class="cls-3" d="M15.68,34.35c.18,0,.31-.13.31-.35s0-.73,0-1.1,0-.76,0-1.14c0-.09,0-.21-.08-.22a.38.38,0,0,0-.24.09c-.15.09-.11.26-.11.4,0,.66,0,1.32,0,2C15.55,34.13,15.45,34.35,15.68,34.35Z"/><path class="cls-3" d="M24.9,31.79c0-.1,0-.24-.1-.26a.31.31,0,0,0-.29.17,1,1,0,0,0,0,.34q0,1,0,2c0,.12-.11.34.14.33s.3-.15.3-.36c0-.37,0-.74,0-1.1S24.91,32.15,24.9,31.79Z"/><path class="cls-3" d="M24.09,31.9a.32.32,0,0,0-.3.21.78.78,0,0,0,0,.31c0,.64,0,1.29,0,1.93,0,.14-.1.38.16.38s.28-.18.28-.38c0-.37,0-.74,0-1.1s0-.71,0-1.06C24.19,32.08,24.25,31.91,24.09,31.9Z"/><path class="cls-3" d="M15.85,36.64c-.21,0-.3.17-.3.37V39.3c0,.18.06.24.24.13A.43.43,0,0,0,16,39c0-.34,0-.68,0-1s0-.67,0-1C16,36.87,16.07,36.65,15.85,36.64Z"/><path class="cls-3" d="M23.92,29.61c.2,0,.28-.18.28-.38V28.17c0-.36,0-.73,0-1.09,0-.1,0-.24-.12-.24a.27.27,0,0,0-.3.2,1.15,1.15,0,0,0,0,.26c0,.65,0,1.29,0,1.94C23.77,29.37,23.67,29.61,23.92,29.61Z"/><path class="cls-3" d="M18.72,35c-.19,0-.26.15-.26.34v1.1c0,.34,0,.68,0,1,0,.12-.12.34.13.34a.3.3,0,0,0,.3-.32c0-.72,0-1.44,0-2.16C18.88,35.22,18.88,35,18.72,35Z"/><path class="cls-3" d="M18.69,29.89c-.16,0-.23.16-.23.33v1.14c0,.34,0,.67,0,1,0,.11-.08.31.12.31a.29.29,0,0,0,.31-.31,17.79,17.79,0,0,0,0-2.19C18.83,30.09,18.91,29.87,18.69,29.89Z"/><path class="cls-3" d="M17.75,33.11c.3,0,.36-.18.36-.38,0-.72,0-1.44,0-2.16,0-.1.07-.28-.13-.27s-.22.12-.22.28Z"/><path class="cls-3" d="M17.17,33.48c.13,0,.23-.1.23-.26V30.68c-.29,0-.36.16-.36.38,0,.71,0,1.43,0,2.15C17.05,33.31,17,33.48,17.17,33.48Z"/><path class="cls-3" d="M23.31,32.36a.22.22,0,0,0-.21.13,1,1,0,0,0-.05.3v2.07c0,.11-.07.31.15.29s.21-.13.21-.29c0-.38,0-.76,0-1.14s0-.77,0-1.15C23.4,32.49,23.45,32.37,23.31,32.36Z"/><path class="cls-3" d="M17,36.19c0,.71,0,1.43,0,2.14,0,.1-.06.27.12.27a.24.24,0,0,0,.23-.27V35.8C17.11,35.81,17,36,17,36.19Z"/><path class="cls-3" d="M23.24,27.29c-.21,0-.19.21-.19.37v2.07c0,.11-.08.3.13.3s.23-.14.23-.31c0-.36,0-.73,0-1.1s0-.64,0-1C23.39,27.52,23.5,27.28,23.24,27.29Z"/><path class="cls-3" d="M25.37,28.8c.1,0,.18-.09.21-.19a1.09,1.09,0,0,0,0-.31c0-.66,0-1.32,0-2,0-.1.1-.31-.1-.31s-.26.16-.26.35c0,.36,0,.73,0,1.1s0,.73,0,1.1C25.26,28.65,25.22,28.79,25.37,28.8Z"/><path class="cls-3" d="M16.56,31.11c-.15,0-.22.16-.22.33v2.47c.31,0,.36-.2.35-.43,0-.69,0-1.38,0-2.07C16.69,31.3,16.77,31.1,16.56,31.11Z"/><path class="cls-3" d="M25.48,31.11c-.13,0-.22.14-.22.28V33.9c.32,0,.35-.2.35-.42,0-.69,0-1.38,0-2.07C25.61,31.3,25.69,31.1,25.48,31.11Z"/><path class="cls-3" d="M22.57,32.78c-.15,0-.23.17-.23.33v2.46c.32,0,.36-.19.36-.41,0-.69,0-1.38,0-2.07C22.69,33,22.77,32.78,22.57,32.78Z"/><path class="cls-3" d="M18,35.42c-.17,0-.22.16-.22.33V37.9c0,.11,0,.27.13.28s.23-.15.23-.31V36.78c0-.35,0-.71,0-1.06C18.1,35.61,18.19,35.42,18,35.42Z"/><path class="cls-3" d="M16.69,36.46c0-.09,0-.23-.11-.24s-.18.09-.21.19a1,1,0,0,0,0,.3c0,.66,0,1.32,0,2,0,.11-.1.31.1.32s.26-.16.25-.35v-2.2Z"/><path class="cls-3" d="M22.44,30.45a.27.27,0,0,0,.26-.3V27.67c-.31,0-.36.2-.36.43,0,.69,0,1.38,0,2.07C22.35,30.27,22.26,30.45,22.44,30.45Z"/><path class="cls-3" d="M8.82,15.54,4.29,13l-1.11-.62c-.07-.1-.13-.06-.21,0a3.85,3.85,0,0,1-.84.47v-.93c.41,0,.65-.41,1.06-.44l5.55,3.2A.75.75,0,0,1,8.82,15.54Z"/><path class="cls-3" d="M8.83,23.57v.88L5.1,22.32l-2-1.13L3,21.27c-.32.08-.53.39-.88.41v-.89c.4,0,.64-.45,1.05-.43l2.4,1.37Z"/><path class="cls-3" d="M8.07,33.11a.63.63,0,0,0-.24-.18c-.78-.44-1.55-.89-2.32-1.34L4.3,30.9c-.18.42.07.59.33.74L7.8,33.45c.08,0,.18.22.29.08A.38.38,0,0,0,8.07,33.11Z"/><path class="cls-3" d="M4.5,25.22l3.33,1.89c.07,0,.14.15.23.09s.06-.18.06-.28-.15-.26-.29-.34l-1.48-.87L4.28,24.54C4.2,24.86,4.23,25.07,4.5,25.22Z"/><path class="cls-3" d="M7.88,31.68,4.54,29.75l-.14-.07c-.12,0-.15,0-.15.12s0,.34.17.46l3.42,2c.24.13.29,0,.28-.2A.39.39,0,0,0,7.88,31.68Z"/><path class="cls-3" d="M8,30.54a1.14,1.14,0,0,0-.25-.18l-3.2-1.83-.17-.12a.18.18,0,0,0-.18.17A.41.41,0,0,0,4.5,29c1.1.61,2.18,1.25,3.27,1.88.1.05.22.18.31.07A.34.34,0,0,0,8,30.54Z"/><path class="cls-3" d="M4.49,23.94c1.1.61,2.18,1.24,3.28,1.86.09.06.19.19.3.08a.31.31,0,0,0,0-.41,1.18,1.18,0,0,0-.28-.2L5,23.67l-.59-.34c-.11,0-.15,0-.16.11A.43.43,0,0,0,4.49,23.94Z"/><path class="cls-3" d="M4.41,26.42c1.13.64,2.26,1.3,3.39,1.95.08.05.2.18.3,0a.32.32,0,0,0,0-.37,1.06,1.06,0,0,0-.24-.19L4.58,26l-.18-.09c-.12,0-.15.05-.15.13A.35.35,0,0,0,4.41,26.42Z"/><path class="cls-3" d="M7.58,29l-1.06-.61L4.29,27.09c-.1.36,0,.54.26.68.44.23.85.51,1.28.76l2,1.11c.09.05.22.16.3,0A.28.28,0,0,0,8,29.26,4.3,4.3,0,0,0,7.58,29Z"/><path class="cls-1" d="M3,37.46a.59.59,0,0,1,0-.14.59.59,0,0,0,0,.14.35.35,0,0,0,.08.13V21.76c0-.19,0-.38,0-.57L3,21.27c-.32.08-.53.39-.88.41v16c0,.15-.05.33.11.45l.87-.45v-.09A.35.35,0,0,1,3,37.46Z"/><path class="cls-3" d="M8.83,21.36v.87L7,21.17,3.1,19l-1,.52v-.05c0-.28,0-.57,0-.85v0a3.38,3.38,0,0,0,1-.5L4,18.6Z"/><path class="cls-3" d="M8.83,19.14V20L6.66,18.77c-1.19-.66-2.34-1.41-3.56-2l-1,.52v-.06c0-.28,0-.55,0-.83l1-.53Z"/><path class="cls-3" d="M2.11,14.12c.41,0,.66-.42,1.07-.46l5.65,3.26c0,.27.1.56-.09.82-1.19-.69-2.38-1.38-3.58-2A17.16,17.16,0,0,0,3.1,14.55l-1,.52v-1Z"/><path class="cls-1" d="M2.24,10.4a7.27,7.27,0,0,0-.11,1.48c.41,0,.65-.41,1.06-.44V9.78C2.77,9.84,2.3,10,2.24,10.4Z"/><path class="cls-1" d="M3.1,19l-1,.52v1.29c.4,0,.64-.45,1.05-.43A4.27,4.27,0,0,1,3.1,19Z"/><path class="cls-1" d="M3.09,18.07c0-.43,0-.87,0-1.31l-1,.52c0,.43,0,.86,0,1.29A3.38,3.38,0,0,0,3.09,18.07Z"/><path class="cls-1" d="M3.18,12.34c-.07-.1-.13-.06-.21,0a3.85,3.85,0,0,1-.84.47c0,.43,0,.86,0,1.3h0c.41,0,.66-.42,1.07-.46Z"/><path class="cls-1" d="M3.1,15.86V14.55l-1,.52v1.26a.09.09,0,0,0,0,.06Z"/><path d="M8.85,24.8l0-.35L5.1,22.32l-2-1.13c0,.19,0,.38,0,.57V37.68L8.74,41c.16-.17.09-.37.09-.55q0-7.08,0-14.17a1.57,1.57,0,0,1,.05-.61A3.73,3.73,0,0,1,8.85,24.8ZM4.25,26c0-.08,0-.15.15-.13l.18.09,3.23,1.87a1.06,1.06,0,0,1,.24.19.32.32,0,0,1,0,.37c-.1.15-.22,0-.3,0-1.13-.65-2.26-1.31-3.39-1.95A.35.35,0,0,1,4.25,26Zm0-1.47,2.07,1.17,1.48.87c.14.08.3.14.29.34s.05.22-.06.28-.16-.05-.23-.09L4.5,25.22C4.23,25.07,4.2,24.86,4.28,24.54Zm3.8,5.11c-.08.15-.21,0-.3,0L5.83,28.53C5.4,28.28,5,28,4.55,27.77c-.27-.14-.36-.32-.26-.68l2.23,1.27L7.58,29a4.3,4.3,0,0,1,.45.29A.28.28,0,0,1,8.08,29.65Zm0,1.33c-.09.11-.21,0-.31-.07C6.68,30.28,5.6,29.64,4.5,29a.41.41,0,0,1-.26-.45.18.18,0,0,1,.18-.17l.17.12,3.2,1.83a1.14,1.14,0,0,1,.25.18A.34.34,0,0,1,8.08,31Zm0,1c0,.21,0,.33-.28.2l-3.42-2c-.2-.12-.18-.28-.17-.46s0-.14.15-.12l.14.07,3.34,1.93A.39.39,0,0,1,8.12,32ZM4.25,23.44c0-.09,0-.14.16-.11l.59.34,2.77,1.6a1.18,1.18,0,0,1,.28.2.31.31,0,0,1,0,.41c-.11.11-.21,0-.3-.08-1.1-.62-2.18-1.25-3.28-1.86A.43.43,0,0,1,4.25,23.44ZM8.09,33.53c-.11.14-.21,0-.29-.08L4.63,31.64c-.26-.15-.51-.32-.33-.74l1.21.69c.77.45,1.54.9,2.32,1.34a.63.63,0,0,1,.24.18A.38.38,0,0,1,8.09,33.53Z"/><path d="M3.19,9.78v1.66l5.55,3.2c0-.63.59-.74,1-1.08Z"/><path d="M8.87,16.71c0-.27,0-.55,0-.82l0-.35L4.29,13l-1.11-.62v1.32l5.65,3.26Z"/><path d="M5.58,21.73l3.25,1.84,0-.22v-.76l0-.36L7,21.17,3.1,19a4.27,4.27,0,0,0,.08,1.38Z"/><path d="M8.83,21.36l0-.22v-.75l0-.38L6.66,18.77c-1.19-.66-2.34-1.41-3.56-2,0,.44,0,.88,0,1.31L4,18.6Z"/><path d="M8.87,18.93c0-.28,0-.56,0-.83a.65.65,0,0,0-.12-.36c-1.19-.69-2.38-1.38-3.58-2A17.16,17.16,0,0,0,3.1,14.55v1.31l5.73,3.28Z"/></g></g></svg>