<svg xmlns="http://www.w3.org/2000/svg" viewBox="0 0 18.56 14.2"><defs><style>.cls-1{fill:#0e74ba;}</style></defs><g id="Capa_2" data-name="Capa 2"><g id="Capa_1-2" data-name="Capa 1"><path class="cls-1" d="M18.56,13.06c0,.64-.23,1.13-.52,1.14H15.92c-.3,0-.52-.49-.52-1.13q0-6,0-11.94c0-.64.22-1.13.52-1.13H18c.3,0,.52.48.52,1.14,0,.38,0,.77,0,1.16S18.55,10.06,18.56,13.06ZM17,3.14h.7s.05-.05.06-.09,0-.1-.06-.1H16.29s0,0,0,0a.14.14,0,0,0,0,.09s0,.08,0,.09,0,0,0,0ZM17,2h-.69s0,0-.05,0a.25.25,0,0,0,0,.1.15.15,0,0,0,0,.08s0,0,.05,0h1.36s0,0,.06,0a.16.16,0,0,0,0-.09.24.24,0,0,0,0-.09s0,0-.05,0Zm0,2.09h.71s.05,0,.06-.08,0-.11-.06-.1H16.25a.15.15,0,0,0,0,.18H17Zm0,6.09a.42.42,0,0,0-.42.42.43.43,0,0,0,.85,0A.42.42,0,0,0,17,10.18Z"/><path class="cls-1" d="M1.25,11.14A1.36,1.36,0,0,1,0,9.68c0-2,0-7.7,0-8A1.48,1.48,0,0,1,1.4,0H13.06a1.48,1.48,0,0,1,1.4,1.62q0,4,0,8a1.36,1.36,0,0,1-1.25,1.48Zm6-2h5.09c.33,0,.51-.22.51-.61V2.06c0-.43-.24-.72-.59-.72h-10a.68.68,0,0,0-.63.76V8.54c0,.38.21.63.53.63Zm.32,1.2A.34.34,0,0,0,7.22,10a.35.35,0,0,0-.31.37.37.37,0,0,0,.32.38A.36.36,0,0,0,7.55,10.37Z"/><path class="cls-1" d="M5.17,13.31V11.15H9.29v2.16h2.83a.43.43,0,0,1,.44.55.45.45,0,0,1-.37.33H2.38a.44.44,0,0,1-.49-.45.42.42,0,0,1,.46-.43H5.17Z"/></g></g></svg>