<svg xmlns="http://www.w3.org/2000/svg" viewBox="0 0 80 80"><g id="Capa_2" data-name="Capa 2"><g id="Capa_1-2" data-name="Capa 1"><path d="M9.23,50.23c2.47-5.35,6.21-9.11,10.8-10.88a17.16,17.16,0,0,1,6.15-1.1,22.83,22.83,0,0,1,8.25,1.64,22.13,22.13,0,0,0-7.57-3.81l-1.18,0a27.44,27.44,0,0,0-2.87.15A24.61,24.61,0,0,0,16.91,38l-.55.25-.46-.39s-.25-.21-.59-.53c-7.44,3.76-11,12.14-11,12.14s1.89,1.17,4.25,2.34C8.77,51.28,9,50.76,9.23,50.23Z"/><path d="M18.1,18.71h0a19.06,19.06,0,0,1,12.33,4c5.83,4.71,6.73,12.15,6.87,14a22.06,22.06,0,0,0-.06-8.57,28.61,28.61,0,0,0-2.58-4.35,24.37,24.37,0,0,0-4.48-4.22l-.49-.35.11-.6c0-.05.07-.39.21-1-7-4.44-15.84-3.34-15.84-3.34s-.08,2.12.08,4.67A28.71,28.71,0,0,1,18.1,18.71Z"/><path d="M29.34,56.88c1.05-6.64,6-10.94,8.06-12.49A21.74,21.74,0,0,0,29.86,49,27,27,0,0,0,28,52.49a23.85,23.85,0,0,0-1.42,6l-.06.6-.57.2c-.05,0-.46.16-1.12.35-.62,8.46,5,15.9,5,15.9s2.11-1.13,4.41-2.68c-.3-.37-.59-.77-.88-1.18C30,66.86,28.57,61.75,29.34,56.88Z"/><path d="M61.64,61.83a19.05,19.05,0,0,1-12.34-4c-5.43-4.4-6.58-11.16-6.82-13.51l-.19-.15a22,22,0,0,0,0,8.46,27.72,27.72,0,0,0,2.39,3.95,23.87,23.87,0,0,0,4.48,4.23l.49.35-.11.59c0,.06-.1.54-.29,1.29,7,4.67,16.14,3.54,16.14,3.54s.08-2.28-.1-5A30,30,0,0,1,61.64,61.83Z"/><path d="M40,0A40,40,0,1,0,80,40,40,40,0,0,0,40,0Zm0,77.52A37.52,37.52,0,1,1,77.52,40,37.52,37.52,0,0,1,40,77.52Z"/><path d="M70.88,30.1c-2.47,5.35-6.2,9.11-10.8,10.87a16.91,16.91,0,0,1-6.15,1.11,22.85,22.85,0,0,1-9.09-2l-.14.06a21.9,21.9,0,0,0,7.69,4.32c.47,0,.94,0,1.43,0a27.64,27.64,0,0,0,2.88-.15,24.13,24.13,0,0,0,5.9-1.76l.55-.25.46.39s.38.33.89.83c7.57-3.72,11.18-12.23,11.18-12.23s-1.91-1.19-4.29-2.37C71.23,29.32,71.06,29.71,70.88,30.1Z"/><path d="M35.42,23.21a27.49,27.49,0,0,1,5.11,12.56s7.29-4.52,8.55-12.47C50.86,12,40,3.57,40,3.57a44.53,44.53,0,0,0-6.45,7.58,26.24,26.24,0,0,0-2.84,7.62A24.87,24.87,0,0,1,35.42,23.21Z"/><path d="M16.75,37.11a24.68,24.68,0,0,1,6.19-1.85,27.52,27.52,0,0,1,13.43,1.86s-.27-8.57-6.54-13.64c-8.88-7.18-21.6-2-21.6-2a43.84,43.84,0,0,0,3.34,9.37A26.32,26.32,0,0,0,16.75,37.11Z"/><path d="M27.13,52.1a27.52,27.52,0,0,1,8.32-10.7s-7.56-4-15.07-1.16C9.71,44.34,7.82,57.93,7.82,57.93a43.44,43.44,0,0,0,9.79,1.8,26.45,26.45,0,0,0,8-1.34A24.79,24.79,0,0,1,27.13,52.1Z"/><path d="M43.93,57.11a27.4,27.4,0,0,1-5.1-12.56S31.54,49.07,30.28,57c-1.78,11.29,9,19.72,9,19.72a44.09,44.09,0,0,0,6.45-7.58,26.24,26.24,0,0,0,2.84-7.62A25.12,25.12,0,0,1,43.93,57.11Z"/><path d="M63,43.44a25,25,0,0,1-6.19,1.84,27.52,27.52,0,0,1-13.43-1.86S43.64,52,49.9,57.06c8.89,7.19,21.6,2,21.6,2a44,44,0,0,0-3.34-9.38A26,26,0,0,0,63,43.44Z"/><path d="M53,28.22a27.41,27.41,0,0,1-8.32,10.71s7.56,4,15.08,1.15C70.41,36,72.3,22.39,72.3,22.39a43.81,43.81,0,0,0-9.79-1.79,26.12,26.12,0,0,0-8,1.34A24.76,24.76,0,0,1,53,28.22Z"/><path d="M50,23.45c-1,6.11-5.22,10.24-7.51,12.07,0,.33-.07.51-.07.51a21.72,21.72,0,0,0,7.81-4.71,25.93,25.93,0,0,0,1.86-3.49,24,24,0,0,0,1.43-6l.06-.6.56-.21c.05,0,.46-.16,1.12-.35.62-8.46-5-15.89-5-15.89a55,55,0,0,0-4.91,3c.21.27.42.55.62.84C49.4,13.46,50.78,18.58,50,23.45Z"/></g></g></svg>