<svg xmlns="http://www.w3.org/2000/svg" viewBox="0 0 11.52 17.48"><defs><style>.cls-1{fill:#0e74ba;}</style></defs><g id="Capa_2" data-name="Capa 2"><g id="Capa_1-2" data-name="Capa 1"><path class="cls-1" d="M8.62,2.42V.53C8.62.16,8.47,0,8.11,0H3.38a.44.44,0,0,0-.49.48V2.7l-.36,0V17.14l.26.05v.29h.8v-.3H7.92v.3h.81v-.29L9,17.13V2.73l-.36,0ZM6.7,16.17H4.81v-.6H6.7Zm1-13.47h-4V.87h4Z"/><path class="cls-1" d="M0,4.62C0,7,0,9.47,0,11.89c0,1.23,0,2.46,0,3.7a1.62,1.62,0,0,0,1.53,1.52V2.69A6.49,6.49,0,0,0,.87,3,1.76,1.76,0,0,0,0,4.62Z"/><path class="cls-1" d="M11.51,8.59c0-1.43,0-2.86,0-4.3A1.62,1.62,0,0,0,10,2.75V17.13l.16,0a1.74,1.74,0,0,0,1.4-1.8C11.5,13.07,11.51,10.83,11.51,8.59Z"/><path class="cls-1" d="M2,2.64l-.11.09V17.15l.1,0c0-.1,0-.2,0-.29V2.8Z"/><path class="cls-1" d="M9.65,2.91a1.07,1.07,0,0,0-.07-.19.58.58,0,0,0-.08.18.66.66,0,0,0,0,.2V14.73c0,.73,0,1.46,0,2.19,0,.08,0,.16,0,.25l.12,0V3.06A.71.71,0,0,0,9.65,2.91Z"/></g></g></svg>