<svg xmlns="http://www.w3.org/2000/svg" viewBox="0 0 20.06 16.78"><defs><style>.cls-1{fill:#0e74ba;}</style></defs><g id="Capa_2" data-name="Capa 2"><g id="Capa_1-2" data-name="Capa 1"><path class="cls-1" d="M11.16,5.1c.18-.72.32-1.42.52-2.11A4.35,4.35,0,0,1,13,.79a3.41,3.41,0,0,1,2-.77c.46,0,.91,0,1.36,0a.52.52,0,0,1,.32.14C17.82,1.22,18.88,2.29,20,3.35c0,0,.05.07.11.13l-.65,0a5.33,5.33,0,0,0-1.86.21,3.61,3.61,0,0,0-2.23,2.28,16.28,16.28,0,0,0-.72,2.91c-.21,1-.42,2-.71,3a3.87,3.87,0,0,1-1.72,2.29,6.06,6.06,0,0,0-.78.66A6.47,6.47,0,0,1,4.57,16.4,6.35,6.35,0,0,1,.08,11,6.62,6.62,0,0,1,3.37,4.27,6.7,6.7,0,0,1,11,4.93ZM12.52,11a1.52,1.52,0,0,0-3,0A1.54,1.54,0,0,0,11,12.51,1.5,1.5,0,0,0,12.52,11Zm-2.19-4.3A1.51,1.51,0,1,0,8.82,8.22,1.51,1.51,0,0,0,10.33,6.71Zm-7,7a1.52,1.52,0,1,0,0-3,1.52,1.52,0,0,0,0,3Zm5.82.7a1.51,1.51,0,1,0-1.53,1.49A1.51,1.51,0,0,0,9.11,14.43Zm-6.56-7A1.51,1.51,0,1,0,4.07,6,1.5,1.5,0,0,0,2.55,7.44ZM6.69,9.68a.39.39,0,0,0-.41.38.4.4,0,0,0,.41.42.39.39,0,0,0,.39-.4A.39.39,0,0,0,6.69,9.68Zm9.18-6.46-.46.41.45.49.47-.43ZM16.71.77A1,1,0,0,0,15.43.34C15.69.93,16.21.74,16.71.77ZM14,.68c.14.14.26.26.39.37a.24.24,0,0,0,.16,0l.57-.21C14.79.37,14.63.34,14,.68ZM12.23,2.91c-.34.52-.27.83.21,1.08C12.7,3.34,12.7,3.34,12.23,2.91Zm2.28,2.3c-.31.59-.27.79.22,1.08C15,5.6,15,5.6,14.51,5.21Zm-.67,2.65c-.23.66-.18.86.29,1.16C14.37,8.39,14.34,8.26,13.84,7.86ZM13.57.92l-.46.41.46.48L14,1.4Zm-.81.89c-.41.51-.38.68.14,1C13.28,2.18,13.28,2.18,12.76,1.81Zm4.69,1.37c-.33-.51-.62-.56-1.12-.17l.38.32a.24.24,0,0,0,.2,0C17.09,3.32,17.27,3.24,17.45,3.18Zm-3.6,7.23c.23-.68.18-.88-.29-1.13C13.33,9.94,13.35,10,13.85,10.41ZM19,3.07a1,1,0,0,0-1.28-.45C18,3.25,18.51,3,19,3.07ZM15.51,4.56l-.43-.47c-.43.49-.41.64.11,1Zm-3.4.79c.22-.73.16-.94-.31-1.14C11.61,5,11.61,5,12.11,5.35Zm2,1.14c-.25.66-.2.85.28,1.13C14.64,7,14.62,6.88,14.12,6.49Zm-.66,5.22c.31-.64.3-.72-.13-1C13.39,11.05,13,11.4,13.46,11.71Zm-.63,1c.38-.23.46-.52.23-.66Z"/></g></g></svg>