<svg xmlns="http://www.w3.org/2000/svg" viewBox="0 0 19.83 19.84"><defs><style>.cls-1{fill:#0e74ba;}</style></defs><g id="Capa_2" data-name="Capa 2"><g id="Capa_1-2" data-name="Capa 1"><path class="cls-1" d="M9.91,0a9.92,9.92,0,1,0,9.92,10A9.91,9.91,0,0,0,9.91,0ZM12,6.39h1.4c.15,0,.31,0,.46,0s.28.05.28.26v4.48c0,.09-.05.24-.11.27-.65.26-1.32.51-2,.78ZM9.41,5.62h2.11c0,.14,0,.26,0,.39,0,2,0,4.08,0,6.13a.45.45,0,0,1-.22.32c-.31.14-.63.24-.95.35a.65.65,0,0,1-1-.67Zm-2.62.79H8.92v5.68c-.24-.2-.45-.34-.63-.52a.52.52,0,0,0-.66-.1c-.26.11-.53.19-.84.29ZM4.18,4.92H6.32c0,.11,0,.23,0,.34,0,2.09,0,4.18,0,6.27a.47.47,0,0,1-.38.53c-.58.17-1.15.38-1.8.6Zm12.24,8.62-.57-1-2.13.79-2.73,1c-.38.14-.77.31-1.16.44a.53.53,0,0,1-.39-.06c-.5-.41-1-.85-1.49-1.25a.58.58,0,0,0-.48-.07c-1,.3-1.9.62-2.84,1-.25.09-.36,0-.45-.2s-.21-.55-.34-.87l1.85-.64c.68-.24,1.37-.49,2.06-.7a.56.56,0,0,1,.47.08c.53.4,1,.84,1.55,1.25a.52.52,0,0,0,.4.07l4.15-1.55c.4-.15.79-.32,1.21-.49l-.38-1,3,.48Z"/></g></g></svg>