<svg xmlns="http://www.w3.org/2000/svg" viewBox="0 0 17.13 17.13"><defs><style>.cls-1{fill:#0e74ba;}</style></defs><g id="Capa_2" data-name="Capa 2"><g id="Capa_1-2" data-name="Capa 1"><path class="cls-1" d="M17.13,7.71V9.35c0,.12-.05.23-.07.35a8.4,8.4,0,0,1-5.36,6.81,16.55,16.55,0,0,1-2.35.62H7.77l-.28-.07a8.41,8.41,0,0,1-7-5.71,16.2,16.2,0,0,1-.48-2V7.71c0-.09.06-.17.07-.25A8.54,8.54,0,0,1,6.37.29C6.81.17,7.26.1,7.71,0H9.35c.1,0,.19.05.29.06A8.56,8.56,0,0,1,16.82,6.3C16.94,6.76,17,7.24,17.13,7.71ZM8.81,14.49a5.83,5.83,0,0,0,5-3.13,5.56,5.56,0,0,0,.71-2.71.57.57,0,1,0-1.13-.08l0,.33a4.59,4.59,0,0,1-2.73,4,4.55,4.55,0,0,1-4.86-.48,4.65,4.65,0,0,1-2-3.78c0-.41-.27-.65-.61-.62s-.54.28-.53.7A6,6,0,0,0,8.81,14.49ZM12.45,5.6A2.66,2.66,0,0,0,12,4a.94.94,0,0,0-1.67,0,2.87,2.87,0,0,0,0,3.1.93.93,0,0,0,1.6,0A2.62,2.62,0,0,0,12.45,5.6ZM7.22,5.54A2.52,2.52,0,0,0,6.7,3.91a.9.9,0,0,0-1.51,0,2.85,2.85,0,0,0,0,3.23.93.93,0,0,0,1.56,0A2.67,2.67,0,0,0,7.22,5.54Z"/></g></g></svg>