<svg xmlns="http://www.w3.org/2000/svg" viewBox="0 0 32.94 42.27"><defs><style>.cls-1{fill:#e6e5e5;}.cls-2{fill:#161b32;}.cls-3{fill:#fff;}.cls-4{fill:#0e74ba;}.cls-5{fill:#eeeff3;}.cls-6{fill:#a1a6bf;}.cls-7{fill:#4e4e4e;}.cls-8{fill:#1c1d1d;}.cls-9{fill:#d6d8e7;}</style></defs><g id="Capa_2" data-name="Capa 2"><g id="Capa_1-2" data-name="Capa 1"><path class="cls-1" d="M9.9,5.57A.2.2,0,0,1,10,5.41c.37-.28.71-.59,1.08-.88s1-.72,1.5-1.08A21.43,21.43,0,0,1,15.07,2c.47-.25,1-.47,1.45-.68A14.55,14.55,0,0,1,18.65.53,14,14,0,0,1,20.57.12a13,13,0,0,1,2-.12,10.07,10.07,0,0,1,1.72.26,5.33,5.33,0,0,1,1.3.48,6.36,6.36,0,0,1,1.06.64c.24.18.44.39.66.58a2.06,2.06,0,0,1,.38.45,8,8,0,0,1,.75,1.08s0,0,0,0h0a.52.52,0,0,0,.1.27A6.11,6.11,0,0,1,29,5.17a9.84,9.84,0,0,1,.22,3,15.42,15.42,0,0,1-.31,2.25,21.25,21.25,0,0,1-2,5.31,25.78,25.78,0,0,1-2.1,3.35,9.2,9.2,0,0,1-.85,1.1c0-.12.07-.2.14-.29a7.83,7.83,0,0,0,.79-1.26A12,12,0,0,0,25.65,17c.13-.36.29-.71.4-1.08l.36-1.25.27.13a.25.25,0,1,0,.22-.44l-.43-.22a9,9,0,0,0,0-1.94,4.61,4.61,0,0,0-.61-1.91A3.79,3.79,0,0,0,24,8.67a4.33,4.33,0,0,0-1.64-.34c-.39,0-.77,0-1.16,0a6.07,6.07,0,0,0-1,.19,11.18,11.18,0,0,0-1.84.65,1.37,1.37,0,0,0-.64.39l-.16-.07-5.73-3c-.1-.05-.22-.06-.28-.17l5.81.8,1.15.16a.23.23,0,0,0,.29-.2.22.22,0,0,0-.21-.28l-.14,0L12.15,6l-2-.26Z"/><path class="cls-1" d="M4,28.64a4.59,4.59,0,0,1-.88-.7,7.29,7.29,0,0,1-1.26-1.61,3.83,3.83,0,0,1-.44-1,4,4,0,0,0-.21-.58,5.78,5.78,0,0,1-.11-.6C1,23.9,1,23.63.93,23.37a8.69,8.69,0,0,1,0-1.14,11.17,11.17,0,0,1,.21-2.45,14.21,14.21,0,0,1,.32-1.47q.24-.84.54-1.65c.21-.53.44-1.05.68-1.57.35-.75.73-1.49,1.15-2.21s.7-1.14,1.07-1.69a2.12,2.12,0,0,1,.52-.67c.07.05.07.12.1.18.08.39.17.78.26,1.17.54,2.38,1.08,4.77,1.63,7.15q.08.32.3.27c.16,0,.22-.16.17-.38L7.3,16.52c-.35-1.5-.69-3-1-4.5.12,0,.11.07.14.11l1.45,2.3c.67,1.09,1.35,2.17,2,3.25a13.33,13.33,0,0,0-.63,1.58,9.63,9.63,0,0,0-.49,2.3,6.16,6.16,0,0,0,.33,2.79,4.85,4.85,0,0,0,.59,1.07,3.13,3.13,0,0,0,.85.77,4.07,4.07,0,0,0,1.25.58,6.1,6.1,0,0,0,.72.14,5.31,5.31,0,0,0,1.49,0,6.39,6.39,0,0,0,1.23-.25c.08,0,.18,0,.24-.06l.15.2a.22.22,0,0,0,.29,0,.2.2,0,0,0,.11-.26.76.76,0,0,0-.06-.16.73.73,0,0,0,.25,0c.27-.08.52-.23.78-.33a12.1,12.1,0,0,0,1.47-.77,6.2,6.2,0,0,0,.83-.54c.16-.12.3-.31.53-.32a14.91,14.91,0,0,1-1.31,1.07,27,27,0,0,1-3.73,2.32,19.81,19.81,0,0,1-3.22,1.28,11.78,11.78,0,0,1-4.49.5,7.15,7.15,0,0,1-1.79-.39c-.33-.11-.64-.25-1-.38h0a.14.14,0,0,0-.17-.08h0C4.12,28.62,4.05,28.62,4,28.64Z"/><path class="cls-2" d="M4.29,28.8c.33.13.64.27,1,.38a7.15,7.15,0,0,0,1.79.39,11.78,11.78,0,0,0,4.49-.5,19.81,19.81,0,0,0,3.22-1.28,27,27,0,0,0,3.73-2.32A14.91,14.91,0,0,0,19.8,24.4h0a.11.11,0,0,0,.08-.08h0a.09.09,0,0,0,.08,0c.41-.3.75-.67,1.13-1a17.74,17.74,0,0,0,1.9-2,10.26,10.26,0,0,0,.73-.9l.08-.09h0a.09.09,0,0,0,.05-.08h0a.12.12,0,0,0,.09-.08h0a9.2,9.2,0,0,0,.85-1.1,25.78,25.78,0,0,0,2.1-3.35,21.25,21.25,0,0,0,2-5.31,15.42,15.42,0,0,0,.31-2.25,9.84,9.84,0,0,0-.22-3,6.11,6.11,0,0,0-.45-1.37.52.52,0,0,1-.1-.27,5.45,5.45,0,0,1,.56,1,13,13,0,0,1,1.15,3.69,20.23,20.23,0,0,1,.22,2.2c0,.54,0,1.07,0,1.6,0,.82-.08,1.64-.17,2.45-.14,1.25-.36,2.48-.62,3.7A16.42,16.42,0,0,1,28,22.69a.19.19,0,0,0,.05.25c.81.85,1.62,1.69,2.42,2.54l1.13,1.2a.82.82,0,0,1,.22.52v.54c-.07.06,0,.16-.1.22a.12.12,0,0,1-.12-.06l-1.51-1.4-.92-.84-1.72-1.61c-.18-.16-.18-.17-.33,0a4.77,4.77,0,0,1-.76.92c-.1-.24-.21-.47-.32-.71a.14.14,0,0,1,0-.11,4,4,0,0,0,0-1.09.8.8,0,0,0-.55-.87,1,1,0,0,0-.9.21,3,3,0,0,0-1.3,2.12,1.08,1.08,0,0,0,.24,1c0,.05,0,.09,0,.14-.16.68-.31,1.37-.42,2.06a.32.32,0,0,0-.22.06l-.74.38-.25.12c-1,.4-2,.75-3,1.07a32.35,32.35,0,0,1-3.64.93h0a26.35,26.35,0,0,1-4,.43c-.12,0-.14.06-.17.15a7.09,7.09,0,0,0-.34,2,3.12,3.12,0,0,1-.74-.4c-.06,0,0-.1,0-.16,0-.35.07-.7.11-1.05,0-.14.07-.28.11-.42s0-.13-.11-.14a14.77,14.77,0,0,1-2.89-.47A10.8,10.8,0,0,1,4.44,29C4.38,28.91,4.3,28.9,4.29,28.8Z"/><path class="cls-3" d="M10.17,31.24c0,.35-.1.7-.11,1.05,0,.06,0,.13,0,.16a3.12,3.12,0,0,0,.74.4c.05.06.1,0,.14,0a.13.13,0,0,0,.09,0,1.74,1.74,0,0,0,.51,0H22.47l0,1-.07.07a10.33,10.33,0,0,0-1.1,2,7.52,7.52,0,0,0-.54,2.43c0,.08,0,.17.06.22a5.29,5.29,0,0,0,.74.4h.07a2.9,2.9,0,0,0,.72,0h2.86a4.06,4.06,0,0,1-1,.36,15.37,15.37,0,0,1-2.12.45,15.11,15.11,0,0,1-1.78.18A19.48,19.48,0,0,1,17.78,40c-.54-.07-1.09-.12-1.63-.24s-1.34-.31-2-.52a11.31,11.31,0,0,1-2.44-1.14A6.81,6.81,0,0,1,10,36.56a4.16,4.16,0,0,1-.9-1.79,2,2,0,0,0-.11-.48,4,4,0,0,1,.55-2.24,8.3,8.3,0,0,1,.5-.71A.21.21,0,0,1,10.17,31.24Z"/><path d="M21.59,39h-.07a7.15,7.15,0,0,1,.68-2.94,10.69,10.69,0,0,1,1-1.74c.06-.88.15-1.75.24-2.62s.24-1.88.39-2.81a28.26,28.26,0,0,1,.69-3.29.47.47,0,0,0,0-.47.48.48,0,0,1-.07-.29,1.71,1.71,0,0,1,.37-1.09,1.2,1.2,0,0,1,1-.58c-.41-.29-.61-.35-1.1,0a3.1,3.1,0,0,0-.81,1.51l-.24.77a1.08,1.08,0,0,1-.24-1,3,3,0,0,1,1.3-2.12,1,1,0,0,1,.9-.21.8.8,0,0,1,.55.87,4,4,0,0,1,0,1.09.14.14,0,0,0,0,.11c.11.24.22.47.32.71l.43,1.51c0,.18.07.36.1.53.13.74.27,1.47.4,2.2l.12.92v.08c0,.05,0,.09,0,.13,0,.45.1.89.1,1.33,0,.1,0,.13.13.16a1.86,1.86,0,0,1,1,.71,3,3,0,0,1,.52,1.32c0,.13,0,.27,0,.4a.33.33,0,0,1-.21.39L23.35,38Z"/><path class="cls-4" d="M21.59,39l1.76-1,5.73-3.3a.33.33,0,0,0,.21-.39c0-.13,0-.27,0-.4h.64v.64a5.09,5.09,0,0,0-.14.56,5.36,5.36,0,0,1-1.92,2.58A10,10,0,0,1,25.51,39c-.09,0-.15.08-.15.19,0,.68,0,1.35,0,2a5.08,5.08,0,0,1-.85.31,17.09,17.09,0,0,1-8.89.33,10,10,0,0,1-5.85-3.26h0l0,0s0-.12-.12-.13a.84.84,0,0,0-.14-.24A4.61,4.61,0,0,1,9,36.88,3.43,3.43,0,0,1,9,36.33c0-.68,0-1.36,0-2a2,2,0,0,1,.11.48,4.16,4.16,0,0,0,.9,1.79,6.81,6.81,0,0,0,1.77,1.53,11.31,11.31,0,0,0,2.44,1.14c.65.21,1.32.37,2,.52s1.09.17,1.63.24a19.48,19.48,0,0,0,2.53.06,15.11,15.11,0,0,0,1.78-.18,15.37,15.37,0,0,0,2.12-.45,4.06,4.06,0,0,0,1-.36H22.31A2.9,2.9,0,0,1,21.59,39Z"/><path class="cls-5" d="M1.16,6a1.21,1.21,0,0,1-.87-1.1A2.18,2.18,0,0,1,.4,4a.15.15,0,0,0-.1-.21C0,3.6,0,3,0,2.78A2.67,2.67,0,0,1,.78,1.56,2.12,2.12,0,0,1,2.25.84a.79.79,0,0,1,.48.22c.1.09.16.16.32.08A1.79,1.79,0,0,1,4.21,1,1,1,0,0,1,5,1.68,2.34,2.34,0,0,1,4.85,3.2a4.32,4.32,0,0,1-.19.45l-.54.79c-.06.09-.18.13-.19.26s-.21.16-.3.24a3.65,3.65,0,0,1-2,1C1.47,6,1.31,5.9,1.16,6ZM3.85,2.84a.69.69,0,0,0-.13-.37l-.65-.93c0-.06-.06-.15-.19-.17.12.25,0,.48,0,.72a1.24,1.24,0,0,0-.24.42c-.14.24-.34.45-.49.69-.07,0-.1.06-.15.1a2.37,2.37,0,0,1-1.1.57l-.35,0c.39.22.73.41,1.06.61a1.23,1.23,0,0,0,1.59-.43A.17.17,0,0,0,3.35,4,1.78,1.78,0,0,0,3.85,2.84Z"/><path d="M9.87,17.68c-.67-1.08-1.35-2.16-2-3.25L6.4,12.13s0-.16-.14-.11A1.16,1.16,0,0,0,6,11.53a9.17,9.17,0,0,0-.55-.83c0-.06,0-.13-.1-.18-.42-.68-.85-1.36-1.27-2L3.35,7.25a3.74,3.74,0,0,0,.58,0c.29.48.59.95.89,1.43a1.66,1.66,0,0,0,.29.42,5.2,5.2,0,0,0,.42.72,1.88,1.88,0,0,0,.36.51,1.63,1.63,0,0,0,.11.23l1.42,2.27,2.72,4.32c.38.62.77,1.24,1.16,1.86.54.87,1.09,1.74,1.64,2.6.35.57.7,1.14,1.06,1.71.26.41.5.84.79,1.24.35.63.75,1.23,1.15,1.84a.76.76,0,0,1,.06.16.2.2,0,0,1-.11.26.22.22,0,0,1-.29,0l-.15-.2-.8-1.3c-.07-.1-.11-.22-.21-.28a1.2,1.2,0,0,0-.2-.37c-.52-.81-1-1.63-1.55-2.45L12,21Z"/><path d="M26.47,14.13l.43.22a.25.25,0,1,1-.22.44l-.27-.13-.07,0-9-4.67c-.07,0-.13-.1-.22-.07s-.13-.11-.2-.15q-3.11-1.61-6.22-3.2a3.17,3.17,0,0,0-.79-.37c0-.07-.06-.08-.11-.1a12,12,0,0,0-1.13-.57L6.54,4.41a1.83,1.83,0,0,0,0-.57l2.73,1.4.67.33.28.16a12.24,12.24,0,0,0,1.36.67c.06.11.18.12.28.17l5.73,3,.16.07.17.1,4.79,2.48Z"/><path class="cls-2" d="M29.33,38.21a.82.82,0,0,0-.14.28c-.09,0-.1.1-.15.15a8.18,8.18,0,0,1-3.66,2.55c0-.68,0-1.35,0-2,0-.11.06-.15.15-.19a10,10,0,0,0,2.32-1.3,5.36,5.36,0,0,0,1.92-2.58,5.09,5.09,0,0,1,.14-.56v1.72a3.61,3.61,0,0,1-.5,1.84Z"/><path class="cls-6" d="M27.33,29.24c-.13-.73-.27-1.46-.4-2.2,0-.17-.07-.35-.1-.53a.14.14,0,0,1,.11.07c.41.37.82.74,1.22,1.12s1.09,1,1.62,1.5a5.39,5.39,0,0,1,.59.58l-.24.2a2.75,2.75,0,0,1-1.28.34h0c-.45-.08-.7-.44-1-.69C27.63,29.51,27.48,29.37,27.33,29.24Z"/><path d="M3.93,7.25a3.74,3.74,0,0,1-.58,0C2.64,6.79,1.89,6.4,1.16,6c.15-.07.31,0,.46,0a3.65,3.65,0,0,0,2-1c.09-.08.15-.22.3-.24A.16.16,0,0,0,4,4.82c.26.22.53.44.78.68a8.6,8.6,0,0,1,.84.76l-.17.21a4.79,4.79,0,0,1-1.12.7Z"/><path class="cls-7" d="M30.13,30l.24-.2a.64.64,0,0,0,.22-.14,4.25,4.25,0,0,0,1-1.25,3,3,0,0,0,.73.64,2.88,2.88,0,0,0,.59.45,2,2,0,0,1-.58,1.26,1.83,1.83,0,0,1-.66.54l-.74-.6Z"/><path class="cls-5" d="M29.89,33.89h-.64a3,3,0,0,0-.52-1.32,1.86,1.86,0,0,0-1-.71c-.09,0-.13-.06-.13-.16,0-.44-.06-.88-.1-1.33.06,0,.06-.08.06-.13a4.57,4.57,0,0,1,1.07.89,4.93,4.93,0,0,1,1.12,1.79A4,4,0,0,1,29.89,33.89Z"/><path d="M6.5,3.84a1.83,1.83,0,0,1,0,.57,2.85,2.85,0,0,1,0,.4l-.11.28c-.35-.25-.66-.57-1-.84a5.25,5.25,0,0,0-.74-.6,4.32,4.32,0,0,0,.19-.45A2.34,2.34,0,0,0,5,1.68c.25.31.46.66.69,1Z"/><path d="M30.13,30l.82.7.74.6a1.58,1.58,0,0,1-.72.27.7.7,0,0,1-.47-.08l-1.65-1.15A2.75,2.75,0,0,0,30.13,30Z"/><path d="M32.93,29.48a2.88,2.88,0,0,1-.59-.45,3,3,0,0,1-.73-.64,1.57,1.57,0,0,0,.15-.43c.06-.06,0-.16.1-.22l1,1.23A.63.63,0,0,1,32.93,29.48Z"/><path class="cls-6" d="M4,28.64c.08,0,.15,0,.17.08A.27.27,0,0,1,4,28.64Z"/><path class="cls-6" d="M4.13,28.72a.14.14,0,0,1,.17.08A.15.15,0,0,1,4.13,28.72Z"/><path class="cls-5" d="M27.45,30.24v-.08c.05,0,.08,0,.08.08Z"/><path class="cls-6" d="M28.41,3.53s0,0,0,0Z"/><path class="cls-8" d="M28.82,30.32h0Z"/><path class="cls-4" d="M17.07,9.88c.09,0,.15,0,.22.07l9.05,4.67.07,0-.36,1.25c-.11.37-.27.72-.4,1.08a12,12,0,0,1-.79,1.61,7.83,7.83,0,0,1-.79,1.26c-.07.09-.16.17-.14.29h0c-.06,0-.09,0-.09.08h0a.08.08,0,0,0-.05.08h0c-.06,0-.08,0-.08.09a10.26,10.26,0,0,1-.73.9,17.74,17.74,0,0,1-1.9,2c-.38.33-.72.7-1.13,1-.07-.07-.08,0-.08,0h0c-.06,0-.08,0-.08.08h0c-.23,0-.37.2-.53.32a6.2,6.2,0,0,1-.83.54A12.1,12.1,0,0,1,17,26c-.26.1-.51.25-.78.33a.73.73,0,0,1-.25,0c-.4-.61-.8-1.21-1.15-1.84,0,0,.07,0,.09,0l1.86-2.27c.64-.77,1.27-1.55,1.9-2.33a2.21,2.21,0,0,0,.47-.66,5.6,5.6,0,0,0,.78-.91,3.16,3.16,0,0,0,.61-1.23,1.71,1.71,0,0,0,.09-.45,1.3,1.3,0,0,0-.6-1.34c-.27-.17-.52-.37-.77-.56l-3.43-2.53a1.23,1.23,0,0,0-.87-.35,5.55,5.55,0,0,0-.73.17c0-.08,0-.12.09-.17l.59-.49A14.36,14.36,0,0,1,17.07,9.88Z"/><path class="cls-4" d="M26.47,14.13l-3.8-2L17.88,9.7l-.17-.1a1.37,1.37,0,0,1,.64-.39,11.18,11.18,0,0,1,1.84-.65,6.07,6.07,0,0,1,1-.19c.39,0,.77,0,1.16,0A4.33,4.33,0,0,1,24,8.67a3.79,3.79,0,0,1,1.84,1.61,4.61,4.61,0,0,1,.61,1.91A9,9,0,0,1,26.47,14.13Z"/><path d="M11.54,6.4a12.24,12.24,0,0,1-1.36-.67l2,.26,6.29.87.14,0a.22.22,0,0,1,.21.28.23.23,0,0,1-.29.2L17.35,7.2Z"/><path class="cls-4" d="M14.44,25c.1.06.14.18.21.28l.8,1.3c-.06.09-.16,0-.24.06A6.39,6.39,0,0,1,14,26.9a5.31,5.31,0,0,1-1.49,0,6.1,6.1,0,0,1-.72-.14,4.07,4.07,0,0,1-1.25-.58,3.13,3.13,0,0,1-.85-.77,4.85,4.85,0,0,1-.59-1.07,6.16,6.16,0,0,1-.33-2.79,9.63,9.63,0,0,1,.49-2.3,13.33,13.33,0,0,1,.63-1.58L12,21l.71,1.16a.11.11,0,0,0-.06.07c-.26.52-.53,1-.77,1.55A5.06,5.06,0,0,0,11.4,25c-.13.9.36,1.44,1.27,1.24a2.82,2.82,0,0,0,1.41-.8C14.21,25.31,14.39,25.21,14.44,25Z"/><path d="M5.48,10.7a9.17,9.17,0,0,1,.55.83,1.16,1.16,0,0,1,.23.49c.35,1.5.69,3,1,4.5l.54,2.39c0,.22,0,.35-.17.38s-.25-.06-.3-.27c-.55-2.38-1.09-4.77-1.63-7.15C5.65,11.48,5.56,11.09,5.48,10.7Z"/><path class="cls-4" d="M22.47,32.89H11.58a1.74,1.74,0,0,1-.51,0,.13.13,0,0,1-.09,0l.08-.06,2.87-1.66c.48-.27,1-.53,1.42-.84A32.35,32.35,0,0,0,19,29.35c1-.32,2-.67,3-1.07l.25-.12a3.43,3.43,0,0,0,.84.2c0,.18-.05.36-.08.53C22.75,30.22,22.6,31.56,22.47,32.89Z"/><path class="cls-9" d="M31.76,28a1.57,1.57,0,0,1-.15.43,4.25,4.25,0,0,1-1,1.25.64.64,0,0,1-.22.14,5.39,5.39,0,0,0-.59-.58c-.53-.51-1.08-1-1.62-1.5s-.81-.75-1.22-1.12a.14.14,0,0,0-.11-.07L26.4,25a4.77,4.77,0,0,0,.76-.92c.15-.2.15-.19.33,0l1.72,1.61.92.84,1.51,1.4A.12.12,0,0,0,31.76,28Z"/><path class="cls-2" d="M22.47,32.89c.13-1.33.28-2.67.49-4,0-.17.05-.35.08-.53l.12-.64c.11-.69.26-1.38.42-2.06,0-.05,0-.09,0-.14l.24-.77a3.1,3.1,0,0,1,.81-1.51c.49-.4.69-.34,1.1,0a1.2,1.2,0,0,0-1,.58,1.71,1.71,0,0,0-.37,1.09.48.48,0,0,0,.07.29.47.47,0,0,1,0,.47,28.26,28.26,0,0,0-.69,3.29c-.15.93-.29,1.87-.39,2.81s-.18,1.74-.24,2.62l-.76-.45Z"/><path d="M15.35,30.28c-.46.31-.94.57-1.42.84l-2.87,1.66-.08.06s-.09.07-.14,0a7.09,7.09,0,0,1,.34-2c0-.09.05-.14.17-.15a26.35,26.35,0,0,0,4-.43Z"/><path class="cls-5" d="M23.16,27.72l-.12.64a3.43,3.43,0,0,1-.84-.2l.74-.38A.32.32,0,0,1,23.16,27.72Z"/><path class="cls-5" d="M19.88,24.32c0-.05,0-.11.08,0A.09.09,0,0,1,19.88,24.32Z"/><path class="cls-5" d="M23.72,20.4s0-.09.08-.09Z"/><path class="cls-5" d="M19.8,24.4c0-.06,0-.08.08-.08A.11.11,0,0,1,19.8,24.4Z"/><path class="cls-5" d="M23.84,20.23c0-.05,0-.08.09-.08A.12.12,0,0,1,23.84,20.23Z"/><path class="cls-5" d="M23.8,20.31a.08.08,0,0,1,.05-.08A.09.09,0,0,1,23.8,20.31Z"/><path class="cls-4" d="M22.43,33.89l.76.45a10.69,10.69,0,0,0-1,1.74A7.15,7.15,0,0,0,21.52,39a5.29,5.29,0,0,1-.74-.4c-.08,0-.06-.14-.06-.22A7.52,7.52,0,0,1,21.26,36a10.33,10.33,0,0,1,1.1-2Z"/><path class="cls-3" d="M27.45,30.24h.08c0,.05,0,.11-.06.13S27.45,30.29,27.45,30.24Z"/><path class="cls-8" d="M9.79,38.57a0,0,0,0,1,0,0h0Z"/><path class="cls-9" d="M4.66,3.65a5.25,5.25,0,0,1,.74.6c.33.27.64.59,1,.84l-.14.36-.12.18a2.57,2.57,0,0,1-.51.63,8.6,8.6,0,0,0-.84-.76C4.53,5.26,4.26,5,4,4.82a.16.16,0,0,1-.07-.12c0-.13.13-.17.19-.26Z"/><path d="M3.22,4.09a1.23,1.23,0,0,1-1.59.43C1.3,4.32,1,4.13.57,3.91l.35,0A2.37,2.37,0,0,0,2,3.3s.08-.09.15-.1C2.53,3.49,2.85,3.82,3.22,4.09Z"/><path class="cls-9" d="M3.22,4.09c-.37-.27-.69-.6-1.05-.89.15-.24.35-.45.49-.69a1.24,1.24,0,0,1,.24-.42,3.65,3.65,0,0,1,.49.39,2.28,2.28,0,0,0,.46.36A1.78,1.78,0,0,1,3.35,4,.17.17,0,0,1,3.22,4.09Z"/><path d="M3.85,2.84a2.28,2.28,0,0,1-.46-.36,3.65,3.65,0,0,0-.49-.39c0-.24.1-.47,0-.72.13,0,.15.11.19.17l.65.93A.69.69,0,0,1,3.85,2.84Z"/><path class="cls-1" d="M17.07,9.88a14.36,14.36,0,0,0-2.2,1.52l-.59.49c-.06,0-.1.09-.09.17a4.11,4.11,0,0,0-1.9,2,.07.07,0,0,0-.06.09h0a.16.16,0,0,0-.15.08c-.14.19-.3.37-.44.57a24.57,24.57,0,0,0-1.5,2.39L7.42,12.83,6,10.56a1.63,1.63,0,0,1-.11-.23L5.8,9.9l.07,0a13.25,13.25,0,0,1,.88-1.1c.42-.53.89-1,1.34-1.48s.68-.68,1-1a.21.21,0,0,0,.07-.19l.68.08a3.17,3.17,0,0,1,.79.37q3.12,1.59,6.22,3.2C16.94,9.77,17,9.78,17.07,9.88Z"/><path class="cls-2" d="M19.11,19.26a2.21,2.21,0,0,1-.47.66c-.63.78-1.26,1.56-1.9,2.33l-1.86,2.27s-.06,0-.09,0c-.29-.4-.53-.83-.79-1.24-.36-.57-.71-1.14-1.06-1.71a1.71,1.71,0,0,0,.17-.33c.43-.89.85-1.78,1.29-2.65.07-.14.09-.33.26-.41.41.4.76.85,1.15,1.28a1.65,1.65,0,0,0,.87.66A2.21,2.21,0,0,0,18,20,6.09,6.09,0,0,0,19.11,19.26Z"/><path class="cls-4" d="M14.66,18.22c-.17.08-.19.27-.26.41-.44.87-.86,1.76-1.29,2.65a1.71,1.71,0,0,1-.17.33c-.55-.86-1.1-1.73-1.64-2.6-.39-.62-.78-1.24-1.16-1.86a24.57,24.57,0,0,1,1.5-2.39c.14-.2.3-.38.44-.57a.16.16,0,0,1,.15-.08c0,.11,0,.23-.07.35a1.19,1.19,0,0,0,.36,1.28s0,0,.07,0h0c.32.43.7.81,1.05,1.22S14.35,17.79,14.66,18.22Z"/><path class="cls-2" d="M14.44,25c0,.2-.23.3-.36.43a2.82,2.82,0,0,1-1.41.8c-.91.2-1.4-.34-1.27-1.24a5.06,5.06,0,0,1,.46-1.19c.24-.52.51-1,.77-1.55a.11.11,0,0,1,.06-.07c.52.82,1,1.64,1.55,2.45A1.2,1.2,0,0,1,14.44,25Z"/><path d="M5.8,9.9l.09.43a1.88,1.88,0,0,1-.36-.51,5.2,5.2,0,0,1-.42-.72c-.1-.41-.21-.81-.27-1.23a.78.78,0,0,0-.51-.7,4.79,4.79,0,0,0,1.12-.7l.06.07c.26.25.55.45.79.71a1.47,1.47,0,0,1-.89.41c-.09,0-.13,0-.1.13C5.48,8.5,5.64,9.2,5.8,9.9Z"/><path d="M9.86,6.16l-.68-.08-1.7-.25c-.35,0-.35,0-.42.26L6.88,6a6.21,6.21,0,0,0-.63-.52l.14-.36.11-.28a2.35,2.35,0,0,1,.23.32c0,.06.08.12.17.13.57.07,1.14.18,1.72.23a12,12,0,0,1,1.13.57C9.8,6.08,9.86,6.09,9.86,6.16Z"/><path class="cls-7" d="M6.25,5.45A6.21,6.21,0,0,1,6.88,6l.18.12A2,2,0,0,1,6.3,7.25c-.24-.26-.53-.46-.79-.71l-.06-.07.17-.21a2.57,2.57,0,0,0,.51-.63Z"/><path d="M14.66,18.22c-.31-.43-.69-.8-1-1.21s-.73-.79-1.05-1.22c.06,0,.11,0,.17,0a1.27,1.27,0,0,0,.55,0,2.78,2.78,0,0,0,1.25-.59c.18-.14.34-.29.52-.44,0,.09.09.12.16.17l2.49,1.81,2.17,1.57a5.6,5.6,0,0,1-.78.91A6.09,6.09,0,0,1,18,20a2.21,2.21,0,0,1-1.36.21,1.65,1.65,0,0,1-.87-.66C15.42,19.07,15.07,18.62,14.66,18.22Z"/><path class="cls-3" d="M15.07,14.8c-.18.15-.34.3-.52.44a2.78,2.78,0,0,1-1.25.59,1.27,1.27,0,0,1-.55,0c-.06,0-.11-.06-.17,0h0c0-.06,0,0-.07,0a1.19,1.19,0,0,1-.36-1.28c0-.12.05-.24.07-.35h0s.07,0,.06-.09a4.11,4.11,0,0,1,1.9-2,5.55,5.55,0,0,1,.73-.17,1.23,1.23,0,0,1,.87.35s0,.08,0,.12a1.28,1.28,0,0,1,.11.61,3.9,3.9,0,0,1-.16.77c-.07.13-.14.26-.22.38Z"/><path class="cls-7" d="M15.07,14.8l.46-.68c.08-.12.15-.25.22-.38a.34.34,0,0,1,.19.09l2.25,1.63,1.15.85,1.16.81a3.16,3.16,0,0,1-.61,1.23l-2.17-1.57L15.23,15C15.16,14.92,15.09,14.89,15.07,14.8Z"/><path d="M20.5,17.12l-1.16-.81-1.15-.85-2.25-1.63a.34.34,0,0,0-.19-.09,3.9,3.9,0,0,0,.16-.77,1.28,1.28,0,0,0-.11-.61s-.06-.08,0-.12l3.43,2.53c.25.19.5.39.77.56a1.3,1.3,0,0,1,.6,1.34A1.71,1.71,0,0,1,20.5,17.12Z"/><path class="cls-9" d="M12.29,14c0,.05,0,.07-.06.09A.07.07,0,0,1,12.29,14Z"/><path class="cls-8" d="M12.52,15.74s.08,0,.07,0S12.54,15.76,12.52,15.74Z"/></g></g></svg>