<svg xmlns="http://www.w3.org/2000/svg" viewBox="0 0 17.13 17.15"><defs><style>.cls-1{fill:#0e74ba;}</style></defs><g id="Capa_2" data-name="Capa 2"><g id="Capa_1-2" data-name="Capa 1"><path class="cls-1" d="M13.84,13.73l-1.49-1.68c-1.94,1.7-4,2.13-6.28.93A4.94,4.94,0,0,1,3.46,8.73l1.88-.08L2.58,4.05.15,7.39C.08,3.54,4.4-.08,8.81,0c4.6.09,8.57,4.12,8.3,8.49H16c-.37-3.56-2.12-6.09-5.7-7a7.19,7.19,0,0,0-7.11,2L4.85,5c2-1.69,4.21-2.11,6.53-.63A4.65,4.65,0,0,1,13.6,8.51l-1.81.08,2.77,4.6L17,9.78c-.11,4.08-4.38,7.56-8.93,7.37S-.23,13,0,8.75H1.1c.41,3.62,2.24,6.13,5.87,7A7.08,7.08,0,0,0,13.84,13.73Zm-3-7.53L9.22,5.72l-.13-.84h-1L8,5.81c-.86.29-1.79.55-1.77,1.65s1,1.3,1.8,1.59c.29.1.56.24.85.36l-.09.34L6.39,9.38,6,10.6l2,.62.09.79c.59.08,1.17.28,1.14-.68,0-.13.32-.32.53-.4.71-.31,1.32-.71,1.32-1.56S10.37,8.16,9.66,7.9c-.46-.17-.92-.32-1.38-.47l.07-.35,2.08.23Z"/></g></g></svg>