<svg xmlns="http://www.w3.org/2000/svg" viewBox="0 0 18.87 17.18"><defs><style>.cls-1{fill:#0e74ba;}</style></defs><g id="Capa_2" data-name="Capa 2"><g id="Capa_1-2" data-name="Capa 1"><path class="cls-1" d="M14.15,7.06A2.35,2.35,0,0,1,11.44,9a2.3,2.3,0,0,1-2-1.93A2.35,2.35,0,0,1,6.68,9,2.25,2.25,0,0,1,4.76,7.12c-.08,0-.08.08-.1.14A2.27,2.27,0,0,1,3.45,8.78,2.2,2.2,0,0,1,1.87,9,2.31,2.31,0,0,1,.06,7.17,2.66,2.66,0,0,1,.21,5.62C.46,4.88.69,4.14.93,3.4s.48-1.47.71-2.21A2,2,0,0,1,1.91.55,1.57,1.57,0,0,1,3,0H15.72a1.39,1.39,0,0,1,1.33.72,4.79,4.79,0,0,1,.31.9c.22.67.43,1.33.64,2s.52,1.56.76,2.35a2.35,2.35,0,0,1-.44,2.21A2.41,2.41,0,0,1,15.84,9,2.4,2.4,0,0,1,14.53,8,3.19,3.19,0,0,1,14.15,7.06Z"/><path class="cls-1" d="M14.85,15.41c.1,0,.22,0,.32,0a.44.44,0,0,0,.24-.45v-5c0-.23,0-.24.22-.16A3.1,3.1,0,0,0,17,9.83c.17,0,.2,0,.2.16,0,1.3,0,2.59,0,3.89,0,.41,0,.83,0,1.24A2.15,2.15,0,0,1,15.73,17a2.56,2.56,0,0,1-.87.14H3.94A2.22,2.22,0,0,1,1.71,15V10c0-.24,0-.21.24-.2a2.87,2.87,0,0,0,1.3-.11c.11,0,.2-.06.2.12,0,1.67,0,3.34,0,5,0,.41.12.54.53.56l2.09,0h8.65A.19.19,0,0,0,14.85,15.41Z"/></g></g></svg>