<svg xmlns="http://www.w3.org/2000/svg" viewBox="0 0 64.33 64.33"><defs><style>.cls-1{fill:#fff;}.cls-2{fill:#0e74ba;}</style></defs><g id="Capa_2" data-name="Capa 2"><g id="Capa_1-2" data-name="Capa 1"><circle class="cls-1" cx="32.16" cy="32.07" r="27.58"/><path class="cls-2" d="M32.16,0A32.17,32.17,0,1,0,64.33,32.16,32.16,32.16,0,0,0,32.16,0ZM22,12a5.26,5.26,0,0,1,2.91.4A4.86,4.86,0,1,1,22,12Zm9.36,23.08A2.53,2.53,0,0,1,31,36.37c-.73,1.19-1.53,2.33-2.28,3.52a1.79,1.79,0,0,0-.25.87c0,3.3,0,6.61,0,9.91,0,1.22-.38,1.59-1.61,1.59H18.6c-1,0-1.43-.42-1.43-1.43,0-3.3,0-6.6,0-9.91a2.11,2.11,0,0,0-.38-1.24c-.76-1.13-1.52-2.26-2.23-3.41a2,2,0,0,1-.31-1q0-3.78,0-7.56a4.83,4.83,0,0,1,3.61-4.86l.85-.25a1.16,1.16,0,0,1,1.63.81c.38,1,.73,2,1.09,3,.06.15.13.29.25.57.06-.29.08-.42.12-.54a2.69,2.69,0,0,0-.35-2.81c-.4-.5-.09-1,.56-1s1.11,0,1.67,0,.86.51.52.92c-.9,1.08-.67,2.19-.23,3.41.4-1.11.8-2.17,1.17-3.23s.82-1.38,2-1.05a5,5,0,0,1,3.81,3,6.36,6.36,0,0,1,.37,2.07C31.4,30.2,31.39,32.66,31.35,35.12Zm8.14,12.59c.88,0,1.76,0,2.63,0a1.81,1.81,0,0,0,2-.91A3.16,3.16,0,0,1,48,45.75a3.42,3.42,0,0,1,2,3.41,3.34,3.34,0,0,1-2.66,3,3.3,3.3,0,0,1-3.7-1.75A.63.63,0,0,0,43,50c-1.68,0-3.36,0-5,0-.95,0-1.38-.41-1.38-1.36,0-3.84,0-7.68,0-11.53v-5H35.53a1.14,1.14,0,1,1,0-2.28h1.08V26.58c0-3.64,0-7.27,0-10.91,0-1.11.36-1.47,1.47-1.47H43a.62.62,0,0,0,.68-.4A3.09,3.09,0,0,1,46.57,12a3,3,0,0,1,3,1.74,3.44,3.44,0,0,1-1.19,4.53A3.37,3.37,0,0,1,43.74,17a.75.75,0,0,0-.8-.49c-1.32,0-2.64,0-4,0V29.82c.15,0,.32,0,.48,0,1.19,0,2.38,0,3.58,0a.65.65,0,0,0,.69-.4,3.37,3.37,0,1,1,5.49,3.8,3.35,3.35,0,0,1-5.47-.69.7.7,0,0,0-.72-.45c-1.34,0-2.68,0-4.06,0V47.68Z"/><path class="cls-2" d="M22.82,19.35a2.54,2.54,0,1,0-2.55-2.49A2.53,2.53,0,0,0,22.82,19.35Z"/><path class="cls-2" d="M46.71,32.07a1.06,1.06,0,0,0,1-1.09,1.08,1.08,0,0,0-1.07-1.07,1.08,1.08,0,1,0,0,2.16Z"/><path class="cls-2" d="M27.1,25.08c-.25.68-.51,1.38-.76,2.08-.78,2.13-1.54,4.27-2.35,6.39a2,2,0,0,1-.75,1c-.62.36-1.29,0-1.59-.85-.65-1.74-1.28-3.49-1.92-5.24L18.5,25.05a2.49,2.49,0,0,0-1.94,2.65c0,2.27,0,4.55,0,6.82a2.41,2.41,0,0,0,.35,1.13c.7,1.14,1.48,2.24,2.18,3.38a2.88,2.88,0,0,1,.38,1.3c0,2.89,0,5.78,0,8.67v.93h6.62v-1c0-2.88,0-5.75,0-8.62a2.75,2.75,0,0,1,.4-1.3c.72-1.19,1.52-2.34,2.27-3.51a1.23,1.23,0,0,0,.24-.61c0-2.53,0-5.07,0-7.61A2.3,2.3,0,0,0,27.1,25.08Z"/><path class="cls-2" d="M46.64,49.94a1.05,1.05,0,0,0,1.11-1,1.07,1.07,0,0,0-1-1.13,1.13,1.13,0,0,0-1.15,1.06A1.08,1.08,0,0,0,46.64,49.94Z"/><path class="cls-2" d="M46.66,16.43a1.07,1.07,0,0,0,1.08-1.11,1,1,0,0,0-1.07-1,1.1,1.1,0,0,0-1.07,1.07A1.11,1.11,0,0,0,46.66,16.43Z"/></g></g></svg>