<svg xmlns="http://www.w3.org/2000/svg" viewBox="0 0 17.07 17.01"><defs><style>.cls-1{fill:#0e74ba;}</style></defs><g id="Capa_2" data-name="Capa 2"><g id="Capa_1-2" data-name="Capa 1"><path class="cls-1" d="M17.07,10.69v.51c0,.21-.05.42-.09.62a5,5,0,0,1-1.25,2.39,7.45,7.45,0,0,1-2.26,1.68,10.51,10.51,0,0,1-4,1.08L9,17H8.08L8,17a12,12,0,0,1-2.73-.44,9.39,9.39,0,0,1-3-1.46A5.83,5.83,0,0,1,.38,12.91,3.91,3.91,0,0,1,0,10.86,1.21,1.21,0,0,1,.52,10a1.8,1.8,0,0,1,.62-.27,7.79,7.79,0,0,1,2-.14,11.41,11.41,0,0,0,1.16-.06,1.11,1.11,0,0,0,.45-.16c.2-.12.2-.3,0-.4A7,7,0,0,0,4,8.61a4.6,4.6,0,0,1-1-.5A.83.83,0,0,1,2.7,6.93,3.4,3.4,0,0,1,3.77,5.8a5,5,0,0,1,2-.72L6.06,5,5,3.5a1.26,1.26,0,0,1-.82-.32,5.17,5.17,0,0,1-.5-.55,1.86,1.86,0,0,1-.37-1.18c0-.41,0-.82,0-1.23A.24.24,0,0,1,3.56,0L4.72.42A2.18,2.18,0,0,1,5.3.69a2.67,2.67,0,0,1,.78,1.07,1.22,1.22,0,0,1,0,.94.08.08,0,0,0,0,.08c.48.67,1,1.35,1.46,2a.21.21,0,0,0,.21.09A14,14,0,0,1,10.3,5l.2,0L4.77,14.13l1.15.73,6-9.49L10.51,5l0,0,1.3-2.06a.14.14,0,0,0,0-.15,1.15,1.15,0,0,1-.07-.58,2.26,2.26,0,0,1,.29-.76,1.89,1.89,0,0,1,1-.9c.39-.15.78-.32,1.16-.5a.26.26,0,0,1,.29,0,.22.22,0,0,1,.09.17c0,.42,0,.85,0,1.27a1.93,1.93,0,0,1-.16.92,3.11,3.11,0,0,1-.53.77,1.13,1.13,0,0,1-.82.39.16.16,0,0,0-.12.07l-.72,1.15-.36.57h0A10.32,10.32,0,0,1,13.4,6a7.6,7.6,0,0,1,2.37,1.76A4.94,4.94,0,0,1,17,10.09C17,10.29,17,10.49,17.07,10.69Zm-11.75-3a1.2,1.2,0,0,0,.24,0,1.3,1.3,0,0,0,.74-.32.49.49,0,0,0,.09-.71,1,1,0,0,0-.24-.22A1.8,1.8,0,0,0,5,6.26a1.43,1.43,0,0,0-.62.24.54.54,0,0,0,0,1A1.59,1.59,0,0,0,5.32,7.73Zm.39-4.1v0l.92,1.27a.07.07,0,0,0,0,0l.37,0L6,3.44Zm7.47,5.74a1.1,1.1,0,0,0,.24,0A1.3,1.3,0,0,0,14.17,9a.5.5,0,0,0,.09-.7A.75.75,0,0,0,14,8.11a1.71,1.71,0,0,0-1.17-.21,1.56,1.56,0,0,0-.63.24.54.54,0,0,0,0,.95A1.57,1.57,0,0,0,13.18,9.37Zm.9,2.69.23,0a1.37,1.37,0,0,0,.75-.32.49.49,0,0,0,.09-.71,1,1,0,0,0-.24-.22,1.74,1.74,0,0,0-1.18-.2,1.42,1.42,0,0,0-.62.23.55.55,0,0,0,0,1A1.59,1.59,0,0,0,14.08,12.06ZM8.71,15.64l.23,0a1.37,1.37,0,0,0,.75-.32.49.49,0,0,0,.09-.71,1.26,1.26,0,0,0-.24-.22,1.74,1.74,0,0,0-1.18-.2,1.33,1.33,0,0,0-.62.23.55.55,0,0,0,0,1A1.59,1.59,0,0,0,8.71,15.64Zm3.58-.89.23,0a1.36,1.36,0,0,0,.75-.31.49.49,0,0,0,.09-.71.83.83,0,0,0-.24-.22,1.75,1.75,0,0,0-1.18-.21,1.57,1.57,0,0,0-.62.24.54.54,0,0,0,0,1A1.6,1.6,0,0,0,12.29,14.75Z"/></g></g></svg>