<svg xmlns="http://www.w3.org/2000/svg" viewBox="0 0 19.83 19.84"><defs><style>.cls-1{fill:#0e74ba;}</style></defs><g id="Capa_2" data-name="Capa 2"><g id="Capa_1-2" data-name="Capa 1"><path class="cls-1" d="M9.91,0a9.92,9.92,0,1,0,9.92,10A9.91,9.91,0,0,0,9.91,0Zm3.21,6.42a2.49,2.49,0,0,1,.14,4.89.13.13,0,0,1-.12,0,6.56,6.56,0,0,0-1.79-1.53s0,0,0,0a3.71,3.71,0,0,0,.59-3.18A2.33,2.33,0,0,1,13.12,6.42Zm-4.73-2A3.14,3.14,0,1,1,5.25,7.54,3.14,3.14,0,0,1,8.39,4.39Zm5.16,10.37H3.41a.5.5,0,0,1-.52-.29v-.22c.06-.26.11-.53.19-.78a5.54,5.54,0,0,1,2.7-3.33,9.29,9.29,0,0,0,.78.55,3.58,3.58,0,0,0,3.32.17,3.3,3.3,0,0,0,1-.66.14.14,0,0,1,.19,0A5.57,5.57,0,0,1,13.8,13.9c0,.14,0,.28.07.41A.39.39,0,0,1,13.55,14.76Zm3.24,0H14.32a1.74,1.74,0,0,0,0-1.13A5.35,5.35,0,0,0,13.6,12a.89.89,0,0,0-.09-.16,3.05,3.05,0,0,0,1.29-.72,4.29,4.29,0,0,1,.91.65,4.5,4.5,0,0,1,1.42,2.64C17.17,14.62,17.05,14.76,16.79,14.77Z"/></g></g></svg>