<?xml version="1.0" encoding="UTF-8" standalone="no"?>
<!-- Created with Inkscape (http://www.inkscape.org/) -->

<svg
   xmlns:dc="http://purl.org/dc/elements/1.1/"
   xmlns:cc="http://creativecommons.org/ns#"
   xmlns:rdf="http://www.w3.org/1999/02/22-rdf-syntax-ns#"
   xmlns:svg="http://www.w3.org/2000/svg"
   xmlns="http://www.w3.org/2000/svg"
   xmlns:sodipodi="http://sodipodi.sourceforge.net/DTD/sodipodi-0.dtd"
   xmlns:inkscape="http://www.inkscape.org/namespaces/inkscape"
   width="7mm"
   height="8mm"
   viewBox="0 0 7 8"
   version="1.1"
   id="svg7198"
   inkscape:version="0.92.4 (5da689c313, 2019-01-14)"
   sodipodi:docname="login-passw.svg">
  <defs
     id="defs7192" />
  <sodipodi:namedview
     id="base"
     pagecolor="#ffffff"
     bordercolor="#666666"
     borderopacity="1.0"
     inkscape:pageopacity="0.0"
     inkscape:pageshadow="2"
     inkscape:zoom="3.959798"
     inkscape:cx="142.30067"
     inkscape:cy="78.399907"
     inkscape:document-units="mm"
     inkscape:current-layer="layer1"
     showgrid="false"
     inkscape:window-width="1920"
     inkscape:window-height="1001"
     inkscape:window-x="-9"
     inkscape:window-y="-9"
     inkscape:window-maximized="1" />
  <metadata
     id="metadata7195">
    <rdf:RDF>
      <cc:Work
         rdf:about="">
        <dc:format>image/svg+xml</dc:format>
        <dc:type
           rdf:resource="http://purl.org/dc/dcmitype/StillImage" />
        <dc:title></dc:title>
      </cc:Work>
    </rdf:RDF>
  </metadata>
  <g
     inkscape:label="Capa 1"
     inkscape:groupmode="layer"
     id="layer1"
     transform="translate(0,-289)">
    <g
       transform="translate(-42.180565,21.619804)"
       id="g5412">
      <path
         style="isolation:isolate;fill:#868686;stroke-width:0.26458332"
         inkscape:connector-curvature="0"
         class="cls-90"
         d="m 48.204694,271.55011 a 0.57414583,0.57414583 0 0 0 -0.52917,-0.40481 c -0.22225,0 -0.4445,0 -0.66675,0 h -2.14842 c -0.0159,0 -0.0264,0 -0.0264,-0.0212 0,-0.33073 0,-0.6641 0,-0.99483 a 1.0583333,1.0583333 0 0 1 0.0661,-0.34131 1.1006667,1.1006667 0 0 1 0.381,-0.50006 1.0821458,1.0821458 0 0 1 0.61119,-0.20903 h 0.28575 a 1.0900833,1.0900833 0 0 1 1.05833,0.76465 c 0,0.0185 0,0.0238 -0.0132,0.0318 a 0.5794375,0.5794375 0 0 0 0.38894,1.08215 0.56091667,0.56091667 0 0 0 0.32808,-0.23019 0.55033333,0.55033333 0 0 0 0.0714,-0.51065 0.54504167,0.54504167 0 0 0 -0.32279,-0.3466 0.12170833,0.12170833 0 0 1 -0.0794,-0.0847 1.3917083,1.3917083 0 0 0 -0.32543,-0.6006 1.4710833,1.4710833 0 0 0 -1.05834,-0.49477 3.3522708,3.3522708 0 0 0 -0.43127,0 1.4234583,1.4234583 0 0 0 -0.41804,0.09 1.476375,1.476375 0 0 0 -0.65087,0.47625 1.444625,1.444625 0 0 0 -0.3175,0.91281 c 0,0.3175 0,0.63764 0,0.95779 0,0.0238 0,0.0291 -0.0265,0.0265 h -0.84138 a 0.18520833,0.18520833 0 0 0 -0.16933,0.26458 0.1905,0.1905 0 0 0 0.18256,0.10848 h 1.22767 a 0.0396875,0.0396875 0 0 0 0.0344,-0.0185 0.3254375,0.3254375 0 0 1 0.34132,-0.127 0.33602083,0.33602083 0 0 1 0.26458,0.4154 0.32014583,0.32014583 0 0 1 -0.24871,0.24341 0.3254375,0.3254375 0 0 1 -0.34131,-0.11906 0.0555625,0.0555625 0 0 0 -0.0503,-0.0265 h -1.85209 a 0.05291667,0.05291667 0 0 1 -0.045,-0.0212 0.3254375,0.3254375 0 0 0 -0.30692,-0.13229 0.3413125,0.3413125 0 0 0 -0.29369,0.41804 0.3413125,0.3413125 0 0 0 0.60061,0.127 0.047625,0.047625 0 0 1 0.0397,-0.0212 h 2.79136 a 0.04497917,0.04497917 0 0 0 0.0318,0 0.4524375,0.4524375 0 0 1 0.13758,-0.082 0.46302083,0.46302083 0 0 1 0.45773,0.0714 0.47095833,0.47095833 0 0 1 0.16933,0.50536 0.45772917,0.45772917 0 0 1 -0.17727,0.26458 0.02910417,0.02910417 0 0 0 0,0.0344 l 0.16669,0.55033 a 0.09260417,0.09260417 0 0 1 -0.0926,0.127 h -0.6985 a 0.08995833,0.08995833 0 0 1 -0.0926,-0.12171 l 0.0635,-0.21431 c 0.0344,-0.11112 0.0662,-0.2196 0.10319,-0.32808 a 0.04233333,0.04233333 0 0 0 -0.0185,-0.0556 0.47360417,0.47360417 0 0 1 -0.17992,-0.33337 c 0,-0.0238 0,-0.0291 -0.0317,-0.0291 h -2.28071 a 0.1984375,0.1984375 0 0 0 -0.0556,0 0.1825625,0.1825625 0 0 0 -0.14023,0.20902 0.18520833,0.18520833 0 0 0 0.17992,0.1561 h 1.15358 a 0.03439583,0.03439583 0 0 0 0.0317,-0.0159 0.33866667,0.33866667 0 0 1 0.60854,0.17462 0.32279167,0.32279167 0 0 1 -0.11112,0.27781 0.33602083,0.33602083 0 0 1 -0.50006,-0.0529 0.02910417,0.02910417 0 0 0 -0.0265,0 h -0.635 a 0.17197917,0.17197917 0 0 0 -0.16404,0.10054 0.1825625,0.1825625 0 0 0 0.16668,0.26458 h 0.52917 a 0.1825625,0.1825625 0 0 1 0.16669,0.10583 0.17727083,0.17727083 0 0 1 -0.0212,0.19315 0.18785417,0.18785417 0 0 1 -0.1614,0.0714 h -0.32279 c -0.0185,0 -0.0212,0 -0.0132,0.0212 a 0.60854167,0.60854167 0 0 0 0.17727,0.19844 0.58472917,0.58472917 0 0 0 0.35455,0.10848 h 3.175 a 0.62177083,0.62177083 0 0 0 0.18256,-0.0265 0.58208333,0.58208333 0 0 0 0.4101,-0.54768 v -2.13519 a 0.57679167,0.57679167 0 0 0 -0.0529,-0.20638 z m -0.73025,-1.33879 a 0.17727083,0.17727083 0 1 1 0,0.35454 0.17991667,0.17991667 0 0 1 -0.17463,-0.17727 0.174625,0.174625 0 0 1 0.17463,-0.17727 z m -4.86305,1.96321 a 0.10583333,0.10583333 0 1 1 0,-0.20902 0.1031875,0.1031875 0 0 1 0.10319,0.10848 0.10583333,0.10583333 0 0 1 -0.10319,0.10054 z"
         id="path2499" />
      <path
         style="isolation:isolate;fill:#868686;stroke-width:0.26458332"
         inkscape:connector-curvature="0"
         class="cls-90"
         d="m 44.821705,273.14852 a 0.10583333,0.10583333 0 0 0 -0.10584,-0.10583 0.1031875,0.1031875 0 0 0 -0.10583,0.10583 0.10847917,0.10847917 0 0 0 0.10583,0.10848 0.11377083,0.11377083 0 0 0 0.10584,-0.10848 z"
         id="path2501" />
      <path
         style="isolation:isolate;fill:#868686;stroke-width:0.26458332"
         inkscape:connector-curvature="0"
         class="cls-90"
         d="m 45.221225,271.66421 a 0.10847917,0.10847917 0 0 0 -0.10583,-0.10583 0.10847917,0.10847917 0 0 0 0,0.21431 0.10847917,0.10847917 0 0 0 0.10583,-0.10848 z"
         id="path2503" />
      <path
         style="isolation:isolate;fill:#868686;stroke-width:0.26458332"
         inkscape:connector-curvature="0"
         class="cls-90"
         d="m 46.292785,272.58231 a 0.23283333,0.23283333 0 0 0 -0.46302,0 0.23283333,0.23283333 0 0 0 0.46302,0 z"
         id="path2505" />
    </g>
  </g>
</svg>
