<?xml version="1.0" encoding="UTF-8" standalone="no"?>
<!-- Created with Inkscape (http://www.inkscape.org/) -->

<svg
   xmlns:dc="http://purl.org/dc/elements/1.1/"
   xmlns:cc="http://creativecommons.org/ns#"
   xmlns:rdf="http://www.w3.org/1999/02/22-rdf-syntax-ns#"
   xmlns:svg="http://www.w3.org/2000/svg"
   xmlns="http://www.w3.org/2000/svg"
   xmlns:sodipodi="http://sodipodi.sourceforge.net/DTD/sodipodi-0.dtd"
   xmlns:inkscape="http://www.inkscape.org/namespaces/inkscape"
   width="6mm"
   height="8mm"
   viewBox="0 0 6 8"
   version="1.1"
   id="svg6582"
   inkscape:version="0.92.4 (5da689c313, 2019-01-14)"
   sodipodi:docname="login-key.svg">
  <defs
     id="defs6576" />
  <sodipodi:namedview
     id="base"
     pagecolor="#ffffff"
     bordercolor="#666666"
     borderopacity="1.0"
     inkscape:pageopacity="0.0"
     inkscape:pageshadow="2"
     inkscape:zoom="5.6"
     inkscape:cx="-2.0826311"
     inkscape:cy="46.500465"
     inkscape:document-units="mm"
     inkscape:current-layer="layer1"
     showgrid="false"
     inkscape:window-width="1920"
     inkscape:window-height="1001"
     inkscape:window-x="-9"
     inkscape:window-y="-9"
     inkscape:window-maximized="1" />
  <metadata
     id="metadata6579">
    <rdf:RDF>
      <cc:Work
         rdf:about="">
        <dc:format>image/svg+xml</dc:format>
        <dc:type
           rdf:resource="http://purl.org/dc/dcmitype/StillImage" />
        <dc:title></dc:title>
      </cc:Work>
    </rdf:RDF>
  </metadata>
  <g
     inkscape:label="Capa 1"
     inkscape:groupmode="layer"
     id="layer1"
     transform="translate(0,-289)">
    <g
       transform="translate(-0.04674677,-0.90427121)"
       id="layer1-0"
       inkscape:label="Capa 1">
      <g
         id="g4141"
         transform="translate(-101.4366,148.34059)">
        <path
           id="path2493"
           d="m 106.07409,147.62285 a 0.45508333,0.45508333 0 0 0 -0.10054,-0.0423 l -0.14817,-0.0185 h -0.0159 a 0.381,0.381 0 0 0 -0.13229,0.0503 l -1.78064,-1.75154 -0.0688,0.0344 a 1.3943542,1.3943542 0 0 1 -0.635,0.15081 1.4234583,1.4234583 0 1 1 1.24618,-0.74083 l -0.0423,0.0794 0.65088,0.52916 v 0.48948 h 1.19592 l 0.1561,0.13229 a 0.333375,0.333375 0 0 0 -0.0238,0.20373 0.381,0.381 0 0 0 0.34396,0.31221 h 0.0291 a 0.38364583,0.38364583 0 0 0 0.20902,-0.71173 0.47360417,0.47360417 0 0 0 -0.09,-0.0397 l -0.13229,-0.0185 h -0.0318 a 0.3889375,0.3889375 0 0 0 -0.1614,0.0714 l -0.20637,-0.17462 h -1.05833 v -0.37307 l -0.59267,-0.48683 a 1.6271875,1.6271875 0 1 0 -0.81756,0.79375 l 0.24606,0.24077 v 0.94721 l 0.37835,0.37042 a 0.37041667,0.37041667 0 0 0 -0.045,0.2487 0.38364583,0.38364583 0 0 0 0.34396,0.31221 h 0.0291 a 0.381,0.381 0 0 0 0.37307,-0.26458 0.37570833,0.37570833 0 0 0 -0.16404,-0.44186 0.47095833,0.47095833 0 0 0 -0.10054,-0.045 l -0.14817,-0.0159 h -0.0185 a 0.381,0.381 0 0 0 -0.11906,0.045 l -0.30957,-0.30427 v -0.63765 l 1.2118,1.19327 a 0.3730625,0.3730625 0 0 0 -0.0397,0.23813 0.38364583,0.38364583 0 0 0 0.3466,0.31221 h 0.0291 a 0.38364583,0.38364583 0 0 0 0.19315,-0.68792 z m 0.5424,-1.03981 a 0.17197917,0.17197917 0 0 1 0.10848,-0.0688 v 0 h 0.0529 a 0.22225,0.22225 0 0 1 0.0556,0.0212 0.15875,0.15875 0 0 1 0.0688,0.18786 0.1666875,0.1666875 0 0 1 -0.32279,-0.0185 0.15610417,0.15610417 0 0 1 0.045,-0.14023 z m -1.83356,1.11919 h 0.0132 0.0503 a 0.3095625,0.3095625 0 0 1 0.0556,0.0212 0.1666875,0.1666875 0 1 1 -0.26459,0.16934 0.17197917,0.17197917 0 0 1 0.0291,-0.127 0.14816667,0.14816667 0 0 1 0.12436,-0.0714 z m 1.24883,0.29633 a 0.16933333,0.16933333 0 0 1 -0.17992,0.11642 0.1666875,0.1666875 0 0 1 0,-0.33073 h 0.0132 0.0529 a 0.22225,0.22225 0 0 1 0.0556,0.0212 0.16404167,0.16404167 0 0 1 0.0661,0.18521 z"
           class="cls-90"
           inkscape:connector-curvature="0"
           style="isolation:isolate;fill:#868686;stroke-width:0.26458332" />
        <path
           id="path2495"
           d="m 106.96574,147.88743 a 0.47360417,0.47360417 0 0 0 -0.10319,-0.0423 h -0.0238 l 0.037,-0.34396 -0.49742,-0.46037 h -0.28839 v -0.26459 a 0.111125,0.111125 0 0 0 -0.21961,0 v 0.48684 h 0.42334 l 0.35189,0.32808 -0.0318,0.28046 a 0.4048125,0.4048125 0 0 0 -0.16933,0.12964 0.38629167,0.38629167 0 0 0 0.2831,0.60325 h 0.0291 a 0.38364583,0.38364583 0 0 0 0.20902,-0.71172 z m -0.045,0.37571 a 0.1666875,0.1666875 0 0 1 -0.32279,-0.0185 0.15610417,0.15610417 0 0 1 0.0265,-0.127 0.17197917,0.17197917 0 0 1 0.10848,-0.0688 v 0 h 0.0529 a 0.22225,0.22225 0 0 1 0.0556,0.0212 0.15875,0.15875 0 0 1 0.0794,0.19579 z"
           class="cls-90"
           inkscape:connector-curvature="0"
           style="isolation:isolate;fill:#868686;stroke-width:0.26458332" />
        <path
           id="path2497"
           d="m 104.42045,144.61983 a 1.2250208,1.2250208 0 1 0 -0.52917,1.00012 l 0.66675,0.62707 a 0.111125,0.111125 0 0 0 0.0767,0.0317 0.11377083,0.11377083 0 0 0 0.0794,-0.0344 0.111125,0.111125 0 0 0 0,-0.1561 l -0.64822,-0.61119 a 1.2197292,1.2197292 0 0 0 0.35454,-0.85725 z m -1.60338,0.0661 a 0.48683333,0.48683333 0 1 1 0.48684,-0.48684 0.48683333,0.48683333 0 0 1 -0.48684,0.48684 z"
           class="cls-90"
           inkscape:connector-curvature="0"
           style="isolation:isolate;fill:#868686;stroke-width:0.26458332" />
      </g>
    </g>
  </g>
</svg>
