<svg xmlns="http://www.w3.org/2000/svg" viewBox="0 0 40 40"><defs><style>.cls-1{fill:#ecc358;}</style></defs><g id="Capa_2" data-name="Capa 2"><g id="Capa_1-2" data-name="Capa 1"><rect class="cls-1" x="26.36" y="37.57" width="0.92" height="0.92" transform="translate(53.65 76.05) rotate(180)"/><rect class="cls-1" x="24.79" y="37.57" width="0.92" height="0.92" transform="translate(50.51 76.05) rotate(180)"/><rect class="cls-1" x="23.22" y="37.57" width="0.92" height="0.92" transform="translate(47.37 76.05) rotate(180)"/><rect class="cls-1" x="21.65" y="37.57" width="0.92" height="0.92" transform="translate(44.22 76.05) rotate(180)"/><rect class="cls-1" x="27.93" y="36.07" width="0.92" height="0.92" transform="translate(56.79 73.06) rotate(180)"/><rect class="cls-1" x="26.36" y="36.07" width="0.92" height="0.92" transform="translate(53.65 73.05) rotate(180)"/><rect class="cls-1" x="23.22" y="36.07" width="0.92" height="0.92" transform="translate(47.37 73.05) rotate(180)"/><rect class="cls-1" x="21.65" y="36.07" width="0.92" height="0.92" transform="translate(44.22 73.05) rotate(180)"/><rect class="cls-1" x="31.08" y="34.49" width="0.92" height="0.92" transform="translate(63.07 69.89) rotate(180)"/><rect class="cls-1" x="27.93" y="34.49" width="0.92" height="0.92" transform="translate(56.79 69.9) rotate(180)"/><rect class="cls-1" x="24.79" y="34.49" width="0.92" height="0.92" transform="translate(50.51 69.89) rotate(180)"/><rect class="cls-1" x="23.22" y="34.49" width="0.92" height="0.92" transform="translate(47.37 69.89) rotate(180)"/><rect class="cls-1" x="21.65" y="34.49" width="0.92" height="0.92" transform="translate(44.22 69.89) rotate(180)"/><rect class="cls-1" x="31.08" y="32.91" width="0.92" height="0.92" transform="translate(63.07 66.73) rotate(180)"/><rect class="cls-1" x="29.51" y="32.91" width="0.92" height="0.92" transform="translate(59.93 66.73) rotate(180)"/><rect class="cls-1" x="27.93" y="32.91" width="0.92" height="0.92" transform="translate(56.79 66.73) rotate(180)"/><rect class="cls-1" x="26.36" y="32.91" width="0.92" height="0.92" transform="translate(53.65 66.73) rotate(180)"/><rect class="cls-1" x="23.22" y="32.91" width="0.92" height="0.92" transform="translate(47.37 66.73) rotate(180)"/><rect class="cls-1" x="21.65" y="32.91" width="0.92" height="0.92" transform="translate(44.22 66.73) rotate(180)"/><rect class="cls-1" x="31.08" y="31.33" width="0.92" height="0.92" transform="translate(63.07 63.57) rotate(180)"/><rect class="cls-1" x="29.51" y="31.33" width="0.92" height="0.92" transform="translate(59.93 63.57) rotate(180)"/><rect class="cls-1" x="27.93" y="31.33" width="0.92" height="0.92" transform="translate(56.79 63.57) rotate(180)"/><rect class="cls-1" x="26.36" y="31.33" width="0.92" height="0.92" transform="translate(53.65 63.57) rotate(180)"/><rect class="cls-1" x="24.79" y="31.33" width="0.92" height="0.92" transform="translate(50.51 63.57) rotate(180)"/><rect class="cls-1" x="21.65" y="31.33" width="0.92" height="0.92" transform="translate(44.22 63.57) rotate(180)"/><rect class="cls-1" x="29.51" y="29.91" width="0.92" height="0.92" transform="translate(59.93 60.74) rotate(180)"/><rect class="cls-1" x="27.93" y="29.91" width="0.92" height="0.92" transform="translate(56.79 60.74) rotate(180)"/><rect class="cls-1" x="24.79" y="29.91" width="0.92" height="0.92" transform="translate(50.51 60.74) rotate(180)"/><rect class="cls-1" x="23.22" y="29.91" width="0.92" height="0.92" transform="translate(47.37 60.74) rotate(180)"/><rect class="cls-1" x="21.65" y="29.91" width="0.92" height="0.92" transform="translate(44.22 60.74) rotate(180)"/><rect class="cls-1" x="31.08" y="28.33" width="0.92" height="0.92" transform="translate(63.07 57.58) rotate(180)"/><rect class="cls-1" x="29.51" y="28.33" width="0.92" height="0.92" transform="translate(59.93 57.58) rotate(180)"/><rect class="cls-1" x="27.93" y="28.33" width="0.92" height="0.92" transform="translate(56.79 57.58) rotate(180)"/><rect class="cls-1" x="26.36" y="28.33" width="0.92" height="0.92" transform="translate(53.65 57.58) rotate(180)"/><rect class="cls-1" x="24.79" y="28.33" width="0.92" height="0.92" transform="translate(50.51 57.58) rotate(180)"/><rect class="cls-1" x="23.22" y="28.33" width="0.92" height="0.92" transform="translate(47.37 57.58) rotate(180)"/><rect class="cls-1" x="21.65" y="28.33" width="0.92" height="0.92" transform="translate(44.22 57.58) rotate(180)"/><rect class="cls-1" x="31.08" y="26.83" width="0.92" height="0.92" transform="translate(63.07 54.58) rotate(180)"/><rect class="cls-1" x="29.51" y="26.83" width="0.92" height="0.92" transform="translate(59.93 54.58) rotate(180)"/><rect class="cls-1" x="27.93" y="26.83" width="0.92" height="0.92" transform="translate(56.79 54.58) rotate(180)"/><rect class="cls-1" x="26.36" y="26.83" width="0.92" height="0.92" transform="translate(53.65 54.57) rotate(180)"/><rect class="cls-1" x="23.22" y="26.83" width="0.92" height="0.92" transform="translate(47.37 54.57) rotate(180)"/><rect class="cls-1" x="21.65" y="26.83" width="0.92" height="0.92" transform="translate(44.22 54.57) rotate(180)"/><rect class="cls-1" x="31.08" y="25.33" width="0.92" height="0.92" transform="translate(63.07 51.58) rotate(180)"/><rect class="cls-1" x="29.51" y="25.33" width="0.92" height="0.92" transform="translate(59.93 51.58) rotate(180)"/><rect class="cls-1" x="26.36" y="25.33" width="0.92" height="0.92" transform="translate(53.65 51.58) rotate(180)"/><rect class="cls-1" x="24.79" y="25.33" width="0.92" height="0.92" transform="translate(50.51 51.58) rotate(180)"/><rect class="cls-1" x="29.51" y="23.91" width="0.92" height="0.92" transform="translate(59.93 48.74) rotate(180)"/><rect class="cls-1" x="27.93" y="23.91" width="0.92" height="0.92" transform="translate(56.79 48.74) rotate(180)"/><rect class="cls-1" x="24.79" y="23.91" width="0.92" height="0.92" transform="translate(50.51 48.74) rotate(180)"/><rect class="cls-1" x="23.22" y="23.91" width="0.92" height="0.92" transform="translate(47.37 48.74) rotate(180)"/><rect class="cls-1" x="21.65" y="23.91" width="0.92" height="0.92" transform="translate(44.22 48.74) rotate(180)"/><rect class="cls-1" x="31.08" y="22.33" width="0.92" height="0.92" transform="translate(63.07 45.58) rotate(180)"/><rect class="cls-1" x="27.93" y="22.33" width="0.92" height="0.92" transform="translate(56.79 45.58) rotate(180)"/><rect class="cls-1" x="26.36" y="22.33" width="0.92" height="0.92" transform="translate(53.65 45.58) rotate(180)"/><rect class="cls-1" x="23.22" y="22.33" width="0.92" height="0.92" transform="translate(47.37 45.58) rotate(180)"/><rect class="cls-1" x="29.51" y="20.91" width="0.92" height="0.92" transform="translate(59.93 42.74) rotate(180)"/><rect class="cls-1" x="27.93" y="20.91" width="0.92" height="0.92" transform="translate(56.79 42.74) rotate(180)"/><rect class="cls-1" x="24.79" y="20.91" width="0.92" height="0.92" transform="translate(50.51 42.74) rotate(180)"/><rect class="cls-1" x="21.65" y="20.91" width="0.92" height="0.92" transform="translate(44.22 42.74) rotate(180)"/><rect class="cls-1" x="31.08" y="19.33" width="0.92" height="0.92" transform="translate(63.07 39.58) rotate(180)"/><rect class="cls-1" x="29.51" y="19.33" width="0.92" height="0.92" transform="translate(59.93 39.58) rotate(180)"/><rect class="cls-1" x="26.36" y="19.33" width="0.92" height="0.92" transform="translate(53.65 39.58) rotate(180)"/><rect class="cls-1" x="23.22" y="19.33" width="0.92" height="0.92" transform="translate(47.37 39.58) rotate(180)"/><rect class="cls-1" x="21.65" y="19.33" width="0.92" height="0.92" transform="translate(44.22 39.58) rotate(180)"/><rect class="cls-1" x="31.08" y="17.91" width="0.92" height="0.92" transform="translate(63.07 36.74) rotate(180)"/><rect class="cls-1" x="27.93" y="17.91" width="0.92" height="0.92" transform="translate(56.79 36.74) rotate(180)"/><rect class="cls-1" x="26.36" y="17.91" width="0.92" height="0.92" transform="translate(53.65 36.74) rotate(180)"/><rect class="cls-1" x="23.22" y="17.91" width="0.92" height="0.92" transform="translate(47.37 36.74) rotate(180)"/><rect class="cls-1" x="29.51" y="16.33" width="0.92" height="0.92" transform="translate(59.93 33.58) rotate(180)"/><rect class="cls-1" x="27.93" y="16.33" width="0.92" height="0.92" transform="translate(56.79 33.58) rotate(180)"/><rect class="cls-1" x="24.79" y="16.33" width="0.92" height="0.92" transform="translate(50.51 33.58) rotate(180)"/><rect class="cls-1" x="21.65" y="16.33" width="0.92" height="0.92" transform="translate(44.22 33.58) rotate(180)"/><rect class="cls-1" x="29.51" y="14.94" width="0.92" height="0.92" transform="translate(59.93 30.81) rotate(180)"/><rect class="cls-1" x="24.79" y="14.94" width="0.92" height="0.92" transform="translate(50.51 30.81) rotate(180)"/><rect class="cls-1" x="31.08" y="13.36" width="0.92" height="0.92" transform="translate(63.07 27.65) rotate(180)"/><rect class="cls-1" x="27.93" y="13.36" width="0.92" height="0.92" transform="translate(56.79 27.65) rotate(180)"/><rect class="cls-1" x="26.36" y="13.36" width="0.92" height="0.92" transform="translate(53.65 27.65) rotate(180)"/><rect class="cls-1" x="23.22" y="13.36" width="0.92" height="0.92" transform="translate(47.37 27.65) rotate(180)"/><rect class="cls-1" x="21.65" y="13.36" width="0.92" height="0.92" transform="translate(44.22 27.65) rotate(180)"/><rect class="cls-1" x="29.51" y="11.66" width="0.92" height="0.92" transform="translate(59.93 24.23) rotate(180)"/><rect class="cls-1" x="26.36" y="11.66" width="0.92" height="0.92" transform="translate(53.65 24.23) rotate(180)"/><rect class="cls-1" x="21.65" y="11.66" width="0.92" height="0.92" transform="translate(44.22 24.23) rotate(180)"/><rect class="cls-1" x="31.08" y="10.08" width="0.92" height="0.92" transform="translate(63.07 21.07) rotate(180)"/><rect class="cls-1" x="27.93" y="10.08" width="0.92" height="0.92" transform="translate(56.79 21.07) rotate(180)"/><rect class="cls-1" x="24.79" y="10.08" width="0.92" height="0.92" transform="translate(50.51 21.07) rotate(180)"/><rect class="cls-1" x="31.08" y="6.87" width="0.92" height="0.92" transform="translate(63.07 14.66) rotate(180)"/><rect class="cls-1" x="27.93" y="8.45" width="0.92" height="0.92" transform="translate(56.79 17.82) rotate(180)"/><rect class="cls-1" x="23.22" y="8.45" width="0.92" height="0.92" transform="translate(47.37 17.82) rotate(180)"/><rect class="cls-1" x="26.36" y="6.87" width="0.92" height="0.92" transform="translate(53.65 14.66) rotate(180)"/><rect class="cls-1" x="21.65" y="6.87" width="0.92" height="0.92" transform="translate(44.22 14.66) rotate(180)"/><polygon class="cls-1" points="17.77 39.03 17.77 38.4 17.41 37.99 17.41 38.6 17.77 39.03"/><polygon class="cls-1" points="20.18 39.65 18.84 38.34 18.84 39.07 19.49 39.76 20.18 39.65"/><polygon class="cls-1" points="18.11 38.3 18.11 37.64 17.41 36.96 17.41 37.56 18.11 38.3"/><polygon class="cls-1" points="19.99 38.88 20.74 39.56 20.74 38.69 19.99 38.07 19.99 38.88"/><polygon class="cls-1" points="18.59 37.6 18.59 36.9 17.41 35.92 17.41 36.53 18.59 37.6"/><polygon class="cls-1" points="18.84 37.83 19.49 38.43 19.49 37.65 18.84 37.11 18.84 37.83"/><polygon class="cls-1" points="20.57 37.93 21.29 38.49 21.29 37.57 20.57 37.07 20.57 37.93"/><polygon class="cls-1" points="19.79 36.53 18.24 35.46 18.24 36.13 19.79 37.33 19.79 36.53"/><polygon class="cls-1" points="17.77 35.77 17.77 35.14 17.41 34.89 17.41 35.49 17.77 35.77"/><polygon class="cls-1" points="18.93 35.48 19.4 35.78 19.4 35.01 18.93 34.75 18.93 35.48"/><polygon class="cls-1" points="20.33 35.53 19.74 35.2 19.74 36 20.33 36.38 20.33 35.53"/><polygon class="cls-1" points="20.8 36.68 21.29 36.99 21.29 36.07 20.8 35.8 20.8 36.68"/><polygon class="cls-1" points="18.49 35.2 18.5 34.51 17.41 33.9 17.41 34.51 18.49 35.2"/><polygon class="cls-1" points="19.93 34.71 19.93 33.92 19.21 33.62 19.21 34.37 19.96 34.75 19.93 34.71"/><polygon class="cls-1" points="17.8 33.66 17.8 33.03 17.41 32.87 17.41 33.47 17.8 33.66"/><polygon class="cls-1" points="18.16 33.85 18.71 34.12 18.71 33.41 18.16 33.18 18.16 33.85"/><polygon class="cls-1" points="20.33 34.93 21.29 35.41 21.29 34.49 20.33 34.09 20.33 34.93"/><polygon class="cls-1" points="20.36 32.65 19.73 32.47 19.73 33.27 20.36 33.49 20.36 32.65"/><polygon class="cls-1" points="18.53 32.84 19.26 33.1 19.26 32.34 18.53 32.14 18.53 32.84"/><polygon class="cls-1" points="18.16 32.71 18.16 32.04 17.41 31.83 17.41 32.44 18.16 32.71"/><polygon class="cls-1" points="20.78 33.64 21.29 33.83 21.29 32.91 20.78 32.76 20.78 33.64"/><polygon class="cls-1" points="20.09 31.16 19.12 31.03 19.12 31.77 20.09 31.98 20.09 31.16"/><polygon class="cls-1" points="18.74 31.69 18.74 30.98 17.41 30.8 17.41 31.4 18.74 31.69"/><polygon class="cls-1" points="20.54 32.08 21.29 32.25 21.29 31.33 20.54 31.22 20.54 32.08"/><polygon class="cls-1" points="19.53 29.89 18.37 29.88 18.37 30.56 19.53 30.67 19.53 29.89"/><polygon class="cls-1" points="20.64 30.77 21.29 30.83 21.29 29.91 20.64 29.9 20.64 30.77"/><polygon class="cls-1" points="17.96 30.52 17.96 29.87 17.41 29.86 17.41 30.47 17.96 30.52"/><polygon class="cls-1" points="20.65 27.86 21.29 27.75 21.29 26.83 20.65 26.99 20.65 27.86"/><polygon class="cls-1" points="19.5 27.3 18.61 27.53 18.61 28.23 19.5 28.07 19.5 27.3"/><polygon class="cls-1" points="18.21 28.31 18.21 27.64 17.41 27.85 17.41 28.45 18.21 28.31"/><polygon class="cls-1" points="20.09 28.48 19.29 28.59 19.29 29.34 20.09 29.31 20.09 28.48"/><polygon class="cls-1" points="18 29.41 18.88 29.36 18.88 28.64 18 28.75 18 29.41"/><polygon class="cls-1" points="20.64 29.28 21.29 29.25 21.29 28.33 20.64 28.41 20.64 29.28"/><polygon class="cls-1" points="17.67 29.42 17.67 28.8 17.41 28.83 17.41 29.43 17.67 29.42"/><polygon class="cls-1" points="19.43 26.07 18.24 26.54 18.24 27.21 19.43 26.83 19.43 26.07"/><polygon class="cls-1" points="17.67 27.38 17.67 26.76 17.41 26.86 17.41 27.47 17.67 27.38"/><polygon class="cls-1" points="20.15 26.61 21.29 26.25 21.29 25.33 20.15 25.78 20.15 26.61"/><polygon class="cls-1" points="20.22 24.46 18.68 25.27 18.68 25.98 20.22 25.3 20.22 24.46"/><polygon class="cls-1" points="20.65 25.11 21.29 24.83 21.29 23.91 20.65 24.24 20.65 25.11"/><polygon class="cls-1" points="18.24 26.17 18.24 25.5 17.41 25.93 17.41 26.54 18.24 26.17"/><polygon class="cls-1" points="19.35 23.61 18.24 24.35 18.24 25.02 19.35 24.37 19.35 23.61"/><polygon class="cls-1" points="19.79 24.12 21.29 23.25 21.29 22.33 19.79 23.32 19.79 24.12"/><polygon class="cls-1" points="17.77 25.29 17.77 24.66 17.41 24.9 17.41 25.5 17.77 25.29"/><polygon class="cls-1" points="19.76 22.12 19.26 22.51 19.26 23.27 19.76 22.91 19.76 22.12"/><polygon class="cls-1" points="18.32 23.93 18.84 23.56 18.84 22.84 18.32 23.25 18.32 23.93"/><polygon class="cls-1" points="20.62 22.3 21.29 21.83 21.29 20.91 20.62 21.44 20.62 22.3"/><polygon class="cls-1" points="17.81 24.28 17.81 23.65 17.41 23.97 17.41 24.57 17.81 24.28"/><polygon class="cls-1" points="18.41 22.68 18.41 22 17.41 22.93 17.41 23.54 18.41 22.68"/><polygon class="cls-1" points="19.33 21.14 18.87 21.57 18.87 22.3 19.33 21.91 19.33 21.14"/><polygon class="cls-1" points="19.81 21.5 21.29 20.25 21.29 19.33 19.81 20.7 19.81 21.5"/><polygon class="cls-1" points="19.95 19.32 18.2 21.17 18.2 21.84 19.95 20.13 19.95 19.32"/><polygon class="cls-1" points="17.73 22.29 17.73 21.66 17.41 22 17.41 22.6 17.73 22.29"/><polygon class="cls-1" points="20.65 19.45 21.29 18.83 21.29 17.91 20.65 18.58 20.65 19.45"/><polygon class="cls-1" points="18.64 20.19 19.13 19.66 19.13 18.91 18.64 19.49 18.64 20.19"/><polygon class="cls-1" points="20.06 17.8 19.57 18.38 19.57 19.16 20.06 18.62 20.06 17.8"/><polygon class="cls-1" points="20.54 18.09 21.29 17.25 21.29 16.33 20.54 17.23 20.54 18.09"/><polygon class="cls-1" points="18.18 20.7 18.18 20.04 17.41 20.96 17.41 21.57 18.18 20.7"/><polygon class="cls-1" points="18.39 19.44 18.95 18.75 18.95 18.02 18.39 18.76 18.39 19.44"/><polygon class="cls-1" points="20.43 16.08 19.39 17.45 19.39 18.21 20.43 16.93 20.43 16.08"/><polygon class="cls-1" points="20.82 16.44 21.29 15.86 21.29 14.94 20.82 15.56 20.82 16.44"/><polygon class="cls-1" points="17.8 20.17 17.8 19.53 17.41 20.06 17.41 20.66 17.8 20.17"/><polygon class="cls-1" points="18.34 18.34 18.98 17.46 18.98 16.73 18.34 17.66 18.34 18.34"/><polygon class="cls-1" points="19.79 15.55 19.36 16.18 19.36 16.94 19.79 16.35 19.79 15.55"/><polygon class="cls-1" points="17.89 18.97 17.89 18.32 17.41 19.02 17.41 19.62 17.89 18.97"/><polygon class="cls-1" points="20.3 15.65 21.29 14.28 21.29 13.36 20.3 14.8 20.3 15.65"/><polygon class="cls-1" points="18.39 17 18.39 16.32 17.41 17.9 17.41 18.51 18.39 17"/><polygon class="cls-1" points="20.26 13.32 18.88 15.53 18.88 16.25 20.26 14.16 20.26 13.32"/><polygon class="cls-1" points="20.78 13.36 21.29 12.58 21.29 11.66 20.78 12.48 20.78 13.36"/><polygon class="cls-1" points="20.25 11.9 19.34 13.49 19.34 14.26 20.25 12.74 20.25 11.9"/><polygon class="cls-1" points="18.11 16.29 18.79 15.17 18.79 14.46 18.11 15.63 18.11 16.29"/><polygon class="cls-1" points="17.69 17 17.69 16.38 17.41 16.87 17.41 17.47 17.69 17"/><polygon class="cls-1" points="20.79 11.84 21.29 11 21.29 10.08 20.79 10.96 20.79 11.84"/><polygon class="cls-1" points="21.02 8.97 20.44 10.06 20.44 10.91 21.02 9.87 21.02 8.97"/><polygon class="cls-1" points="17.98 15.37 17.98 14.72 17.41 15.8 17.41 16.4 17.98 15.37"/><polygon class="cls-1" points="19.66 12.32 20.16 11.41 20.16 10.58 19.66 11.53 19.66 12.32"/><polygon class="cls-1" points="18.43 14.56 19.22 13.11 19.22 12.36 18.43 13.87 18.43 14.56"/><polygon class="cls-1" points="20.52 8.44 20.07 9.36 20.07 10.18 20.52 9.3 20.52 8.44"/><polygon class="cls-1" points="17.85 14.51 18.34 13.55 18.34 12.87 17.85 13.87 17.85 14.51"/><polygon class="cls-1" points="18.78 12.69 19.51 11.26 19.51 10.48 18.78 11.98 18.78 12.69"/><polygon class="cls-1" points="17.63 14.94 17.63 14.32 17.41 14.76 17.41 15.37 17.63 14.94"/><polygon class="cls-1" points="20.85 8.65 21.29 7.79 21.29 6.87 20.85 7.76 20.85 8.65"/><rect class="cls-1" x="15.52" y="37.95" width="0.73" height="0.73" transform="translate(31.76 76.62) rotate(180)"/><rect class="cls-1" x="14.28" y="37.95" width="0.73" height="0.73" transform="translate(29.28 76.62) rotate(180)"/><rect class="cls-1" x="15.52" y="36.7" width="0.73" height="0.73" transform="translate(31.76 74.13) rotate(180)"/><rect class="cls-1" x="13.04" y="36.7" width="0.73" height="0.73" transform="translate(26.8 74.13) rotate(180)"/><rect class="cls-1" x="11.8" y="36.7" width="0.73" height="0.73" transform="translate(24.33 74.13) rotate(180)"/><rect class="cls-1" x="15.52" y="35.45" width="0.73" height="0.73" transform="translate(31.76 71.64) rotate(180)"/><rect class="cls-1" x="14.28" y="35.45" width="0.73" height="0.73" transform="translate(29.28 71.64) rotate(180)"/><rect class="cls-1" x="13.04" y="35.45" width="0.73" height="0.73" transform="translate(26.8 71.64) rotate(180)"/><rect class="cls-1" x="11.8" y="35.45" width="0.73" height="0.73" transform="translate(24.33 71.64) rotate(180)"/><rect class="cls-1" x="10.56" y="35.45" width="0.73" height="0.73" transform="translate(21.85 71.64) rotate(180)"/><rect class="cls-1" x="9.32" y="35.45" width="0.73" height="0.73" transform="translate(19.37 71.64) rotate(180)"/><rect class="cls-1" x="15.52" y="34.27" width="0.73" height="0.73" transform="translate(31.76 69.27) rotate(180)"/><rect class="cls-1" x="14.28" y="34.27" width="0.73" height="0.73" transform="translate(29.28 69.27) rotate(180)"/><rect class="cls-1" x="13.04" y="34.27" width="0.73" height="0.73" transform="translate(26.8 69.27) rotate(180)"/><rect class="cls-1" x="10.56" y="34.27" width="0.73" height="0.73" transform="translate(21.85 69.27) rotate(180)"/><rect class="cls-1" x="9.32" y="34.27" width="0.73" height="0.73" transform="translate(19.37 69.27) rotate(180)"/><rect class="cls-1" x="14.28" y="33.02" width="0.73" height="0.73" transform="translate(29.28 66.77) rotate(180)"/><rect class="cls-1" x="11.8" y="33.02" width="0.73" height="0.73" transform="translate(24.33 66.77) rotate(180)"/><rect class="cls-1" x="10.56" y="33.02" width="0.73" height="0.73" transform="translate(21.85 66.77) rotate(180)"/><rect class="cls-1" x="9.32" y="33.02" width="0.73" height="0.73" transform="translate(19.37 66.77) rotate(180)"/><rect class="cls-1" x="15.52" y="31.78" width="0.73" height="0.73" transform="translate(31.76 64.28) rotate(180)"/><rect class="cls-1" x="14.28" y="31.78" width="0.73" height="0.73" transform="translate(29.28 64.28) rotate(180)"/><rect class="cls-1" x="13.04" y="31.78" width="0.73" height="0.73" transform="translate(26.8 64.28) rotate(180)"/><rect class="cls-1" x="10.56" y="31.78" width="0.73" height="0.73" transform="translate(21.85 64.28) rotate(180)"/><rect class="cls-1" x="9.32" y="31.78" width="0.73" height="0.73" transform="translate(19.37 64.28) rotate(180)"/><rect class="cls-1" x="15.52" y="30.53" width="0.73" height="0.73" transform="translate(31.76 61.78) rotate(180)"/><rect class="cls-1" x="14.28" y="30.53" width="0.73" height="0.73" transform="translate(29.28 61.78) rotate(180)"/><rect class="cls-1" x="13.04" y="30.53" width="0.73" height="0.73" transform="translate(26.8 61.78) rotate(180)"/><rect class="cls-1" x="11.8" y="30.53" width="0.73" height="0.73" transform="translate(24.33 61.78) rotate(180)"/><rect class="cls-1" x="9.32" y="30.53" width="0.73" height="0.73" transform="translate(19.37 61.78) rotate(180)"/><rect class="cls-1" x="15.52" y="29.41" width="0.73" height="0.73" transform="translate(31.76 59.54) rotate(180)"/><rect class="cls-1" x="14.28" y="29.41" width="0.73" height="0.73" transform="translate(29.28 59.54) rotate(180)"/><rect class="cls-1" x="11.8" y="29.41" width="0.73" height="0.73" transform="translate(24.33 59.54) rotate(180)"/><rect class="cls-1" x="10.56" y="29.41" width="0.73" height="0.73" transform="translate(21.85 59.54) rotate(180)"/><rect class="cls-1" x="9.32" y="29.41" width="0.73" height="0.73" transform="translate(19.37 59.54) rotate(180)"/><rect class="cls-1" x="15.52" y="28.16" width="0.73" height="0.73" transform="translate(31.76 57.05) rotate(180)"/><rect class="cls-1" x="14.28" y="28.16" width="0.73" height="0.73" transform="translate(29.28 57.05) rotate(180)"/><rect class="cls-1" x="13.04" y="28.16" width="0.73" height="0.73" transform="translate(26.8 57.05) rotate(180)"/><rect class="cls-1" x="11.8" y="28.16" width="0.73" height="0.73" transform="translate(24.33 57.05) rotate(180)"/><rect class="cls-1" x="10.56" y="28.16" width="0.73" height="0.73" transform="translate(21.85 57.05) rotate(180)"/><rect class="cls-1" x="9.32" y="28.16" width="0.73" height="0.73" transform="translate(19.37 57.05) rotate(180)"/><rect class="cls-1" x="15.52" y="26.98" width="0.73" height="0.73" transform="translate(31.76 54.68) rotate(180)"/><rect class="cls-1" x="14.28" y="26.98" width="0.73" height="0.73" transform="translate(29.28 54.68) rotate(180)"/><rect class="cls-1" x="13.04" y="26.98" width="0.73" height="0.73" transform="translate(26.8 54.68) rotate(180)"/><rect class="cls-1" x="10.56" y="26.98" width="0.73" height="0.73" transform="translate(21.85 54.68) rotate(180)"/><rect class="cls-1" x="9.32" y="26.98" width="0.73" height="0.73" transform="translate(19.37 54.68) rotate(180)"/><rect class="cls-1" x="15.52" y="25.79" width="0.73" height="0.73" transform="translate(31.76 52.31) rotate(180)"/><rect class="cls-1" x="13.04" y="25.79" width="0.73" height="0.73" transform="translate(26.8 52.31) rotate(180)"/><rect class="cls-1" x="11.8" y="25.79" width="0.73" height="0.73" transform="translate(24.33 52.31) rotate(180)"/><rect class="cls-1" x="15.52" y="24.67" width="0.73" height="0.73" transform="translate(31.76 50.07) rotate(180)"/><rect class="cls-1" x="14.28" y="24.67" width="0.73" height="0.73" transform="translate(29.28 50.07) rotate(180)"/><rect class="cls-1" x="11.8" y="24.67" width="0.73" height="0.73" transform="translate(24.33 50.07) rotate(180)"/><rect class="cls-1" x="10.56" y="24.67" width="0.73" height="0.73" transform="translate(21.85 50.07) rotate(180)"/><rect class="cls-1" x="9.32" y="24.67" width="0.73" height="0.73" transform="translate(19.37 50.07) rotate(180)"/><rect class="cls-1" x="14.28" y="23.43" width="0.73" height="0.73" transform="translate(29.28 47.58) rotate(180)"/><rect class="cls-1" x="13.04" y="23.43" width="0.73" height="0.73" transform="translate(26.8 47.58) rotate(180)"/><rect class="cls-1" x="10.56" y="23.43" width="0.73" height="0.73" transform="translate(21.85 47.58) rotate(180)"/><rect class="cls-1" x="15.52" y="22.31" width="0.73" height="0.73" transform="translate(31.76 45.34) rotate(180)"/><rect class="cls-1" x="14.28" y="22.31" width="0.73" height="0.73" transform="translate(29.28 45.34) rotate(180)"/><rect class="cls-1" x="11.8" y="22.31" width="0.73" height="0.73" transform="translate(24.33 45.34) rotate(180)"/><rect class="cls-1" x="9.32" y="22.31" width="0.73" height="0.73" transform="translate(19.37 45.34) rotate(180)"/><rect class="cls-1" x="15.52" y="21.06" width="0.73" height="0.73" transform="translate(31.76 42.84) rotate(180)"/><rect class="cls-1" x="13.04" y="21.06" width="0.73" height="0.73" transform="translate(26.8 42.84) rotate(180)"/><rect class="cls-1" x="10.56" y="21.06" width="0.73" height="0.73" transform="translate(21.85 42.84) rotate(180)"/><rect class="cls-1" x="9.32" y="21.06" width="0.73" height="0.73" transform="translate(19.37 42.84) rotate(180)"/><rect class="cls-1" x="14.28" y="19.94" width="0.73" height="0.73" transform="translate(29.28 40.6) rotate(180)"/><rect class="cls-1" x="13.04" y="19.94" width="0.73" height="0.73" transform="translate(26.8 40.6) rotate(180)"/><rect class="cls-1" x="10.56" y="19.94" width="0.73" height="0.73" transform="translate(21.85 40.6) rotate(180)"/><rect class="cls-1" x="15.52" y="18.69" width="0.73" height="0.73" transform="translate(31.76 38.11) rotate(180)"/><rect class="cls-1" x="14.28" y="18.69" width="0.73" height="0.73" transform="translate(29.28 38.11) rotate(180)"/><rect class="cls-1" x="11.8" y="18.69" width="0.73" height="0.73" transform="translate(24.33 38.11) rotate(180)"/><rect class="cls-1" x="9.32" y="18.69" width="0.73" height="0.73" transform="translate(19.37 38.11) rotate(180)"/><rect class="cls-1" x="15.52" y="17.6" width="0.73" height="0.73" transform="translate(31.76 35.92) rotate(180)"/><rect class="cls-1" x="11.8" y="17.6" width="0.73" height="0.73" transform="translate(24.33 35.92) rotate(180)"/><rect class="cls-1" x="14.28" y="16.35" width="0.73" height="0.73" transform="translate(29.28 33.43) rotate(180)"/><rect class="cls-1" x="13.04" y="16.35" width="0.73" height="0.73" transform="translate(26.8 33.43) rotate(180)"/><rect class="cls-1" x="10.56" y="16.35" width="0.73" height="0.73" transform="translate(21.85 33.43) rotate(180)"/><rect class="cls-1" x="9.32" y="16.35" width="0.73" height="0.73" transform="translate(19.37 33.43) rotate(180)"/><rect class="cls-1" x="15.52" y="15" width="0.73" height="0.73" transform="translate(31.76 30.73) rotate(180)"/><rect class="cls-1" x="13.04" y="15" width="0.73" height="0.73" transform="translate(26.8 30.73) rotate(180)"/><rect class="cls-1" x="9.32" y="15" width="0.73" height="0.73" transform="translate(19.37 30.73) rotate(180)"/><rect class="cls-1" x="14.28" y="13.76" width="0.73" height="0.73" transform="translate(29.28 28.24) rotate(180)"/><rect class="cls-1" x="11.8" y="13.76" width="0.73" height="0.73" transform="translate(24.33 28.24) rotate(180)"/><rect class="cls-1" x="14.28" y="12.47" width="0.73" height="0.73" transform="translate(29.28 25.67) rotate(180)"/><rect class="cls-1" x="10.56" y="12.47" width="0.73" height="0.73" transform="translate(21.85 25.67) rotate(180)"/><rect class="cls-1" x="13.04" y="11.23" width="0.73" height="0.73" transform="translate(26.8 23.18) rotate(180)"/><rect class="cls-1" x="9.32" y="11.23" width="0.73" height="0.73" transform="translate(19.37 23.18) rotate(180)"/><polygon class="cls-1" points="7.17 33.81 7.54 34.05 7.54 33.44 7.17 33.23 7.17 33.81"/><polygon class="cls-1" points="8.28 33.85 7.81 33.59 7.81 34.22 8.28 34.51 8.28 33.85"/><polygon class="cls-1" points="8.65 34.75 9.03 35 9.03 34.27 8.65 34.06 8.65 34.75"/><polygon class="cls-1" points="6.83 33.59 6.83 33.04 5.97 32.56 5.97 33.04 6.83 33.59"/><polygon class="cls-1" points="7.96 33.2 7.96 32.57 7.39 32.34 7.39 32.93 7.99 33.23 7.96 33.2"/><polygon class="cls-1" points="6.28 32.38 6.28 31.87 5.97 31.75 5.97 32.22 6.28 32.38"/><polygon class="cls-1" points="6.57 32.52 7 32.73 7 32.17 6.57 31.99 6.57 32.52"/><polygon class="cls-1" points="8.28 33.37 9.03 33.75 9.03 33.02 8.28 32.71 8.28 33.37"/><polygon class="cls-1" points="8.3 31.57 7.8 31.43 7.8 32.06 8.3 32.24 8.3 31.57"/><polygon class="cls-1" points="6.86 31.72 7.43 31.93 7.43 31.33 6.86 31.17 6.86 31.72"/><polygon class="cls-1" points="6.57 31.62 6.57 31.09 5.97 30.93 5.97 31.4 6.57 31.62"/><polygon class="cls-1" points="8.63 32.36 9.03 32.5 9.03 31.78 8.63 31.66 8.63 32.36"/><polygon class="cls-1" points="8.08 30.4 7.32 30.3 7.32 30.88 8.08 31.05 8.08 30.4"/><polygon class="cls-1" points="7.02 30.82 7.02 30.25 5.97 30.11 5.97 30.59 7.02 30.82"/><polygon class="cls-1" points="8.44 31.13 9.03 31.26 9.03 30.53 8.44 30.45 8.44 31.13"/><polygon class="cls-1" points="7.64 29.39 6.73 29.38 6.73 29.92 7.64 30.01 7.64 29.39"/><polygon class="cls-1" points="8.52 30.09 9.03 30.14 9.03 29.41 8.52 29.4 8.52 30.09"/><polygon class="cls-1" points="6.41 29.89 6.41 29.38 5.97 29.38 5.97 29.85 6.41 29.89"/><polygon class="cls-1" points="8.53 27.8 9.03 27.7 9.03 26.98 8.53 27.11 8.53 27.8"/><polygon class="cls-1" points="7.62 27.35 6.92 27.53 6.92 28.09 7.62 27.96 7.62 27.35"/><polygon class="cls-1" points="6.6 28.14 6.6 27.62 5.97 27.78 5.97 28.26 6.6 28.14"/><polygon class="cls-1" points="8.09 28.28 7.46 28.36 7.46 28.96 8.09 28.93 8.09 28.28"/><polygon class="cls-1" points="6.44 29.01 7.13 28.98 7.13 28.41 6.44 28.5 6.44 29.01"/><polygon class="cls-1" points="8.52 28.91 9.03 28.89 9.03 28.16 8.52 28.23 8.52 28.91"/><polygon class="cls-1" points="6.18 29.02 6.18 28.53 5.97 28.56 5.97 29.04 6.18 29.02"/><polygon class="cls-1" points="7.56 26.38 6.63 26.75 6.63 27.28 7.56 26.98 7.56 26.38"/><polygon class="cls-1" points="6.18 27.42 6.18 26.92 5.97 27.01 5.97 27.48 6.18 27.42"/><polygon class="cls-1" points="8.14 26.8 9.03 26.52 9.03 25.79 8.14 26.15 8.14 26.8"/><polygon class="cls-1" points="8.19 25.11 6.97 25.75 6.97 26.31 8.19 25.77 8.19 25.11"/><polygon class="cls-1" points="8.53 25.62 9.03 25.4 9.03 24.67 8.53 24.94 8.53 25.62"/><polygon class="cls-1" points="6.63 26.46 6.63 25.93 5.97 26.27 5.97 26.75 6.63 26.46"/><polygon class="cls-1" points="7.5 24.44 6.63 25.02 6.63 25.55 7.5 25.04 7.5 24.44"/><polygon class="cls-1" points="7.85 24.84 9.03 24.15 9.03 23.43 7.85 24.21 7.85 24.84"/><polygon class="cls-1" points="6.26 25.76 6.26 25.26 5.97 25.45 5.97 25.93 6.26 25.76"/><polygon class="cls-1" points="7.82 23.26 7.43 23.57 7.43 24.17 7.82 23.89 7.82 23.26"/><polygon class="cls-1" points="6.69 24.69 7.1 24.4 7.1 23.83 6.69 24.16 6.69 24.69"/><polygon class="cls-1" points="8.5 23.41 9.03 23.03 9.03 22.3 8.5 22.72 8.5 23.41"/><polygon class="cls-1" points="6.29 24.97 6.29 24.47 5.97 24.72 5.97 25.2 6.29 24.97"/><polygon class="cls-1" points="6.76 23.71 6.76 23.16 5.97 23.9 5.97 24.38 6.76 23.71"/><polygon class="cls-1" points="7.49 22.49 7.12 22.83 7.12 23.4 7.49 23.09 7.49 22.49"/><polygon class="cls-1" points="7.86 22.78 9.03 21.79 9.03 21.06 7.86 22.14 7.86 22.78"/><polygon class="cls-1" points="7.98 21.05 6.59 22.51 6.59 23.04 7.98 21.69 7.98 21.05"/><polygon class="cls-1" points="6.23 23.39 6.23 22.9 5.97 23.17 5.97 23.64 6.23 23.39"/><polygon class="cls-1" points="8.53 21.16 9.03 20.66 9.03 19.94 8.53 20.47 8.53 21.16"/><polygon class="cls-1" points="6.95 21.74 7.33 21.32 7.33 20.73 6.95 21.18 6.95 21.74"/><polygon class="cls-1" points="8.06 19.85 7.68 20.31 7.68 20.93 8.06 20.5 8.06 19.85"/><polygon class="cls-1" points="8.44 20.08 9.03 19.42 9.03 18.69 8.44 19.4 8.44 20.08"/><polygon class="cls-1" points="6.58 22.14 6.58 21.62 5.97 22.35 5.97 22.83 6.58 22.14"/><polygon class="cls-1" points="6.75 21.15 7.19 20.6 7.19 20.03 6.75 20.61 6.75 21.15"/><polygon class="cls-1" points="8.35 18.5 7.54 19.57 7.54 20.18 8.35 19.17 8.35 18.5"/><polygon class="cls-1" points="8.66 18.78 9.03 18.32 9.03 17.6 8.66 18.09 8.66 18.78"/><polygon class="cls-1" points="6.28 21.72 6.28 21.22 5.97 21.63 5.97 22.11 6.28 21.72"/><polygon class="cls-1" points="6.71 20.28 7.21 19.58 7.21 19 6.71 19.74 6.71 20.28"/><polygon class="cls-1" points="7.85 18.08 7.51 18.57 7.51 19.17 7.85 18.71 7.85 18.08"/><polygon class="cls-1" points="6.35 20.77 6.35 20.27 5.97 20.82 5.97 21.29 6.35 20.77"/><polygon class="cls-1" points="8.25 18.15 9.03 17.08 9.03 16.35 8.25 17.49 8.25 18.15"/><polygon class="cls-1" points="6.75 19.22 6.75 18.68 5.97 19.93 5.97 20.41 6.75 19.22"/><polygon class="cls-1" points="8.22 16.32 7.13 18.06 7.13 18.63 8.22 16.98 8.22 16.32"/><polygon class="cls-1" points="8.63 16.35 9.03 15.73 9.03 15 8.63 15.66 8.63 16.35"/><polygon class="cls-1" points="8.21 15.2 7.49 16.45 7.49 17.05 8.21 15.86 8.21 15.2"/><polygon class="cls-1" points="6.53 18.66 7.06 17.78 7.06 17.21 6.53 18.14 6.53 18.66"/><polygon class="cls-1" points="6.19 19.22 6.19 18.73 5.97 19.11 5.97 19.59 6.19 19.22"/><polygon class="cls-1" points="8.64 15.14 9.03 14.48 9.03 13.76 8.64 14.45 8.64 15.14"/><polygon class="cls-1" points="8.82 12.88 8.36 13.75 8.36 14.42 8.82 13.59 8.82 12.88"/><polygon class="cls-1" points="6.42 17.93 6.42 17.42 5.97 18.27 5.97 18.75 6.42 17.93"/><polygon class="cls-1" points="7.75 15.53 8.14 14.81 8.14 14.16 7.75 14.91 7.75 15.53"/><polygon class="cls-1" points="6.77 17.3 7.4 16.15 7.4 15.56 6.77 16.75 6.77 17.3"/><polygon class="cls-1" points="8.42 12.47 8.07 13.19 8.07 13.84 8.42 13.15 8.42 12.47"/><polygon class="cls-1" points="6.32 17.26 6.71 16.5 6.71 15.96 6.32 16.75 6.32 17.26"/><polygon class="cls-1" points="7.05 15.82 7.63 14.69 7.63 14.08 7.05 15.26 7.05 15.82"/><polygon class="cls-1" points="6.14 17.6 6.14 17.11 5.97 17.46 5.97 17.93 6.14 17.6"/><polygon class="cls-1" points="8.69 12.63 9.03 11.95 9.03 11.22 8.69 11.93 8.69 12.63"/><path class="cls-1" d="M20,40A20,20,0,1,0,0,20,20,20,0,0,0,20,40ZM20,1.26A18.74,18.74,0,1,1,1.26,20,18.74,18.74,0,0,1,20,1.26Z"/></g></g></svg>