<svg xmlns="http://www.w3.org/2000/svg" viewBox="0 0 38 38"><defs><style>.cls-1{fill:#ecc358;}</style></defs><g id="Capa_2" data-name="Capa 2"><g id="Capa_1-2" data-name="Capa 1"><path class="cls-1" d="M19,0A19,19,0,1,0,38,18.9,19,19,0,0,0,19,0ZM29.68,23.21c-.13,2.29-1.1,3.13-3.39,3.27s-4.56.19-7.12.28c-2.35-.09-5-.15-7.59-.31-2.14-.13-3.12-1-3.24-3.1a79.4,79.4,0,0,1,0-8.59c.13-2.3,1.18-3.21,3.49-3.24,4.91,0,9.82,0,14.72,0,1.95,0,3,1.08,3.14,3.29A78.08,78.08,0,0,1,29.68,23.21Z"/><path class="cls-1" d="M16.42,22.48l6.68-3.62-6.68-3.48Z"/></g></g></svg>