<svg xmlns="http://www.w3.org/2000/svg" viewBox="0 0 40 40"><defs><style>.cls-1{fill:#ecc358;}</style></defs><g id="Capa_2" data-name="Capa 2"><g id="Capa_1-2" data-name="Capa 1"><path class="cls-1" d="M20,0A20,20,0,1,0,40,20,20,20,0,0,0,20,0Zm0,38.76A18.76,18.76,0,1,1,38.76,20,18.76,18.76,0,0,1,20,38.76Z"/><path class="cls-1" d="M7.38,10.05C2.62,17.19,3.94,22.26,4.29,23.63a9.59,9.59,0,0,0,1.86,3,1.78,1.78,0,0,1-.06-.47,1.88,1.88,0,0,1,1.7-1.86h0a32.31,32.31,0,0,1,2.37-12.7c3.21-8.15,8.41-9.42,8.41-9.42S12.14,2.91,7.38,10.05Z"/><path class="cls-1" d="M35.06,14.29c-3.84-7.67-8.89-9-10.25-9.42A9.39,9.39,0,0,0,21.25,5a1.86,1.86,0,0,1,1.21,2.58h0a32.34,32.34,0,0,1,9.85,8.36c5.48,6.84,4,12,4,12S38.89,22,35.06,14.29Z"/><path class="cls-1" d="M32.09,29.3a1.87,1.87,0,0,1-2.46-.56h0A32.37,32.37,0,0,1,17.41,33C8.74,34.23,5.06,30.35,5.06,30.35s3.81,5.23,12.37,5.83,12.31-3.06,13.32-4A9.42,9.42,0,0,0,32.46,29,1.76,1.76,0,0,1,32.09,29.3Z"/><path class="cls-1" d="M29.29,15.47a32.1,32.1,0,0,0-7-7.62,1.87,1.87,0,0,1-3.15-2c0-.07.09-.14.14-.21s-4.2,1.69-7.49,7.67a34.72,34.72,0,0,0-3.64,11A1.87,1.87,0,0,1,8,28.06s4.37,3.24,12,2.51a29.58,29.58,0,0,0,9.42-2.23,1.87,1.87,0,0,1,3.38-1.59h0S33.84,22,29.29,15.47ZM13,18.72V25.8H11.49V17.24h6.12a4.85,4.85,0,0,1,2.25.44c.26.13.5.31.74.45l-.89,1.32a2.17,2.17,0,0,0-2-.72H13ZM29,25.8h-.19c-1.58,0-3.15,0-4.73,0a4.1,4.1,0,0,1-3.81-2.37l-.05-.11c.42-.36.81-.71,1.19-1a2.75,2.75,0,0,0,.66,1.2,2.57,2.57,0,0,0,1.8.82c1.2,0,2.39,0,3.59,0l0,0V22.57H25.36v-1.5H29Zm0-7.08H24.12A2.67,2.67,0,0,0,21.5,20.5a1.49,1.49,0,0,0-.11.4,2.67,2.67,0,0,1-1.81,2.17l-.43.16L21.7,25.8l-.21,0H19.68a.48.48,0,0,1-.32-.13c-.71-.71-1.42-1.43-2.13-2.13a.52.52,0,0,0-.34-.14h-3V21.91h.23c1.28,0,2.56,0,3.84,0a2.22,2.22,0,0,0,1.49-.48,1.22,1.22,0,0,0,.46-.79,3.93,3.93,0,0,1,3.89-3.39c1.69-.06,3.39,0,5.09,0H29Z"/></g></g></svg>