<svg xmlns="http://www.w3.org/2000/svg" viewBox="0 0 40 40"><defs><style>.cls-1{fill:#ecc358;}</style></defs><g id="Capa_2" data-name="Capa 2"><g id="Capa_1-2" data-name="Capa 1"><path class="cls-1" d="M20,0A20,20,0,1,0,40,20,20,20,0,0,0,20,0Zm0,38.76A18.76,18.76,0,1,1,38.76,20,18.76,18.76,0,0,1,20,38.76Z"/><path class="cls-1" d="M4.19,13.88a.64.64,0,0,1,0-.27s0-.08.08-.09a.21.21,0,0,1,.14,0,3,3,0,0,1,.46.18l1.74.77a1.75,1.75,0,0,1,.33.18l0,.06a.1.1,0,0,1,0,.08.3.3,0,0,1,0,.12,1.6,1.6,0,0,1-.07.19l.09,0,.54-1.22-.09,0a.89.89,0,0,1-.17.27l-.06,0a.11.11,0,0,1-.08,0l-.13,0-.22-.09L4.11,12.85l0,.08,0,1Z"/><path class="cls-1" d="M3.39,16.87a.56.56,0,0,1,0-.28.18.18,0,0,1,.19-.14,2.51,2.51,0,0,1,.49.08l1.86.4a1.16,1.16,0,0,1,.36.11.1.1,0,0,1,.05,0,.34.34,0,0,1,0,.08.24.24,0,0,1,0,.12.88.88,0,0,1,0,.2l.1,0,.28-1.3-.1,0a.64.64,0,0,1-.11.3.1.1,0,0,1,0,.06l-.07,0H6.23l-.23,0-2.91-.63,0,.08.23.93Z"/><path class="cls-1" d="M15.63,5.61a2,2,0,0,0,.38.5,1.19,1.19,0,0,0,.43.27.67.67,0,0,0,.44,0,.64.64,0,0,0,.2-.08,1.33,1.33,0,0,0,.19-.14A1.39,1.39,0,0,0,17.42,6a1.13,1.13,0,0,0,.12-.21,1.91,1.91,0,0,0,.1-.34,2,2,0,0,0,0-.35,1.56,1.56,0,0,0,0-.37c0-.12,0-.25-.07-.39a2.25,2.25,0,0,0-.71-1.26.94.94,0,0,0-.8-.23.61.61,0,0,0-.29.14.8.8,0,0,0-.22.23,1.29,1.29,0,0,0-.16.31c0,.11-.06.22-.08.33a2.4,2.4,0,0,0,.06,1.05A2.89,2.89,0,0,0,15.63,5.61Zm.17-2.3a.49.49,0,0,1,.3-.3.42.42,0,0,1,.33.06,1,1,0,0,1,.27.33,3.15,3.15,0,0,1,.35.95,5.89,5.89,0,0,1,.14.71,2.58,2.58,0,0,1,0,.54,1.12,1.12,0,0,1,0,.27.84.84,0,0,1-.09.19.39.39,0,0,1-.56.13,1,1,0,0,1-.27-.32,2.36,2.36,0,0,1-.22-.45,4.12,4.12,0,0,1-.16-.56,3.43,3.43,0,0,1-.09-.44L15.74,4A1.6,1.6,0,0,1,15.8,3.31Z"/><path class="cls-1" d="M3.11,20.22a1.52,1.52,0,0,0,.3.17,2.66,2.66,0,0,0,1,.21,2.51,2.51,0,0,0,.74-.08,1.69,1.69,0,0,0,.58-.24,1.22,1.22,0,0,0,.37-.34.73.73,0,0,0,.14-.42.58.58,0,0,0,0-.22,1,1,0,0,0-.09-.21,1.43,1.43,0,0,0-.14-.2.85.85,0,0,0-.17-.16,1.44,1.44,0,0,0-.31-.19,1.61,1.61,0,0,0-.33-.12l-.36-.07-.4,0a2.18,2.18,0,0,0-1.39.37.94.94,0,0,0-.43.72.87.87,0,0,0,.06.32,1,1,0,0,0,.17.27A1.38,1.38,0,0,0,3.11,20.22Zm-.19-1.1a1,1,0,0,1,.39-.19,3.66,3.66,0,0,1,1-.1,7.18,7.18,0,0,1,.72.05,3.34,3.34,0,0,1,.53.1,1.18,1.18,0,0,1,.25.1.61.61,0,0,1,.17.14.42.42,0,0,1,.09.14.4.4,0,0,1,0,.15.35.35,0,0,1-.14.28A1.07,1.07,0,0,1,5.6,20a3.07,3.07,0,0,1-.49.09,3.79,3.79,0,0,1-.59,0,3.4,3.4,0,0,1-.45,0L3.61,20A1.44,1.44,0,0,1,3,19.78a.44.44,0,0,1-.21-.36A.4.4,0,0,1,2.92,19.12Z"/><path class="cls-1" d="M9.92,6.17a.14.14,0,0,1,.12,0,.17.17,0,0,1,.12.06,2,2,0,0,1,.31.38l1.09,1.56a1.41,1.41,0,0,1,.2.33v.06a.16.16,0,0,1,0,.08l-.08.09-.16.13.06.07,1.08-.76-.05-.08a.87.87,0,0,1-.29.15h-.07a.11.11,0,0,1-.07,0,.3.3,0,0,1-.09-.1,2.11,2.11,0,0,1-.15-.19L10.2,5.46l-.07,0-.46.84.08,0A.73.73,0,0,1,9.92,6.17Z"/><path class="cls-1" d="M5.5,11.22a1.92,1.92,0,0,0,.18.31,3,3,0,0,0,1.45,1,2.38,2.38,0,0,0,.62.09,1.15,1.15,0,0,0,.5-.11.75.75,0,0,0,.33-.28.72.72,0,0,0,.09-.2,1,1,0,0,0,0-.24,1.94,1.94,0,0,0,0-.24,1.55,1.55,0,0,0-.07-.23A1.51,1.51,0,0,0,8.45,11a3,3,0,0,0-.22-.28L8,10.5c-.1-.08-.21-.15-.33-.23a2.13,2.13,0,0,0-1.38-.39.92.92,0,0,0-.74.39.72.72,0,0,0-.11.31.87.87,0,0,0,0,.32A1.31,1.31,0,0,0,5.5,11.22Zm.14-.85a.37.37,0,0,1,.27-.19,1,1,0,0,1,.43,0,3.41,3.41,0,0,1,.91.42c.24.15.43.29.6.41a4,4,0,0,1,.41.36,1.34,1.34,0,0,1,.16.22,1,1,0,0,1,.08.2.48.48,0,0,1,0,.17.46.46,0,0,1-.05.14.33.33,0,0,1-.27.17,1.17,1.17,0,0,1-.41,0,2.79,2.79,0,0,1-.47-.18,3.22,3.22,0,0,1-.51-.28c-.13-.08-.26-.16-.38-.25l-.36-.29a1.37,1.37,0,0,1-.41-.5A.44.44,0,0,1,5.64,10.37Z"/><path class="cls-1" d="M13,6.74a2,2,0,0,0,.47.42,1.35,1.35,0,0,0,.48.18.7.7,0,0,0,.43-.07.57.57,0,0,0,.18-.12A.93.93,0,0,0,14.72,7a1.51,1.51,0,0,0,.11-.22,1.87,1.87,0,0,0,.07-.22,2.19,2.19,0,0,0,0-.36c0-.11,0-.23,0-.35s-.06-.23-.1-.35l-.16-.37a2.19,2.19,0,0,0-1-1.08A.91.91,0,0,0,12.84,4a.69.69,0,0,0-.25.19,1.17,1.17,0,0,0-.17.28,1.14,1.14,0,0,0-.08.33,2.06,2.06,0,0,0,0,.35,2.62,2.62,0,0,0,.28,1A2.28,2.28,0,0,0,13,6.74Zm-.32-2.28a.45.45,0,0,1,.23-.35.42.42,0,0,1,.33,0,.93.93,0,0,1,.34.26,3.36,3.36,0,0,1,.54.86,5.62,5.62,0,0,1,.28.66,4,4,0,0,1,.15.52.88.88,0,0,1,0,.27,1.12,1.12,0,0,1,0,.21,1,1,0,0,1-.09.15.47.47,0,0,1-.12.09.36.36,0,0,1-.32,0,1,1,0,0,1-.33-.24,2.77,2.77,0,0,1-.3-.4A5,5,0,0,1,13.09,6a3,3,0,0,1-.18-.41l-.15-.44A1.44,1.44,0,0,1,12.68,4.46Z"/><path class="cls-1" d="M7.57,8.3a.21.21,0,0,1,.1-.06l.14,0c.06,0,.19.14.39.31L9.61,9.85a1.48,1.48,0,0,1,.27.28.14.14,0,0,0,0,.06.13.13,0,0,1,0,.08.48.48,0,0,1-.05.11l-.13.16.07.06.89-1-.08-.06a.72.72,0,0,1-.24.2l-.07,0a.13.13,0,0,1-.08,0,.48.48,0,0,1-.11-.08,1,1,0,0,1-.18-.15l-2.22-2,0,.06-.27.92.09,0A.57.57,0,0,1,7.57,8.3Z"/><path class="cls-1" d="M18.71,5.57a1.23,1.23,0,0,0,.36.36.64.64,0,0,0,.42.12l.22,0,.21-.1a.9.9,0,0,0,.19-.15,1.29,1.29,0,0,0,.16-.18,1.34,1.34,0,0,0,.17-.31A2.13,2.13,0,0,0,20.55,5a2.2,2.2,0,0,0,.06-.37c0-.12,0-.26,0-.39A2.12,2.12,0,0,0,20.2,2.8a.93.93,0,0,0-.73-.4.64.64,0,0,0-.31.07,1.27,1.27,0,0,0-.27.18,1.39,1.39,0,0,0-.21.27,1.3,1.3,0,0,0-.16.31,2.52,2.52,0,0,0-.17,1,2.86,2.86,0,0,0,.1.73A2.14,2.14,0,0,0,18.71,5.57Zm.16-1.7c0-.15,0-.3.05-.46a1.57,1.57,0,0,1,.19-.62.45.45,0,0,1,.36-.22.38.38,0,0,1,.3.12,1,1,0,0,1,.2.38,3.19,3.19,0,0,1,.14,1c0,.27,0,.51,0,.72s-.05.38-.08.54a1.18,1.18,0,0,1-.1.25.59.59,0,0,1-.13.17.33.33,0,0,1-.14.1l-.14,0a.36.36,0,0,1-.29-.13A1,1,0,0,1,19,5.4a2.21,2.21,0,0,1-.11-.49,5.3,5.3,0,0,1,0-.59C18.86,4.17,18.86,4,18.87,3.87Z"/><path class="cls-1" d="M21.17,37.11a.16.16,0,0,1-.12,0A.22.22,0,0,1,21,37a2.34,2.34,0,0,1,0-.49l0-1.9a1.3,1.3,0,0,1,0-.38s0,0,0-.06,0,0,.06,0l.12,0h.21v-.1L20,34v.1a.79.79,0,0,1,.32,0l.06,0a.16.16,0,0,1,0,.07.44.44,0,0,1,0,.13,1.63,1.63,0,0,1,0,.24l0,3h.09l.85-.44,0-.08A.61.61,0,0,1,21.17,37.11Z"/><path class="cls-1" d="M17.69,34A.73.73,0,0,1,18,34l.07,0,0,.07a.53.53,0,0,1,0,.14s0,.13,0,.24l-.23,3H18l.89-.35,0-.08a.51.51,0,0,1-.27.06.16.16,0,0,1-.11-.05.2.2,0,0,1-.06-.12,3.43,3.43,0,0,1,0-.5l.14-1.89a1.79,1.79,0,0,1,.06-.38.1.1,0,0,1,0,0s0,0,.07,0l.12,0H19V34l-1.32-.11Z"/><path class="cls-1" d="M4.85,23.58a2.87,2.87,0,0,0,.7-.22A2.06,2.06,0,0,0,6.08,23a1.2,1.2,0,0,0,.29-.4.76.76,0,0,0,0-.44A.58.58,0,0,0,6.35,22a.8.8,0,0,0-.13-.19A1.45,1.45,0,0,0,6,21.59l-.2-.13a1.35,1.35,0,0,0-.34-.11,2,2,0,0,0-.35-.06H4.79l-.4.05A2.2,2.2,0,0,0,3.1,22a.93.93,0,0,0-.28.79.79.79,0,0,0,.12.3,1,1,0,0,0,.23.23,1.46,1.46,0,0,0,.3.17,1.59,1.59,0,0,0,.33.1A2.64,2.64,0,0,0,4.85,23.58Zm-1.58-.51A.44.44,0,0,1,3,22.75a.41.41,0,0,1,.07-.32,1.11,1.11,0,0,1,.34-.26,3.72,3.72,0,0,1,1-.3c.27-.05.51-.08.71-.1a3.35,3.35,0,0,1,.55,0,.76.76,0,0,1,.27.05l.19.1A.25.25,0,0,1,6.2,22a.42.42,0,0,1,.06.14.37.37,0,0,1-.08.3.91.91,0,0,1-.33.26,2.2,2.2,0,0,1-.46.19c-.17.05-.36.1-.57.14l-.45.06c-.15,0-.3,0-.46,0A1.5,1.5,0,0,1,3.27,23.07Z"/><path class="cls-1" d="M24,36.73a.16.16,0,0,1-.12,0,.17.17,0,0,1-.09-.11,2.6,2.6,0,0,1-.12-.47l-.36-1.87a1.49,1.49,0,0,1,0-.38s0,0,0-.06l.06-.06.11,0,.2-.05,0-.09-1.3.25,0,.09a.7.7,0,0,1,.32,0l.07,0a.1.1,0,0,1,0,.06.68.68,0,0,1,0,.13,1.7,1.7,0,0,1,0,.23l.57,2.92h.08l.77-.58-.06-.07A.72.72,0,0,1,24,36.73Z"/><path class="cls-1" d="M14.2,32.79a.77.77,0,0,0-.31-.31l-.21-.07h-.23l-.25,0-.22.08a2.2,2.2,0,0,0-.3.19,3,3,0,0,0-.25.25,1.58,1.58,0,0,0-.22.29,3.79,3.79,0,0,0-.2.34A2.2,2.2,0,0,0,11.72,35a.92.92,0,0,0,.45.7.9.9,0,0,0,.32.09,1.22,1.22,0,0,0,.32,0,1.37,1.37,0,0,0,.31-.13,1.87,1.87,0,0,0,.29-.2,2.57,2.57,0,0,0,.64-.83,3,3,0,0,0,.25-.69,2,2,0,0,0,0-.63A1.08,1.08,0,0,0,14.2,32.79Zm-.2.5a2.47,2.47,0,0,1-.13.48c-.07.17-.15.35-.25.54s-.14.26-.22.39a3.19,3.19,0,0,1-.26.38,1.31,1.31,0,0,1-.47.45.4.4,0,0,1-.42,0,.36.36,0,0,1-.2-.25,1,1,0,0,1,0-.43,3.74,3.74,0,0,1,.35-1,6.34,6.34,0,0,1,.37-.62,3.61,3.61,0,0,1,.32-.44l.21-.18a.82.82,0,0,1,.19-.09.52.52,0,0,1,.17,0l.14,0a.41.41,0,0,1,.2.26A.94.94,0,0,1,14,33.29Z"/><path class="cls-1" d="M15.63,33.39a1.12,1.12,0,0,1,.3.13l.05,0a.19.19,0,0,1,0,.08.83.83,0,0,1,0,.13,2.07,2.07,0,0,1-.06.24l-.8,2.86.09,0,.94-.17,0-.09a.92.92,0,0,1-.28,0,.26.26,0,0,1-.1-.07.26.26,0,0,1,0-.14,2.65,2.65,0,0,1,.11-.48l.51-1.83a1.25,1.25,0,0,1,.13-.36l0,0a.11.11,0,0,1,.08,0h.12l.2,0,0-.09-1.28-.36Z"/><path class="cls-1" d="M5.74,26.36A2.89,2.89,0,0,0,6.4,26a2.14,2.14,0,0,0,.46-.43,1.21,1.21,0,0,0,.23-.45.73.73,0,0,0,0-.44.69.69,0,0,0-.1-.19.93.93,0,0,0-.16-.18l-.2-.14-.22-.09a2.41,2.41,0,0,0-.35-.07,2,2,0,0,0-.35,0,1.72,1.72,0,0,0-.37.07,2,2,0,0,0-.38.11,2.1,2.1,0,0,0-1.18.83.94.94,0,0,0-.16.82.83.83,0,0,0,.17.27.86.86,0,0,0,.26.2,1.66,1.66,0,0,0,.31.12,1.41,1.41,0,0,0,.35.05A2.52,2.52,0,0,0,5.74,26.36ZM4.1,26.09a.41.41,0,0,1-.32-.27.33.33,0,0,1,0-.32.86.86,0,0,1,.3-.31A3.21,3.21,0,0,1,5,24.75q.39-.13.69-.21a3,3,0,0,1,.54-.09,1.17,1.17,0,0,1,.27,0l.2.07a.38.38,0,0,1,.14.11.37.37,0,0,1,.07.12.36.36,0,0,1,0,.32,1.1,1.1,0,0,1-.28.3,2.21,2.21,0,0,1-.43.25,4,4,0,0,1-.55.23L5.2,26l-.45.1A1.41,1.41,0,0,1,4.1,26.09Z"/><path class="cls-1" d="M6,28.54l1.65-.94A1.88,1.88,0,0,1,8,27.44H8.1s0,0,.07,0a.29.29,0,0,1,.08.08,2.06,2.06,0,0,1,.11.18l.09,0-.66-1.16-.08,0a1.28,1.28,0,0,1,.12.3.22.22,0,0,1,0,.08.07.07,0,0,1,0,.06l-.1.09-.21.12L4.89,28.7l0,.07.79.54,0-.07a.62.62,0,0,1-.2-.2.24.24,0,0,1,0-.12.49.49,0,0,1,.08-.12Z"/><path class="cls-1" d="M12,31.93a1.15,1.15,0,0,0-.05-.5.74.74,0,0,0-.25-.37.49.49,0,0,0-.19-.1.86.86,0,0,0-.23-.06,1,1,0,0,0-.24,0,.85.85,0,0,0-.23,0,1.2,1.2,0,0,0-.33.13,1.17,1.17,0,0,0-.3.19,2.09,2.09,0,0,0-.28.24l-.26.3a2.26,2.26,0,0,0-.55,1.34.91.91,0,0,0,.31.77.89.89,0,0,0,.29.15,1.15,1.15,0,0,0,.32,0,1.67,1.67,0,0,0,.66-.21,2.46,2.46,0,0,0,.78-.69,2.7,2.7,0,0,0,.39-.63A2.12,2.12,0,0,0,12,31.93Zm-.34-.05a2.34,2.34,0,0,1-.23.44,3.54,3.54,0,0,1-.34.48c-.09.12-.19.23-.29.34l-.33.33a1.41,1.41,0,0,1-.54.35.41.41,0,0,1-.42,0,.39.39,0,0,1-.16-.28,1.1,1.1,0,0,1,.09-.43,3.52,3.52,0,0,1,.53-.86c.17-.21.33-.39.47-.54a3.25,3.25,0,0,1,.41-.37.78.78,0,0,1,.23-.13l.21-.06a.47.47,0,0,1,.17,0,.27.27,0,0,1,.13.07.32.32,0,0,1,.14.28A.93.93,0,0,1,11.62,31.88Z"/><path class="cls-1" d="M9.59,30.73a1.84,1.84,0,0,0,.27-.57,1.11,1.11,0,0,0,.05-.5.69.69,0,0,0-.17-.41.79.79,0,0,0-.17-.14,1,1,0,0,0-.21-.1A.93.93,0,0,0,9.12,29a.6.6,0,0,0-.23,0,1.82,1.82,0,0,0-.35.06l-.33.13-.32.19-.31.25a2.13,2.13,0,0,0-.8,1.2.9.9,0,0,0,.16.82.79.79,0,0,0,.25.2,1.68,1.68,0,0,0,.32.09,1.31,1.31,0,0,0,.34,0,2.29,2.29,0,0,0,.34-.07,2.72,2.72,0,0,0,.9-.54A2.79,2.79,0,0,0,9.59,30.73Zm-.78.11a3.44,3.44,0,0,1-.36.28,3.62,3.62,0,0,1-.38.26,1.48,1.48,0,0,1-.6.25.44.44,0,0,1-.4-.14.39.39,0,0,1-.1-.31,1,1,0,0,1,.17-.4A3.44,3.44,0,0,1,7.82,30a5.55,5.55,0,0,1,.57-.44,2.87,2.87,0,0,1,.47-.29.9.9,0,0,1,.25-.08.86.86,0,0,1,.22,0l.16.05.12.09a.38.38,0,0,1,.08.31.8.8,0,0,1-.15.38,3.2,3.2,0,0,1-.3.4A5.63,5.63,0,0,1,8.81,30.84Z"/><path class="cls-1" d="M28.78,8.58a1.22,1.22,0,0,0,0,.51.75.75,0,0,0,.23.37.57.57,0,0,0,.18.12.88.88,0,0,0,.23.07,1,1,0,0,0,.24,0l.24,0a1.61,1.61,0,0,0,.33-.12,1.87,1.87,0,0,0,.31-.17l.29-.23a3.84,3.84,0,0,0,.27-.29,2.12,2.12,0,0,0,.62-1.3.86.86,0,0,0-.27-.79.61.61,0,0,0-.28-.16,1.13,1.13,0,0,0-.32,0,1.28,1.28,0,0,0-.33.06,1.85,1.85,0,0,0-.33.12,2.63,2.63,0,0,0-.82.65A2.56,2.56,0,0,0,29,8,2.18,2.18,0,0,0,28.78,8.58Zm.33.07a3.36,3.36,0,0,1,.25-.43,5,5,0,0,1,.37-.46L30,7.43l.34-.31A1.45,1.45,0,0,1,31,6.8a.41.41,0,0,1,.41.07.39.39,0,0,1,.14.3.93.93,0,0,1-.11.41,3.12,3.12,0,0,1-.57.84c-.18.2-.35.37-.5.52s-.3.25-.42.34a.81.81,0,0,1-.25.12.52.52,0,0,1-.21,0,.32.32,0,0,1-.17,0,.35.35,0,0,1-.12-.07.38.38,0,0,1-.13-.3A1.13,1.13,0,0,1,29.11,8.65Z"/><path class="cls-1" d="M34.64,14.51a2.56,2.56,0,0,0-.67.29,2,2,0,0,0-.49.4,1.3,1.3,0,0,0-.26.43.86.86,0,0,0,0,.45.82.82,0,0,0,.09.19,1.43,1.43,0,0,0,.15.18,1,1,0,0,0,.2.15,1.06,1.06,0,0,0,.21.11,2,2,0,0,0,.35.09,2,2,0,0,0,.35,0,2.19,2.19,0,0,0,.36,0l.39-.1a2.17,2.17,0,0,0,1.23-.76,1,1,0,0,0,.2-.81.69.69,0,0,0-.15-.28.72.72,0,0,0-.25-.21,1,1,0,0,0-.31-.14,1.87,1.87,0,0,0-.34-.08A2.85,2.85,0,0,0,34.64,14.51Zm1.63.36a.42.42,0,0,1,.3.29.36.36,0,0,1,0,.32,1,1,0,0,1-.31.29,3.71,3.71,0,0,1-.93.39,7.1,7.1,0,0,1-.71.17,4.22,4.22,0,0,1-.54.06,1.12,1.12,0,0,1-.27,0,.6.6,0,0,1-.2-.08.47.47,0,0,1-.13-.11.83.83,0,0,1-.07-.13.38.38,0,0,1,.05-.31,1,1,0,0,1,.3-.29,3,3,0,0,1,.44-.23,4.08,4.08,0,0,1,.56-.19l.44-.11.46-.07A1.36,1.36,0,0,1,36.27,14.87Z"/><path class="cls-1" d="M36.88,18.18a.23.23,0,0,1-.12.08,2.44,2.44,0,0,1-.49,0l-1.89.13a1.08,1.08,0,0,1-.38,0,.06.06,0,0,1-.06,0,.1.1,0,0,1,0-.06.34.34,0,0,1,0-.12c0-.05,0-.12,0-.2h-.09l.09,1.32h.1a.7.7,0,0,1,0-.32A.24.24,0,0,1,34,19a.13.13,0,0,1,.07,0l.13,0,.24,0,3-.21v-.08l-.48-.83-.08,0a.66.66,0,0,1,.1.26A.21.21,0,0,1,36.88,18.18Z"/><path class="cls-1" d="M26.89,7.91A.66.66,0,0,0,27.1,8a.85.85,0,0,0,.23,0,1,1,0,0,0,.24,0l.23-.07a2.27,2.27,0,0,0,.31-.17,1.49,1.49,0,0,0,.27-.23,3.48,3.48,0,0,0,.24-.28,2.7,2.7,0,0,0,.22-.33,2.21,2.21,0,0,0,.38-1.39.94.94,0,0,0-.41-.73.72.72,0,0,0-.31-.11,1.15,1.15,0,0,0-.32,0,1.35,1.35,0,0,0-.32.11,1.49,1.49,0,0,0-.3.18,2.6,2.6,0,0,0-.69.79,2.61,2.61,0,0,0-.3.67,2.06,2.06,0,0,0-.08.63,1.07,1.07,0,0,0,.11.49A.73.73,0,0,0,26.89,7.91Zm-.06-.81A2.7,2.7,0,0,1,27,6.63a3.71,3.71,0,0,1,.27-.52c.08-.13.16-.26.25-.38l.28-.37a1.66,1.66,0,0,1,.5-.42.44.44,0,0,1,.42,0,.41.41,0,0,1,.19.26,1.1,1.1,0,0,1,0,.43,3.78,3.78,0,0,1-.41.93c-.15.23-.28.43-.41.6a3.08,3.08,0,0,1-.35.41.81.81,0,0,1-.41.25h-.18a.33.33,0,0,1-.14,0,.39.39,0,0,1-.17-.27A1,1,0,0,1,26.83,7.1Z"/><path class="cls-1" d="M32.77,12.22a2.5,2.5,0,0,0-.41.48,1.32,1.32,0,0,0-.17.48.78.78,0,0,0,.06.43.75.75,0,0,0,.13.18.65.65,0,0,0,.18.15l.21.12.23.06a1.1,1.1,0,0,0,.36,0,2.21,2.21,0,0,0,.35,0l.35-.1.37-.16a2.17,2.17,0,0,0,1.07-1,.91.91,0,0,0,.06-.84.69.69,0,0,0-.2-.25.88.88,0,0,0-.28-.17,1.59,1.59,0,0,0-.33-.08,1.93,1.93,0,0,0-.34,0,2.71,2.71,0,0,0-1,.28A3.48,3.48,0,0,0,32.77,12.22Zm1.2-.09c.14-.05.29-.11.44-.15a1.4,1.4,0,0,1,.64-.08.41.41,0,0,1,.36.23.4.4,0,0,1,0,.32.93.93,0,0,1-.26.34,3.29,3.29,0,0,1-.85.55c-.25.12-.47.21-.66.29a3.65,3.65,0,0,1-.53.15.86.86,0,0,1-.27,0l-.2,0a.49.49,0,0,1-.15-.09.47.47,0,0,1-.09-.12.4.4,0,0,1,0-.32,1,1,0,0,1,.25-.33,2.1,2.1,0,0,1,.39-.3,5.06,5.06,0,0,1,.52-.29C33.69,12.25,33.83,12.18,34,12.13Z"/><path class="cls-1" d="M32.8,9.69l-1.52,1.15A1.44,1.44,0,0,1,31,11h-.07l-.07,0a.31.31,0,0,1-.1-.08,1.16,1.16,0,0,1-.13-.15l-.08.06.8,1.06.08-.06a.76.76,0,0,1-.16-.28.22.22,0,0,1,0-.08s0,0,0-.07a.73.73,0,0,1,.09-.09l.19-.15,2.38-1.79-.05-.06L33,8.89,33,9a.65.65,0,0,1,.23.17.15.15,0,0,1,0,.11.49.49,0,0,1-.06.13A3.12,3.12,0,0,1,32.8,9.69Z"/><path class="cls-1" d="M35.43,27a1.46,1.46,0,0,0-.21-.28,2.45,2.45,0,0,0-.85-.61,2.53,2.53,0,0,0-.7-.24,2.26,2.26,0,0,0-.63,0,1.29,1.29,0,0,0-.48.16.71.71,0,0,0-.3.32.79.79,0,0,0-.06.22.87.87,0,0,0,0,.23,1,1,0,0,0,.05.24.85.85,0,0,0,.09.22,1.49,1.49,0,0,0,.2.29,2,2,0,0,0,.25.25,2.28,2.28,0,0,0,.3.21,3.9,3.9,0,0,0,.35.19,2.25,2.25,0,0,0,1.43.24.92.92,0,0,0,.68-.48.71.71,0,0,0,.08-.31.86.86,0,0,0,0-.32A1.23,1.23,0,0,0,35.43,27Zm0,.86a.35.35,0,0,1-.24.22.87.87,0,0,1-.43,0,3.47,3.47,0,0,1-1-.32c-.25-.12-.46-.23-.64-.34a3.84,3.84,0,0,1-.45-.31,1.54,1.54,0,0,1-.18-.2.7.7,0,0,1-.1-.19.35.35,0,0,1,0-.17.33.33,0,0,1,0-.15.39.39,0,0,1,.25-.2.92.92,0,0,1,.41,0,2.59,2.59,0,0,1,.49.11,5.81,5.81,0,0,1,.54.23,3,3,0,0,1,.4.21l.39.24a1.38,1.38,0,0,1,.47.46A.41.41,0,0,1,35.39,27.89Z"/><path class="cls-1" d="M36.43,24.13a.65.65,0,0,1,0,.28.17.17,0,0,1-.07.1.23.23,0,0,1-.13,0,2.65,2.65,0,0,1-.48-.11l-1.83-.51a1.69,1.69,0,0,1-.36-.13s0,0-.05-.05a.14.14,0,0,1,0-.07.28.28,0,0,1,0-.13,1.43,1.43,0,0,1,0-.2l-.1,0-.36,1.28.1,0a.74.74,0,0,1,.12-.29l.06,0a.07.07,0,0,1,.08,0h.13l.23.06,2.86.8,0-.08-.17-.94Z"/><path class="cls-1" d="M33.63,30.28a.27.27,0,0,1-.1.06.24.24,0,0,1-.14,0A2.66,2.66,0,0,1,33,30l-1.5-1.17a1.5,1.5,0,0,1-.28-.26.14.14,0,0,1,0-.06.11.11,0,0,1,0-.08l.05-.11.12-.17-.08-.06-.81,1.05.07.06a.85.85,0,0,1,.23-.22l.07,0a.12.12,0,0,1,.08,0,.4.4,0,0,1,.12.07l.19.14L33.56,31l.06-.07.19-.94-.08,0A.81.81,0,0,1,33.63,30.28Z"/><path class="cls-1" d="M25.22,6.88a.85.85,0,0,1-.29-.14l-.05-.06a.19.19,0,0,1,0-.08.45.45,0,0,1,0-.13c0-.06,0-.13.07-.23l.95-2.82-.08,0-.95.12v.09a.51.51,0,0,1,.28,0,.16.16,0,0,1,.09.07s0,.08,0,.14a3.3,3.3,0,0,1-.13.47l-.61,1.8a1.08,1.08,0,0,1-.15.36l0,0-.07,0h-.13l-.19,0,0,.09L25.18,7Z"/><path class="cls-1" d="M31.6,32.57a.16.16,0,0,1-.11,0,.24.24,0,0,1-.13,0,2.67,2.67,0,0,1-.35-.35l-1.25-1.43a1.28,1.28,0,0,1-.22-.31.14.14,0,0,1,0-.06.24.24,0,0,1,0-.08l.07-.1.15-.15L29.7,30l-1,.88.06.07a.81.81,0,0,1,.27-.18h.07l.08,0,.1.09.16.18,1.95,2.24.07-.06.37-.88-.08,0A.65.65,0,0,1,31.6,32.57Z"/><path class="cls-1" d="M37.15,21a1.1,1.1,0,0,0-.25-.23,1.49,1.49,0,0,0-.3-.18,2.51,2.51,0,0,0-1-.24,2.56,2.56,0,0,0-.74.05,2.06,2.06,0,0,0-.59.22,1.12,1.12,0,0,0-.38.33.79.79,0,0,0-.15.41.57.57,0,0,0,0,.22,2,2,0,0,0,.08.22A1.43,1.43,0,0,0,34,22a1.33,1.33,0,0,0,.16.17,2.61,2.61,0,0,0,.3.2l.33.13.36.08.39,0a2.18,2.18,0,0,0,1.41-.32,1,1,0,0,0,.46-.7.68.68,0,0,0-.06-.32A.71.71,0,0,0,37.15,21Zm-.1.88a1,1,0,0,1-.39.17,3.45,3.45,0,0,1-1,.07L34.93,22l-.53-.12a.83.83,0,0,1-.25-.12L34,21.63a.6.6,0,0,1-.09-.15.89.89,0,0,1,0-.15.39.39,0,0,1,.15-.28,1,1,0,0,1,.38-.17,2.18,2.18,0,0,1,.49-.08,5.8,5.8,0,0,1,.59,0l.45,0,.45.08a1.39,1.39,0,0,1,.61.24.45.45,0,0,1,.2.37A.42.42,0,0,1,37.05,21.83Z"/><path class="cls-1" d="M22.85,6.14a.67.67,0,0,1-.31-.09.1.1,0,0,1-.06,0s0,0,0-.07a.28.28,0,0,1,0-.13c0-.06,0-.14,0-.24l.39-2.95h-.08l-.91.3,0,.09a.6.6,0,0,1,.27,0,.14.14,0,0,1,.11,0,.17.17,0,0,1,0,.13,2.15,2.15,0,0,1,0,.49L22.05,5.5a2,2,0,0,1-.08.38l0,0-.07,0h-.13l-.2,0v.1l1.32.17Z"/><path class="cls-1" d="M29.35,34.35a.14.14,0,0,1-.12,0,.22.22,0,0,1-.13-.06,2.78,2.78,0,0,1-.29-.4l-1-1.58a1.24,1.24,0,0,1-.19-.33v-.07a.13.13,0,0,1,0-.07.32.32,0,0,1,.08-.09.83.83,0,0,1,.17-.12l-.06-.09-1.1.74,0,.08a.8.8,0,0,1,.29-.14h.07a.09.09,0,0,1,.07,0,.45.45,0,0,1,.09.1l.14.2,1.65,2.47.07,0,.48-.83-.07,0A.82.82,0,0,1,29.35,34.35Z"/><path class="cls-1" d="M26.6,35.84a.17.17,0,0,1-.12,0,.31.31,0,0,1-.11-.09,3.48,3.48,0,0,1-.21-.45l-.69-1.77a1.38,1.38,0,0,1-.12-.36.64.64,0,0,1,0-.07s0,0,0-.06a.26.26,0,0,1,.1-.07l.19-.09,0-.09-1.23.49,0,.09a.72.72,0,0,1,.31-.08h.08a.13.13,0,0,1,.06,0l.07.12.09.22,1.09,2.76.08,0,.64-.7-.06-.06A.68.68,0,0,1,26.6,35.84Z"/><path class="cls-1" d="M32.3,20A12.3,12.3,0,1,0,20,32.3,12.3,12.3,0,0,0,32.3,20ZM9.74,16.54a8.29,8.29,0,0,1,4.62-1.13c2.12.22,3.58,2.05,4.92,4.13A1.76,1.76,0,0,0,18,20.8h0a2.11,2.11,0,0,0,0,1.14,1.82,1.82,0,0,0,.31.61,2.7,2.7,0,0,0-.42.55c-3.15,0-4.49-.13-6.47-2.24A7.29,7.29,0,0,1,9.74,16.54Zm1.62,10.39,0,0c.24-1.87.63-3.28,1.69-4.16a8.88,8.88,0,0,0,4.69.69A5,5,0,0,0,17,26.84C15.46,28.74,12.67,27.78,11.36,26.93Zm6.25.09a3.92,3.92,0,0,1,.13-2.28c.53-1.47,1.16-2.46,2-2.56l0,7.35A6.25,6.25,0,0,1,17.61,27Zm2.15-5.28a1.91,1.91,0,0,0-1.13.53c-.59-1.14,0-2.37,1.13-2.37Zm-3.53-6.13c0-2.56,1.88-3.68,3.52-5.14v9A10.3,10.3,0,0,0,16.23,15.61Zm14,.93a7.29,7.29,0,0,1-1.71,4.32c-2,2.11-3.32,2.24-6.47,2.24a2.7,2.7,0,0,0-.42-.55,1.82,1.82,0,0,0,.31-.61,2.11,2.11,0,0,0,0-1.14h0a1.76,1.76,0,0,0-1.28-1.26c1.34-2.08,2.8-3.91,4.92-4.13A8.29,8.29,0,0,1,30.26,16.54Zm-10-6.07c1.64,1.46,3.52,2.58,3.52,5.14a10.3,10.3,0,0,0-3.53,3.89Zm0,9.43c1.15,0,1.72,1.23,1.13,2.37a1.91,1.91,0,0,0-1.13-.53ZM22.39,27a6.25,6.25,0,0,1-2.15,2.51l0-7.35c.84.1,1.47,1.09,2,2.56A3.92,3.92,0,0,1,22.39,27Zm6.25-.09c-1.31.85-4.1,1.81-5.66-.09a5,5,0,0,0-.68-3.36A8.88,8.88,0,0,0,27,22.79c1.06.88,1.45,2.29,1.69,4.16Z"/></g></g></svg>