<svg xmlns="http://www.w3.org/2000/svg" viewBox="0 0 38 38"><defs><style>.cls-1{fill:#ecc358;}</style></defs><g id="Capa_2" data-name="Capa 2"><g id="Capa_1-2" data-name="Capa 1"><path class="cls-1" d="M19,0A19,19,0,1,1,0,18.79,19,19,0,0,1,19,0Zm-7.3,21.87-.23.21a11.28,11.28,0,0,0,1.63,1.8A13.53,13.53,0,0,0,15.53,25a24.23,24.23,0,0,1-2.9,1.31,23.71,23.71,0,0,1-3.07.53,11.55,11.55,0,0,0,5.89,1.73c7.16.16,12.55-5,12.91-12.38a2.18,2.18,0,0,1,.52-1.12,20.27,20.27,0,0,1,1.43-1.5l-.08-.13-1.94.47,1.55-2.05-.17-.17-1,.4a2.12,2.12,0,0,1-2.43-.18,4.29,4.29,0,0,0-6.66,3,11.72,11.72,0,0,0,0,1.68A12.94,12.94,0,0,1,10.47,12a4.88,4.88,0,0,0,1.08,5.81l-1.64-.38a5,5,0,0,0,3.14,4.31Z"/></g></g></svg>