<svg xmlns="http://www.w3.org/2000/svg" viewBox="0 0 38 38"><defs><style>.cls-1{fill:#ecc358;}</style></defs><g id="Capa_2" data-name="Capa 2"><g id="Capa_1-2" data-name="Capa 1"><path class="cls-1" d="M19.09,0A19,19,0,1,1,0,19,19.06,19.06,0,0,1,19.09,0ZM16.68,20V30.48h4.13V20h3.51l.5-4h-4c0-1,0-1.83,0-2.69,0-1.32.58-1.89,1.9-1.93H25c0-1.15,0-2.18,0-3.21a.7.7,0,0,0-.53-.45,22.56,22.56,0,0,0-2.85-.09c-3,.15-4.77,1.95-4.9,5,0,.42,0,.84,0,1.26V16H13.12c0,1.17,0,2.24,0,3.3,0,.57.21.73.74.72C14.74,20,15.63,20,16.68,20Z"/></g></g></svg>