<svg xmlns="http://www.w3.org/2000/svg" viewBox="0 0 38 38"><defs><style>.cls-1{fill:#ecc358;}</style></defs><g id="Capa_2" data-name="Capa 2"><g id="Capa_1-2" data-name="Capa 1"><path class="cls-1" d="M19,0A19,19,0,1,0,38,19,19,19,0,0,0,19,0ZM9.21,12.38a3.6,3.6,0,0,1,.66,0H27.81c.4,0,1-.17,1.09.4s-.34.82-.75,1c-2,1.11-4,2.2-6,3.29l-2,1.09a2.44,2.44,0,0,1-2.49,0c-2.64-1.44-5.3-2.87-7.95-4.33a2.4,2.4,0,0,1-.79-.73C8.63,12.77,8.78,12.47,9.21,12.38ZM29,24.71c0,1.05-.51,1.54-1.58,1.54H10.31c-1.1,0-1.61-.48-1.61-1.57,0-2.51,0-6.35,0-8.86,0-.77.15-.85.84-.49,2.62,1.38,5.24,2.75,7.85,4.15a2.78,2.78,0,0,0,2.89,0c2.61-1.41,5.24-2.77,7.85-4.15.73-.39.87-.31.87.5Z"/></g></g></svg>