<?xml version="1.0" encoding="UTF-8" standalone="no"?>
<!-- Created with Inkscape (http://www.inkscape.org/) -->

<svg
   xmlns:dc="http://purl.org/dc/elements/1.1/"
   xmlns:cc="http://creativecommons.org/ns#"
   xmlns:rdf="http://www.w3.org/1999/02/22-rdf-syntax-ns#"
   xmlns:svg="http://www.w3.org/2000/svg"
   xmlns="http://www.w3.org/2000/svg"
   xmlns:sodipodi="http://sodipodi.sourceforge.net/DTD/sodipodi-0.dtd"
   xmlns:inkscape="http://www.inkscape.org/namespaces/inkscape"
   width="6.3000002mm"
   height="6.2800002mm"
   viewBox="0 0 6.3000002 6.2800002"
   version="1.1"
   id="svg6582"
   inkscape:version="0.92.4 (5da689c313, 2019-01-14)"
   sodipodi:docname="user-login.svg">
  <defs
     id="defs6576" />
  <sodipodi:namedview
     id="base"
     pagecolor="#ffffff"
     bordercolor="#666666"
     borderopacity="1.0"
     inkscape:pageopacity="0.0"
     inkscape:pageshadow="2"
     inkscape:zoom="5.6"
     inkscape:cx="-2.0826311"
     inkscape:cy="46.500465"
     inkscape:document-units="mm"
     inkscape:current-layer="g7773"
     showgrid="false"
     inkscape:window-width="1920"
     inkscape:window-height="1001"
     inkscape:window-x="-9"
     inkscape:window-y="-9"
     inkscape:window-maximized="1" />
  <metadata
     id="metadata6579">
    <rdf:RDF>
      <cc:Work
         rdf:about="">
        <dc:format>image/svg+xml</dc:format>
        <dc:type
           rdf:resource="http://purl.org/dc/dcmitype/StillImage" />
        <dc:title></dc:title>
      </cc:Work>
    </rdf:RDF>
  </metadata>
  <g
     inkscape:label="Capa 1"
     inkscape:groupmode="layer"
     id="layer1"
     transform="translate(0,-290.72)">
    <g
       style="isolation:isolate"
       id="g7773"
       transform="matrix(0.26458333,0,0,0.26458333,-64.928417,208.90755)">
      <path
         inkscape:connector-curvature="0"
         d="m 254.32,320.82 a 5.87,5.87 0 0 0 7.07,-0.14 6.16,6.16 0 0 0 2.44,-5.06 5.68,5.68 0 0 0 -0.36,-2.05 6.09,6.09 0 0 0 -1.8,-2.64 5.83,5.83 0 0 0 -5.43,-1.27 6.29,6.29 0 0 0 -1.92,11.16 z"
         id="path2529"
         style="fill:#ffffff;fill-opacity:0.99078339" />
      <path
         inkscape:connector-curvature="0"
         d="m 268.77,330.16 a 12.48,12.48 0 0 0 -2.74,-5.8 11.59,11.59 0 0 0 -3.93,-3.05 0.25,0.25 0 0 0 -0.3,0 c -0.13,0.12 -0.27,0.23 -0.41,0.34 a 5.87,5.87 0 0 1 -7.07,0.14 8.13,8.13 0 0 1 -0.71,-0.58 0.21,0.21 0 0 0 -0.26,0 11.49,11.49 0 0 0 -2.72,1.7 12.47,12.47 0 0 0 -3.95,6.13 13,13 0 0 0 -0.5,3.47 c 0,0.18 0,0.22 0.23,0.22 h 22.38 c 0.19,0 0.25,-0.05 0.23,-0.23 -0.09,-0.78 -0.11,-1.57 -0.25,-2.34 z"
         id="path2531"
         style="fill:#ffffff;fill-opacity:0.99539173" />
    </g>
  </g>
</svg>
