<?xml version="1.0" encoding="UTF-8" standalone="no"?>
<!-- Created with Inkscape (http://www.inkscape.org/) -->

<svg
   xmlns:dc="http://purl.org/dc/elements/1.1/"
   xmlns:cc="http://creativecommons.org/ns#"
   xmlns:rdf="http://www.w3.org/1999/02/22-rdf-syntax-ns#"
   xmlns:svg="http://www.w3.org/2000/svg"
   xmlns="http://www.w3.org/2000/svg"
   xmlns:sodipodi="http://sodipodi.sourceforge.net/DTD/sodipodi-0.dtd"
   xmlns:inkscape="http://www.inkscape.org/namespaces/inkscape"
   version="1.1"
   id="svg68629"
   width="78"
   height="68"
   inkscape:version="0.92.4 (5da689c313, 2019-01-14)"
   sodipodi:docname="add-img.svg">
  <metadata
     id="metadata68635">
    <rdf:RDF>
      <cc:Work
         rdf:about="">
        <dc:format>image/svg+xml</dc:format>
        <dc:type
           rdf:resource="http://purl.org/dc/dcmitype/StillImage" />
        <dc:title></dc:title>
      </cc:Work>
    </rdf:RDF>
  </metadata>
  <defs
     id="defs68633" />
  <sodipodi:namedview
     pagecolor="#ffffff"
     bordercolor="#666666"
     borderopacity="1"
     objecttolerance="10"
     gridtolerance="10"
     guidetolerance="10"
     inkscape:pageopacity="0"
     inkscape:pageshadow="2"
     inkscape:window-width="1920"
     inkscape:window-height="1001"
     id="namedview68631"
     showgrid="false"
     inkscape:zoom="4.0676471"
     inkscape:cx="-3.5653979"
     inkscape:cy="27.717301"
     inkscape:window-x="-9"
     inkscape:window-y="-9"
     inkscape:window-maximized="1"
     inkscape:current-layer="svg68629" />
  <g
     transform="translate(-1007.6759,-1565.6171)"
     id="g69217">
    <path
       style="fill:#132370"
       inkscape:connector-curvature="0"
       class="cls-16"
       d="m 1046.72,1633.21 q -16.82,0 -33.63,0 a 8.48,8.48 0 0 1 -2.31,-0.25 2.61,2.61 0 0 1 -1.92,-3.33 8.82,8.82 0 0 1 0.66,-1.73 q 9.13,-18.14 18.3,-36.26 a 4.31,4.31 0 0 1 2.34,-2.49 2.85,2.85 0 0 1 3.17,0.94 c 0.78,0.84 1.46,1.76 2.15,2.66 q 8.43,11 16.86,22 c 1.25,1.64 2.77,2.8 4.9,2.3 a 7,7 0 0 0 2.83,-1.58 c 1.47,-1.29 2.77,-2.76 4.15,-4.14 2.57,-2.55 5.43,-2.32 7.51,0.63 q 5.74,8.14 11.44,16.33 c 0.75,1.07 1.57,2.21 0.85,3.58 -0.72,1.37 -2.09,1.3 -3.37,1.3 z"
       id="path67409" />
    <path
       style="fill:#132370"
       inkscape:connector-curvature="0"
       class="cls-16"
       d="m 1071.55,1577.58 a 10.95,10.95 0 1 1 -11,-10.92 10.95,10.95 0 0 1 11,10.92 z"
       id="path67411" />
  </g>
</svg>
