<?xml version="1.0" encoding="UTF-8" standalone="no"?>
<!-- Created with Inkscape (http://www.inkscape.org/) -->

<svg
   xmlns:dc="http://purl.org/dc/elements/1.1/"
   xmlns:cc="http://creativecommons.org/ns#"
   xmlns:rdf="http://www.w3.org/1999/02/22-rdf-syntax-ns#"
   xmlns:svg="http://www.w3.org/2000/svg"
   xmlns="http://www.w3.org/2000/svg"
   xmlns:sodipodi="http://sodipodi.sourceforge.net/DTD/sodipodi-0.dtd"
   xmlns:inkscape="http://www.inkscape.org/namespaces/inkscape"
   version="1.1"
   id="svg68629"
   width="67"
   height="68"
   inkscape:version="0.92.4 (5da689c313, 2019-01-14)"
   sodipodi:docname="add-file.svg">
  <metadata
     id="metadata68635">
    <rdf:RDF>
      <cc:Work
         rdf:about="">
        <dc:format>image/svg+xml</dc:format>
        <dc:type
           rdf:resource="http://purl.org/dc/dcmitype/StillImage" />
        <dc:title></dc:title>
      </cc:Work>
    </rdf:RDF>
  </metadata>
  <defs
     id="defs68633" />
  <sodipodi:namedview
     pagecolor="#ffffff"
     bordercolor="#666666"
     borderopacity="1"
     objecttolerance="10"
     gridtolerance="10"
     guidetolerance="10"
     inkscape:pageopacity="0"
     inkscape:pageshadow="2"
     inkscape:window-width="1920"
     inkscape:window-height="1001"
     id="namedview68631"
     showgrid="false"
     inkscape:zoom="4.0676471"
     inkscape:cx="-3.5653979"
     inkscape:cy="27.717301"
     inkscape:window-x="-9"
     inkscape:window-y="-9"
     inkscape:window-maximized="1"
     inkscape:current-layer="svg68629" />
  <g
     id="g69250"
     transform="translate(-1110.8837,-1565.5862)">
    <g
       id="g69245">
      <g
         id="g69241">
        <path
           style="fill:#132370"
           inkscape:connector-curvature="0"
           class="cls-16"
           d="m 1144.81,1566.66 v 0 a 33,33 0 0 0 -33,33 v 0 a 33,33 0 0 0 33,33 v 0 a 33,33 0 0 0 33,-33 v 0 a 33,33 0 0 0 -33,-33 z m 15.19,34.75 a 2,2 0 0 1 -2,2 h -8.58 v 10 a 2,2 0 0 1 -2,2 h -4.06 a 2,2 0 0 1 -2,-2 v -10 h -8.61 a 2,2 0 0 1 -2,-2 v -3.65 a 2,2 0 0 1 2,-2 h 8.61 v -9.46 a 2,2 0 0 1 2,-2 h 4.06 a 2,2 0 0 1 2,2 v 9.46 h 8.58 a 2,2 0 0 1 2,2 z"
           id="path67407" />
      </g>
    </g>
  </g>
</svg>
