<?xml version="1.0" encoding="UTF-8" standalone="no"?>
<!-- Created with Inkscape (http://www.inkscape.org/) -->

<svg
   xmlns:dc="http://purl.org/dc/elements/1.1/"
   xmlns:cc="http://creativecommons.org/ns#"
   xmlns:rdf="http://www.w3.org/1999/02/22-rdf-syntax-ns#"
   xmlns:svg="http://www.w3.org/2000/svg"
   xmlns="http://www.w3.org/2000/svg"
   xmlns:sodipodi="http://sodipodi.sourceforge.net/DTD/sodipodi-0.dtd"
   xmlns:inkscape="http://www.inkscape.org/namespaces/inkscape"
   version="1.1"
   id="svg60867"
   width="300"
   height="300"
   inkscape:version="0.92.4 (5da689c313, 2019-01-14)"
   sodipodi:docname="add-avatar.svg">
  <metadata
     id="metadata60873">
    <rdf:RDF>
      <cc:Work
         rdf:about="">
        <dc:format>image/svg+xml</dc:format>
        <dc:type
           rdf:resource="http://purl.org/dc/dcmitype/StillImage" />
        <dc:title></dc:title>
      </cc:Work>
    </rdf:RDF>
  </metadata>
  <defs
     id="defs60871">
    <clipPath
       id="clip-path">
      <path
         inkscape:connector-curvature="0"
         class="cls-1"
         d="M 438.71,997.94 A 129.31,129.31 0 0 1 309.47,867.84 c 0.28,-71.4 58.61,-129 130.3,-128.59 71.32,0.38 129.15,58.76 128.63,129.87 -0.53,71.55 -58.54,129.17 -129.69,128.82 z"
         id="path58990" />
    </clipPath>
  </defs>
  <sodipodi:namedview
     pagecolor="#ffffff"
     bordercolor="#666666"
     borderopacity="1"
     objecttolerance="10"
     gridtolerance="10"
     guidetolerance="10"
     inkscape:pageopacity="0"
     inkscape:pageshadow="2"
     inkscape:window-width="1920"
     inkscape:window-height="1001"
     id="namedview60869"
     showgrid="false"
     inkscape:zoom="2.36"
     inkscape:cx="173.61266"
     inkscape:cy="151.69492"
     inkscape:window-x="-9"
     inkscape:window-y="-9"
     inkscape:window-maximized="1"
     inkscape:current-layer="svg60867" />
  <g
     id="g60236"
     transform="translate(-299.13008,-729.8285)">
    <circle
       id="circle59468"
       r="22"
       cy="986.65997"
       cx="412"
       class="cls-32"
       style="fill:none" />
    <path
       id="path59630"
       d="M 438.69,1006.53 A 137.89,137.89 0 0 1 300.87,867.79 c 0.3,-76.15 62.5,-137.53 139,-137.13 76.07,0.4 137.74,62.66 137.18,138.49 -0.62,76.31 -62.48,137.75 -138.36,137.38 z"
       class="cls-47"
       inkscape:connector-curvature="0"
       style="fill:#132370" />
    <path
       id="path59632"
       d="M 438.71,997.94 A 129.31,129.31 0 0 1 309.47,867.84 c 0.28,-71.4 58.61,-129 130.3,-128.59 71.32,0.38 129.15,58.76 128.63,129.87 -0.53,71.55 -58.54,129.17 -129.69,128.82 z"
       class="cls-1"
       inkscape:connector-curvature="0"
       style="fill:#ffffff" />
    <g
       id="g59636"
       clip-path="url(#clip-path)"
       class="cls-48">
      <path
         id="path59634"
         d="m 439.19,920.6 q -26.18,0 -52.37,0 c -12.48,0 -20.07,-7.62 -20.07,-20.05 q 0,-27.45 0,-54.91 c 0,-11.93 7.62,-19.68 19.52,-19.84 q 5.88,-0.07 11.75,0 a 7.63,7.63 0 0 0 7.39,-4.49 34.82,34.82 0 0 1 3.82,-6.29 17.27,17.27 0 0 1 13.65,-6.42 c 11.07,-0.06 22.14,-0.13 33.2,0.06 6.92,0.11 12.13,3.5 15.61,9.48 0.6,1 1.08,2.12 1.61,3.19 a 7.39,7.39 0 0 0 7.12,4.47 c 4.69,0 9.38,-0.11 14.05,0.12 a 18.17,18.17 0 0 1 17.38,18.23 c 0.05,19.07 0,38.14 0,57.21 0,11.24 -7.79,19.19 -19,19.24 -17.85,0.05 -35.78,0 -53.66,0 z m 28.3,-50 c 0.36,-15.14 -12.14,-28 -27.55,-28.38 a 28.13,28.13 0 1 0 27.55,28.38 z"
         class="cls-47"
         inkscape:connector-curvature="0"
         style="fill:#132370" />
    </g>
    <rect
       id="rect59638"
       transform="rotate(90,541.66,952.8)"
       rx="30.42"
       height="60.880001"
       width="60.84"
       y="922.35999"
       x="511.23999"
       class="cls-47"
       style="fill:#132370" />
    <path
       id="path59640"
       d="m 547.37,947.72 h 11 a 2.56,2.56 0 0 1 2.56,2.56 V 955 a 2.55,2.55 0 0 1 -2.56,2.56 h -11 v 12.75 a 2.56,2.56 0 0 1 -2.56,2.56 h -5.19 a 2.57,2.57 0 0 1 -2.57,-2.56 v -12.8 H 526 a 2.56,2.56 0 0 1 -2.57,-2.56 v -4.67 a 2.57,2.57 0 0 1 2.57,-2.56 h 11 v -12.11 a 2.57,2.57 0 0 1 2.57,-2.56 h 5.19 a 2.56,2.56 0 0 1 2.56,2.56 z"
       class="cls-1"
       inkscape:connector-curvature="0"
       style="fill:#ffffff" />
  </g>
</svg>
