<?xml version="1.0" encoding="UTF-8" standalone="no"?>
<!-- Created with Inkscape (http://www.inkscape.org/) -->

<svg
   xmlns:dc="http://purl.org/dc/elements/1.1/"
   xmlns:cc="http://creativecommons.org/ns#"
   xmlns:rdf="http://www.w3.org/1999/02/22-rdf-syntax-ns#"
   xmlns:svg="http://www.w3.org/2000/svg"
   xmlns="http://www.w3.org/2000/svg"
   xmlns:sodipodi="http://sodipodi.sourceforge.net/DTD/sodipodi-0.dtd"
   xmlns:inkscape="http://www.inkscape.org/namespaces/inkscape"
   version="1.1"
   id="svg19741"
   width="755"
   height="755"
   inkscape:version="0.92.4 (5da689c313, 2019-01-14)"
   sodipodi:docname="calling-men.svg">
  <metadata
     id="metadata19747">
    <rdf:RDF>
      <cc:Work
         rdf:about="">
        <dc:format>image/svg+xml</dc:format>
        <dc:type
           rdf:resource="http://purl.org/dc/dcmitype/StillImage" />
        <dc:title></dc:title>
      </cc:Work>
    </rdf:RDF>
  </metadata>
  <defs
     id="defs19745">
    <clipPath
       id="clip-path">
      <path
         inkscape:connector-curvature="0"
         class="cls-1"
         d="m 651.51,1215.79 c -195.52,-1 -351.66,-158.14 -350.89,-353.25 0.76,-193.87 159.12,-350.16 353.78,-349.13 193.65,1 350.67,159.54 349.24,352.61 -1.43,194.27 -158.93,350.71 -352.13,349.77 z"
         id="path18357" />
    </clipPath>
  </defs>
  <sodipodi:namedview
     pagecolor="#ffffff"
     bordercolor="#666666"
     borderopacity="1"
     objecttolerance="10"
     gridtolerance="10"
     guidetolerance="10"
     inkscape:pageopacity="0"
     inkscape:pageshadow="2"
     inkscape:window-width="1920"
     inkscape:window-height="1001"
     id="namedview19743"
     showgrid="false"
     inkscape:zoom="0.63758065"
     inkscape:cx="166.94915"
     inkscape:cy="574.80395"
     inkscape:window-x="-9"
     inkscape:window-y="-9"
     inkscape:window-maximized="1"
     inkscape:current-layer="g19716" />
  <g
     id="g19716"
     transform="translate(-274.3323,-486.54473)">
    <g
       id="g20360">
      <path
         style="fill:#132370"
         inkscape:connector-curvature="0"
         class="cls-13"
         d="m 651.47,1239.11 c -208.51,-1 -375,-168.63 -374.2,-376.7 C 278.09,655.65 447,489 654.55,490.08 c 206.52,1.09 374,170.14 372.44,376 -1.53,207.2 -169.49,374.04 -375.52,373.03 z"
         id="path18497" />
      <path
         style="fill:#ffffff"
         inkscape:connector-curvature="0"
         class="cls-11"
         d="m 651.51,1215.79 c -195.52,-1 -351.66,-158.14 -350.89,-353.25 0.76,-193.87 159.12,-350.16 353.78,-349.13 193.65,1 350.67,159.54 349.24,352.61 -1.43,194.27 -158.93,350.71 -352.13,349.77 z"
         id="path18499" />
      <g
         class="cls-14"
         clip-path="url(#clip-path)"
         id="g18507">
        <path
           style="fill:#c38156"
           inkscape:connector-curvature="0"
           class="cls-15"
           d="m 729,1056.89 c 0,0 -26.2,64.7 -38.45,76.9 -13,12.91 -49.06,5 -60.87,-6.41 -11.38,-11 -41.65,-70.49 -41.65,-70.49 0,0 6.92,-29.35 -1.45,-49 a 269.56,269.56 0 0 0 -14.7,-29.71 c -21.06,-36.43 -52.34,-67.29 -62.45,-109.6 -2.83,-11.87 -9.67,-27.22 8,-35.59 l 16,26.13 c 0,-12.26 -0.19,-17.62 0,-23 2,-51.32 26.36,-99.53 95.13,-94.17 26.66,2.07 54.48,-3.8 81,-9.51 17.52,-3.76 27.43,0.55 37.07,14.59 17.77,25.88 27.88,54.42 34,84.8 3,15 6.51,5.67 9.75,0 13.3,17.82 10.8,58.85 -5.69,75.64 -25.54,26 -37,61.41 -60.68,88.78 -10.83,12.69 4.99,60.64 4.99,60.64 z"
           id="path18501" />
        <path
           style="fill:#2a1e16"
           inkscape:connector-curvature="0"
           class="cls-16"
           d="m 790.55,831.81 c -3.24,5.71 -6.71,15.08 -9.75,0 -6.12,-30.38 -16.23,-58.92 -34,-84.8 -9.64,-14 -19.55,-18.35 -37.07,-14.59 -26.55,5.71 -54.37,11.58 -81,9.51 -68.77,-5.36 -93.09,42.85 -95.13,94.17 -0.22,5.35 0,10.71 0,23 L 517.5,833 c -2,-29.44 -13,-57.65 -11.31,-87.68 1.29,-23 1.32,-46 24.83,-59.53 11.17,-6.41 4.23,-21 10.46,-26.82 6.5,-6 -0.46,-41.2 25.15,-14.77 1,1 5.69,0.36 5.7,0.28 2,-30 26.84,-28.57 45.56,-29.52 29.33,-1.49 60.52,-16.88 88.09,6.7 7,6 14,11.38 24.28,10.2 4.35,-0.5 12.85,1.08 12.83,1.33 -2.19,37.49 45.64,40.4 50.33,73.8 4.32,30.82 5.17,61.5 -0.43,91.71 -2.1,11.3 -3.36,21.92 -2.44,33.11 z"
           id="path18503" />
        <path
           style="fill:#bf272d"
           inkscape:connector-curvature="0"
           class="cls-17"
           d="m 918.72,1099.57 c -51.23,-39.35 -130.23,-43 -189.69,-42.68 -0.86,4.39 3.55,9.79 9,15.15 -3.27,3.44 -7.28,8.43 -9,13.69 -3.2,9.61 -16,41.65 -25.63,54.47 -9.63,12.82 -25.63,9.61 -41.65,9.61 0,0 -28.84,0 -38.45,-6.41 -9.61,-6.41 -22.43,-22.43 -30.15,-45.61 l -10,-29.86 c 3.41,-3.79 5.46,-7.52 4.87,-11 -59.63,0 -147,3.61 -198.47,42.67 37.32,47 84.11,79.62 140.76,97.26 v 1 l 12.82,9.61 53.15,10.79 84.62,2 92.92,-16 0.79,-6.15 c 57.95,-17.6 106.48,-49.66 144.11,-98.54 z"
           id="path18505" />
      </g>
    </g>
  </g>
</svg>
