<?xml version="1.0" encoding="UTF-8" standalone="no"?>
<!-- Created with Inkscape (http://www.inkscape.org/) -->

<svg
   xmlns:dc="http://purl.org/dc/elements/1.1/"
   xmlns:cc="http://creativecommons.org/ns#"
   xmlns:rdf="http://www.w3.org/1999/02/22-rdf-syntax-ns#"
   xmlns:svg="http://www.w3.org/2000/svg"
   xmlns="http://www.w3.org/2000/svg"
   xmlns:sodipodi="http://sodipodi.sourceforge.net/DTD/sodipodi-0.dtd"
   xmlns:inkscape="http://www.inkscape.org/namespaces/inkscape"
   version="1.1"
   id="svg60867"
   width="90"
   height="90"
   inkscape:version="0.92.4 (5da689c313, 2019-01-14)"
   sodipodi:docname="call-msj.svg">
  <metadata
     id="metadata60873">
    <rdf:RDF>
      <cc:Work
         rdf:about="">
        <dc:format>image/svg+xml</dc:format>
        <dc:type
           rdf:resource="http://purl.org/dc/dcmitype/StillImage" />
        <dc:title></dc:title>
      </cc:Work>
    </rdf:RDF>
  </metadata>
  <defs
     id="defs60871">
    <clipPath
       id="clip-path">
      <path
         inkscape:connector-curvature="0"
         class="cls-1"
         d="M 438.71,997.94 A 129.31,129.31 0 0 1 309.47,867.84 c 0.28,-71.4 58.61,-129 130.3,-128.59 71.32,0.38 129.15,58.76 128.63,129.87 -0.53,71.55 -58.54,129.17 -129.69,128.82 z"
         id="path58990" />
    </clipPath>
  </defs>
  <sodipodi:namedview
     pagecolor="#ffffff"
     bordercolor="#666666"
     borderopacity="1"
     objecttolerance="10"
     gridtolerance="10"
     guidetolerance="10"
     inkscape:pageopacity="0"
     inkscape:pageshadow="2"
     inkscape:window-width="1920"
     inkscape:window-height="1001"
     id="namedview60869"
     showgrid="false"
     inkscape:zoom="2.36"
     inkscape:cx="173.61266"
     inkscape:cy="151.69492"
     inkscape:window-x="-9"
     inkscape:window-y="-9"
     inkscape:window-maximized="1"
     inkscape:current-layer="svg60867" />
  <path
     style="fill:#ffffff"
     inkscape:connector-curvature="0"
     class="cls-1"
     d="M 45.154834,2.0891358 A 43.42,43.42 0 1 0 88.334836,45.689136 43.4,43.4 0 0 0 45.154834,2.0891358 Z m 16.14,62.0000002 c -4.28,3.77 -8.74,3.51 -14,0.15 -5.26,-3.36 -9.09,-7.85 -12.61,-12.86 a 73,73 0 0 1 -5.25,-8.16 25.46,25.46 0 0 1 -3.26,-10.95 c -0.19,-4.19 1.88,-7.05 5.32,-9.1 a 2,2 0 0 1 2.77,0.63 q 2.8,3.66 5.48,7.42 c 0.89,1.25 0.58,2.51 -0.77,3.51 a 5,5 0 0 0 -2.24,2.63 3.92,3.92 0 0 0 0.68,3.47 c 2.46,3.39 5.05,6.69 7.39,10.16 a 23.81,23.81 0 0 0 1.71,2 3.78,3.78 0 0 0 5.62,0.73 c 2.52,-1.81 3.28,-1.64 5.12,0.95 1.45,2 3,4 4.45,6 1.06,1.45 0.89,2.25 -0.41,3.4 z"
     id="path64302" />
</svg>
