<?xml version="1.0" encoding="UTF-8" standalone="no"?>
<!-- Created with Inkscape (http://www.inkscape.org/) -->

<svg
   xmlns:dc="http://purl.org/dc/elements/1.1/"
   xmlns:cc="http://creativecommons.org/ns#"
   xmlns:rdf="http://www.w3.org/1999/02/22-rdf-syntax-ns#"
   xmlns:svg="http://www.w3.org/2000/svg"
   xmlns="http://www.w3.org/2000/svg"
   xmlns:sodipodi="http://sodipodi.sourceforge.net/DTD/sodipodi-0.dtd"
   xmlns:inkscape="http://www.inkscape.org/namespaces/inkscape"
   version="1.1"
   id="svg2"
   width="82"
   height="82"
   inkscape:version="0.92.4 (5da689c313, 2019-01-14)"
   sodipodi:docname="dibujo2.svg">
  <metadata
     id="metadata8">
    <rdf:RDF>
      <cc:Work
         rdf:about="">
        <dc:format>image/svg+xml</dc:format>
        <dc:type
           rdf:resource="http://purl.org/dc/dcmitype/StillImage" />
        <dc:title></dc:title>
      </cc:Work>
    </rdf:RDF>
  </metadata>
  <defs
     id="defs6" />
  <sodipodi:namedview
     pagecolor="#ffffff"
     bordercolor="#666666"
     borderopacity="1"
     objecttolerance="10"
     gridtolerance="10"
     guidetolerance="10"
     inkscape:pageopacity="0"
     inkscape:pageshadow="2"
     inkscape:window-width="1920"
     inkscape:window-height="1001"
     id="namedview4"
     showgrid="false"
     inkscape:zoom="2.36"
     inkscape:cx="-30.084746"
     inkscape:cy="50"
     inkscape:window-x="-9"
     inkscape:window-y="-9"
     inkscape:window-maximized="1"
     inkscape:current-layer="Capa_2" />
  <g
     data-name="Capa 2"
     id="Capa_2"
     transform="translate(10.423729,-6.305085)">
    <path
       inkscape:connector-curvature="0"
       d="m 30.720355,7.8871576 a 40,40 0 1 0 40,40.0000004 40,40 0 0 0 -40,-40.0000004 z m 0,77.5200004 a 37.52,37.52 0 1 1 37.52,-37.52 37.52,37.52 0 0 1 -37.52,37.52 z"
       id="path10" />
    <path
       style="fill:#ffffff;fill-opacity:1;stroke-width:1.07042456"
       d="M 11.106888,42.317289 V 74.519927 H 49.658903 V 42.317289 Z m 20.183361,8.036546 c 2.380127,2.1e-5 4.309435,2.031363 4.308877,4.53676 -0.002,1.667497 -0.873146,3.199345 -2.26838,3.989005 v 7.804481 h -3.629408 v -7.58287 c -1.640154,-0.684921 -2.717853,-2.353241 -2.719966,-4.210616 -5.66e-4,-2.505396 1.92875,-4.536739 4.308877,-4.53676 z m -1.588911,8.747376 c 12.193422,7.310229 6.096711,3.655115 0,0 z"
       id="rect897"
       inkscape:connector-curvature="0"
       sodipodi:nodetypes="ccccccccccccccc" />
    <path
       style="fill:#ffffff;fill-opacity:1;stroke-width:0.42372882"
       d="M 26.059328,87.525802 C 9.1532181,84.865823 -3.8989615,72.512098 -7.4523215,55.807458 -8.301892,51.813564 -8.280942,44.346925 -7.4083215,40.127119 -4.4483515,25.813197 5.8021281,14.517045 19.852048,10.085874 c 22.47469,-7.0882339 46.29337,7.398694 50.78567,30.888703 0.8683,4.540289 0.54557,12.712288 -0.68609,17.372881 -2.76262,10.453793 -10.77655,20.278712 -20.49986,25.132458 -5.68092,2.835835 -10.17008,3.945801 -16.61277,4.107576 -3.02966,0.07608 -6.08051,0.04831 -6.77966,-0.06169 z m 15.39253,-3.098433 c 12.70547,-3.638258 21.98578,-12.657665 26.18031,-25.444317 1.09431,-3.335882 1.18307,-4.117687 1.20264,-10.593221 0.0184,-6.080127 -0.10609,-7.430938 -0.95481,-10.362357 -3.78412,-13.070031 -14.08736,-23.12507 -27.20203,-26.546733 -4.59574,-1.199046 -13.07984,-1.311792 -17.51225,-0.232723 -21.2552295,5.174582 -33.66056,26.235937 -27.8220995,47.235457 3.79764,13.659208 15.5388495,24.140844 30.0084395,26.789204 3.44881,0.631233 12.62615,0.149381 16.0998,-0.84531 z"
       id="path882"
       inkscape:connector-curvature="0" />
    <path
       style="fill:#ffffff;fill-opacity:1"
       d="M 15.767905,43.588475 C 21.128277,11.915662 38.187741,8.5549062 44.574157,44.012204 l -5.508474,-0.423729 c -1.635287,-26.5566 -13.744586,-29.258924 -18.13348,1.496268 z"
       id="rect918"
       inkscape:connector-curvature="0"
       sodipodi:nodetypes="ccccc" />
  </g>
</svg>
