<?xml version="1.0" encoding="UTF-8" standalone="no"?>
<!-- Created with Inkscape (http://www.inkscape.org/) -->

<svg
   xmlns:dc="http://purl.org/dc/elements/1.1/"
   xmlns:cc="http://creativecommons.org/ns#"
   xmlns:rdf="http://www.w3.org/1999/02/22-rdf-syntax-ns#"
   xmlns:svg="http://www.w3.org/2000/svg"
   xmlns="http://www.w3.org/2000/svg"
   xmlns:xlink="http://www.w3.org/1999/xlink"
   xmlns:sodipodi="http://sodipodi.sourceforge.net/DTD/sodipodi-0.dtd"
   xmlns:inkscape="http://www.inkscape.org/namespaces/inkscape"
   version="1.1"
   id="svg17350"
   width="1100"
   height="825"
   sodipodi:docname="iconos-back.svg"
   inkscape:version="0.92.4 (5da689c313, 2019-01-14)">
  <metadata
     id="metadata17356">
    <rdf:RDF>
      <cc:Work
         rdf:about="">
        <dc:format>image/svg+xml</dc:format>
        <dc:type
           rdf:resource="http://purl.org/dc/dcmitype/StillImage" />
        <dc:title></dc:title>
      </cc:Work>
    </rdf:RDF>
  </metadata>
  <defs
     id="defs17354">
    <radialGradient
       xlink:href="#Degradado_sin_nombre_10"
       gradientTransform="matrix(0,-1.03,1.16,0,-3382.0501,1656.17)"
       r="41.450001"
       fy="3215.0178"
       cy="3234.46"
       cx="1314.63"
       id="Degradado_sin_nombre_10-3" />
    <radialGradient
       gradientUnits="userSpaceOnUse"
       gradientTransform="matrix(0,-1.03,0.96,0,25.43,3407.4)"
       r="313.20001"
       fy="1393.4077"
       cy="1540.3"
       cx="1666.96"
       id="Degradado_sin_nombre_10">
      <stop
         id="stop842"
         stop-color="#43b5e7"
         offset="0" />
      <stop
         id="stop844"
         stop-color="#317fbb"
         offset="0.3" />
      <stop
         id="stop846"
         stop-color="#214e93"
         offset="0.62" />
      <stop
         id="stop848"
         stop-color="#172f79"
         offset="0.86" />
      <stop
         id="stop850"
         stop-color="#132370"
         offset="1" />
    </radialGradient>
    <radialGradient
       xlink:href="#Degradado_sin_nombre_10"
       gradientTransform="matrix(0,-1.03,1.16,0,-3382.0501,1656.17)"
       r="41.450001"
       fy="3081.7715"
       cy="3101.21"
       cx="1314.63"
       id="Degradado_sin_nombre_10-2" />
    <radialGradient
       gradientUnits="userSpaceOnUse"
       gradientTransform="matrix(0,-1.03,0.96,0,25.43,3407.4)"
       r="313.20001"
       fy="1393.4077"
       cy="1540.3"
       cx="1666.96"
       id="radialGradient17083">
      <stop
         id="stop17073"
         stop-color="#43b5e7"
         offset="0" />
      <stop
         id="stop17075"
         stop-color="#317fbb"
         offset="0.3" />
      <stop
         id="stop17077"
         stop-color="#214e93"
         offset="0.62" />
      <stop
         id="stop17079"
         stop-color="#172f79"
         offset="0.86" />
      <stop
         id="stop17081"
         stop-color="#132370"
         offset="1" />
    </radialGradient>
    <radialGradient
       gradientUnits="userSpaceOnUse"
       gradientTransform="matrix(0,-1.03,0.96,0,25.43,3407.4)"
       r="313.20001"
       fy="1393.4077"
       cy="1540.3"
       cx="1666.96"
       id="radialGradient17095">
      <stop
         id="stop17085"
         stop-color="#43b5e7"
         offset="0" />
      <stop
         id="stop17087"
         stop-color="#317fbb"
         offset="0.3" />
      <stop
         id="stop17089"
         stop-color="#214e93"
         offset="0.62" />
      <stop
         id="stop17091"
         stop-color="#172f79"
         offset="0.86" />
      <stop
         id="stop17093"
         stop-color="#132370"
         offset="1" />
    </radialGradient>
    <linearGradient
       gradientTransform="matrix(0.9829397,0,0,0.43196754,-945.08418,535.2134)"
       gradientUnits="userSpaceOnUse"
       y2="1299"
       x2="1497"
       y1="3219"
       x1="1497"
       id="Degradado_sin_nombre_32">
      <stop
         id="stop829"
         stop-color="#131970"
         offset="0.19" />
      <stop
         id="stop831"
         stop-color="#162277"
         offset="0.29" />
      <stop
         id="stop833"
         stop-color="#1e3c8b"
         offset="0.45" />
      <stop
         id="stop835"
         stop-color="#2b66ab"
         offset="0.67" />
      <stop
         id="stop837"
         stop-color="#3c9fd6"
         offset="0.91" />
      <stop
         id="stop839"
         stop-color="#43b5e7"
         offset="1" />
    </linearGradient>
    <radialGradient
       gradientTransform="translate(-1440.43,-2165.67)"
       xlink:href="#Degradado_sin_nombre_66"
       r="66"
       cy="3372"
       cx="1495"
       id="Degradado_sin_nombre_65" />
    <linearGradient
       gradientUnits="userSpaceOnUse"
       y2="1237.72"
       x2="2133.8601"
       y1="1237.72"
       x1="1355"
       id="Degradado_sin_nombre_66">
      <stop
         id="stop817"
         stop-color="gray"
         offset="0" />
      <stop
         id="stop819"
         stop-color="#666"
         offset="0.16" />
      <stop
         id="stop821"
         stop-color="#3d3d3d"
         offset="0.45" />
      <stop
         id="stop823"
         stop-color="#232323"
         offset="0.68" />
      <stop
         id="stop825"
         stop-color="#1a1a1a"
         offset="0.82" />
    </linearGradient>
  </defs>
  <sodipodi:namedview
     pagecolor="#ffffff"
     bordercolor="#666666"
     borderopacity="1"
     objecttolerance="10"
     gridtolerance="10"
     guidetolerance="10"
     inkscape:pageopacity="0"
     inkscape:pageshadow="2"
     inkscape:window-width="1920"
     inkscape:window-height="1001"
     id="namedview17352"
     showgrid="false"
     inkscape:zoom="0.417193"
     inkscape:cx="52.996215"
     inkscape:cy="367.59433"
     inkscape:window-x="-9"
     inkscape:window-y="-9"
     inkscape:window-maximized="1"
     inkscape:current-layer="g20547" />
  <g
     id="g20547"
     transform="translate(23.984861,-1090.603)">
    <g
       id="g20641"
       transform="translate(-13.587888,1078.2405)">
      <g
         transform="translate(-958.63859,-1301.2679)"
         id="g1346"
         class="cls-12"
         style="opacity:0.3;isolation:isolate">
        <path
           id="path1164"
           d="m 1685.65,2055.31 a 23.34,23.34 0 0 0 -8.48,1.8 2.29,2.29 0 0 1 -1.42,0.23 c -1,-0.24 -1.8,0.32 -2.4,1.61 l -6.71,-0.08 c 0,0.33 0,1.38 0,2.7 -11.82,-0.16 -32.31,-0.41 -41.84,-0.42 -12,0 -13.31,-10.24 -13.34,-14.64 -0.13,-28.6 -0.11,-55.6 0,-73.51 h -6 c -0.16,17.94 -0.18,45 0,73.58 0,10 5.16,20.62 19.34,20.62 9.51,0 30,0.26 41.8,0.42 0,1 0,1.8 0,2.07 l 6.66,0.08 c 0,0.13 0,0.27 0,0.41 a 2.06,2.06 0 0 0 2.55,1.73 1.28,1.28 0 0 1 1,0.15 21.19,21.19 0 0 0 9,2.35 c 2.89,0.06 5.78,0.07 8.67,0.1 a 3.52,3.52 0 0 0 0.47,0 c 0.08,-6.36 0.15,-12.68 0.22,-19 h -0.33 c -3.04,-0.15 -6.12,-0.24 -9.19,-0.2 z"
           class="cls-1"
           inkscape:connector-curvature="0"
           style="fill:#ffffff" />
        <path
           id="path1166"
           d="m 1759.34,2011.86 a 52.55,52.55 0 0 0 -52.1,46.25 l -10.37,-0.12 c -0.06,4.64 -0.11,9.31 -0.17,13.94 l 10.73,0.12 a 52.48,52.48 0 1 0 51.91,-60.19 z m -53.41,57.77 h -2 c 0,-0.93 0,-1.86 0,-2.79 h 1.94 c 0.13,0.91 0.13,1.83 0.06,2.79 z m 0.09,-6.76 h -1.93 c 0,-0.92 0,-1.84 0,-2.71 h 1.94 c -0.03,0.84 -0.03,1.84 -0.03,2.71 z m 53.32,47.94 a 46.48,46.48 0 1 1 46.47,-46.48 46.53,46.53 0 0 1 -46.47,46.48 z"
           class="cls-1"
           inkscape:connector-curvature="0"
           style="fill:#ffffff" />
        <path
           id="path1168"
           d="m 1778.88,2033.38 a 11.94,11.94 0 0 0 -16.94,-1.25 c -5.31,4.51 -10.56,9.09 -15.85,13.62 a 12.16,12.16 0 0 0 -3.42,14.9 c 0.21,0.49 0.35,0.54 0.76,0.19 1.71,-1.5 3.43,-3 5.17,-4.45 a 3,3 0 0 0 1.4,-2.21 2.66,2.66 0 0 1 0.47,-1.07 10.49,10.49 0 0 1 2.4,-2.7 c 3.14,-2.71 6.27,-5.44 9.44,-8.12 a 29.52,29.52 0 0 1 4.81,-3.81 4.59,4.59 0 0 1 6.06,0.88 c 1.47,1.56 2.9,3.18 4.21,4.87 2,2.62 1.86,4.89 -0.41,7.3 a 14.55,14.55 0 0 1 -1.06,1 l -6.63,5.71 c -0.81,0.7 -0.65,0.74 -1.42,-0.08 a 11.77,11.77 0 0 0 -10.34,-3.86 12.46,12.46 0 0 0 -6.92,3.25 c -5.22,4.54 -10.48,9 -15.72,13.55 a 11.92,11.92 0 0 0 -1.65,16.58 q 3,3.72 6.23,7.25 a 11.88,11.88 0 0 0 16.3,1.12 q 8.46,-7.14 16.79,-14.44 a 11.62,11.62 0 0 0 4,-8.92 13.49,13.49 0 0 0 -1.29,-5.51 c -0.22,-0.51 -0.4,-0.56 -0.82,-0.19 -2,1.74 -4,3.45 -6,5.17 -0.18,0.16 -0.41,0.3 -0.42,0.58 -0.13,2.11 -1.43,3.52 -2.91,4.81 q -4.27,3.72 -8.59,7.39 a 62.08,62.08 0 0 1 -5.24,4.36 c -2.65,1.8 -4.51,1.56 -6.63,-0.83 -1.15,-1.3 -2.25,-2.63 -3.38,-3.94 a 13.75,13.75 0 0 1 -1.62,-2.11 4,4 0 0 1 0.18,-4.6 12.72,12.72 0 0 1 2.25,-2.44 c 2.27,-2 4.55,-3.88 6.79,-5.86 0.47,-0.41 0.71,-0.37 1.11,0.07 a 11.93,11.93 0 0 0 17,1.1 q 8.12,-6.91 16.17,-13.92 a 12,12 0 0 0 1.32,-16.89 q -2.75,-3.28 -5.6,-6.5 z m -17.06,31.09 c -2.3,1.48 -3.89,1.25 -5.58,-0.22 -0.35,-0.31 -0.41,-0.51 0.07,-0.74 a 5.81,5.81 0 0 1 2.58,-0.74 4.4,4.4 0 0 1 2.92,1.09 c 0.27,0.21 0.36,0.38 0.01,0.61 z"
           class="cls-1"
           inkscape:connector-curvature="0"
           style="fill:#ffffff" />
        <path
           id="path1170"
           d="m 2015.09,1752.68 a 5.93,5.93 0 0 0 -5.55,-5.65 10.75,10.75 0 0 1 -4,-1.15 23.14,23.14 0 0 1 -4.91,-3.71 9.9,9.9 0 0 0 -7.56,-3.31 c -2.28,0 -4.57,0.08 -6.85,0 a 10.26,10.26 0 0 0 -8.45,3.66 13.08,13.08 0 0 1 -9,4.6 4.77,4.77 0 0 0 -4.59,3.93 56.83,56.83 0 0 0 -0.46,7.51 15.85,15.85 0 0 1 15,20 c 0.3,0 0.51,0.07 0.71,0.07 9.71,0 19.41,0 29.11,0 a 6.53,6.53 0 0 0 6.5,-6.3 c 0.16,-6.54 0.14,-13.1 0.05,-19.65 z m -25.26,18.39 a 11.62,11.62 0 1 1 11.74,-11.62 11.61,11.61 0 0 1 -11.74,11.62 z m 18.2,-14.33 a 2.55,2.55 0 0 1 -2.59,-2.64 2.59,2.59 0 0 1 2.53,-2.58 2.6101724,2.6101724 0 1 1 0.06,5.22 z"
           class="cls-1"
           inkscape:connector-curvature="0"
           style="fill:#ffffff" />
        <path
           id="path1172"
           d="m 1963.89,1761.36 a 12.79,12.79 0 1 0 12.67,12.85 12.72,12.72 0 0 0 -12.67,-12.85 z m 2.37,15.33 c 0,0.79 0,1.56 0,2.32 a 2.46,2.46 0 1 1 -4.92,0 c 0,-0.76 0,-1.53 0,-2.35 -2.08,-0.24 -4.85,0.54 -4.81,-2.61 0.04,-3.15 2.76,-2.24 4.8,-2.48 0,-0.78 0,-1.5 0,-2.21 a 2.46,2.46 0 0 1 2.47,-2.6 2.44,2.44 0 0 1 2.46,2.59 c 0,0.72 0,1.44 0,2.24 2.07,0.22 4.84,-0.62 4.8,2.57 -0.04,3.19 -2.75,2.28 -4.8,2.53 z"
           class="cls-1"
           inkscape:connector-curvature="0"
           style="fill:#ffffff" />
        <path
           id="path1174"
           d="m 1990.06,1751.28 a 8.16,8.16 0 1 0 -0.2,16.31 8.16,8.16 0 0 0 0.2,-16.31 z"
           class="cls-1"
           inkscape:connector-curvature="0"
           style="fill:#ffffff" />
        <path
           id="path1176"
           d="m 1920.9,1768.4 c -3,0.75 -6,1.45 -9,2.28 a 23.46,23.46 0 0 0 -7.74,3.91 2.17,2.17 0 0 1 -1.31,0.58 c -1.07,0 -1.66,0.78 -1.9,2.18 l -6.52,1.64 c 0.09,0.32 0.37,1.39 0.72,2.72 -7.72,2 -18.11,4.63 -24.65,6.13 -10.59,2.43 -12.7,10.5 -12.34,14.6 0,1.14 0,8.51 0,14.88 0,1 0,3.71 -4.81,5.37 a 21.81,21.81 0 0 1 -6.13,1 v 6 0 c 1.08,0 9.19,-0.16 13.82,-4.78 a 10.48,10.48 0 0 0 3.1,-7.64 c 0,-6.91 0,-15 0,-15 v -0.3 c 0,-0.66 -0.31,-6.49 7.7,-8.32 6.58,-1.51 17.07,-4.17 24.81,-6.17 0.24,0.93 0.41,1.64 0.47,1.9 l 6.46,-1.63 c 0,0.12 0.09,0.25 0.14,0.38 a 2.05,2.05 0 0 0 2.91,1 1.3,1.3 0 0 1 1,-0.12 21.26,21.26 0 0 0 9.29,0 c 2.81,-0.68 5.61,-1.41 8.41,-2.12 l 0.46,-0.13 c -1.56,-6.17 -3.11,-12.3 -4.67,-18.45 z"
           class="cls-1"
           inkscape:connector-curvature="0"
           style="fill:#ffffff" />
        <path
           id="path1178"
           d="m 1983.32,1714.22 a 48.83,48.83 0 0 0 -48.77,48.76 c 0,1.54 0.08,3.06 0.22,4.56 l -11.29,2.86 c 1.13,4.49 2.28,9 3.41,13.51 l 11.16,-2.82 a 48.76,48.76 0 1 0 45.27,-66.87 z m -52.32,56.41 1.88,-0.48 0.65,2.62 -1.86,0.49 c -0.19,-0.89 -0.41,-1.78 -0.67,-2.63 z m 2.29,9.17 c -0.22,-0.9 -0.45,-1.8 -0.67,-2.7 l 1.9,-0.45 0.67,2.68 z m 50,26 a 42.77,42.77 0 1 1 42.76,-42.77 42.82,42.82 0 0 1 -42.73,42.72 z"
           class="cls-1"
           inkscape:connector-curvature="0"
           style="fill:#ffffff" />
        <path
           id="path1180"
           d="m 1913.46,1702.55 a 2.92,2.92 0 0 0 0,0.33 c 0,3.08 -0.13,6.16 -0.1,9.24 a 23.76,23.76 0 0 0 1.8,8.47 2.22,2.22 0 0 1 0.23,1.42 c -0.23,1 0.33,1.81 1.62,2.4 0,2.2 -0.06,4.42 -0.09,6.72 0.31,0 1.26,0 2.47,0 v 8.09 c 0,3.16 -5.55,3.3 -5.57,3.3 -0.61,0 -60.77,0.07 -71.64,0 v 6 c 3.65,0 12.83,0 23.46,0 21.08,0 47.83,0 48.26,0 4,0 11.53,-2 11.53,-9.3 v -8 h 2.31 c 0,-2.26 0,-4.45 0.07,-6.66 h 0.41 a 2.05,2.05 0 0 0 1.73,-2.55 1.36,1.36 0 0 1 0.15,-1 21,21 0 0 0 2.35,-9 c 0.06,-2.89 0.08,-5.79 0.11,-8.68 0,-0.16 0,-0.33 0,-0.47 z"
           class="cls-1"
           inkscape:connector-curvature="0"
           style="fill:#ffffff" />
        <path
           id="path1182"
           d="m 1922.37,1586 a 52.47,52.47 0 0 0 -6.22,104.57 c 0,3.47 -0.08,7 -0.12,10.38 l 13.94,0.16 c 0,-3.56 0.08,-7.15 0.12,-10.73 A 52.48,52.48 0 0 0 1922.37,1586 Z m -1.47,107.73 h -2.71 v -1.93 h 2.71 c 0.01,0.58 0,1.25 0,1.88 z m 6.74,0.1 h -2.78 c 0,-0.61 0,-1.29 0,-2 h 2.77 c 0.03,0.66 0.02,1.33 0.01,1.95 z m -5.27,-8.88 a 46.48,46.48 0 1 1 46.47,-46.47 46.52,46.52 0 0 1 -46.47,46.42 z"
           class="cls-1"
           inkscape:connector-curvature="0"
           style="fill:#ffffff" />
        <path
           id="path1184"
           d="m 1958.69,1649.09 a 1.31,1.31 0 0 1 -1.5,-1 13.09,13.09 0 0 0 -0.84,-2.18 1.3,1.3 0 0 1 0.32,-1.74 c 0.81,-0.74 1.57,-1.52 2.21,-2.16 l -4.92,-4.91 c -0.7,0.71 -1.48,1.5 -2.24,2.3 a 1.09,1.09 0 0 1 -1.37,0.24 20.37,20.37 0 0 0 -2.15,-0.91 1.31,1.31 0 0 1 -1,-1.45 c 0,-1.2 0,-2.4 0,-3.61 h -6.91 c 0,1.26 0,2.46 0,3.66 a 1.26,1.26 0 0 1 -1,1.39 8.35,8.35 0 0 0 -1.61,0.65 1.3,1.3 0 0 1 -1.8,-0.31 c -0.9,-1 -1.85,-2 -2.71,-2.85 l -5,4.93 c 0.64,0.61 1.3,1.24 1.94,1.88 1.87,1.86 1.66,1.4 0.71,3.53 -0.62,1.41 -0.59,1.42 -2.14,1.42 h -3.82 v 6.92 c 1.44,0 2.82,0 4.2,0 a 1.05,1.05 0 0 1 1.16,0.85 10.29,10.29 0 0 0 0.55,1.56 1.35,1.35 0 0 1 -0.36,1.8 c -1,1 -2,2 -3,2.94 l 4.91,4.92 c 0.87,-0.89 1.79,-1.81 2.7,-2.75 a 1,1 0 0 1 1.35,-0.26 22.76,22.76 0 0 1 2.14,1.11 1.6,1.6 0 0 1 0.61,1 19.08,19.08 0 0 1 0,2.27 v 2 h 6.88 c 0,-1.18 0,-2.31 0,-3.44 a 1.12,1.12 0 0 1 1,-1.24 13.55,13.55 0 0 0 2.07,-0.68 1.34,1.34 0 0 1 1.75,0.36 c 0.79,0.87 1.63,1.69 2.36,2.44 l 4.93,-5 c -0.68,-0.66 -1.41,-1.38 -2.16,-2.09 a 1.09,1.09 0 0 1 -0.21,-1.48 26,26 0 0 0 1.14,-2.38 1.23,1.23 0 0 1 1.27,-0.85 c 1.13,0 2.26,0 3.4,0 v -6.8 c -0.95,-0.07 -1.91,-0.11 -2.86,-0.08 z m -15.89,10.35 a 8.35,8.35 0 1 1 8.35,-8.33 8.32,8.32 0 0 1 -8.35,8.33 z"
           class="cls-1"
           inkscape:connector-curvature="0"
           style="fill:#ffffff" />
        <path
           id="path1186"
           d="m 1928.35,1646.14 c 0.61,0 0.81,-0.26 1,-0.73 0.19,-0.47 0,-0.68 -0.3,-1 -0.88,-0.87 -1.76,-1.74 -2.62,-2.62 -0.62,-0.63 -0.62,-1.06 0,-1.68 q 2.85,-2.87 5.72,-5.71 c 0.65,-0.65 1.06,-0.64 1.73,0 0.93,0.92 1.88,1.83 2.77,2.79 0.38,0.42 0.69,0.24 1.06,0.09 0.37,-0.15 0.81,-0.22 0.78,-0.84 0,-1 0,-2.11 0,-3.17 0,-1.36 0.21,-1.56 1.58,-1.56 h 3.27 v -1.93 c 0,-0.19 0,-0.39 0,-0.69 h -5.21 c -1.13,0 -1.26,-0.12 -1.63,-1.15 -0.45,-1.26 -0.92,-2.5 -1.43,-3.73 -0.44,-1.06 -0.45,-1.15 0.38,-2 l 4,-4 -8.49,-8.48 c -1.33,1.34 -2.72,2.72 -4.09,4.13 a 1.19,1.19 0 0 1 -1.55,0.27 c -1.26,-0.56 -2.53,-1.11 -3.82,-1.6 a 1.21,1.21 0 0 1 -0.88,-1.31 c 0,-1.26 0,-2.52 0,-3.78 v -2.8 h -12 v 0.88 c 0,1.91 0,3.82 0,5.74 a 1.14,1.14 0 0 1 -0.84,1.25 c -1.15,0.42 -2.29,0.89 -3.41,1.4 a 1.18,1.18 0 0 1 -1.49,-0.29 c -0.88,-0.9 -1.78,-1.78 -2.67,-2.67 -0.89,-0.89 -1.67,-1.72 -2.42,-2.48 l -8.47,8.47 c 1.6,1.6 3.23,3.27 4.91,4.9 a 1.31,1.31 0 0 1 0.31,1.74 c -0.46,0.89 -0.86,1.82 -1.23,2.75 a 1.32,1.32 0 0 1 -1.41,1 c -2.32,0 -4.63,0 -7,0 h -0.78 v 12 h 0.77 c 2.12,0 4.23,0 6.35,0 a 1.28,1.28 0 0 1 1.47,1.07 12.79,12.79 0 0 0 0.56,1.72 c 0.86,2.31 1.06,1.74 -0.77,3.57 -1.52,1.54 -3.05,3.06 -4.53,4.52 l 8.45,8.44 c 0.12,-0.12 0.31,-0.28 0.48,-0.46 1.43,-1.42 2.86,-2.84 4.27,-4.27 a 1.18,1.18 0 0 1 1.61,-0.26 c 1,0.58 2.13,1.12 3.23,1.63 a 1.19,1.19 0 0 1 0.76,1.23 c 0,1.92 0,3.83 0,5.74 v 1.53 h 11.95 v -0.87 c 0,-1.74 0,-3.48 0,-5.22 a 1.18,1.18 0 0 1 1,-1.34 c 0.85,-0.2 1.68,-0.52 2.53,-0.74 a 0.78,0.78 0 0 0 0.65,-0.91 c 0,-2.34 0,-4.68 0,-7 0,-1.3 0.21,-1.51 1.55,-1.51 1.34,0 2.65,-0.11 3.9,-0.06 z m -14.57,1.51 a 13.44,13.44 0 1 1 13.45,-13.45 13.43,13.43 0 0 1 -13.45,13.45 z"
           class="cls-1"
           inkscape:connector-curvature="0"
           style="fill:#ffffff" />
        <path
           id="path1188"
           d="m 1909.83,1527.47 a 23.33,23.33 0 0 0 -8.47,1.8 2.22,2.22 0 0 1 -1.42,0.22 c -1,-0.23 -1.81,0.33 -2.4,1.62 l -6.72,-0.08 c 0,0.31 0,1.26 0,2.47 h -42.25 v 6 h 42.21 c 0,1.12 0,2 0,2.3 l 6.66,0.08 c 0,0.13 0,0.27 0,0.41 a 2.06,2.06 0 0 0 2.56,1.71 1.32,1.32 0 0 1 1,0.14 21.2,21.2 0 0 0 9,2.36 c 2.89,0.06 5.78,0.07 8.67,0.1 h 0.47 c 0.07,-6.36 0.15,-12.68 0.22,-19 h -0.33 c -3.03,-0.08 -6.12,-0.17 -9.2,-0.13 z"
           class="cls-1"
           inkscape:connector-curvature="0"
           style="fill:#ffffff" />
        <path
           id="path1190"
           d="m 1983.53,1484 a 52.55,52.55 0 0 0 -52.1,46.25 l -10.38,-0.12 c 0,4.64 -0.1,9.31 -0.16,13.94 l 10.73,0.12 a 52.48,52.48 0 1 0 51.91,-60.19 z m -53.41,57.77 h -1.95 c 0,-0.93 0,-1.86 0,-2.79 h 2 c -0.02,0.93 -0.03,1.85 -0.05,2.81 z m 0.08,-6.76 h -1.93 c 0,-0.92 0,-1.84 0,-2.72 h 1.94 c 0.02,0.9 0.01,1.82 -0.01,2.71 z m 53.33,47.94 a 46.48,46.48 0 1 1 46.47,-46.48 46.53,46.53 0 0 1 -46.47,46.53 z"
           class="cls-1"
           inkscape:connector-curvature="0"
           style="fill:#ffffff" />
        <path
           id="path1192"
           d="m 2002,1500.66 c -0.54,-0.18 -1.1,-0.31 -1.65,-0.46 h -31.65 a 1,1 0 0 1 -0.26,0.11 c -3.82,0.75 -5.64,2.94 -5.64,6.79 q 0,30 0,60 c 0,4.82 3.37,6.72 6.63,6.75 10.07,0.08 20.14,0.05 30.21,0 a 6.31,6.31 0 0 0 6.4,-4.78 10.19,10.19 0 0 0 0.22,-2.28 q 0,-29.73 0,-59.47 c 0,-0.34 0,-0.67 0,-1 a 6,6 0 0 0 -4.26,-5.66 z m -24.72,2.88 h 14.53 c 0.56,0 1,0.11 1.06,0.79 0.06,0.68 -0.27,0.9 -1,0.9 h -14.6 c -0.58,0 -1.07,-0.1 -1.1,-0.82 -0.03,-0.72 0.26,-0.87 1.08,-0.87 z m 7.28,67.54 a 3.35,3.35 0 1 1 3.29,-3.39 3.33,3.33 0 0 1 -3.32,3.39 z m 18.34,-9.08 h -36.72 v -53.41 h 36.72 z"
           class="cls-1"
           inkscape:connector-curvature="0"
           style="fill:#ffffff" />
        <path
           id="path1194"
           d="m 1904.63,1444.41 v -0.3 h -6 v 0.22 l -6.47,-0.07 c 0,0.08 0,0.2 0,0.33 0,3.08 -0.12,6.16 -0.09,9.23 a 23.55,23.55 0 0 0 1.8,8.48 2.22,2.22 0 0 1 0.23,1.42 c -0.23,1 0.33,1.8 1.61,2.4 0,2.19 0,4.42 -0.08,6.71 h 3.09 l 0.07,23.32 c 0,1 -0.32,9.83 -7.54,9.83 -10.34,0 -42.36,-0.49 -42.68,-0.5 l -0.1,6 c 0.33,0 32.4,0.5 42.78,0.5 10.66,0 13.52,-10.33 13.54,-15.81 l -0.07,-23.3 h 1.69 c 0,-2.26 0,-4.46 0.07,-6.66 h 0.41 a 2.06,2.06 0 0 0 1.73,-2.55 1.32,1.32 0 0 1 0.15,-1.05 21.19,21.19 0 0 0 2.35,-9 c 0.06,-2.89 0.07,-5.78 0.11,-8.67 0,-0.17 0,-0.34 0,-0.47 z"
           class="cls-1"
           inkscape:connector-curvature="0"
           style="fill:#ffffff" />
        <path
           id="path1196"
           d="m 1901.77,1334.5 a 48.76,48.76 0 0 0 -6.91,97 c 0,3.7 -0.08,7.42 -0.13,11.09 l 14,0.16 c 0,-3.73 0.08,-7.51 0.12,-11.26 a 48.77,48.77 0 0 0 -7,-97 z m -2.16,100.89 h -2.71 c 0,-0.61 0,-1.29 0,-1.94 h 2.7 z m 6.74,0.11 h -2.79 c 0,-0.6 0,-1.28 0,-1.94 h 2.76 c 0.05,0.64 0.04,1.32 0.03,1.94 z m -4.58,-9.47 a 42.77,42.77 0 1 1 42.76,-42.76 42.81,42.81 0 0 1 -42.76,42.73 z"
           class="cls-1"
           inkscape:connector-curvature="0"
           style="fill:#ffffff" />
        <path
           id="path1198"
           d="m 1911.53,1388.82 a 3,3 0 0 0 -3.76,-0.26 c -3.79,2.3 -7.73,2.19 -11.66,0.36 -2.72,-1.27 -3.1,-1.27 -5.38,0.76 a 18.32,18.32 0 0 0 -6.46,15.18 c 0,0.84 0,1.69 0,2.52 a 3.59,3.59 0 0 0 2.64,4 29.67,29.67 0 0 0 4.55,1 c 7.36,1.4 14.7,1.7 22,-0.3 5.79,-1.57 5.81,-1.51 5.73,-7.49 -0.07,-6.53 -2.43,-11.84 -7.66,-15.77 z"
           class="cls-1"
           inkscape:connector-curvature="0"
           style="fill:#ffffff" />
        <path
           id="path1200"
           d="m 1890.38,1387.11 c 1,-0.66 1.06,-1.21 0.4,-2.14 a 10.91,10.91 0 0 1 -2,-8.37 c 0.22,-1.43 -0.22,-1.56 -1.42,-1.11 a 11.42,11.42 0 0 1 -10.66,-1.06 2.4,2.4 0 0 0 -3,0.11 17.46,17.46 0 0 0 -7.44,10.45 40.54,40.54 0 0 0 -0.73,8.59 3.5,3.5 0 0 0 2.63,3.75 41.84,41.84 0 0 0 12,2.06 c 1.4,0.1 1.61,-0.06 2.12,-1.57 a 19.48,19.48 0 0 1 8.1,-10.71 z"
           class="cls-1"
           inkscape:connector-curvature="0"
           style="fill:#ffffff" />
        <path
           id="path1202"
           d="m 1937.33,1387.66 c -0.24,-5.82 -3.1,-10.07 -7.81,-13.22 a 2.09,2.09 0 0 0 -2.51,-0.25 c -3.36,2.38 -7,2.54 -10.78,1.39 -1.35,-0.41 -1.83,-0.1 -1.68,1.41 a 10.62,10.62 0 0 1 -1.21,7 c -1.24,2 -1.19,2.44 0.68,3.87 a 18.93,18.93 0 0 1 6.88,9.85 2.21,2.21 0 0 0 2.77,1.78 65.2,65.2 0 0 0 9.69,-1.75 c 4,-1 4.25,-1.39 4.25,-5.88 a 29,29 0 0 0 -0.28,-4.2 z"
           class="cls-1"
           inkscape:connector-curvature="0"
           style="fill:#ffffff" />
        <path
           id="path1204"
           d="m 1900.87,1387.51 c 6.19,0.07 11.08,-4.43 11.1,-10.25 a 10.54,10.54 0 0 0 -10.21,-10.29 c -5.61,-0.12 -10.18,4.56 -10.24,10.52 -0.06,5.06 4.48,9.96 9.35,10.02 z"
           class="cls-1"
           inkscape:connector-curvature="0"
           style="fill:#ffffff" />
        <path
           id="path1206"
           d="m 1883.34,1373.47 a 10.181681,10.181681 0 0 0 -0.37,-20.36 10.181681,10.181681 0 1 0 0.37,20.36 z"
           class="cls-1"
           inkscape:connector-curvature="0"
           style="fill:#ffffff" />
        <path
           id="path1208"
           d="m 1920.45,1373.47 a 10.19,10.19 0 1 0 -10.4,-10.13 10.16,10.16 0 0 0 10.4,10.13 z"
           class="cls-1"
           inkscape:connector-curvature="0"
           style="fill:#ffffff" />
        <path
           id="path1210"
           d="m 1618.19,1348.29 a 23.5,23.5 0 0 0 -8.46,1.85 2.2,2.2 0 0 1 -1.42,0.24 c -1,-0.22 -1.8,0.34 -2.38,1.63 h -6.72 c 0,0.26 0,1 0,2 -7,-0.07 -20.26,-0.16 -30.29,0.06 -6.33,0.14 -10.31,4 -10.92,10.73 a 55.5,55.5 0 0 0 -0.07,6.45 c 0.21,8.16 -0.22,11 -5.9,11.3 l -89,0.52 c -7.73,0 -8,-2.27 -8,-13 0,-12 -15.26,-12 -21,-12 h -10.94 c 0,-1.26 0,-2.25 0,-2.57 l -6.66,-0.08 c 0,-0.13 0,-0.27 0,-0.41 a 2.06,2.06 0 0 0 -2.55,-1.73 1.28,1.28 0 0 1 -1,-0.15 21.19,21.19 0 0 0 -9,-2.35 c -2.89,-0.06 -5.78,-0.07 -8.67,-0.1 a 3.52,3.52 0 0 0 -0.47,0 c -0.08,6.36 -0.15,12.68 -0.22,19 h 0.33 c 3.08,0 6.16,0.13 9.23,0.09 a 23.34,23.34 0 0 0 8.48,-1.8 2.29,2.29 0 0 1 1.42,-0.23 c 1,0.24 1.8,-0.32 2.4,-1.61 l 6.71,0.08 c 0,-0.29 0,-1.12 0,-2.2 h 11 c 15,0 15,4.2 15,6 0,9.77 0,19 14,19 l 89.11,-0.52 h 0.1 c 12.16,-0.49 11.88,-10.7 11.7,-17.46 a 51.74,51.74 0 0 1 0.06,-5.75 c 0.41,-4.55 2.8,-5.22 5.08,-5.27 10,-0.22 23.21,-0.13 30.16,-0.06 0,1.37 0,2.47 0,2.82 h 6.66 c 0,0.13 0,0.27 0,0.41 a 2.07,2.07 0 0 0 2.57,1.72 1.28,1.28 0 0 1 1,0.13 21.05,21.05 0 0 0 9,2.29 c 2.89,0 5.78,0 8.67,0.05 h 0.48 c 0,-6.36 0,-12.68 0.08,-19 h -0.33 c -3.08,-0.07 -6.16,-0.14 -9.24,-0.08 z"
           class="cls-1"
           inkscape:connector-curvature="0"
           style="fill:#ffffff" />
        <path
           id="path1212"
           d="m 1345.76,1323 a 37.39,37.39 0 0 0 -36.77,30.94 h -10.56 c 0,4.63 0,9.31 -0.06,13.94 h 10.83 a 37.33,37.33 0 0 0 73.29,-0.91 l 10.31,0.12 c 0,-4.64 0.1,-9.31 0.16,-13.94 l -10.59,-0.12 A 37.38,37.38 0 0 0 1345.76,1323 Z m -38.18,42.46 h -1.95 c 0,-0.93 0,-1.86 0,-2.78 h 1.95 c 0.01,0.91 0.01,1.83 0,2.78 z m 0,-6.76 h -1.93 c 0,-0.91 0,-1.83 0,-2.71 h 1.94 c 0.04,0.88 0.03,1.8 0.03,2.71 z m 38.14,33 a 31.31,31.31 0 0 1 -25.85,-49 2.41,2.41 0 0 0 0.83,0.12 c 1.23,0 2.47,0 3.7,0 h 1.84 c 0,0.16 0.09,0.27 0.12,0.39 q 3.33,12.8 6.65,25.57 c 0.3,1.16 0.67,1.45 1.85,1.45 h 24.19 c 1.25,0 1.61,-0.28 1.92,-1.48 q 1.59,-6.15 3.2,-12.29 1,-3.87 2,-7.74 a 1.31,1.31 0 0 0 -0.78,-1.66 2.8,2.8 0 0 0 -1,-0.13 q -16.89,0 -33.78,0 a 0.55,0.55 0 0 1 -0.65,-0.5 c -0.41,-1.68 -0.85,-3.34 -1.29,-5 A 1.52,1.52 0 0 0 1327,1340 h -5 a 31.32,31.32 0 1 1 23.81,51.65 z m -5.43,-31.11 h -0.42 c -1.91,0 -3.82,0 -5.74,0 a 0.46,0.46 0 0 1 -0.53,-0.41 c -0.3,-1.22 -0.62,-2.44 -0.94,-3.69 h 7.63 z m 0,2.78 v 4.07 c -0.14,0 -0.29,0 -0.44,0 -1.31,0 -2.62,0 -3.93,0 -0.34,0 -0.47,-0.11 -0.55,-0.45 -0.29,-1.21 -0.62,-2.41 -1,-3.67 z m 0,-9.65 a 2.33,2.33 0 0 1 -0.38,0 h -7.58 c -0.15,0 -0.41,-0.12 -0.44,-0.23 -0.36,-1.26 -0.68,-2.52 -1,-3.85 h 9.42 z m 2.75,9.66 h 7.84 v 4.07 h -0.46 -6.88 c -0.38,0 -0.51,-0.09 -0.5,-0.48 0.06,-1.21 0.04,-2.41 0.04,-3.63 z m 7.84,-9.65 h -7.81 v -4 h 7.81 z m 0,2.81 v 4 h -7.82 v -4 z m 2.79,4.08 v -4.08 h 7.64 c -0.34,1.29 -0.67,2.57 -1,3.85 a 0.39,0.39 0 0 1 -0.28,0.22 z m 5.85,2.76 c -0.27,1.07 -0.54,2.11 -0.81,3.15 -0.27,1.04 -0.24,1 -1.22,1 h -3.81 v -4.1 z m -5.85,-9.64 v -4 h 9.42 c -0.35,1.34 -0.7,2.68 -1.05,4 z m 30,1.74 h 2 c 0,0.93 0,1.86 0,2.79 h -1.94 c -0.03,-0.95 -0.02,-1.87 0,-2.83 z m -0.09,6.76 h 1.93 c 0,0.92 0,1.84 0,2.71 h -1.94 c 0.05,-0.95 0.06,-1.84 0.07,-2.75 z"
           class="cls-1"
           inkscape:connector-curvature="0"
           style="fill:#ffffff" />
        <path
           id="path1214"
           d="m 1356,1371.28 a 5,5 0 1 0 4.94,5 5,5 0 0 0 -4.94,-5 z m 0,7.23 a 2.25,2.25 0 0 1 0,-4.49 2.25,2.25 0 1 1 0,4.49 z"
           class="cls-1"
           inkscape:connector-curvature="0"
           style="fill:#ffffff" />
        <path
           id="path1216"
           d="m 1338.13,1371.28 a 5,5 0 1 0 4.95,5 5,5 0 0 0 -4.95,-5 z m 0,7.23 a 2.25,2.25 0 1 1 2.26,-2.26 2.26,2.26 0 0 1 -2.29,2.26 z"
           class="cls-1"
           inkscape:connector-curvature="0"
           style="fill:#ffffff" />
        <path
           id="path1218"
           d="m 1679.29,1320 a 39.79,39.79 0 0 0 -38.73,31 h -11.13 c 0,4.63 0,9.31 -0.06,13.94 h 10.55 a 39.7,39.7 0 0 0 78.43,1.93 l 10.59,0.13 c 0,-4.64 0.11,-9.32 0.16,-14 l -10.7,-0.11 A 39.77,39.77 0 0 0 1679.29,1320 Z m -40.71,42.47 h -1.95 c 0,-0.93 0,-1.86 0,-2.78 h 1.95 c 0.01,0.9 0.01,1.82 0,2.77 z m 0,-6.76 h -1.93 c 0,-0.91 0,-1.83 0,-2.71 h 1.94 c 0.04,0.87 0.03,1.79 0.03,2.7 z m 40.67,37.72 a 33.63,33.63 0 0 1 -25.5,-11.7 V 1369 a 2.81,2.81 0 0 0 0,-0.41 1.36,1.36 0 0 0 -1.59,-1.25 c -0.73,0.1 -1.17,0.7 -1.18,1.64 v 9 a 33.7,33.7 0 1 1 28.28,15.39 z m 40.58,-38.13 h 2 c 0,0.93 0,1.86 0,2.79 h -2 c 0.01,-0.93 0.03,-1.85 0.04,-2.8 z m -0.08,6.76 h 1.93 c 0,0.92 0,1.84 0,2.71 h -1.94 c 0.02,-0.89 0.03,-1.77 0.05,-2.72 z"
           class="cls-1"
           inkscape:connector-curvature="0"
           style="fill:#ffffff" />
        <path
           id="path1220"
           d="m 1675.35,1353.71 h 12.54 a 2.26,2.26 0 0 0 2.06,-1 3,3 0 0 1 2.58,-1.36 h 2.11 a 1.6,1.6 0 0 0 1.72,-1.42 6.85,6.85 0 0 1 0.28,-1 10.59,10.59 0 0 1 4.88,-5.48 l 0.65,-0.4 h -0.36 -36.33 a 10.41,10.41 0 0 0 -5.06,1.27 11.27,11.27 0 0 0 -6.07,9.41 h 21 z"
           class="cls-1"
           inkscape:connector-curvature="0"
           style="fill:#ffffff" />
        <path
           id="path1222"
           d="m 1686.34,1354.83 a 4.43,4.43 0 0 0 -0.48,0 h -30.64 c -0.42,0 -0.62,0.12 -0.6,0.55 0,1.4 0,2.81 0.14,4.2 a 9.57,9.57 0 0 0 1.62,4.41 3.13,3.13 0 0 0 3,1.54 c 0.58,0 1.17,0 1.75,0 h 2.09 v 6.78 h 4.66 v -6.81 h 20.84 c -2.32,-3.3 -2.65,-6.88 -2.38,-10.67 z"
           class="cls-1"
           inkscape:connector-curvature="0"
           style="fill:#ffffff" />
        <path
           id="path1224"
           d="m 1670.06,1373.24 h -14.81 -0.36 v 2.9 h 14.94 a 3.13,3.13 0 0 0 0.75,-0.08 1.46,1.46 0 0 0 -0.52,-2.84 z"
           class="cls-1"
           inkscape:connector-curvature="0"
           style="fill:#ffffff" />
        <path
           id="path1226"
           d="m 1698.19,1348 a 8.9,8.9 0 0 1 2.08,3.49 c 0.1,0.31 0.25,0.4 0.55,0.33 0.64,-0.17 1.29,-0.3 1.92,-0.51 a 4.53,4.53 0 0 0 3.13,-3.48 6.15,6.15 0 0 0 -0.73,-4.34 0.51,0.51 0 0 0 -0.45,-0.2 10.8,10.8 0 0 0 -6.5,4.71 z"
           class="cls-1"
           inkscape:connector-curvature="0"
           style="fill:#ffffff" />
        <path
           id="path1228"
           d="m 1697.71,1348.93 c -0.38,1 -0.88,2 0.2,2.77 a 1.6,1.6 0 0 1 0.41,0.63 10.37,10.37 0 0 1 0,9.26 2.9,2.9 0 0 1 -2.63,2 3,3 0 0 1 -2.64,-1.93 9.24,9.24 0 0 1 -1,-4.28 10.43,10.43 0 0 1 1,-5 c -1.11,-0.15 -1.29,0 -1.52,1 a 16.67,16.67 0 0 0 0.07,7.6 9.29,9.29 0 0 0 1.8,3.9 c 1.39,1.67 3.13,1.7 4.49,0 a 8.73,8.73 0 0 0 1.28,-2.21 16.07,16.07 0 0 0 0.5,-9.72 9,9 0 0 0 -1.96,-4.02 z"
           class="cls-1"
           inkscape:connector-curvature="0"
           style="fill:#ffffff" />
        <path
           id="path1230"
           d="m 1690.3,1353.91 a 3.25,3.25 0 0 1 -2.39,0.87 c -0.45,0 -0.59,0.17 -0.58,0.57 0,1 -0.08,2.07 0,3.1 a 12.1,12.1 0 0 0 1.81,5.86 3.49,3.49 0 0 0 3.88,1.7 c -2.97,-3.54 -3.17,-7.71 -2.72,-12.1 z"
           class="cls-1"
           inkscape:connector-curvature="0"
           style="fill:#ffffff" />
        <path
           id="path1232"
           d="m 1696.34,1353.67 c -0.41,-0.75 -0.76,-0.77 -1.17,-0.12 a 2.63,2.63 0 0 0 -0.31,0.63 7.54,7.54 0 0 0 0.33,5.78 c 0.32,0.64 0.76,0.62 1.13,0 a 6,6 0 0 0 0.71,-3.44 1.48,1.48 0 0 1 -0.69,-2.85 z"
           class="cls-1"
           inkscape:connector-curvature="0"
           style="fill:#ffffff" />
        <path
           id="path1234"
           d="m 1694,1352.75 a 9.49,9.49 0 0 0 0,8.41 2,2 0 0 0 1.75,1.38 c 0.89,0 1.36,-0.7 1.74,-1.39 a 9,9 0 0 0 0.77,-5.56 1.57,1.57 0 0 0 -0.16,0.67 8.23,8.23 0 0 1 -0.56,3.61 c -0.33,0.76 -0.75,1.53 -1.72,1.54 -0.97,0.01 -1.44,-0.77 -1.77,-1.56 a 8.56,8.56 0 0 1 -0.41,-4.83 4.61,4.61 0 0 1 1.32,-2.69 0.68,0.68 0 0 0 -0.96,0.42 z"
           class="cls-1"
           inkscape:connector-curvature="0"
           style="fill:#ffffff" />
        <path
           id="path1236"
           d="m 1658.8,1377.74 a 33.11,33.11 0 0 1 -3.1,1.37 c -0.93,0.41 -1,0.59 -0.73,1.66 l 8.13,-3.56 a 7,7 0 0 0 -4.3,0.53 z"
           class="cls-1"
           inkscape:connector-curvature="0"
           style="fill:#ffffff" />
        <path
           id="path1238"
           d="m 1654.88,1377.14 v 1.24 l 2.77,-1.24 z"
           class="cls-1"
           inkscape:connector-curvature="0"
           style="fill:#ffffff" />
        <path
           id="path1240"
           d="m 1696.5,1351.66 -0.57,0.42 c 1.16,0.24 1.31,1.36 2,2 a 4.15,4.15 0 0 0 -1.43,-2.42 z"
           class="cls-1"
           inkscape:connector-curvature="0"
           style="fill:#ffffff" />
        <path
           id="path1242"
           d="m 1777.28,1407.73 v -40.55 c -0.08,-3.66 -2.91,-9.12 -10.35,-9.12 h -7.73 c 0,-1.36 0,-2.45 0,-2.79 l -6.66,-0.07 c 0,-0.13 0,-0.27 0,-0.41 a 2.05,2.05 0 0 0 -2.55,-1.73 1.32,1.32 0 0 1 -1,-0.15 21.19,21.19 0 0 0 -9,-2.35 c -2.89,-0.06 -5.78,-0.07 -8.67,-0.11 h -0.47 c -0.07,6.36 -0.14,12.69 -0.22,19 h 0.33 c 3.08,0 6.16,0.12 9.24,0.09 a 23.54,23.54 0 0 0 8.47,-1.8 2.22,2.22 0 0 1 1.42,-0.23 c 1,0.23 1.81,-0.33 2.4,-1.61 l 6.72,0.08 c 0,-0.27 0,-1 0,-2 h 7.76 c 3.71,0 4.28,2.25 4.35,3.26 v 40.41 z"
           class="cls-1"
           inkscape:connector-curvature="0"
           style="fill:#ffffff" />
        <path
           id="path1244"
           d="m 1287.19,1351.29 a 23.5,23.5 0 0 0 -8.46,1.85 2.2,2.2 0 0 1 -1.42,0.24 c -1,-0.22 -1.8,0.34 -2.38,1.63 h -6.72 c 0,0.31 0,1.27 0,2.5 -16.48,-0.14 -39.32,-0.93 -43.54,-2.74 a 46.91,46.91 0 0 1 -6.51,-3.82 c -5.75,-3.75 -12.91,-8.41 -22.05,-8.41 h -62.2 a 11.56,11.56 0 0 0 -8.26,3 c -2.69,2.53 -4,6.3 -3.92,11.22 0.27,13.93 -0.09,16.75 -4.89,17.81 -2.51,0.56 -5,1.08 -7.27,1.54 -0.24,-1.12 -0.42,-2 -0.48,-2.3 l -6.52,1.37 c 0,-0.13 -0.07,-0.26 -0.12,-0.39 a 2.05,2.05 0 0 0 -2.87,-1.14 1.33,1.33 0 0 1 -1,0.08 21.23,21.23 0 0 0 -9.28,-0.35 c -2.84,0.56 -5.67,1.18 -8.49,1.77 l -0.46,0.11 c 1.3,6.23 2.6,12.42 3.9,18.63 a 2.55,2.55 0 0 0 0.32,-0.05 c 3,-0.63 6,-1.21 9,-1.91 a 23.32,23.32 0 0 0 7.89,-3.59 2.23,2.23 0 0 1 1.34,-0.53 c 1.06,0 1.69,-0.71 2,-2.09 l 6.57,-1.37 c -0.07,-0.3 -0.27,-1.21 -0.52,-2.37 2.31,-0.47 4.78,-1 7.31,-1.55 10,-2.21 9.85,-10.33 9.59,-23.78 -0.06,-3.12 0.61,-5.37 2,-6.7 a 5.72,5.72 0 0 1 3.78,-1.45 h 62.62 c 7.36,0 13.42,4 18.77,7.44 a 51.57,51.57 0 0 0 7.43,4.31 c 6,2.59 33.8,3.11 45.91,3.21 0,1.12 0,2 0,2.29 h 6.66 c 0,0.13 0,0.27 0,0.41 a 2.07,2.07 0 0 0 2.57,1.72 1.28,1.28 0 0 1 1,0.13 21.05,21.05 0 0 0 9,2.29 c 2.89,0 5.78,0 8.67,0.05 h 0.48 c 0,-6.36 0,-12.68 0.08,-19 h -0.33 c -3.04,-0.05 -6.12,-0.12 -9.2,-0.06 z"
           class="cls-1"
           inkscape:connector-curvature="0"
           style="fill:#ffffff" />
        <path
           id="path1246"
           d="m 1074.14,1426.18 -8.08,-6.14 a 48.29,48.29 0 0 0 5.44,-26.09 l 10.54,-2.21 -2.86,-13.65 -10.64,2.24 a 48.76,48.76 0 1 0 -45.78,65.86 49.94,49.94 0 0 0 7.2,-0.53 48.43,48.43 0 0 0 27.93,-14.33 l 7.8,5.94 z m 0.35,-35 -1.9,0.4 c -0.17,-0.85 -0.36,-1.75 -0.54,-2.64 l 1.88,-0.42 z m -1.91,-9.26 c 0.19,0.91 0.37,1.82 0.56,2.73 l -1.91,0.37 c -0.18,-0.86 -0.37,-1.76 -0.56,-2.7 z m -15.4,41 a 42.76,42.76 0 1 1 8,-31.74 42.48,42.48 0 0 1 -8,31.75 z m 4,8.28 -1.55,-1.17 1.65,-2.14 1.54,1.15 z m 2.52,-6.5 1.68,-2.19 1.55,1.19 -1.7,2.2 z"
           class="cls-1"
           inkscape:connector-curvature="0"
           style="fill:#ffffff" />
        <path
           id="path1248"
           d="m 1053.59,1398.67 a 1.57,1.57 0 0 1 -0.32,-0.78 c 0,-1.88 0.17,-3.78 0,-5.64 a 29.09,29.09 0 0 0 -15,-23.21 29.68,29.68 0 0 0 -35.87,5.18 29.12,29.12 0 0 0 -8.32,23.51 1.15,1.15 0 0 1 -0.45,1.08 10.14,10.14 0 0 0 -1.32,1.52 4.08,4.08 0 0 0 -0.8,2.62 c 0,4.26 0,8.53 0,12.79 a 2,2 0 0 0 0.07,0.73 6.43,6.43 0 0 0 3.43,3.61 c 1,0.39 2,0.85 3,1.28 l 1.78,0.73 V 1396 l -2.52,1 a 26.46,26.46 0 0 1 42.43,-23.13 c 8.48,6.42 11.18,16.43 10.3,23.13 l -2.5,-1 v 26.14 c 1.51,-0.64 2.89,-1.29 4.32,-1.79 a 6.52,6.52 0 0 0 3.77,-3.53 2.3,2.3 0 0 0 0.23,-1 q 0,-6.8 0,-13.6 a 1.5,1.5 0 0 0 -0.15,-0.77 c -0.67,-0.93 -1.4,-1.84 -2.08,-2.78 z"
           class="cls-1"
           inkscape:connector-curvature="0"
           style="fill:#ffffff" />
        <path
           id="path1250"
           d="m 1002.19,1396 h -0.34 c -1.1,0 -1.39,0.3 -1.39,1.4 v 19.84 c 0,1.26 0,2.51 0,3.77 0,0.81 0.33,1.12 1.14,1.15 h 0.54 c 1.12,0 1.4,-0.28 1.4,-1.39 0,-2.29 0,-4.57 0,-6.86 v -16.54 c 0.01,-1.1 -0.31,-1.37 -1.35,-1.37 z"
           class="cls-1"
           inkscape:connector-curvature="0"
           style="fill:#ffffff" />
        <path
           id="path1252"
           d="m 1046.28,1396.08 a 1.63,1.63 0 0 0 -2.57,1.43 v 22.93 c 0,1.49 0.2,1.68 1.66,1.67 1.21,0 1.44,-0.25 1.44,-1.48 v -11.56 c 0,-3.92 0,-7.85 0,-11.77 0,-0.49 -0.04,-0.95 -0.53,-1.22 z"
           class="cls-1"
           inkscape:connector-curvature="0"
           style="fill:#ffffff" />
        <path
           id="path1254"
           d="m 1133.78,1516.65 a 8.64,8.64 0 0 1 -2.17,-5.72 v -21.88 c 0,-14.92 -2.67,-17.59 -12.88,-25.45 -4.7,-3.61 -15.52,-10.8 -23.16,-15.8 l 1.38,-1.8 -5.3,-4 c 0.07,-0.12 0.15,-0.23 0.21,-0.36 a 2.05,2.05 0 0 0 -1,-2.91 1.25,1.25 0 0 1 -0.75,-0.74 21.22,21.22 0 0 0 -5.81,-7.25 c -2.29,-1.77 -4.6,-3.51 -6.9,-5.26 l -0.39,-0.27 -11.52,15.14 a 2,2 0 0 0 0.25,0.21 c 2.45,1.87 4.86,3.78 7.36,5.59 a 23.48,23.48 0 0 0 7.87,3.61 2.22,2.22 0 0 1 1.28,0.67 c 0.7,0.8 1.64,0.81 2.88,0.13 l 5.34,4.07 1.49,-2 c 7.6,5 18.55,12.23 23.12,15.75 9.13,7 10.54,8.11 10.54,20.69 v 21.66 a 14.62,14.62 0 0 0 3.8,10.06 c 2.79,2.9 6.79,4.37 11.89,4.37 h 0.44 c 8.17,-0.13 13.2,-0.13 13.25,-0.13 v -6 c 0,0 -5.12,0 -13.35,0.13 -3.56,0.03 -6.2,-0.81 -7.87,-2.51 z"
           class="cls-1"
           inkscape:connector-curvature="0"
           style="fill:#ffffff" />
        <path
           id="path1256"
           d="m 1018.12,1557.46 3.26,-2.88 a 21.89,21.89 0 0 0 -29.72,0 l 3.25,2.9 a 17.59,17.59 0 0 1 23.21,-0.02 z"
           class="cls-1"
           inkscape:connector-curvature="0"
           style="fill:#ffffff" />
        <path
           id="path1258"
           d="m 997.49,1560.24 3.19,2.84 c 3.94,-2.84 7.82,-2.86 11.72,0 l 3.22,-2.84 a 13.2,13.2 0 0 0 -18.13,0 z"
           class="cls-1"
           inkscape:connector-curvature="0"
           style="fill:#ffffff" />
        <path
           id="path1260"
           d="m 1006.5,1564 a 3.5,3.5 0 1 0 0,7 3.5,3.5 0 1 0 0,-7 z"
           class="cls-1"
           inkscape:connector-curvature="0"
           style="fill:#ffffff" />
        <path
           id="path1262"
           d="m 1049,1582.92 q 0,-8.33 0,-16.63 h 11.48 c 0,-4.64 0,-9.31 0.06,-13.94 l -11.55,-0.05 v -14.83 c 0,-2.52 -1.33,-3.85 -3.84,-3.85 -9.13,0 -68,0 -77.17,0 a 3.42,3.42 0 0 0 -3.3,2.07 c -0.07,0.13 -0.15,0.24 -0.22,0.36 v 48.16 c 0.78,1.87 2.17,2.47 4.18,2.46 h 31.31 c 0,3.57 0,7.16 0,10.69 l 13.94,0.06 c 0,-3.56 0,-7.16 0.05,-10.75 h 31.29 a 3.61,3.61 0 0 0 3.77,-3.75 z m 2.32,-28.16 h 2 c 0,0.93 0,1.86 0,2.79 h -2 c -0.04,-0.91 -0.04,-1.83 -0.03,-2.79 z m 0,6.76 h 1.93 c 0,0.91 0,1.83 0,2.71 h -1.94 c -0.07,-0.87 -0.06,-1.79 -0.06,-2.71 z M 1002,1590.1 v -1.94 h 2.71 c 0,0.63 0,1.31 0,1.93 z m 9.46,0.07 h -2.79 c 0,-0.6 0,-1.28 0,-1.94 h 2.76 c 0,0.64 0,1.32 0,1.94 z m 33.36,-8.43 h -76.2 v -43 h 76.2 z"
           class="cls-1"
           inkscape:connector-curvature="0"
           style="fill:#ffffff" />
        <path
           id="path1264"
           d="m 1035.21,1635.41 a 23.81,23.81 0 0 0 -8.48,1.8 2.2,2.2 0 0 1 -1.42,0.23 c -1,-0.23 -1.8,0.33 -2.39,1.62 l -6.72,-0.09 c 0,0.37 0,1.65 0,3.21 v 0 c 0,0 -3.25,0.14 -5.2,-1.71 a 6.17,6.17 0 0 1 -1.63,-4.7 v -8.2 h 2.38 c 0,-2.25 0,-4.45 0,-6.65 h 0.42 a 2.06,2.06 0 0 0 1.71,-2.56 1.32,1.32 0 0 1 0.14,-1 21.2,21.2 0 0 0 2.29,-9 c 0,-2.89 0,-5.78 0,-8.67 0,-0.17 0,-0.34 0,-0.48 l -19,-0.08 c 0,0.08 0,0.2 0,0.33 0,3.08 -0.09,6.16 0,9.24 a 23.35,23.35 0 0 0 1.86,8.46 2.27,2.27 0 0 1 0.24,1.42 c -0.23,1 0.34,1.8 1.63,2.38 0,2.2 0,4.42 0,6.72 h 2.4 v 8.19 a 11.94,11.94 0 0 0 3.55,9.1 13.68,13.68 0 0 0 9.25,3.31 c 0,0.76 0,1.34 0,1.57 l 6.66,0.07 c 0,0.13 0,0.27 0,0.41 a 2.05,2.05 0 0 0 2.55,1.73 1.3,1.3 0 0 1 1,0.15 21.22,21.22 0 0 0 9,2.35 c 2.89,0.06 5.78,0.07 8.67,0.11 h 0.48 c 0.07,-6.36 0.14,-12.69 0.21,-19 h -0.32 c -3.12,-0.2 -6.2,-0.29 -9.28,-0.26 z"
           class="cls-1"
           inkscape:connector-curvature="0"
           style="fill:#ffffff" />
        <path
           id="path1266"
           d="m 1100.27,1600.74 a 44.32,44.32 0 0 0 -43.73,37.47 l -10.11,-0.12 c -0.06,4.64 -0.11,9.32 -0.16,14 l 10.34,0.11 a 44.25,44.25 0 1 0 43.66,-51.41 z m -44.77,49 h -2 c 0,-0.93 0,-1.86 0,-2.78 h 1.94 c 0.08,0.9 0.07,1.82 0.06,2.78 z m 0.08,-6.76 h -1.93 c 0,-0.92 0,-1.83 0,-2.71 h 1.94 c 0.02,0.87 0,1.79 -0.01,2.73 z m 44.69,40.25 a 38.25,38.25 0 1 1 38.25,-38.24 38.29,38.29 0 0 1 -38.25,38.24 z"
           class="cls-1"
           inkscape:connector-curvature="0"
           style="fill:#ffffff" />
        <path
           id="path1268"
           d="m 1103,1654.24 a 1.51,1.51 0 0 1 -1.28,0.18 q -5,-2.55 -9.85,-5.23 a 1.18,1.18 0 0 1 -0.55,-0.84 c 0,-1.62 0,-3.24 0,-5 3.75,-2.1 7.61,-4.27 11.49,-6.39 a 1.59,1.59 0 0 1 1.23,0.13 10.17,10.17 0 0 0 5.06,1.3 9.49,9.49 0 1 0 -9.1,-6.07 c -3.83,2.14 -7.61,4.27 -11.42,6.35 -0.25,0.13 -0.79,-0.06 -1.1,-0.26 a 10.13,10.13 0 0 0 -5.18,-1.7 9.53,9.53 0 1 0 5.36,17.19 1.06,1.06 0 0 1 1.33,-0.16 c 3.3,1.79 6.62,3.56 10,5.28 a 1,1 0 0 1 0.61,1.2 15.26,15.26 0 0 0 0,3.38 9.5,9.5 0 1 0 3.42,-9.39 z"
           class="cls-1"
           inkscape:connector-curvature="0"
           style="fill:#ffffff" />
        <path
           id="path1270"
           d="m 1090.64,1557 c 0,-1.24 0,-2.22 0,-2.54 h -6.66 c 0,-0.13 0,-0.28 0,-0.41 a 2.06,2.06 0 0 0 -2.56,-1.72 1.28,1.28 0 0 1 -1.05,-0.14 21,21 0 0 0 -9,-2.28 c -2.89,0 -5.78,0 -8.67,-0.05 h -0.48 c 0,6.36 0,12.69 -0.08,19 h 0.33 c 3.08,0 6.16,0.08 9.24,0 a 23.31,23.31 0 0 0 8.46,-1.86 2.2,2.2 0 0 1 1.42,-0.23 c 1,0.22 1.8,-0.34 2.38,-1.64 h 6.72 c 0,-0.29 0,-1.14 0,-2.24 12.48,0 43.44,-0.08 59.34,0 v -6 c -15.93,0.04 -46.9,0.11 -59.39,0.11 z"
           class="cls-1"
           inkscape:connector-curvature="0"
           style="fill:#ffffff" />
        <path
           id="path1272"
           d="m 1108,2011.07 c 0,-3.45 0.08,-6.91 0.12,-10.31 l -13.94,-0.16 c 0,3.47 -0.08,7 -0.12,10.48 a 64.46,64.46 0 1 0 13.94,0 z m -4.76,-3.09 h 2.72 c 0,0.61 0,1.3 0,1.94 h -2.7 z m -6.74,-0.11 2.79,0.05 c 0,0.6 0,1.29 0,1.94 h -2.76 c 0,-0.69 0.01,-1.36 0.01,-1.99 z m 4.58,125.74 a 58.46,58.46 0 1 1 58.46,-58.46 58.52,58.52 0 0 1 -58.42,58.46 z"
           class="cls-1"
           inkscape:connector-curvature="0"
           style="fill:#ffffff" />
        <path
           id="path1274"
           d="m 1125.14,2064.67 2.78,-2.44 c -10,-9.72 -26.87,-8.82 -35.67,0 l 2.75,2.44 a 22.68,22.68 0 0 1 30.14,0 z"
           class="cls-1"
           inkscape:connector-curvature="0"
           style="fill:#ffffff" />
        <path
           id="path1276"
           d="m 1097.49,2067.15 2.76,2.46 a 15,15 0 0 1 19.77,0 l 2.78,-2.45 a 18.64,18.64 0 0 0 -25.31,-0.01 z"
           class="cls-1"
           inkscape:connector-curvature="0"
           style="fill:#ffffff" />
        <path
           id="path1278"
           d="m 1102.45,2072 c 0.91,0.81 1.82,1.63 2.72,2.42 3.35,-2.42 6.66,-2.44 10,0 l 2.74,-2.41 a 11.24,11.24 0 0 0 -15.46,-0.01 z"
           class="cls-1"
           inkscape:connector-curvature="0"
           style="fill:#ffffff" />
        <path
           id="path1280"
           d="m 1110.12,2075.17 a 3,3 0 1 0 0,5.94 3,3 0 0 0 3.06,-3 3,3 0 0 0 -3.06,-2.94 z"
           class="cls-1"
           inkscape:connector-curvature="0"
           style="fill:#ffffff" />
        <path
           id="path1282"
           d="m 1077.26,2045.84 a 3.07,3.07 0 0 0 -3.27,3.22 c 0,12.89 0,25.78 0,38.67 a 2.93,2.93 0 0 0 3.27,3.27 h 24.16 v 5.47 h -9.81 c -1.21,0 -1.23,0 -1.52,1.15 -0.33,1.32 -0.65,2.64 -1,4 H 1131 c -0.47,-1.55 -0.94,-3 -1.37,-4.55 a 0.7,0.7 0 0 0 -0.82,-0.6 c -3.12,0 -6.25,0 -9.37,0 h -0.79 V 2091 h 0.9 c 7.82,0 15.65,0 23.47,0 a 2.9,2.9 0 0 0 2.81,-1.76 c 0.06,-0.11 0.13,-0.2 0.19,-0.3 v -41 c -0.67,-1.59 -1.85,-2.1 -3.57,-2.1 q -32.6,0.07 -65.19,0 z m 65.19,40.89 h -64.9 v -36.66 h 64.9 z"
           class="cls-1"
           inkscape:connector-curvature="0"
           style="fill:#ffffff" />
        <path
           id="path1284"
           d="m 1069,2045.73 h -11.74 c -1.73,0 -2.55,0.83 -2.55,2.58 v 50.56 a 2.25,2.25 0 0 0 2.51,2.5 H 1069 a 2.31,2.31 0 0 0 2.56,-2.56 v -50.56 a 2.3,2.3 0 0 0 -2.56,-2.52 z m -11.7,33.23 c -0.64,0 -0.81,-0.48 -0.81,-1 0,-0.52 0.14,-1.16 0.84,-1.16 0.7,0 0.74,0.7 0.74,1.16 0,0.46 -0.19,1.04 -0.76,1.04 z m 3.64,-1.09 c 0,0.65 -0.32,1.09 -0.91,1.09 a 1,1 0 0 1 -0.91,-1.09 c 0,-0.52 0.07,-1.2 0.91,-1.2 0.84,0 0.97,0.74 0.97,1.2 z m 7.22,1.52 a 1.12,1.12 0 0 1 -1.17,-1.18 1.11,1.11 0 0 1 1.13,-1.17 1.15,1.15 0 0 1 1.16,1.12 1.2,1.2 0 0 1 -1.11,1.23 z m 1.64,-18.22 a 0.45,0.45 0 0 1 -0.45,0.45 H 1057 a 0.45,0.45 0 0 1 -0.45,-0.45 V 2060 a 0.45,0.45 0 0 1 0.45,-0.45 h 12.41 a 0.45,0.45 0 0 1 0.45,0.45 z m 0,-3.17 a 0.45,0.45 0 0 1 -0.45,0.45 H 1057 a 0.45,0.45 0 0 1 -0.45,-0.45 v -1.19 a 0.45,0.45 0 0 1 0.45,-0.45 h 12.41 a 0.45,0.45 0 0 1 0.45,0.45 z m 0,-3.18 a 0.45,0.45 0 0 1 -0.45,0.45 H 1057 a 0.45,0.45 0 0 1 -0.45,-0.45 v -1.18 a 0.45,0.45 0 0 1 0.45,-0.45 h 12.41 a 0.45,0.45 0 0 1 0.45,0.45 z"
           class="cls-1"
           inkscape:connector-curvature="0"
           style="fill:#ffffff" />
        <path
           id="path1286"
           d="m 1147.37,1954.33 c -13.13,-0.1 -25.54,-0.2 -34,-0.13 -11.47,0.1 -14.58,7.22 -14.61,11 v 5.28 h -2.21 c 0,2.25 0,4.45 -0.08,6.66 h -0.41 a 2.05,2.05 0 0 0 -1.73,2.55 1.3,1.3 0 0 1 -0.14,1 21.23,21.23 0 0 0 -2.36,9 c -0.06,2.89 -0.07,5.78 -0.1,8.67 0,0.17 0,0.34 0,0.48 l 19,0.21 c 0,-0.08 0,-0.2 0,-0.32 0,-3.08 0.13,-6.16 0.09,-9.24 a 23.39,23.39 0 0 0 -1.8,-8.48 2.27,2.27 0 0 1 -0.23,-1.42 c 0.24,-1 -0.32,-1.8 -1.61,-2.39 0,-2.2 0,-4.42 0.08,-6.72 h -2.56 v -5.29 c 0,-0.2 0.14,-5 8.66,-5 8.52,0 20.84,0 33.95,0.13 10.35,0.08 21.06,0.17 30.17,0.17 v -6 c -9.06,0.01 -19.76,-0.08 -30.11,-0.16 z"
           class="cls-1"
           inkscape:connector-curvature="0"
           style="fill:#ffffff" />
        <path
           id="path1288"
           d="m 1026.9,1850.44 a 52.48,52.48 0 1 0 52.09,58.7 l 10.38,0.12 c 0.06,-4.64 0.11,-9.31 0.16,-13.94 l -10.73,-0.12 a 52.55,52.55 0 0 0 -51.9,-44.76 z m 0,99 a 46.48,46.48 0 1 1 46.47,-46.48 46.52,46.52 0 0 1 -46.47,46.43 z m 53.4,-51.77 h 2 c 0,0.93 0,1.86 0,2.79 h -1.94 c -0.08,-0.96 -0.07,-1.89 -0.06,-2.84 z m -0.08,6.76 h 1.93 c 0,0.92 0,1.84 0,2.71 h -1.94 c -0.02,-0.93 0,-1.85 0.01,-2.76 z"
           class="cls-1"
           inkscape:connector-curvature="0"
           style="fill:#ffffff" />
        <path
           id="path1290"
           d="m 1027.57,1867.93 v 0 a 34.3,34.3 0 0 0 0,68.59 v 0 a 34.3,34.3 0 0 0 0,-68.59 z m -9,5.11 c -3.35,4.4 -5,9.42 -6.07,13.91 a 31.66,31.66 0 0 1 -7.21,-5.68 30.31,30.31 0 0 1 13.28,-8.27 z m -15.67,11.09 v 0 c 0.3,0.31 0.59,0.62 0.9,0.91 a 33.67,33.67 0 0 0 7.8,5.62 c 0,0 0.13,0.07 0.12,0.1 a 65.15,65.15 0 0 0 -0.89,9.56 H 997 c -0.45,-3.32 3,-12.89 5.9,-16.19 z m 0,36.17 a 30.41,30.41 0 0 1 -5.87,-16.19 h 13.84 c 0,0.06 0,0.12 0,0.17 a 62.36,62.36 0 0 0 0.85,9.16 c 0,0.25 0,0.25 -0.18,0.37 a 33.82,33.82 0 0 0 -8.65,6.49 z m 2.4,2.86 a 30.69,30.69 0 0 1 7.21,-5.66 c 1.15,4.61 2.83,9.76 6.31,14.15 -3.25,-0.73 -10.39,-4.96 -13.53,-8.49 z m 9.2,-19.05 h 11.16 v 5.76 a 34.78,34.78 0 0 0 -10.44,2.26 z m 11.16,28.34 a 7,7 0 0 1 -2.06,-1.2 16,16 0 0 1 -3.93,-5 41.25,41.25 0 0 1 -3.69,-10.44 30.41,30.41 0 0 1 9.68,-2.22 z m 0,-32.12 h -11.17 l 0.71,-8 a 35,35 0 0 0 10.46,2.25 z m 0,-9.47 -0.58,-0.06 c -0.82,-0.08 -1.62,-0.17 -2.42,-0.29 a 29.78,29.78 0 0 1 -6.69,-1.88 v 0 a 37.77,37.77 0 0 1 4.32,-11.49 13.32,13.32 0 0 1 3.91,-4.37 5.75,5.75 0 0 1 1.48,-0.78 z m 24.15,-9.59 a 31.1,31.1 0 0 1 -7.21,5.67 c -1.12,-4.5 -2.75,-9.54 -6.07,-13.91 a 30.35,30.35 0 0 1 13.28,8.24 z m -20.36,19 v -5.75 a 34.73,34.73 0 0 0 10.44,-2.25 l 0.72,8 z m 11.09,3.79 a 66.48,66.48 0 0 1 -0.7,7.92 l -1.18,-0.35 c -1.27,-0.38 -2.58,-0.77 -3.89,-1.06 -1.31,-0.29 -2.67,-0.46 -4,-0.64 l -1.34,-0.18 v -5.69 z M 1029.43,1872 c 0.26,0.1 0.51,0.2 0.75,0.32 a 10.94,10.94 0 0 1 3.75,3.46 29.59,29.59 0 0 1 4.19,9 c 0.24,0.8 0.45,1.61 0.65,2.43 0.12,0.46 0.24,0.92 0.37,1.44 a 30.62,30.62 0 0 1 -9.71,2.2 z m 0,60.45 v 0 -18.85 a 31,31 0 0 1 9.72,2.23 c -0.07,0.26 -0.13,0.53 -0.2,0.79 -0.21,0.85 -0.43,1.71 -0.68,2.55 a 30.26,30.26 0 0 1 -4.35,9.49 10,10 0 0 1 -4.47,3.79 z m 7.07,-1 c 3.34,-4.38 5,-9.42 6.08,-13.92 a 30.77,30.77 0 0 1 7.21,5.68 30.32,30.32 0 0 1 -13.27,8.21 z m 15.69,-11.13 -0.7,-0.69 a 33.89,33.89 0 0 0 -8,-5.84 c -0.11,-0.06 -0.14,-0.08 -0.12,-0.15 a 64.64,64.64 0 0 0 0.88,-9.5 h 13.84 a 30.28,30.28 0 0 1 -5.88,16.15 z m 5.87,-20 h -13.82 c 0,-0.2 0,-0.39 0,-0.58 0,-0.77 -0.06,-1.57 -0.14,-2.35 -0.19,-2 -0.42,-4 -0.71,-6.31 0,-0.35 0,-0.36 0.2,-0.47 a 33.6,33.6 0 0 0 8.62,-6.47 30.53,30.53 0 0 1 5.87,16.19 z"
           class="cls-1"
           inkscape:connector-curvature="0"
           style="fill:#ffffff" />
        <path
           id="path1292"
           d="m 1070,1778.07 10.62,0.12 c 0,-4.64 0.11,-9.31 0.16,-13.94 l -10.8,-0.12 a 57.23,57.23 0 1 0 0,13.94 z m 1.55,-11.52 h 2 c 0,0.93 0,1.86 0,2.79 h -2 c 0.01,-0.91 0.03,-1.83 0.04,-2.79 z m -0.08,6.76 h 1.93 c 0,0.92 0,1.84 0,2.71 h -1.94 c 0.02,-0.88 0.03,-1.8 0.05,-2.71 z M 962,1771.15 a 51.26,51.26 0 1 1 51.26,51.26 51.32,51.32 0 0 1 -51.26,-51.26 z"
           class="cls-1"
           inkscape:connector-curvature="0"
           style="fill:#ffffff" />
        <path
           id="path1294"
           d="M 1034.76,1802.85 A 6.34,6.34 0 0 0 1039,1797 q 0,-15.21 0,-30.43 a 6.39,6.39 0 0 0 -6.27,-6.27 c -0.74,0 -1.48,0 -2.31,0 v -8.41 a 17.2,17.2 0 0 0 -34.13,-3.2 24.1,24.1 0 0 0 -0.27,3.4 c 0,2.71 0,5.41 0,8.2 h -1.83 a 6.46,6.46 0 0 0 -6.77,6.75 v 29.36 a 6.44,6.44 0 0 0 5.35,6.79 c 0.06,0 0.11,0.07 0.16,0.1 h 40.59 c 0.4,-0.17 0.83,-0.29 1.24,-0.44 z m -18.1,-20.88 a 1.34,1.34 0 0 0 -0.61,1.27 c 0,2 0,3.94 0,5.91 a 2.84,2.84 0 0 1 -5.67,0 c 0,-0.69 0,-1.38 0,-2.08 v -1.14 c 0,-0.94 0,-1.88 0,-2.82 a 1.14,1.14 0 0 0 -0.55,-1.1 5.58,5.58 0 0 1 -2.13,-6.06 5.73,5.73 0 0 1 10.84,-0.65 5.61,5.61 0 0 1 -1.88,6.7 z m 8,-21.75 h -22.91 v -1.63 c 0,-2.27 0,-4.53 0,-6.79 a 11.45,11.45 0 0 1 22.72,-2.15 28.87,28.87 0 0 1 0.19,3.95 c 0.02,2.19 0,4.4 0,6.62 z"
           class="cls-1"
           inkscape:connector-curvature="0"
           style="fill:#ffffff" />
        <path
           id="path1296"
           d="m 1131.82,1834.21 v -50.4 c 0,-4.93 -3,-11.1 -8.73,-13.36 -2.21,-0.87 -7.09,-1.27 -12.16,-1.44 0,-1.21 0,-2.16 0,-2.48 l -6.66,-0.07 c 0,-0.13 0,-0.27 0,-0.41 a 2.05,2.05 0 0 0 -2.55,-1.73 1.28,1.28 0 0 1 -1,-0.15 21.18,21.18 0 0 0 -9,-2.35 c -2.89,-0.06 -5.79,-0.07 -8.68,-0.1 h -0.47 c -0.07,6.36 -0.14,12.69 -0.22,19 h 0.33 c 3.08,0 6.16,0.13 9.24,0.09 a 23.33,23.33 0 0 0 8.47,-1.8 2.22,2.22 0 0 1 1.42,-0.23 c 1,0.23 1.81,-0.32 2.4,-1.61 l 6.72,0.08 V 1775 c 4.67,0.15 8.62,0.47 10,1 3.59,1.42 4.93,5.52 4.93,7.78 v 109.51 a 6.13,6.13 0 0 1 -1.67,4.69 8,8 0 0 1 -4.51,1.84 c 0,-1.1 0,-1.95 0,-2.25 l -6.66,-0.07 c 0,-0.13 0,-0.27 0,-0.41 a 2.05,2.05 0 0 0 -2.55,-1.73 1.26,1.26 0 0 1 -1,-0.15 21.22,21.22 0 0 0 -9,-2.35 c -2.89,-0.06 -5.78,-0.07 -8.67,-0.1 h -0.48 c -0.07,6.36 -0.14,12.69 -0.21,19 h 0.32 c 3.08,0 6.16,0.13 9.24,0.09 a 23.39,23.39 0 0 0 8.48,-1.8 2.2,2.2 0 0 1 1.42,-0.23 c 1,0.23 1.8,-0.32 2.39,-1.61 l 6.72,0.08 v -2.5 a 14.13,14.13 0 0 0 8.63,-3.48 11.89,11.89 0 0 0 3.59,-9.08 v -53.1 c 3.25,0.13 9.29,0.28 19.68,0.28 v -6 c -10.67,0.09 -16.68,-0.07 -19.76,-0.2 z"
           class="cls-1"
           inkscape:connector-curvature="0"
           style="fill:#ffffff" />
        <path
           id="path1298"
           d="m 1280,2019.67 a 52.54,52.54 0 1 0 52.07,59.44 l 11.33,0.13 c 0,-4.64 0.1,-9.31 0.16,-13.94 l -11.5,-0.13 a 52.62,52.62 0 0 0 -52.06,-45.5 z m 0,99.07 a 46.54,46.54 0 1 1 46.54,-46.54 46.59,46.59 0 0 1 -46.54,46.54 z m 54.33,-51.14 h 2 c 0,0.93 0,1.86 0,2.79 h -1.94 c -0.05,-0.91 -0.04,-1.83 -0.02,-2.79 z m -0.09,6.76 h 1.93 c 0,0.92 0,1.84 0,2.72 h -1.94 c 0.03,-0.88 0.04,-1.8 0.05,-2.72 z"
           class="cls-1"
           inkscape:connector-curvature="0"
           style="fill:#ffffff" />
        <path
           id="path1300"
           d="m 1290,2081.69 c -2.11,2.13 -4.23,4.24 -6.35,6.36 a 3.89,3.89 0 0 1 -5.8,0 q -3.18,-3.17 -6.35,-6.36 a 1.67,1.67 0 0 1 -0.27,-0.5 l -18.23,18.13 h 55.47 l -18.18,-18.22 a 3.82,3.82 0 0 1 -0.29,0.59 z"
           class="cls-1"
           inkscape:connector-curvature="0"
           style="fill:#ffffff" />
        <path
           id="path1302"
           d="m 1251.38,2062 v 35.81 l 17.9,-17.89 z"
           class="cls-1"
           inkscape:connector-curvature="0"
           style="fill:#ffffff" />
        <path
           id="path1304"
           d="m 1310.05,2097.67 v -35.74 l -17.89,17.85 z"
           class="cls-1"
           inkscape:connector-curvature="0"
           style="fill:#ffffff" />
        <path
           id="path1306"
           d="m 1258.72,2045.49 h 44.06 V 2066 l 5.87,-5.8 -0.29,-0.34 c -1.56,-1.55 -3.12,-3.09 -4.65,-4.66 a 1.73,1.73 0 0 1 -0.43,-1 c 0,-2.46 0,-4.93 0,-7.39 V 2045 h -0.76 c -2.78,0 -5.55,0 -8.32,0 a 1.56,1.56 0 0 1 -1.23,-0.51 q -5.28,-5.31 -10.57,-10.59 c -1.15,-1.15 -2.17,-1.15 -3.33,0 -3.52,3.52 -7,7 -10.53,10.55 a 1.67,1.67 0 0 1 -1.28,0.54 c -2.77,0 -5.55,0 -8.32,0 h -0.75 v 1 c 0,2.73 0,5.46 0,8.19 a 1.49,1.49 0 0 1 -0.49,1.16 c -1.2,1.15 -2.36,2.35 -3.55,3.51 -0.46,0.46 -1,0.89 -1.35,1.23 l 5.93,6 z"
           class="cls-1"
           inkscape:connector-curvature="0"
           style="fill:#ffffff" />
        <path
           id="path1308"
           d="m 1285.55,2057 c 0.07,-0.39 0,-0.6 -0.4,-0.68 a 20,20 0 0 0 -2.54,-0.49 6.52,6.52 0 0 0 -7,6.77 c 0.08,2.95 2.61,4.49 5.13,3.06 a 11.51,11.51 0 0 0 1.76,-1.48 2.48,2.48 0 0 1 0.13,0.35 2,2 0 0 0 1.84,1.58 4.57,4.57 0 0 0 3.17,-0.74 6.21,6.21 0 0 0 2.65,-4.56 8,8 0 0 0 -5.87,-9.31 10.54,10.54 0 0 0 -13.27,10.75 8.56,8.56 0 0 0 3.54,7 8.89,8.89 0 0 0 6.23,1.63 27.12,27.12 0 0 0 3.75,-0.77 0.71,0.71 0 0 0 0.43,-0.56 5.6,5.6 0 0 0 -0.33,-1.12 c -1.23,0.24 -2.38,0.56 -3.56,0.67 a 7.1,7.1 0 0 1 -5.31,-1.45 c -2.1,-1.68 -2.67,-4 -2.56,-6.54 a 8.21,8.21 0 0 1 9.39,-8.17 6.62,6.62 0 0 1 4.58,10.14 3.15,3.15 0 0 1 -1.2,1 c -0.8,0.39 -1.37,0 -1.4,-0.87 a 8.53,8.53 0 0 1 0.13,-1.59 c 0.16,-1.48 0.43,-3.04 0.71,-4.62 z m -3.54,4.66 a 4.5,4.5 0 0 1 -1.23,1.82 1.33,1.33 0 0 1 -2.24,-0.57 3.93,3.93 0 0 1 2.78,-4.78 8.76,8.76 0 0 1 1.37,0 29.32,29.32 0 0 1 -0.69,3.56 z"
           class="cls-1"
           inkscape:connector-curvature="0"
           style="fill:#ffffff" />
        <path
           id="path1310"
           d="m 1538.78,2050.21 c 0,-0.08 0,-0.2 0,-0.32 0,-3.08 0.09,-6.16 0,-9.24 a 23.52,23.52 0 0 0 -1.86,-8.46 2.23,2.23 0 0 1 -0.24,-1.42 c 0.23,-1 -0.34,-1.81 -1.63,-2.39 0,-2.19 0,-4.42 0,-6.72 h -2.18 c 0,-14.94 0.06,-48.56 0.06,-48.68 h -6 c 0,0.12 0,33.75 -0.06,48.71 h -2.59 c 0,2.25 0,4.45 0,6.66 h -0.41 a 2.05,2.05 0 0 0 -1.71,2.56 1.32,1.32 0 0 1 -0.14,1 21.24,21.24 0 0 0 -2.29,9 c 0,2.89 0,5.78 0,8.67 0,0.17 0,0.33 0,0.47 z"
           class="cls-1"
           inkscape:connector-curvature="0"
           style="fill:#ffffff" />
        <path
           id="path1312"
           d="m 1464.4,2080.31 a 23.31,23.31 0 0 0 -8.46,1.86 2.23,2.23 0 0 1 -1.42,0.24 c -1,-0.23 -1.8,0.34 -2.39,1.63 h -6.71 c 0,0.34 0,1.45 0,2.83 -5.15,-0.43 -8.75,-1.46 -12.69,-4.27 l -1.83,-1.33 c -6.13,-4.47 -15.4,-11.23 -25.21,-11.23 h -32 c 0,-1.18 0,-2.11 0,-2.41 l -6.66,-0.08 c 0,-0.13 0,-0.27 0,-0.41 a 2.05,2.05 0 0 0 -2.55,-1.73 1.32,1.32 0 0 1 -1,-0.14 21.2,21.2 0 0 0 -9,-2.36 c -2.89,-0.06 -5.78,-0.07 -8.67,-0.1 h -0.47 c -0.08,6.36 -0.15,12.68 -0.22,19 h 0.33 c 3.08,0 6.16,0.13 9.24,0.09 a 23.33,23.33 0 0 0 8.47,-1.8 2.29,2.29 0 0 1 1.42,-0.23 c 1,0.24 1.8,-0.32 2.4,-1.61 l 6.71,0.08 c 0,-0.3 0,-1.2 0,-2.36 h 32 c 7.85,0 16.17,6.07 21.68,10.08 l 1.88,1.36 c 5.17,3.7 9.9,4.93 16.18,5.41 0,0.94 0,1.66 0,1.93 h 6.66 c 0,0.13 0,0.27 0,0.41 a 2.07,2.07 0 0 0 2.57,1.71 1.3,1.3 0 0 1 1,0.14 21.28,21.28 0 0 0 9,2.29 c 2.89,0 5.78,0 8.67,0 h 0.47 c 0,-6.36 0.06,-12.69 0.09,-19 h -0.33 c -3,0.01 -6.08,-0.06 -9.16,0 z"
           class="cls-1"
           inkscape:connector-curvature="0"
           style="fill:#ffffff" />
        <path
           id="path1314"
           d="m 1541.16,2087 3.25,-2.88 a 21.88,21.88 0 0 0 -29.71,0 l 3.24,2.9 a 17.61,17.61 0 0 1 23.22,-0.02 z"
           class="cls-1"
           inkscape:connector-curvature="0"
           style="fill:#ffffff" />
        <path
           id="path1316"
           d="m 1520.52,2089.75 3.2,2.84 c 3.93,-2.84 7.81,-2.86 11.71,0 l 3.23,-2.84 a 13.2,13.2 0 0 0 -18.14,0 z"
           class="cls-1"
           inkscape:connector-curvature="0"
           style="fill:#ffffff" />
        <path
           id="path1318"
           d="m 1529.53,2093.51 a 3.5,3.5 0 1 0 0,7 3.5,3.5 0 0 0 3.59,-3.55 3.56,3.56 0 0 0 -3.59,-3.45 z"
           class="cls-1"
           inkscape:connector-curvature="0"
           style="fill:#ffffff" />
        <path
           id="path1320"
           d="m 1567.47,2062.54 q -15.65,0 -31.3,0 c 0,-3.57 0,-7.16 0,-10.68 l -14,-0.07 c 0,3.56 0,7.17 0,10.75 q -15.64,0 -31.29,0 a 3.61,3.61 0 0 0 -3.83,3.79 q 0,8.33 0,16.63 l -11.48,-0.05 c 0,4.64 0,9.32 -0.06,14 h 11.55 c 0,4.94 0,9.89 0,14.83 0,2.52 1.33,3.85 3.84,3.85 9.13,0 68,0 77.17,0 a 3.42,3.42 0 0 0 3.3,-2.07 c 0.06,-0.12 0.15,-0.24 0.22,-0.35 V 2065 c -0.71,-1.86 -2.11,-2.46 -4.12,-2.46 z m -82.68,31.95 h -2 c 0,-0.93 0,-1.86 0,-2.79 h 2 c 0.01,0.91 0.01,1.83 0,2.79 z m 0,-6.76 h -1.93 c 0,-0.92 0,-1.84 0,-2.71 h 1.94 c 0.04,0.87 0.03,1.79 0.02,2.71 z m 49.28,-28.58 v 1.94 h -2.7 c 0,-0.63 0,-1.3 0,-1.93 z m -9.45,-0.07 h 2.79 v 1.94 h -2.76 z m 42.84,51.48 h -76.2 v -43 h 76.2 z"
           class="cls-1"
           inkscape:connector-curvature="0"
           style="fill:#ffffff" />
        <path
           id="path1322"
           d="m 1848.25,1879.68 c 1,-1.23 2,-2.51 3.22,-3.87 1.63,-1.89 2.71,-2.72 9.31,-1.16 2.62,0.63 5.07,1.26 7.16,1.82 -0.4,1.43 -0.73,2.59 -0.84,2.94 l 6.4,1.82 c 0,0.13 0,0.27 -0.07,0.41 a 2.06,2.06 0 0 0 2,2.34 1.28,1.28 0 0 1 1,0.42 21.16,21.16 0 0 0 8,4.63 c 2.77,0.82 5.56,1.59 8.34,2.39 l 0.46,0.11 5.22,-18.3 -0.31,-0.11 c -3,-0.84 -5.91,-1.74 -8.89,-2.52 a 23.32,23.32 0 0 0 -8.65,-0.49 2.23,2.23 0 0 1 -1.43,-0.16 c -1,-0.5 -1.83,-0.16 -2.74,0.93 L 1870,1869 c -0.06,0.24 -0.23,0.85 -0.45,1.66 -2.14,-0.58 -4.66,-1.23 -7.38,-1.87 -6.92,-1.65 -11.18,-1.63 -15.23,3.06 -1.24,1.43 -2.36,2.8 -3.35,4 -4.06,5 -6,7.2 -9.37,7.3 l 0.18,6 c 6.26,-0.15 9.6,-4.25 13.85,-9.47 z"
           class="cls-1"
           inkscape:connector-curvature="0"
           style="fill:#ffffff" />
        <path
           id="path1324"
           d="m 1932.57,2039.1 c 0,-3.47 0.08,-6.95 0.12,-10.38 l -13.94,-0.16 c 0,3.55 -0.08,7.15 -0.12,10.73 a 52.51,52.51 0 1 0 13.94,-0.19 z m -4.75,-3.16 h 2.71 v 1.94 h -2.71 c -0.01,-0.64 0,-1.32 0,-1.94 z m -6.74,-0.11 2.78,0.05 c 0,0.6 0,1.29 0,1.94 h -2.76 c -0.04,-0.69 -0.03,-1.36 -0.02,-1.99 z m 5.27,101.83 a 46.48,46.48 0 1 1 46.47,-46.47 46.51,46.51 0 0 1 -46.47,46.47 z"
           class="cls-1"
           inkscape:connector-curvature="0"
           style="fill:#ffffff" />
        <path
           id="path1326"
           d="m 1953.72,2065.32 c -3.27,0 -6.54,0 -9.81,0 -5.58,0 -11.16,0 -16.74,0 a 6.34,6.34 0 0 0 -6.23,6.32 c 0,4.81 0,9.63 0.06,14.44 a 6.16,6.16 0 0 0 5.36,5.7 c 0.7,0.08 1.4,0.1 2.19,0.15 v 8.19 l 0.35,-0.26 c 3.18,-2.56 6.35,-5.12 9.54,-7.67 a 1.59,1.59 0 0 1 0.85,-0.3 h 14.28 a 6.36,6.36 0 0 0 6.55,-6.35 c 0,-4.6 0,-9.2 0,-13.8 a 6.35,6.35 0 0 0 -6.4,-6.42 z m -20.3,16.14 a 2.87,2.87 0 0 1 -2.11,2.65 6.59,6.59 0 0 1 -4.85,-0.31 c 0.15,-0.65 0.29,-1.24 0.41,-1.72 l 2.64,0.46 a 0.74,0.74 0 0 0 0.21,0 c 0.77,-0.06 1.28,-0.41 1.37,-0.94 0.09,-0.53 -0.19,-0.95 -0.95,-1.3 -0.6,-0.28 -1.24,-0.49 -1.84,-0.8 a 2.81,2.81 0 0 1 -1.73,-2.83 3,3 0 0 1 2.42,-2.57 6.09,6.09 0 0 1 4,0.34 l -0.47,1.8 a 4.75,4.75 0 0 0 -2.61,-0.4 c -0.48,0.09 -0.9,0.27 -1,0.8 -0.1,0.53 0.26,0.86 0.68,1.07 0.73,0.35 1.5,0.62 2.22,1 a 2.72,2.72 0 0 1 1.61,2.75 z m 10.39,2.77 c -0.1,-2.61 -0.19,-5.21 -0.28,-7.82 v 0 c -0.3,1 -0.59,2 -0.9,3 -0.44,1.41 -0.89,2.82 -1.31,4.24 a 0.53,0.53 0 0 1 -0.6,0.44 c -1.35,0 -1.35,0 -1.68,-1.23 q -0.73,-2.82 -1.45,-5.64 c -0.07,-0.29 -0.12,-0.6 -0.18,-0.9 h -0.08 c -0.12,2.6 -0.24,5.21 -0.36,7.86 h -2.12 c 0.22,-3.37 0.43,-6.74 0.65,-10.14 h 3.09 q 0.95,3.43 1.9,7 c 0.22,-0.84 0.42,-1.67 0.66,-2.49 0.42,-1.42 0.87,-2.84 1.33,-4.24 a 0.49,0.49 0 0 1 0.37,-0.26 c 0.75,0 1.52,0 2.27,0 0.36,0 0.45,0.13 0.46,0.47 0.11,2.4 0.24,4.8 0.37,7.2 0,0.82 0.09,1.65 0.14,2.51 z m 8.62,-0.18 a 6.67,6.67 0 0 1 -5,-0.24 c 0.16,-0.63 0.3,-1.23 0.43,-1.74 0.89,0.16 1.74,0.34 2.6,0.47 a 2,2 0 0 0 0.83,-0.12 1,1 0 0 0 0.78,-0.89 0.93,0.93 0 0 0 -0.55,-1 c -0.65,-0.32 -1.36,-0.52 -2,-0.9 a 5.14,5.14 0 0 1 -1.62,-1.37 2.66,2.66 0 0 1 1.15,-3.78 6,6 0 0 1 4.91,-0.08 c -0.17,0.65 -0.34,1.23 -0.45,1.66 -1,-0.08 -1.81,-0.2 -2.68,-0.21 a 0.92,0.92 0 0 0 -1,0.82 0.89,0.89 0 0 0 0.61,1 c 0.76,0.37 1.56,0.67 2.31,1.06 a 2.69,2.69 0 0 1 1.59,2.6 2.85,2.85 0 0 1 -1.91,2.72 z"
           class="cls-1"
           inkscape:connector-curvature="0"
           style="fill:#ffffff" />
        <path
           id="path1328"
           d="m 1927.48,2105.71 a 0.86,0.86 0 0 0 -0.19,0.56 c 0,1.05 0,2.09 0,3.14 v 2.59 h -27.77 v -41.67 h 18.94 v -1.07 a 6.3,6.3 0 0 1 6.53,-6.45 c 1.32,0 2.64,0 4.09,0 a 5.21,5.21 0 0 0 -4.48,-2.54 c -7.46,0 -14.91,0 -22.37,0 a 5.22,5.22 0 0 0 -5.25,5.26 v 52.53 a 5.27,5.27 0 0 0 5.28,5.36 c 7.4,0 14.81,0 22.21,0 a 5.33,5.33 0 0 0 5.37,-5.35 c 0,-4.74 0,-9.48 0,-14.23 0,-0.13 0,-0.25 0,-0.47 -0.84,0.82 -1.63,1.57 -2.36,2.34 z m -17.38,-41.18 a 1.29,1.29 0 0 1 0.65,-0.14 c 1,0 2,0 3,0 h 3 c 0.73,0 1.2,0.41 1.21,1 a 1.06,1.06 0 0 1 -1.2,1 c -2,0 -4,0 -6,0 a 1.09,1.09 0 0 1 -1.16,-0.81 1,1 0 0 1 0.5,-1.05 z m 3.64,56.67 a 3.18,3.18 0 0 1 -3.12,-3.21 3.14,3.14 0 1 1 3.12,3.21 z"
           class="cls-1"
           inkscape:connector-curvature="0"
           style="fill:#ffffff" />
        <path
           id="path1330"
           d="m 1939.09,1912.22 h 65.23 c 4.14,0 5.16,-1 5.16,-5.06 q 0,-18.32 0,-36.63 c 0,-4.21 -0.86,-5.12 -5.07,-5.13 q -32.78,0 -65.55,0 c -4.17,0 -5,0.8 -5,4.87 q 0,18.48 0,37 c 0.04,4.07 0.97,4.94 5.23,4.95 z m 3.4,-42.59 q 29.07,0.13 58.14,0 c 2.71,0 3.44,0.85 3.41,3.48 -0.13,10.27 -0.16,20.56 0,30.83 0,3 -1,3.57 -3.7,3.53 -9.64,-0.15 -19.27,-0.06 -28.91,-0.06 -9.64,0 -19.49,-0.09 -29.23,0.06 -2.61,0 -3.3,-0.85 -3.28,-3.31 0.1,-10.38 0.12,-20.77 0,-31.16 -0.04,-2.77 1.01,-3.38 3.57,-3.37 z"
           class="cls-1"
           inkscape:connector-curvature="0"
           style="fill:#ffffff" />
        <path
           id="path1332"
           d="m 2008.92,1916.42 a 3.87,3.87 0 0 0 -2.74,-1.11 q -34.52,-0.15 -69,-0.13 c -0.86,0 -2.18,0.26 -2.5,0.84 -2.63,4.72 -5.06,9.55 -7.71,14.63 h 91.94 c -3.5,-5 -6.66,-9.65 -9.99,-14.23 z m -70.55,1.17 c 0.34,-0.57 1.68,-0.76 2.56,-0.76 q 30.48,-0.06 61,0 a 5.14,5.14 0 0 1 3.37,1.72 79.17,79.17 0 0 1 4.77,6.71 h -75.5 c 1.35,-2.82 2.43,-5.34 3.8,-7.67 z m 24.91,11.77 c 1,-2.49 1,-2.53 13,-2.44 2,0 4.79,-1.08 5.76,2.44 z"
           class="cls-1"
           inkscape:connector-curvature="0"
           style="fill:#ffffff" />
        <path
           id="path1334"
           d="m 2018.44,1934 a 6.68,6.68 0 0 0 -2.54,-0.1 h -85.71 a 5.57,5.57 0 0 0 -2.21,0.07 c -0.71,0.35 -1.76,1.26 -1.66,1.72 a 3.43,3.43 0 0 0 1.75,2 6.23,6.23 0 0 0 2.53,0.1 h 85.07 a 8.14,8.14 0 0 0 2.85,-0.16 2.42,2.42 0 0 0 1.22,-1.85 2.52,2.52 0 0 0 -1.3,-1.78 z"
           class="cls-1"
           inkscape:connector-curvature="0"
           style="fill:#ffffff" />
        <path
           id="path1336"
           d="m 1984.52,1886.39 3.25,-2.88 a 21.89,21.89 0 0 0 -29.71,0 c 1.11,1 2.18,1.94 3.24,2.89 a 17.62,17.62 0 0 1 23.22,-0.01 z"
           class="cls-1"
           inkscape:connector-curvature="0"
           style="fill:#ffffff" />
        <path
           id="path1338"
           d="m 1963.88,1889.17 3.2,2.85 c 3.93,-2.85 7.81,-2.87 11.71,0 l 3.23,-2.84 a 13.2,13.2 0 0 0 -18.14,-0.01 z"
           class="cls-1"
           inkscape:connector-curvature="0"
           style="fill:#ffffff" />
        <path
           id="path1340"
           d="m 1972.89,1892.94 a 3.5,3.5 0 1 0 0,7 3.5,3.5 0 0 0 3.59,-3.55 3.55,3.55 0 0 0 -3.59,-3.45 z"
           class="cls-1"
           inkscape:connector-curvature="0"
           style="fill:#ffffff" />
        <path
           id="path1342"
           d="m 1883,1914.66 c 2.89,0.07 5.78,0.08 8.68,0.11 h 0.47 c 0.07,-6.36 0.14,-12.69 0.21,-19 h -0.32 c -3.08,0 -6.16,-0.13 -9.24,-0.09 a 23.53,23.53 0 0 0 -8.47,1.79 2.16,2.16 0 0 1 -1.42,0.23 c -1.05,-0.23 -1.81,0.33 -2.4,1.62 l -6.72,-0.08 v 2.62 c -16.63,-0.16 -38.87,-0.39 -44.64,-0.46 l -0.07,6 44.67,0.47 c 0,1 0,1.86 0,2.14 l 6.66,0.07 c 0,0.14 0,0.28 0,0.42 a 2.06,2.06 0 0 0 2.55,1.73 1.29,1.29 0 0 1 1,0.14 21.08,21.08 0 0 0 9.04,2.29 z"
           class="cls-1"
           inkscape:connector-curvature="0"
           style="fill:#ffffff" />
        <path
           id="path1344"
           d="m 1973,1837.05 a 68.37,68.37 0 0 0 -63,42.11 l -10.57,-3 c -1.28,4.46 -2.56,9 -3.83,13.41 l 10.4,3 c -0.37,2 -0.67,3.92 -0.88,5.92 l -11.09,-0.13 c 0,4.63 -0.11,9.31 -0.16,13.94 l 11.27,0.12 a 68,68 0 0 0 20,41.51 c -5.31,0 -12.6,0 -19.74,0 -5.43,0 -10.8,0 -15.2,0 -4.4,0 -7.66,1.2 -9.93,3.58 -4.07,4.26 -3.77,11.07 -3.47,17.66 0.07,1.67 0.15,3.39 0.15,5 0,4.06 1.26,7.23 3.74,9.43 3.64,3.24 8.5,3 9.66,2.92 h 28.18 a 4.53,4.53 0 0 1 3.55,1.28 7.48,7.48 0 0 1 1.46,4.64 h -2.42 c 0,2.25 0,4.45 -0.07,6.66 h -0.41 a 2.06,2.06 0 0 0 -1.73,2.55 1.36,1.36 0 0 1 -0.15,1 21,21 0 0 0 -2.35,9 c -0.06,2.89 -0.08,5.78 -0.11,8.67 0,0.17 0,0.34 0,0.48 l 19,0.21 a 2.73,2.73 0 0 0 0,-0.32 c 0,-3.08 0.13,-6.16 0.1,-9.24 a 23.81,23.81 0 0 0 -1.8,-8.48 2.2,2.2 0 0 1 -0.23,-1.42 c 0.23,-1 -0.33,-1.8 -1.62,-2.39 0,-2.2 0.06,-4.42 0.09,-6.72 h -2.36 a 13.31,13.31 0 0 0 -3,-8.68 10.33,10.33 0 0 0 -8,-3.28 h -28.33 -0.33 c 0,0 -3.26,0.32 -5.22,-1.45 -1.13,-1 -1.7,-2.67 -1.7,-4.92 0,-1.74 -0.08,-3.53 -0.16,-5.27 -0.24,-5.33 -0.48,-10.84 1.82,-13.25 1.11,-1.16 2.94,-1.72 5.59,-1.72 4.41,0 9.78,0 15.21,0 10.24,0 22.19,0 26.81,0.08 a 68.27,68.27 0 1 0 40.83,-122.9 z m -70,72.89 h -2 c 0,-0.93 0,-1.85 0,-2.78 h 1.95 c 0.14,0.9 0.13,1.84 0.12,2.78 z m 0.08,-6.76 h -1.93 c 0,-0.91 0,-1.83 0,-2.71 h 1.94 c 0.09,0.87 0.07,1.79 0.06,2.71 z m 1.93,-13.42 -1.88,-0.54 0.78,-2.67 1.86,0.56 c -0.17,0.89 -0.42,1.73 -0.69,2.65 z m 1.86,-6.5 -1.86,-0.51 c 0.25,-0.88 0.5,-1.77 0.75,-2.61 l 1.86,0.52 c -0.17,0.84 -0.43,1.72 -0.68,2.6 z m 66.08,84.35 a 62.28,62.28 0 1 1 62.28,-62.28 62.34,62.34 0 0 1 -62.23,62.28 z"
           class="cls-1"
           inkscape:connector-curvature="0"
           style="fill:#ffffff" />
      </g>
    </g>
  </g>
</svg>
