<?xml version="1.0" encoding="UTF-8" standalone="no"?>
<!-- Created with Inkscape (http://www.inkscape.org/) -->

<svg
   xmlns:dc="http://purl.org/dc/elements/1.1/"
   xmlns:cc="http://creativecommons.org/ns#"
   xmlns:rdf="http://www.w3.org/1999/02/22-rdf-syntax-ns#"
   xmlns:svg="http://www.w3.org/2000/svg"
   xmlns="http://www.w3.org/2000/svg"
   xmlns:sodipodi="http://sodipodi.sourceforge.net/DTD/sodipodi-0.dtd"
   xmlns:inkscape="http://www.inkscape.org/namespaces/inkscape"
   version="1.1"
   id="svg39348"
   width="1130"
   height="1620"
   inkscape:version="0.92.4 (5da689c313, 2019-01-14)"
   sodipodi:docname="img-videocall.svg">
  <metadata
     id="metadata39354">
    <rdf:RDF>
      <cc:Work
         rdf:about="">
        <dc:format>image/svg+xml</dc:format>
        <dc:type
           rdf:resource="http://purl.org/dc/dcmitype/StillImage" />
        <dc:title></dc:title>
      </cc:Work>
    </rdf:RDF>
  </metadata>
  <defs
     id="defs39352" />
  <sodipodi:namedview
     pagecolor="#ffffff"
     bordercolor="#666666"
     borderopacity="1"
     objecttolerance="10"
     gridtolerance="10"
     guidetolerance="10"
     inkscape:pageopacity="0"
     inkscape:pageshadow="2"
     inkscape:window-width="1920"
     inkscape:window-height="1001"
     id="namedview39350"
     showgrid="false"
     inkscape:zoom="0.417193"
     inkscape:cx="471.93026"
     inkscape:cy="1258.2343"
     inkscape:window-x="-9"
     inkscape:window-y="-9"
     inkscape:window-maximized="1"
     inkscape:current-layer="svg39348" />
  <g
     id="g39959"
     transform="matrix(1.0213253,0,0,1.0134159,-9.7104228,-42.544117)">
    <rect
       id="rect38726"
       height="1408"
       width="1124"
       y="41.686104"
       x="5.7459369"
       class="cls-10"
       style="fill:#ffffff" />
    <path
       id="path38728"
       d="m 5.745937,1142.6861 c 69.5,-49.07 188.790003,-84.87 271.400003,-87.73 13.52,16.94 34,7.57 50.18,13.3 26.9,9.53 57.37,30.72 37.75,57.52 -37.7,51.48 5.93,68.06 30.71,91 41.78,38.72 87.08,73.66 133.25,112.15 -32.66,17 -65.45,-3.88 -89.74,19 -156.82,-31.71 -336.46,-70.43 -433.550003,-205.24 z"
       class="cls-21"
       inkscape:connector-curvature="0"
       style="fill:#2a1e16" />
    <path
       id="path38730"
       d="m 857.29594,1055.1561 c 78,16.51 205.05996,68 272.44996,121.53 -102.33,133.78 -285.76996,144.25 -447.99996,171.83 -18.56,-23.29 -51.58,-0.85 -77.6,-24.32 51.38,-41.35 100.48,-79.24 147.58,-119.46 22.59,-19.29 50.9,-36 16.37,-75.22 -26.12,-29.69 5,-51 32.33,-61.59 17.81,-6.9 40.83,5.34 56.87,-12.77 z"
       class="cls-21"
       inkscape:connector-curvature="0"
       style="fill:#2a1e16" />
    <path
       id="path38732"
       d="m 439.29594,1347.9261 c 24.29,-22.85 57.08,-2 89.74,-19 -46.17,-38.49 -91.47,-73.43 -133.25,-112.15 -24.78,-23 -68.41,-39.55 -30.71,-91 19.62,-26.8 -10.85,-48 -37.75,-57.52 -16.2,-5.73 -36.66,3.64 -50.18,-13.3 65.6,10.07 111.6,-21.12 148.94,-70.6 l 0.2,0.81 c -21.31,68.3 26.11,118 47.73,174.6 10.3,27 22.82,53.08 34.34,79.59 6.93,42.1 52,71.47 40.17,119.82 z"
       class="cls-22"
       inkscape:connector-curvature="0"
       style="fill:#080606" />
    <path
       id="path38734"
       d="m 857.29594,1055.1561 c -16,18.11 -39.06,5.85 -56.83,12.77 -27.34,10.64 -58.45,31.9 -32.33,61.59 34.53,39.25 6.22,55.93 -16.37,75.22 -47.1,40.22 -96.2,78.11 -147.58,119.46 26,23.47 59,1 77.6,24.32 l -97,10.79 c -10.33,-43.43 29.58,-72 33,-111.42 29.83,-87.7 97.62,-161.41 94.63,-265.39 27.54,73.44 86.47,72.53 144.88,72.66 z"
       class="cls-22"
       inkscape:connector-curvature="0"
       style="fill:#080606" />
    <path
       id="path38736"
       d="m 617.74594,1247.8861 c -3.38,39.38 -43.29,68 -33,111.42 -12.17,7 -24.28,6.59 -36.33,-0.13 11.83,-48.35 -33.2,-77.72 -40.13,-119.82 36.89,-26.83 35.87,-66.7 27.12,-102.84 -5.86,-24.21 2.33,-38.22 14.54,-53 8.77,-10.64 21.17,-4.93 28.9,2.94 14.16,14.41 19.06,28.41 13.24,52.34 -9.08,37.63 -3.24,77.51 25.66,109.09 z"
       class="cls-23"
       inkscape:connector-curvature="0"
       style="fill:#3d5ba7" />
    <path
       id="path38738"
       d="m 426.08594,984.3561 c 9.16,-98.15 -61.28,-162.11 -106.94,-234.41 -33.9,-53.67 -47.23,-102 -23.75,-160.11 12.82,14.9 0.56,46 33.87,52 6.39,-44.61 13,-86.48 18.28,-128.53 8.51,-68.28 41.2,-93.5 107.65,-82.5 69,11.44 139.41,16 207.37,1.62 72.06,-15.24 100.27,20.9 113.84,79.72 10.61,46 16.17,93.13 26.22,153.18 15.8,-32.1 25.36,-51.54 34.92,-71 49.21,50.94 6.33,96.79 -12.66,139.42 -37,83.2 -119.09,140.58 -132.37,240.3 -5.63,42.21 -133.3,73.4 -174.94,52.31 -29.73,-15 -57,-36.18 -91.29,-41.2 z"
       class="cls-24"
       inkscape:connector-curvature="0"
       style="fill:#f6ba93" />
    <path
       id="path38740"
       d="m 837.54594,594.3461 c -9.56,19.44 -19.12,38.88 -34.92,71 -10,-60 -15.61,-107.19 -26.22,-153.18 -13.57,-58.82 -41.78,-95 -113.84,-79.72 -68,14.37 -138.35,9.82 -207.37,-1.62 -66.45,-11.02 -99.14,14.2 -107.65,82.52 -5.24,42 -11.89,83.92 -18.28,128.53 -33.31,-6 -21,-37.14 -33.87,-52 -7.89,-50.59 -23.11,-99.72 -19.79,-152.35 10.37,-164.75 192.32,-264.77 336.14,-254.17 2.91,0.21 7.27,10 7.74,9.74 132.21,-75.72 173,42.44 227.71,113.79 41.67,54.32 22.63,126 15.32,190.27 -3.7,32.92 -16.35,64.87 -24.97,97.19 z"
       class="cls-25"
       inkscape:connector-curvature="0"
       style="fill:#6b3914" />
    <path
       id="path38742"
       d="M 5.745937,1649.6861 H 1129.7459 v -473 l -347.48996,55.18 -133.16,81.32 c 0,0 -42.49,56.48 -87.92,46 -45.43,-10.48 -56.43,-20.5 -67.43,-29.5 -11,-9 -402.650003,-153 -402.650003,-153 l -85.35,-34 z"
       class="cls-21"
       inkscape:connector-curvature="0"
       style="fill:#2a1e16" />
  </g>
</svg>
