<svg xmlns="http://www.w3.org/2000/svg" viewBox="0 0 80 80"><g id="Capa_2" data-name="Capa 2"><g id="Capa_1-2" data-name="Capa 1"><path d="M40,0A40,40,0,1,0,80,40,40,40,0,0,0,40,0Zm0,77.52A37.52,37.52,0,1,1,77.52,40,37.52,37.52,0,0,1,40,77.52Z"></path><path d="M55.59,54.43h0A4.16,4.16,0,0,0,54.49,54l-1.41-.18-.19.07a4.16,4.16,0,0,0-1,.32L36.17,38.73l-.94.46a11.82,11.82,0,0,1-5.39,1.28,12.07,12.07,0,1,1,10.59-6.28l-.58,1.07,5.88,4.82v4.6h10.9l1,.82a3.61,3.61,0,0,0-.12,1.74,3.91,3.91,0,1,0,5.91-4,4.11,4.11,0,0,0-1.1-.45L61,42.6l-.34.06a3.77,3.77,0,0,0-1.31.5l-1.67-1.41H48.66v-3l-5.11-4.2a15,15,0,1,0-13.71,8.9,14.81,14.81,0,0,0,5.74-1.14L37.37,44v8.35l3.23,3.18a3.71,3.71,0,0,0-.28,2.18,3.89,3.89,0,0,0,3.51,3.17,3.93,3.93,0,0,0,4.06-2.69,3.85,3.85,0,0,0-1.66-4.5,4.43,4.43,0,0,0-1-.43l-1.53-.2-.18.08a3.28,3.28,0,0,0-.9.28l-2.32-2.29V46.91l9.61,9.47a3.8,3.8,0,0,0-.24,2.08,3.9,3.9,0,0,0,3.51,3.17h.29a3.9,3.9,0,0,0,2.11-7.21Zm-2.18,2.34.28,0c.13.05.31.1.38.14A1,1,0,0,1,54.46,58h0a1,1,0,0,1-1.08.68,1,1,0,0,1-.82-.79.94.94,0,0,1,.17-.74,1,1,0,0,1,.63-.4ZM44.05,56l.31,0,.35.13a1,1,0,0,1,.39,1.09,1,1,0,0,1-1.9-.11.94.94,0,0,1,.17-.74.9.9,0,0,1,.61-.4ZM61.2,45.55l.28,0a3.19,3.19,0,0,1,.39.14.93.93,0,0,1,.38,1.09,1,1,0,0,1-1.07.68,1,1,0,0,1-.82-.8.93.93,0,0,1,.16-.72h0a1,1,0,0,1,.65-.4Z"></path><path d="M63.39,56.88a3.37,3.37,0,0,0-.85-.37l.32-2.83-4.72-4.4H55.88V47.42a1.47,1.47,0,1,0-2.93,0v4.8h4l2.79,2.59-.22,1.95a3.62,3.62,0,0,0-1.44,1.18,3.85,3.85,0,0,0-.64,3A3.89,3.89,0,0,0,61,64.07h.29A3.88,3.88,0,0,0,65,61.38,3.84,3.84,0,0,0,63.39,56.88Zm-1.14,3.59h0a1,1,0,0,1-1.07.68,1,1,0,0,1-.82-.79,1,1,0,0,1,.81-1.14h0l.28,0a4,4,0,0,1,.39.14A.93.93,0,0,1,62.25,60.47Z"></path><path d="M40.46,28.52a10.55,10.55,0,1,0-4.81,8.83l5.23,4.92a1.37,1.37,0,0,0,.94.38,1.35,1.35,0,0,0,1-.43,1.32,1.32,0,0,0,.37-1,1.35,1.35,0,0,0-.42-1l-5-4.72A10.46,10.46,0,0,0,40.46,28.52ZM30.32,25.06a3.54,3.54,0,1,1-3.54-3.54A3.55,3.55,0,0,1,30.32,25.06Z"></path></g></g></svg>