<?xml version="1.0" encoding="UTF-8" standalone="no"?>
<!-- Created with Inkscape (http://www.inkscape.org/) -->

<svg
   xmlns:dc="http://purl.org/dc/elements/1.1/"
   xmlns:cc="http://creativecommons.org/ns#"
   xmlns:rdf="http://www.w3.org/1999/02/22-rdf-syntax-ns#"
   xmlns:svg="http://www.w3.org/2000/svg"
   xmlns="http://www.w3.org/2000/svg"
   xmlns:sodipodi="http://sodipodi.sourceforge.net/DTD/sodipodi-0.dtd"
   xmlns:inkscape="http://www.inkscape.org/namespaces/inkscape"
   version="1.1"
   id="svg22925"
   width="50"
   height="50"
   inkscape:version="0.92.4 (5da689c313, 2019-01-14)"
   sodipodi:docname="language.svg">
  <metadata
     id="metadata22931">
    <rdf:RDF>
      <cc:Work
         rdf:about="">
        <dc:format>image/svg+xml</dc:format>
        <dc:type
           rdf:resource="http://purl.org/dc/dcmitype/StillImage" />
        <dc:title></dc:title>
      </cc:Work>
    </rdf:RDF>
  </metadata>
  <defs
     id="defs22929" />
  <sodipodi:namedview
     pagecolor="#ffffff"
     bordercolor="#666666"
     borderopacity="1"
     objecttolerance="10"
     gridtolerance="10"
     guidetolerance="10"
     inkscape:pageopacity="0"
     inkscape:pageshadow="2"
     inkscape:window-width="778"
     inkscape:window-height="480"
     id="namedview22927"
     showgrid="false"
     inkscape:zoom="2.36"
     inkscape:cx="15.282219"
     inkscape:cy="55.840939"
     inkscape:window-x="0"
     inkscape:window-y="0"
     inkscape:window-maximized="0"
     inkscape:current-layer="svg22925" />
  <g
     id="g23678"
     transform="translate(-0.42372881,3.3898305)">
    <path
       style="isolation:isolate;fill:#132370;stroke-width:0.76552337"
       inkscape:connector-curvature="0"
       class="cls-49"
       d="m 14.093564,20.597755 a 0.48993499,0.48993499 0 0 0 -0.32152,0.176071 q -1.186561,1.377942 -2.350157,2.771194 l -0.826765,0.964561 h -0.0689 v -3.90417 H 6.507227 A 3.0620937,3.0620937 0 0 1 3.3992022,17.543317 c 0,-3.062094 0,-6.124187 0,-9.1862808 A 3.0620937,3.0620937 0 0 1 6.5225376,5.2949425 q 9.1862814,0 18.3725624,0 a 3.0620937,3.0620937 0 0 1 3.108025,3.0620937 c 0,3.0620938 0,6.1930848 0,9.2934538 a 3.0620937,3.0620937 0 0 1 -2.296571,2.931955 c -0.19138,0.04594 -0.390417,0.0689 -0.589452,0.09952 v 2.181741 c 0.275588,0 0.52821,0 0.765522,-0.07656 a 5.2514907,5.2514907 0 0 0 4.340519,-5.113696 c 0,-3.11568 0.06124,-6.231361 0,-9.3470404 A 5.0830755,5.0830755 0 0 0 27.245256,3.6567225 10.717328,10.717328 0 0 0 25.538139,3.1361665 H 5.9101189 A 1.5310468,1.5310468 0 0 1 5.7340485,3.1897531 5.2208697,5.2208697 0 0 0 1.2098052,8.188621 c -0.045931,3.207543 -0.038277,6.415087 0,9.622629 a 5.1672831,5.1672831 0 0 0 4.2256893,4.937627 19.444295,19.444295 0 0 0 2.5032613,0.114834 h 0.4057275 v 0.367451 c 0,1.117665 0,2.235328 0,3.360649 a 1.8525667,1.8525667 0 0 0 0.061242,0.543521 1.3855974,1.3855974 0 0 0 1.110009,1.01049 1.3243556,1.3243556 0 0 0 1.3626317,-0.497589 c 1.286079,-1.531054 2.572159,-3.0621 3.827618,-4.547216 a 0.61241873,0.61241873 0 0 1 0.54352,-0.260278 h 3.42189 0.329176 v -2.158776 h -0.14545 q -2.365467,-0.09952 -4.761556,-0.0842 z"
       id="path4546" />
    <path
       style="isolation:isolate;fill:#132370;stroke-width:0.76552337"
       inkscape:connector-curvature="0"
       class="cls-49"
       d="m 50.019579,20.000647 a 5.1979041,5.1979041 0 0 0 -5.197904,-5.067765 q -6.124188,0 -12.294307,0 h -0.321519 v 2.189396 h 12.554583 a 2.9931966,2.9931966 0 0 1 3.062094,2.985542 q 0,4.662038 0,9.324076 a 3.0008518,3.0008518 0 0 1 -3.062094,3.000852 h -4.087895 v 3.973066 c -0.09186,-0.107176 -0.14545,-0.153104 -0.183725,-0.206691 -0.99518,-1.171251 -1.998016,-2.342502 -2.977886,-3.529063 A 0.63538445,0.63538445 0 0 0 36.967404,32.425092 H 26.288352 a 4.4400359,4.4400359 0 0 1 -0.765523,-0.0689 3.0620937,3.0620937 0 0 1 -2.357812,-3.008507 q 0,-4.59314 0,-9.140349 a 3.1309908,3.1309908 0 0 1 0.153104,-0.956905 2.9931966,2.9931966 0 0 1 2.76354,-2.158776 v -2.197051 c -0.329175,0.03828 -0.635384,0.05358 -0.926284,0.114834 a 5.2821117,5.2821117 0 0 0 -4.195067,5.174937 c 0,3.062094 0,6.124188 0,9.186282 a 4.5395539,4.5395539 0 0 0 0.09186,0.910972 5.2744563,5.2744563 0 0 0 5.320386,4.37114 c 3.169267,-0.05358 6.338534,0 9.507801,0 a 0.71193679,0.71193679 0 0 1 0.620074,0.290898 q 1.890842,2.29657 3.827617,4.531899 a 1.3549764,1.3549764 0 0 0 1.531047,0.436349 1.4468392,1.4468392 0 0 0 0.972214,-1.347322 c 0,-0.222001 0,-0.451659 0,-0.673661 v -3.230508 h 1.990362 a 5.1979041,5.1979041 0 0 0 5.136662,-5.067765 q 0.06124,-4.815142 0.06124,-9.592009 z"
       id="path4548" />
    <path
       style="isolation:isolate;fill:#132370;stroke-width:0.76552337"
       inkscape:connector-curvature="0"
       class="cls-49"
       d="m 33.078546,28.873063 a 5.3586639,5.3586639 0 0 0 3.199886,-1.875531 c 0.581799,-0.765524 1.132975,-1.485116 1.699463,-2.242984 a 1.6075992,1.6075992 0 0 1 0.405728,2.656365 3.0620937,3.0620937 0 0 1 -1.439184,0.765524 c -0.398073,0.107176 -0.811455,0.183726 -1.247804,0.275589 0.298554,0.405727 0.574143,0.765524 0.872697,1.194217 a 0.25262273,0.25262273 0 0 0 0.199036,0.08421 6.3921205,6.3921205 0 0 0 2.901334,-1.025801 3.2305089,3.2305089 0 0 0 -0.842076,-5.465837 l -0.329176,-0.137794 0.0689,-0.352141 -1.630565,-0.2909 c -0.168415,0.16076 -0.260277,0.329175 -0.367451,0.344487 -0.451659,0.05358 -0.910973,0.06124 -1.370287,0.09186 V 21.47811 l 4.248655,-0.382762 -0.16076,-1.737739 -3.996032,0.48228 0.0689,-1.362632 -1.852566,-0.137793 -0.0689,1.531046 h -2.29657 l 0.0842,1.653531 h 2.220018 c 0,0.428693 0,0.83442 0,1.240147 0,0.405728 -0.04594,0.765524 -0.535866,0.918628 a 2.4879511,2.4879511 0 0 0 -0.650695,0.390418 3.8965142,3.8965142 0 0 0 -1.599944,2.197052 c -0.474625,1.821945 0.597108,2.977886 2.419055,2.602779 z m 3.138645,-4.501277 -0.849731,1.309045 H 35.2756 l -0.09186,-1.148285 z m -3.91948,2.334846 a 1.6305649,1.6305649 0 0 1 0.64304,-1.194216 c 0.168414,-0.14545 0.352141,-0.267934 0.581797,-0.428694 0.07656,0.62773 0.153106,1.186563 0.222002,1.75305 0,0.06124 0,0.183725 -0.07655,0.191381 a 4.0036875,4.0036875 0 0 1 -0.93394,0.206691 c -0.321519,0.0153 -0.451658,-0.191381 -0.436348,-0.528212 z"
       id="path4550" />
    <path
       style="isolation:isolate;fill:#132370;stroke-width:0.76552337"
       inkscape:connector-curvature="0"
       class="cls-49"
       d="m 16.489653,6.8948865 a 0.36745124,0.36745124 0 0 0 -0.2909,-0.1760704 c -0.597108,0 -1.201871,0 -1.798979,0 A 0.34448554,0.34448554 0 0 0 14.009356,6.9944046 Q 12.1721,11.840168 10.327189,16.685931 c 0,0.07656 -0.04593,0.16076 -0.07655,0.267933 0.688971,0 1.339666,0 1.990361,0 a 0.32151984,0.32151984 0 0 0 0.367451,-0.260278 c 0.222002,-0.673661 0.46697,-1.339666 0.704282,-2.020982 H 16.9949 c 0.07656,0 0.183726,0.114834 0.214347,0.191381 0.214346,0.612418 0.413383,1.232492 0.635385,1.844912 0,0.09186 0.145448,0.222002 0.222001,0.222002 0.711937,0 1.423874,0 2.143465,0 a 0.52055593,0.52055593 0 0 0 0,-0.114834 C 18.969949,13.531974 17.737457,10.217258 16.489653,6.8948865 Z m -2.579814,6.0706005 c 0.444003,-1.240148 0.872697,-2.464986 1.309045,-3.6821678 h 0.06124 l 1.270769,3.6898228 z"
       id="path4552" />
  </g>
</svg>
