<?xml version="1.0" encoding="UTF-8" standalone="no"?>
<!-- Created with Inkscape (http://www.inkscape.org/) -->

<svg
   xmlns:dc="http://purl.org/dc/elements/1.1/"
   xmlns:cc="http://creativecommons.org/ns#"
   xmlns:rdf="http://www.w3.org/1999/02/22-rdf-syntax-ns#"
   xmlns:svg="http://www.w3.org/2000/svg"
   xmlns="http://www.w3.org/2000/svg"
   xmlns:sodipodi="http://sodipodi.sourceforge.net/DTD/sodipodi-0.dtd"
   xmlns:inkscape="http://www.inkscape.org/namespaces/inkscape"
   version="1.1"
   id="svg68629"
   width="43"
   height="67"
   inkscape:version="0.92.4 (5da689c313, 2019-01-14)"
   sodipodi:docname="micro.svg">
  <metadata
     id="metadata68635">
    <rdf:RDF>
      <cc:Work
         rdf:about="">
        <dc:format>image/svg+xml</dc:format>
        <dc:type
           rdf:resource="http://purl.org/dc/dcmitype/StillImage" />
        <dc:title></dc:title>
      </cc:Work>
    </rdf:RDF>
  </metadata>
  <defs
     id="defs68633" />
  <sodipodi:namedview
     pagecolor="#ffffff"
     bordercolor="#666666"
     borderopacity="1"
     objecttolerance="10"
     gridtolerance="10"
     guidetolerance="10"
     inkscape:pageopacity="0"
     inkscape:pageshadow="2"
     inkscape:window-width="1920"
     inkscape:window-height="1001"
     id="namedview68631"
     showgrid="false"
     inkscape:zoom="4.0676471"
     inkscape:cx="-3.5653979"
     inkscape:cy="27.717301"
     inkscape:window-x="-9"
     inkscape:window-y="-9"
     inkscape:window-maximized="1"
     inkscape:current-layer="svg68629" />
  <g
     id="g69192"
     transform="translate(-934.01451,-1566.0967)">
    <path
       style="fill:#132370"
       inkscape:connector-curvature="0"
       class="cls-16"
       d="m 967.39,1587.21 c 0,2.89 0,5.79 0,8.68 a 11.54,11.54 0 0 1 -10.6,11.68 c -6.31,0.4 -11.77,-3.9 -12.23,-10.27 a 134,134 0 0 1 0,-20.43 11.21,11.21 0 0 1 11.76,-10.19 11.49,11.49 0 0 1 11,11.46 c 0.12,3.02 0.07,6.05 0.07,9.07 z"
       id="path67417" />
    <path
       style="fill:#132370"
       inkscape:connector-curvature="0"
       class="cls-16"
       d="m 955.76,1632.65 c -2.89,0 -5.79,0 -8.69,0 -2.16,0 -3.31,-1 -3.28,-2.68 0.03,-1.68 1.16,-2.63 3.31,-2.65 1.61,0 3.22,0 4.83,0 1,0 1.36,-0.26 1.33,-1.31 q -0.12,-4 0,-7.92 c 0,-1.08 -0.39,-1.39 -1.38,-1.62 -10.41,-2.41 -16.78,-10.4 -16.85,-21.07 0,-1.61 0,-3.23 0,-4.83 a 2.53,2.53 0 0 1 2.66,-2.71 c 1.72,0 2.54,1.09 2.66,2.71 0.2,2.88 -0.24,5.79 0.35,8.66 a 15.51,15.51 0 0 0 30.63,-1.83 c 0.15,-2.11 0,-4.24 0.08,-6.37 0.08,-2.13 1.09,-3.26 2.79,-3.2 1.7,0.06 2.52,1.23 2.54,3.23 0.06,4.9 0.21,9.79 -2.22,14.33 A 20.59,20.59 0 0 1 960,1616.46 c -1.09,0.23 -1.5,0.56 -1.46,1.72 0.09,2.64 0.06,5.28 0,7.92 0,0.91 0.28,1.26 1.21,1.23 1.61,-0.06 3.22,0 4.83,0 2.23,0 3.51,1 3.46,2.73 -0.05,1.73 -1.32,2.59 -3.4,2.6 z"
       id="path67419" />
  </g>
</svg>
