<?xml version="1.0" encoding="UTF-8" standalone="no"?>
<!-- Created with Inkscape (http://www.inkscape.org/) -->

<svg
   xmlns:dc="http://purl.org/dc/elements/1.1/"
   xmlns:cc="http://creativecommons.org/ns#"
   xmlns:rdf="http://www.w3.org/1999/02/22-rdf-syntax-ns#"
   xmlns:svg="http://www.w3.org/2000/svg"
   xmlns="http://www.w3.org/2000/svg"
   xmlns:sodipodi="http://sodipodi.sourceforge.net/DTD/sodipodi-0.dtd"
   xmlns:inkscape="http://www.inkscape.org/namespaces/inkscape"
   version="1.1"
   id="svg42676"
   width="42"
   height="42"
   inkscape:version="0.92.4 (5da689c313, 2019-01-14)"
   sodipodi:docname="mobile.svg">
  <metadata
     id="metadata42682">
    <rdf:RDF>
      <cc:Work
         rdf:about="">
        <dc:format>image/svg+xml</dc:format>
        <dc:type
           rdf:resource="http://purl.org/dc/dcmitype/StillImage" />
        <dc:title></dc:title>
      </cc:Work>
    </rdf:RDF>
  </metadata>
  <defs
     id="defs42680" />
  <sodipodi:namedview
     pagecolor="#ffffff"
     bordercolor="#666666"
     borderopacity="1"
     objecttolerance="10"
     gridtolerance="10"
     guidetolerance="10"
     inkscape:pageopacity="0"
     inkscape:pageshadow="2"
     inkscape:window-width="778"
     inkscape:window-height="480"
     id="namedview42678"
     showgrid="false"
     inkscape:zoom="2.36"
     inkscape:cx="51.059322"
     inkscape:cy="50"
     inkscape:window-x="0"
     inkscape:window-y="0"
     inkscape:window-maximized="0"
     inkscape:current-layer="svg42676" />
  <g
     id="g43975"
     transform="translate(-672.83916,-1237.9477)">
    <path
       id="path38823"
       d="m 684.48,1238.66 h 17.82 c 2.66,0.95 3.49,2.13 3.49,4.94 v 31.11 c 0,2.82 -0.83,4 -3.49,5 h -17.82 c -2.66,-1 -3.49,-2.13 -3.49,-5 v -31.11 c 0.01,-2.81 0.83,-3.99 3.49,-4.94 z m 18.19,18.44 v -12.69 c 0,-1.43 -0.27,-1.75 -1.51,-1.75 h -15.52 c -1.24,0 -1.53,0.32 -1.53,1.72 v 25.38 c 0,1.36 0.29,1.7 1.46,1.7 h 15.62 c 1.22,0 1.48,-0.31 1.48,-1.78 z m -9.3,21 a 2.59,2.59 0 1 0 0,-5.17 2.59,2.59 0 1 0 0,5.17 z"
       class="cls-42"
       inkscape:connector-curvature="0"
       style="fill:#075ea3" />
  </g>
</svg>
