<?xml version="1.0" encoding="UTF-8" standalone="no"?>
<!-- Created with Inkscape (http://www.inkscape.org/) -->

<svg
   xmlns:dc="http://purl.org/dc/elements/1.1/"
   xmlns:cc="http://creativecommons.org/ns#"
   xmlns:rdf="http://www.w3.org/1999/02/22-rdf-syntax-ns#"
   xmlns:svg="http://www.w3.org/2000/svg"
   xmlns="http://www.w3.org/2000/svg"
   xmlns:xlink="http://www.w3.org/1999/xlink"
   xmlns:sodipodi="http://sodipodi.sourceforge.net/DTD/sodipodi-0.dtd"
   xmlns:inkscape="http://www.inkscape.org/namespaces/inkscape"
   version="1.1"
   id="svg55580"
   width="183"
   height="183"
   inkscape:version="0.92.4 (5da689c313, 2019-01-14)"
   sodipodi:docname="presentation-settings.svg">
  <metadata
     id="metadata55586">
    <rdf:RDF>
      <cc:Work
         rdf:about="">
        <dc:format>image/svg+xml</dc:format>
        <dc:type
           rdf:resource="http://purl.org/dc/dcmitype/StillImage" />
        <dc:title></dc:title>
      </cc:Work>
    </rdf:RDF>
  </metadata>
  <defs
     id="defs55584">
    <radialGradient
       id="Degradado_sin_nombre_10-3"
       cx="368.13"
       cy="1382.1899"
       fy="1347.6833"
       r="73.57"
       gradientTransform="matrix(0,-1.03,1.16,0,-1515.9665,284.38845)"
       xlink:href="#Degradado_sin_nombre_10" />
    <radialGradient
       id="Degradado_sin_nombre_10"
       cx="1222.55"
       cy="991.33002"
       fy="973.53265"
       r="37.939999"
       gradientTransform="matrix(0,-1.03,1.16,0,-29.69,1898.01)"
       gradientUnits="userSpaceOnUse">
      <stop
         offset="0"
         stop-color="#43b5e7"
         id="stop52331" />
      <stop
         offset="0.3"
         stop-color="#317fbb"
         id="stop52333" />
      <stop
         offset="0.62"
         stop-color="#214e93"
         id="stop52335" />
      <stop
         offset="0.86"
         stop-color="#172f79"
         id="stop52337" />
      <stop
         offset="1"
         stop-color="#132370"
         id="stop52339" />
    </radialGradient>
    <radialGradient
       id="Degradado_sin_nombre_10-4"
       cx="368.13"
       cy="1694.24"
       fy="1659.7378"
       r="73.57"
       gradientTransform="matrix(0,-1.03,1.16,0,-1705.4062,584.57731)"
       xlink:href="#Degradado_sin_nombre_10-7" />
    <radialGradient
       id="Degradado_sin_nombre_10-7"
       cx="1222.55"
       cy="991.33002"
       fy="973.53265"
       r="37.939999"
       gradientTransform="matrix(0,-1.03,1.16,0,-29.69,1898.01)"
       gradientUnits="userSpaceOnUse">
      <stop
         offset="0"
         stop-color="#43b5e7"
         id="stop52331-5" />
      <stop
         offset="0.3"
         stop-color="#317fbb"
         id="stop52333-5" />
      <stop
         offset="0.62"
         stop-color="#214e93"
         id="stop52335-4" />
      <stop
         offset="0.86"
         stop-color="#172f79"
         id="stop52337-6" />
      <stop
         offset="1"
         stop-color="#132370"
         id="stop52339-8" />
    </radialGradient>
    <radialGradient
       inkscape:collect="always"
       xlink:href="#Degradado_sin_nombre_10-7"
       id="radialGradient56816"
       gradientTransform="matrix(0,-1.03,1.16,0,-1705.4062,584.57731)"
       cx="368.13"
       cy="1694.24"
       fy="1659.7378"
       r="73.57" />
  </defs>
  <sodipodi:namedview
     pagecolor="#ffffff"
     bordercolor="#666666"
     borderopacity="1"
     objecttolerance="10"
     gridtolerance="10"
     guidetolerance="10"
     inkscape:pageopacity="0"
     inkscape:pageshadow="2"
     inkscape:window-width="1920"
     inkscape:window-height="1001"
     id="namedview55582"
     showgrid="false"
     inkscape:zoom="2.36"
     inkscape:cx="129.87288"
     inkscape:cy="50"
     inkscape:window-x="-9"
     inkscape:window-y="-9"
     inkscape:window-maximized="1"
     inkscape:current-layer="g56186" />
  <g
     id="g56186"
     transform="translate(296.37529,-174.28916)">
    <g
       id="g56814"
       transform="translate(0.84745763,0.42372881)">
      <rect
         class="cls-9"
         x="-296.03729"
         y="175.26379"
         width="180.46001"
         height="180.35001"
         rx="89"
         id="rect52975"
         style="fill:#ffffff" />
      <rect
         class="cls-52"
         x="178.51367"
         y="118.83729"
         width="173.84"
         height="173.95"
         rx="86.919998"
         transform="rotate(90)"
         id="rect52977"
         style="fill:url(#radialGradient56816)" />
      <path
         class="cls-9"
         d="m -215.76732,235.41371 c 6.06,0 13.4,0.1 18.19,0 6.05001,-0.07 6.21001,-2.62 6.00001,-6.51 a 3.78,3.78 0 0 0 -3.84,-3.85999 c -0.38,0 -0.77001,-0.08 -1.19001,-0.13 0,-0.5 0,-0.9 0,-1.3 -0.1,-2 -1.15,-3.11 -3.12,-3.14 q -6.33,-0.08 -12.66,0 a 2.88,2.88 0 0 0 -3,3.06 c 0,0.45 0,0.89 0,1.42 l -1.27,0.1 a 3.8,3.8 0 0 0 -3.78,3.64 17,17 0 0 0 0,1.88999 c -0.07,3.34 1.4,4.83 4.67,4.83 z"
         id="path52979"
         inkscape:connector-curvature="0"
         style="fill:#ffffff" />
      <path
         class="cls-9"
         d="m -232.64732,268.20371 a 11.71,11.71 0 0 0 14.06,-0.28 12.27,12.27 0 0 0 4.86,-10.08 11.5,11.5 0 0 0 -0.72,-4.08 12.16,12.16 0 0 0 -3.59,-5.25 11.51,11.51 0 0 0 -10.79,-2.52 12.5,12.5 0 0 0 -3.82,22.21 z"
         id="path52981"
         inkscape:connector-curvature="0"
         style="fill:#ffffff" />
      <path
         class="cls-9"
         d="m -247.84732,284.51371 a 25.13,25.13 0 0 0 -1,6.9 c 0,0.36 0.09,0.46 0.45,0.46 h 44.53 c 0.36,0 0.48,-0.09 0.45,-0.45 -0.17,-1.56 -0.22,-3.13 -0.51,-4.66 a 24.67,24.67 0 0 0 -5.44,-11.54 22.92,22.92 0 0 0 -7.82,-6.06 0.52,0.52 0 0 0 -0.68,0.1 10.15,10.15 0 0 1 -3.7,2.3 11.64,11.64 0 0 1 -12.46,-2.53 0.46,0.46 0 0 0 -0.56,-0.09 22.84,22.84 0 0 0 -5.41,3.38 24.8,24.8 0 0 0 -7.85,12.19 z"
         id="path52983"
         inkscape:connector-curvature="0"
         style="fill:#ffffff" />
      <path
         class="cls-9"
         d="m -162.75731,275.14371 c -2.12,0 -32.68,0 -34.80001,0 a 2.91,2.91 0 0 0 -2.58,1.49 4.09,4.09 0 0 0 -0.47,3 3.14,3.14 0 0 0 3.18,2.76 c 1,0 2.08001,0 3.12001,0 h 31.8 a 2.71,2.71 0 0 0 2.07,-0.92 4,4 0 0 0 0.84,-3.79 3.14,3.14 0 0 0 -3.16,-2.54 z"
         id="path52985"
         inkscape:connector-curvature="0"
         style="fill:#ffffff" />
      <path
         class="cls-9"
         d="m -159.59731,266.82371 a 3.14,3.14 0 0 0 -3.16,-2.52 c -2.12,0 -32.68,0 -34.80001,0 a 2.88,2.88 0 0 0 -2.58,1.48 4.12,4.12 0 0 0 -0.47,3 3.14,3.14 0 0 0 3.18,2.75 c 1,0 2.08001,0 3.12001,0 h 31.8 a 2.64,2.64 0 0 0 2.07,-0.92 4,4 0 0 0 0.84,-3.79 z"
         id="path52987"
         inkscape:connector-curvature="0"
         style="fill:#ffffff" />
      <path
         class="cls-9"
         d="m -159.59731,255.98371 a 3.12,3.12 0 0 0 -3.16,-2.51 c -2.12,0 -32.68,0 -34.80001,0 a 2.89,2.89 0 0 0 -2.58,1.49 4.09,4.09 0 0 0 -0.47,3 3.14,3.14 0 0 0 3.18,2.76 c 1,0 2.08001,0 3.12001,0 h 31.8 a 2.68,2.68 0 0 0 2.07,-0.93 4,4 0 0 0 0.84,-3.81 z"
         id="path52989"
         inkscape:connector-curvature="0"
         style="fill:#ffffff" />
      <path
         class="cls-9"
         d="m -151.19731,233.08371 a 3.62,3.62 0 0 0 -3.54,-3.77 h -34.1 c 0.1,2 0.09,4.63 -1.7,6.54 h 32.2 a 1.3,1.3 0 0 1 1.3,1.3 v 57.17 a 1.3,1.3 0 0 1 -1.3,1.3 h -94.75001 a 1.31,1.31 0 0 1 -1.31,-1.3 v -57.17 a 1.31,1.31 0 0 1 1.31,-1.3 h 31.58 a 7.76,7.76 0 0 1 -1.69,-5.25 v -0.44 q 0,-0.4 0,-0.87 h -33.89 a 3.48,3.48 0 0 0 -3.58,3.22 c -0.11,1.28 -0.09,65.81 0,66.85 a 3.43,3.43 0 0 0 3.08,3 24.3,24.3 0 0 0 2.56,0 c 6.8,0 94.61001,0 100.15001,0 a 3.55,3.55 0 0 0 3.66,-3.67 c 0.02,-13.83 0.02,-63.09 0.02,-65.61 z"
         id="path52991"
         inkscape:connector-curvature="0"
         style="fill:#ffffff" />
    </g>
  </g>
</svg>
