<?xml version="1.0" encoding="UTF-8" standalone="no"?>
<!-- Created with Inkscape (http://www.inkscape.org/) -->

<svg
   xmlns:dc="http://purl.org/dc/elements/1.1/"
   xmlns:cc="http://creativecommons.org/ns#"
   xmlns:rdf="http://www.w3.org/1999/02/22-rdf-syntax-ns#"
   xmlns:svg="http://www.w3.org/2000/svg"
   xmlns="http://www.w3.org/2000/svg"
   xmlns:sodipodi="http://sodipodi.sourceforge.net/DTD/sodipodi-0.dtd"
   xmlns:inkscape="http://www.inkscape.org/namespaces/inkscape"
   version="1.1"
   id="svg22925"
   width="50"
   height="50"
   inkscape:version="0.92.4 (5da689c313, 2019-01-14)"
   sodipodi:docname="presentation.svg">
  <metadata
     id="metadata22931">
    <rdf:RDF>
      <cc:Work
         rdf:about="">
        <dc:format>image/svg+xml</dc:format>
        <dc:type
           rdf:resource="http://purl.org/dc/dcmitype/StillImage" />
        <dc:title></dc:title>
      </cc:Work>
    </rdf:RDF>
  </metadata>
  <defs
     id="defs22929" />
  <sodipodi:namedview
     pagecolor="#ffffff"
     bordercolor="#666666"
     borderopacity="1"
     objecttolerance="10"
     gridtolerance="10"
     guidetolerance="10"
     inkscape:pageopacity="0"
     inkscape:pageshadow="2"
     inkscape:window-width="778"
     inkscape:window-height="480"
     id="namedview22927"
     showgrid="false"
     inkscape:zoom="2.36"
     inkscape:cx="15.282219"
     inkscape:cy="55.840939"
     inkscape:window-x="0"
     inkscape:window-y="0"
     inkscape:window-maximized="0"
     inkscape:current-layer="svg22925" />
  <path
     id="path4532"
     d="m 20.871468,11.750898 c 2.752976,0 6.087566,0.03877 8.258927,0 2.74522,-0.03877 2.815014,-1.194249 2.721956,-2.9546024 A 1.7293339,1.7293339 0 0 0 30.107507,7.0359423 c -0.170607,0 -0.348968,0 -0.535085,-0.054284 0,-0.2248909 0,-0.4110076 0,-0.5893694 A 1.333836,1.333836 0 0 0 28.145528,4.9653945 q -2.869299,0 -5.746352,0 a 1.3028166,1.3028166 0 0 0 -1.380365,1.3881201 c 0,0.2016264 0,0.4032528 0,0.6436534 l -0.581615,0.046529 a 1.7370888,1.7370888 0 0 0 -1.713824,1.6595402 7.7548606,7.7548606 0 0 0 0,0.8530347 c -0.0078,1.5121979 0.666918,2.1868709 2.148096,2.1946259 z"
     class="cls-49"
     inkscape:connector-curvature="0"
     style="isolation:isolate;fill:#132370;stroke-width:0.77548605" />
  <path
     id="path4534"
     d="M 13.201911,26.632476 A 5.3275892,5.3275892 0 0 0 19.591916,26.508398 5.5679899,5.5679899 0 0 0 21.794297,21.93303 5.2655503,5.2655503 0 0 0 21.468593,20.079619 5.5834996,5.5834996 0 0 0 19.840072,17.691122 5.2422857,5.2422857 0 0 0 14.939,16.551157 5.6765579,5.6765579 0 0 0 13.201911,26.632476 Z"
     class="cls-49"
     inkscape:connector-curvature="0"
     style="isolation:isolate;fill:#132370;stroke-width:0.77548605" />
  <path
     id="path4536"
     d="m 6.3000855,34.038367 a 11.864937,11.864937 0 0 0 -0.4497819,3.140719 c 0,0.162852 0.046529,0.201626 0.2093812,0.201626 H 26.276606 c 0.162852,0 0.217136,-0.03877 0.201627,-0.201626 -0.07755,-0.705693 -0.09306,-1.41914 -0.224891,-2.117077 a 11.244548,11.244548 0 0 0 -2.473801,-5.242285 10.430287,10.430287 0 0 0 -3.551726,-2.745221 0.23264582,0.23264582 0 0 0 -0.310195,0.04653 4.6529163,4.6529163 0 0 1 -1.682804,1.039151 5.28106,5.28106 0 0 1 -5.653293,-1.147719 0.20162637,0.20162637 0 0 0 -0.255911,0 10.298455,10.298455 0 0 0 -2.4505358,1.550972 11.298832,11.298832 0 0 0 -3.5749907,5.474931 z"
     class="cls-49"
     inkscape:connector-curvature="0"
     style="isolation:isolate;fill:#132370;stroke-width:0.77548605" />
  <path
     id="path4538"
     d="m 44.942556,29.780949 c -0.961603,0 -14.842804,0 -15.804406,0 a 1.3183263,1.3183263 0 0 0 -1.170984,0.674673 1.8844311,1.8844311 0 0 0 -0.217136,1.3571 1.4268943,1.4268943 0 0 0 1.442404,1.248533 c 0.473046,0 0.946093,0 1.419139,0 h 14.439551 a 1.2485326,1.2485326 0 0 0 0.946093,-0.418763 1.8301471,1.8301471 0 0 0 0.372233,-1.721579 1.4113846,1.4113846 0 0 0 -1.426894,-1.139964 z"
     class="cls-49"
     inkscape:connector-curvature="0"
     style="isolation:isolate;fill:#132370;stroke-width:0.77548605" />
  <path
     id="path4540"
     d="m 46.36945,26.004332 a 1.4191395,1.4191395 0 0 0 -1.426894,-1.139964 c -0.961603,0 -14.842804,0 -15.804406,0 a 1.3183263,1.3183263 0 0 0 -1.170984,0.674673 1.8844311,1.8844311 0 0 0 -0.217136,1.3571 1.4346492,1.4346492 0 0 0 1.442404,1.248533 c 0.473046,0 0.946093,0 1.419139,0 0.473047,0 13.958749,0 14.439551,0 a 1.2330228,1.2330228 0 0 0 0.946093,-0.426518 1.8223922,1.8223922 0 0 0 0.372233,-1.713824 z"
     class="cls-49"
     inkscape:connector-curvature="0"
     style="isolation:isolate;fill:#132370;stroke-width:0.77548605" />
  <path
     id="path4542"
     d="m 46.36945,21.087751 a 1.4113846,1.4113846 0 0 0 -1.426894,-1.139965 c -0.961603,0 -14.842804,0 -15.804406,0 a 1.3183263,1.3183263 0 0 0 -1.170984,0.674673 1.8844311,1.8844311 0 0 0 -0.217136,1.357101 1.4268943,1.4268943 0 0 0 1.442404,1.248532 c 0.473046,0 0.946093,0 1.419139,0 h 14.439551 a 1.2485326,1.2485326 0 0 0 0.946093,-0.418762 1.8301471,1.8301471 0 0 0 0.372233,-1.721579 z"
     class="cls-49"
     inkscape:connector-curvature="0"
     style="isolation:isolate;fill:#132370;stroke-width:0.77548605" />
  <path
     id="path4544"
     d="M 50.184841,10.688482 A 1.6517853,1.6517853 0 0 0 48.57183,8.9746574 H 33.062109 A 3.8774303,3.8774303 0 0 1 32.286623,11.944769 H 46.91229 a 0.5893694,0.5893694 0 0 1 0.58937,0.589369 v 25.963274 a 0.5893694,0.5893694 0 0 1 -0.58937,0.589369 H 3.8883239 A 0.5893694,0.5893694 0 0 1 3.2989545,38.497412 V 12.534138 A 0.5893694,0.5893694 0 0 1 3.8883239,11.944769 H 18.234816 A 3.4974421,3.4974421 0 0 1 17.45933,9.5717817 c 0,-0.069794 0,-0.1318326 0,-0.2016264 V 8.9746574 H 2.0891939 A 1.5509721,1.5509721 0 0 0 0.46067323,10.432571 c -0.046529,0.58937 -0.046529,29.887233 0,30.36028 a 1.5509721,1.5509721 0 0 0 1.40362967,1.364855 11.632291,11.632291 0 0 0 1.1632291,0 c 3.1019466,0 42.954175,0 45.46675,0 a 1.613011,1.613011 0 0 0 1.667295,-1.667295 c 0.02326,-6.289192 0.03102,-28.677475 0.02326,-29.801929 z"
     class="cls-49"
     inkscape:connector-curvature="0"
     style="isolation:isolate;fill:#132370;stroke-width:0.77548605" />
</svg>
