<?xml version="1.0" encoding="UTF-8" standalone="no"?>
<!-- Created with Inkscape (http://www.inkscape.org/) -->

<svg
   xmlns:dc="http://purl.org/dc/elements/1.1/"
   xmlns:cc="http://creativecommons.org/ns#"
   xmlns:rdf="http://www.w3.org/1999/02/22-rdf-syntax-ns#"
   xmlns:svg="http://www.w3.org/2000/svg"
   xmlns="http://www.w3.org/2000/svg"
   xmlns:sodipodi="http://sodipodi.sourceforge.net/DTD/sodipodi-0.dtd"
   xmlns:inkscape="http://www.inkscape.org/namespaces/inkscape"
   version="1.1"
   id="svg34929"
   width="590"
   height="590"
   inkscape:version="0.92.4 (5da689c313, 2019-01-14)"
   sodipodi:docname="profesional.svg">
  <metadata
     id="metadata34935">
    <rdf:RDF>
      <cc:Work
         rdf:about="">
        <dc:format>image/svg+xml</dc:format>
        <dc:type
           rdf:resource="http://purl.org/dc/dcmitype/StillImage" />
        <dc:title></dc:title>
      </cc:Work>
    </rdf:RDF>
  </metadata>
  <defs
     id="defs34933">
    <clipPath
       id="clip-path">
      <path
         inkscape:connector-curvature="0"
         class="cls-1"
         d="m 651.52,1300.66 c -150.74,-0.74 -271.11,-122 -270.52,-272.59 0.59,-149.6 122.68,-270.2 272.74,-269.41 149.3,0.79 270.35,123.11 269.25,272.1 -1.1,149.9 -122.52,270.62 -271.47,269.9 z"
         id="path33715" />
    </clipPath>
  </defs>
  <sodipodi:namedview
     pagecolor="#ffffff"
     bordercolor="#666666"
     borderopacity="1"
     objecttolerance="10"
     gridtolerance="10"
     guidetolerance="10"
     inkscape:pageopacity="0"
     inkscape:pageshadow="2"
     inkscape:window-width="1920"
     inkscape:window-height="1001"
     id="namedview34931"
     showgrid="false"
     inkscape:zoom="0.59"
     inkscape:cx="309.37443"
     inkscape:cy="168.56171"
     inkscape:window-x="-9"
     inkscape:window-y="-9"
     inkscape:window-maximized="1"
     inkscape:current-layer="svg34929" />
  <g
     id="g34906"
     transform="translate(-358.06992,-731.9677)">
    <path
       id="path34223"
       d="m 651.62,1318.19 c -160.67,-0.78 -289,-130 -288.35,-290.28 C 363.9,868.59 494,740.16 654,741 c 159.14,0.84 288.17,131.11 287,289.76 -1.18,159.65 -130.61,288.24 -289.38,287.43 z"
       class="cls-38"
       inkscape:connector-curvature="0"
       style="fill:#132370" />
    <path
       id="path34225"
       d="m 651.52,1300.66 c -150.74,-0.74 -271.11,-122 -270.52,-272.59 0.59,-149.6 122.68,-270.2 272.74,-269.41 149.3,0.79 270.35,123.11 269.25,272.1 -1.1,149.9 -122.52,270.62 -271.47,269.9 z"
       class="cls-1"
       inkscape:connector-curvature="0"
       style="fill:#ffffff" />
    <g
       id="g34241"
       clip-path="url(#clip-path)"
       class="cls-39">
      <path
         id="path34227"
         d="m 725.94,1183.93 c 46,-0.24 92.55,-3 132.19,27.4 -31.54,41 -72.94,66.69 -122.75,79.45 10.77,-24.78 -18,-50.54 1.72,-75.5 1.17,-1.48 -3.6,-7.51 -5.4,-11.51 -2.85,-6.33 -7.26,-12.24 -5.76,-19.84 z"
         class="cls-40"
         inkscape:connector-curvature="0"
         style="fill:#adabab" />
      <path
         id="path34229"
         d="m 448.73,1211.32 c 39.86,-30.22 86.56,-27.53 132.7,-27.56 1.74,10.4 -5.37,17.82 -8.85,26.46 -2.17,5.39 -8.06,11.89 -2.37,16.57 14.7,12.1 9.2,23.13 0.58,35.09 -6.09,8.45 -4.29,18.13 -3.18,27.58 -48.35,-12.8 -87.84,-39.05 -118.88,-78.14 z"
         class="cls-40"
         inkscape:connector-curvature="0"
         style="fill:#adabab" />
      <path
         id="path34231"
         d="m 567.61,1289.46 c -1.11,-9.45 -2.91,-19.13 3.18,-27.58 8.62,-12 14.12,-23 -0.58,-35.09 -5.69,-4.68 0.2,-11.18 2.37,-16.57 3.48,-8.64 10.59,-16.06 8.85,-26.46 4.51,-5.14 9,-10.27 15.89,-18 -1.79,48.11 12.27,90 31.56,130.56 a 5.48,5.48 0 0 1 0.28,4.63 c -21.67,2.35 -41.8,-3.58 -61.55,-11.49 z"
         class="cls-41"
         inkscape:connector-curvature="0"
         style="fill:#9e7455" />
      <path
         id="path34233"
         d="m 725.94,1183.93 c -1.5,7.6 2.91,13.51 5.76,19.84 1.8,4 6.57,10 5.4,11.51 -19.76,25 9,50.72 -1.72,75.5 -17.27,6.91 -35,11.48 -53.8,10.85 5.91,-21.11 10.48,-42.71 18.08,-63.19 9.1,-24.52 10.87,-49.44 9.89,-75 l -0.28,0.3 q 8.34,10.11 16.67,20.19 z"
         class="cls-41"
         inkscape:connector-curvature="0"
         style="fill:#9e7455" />
      <path
         id="path34235"
         d="m 629.16,1300.9 a 5.48,5.48 0 0 0 -0.28,-4.63 c 3.85,-29.74 20.76,-57.56 12.07,-89.45 -1.5,-5.49 1.35,-16.9 12.62,-16.62 12.52,0.31 13,16.52 12.25,18.77 -10.3,32.86 8.07,61.62 11.57,92.27 -16.1,3.21 -32.19,4.28 -48.23,-0.34 z"
         class="cls-42"
         inkscape:connector-curvature="0"
         style="fill:#171310" />
      <path
         id="path34237"
         d="m 709.55,1163.45 c -14.09,-3.59 -25.78,1.81 -35.26,11.25 -10,10 -23.57,15.09 -32.71,6.27 -13.56,-13.09 -45.16,-8.67 -40.41,-40.58 1.27,-8.53 -7,-15.44 -11.38,-23 -16.29,-28.19 -40.49,-52.07 -48.31,-84.8 -2.2,-9.18 -7.48,-21.06 6.22,-27.53 l 12.4,20.21 c 0,-9.49 -0.14,-13.63 0,-17.77 1.58,-39.71 20.4,-77 73.6,-72.86 20.63,1.6 42.15,-2.94 62.7,-7.36 13.56,-2.91 21.22,0.43 28.68,11.29 13.75,20 21.57,42.1 26.31,65.61 2.35,11.64 5,4.38 7.54,0 10.29,13.78 8.36,45.54 -4.4,58.53 -19.76,20.12 -28.62,47.51 -46.95,68.69 -8.51,9.83 -1.45,21.64 1.66,32.37 z"
         class="cls-43"
         inkscape:connector-curvature="0"
         style="fill:#c38156" />
      <path
         id="path34239"
         d="m 759,1004.16 c -2.51,4.41 -5.19,11.67 -7.54,0 -4.74,-23.51 -12.56,-45.59 -26.31,-65.61 -7.46,-10.86 -15.12,-14.2 -28.68,-11.29 -20.55,4.42 -42.07,9 -62.7,7.36 -53.2,-4.15 -72,33.15 -73.6,72.86 -0.17,4.14 0,8.28 0,17.77 l -12.4,-20.21 c -1.56,-22.78 -10.06,-44.61 -8.76,-67.85 1,-17.81 1,-35.6 19.22,-46.05 8.64,-5 3.27,-16.29 8.09,-20.76 5,-4.66 -0.35,-31.87 19.46,-11.42 0.78,0.8 4.4,0.28 4.41,0.22 1.56,-23.2 20.77,-22.11 35.25,-22.85 22.69,-1.15 46.82,-13.06 68.16,5.19 5.43,4.64 10.86,8.8 18.78,7.89 a 33.88,33.88 0 0 1 9.93,1 c -1.7,29 35.32,31.25 38.94,57.1 3.35,23.84 4,47.58 -0.33,71 -1.69,8.77 -2.67,16.99 -1.92,25.65 z"
         class="cls-44"
         inkscape:connector-curvature="0"
         style="fill:#2a1e16" />
    </g>
  </g>
</svg>
