<?xml version="1.0" encoding="UTF-8" standalone="no"?>
<!-- Created with Inkscape (http://www.inkscape.org/) -->

<svg
   xmlns:dc="http://purl.org/dc/elements/1.1/"
   xmlns:cc="http://creativecommons.org/ns#"
   xmlns:rdf="http://www.w3.org/1999/02/22-rdf-syntax-ns#"
   xmlns:svg="http://www.w3.org/2000/svg"
   xmlns="http://www.w3.org/2000/svg"
   xmlns:sodipodi="http://sodipodi.sourceforge.net/DTD/sodipodi-0.dtd"
   xmlns:inkscape="http://www.inkscape.org/namespaces/inkscape"
   version="1.1"
   id="svg36612"
   width="155"
   height="145"
   inkscape:version="0.92.4 (5da689c313, 2019-01-14)"
   sodipodi:docname="receive.svg">
  <metadata
     id="metadata36618">
    <rdf:RDF>
      <cc:Work
         rdf:about="">
        <dc:format>image/svg+xml</dc:format>
        <dc:type
           rdf:resource="http://purl.org/dc/dcmitype/StillImage" />
        <dc:title></dc:title>
      </cc:Work>
    </rdf:RDF>
  </metadata>
  <defs
     id="defs36616" />
  <sodipodi:namedview
     pagecolor="#ffffff"
     bordercolor="#666666"
     borderopacity="1"
     objecttolerance="10"
     gridtolerance="10"
     guidetolerance="10"
     inkscape:pageopacity="0"
     inkscape:pageshadow="2"
     inkscape:window-width="1920"
     inkscape:window-height="1001"
     id="namedview36614"
     showgrid="false"
     inkscape:zoom="2.36"
     inkscape:cx="50"
     inkscape:cy="50"
     inkscape:window-x="-9"
     inkscape:window-y="-9"
     inkscape:window-maximized="1"
     inkscape:current-layer="svg36612" />
  <g
     id="g36598"
     transform="translate(-995.49503,-470.55358)">
    <path
       id="path35996"
       d="m 1091.91,607.07 c -11.54,10.17 -23.57,9.47 -37.69,0.41 -13.91,-8.92 -24.52,-21.2 -34,-34.71 -5,-7.18 -10.17,-14.24 -14.19,-22 -4.79,-9.27 -8.46,-18.94 -8.78,-29.54 -0.51,-11.31 5.08,-19 14.36,-24.57 3,-1.77 5.59,-0.7 7.45,1.72 q 7.57,9.86 14.79,20 c 2.42,3.39 1.58,6.79 -2.07,9.47 -2.59,1.9 -5.14,3.79 -6,7.1 a 10.6,10.6 0 0 0 1.85,9.38 c 6.63,9.14 13.61,18 19.92,27.41 a 70.41,70.41 0 0 0 4.61,5.51 c 4.38,5.22 9.7,5.92 15.17,2 6.8,-4.89 8.84,-4.45 13.82,2.54 3.9,5.47 8.05,10.75 12,16.19 2.73,3.82 2.28,6.02 -1.24,9.09 z"
       class="cls-26"
       inkscape:connector-curvature="0"
       style="fill:#030e35" />
    <polygon
       id="polygon35998"
       points="1059.75,540.82 1115.24,528.09 1087.36,491.03 "
       class="cls-26"
       style="fill:#030e35" />
    <line
       id="line36000"
       y2="520.38"
       x2="1086.92"
       y1="476.5"
       x1="1145.25"
       class="cls-29"
       style="fill:none;stroke:#030e35;stroke-width:12px;stroke-miterlimit:10" />
  </g>
</svg>
