<?xml version="1.0" encoding="UTF-8" standalone="no"?>
<!-- Created with Inkscape (http://www.inkscape.org/) -->

<svg
   xmlns:dc="http://purl.org/dc/elements/1.1/"
   xmlns:cc="http://creativecommons.org/ns#"
   xmlns:rdf="http://www.w3.org/1999/02/22-rdf-syntax-ns#"
   xmlns:svg="http://www.w3.org/2000/svg"
   xmlns="http://www.w3.org/2000/svg"
   xmlns:sodipodi="http://sodipodi.sourceforge.net/DTD/sodipodi-0.dtd"
   xmlns:inkscape="http://www.inkscape.org/namespaces/inkscape"
   version="1.1"
   id="svg22925"
   width="50"
   height="50"
   inkscape:version="0.92.4 (5da689c313, 2019-01-14)"
   sodipodi:docname="settings.svg">
  <metadata
     id="metadata22931">
    <rdf:RDF>
      <cc:Work
         rdf:about="">
        <dc:format>image/svg+xml</dc:format>
        <dc:type
           rdf:resource="http://purl.org/dc/dcmitype/StillImage" />
        <dc:title></dc:title>
      </cc:Work>
    </rdf:RDF>
  </metadata>
  <defs
     id="defs22929" />
  <sodipodi:namedview
     pagecolor="#ffffff"
     bordercolor="#666666"
     borderopacity="1"
     objecttolerance="10"
     gridtolerance="10"
     guidetolerance="10"
     inkscape:pageopacity="0"
     inkscape:pageshadow="2"
     inkscape:window-width="778"
     inkscape:window-height="480"
     id="namedview22927"
     showgrid="false"
     inkscape:zoom="2.36"
     inkscape:cx="51.059322"
     inkscape:cy="55.840939"
     inkscape:window-x="0"
     inkscape:window-y="0"
     inkscape:window-maximized="0"
     inkscape:current-layer="svg22925" />
  <g
     id="g23587"
     transform="matrix(1.1408442,0,0,1.1408442,-41.763208,70.869254)">
    <path
       style="isolation:isolate;fill:#132370"
       inkscape:connector-curvature="0"
       class="cls-49"
       d="m 80.003195,-39.879702 v 2.61 a 1.76,1.76 0 0 1 -1.4,1.83 4.16,4.16 0 0 1 -0.91,0.22 3,3 0 0 0 -3.06,2.49 1.6,1.6 0 0 0 0.12,1.52 c 0.44,0.63 0.82,1.3 1.2,2 a 1.77,1.77 0 0 1 -0.27,2.37 c -1.23,1.24 -2.45,2.47 -3.69,3.69 a 1.81,1.81 0 0 1 -2.38,0.28 4.58,4.58 0 0 1 -0.8,-0.48 3,3 0 0 0 -3.85,-0.36 c -0.52,0.31 -0.9,0.54 -1,1.15 -0.13,0.76 -0.32,1.5 -0.51,2.24 a 1.78,1.78 0 0 1 -1.85,1.51 c -1.81,0 -3.62,0 -5.43,0 a 1.65,1.65 0 0 1 -1.66,-1.33 4.77,4.77 0 0 1 -0.2,-0.91 3.09,3.09 0 0 0 -2.57,-3.14 1.54,1.54 0 0 0 -1.42,0.1 c -0.63,0.44 -1.3,0.82 -2,1.22 a 1.85,1.85 0 0 1 -2.47,-0.26 l -3.69,-3.69 a 1.79,1.79 0 0 1 -0.26,-2.38 c 0.34,-0.57 0.65,-1.15 1,-1.69 a 2.08,2.08 0 0 0 0.21,-2 2.74,2.74 0 0 0 -2.7,-2.22 7.39,7.39 0 0 1 -1.22,-0.27 1.75,1.75 0 0 1 -1.4,-1.73 c 0,-1.78 0,-3.55 0,-5.33 a 1.81,1.81 0 0 1 1.58,-1.9 3.66,3.66 0 0 1 0.71,-0.17 3.09,3.09 0 0 0 3.17,-2.76 1.7,1.7 0 0 0 -0.08,-1 c -0.39,-0.77 -0.88,-1.49 -1.32,-2.24 a 1.71,1.71 0 0 1 0.27,-2.28 q 1.88,-1.89 3.76,-3.77 a 1.78,1.78 0 0 1 2.29,-0.28 5.31,5.31 0 0 1 0.89,0.55 2.87,2.87 0 0 0 3.74,0.38 1.77,1.77 0 0 0 1.09,-1.33 c 0.13,-0.75 0.34,-1.49 0.54,-2.23 a 1.67,1.67 0 0 1 1.72,-1.38 c 1.78,0 3.55,0 5.33,0 a 1.79,1.79 0 0 1 1.88,1.47 c 0.07,0.27 0.13,0.54 0.2,0.81 0.57,2.38 0.57,2.39 2.85,3.21 a 1.36,1.36 0 0 0 0.94,-0.13 c 0.77,-0.4 1.49,-0.89 2.24,-1.32 a 1.75,1.75 0 0 1 2.29,0.27 q 1.91,1.86 3.77,3.76 a 1.74,1.74 0 0 1 0.25,2.29 c -0.15,0.27 -0.32,0.54 -0.48,0.81 -1.22,2.07 -1.23,2.07 -0.22,4.21 a 1.3,1.3 0 0 0 0.75,0.58 c 0.8,0.25 1.62,0.39 2.43,0.61 a 1.8,1.8 0 0 1 1.56,2 c 0,0.83 0,1.67 0,2.5 z m -21,-11.45 a 11.42,11.42 0 1 0 11.38,11.39 11.44,11.44 0 0 0 -11.38,-11.39 z"
       id="path4432" />
    <path
       style="isolation:isolate;fill:#132370"
       inkscape:connector-curvature="0"
       class="cls-49"
       d="m 64.233195,-38.139702 a 1.77,1.77 0 0 1 -1.78,-1.79 1.73,1.73 0 0 1 1.69,-1.75 1.75,1.75 0 0 1 1.84,1.72 1.78,1.78 0 0 1 -1.75,1.82 z"
       id="path4434" />
    <path
       style="isolation:isolate;fill:#132370"
       inkscape:connector-curvature="0"
       class="cls-49"
       d="m 55.403195,-39.879702 a 1.69,1.69 0 0 1 -1.74,1.79 1.77,1.77 0 0 1 -1.74,-1.72 1.74,1.74 0 0 1 1.82,-1.82 1.7,1.7 0 0 1 1.66,1.75 z"
       id="path4436" />
    <path
       style="isolation:isolate;fill:#132370"
       inkscape:connector-curvature="0"
       class="cls-49"
       d="m 58.903195,-41.689702 a 1.78,1.78 0 1 1 -1.71,1.74 1.75,1.75 0 0 1 1.71,-1.74 z"
       id="path4438" />
  </g>
</svg>
