<?xml version="1.0" encoding="UTF-8" standalone="no"?>
<!-- Created with Inkscape (http://www.inkscape.org/) -->

<svg
   xmlns:dc="http://purl.org/dc/elements/1.1/"
   xmlns:cc="http://creativecommons.org/ns#"
   xmlns:rdf="http://www.w3.org/1999/02/22-rdf-syntax-ns#"
   xmlns:svg="http://www.w3.org/2000/svg"
   xmlns="http://www.w3.org/2000/svg"
   xmlns:xlink="http://www.w3.org/1999/xlink"
   xmlns:sodipodi="http://sodipodi.sourceforge.net/DTD/sodipodi-0.dtd"
   xmlns:inkscape="http://www.inkscape.org/namespaces/inkscape"
   version="1.1"
   id="svg55580"
   width="183"
   height="183"
   inkscape:version="0.92.4 (5da689c313, 2019-01-14)"
   sodipodi:docname="theme-settings.svg">
  <metadata
     id="metadata55586">
    <rdf:RDF>
      <cc:Work
         rdf:about="">
        <dc:format>image/svg+xml</dc:format>
        <dc:type
           rdf:resource="http://purl.org/dc/dcmitype/StillImage" />
        <dc:title></dc:title>
      </cc:Work>
    </rdf:RDF>
  </metadata>
  <defs
     id="defs55584">
    <radialGradient
       id="Degradado_sin_nombre_10-3"
       cx="368.13"
       cy="1382.1899"
       fy="1347.6833"
       r="73.57"
       gradientTransform="matrix(0,-1.03,1.16,0,-1515.9665,284.38845)"
       xlink:href="#Degradado_sin_nombre_10" />
    <radialGradient
       id="Degradado_sin_nombre_10"
       cx="1222.55"
       cy="991.33002"
       fy="973.53265"
       r="37.939999"
       gradientTransform="matrix(0,-1.03,1.16,0,-29.69,1898.01)"
       gradientUnits="userSpaceOnUse">
      <stop
         offset="0"
         stop-color="#43b5e7"
         id="stop52331" />
      <stop
         offset="0.3"
         stop-color="#317fbb"
         id="stop52333" />
      <stop
         offset="0.62"
         stop-color="#214e93"
         id="stop52335" />
      <stop
         offset="0.86"
         stop-color="#172f79"
         id="stop52337" />
      <stop
         offset="1"
         stop-color="#132370"
         id="stop52339" />
    </radialGradient>
  </defs>
  <sodipodi:namedview
     pagecolor="#ffffff"
     bordercolor="#666666"
     borderopacity="1"
     objecttolerance="10"
     gridtolerance="10"
     guidetolerance="10"
     inkscape:pageopacity="0"
     inkscape:pageshadow="2"
     inkscape:window-width="1920"
     inkscape:window-height="1001"
     id="namedview55582"
     showgrid="false"
     inkscape:zoom="2.36"
     inkscape:cx="129.87288"
     inkscape:cy="50"
     inkscape:window-x="-9"
     inkscape:window-y="-9"
     inkscape:window-maximized="1"
     inkscape:current-layer="svg55580" />
  <g
     id="g56174"
     transform="translate(-2.5423729,-0.7288136)">
    <rect
       style="fill:#ffffff"
       id="rect52917"
       rx="89"
       height="180.35001"
       width="180.46001"
       y="1.7033519"
       x="4.1515675"
       class="cls-9" />
    <rect
       style="fill:url(#Degradado_sin_nombre_10-3)"
       id="rect52919"
       transform="rotate(90)"
       rx="86.919998"
       height="173.95"
       width="173.84"
       y="-181.35158"
       x="4.953352"
       class="cls-40" />
    <path
       style="fill:#ffffff"
       inkscape:connector-curvature="0"
       id="path52921"
       d="m 88.81154,91.313402 c -0.7,1 -0.65,1.3 0.27,2 0.92,0.7 1.76,1.37 2.61,2.09 a 1.13,1.13 0 0 0 1.85,-0.18 c 0.53,-0.67 1,-1.36 1.61,-2 q 8.78,-9.600002 17.59001,-19.190002 c 5.33,-5.81 10.7,-11.59 16,-17.42001 a 8.89,8.89 0 0 0 2.4,-5 c 0,-4.24 -2.27,-6.55 -4.92,-6.62 a 8.35,8.35 0 0 0 -7.27,3.77 c -4,5.57 -7.94,11.25 -11.9,16.88001 q -7.00001,9.88 -13.94001,19.77 c -1.39,2.01 -2.87,3.94 -4.3,5.900002 z m 36.95001,-44.740012 -4.21,4.13 -1.45,-1.27 a 5.77,5.77 0 0 1 5.66,-2.86 z"
       class="cls-9" />
    <path
       style="fill:#ffffff"
       inkscape:connector-curvature="0"
       id="path52923"
       d="m 86.45154,94.503402 c -3.45,-0.92 -5.62,0.33 -6.77,3.71 -0.26,0.78 -0.56,1.54 -0.84,2.309998 a 5.17,5.17 0 0 1 -4.79,3.85 c -1.13,0.07 -2.26,0.18 -3.39,0.28 l -0.06,0.22 c 0.31,0.09 0.61,0.2 0.93,0.27 a 31.88,31.88 0 0 0 13,-0.13 25.73,25.73 0 0 0 5.72,-1.94 c 1.93,-0.92 2.34,-2.91 1.27,-4.769998 a 8,8 0 0 0 -5.07,-3.8 z"
       class="cls-9" />
    <path
       style="fill:#ffffff"
       inkscape:connector-curvature="0"
       id="path52925"
       d="m 145.99155,120.7934 v -38.62 c 0,-6.05 0,-12.11 0,-18.17 a 4,4 0 0 0 -4.12,-4.10001 c -3.95,0 -7.9,0 -11.85,0 a 2,2 0 0 0 -1.24,0.55 c -1.57,1.63001 -3.09,3.32001 -4.62,5.00001 a 3.79,3.79 0 0 0 -0.33,0.57 h 16 v 48.38 H 50.99154 v -48.44 h 30.77 c 6.68,0 13.37,0 20.05,0 a 1.46,1.46 0 0 0 1,-0.31 c 1.36001,-1.84 2.65001,-3.72 4.08001,-5.75001 H 49.06154 a 4,4 0 0 0 -4.23,4.29001 q 0,28.780002 0,57.57 c 0,3.38 1.55,4.91 5,4.91 h 91.16001 c 0.33,0 0.66,0 1,0 a 4.12,4.12 0 0 0 4,-4.09 c 0,-0.61 0,-1.2 0,-1.79 z m -67.76001,1.73 h -5.14 a 2.37,2.37 0 1 1 0,-4.74 h 5.13 a 2.37,2.37 0 1 1 0,4.74 z m 17,1 a 3.36,3.36 0 1 1 3.36,-3.35 3.37,3.37 0 0 1 -3.38,3.33 z m 22.12001,-1 h -5.16 a 2.37,2.37 0 0 1 0,-4.74 h 5.14 a 2.37,2.37 0 0 1 0,4.74 z"
       class="cls-9" />
  </g>
</svg>
