<?xml version="1.0" encoding="UTF-8" standalone="no"?>
<!-- Created with Inkscape (http://www.inkscape.org/) -->

<svg
   xmlns:dc="http://purl.org/dc/elements/1.1/"
   xmlns:cc="http://creativecommons.org/ns#"
   xmlns:rdf="http://www.w3.org/1999/02/22-rdf-syntax-ns#"
   xmlns:svg="http://www.w3.org/2000/svg"
   xmlns="http://www.w3.org/2000/svg"
   xmlns:sodipodi="http://sodipodi.sourceforge.net/DTD/sodipodi-0.dtd"
   xmlns:inkscape="http://www.inkscape.org/namespaces/inkscape"
   version="1.1"
   id="svg17913"
   width="132"
   height="132"
   inkscape:version="0.92.4 (5da689c313, 2019-01-14)"
   sodipodi:docname="user3.svg">
  <metadata
     id="metadata17919">
    <rdf:RDF>
      <cc:Work
         rdf:about="">
        <dc:format>image/svg+xml</dc:format>
        <dc:type
           rdf:resource="http://purl.org/dc/dcmitype/StillImage" />
        <dc:title></dc:title>
      </cc:Work>
    </rdf:RDF>
  </metadata>
  <defs
     id="defs17917">
    <clipPath
       id="clip-path-3">
      <path
         inkscape:connector-curvature="0"
         id="path878"
         d="m 3042,2251.7 a 57.35,57.35 0 1 1 57.5,-57.12 57.32,57.32 0 0 1 -57.5,57.12 z"
         class="cls-1" />
    </clipPath>
  </defs>
  <sodipodi:namedview
     pagecolor="#ffffff"
     bordercolor="#666666"
     borderopacity="1"
     objecttolerance="10"
     gridtolerance="10"
     guidetolerance="10"
     inkscape:pageopacity="0"
     inkscape:pageshadow="2"
     inkscape:window-width="1920"
     inkscape:window-height="1001"
     id="namedview17915"
     showgrid="false"
     inkscape:zoom="2.36"
     inkscape:cx="50"
     inkscape:cy="50"
     inkscape:window-x="-9"
     inkscape:window-y="-9"
     inkscape:window-maximized="1"
     inkscape:current-layer="svg17913" />
  <path
     id="path1706"
     d="M 66.354904,131.57549 A 64.83,64.83 0 1 1 131.35491,67.005492 64.8,64.8 0 0 1 66.354904,131.57549 Z"
     class="cls-49"
     inkscape:connector-curvature="0"
     style="isolation:isolate;fill:#132370" />
  <g
     transform="translate(-2975.645,-2127.6045)"
     style="isolation:isolate"
     id="g17066">
    <path
       style="fill:#ffffff"
       inkscape:connector-curvature="0"
       class="cls-1"
       d="m 3042,2251.7 a 57.35,57.35 0 1 1 57.5,-57.12 57.32,57.32 0 0 1 -57.5,57.12 z"
       id="path1708" />
    <g
       class="cls-60"
       clip-path="url(#clip-path-3)"
       id="g1724">
      <path
         style="fill:#adabab"
         inkscape:connector-curvature="0"
         class="cls-61"
         d="m 3057.77,2227 c 9.75,-0.05 19.6,-0.64 28,5.8 a 46.25,46.25 0 0 1 -26,16.81 c 2.28,-5.24 -3.82,-10.69 0.37,-16 0.24,-0.31 -0.77,-1.58 -1.15,-2.43 -0.6,-1.32 -1.54,-2.57 -1.22,-4.18 z"
         id="path1710" />
      <path
         style="fill:#adabab"
         inkscape:connector-curvature="0"
         class="cls-61"
         d="m 2999.05,2232.8 c 8.44,-6.4 18.34,-5.83 28.11,-5.84 0.37,2.2 -1.14,3.77 -1.87,5.6 -0.46,1.14 -1.71,2.52 -0.51,3.51 3.12,2.56 1.95,4.9 0.13,7.43 -1.29,1.78 -0.91,3.83 -0.68,5.83 a 46.68,46.68 0 0 1 -25.18,-16.53 z"
         id="path1712" />
      <path
         style="fill:#9e7455"
         inkscape:connector-curvature="0"
         class="cls-62"
         d="m 3024.23,2249.33 c -0.23,-2 -0.61,-4 0.68,-5.83 1.82,-2.53 3,-4.87 -0.13,-7.43 -1.2,-1 0,-2.37 0.51,-3.51 0.73,-1.83 2.24,-3.4 1.87,-5.6 l 3.37,-3.82 c -0.38,10.18 2.6,19.06 6.68,27.63 a 1.13,1.13 0 0 1 0.06,1 c -4.59,0.49 -8.85,-0.77 -13.04,-2.44 z"
         id="path1714" />
      <path
         style="fill:#9e7455"
         inkscape:connector-curvature="0"
         class="cls-62"
         d="m 3057.77,2227 c -0.32,1.61 0.62,2.86 1.22,4.2 0.38,0.85 1.39,2.12 1.15,2.43 -4.19,5.29 1.91,10.74 -0.37,16 a 28.1,28.1 0 0 1 -11.4,2.3 c 1.26,-4.47 2.22,-9 3.83,-13.38 a 40.08,40.08 0 0 0 2.1,-15.86 l -0.06,0.06 z"
         id="path1716" />
      <path
         style="fill:#171310"
         inkscape:connector-curvature="0"
         class="cls-63"
         d="m 3037.27,2251.75 a 1.13,1.13 0 0 0 -0.06,-1 c 0.82,-6.29 4.4,-12.18 2.56,-18.93 a 2.76,2.76 0 0 1 2.67,-3.51 c 2.65,0.06 2.75,3.49 2.6,4 -2.19,6.95 1.71,13 2.45,19.53 a 21.41,21.41 0 0 1 -10.22,-0.09 z"
         id="path1718" />
      <path
         style="fill:#c38156"
         inkscape:connector-curvature="0"
         class="cls-64"
         d="m 3054.3,2222.67 c -3,-0.76 -5.46,0.38 -7.47,2.38 -2.01,2 -5,3.19 -6.93,1.32 -2.87,-2.77 -9.56,-1.83 -8.56,-8.59 0.27,-1.8 -1.48,-3.26 -2.41,-4.86 -3.45,-6 -8.58,-11 -10.23,-18 -0.47,-1.94 -1.59,-4.45 1.32,-5.82 l 2.62,4.28 c 0,-2 0,-2.89 0,-3.77 0.33,-8.4 4.32,-16.29 15.59,-15.42 4.37,0.34 8.93,-0.62 13.28,-1.55 2.87,-0.62 4.5,0.09 6.07,2.39 a 36.81,36.81 0 0 1 5.58,13.88 c 0.5,2.46 1.06,0.93 1.6,0 2.18,2.92 1.77,9.64 -0.94,12.39 -4.18,4.26 -6.06,10.06 -9.94,14.54 -1.81,2.08 -0.31,4.58 0.35,6.85 z"
         id="path1720" />
      <path
         style="fill:#2a1e16"
         inkscape:connector-curvature="0"
         class="cls-57"
         d="m 3064.77,2189 c -0.54,0.94 -1.1,2.47 -1.6,0 a 36.81,36.81 0 0 0 -5.58,-13.88 c -1.57,-2.3 -3.2,-3 -6.07,-2.39 -4.35,0.93 -8.91,1.89 -13.28,1.55 -11.27,-0.87 -15.26,7 -15.59,15.42 0,0.88 0,1.76 0,3.77 l -2.62,-4.28 c -0.33,-4.82 -2.13,-9.44 -1.86,-14.36 0.21,-3.77 0.22,-7.54 4.07,-9.75 1.83,-1.05 0.69,-3.44 1.72,-4.39 1.03,-0.95 -0.08,-6.75 4.12,-2.42 0.16,0.17 0.93,0.06 0.93,0.05 0.33,-4.91 4.4,-4.68 7.47,-4.84 4.81,-0.24 9.92,-2.76 14.44,1.1 1.15,1 2.3,1.86 4,1.67 a 7.29,7.29 0 0 1 2.11,0.22 c -0.36,6.14 7.48,6.61 8.25,12.08 a 47,47 0 0 1 -0.07,15 19.89,19.89 0 0 0 -0.44,5.45 z"
         id="path1722" />
    </g>
  </g>
</svg>
