<?xml version="1.0" encoding="UTF-8" standalone="no"?>
<!-- Created with Inkscape (http://www.inkscape.org/) -->

<svg
   xmlns:dc="http://purl.org/dc/elements/1.1/"
   xmlns:cc="http://creativecommons.org/ns#"
   xmlns:rdf="http://www.w3.org/1999/02/22-rdf-syntax-ns#"
   xmlns:svg="http://www.w3.org/2000/svg"
   xmlns="http://www.w3.org/2000/svg"
   xmlns:sodipodi="http://sodipodi.sourceforge.net/DTD/sodipodi-0.dtd"
   xmlns:inkscape="http://www.inkscape.org/namespaces/inkscape"
   version="1.1"
   id="svg25333"
   width="113"
   height="113"
   inkscape:version="0.92.4 (5da689c313, 2019-01-14)"
   sodipodi:docname="video.svg">
  <metadata
     id="metadata25339">
    <rdf:RDF>
      <cc:Work
         rdf:about="">
        <dc:format>image/svg+xml</dc:format>
        <dc:type
           rdf:resource="http://purl.org/dc/dcmitype/StillImage" />
        <dc:title></dc:title>
      </cc:Work>
    </rdf:RDF>
  </metadata>
  <defs
     id="defs25337" />
  <sodipodi:namedview
     pagecolor="#ffffff"
     bordercolor="#666666"
     borderopacity="1"
     objecttolerance="10"
     gridtolerance="10"
     guidetolerance="10"
     inkscape:pageopacity="0"
     inkscape:pageshadow="2"
     inkscape:window-width="1920"
     inkscape:window-height="1001"
     id="namedview25335"
     showgrid="false"
     inkscape:zoom="2.36"
     inkscape:cx="50"
     inkscape:cy="50"
     inkscape:window-x="-9"
     inkscape:window-y="-9"
     inkscape:window-maximized="1"
     inkscape:current-layer="svg25333" />
  <path
     id="path1794"
     d="M 57.512932,1.5686596 A 55.5,55.5 0 1 0 112.70293,57.288659 55.49,55.49 0 0 0 57.512932,1.5686596 Z m 16.94,67.9999994 c 0,3.75 -2.62,6.21 -6.65,6.24 -8,0.07 -15.93,0 -23.89,0 -4.24,0 -8.48,-0.11 -12.71,0 a 7.12,7.12 0 0 1 -7.26,-7.16 c 0.3,-8.52 0.08,-17.06 0.1,-25.6 a 6.18,6.18 0 0 1 6.4,-6.49 c 6.25,0 12.51,0 18.77,0 6.26,0 12.27,0.14 18.4,0 4.35,-0.12 6.7,2.84 6.79,6.83 0.2,8.73 0.09,17.45 0.05,26.18 z m 18.3,-2.47 c 0,2.59 -1.44,3.54 -3.82,2.65 -2.9,-1.08 -5.78,-2.17 -8.69,-3.22 a 2.71,2.71 0 0 1 -2,-2.86 q 0,-7.49 0,-15 a 2.53,2.53 0 0 1 1.66,-2.69 c 3.07,-1.14 6.11,-2.35 9.22,-3.35 2.31,-0.75 3.55,0.23 3.58,2.64 0,3.73 0,7.46 0,11.19 0.06,3.55 0.09,7.11 0.01,10.63 z"
     class="cls-48"
     inkscape:connector-curvature="0"
     style="isolation:isolate;fill:#075ea3" />
</svg>
