<?xml version="1.0" encoding="UTF-8" standalone="no"?>
<!-- Created with Inkscape (http://www.inkscape.org/) -->

<svg
   xmlns:dc="http://purl.org/dc/elements/1.1/"
   xmlns:cc="http://creativecommons.org/ns#"
   xmlns:rdf="http://www.w3.org/1999/02/22-rdf-syntax-ns#"
   xmlns:svg="http://www.w3.org/2000/svg"
   xmlns="http://www.w3.org/2000/svg"
   xmlns:xlink="http://www.w3.org/1999/xlink"
   xmlns:sodipodi="http://sodipodi.sourceforge.net/DTD/sodipodi-0.dtd"
   xmlns:inkscape="http://www.inkscape.org/namespaces/inkscape"
   version="1.1"
   id="svg1979"
   width="134"
   height="134"
   inkscape:version="0.92.4 (5da689c313, 2019-01-14)"
   sodipodi:docname="video-call.svg">
  <metadata
     id="metadata1985">
    <rdf:RDF>
      <cc:Work
         rdf:about="">
        <dc:format>image/svg+xml</dc:format>
        <dc:type
           rdf:resource="http://purl.org/dc/dcmitype/StillImage" />
        <dc:title></dc:title>
      </cc:Work>
    </rdf:RDF>
  </metadata>
  <defs
     id="defs1983">
    <radialGradient
       r="54.279999"
       fy="1414.9368"
       cy="1440.4"
       cx="312.26999"
       gradientTransform="matrix(0,-1.03,1.16,0,-1637.8743,263.1991)"
       gradientUnits="userSpaceOnUse"
       id="radialGradient1283"
       xlink:href="#Degradado_sin_nombre_10"
       inkscape:collect="always" />
    <radialGradient
       gradientUnits="userSpaceOnUse"
       gradientTransform="matrix(0,-1.03,1.16,0,-1431.52,2514.48)"
       r="54.279999"
       fy="1414.9368"
       cy="1440.4"
       cx="312.26999"
       id="Degradado_sin_nombre_10">
      <stop
         id="stop856"
         stop-color="#43b5e7"
         offset="0" />
      <stop
         id="stop858"
         stop-color="#317fbb"
         offset="0.3" />
      <stop
         id="stop860"
         stop-color="#214e93"
         offset="0.62" />
      <stop
         id="stop862"
         stop-color="#172f79"
         offset="0.86" />
      <stop
         id="stop864"
         stop-color="#132370"
         offset="1" />
    </radialGradient>
    <radialGradient
       xlink:href="#Degradado_sin_nombre_10-29"
       gradientTransform="matrix(0,-1.03,1.16,0,-1582.3758,619.25995)"
       r="54.279999"
       fy="1414.9368"
       cy="1440.4"
       cx="577.53998"
       id="Degradado_sin_nombre_10-2" />
    <radialGradient
       gradientUnits="userSpaceOnUse"
       gradientTransform="matrix(0,-1.03,1.16,0,-1431.52,2514.48)"
       r="54.279999"
       fy="1414.9368"
       cy="1440.4"
       cx="312.26999"
       id="Degradado_sin_nombre_10-29">
      <stop
         id="stop856-3"
         stop-color="#43b5e7"
         offset="0" />
      <stop
         id="stop858-0"
         stop-color="#317fbb"
         offset="0.3" />
      <stop
         id="stop860-3"
         stop-color="#214e93"
         offset="0.62" />
      <stop
         id="stop862-2"
         stop-color="#172f79"
         offset="0.86" />
      <stop
         id="stop864-3"
         stop-color="#132370"
         offset="1" />
    </radialGradient>
    <radialGradient
       xlink:href="#Degradado_sin_nombre_10-37"
       gradientTransform="matrix(0,-1.03,1.16,0,-1481.9522,730.51414)"
       r="54.279999"
       fy="1414.9368"
       cy="1440.4"
       cx="840.89001"
       id="Degradado_sin_nombre_10-3" />
    <radialGradient
       gradientUnits="userSpaceOnUse"
       gradientTransform="matrix(0,-1.03,1.16,0,-1431.52,2514.48)"
       r="54.279999"
       fy="1414.9368"
       cy="1440.4"
       cx="312.26999"
       id="Degradado_sin_nombre_10-37">
      <stop
         id="stop856-8"
         stop-color="#43b5e7"
         offset="0" />
      <stop
         id="stop858-1"
         stop-color="#317fbb"
         offset="0.3" />
      <stop
         id="stop860-2"
         stop-color="#214e93"
         offset="0.62" />
      <stop
         id="stop862-7"
         stop-color="#172f79"
         offset="0.86" />
      <stop
         id="stop864-7"
         stop-color="#132370"
         offset="1" />
    </radialGradient>
  </defs>
  <sodipodi:namedview
     pagecolor="#ffffff"
     bordercolor="#666666"
     borderopacity="1"
     objecttolerance="10"
     gridtolerance="10"
     guidetolerance="10"
     inkscape:pageopacity="0"
     inkscape:pageshadow="2"
     inkscape:window-width="1920"
     inkscape:window-height="1001"
     id="namedview1981"
     showgrid="false"
     inkscape:zoom="2.36"
     inkscape:cx="51.059322"
     inkscape:cy="-26.544804"
     inkscape:window-x="-9"
     inkscape:window-y="-9"
     inkscape:window-maximized="1"
     inkscape:current-layer="g2563" />
  <g
     id="g2563"
     transform="translate(0,34)">
    <g
       id="g2699"
       transform="translate(-67.79661,-160.16949)">
      <rect
         style="isolation:isolate;fill:#ffffff"
         class="cls-13"
         x="68.085793"
         y="127.0677"
         width="133.16"
         height="133.07001"
         rx="66.540001"
         id="rect1046" />
      <rect
         style="isolation:isolate;fill:url(#Degradado_sin_nombre_10-3)"
         class="cls-32"
         x="129.46782"
         y="-198.83585"
         width="128.27"
         height="128.35001"
         rx="64.129997"
         transform="rotate(90)"
         id="rect1048" />
      <path
         style="isolation:isolate;fill:#ffffff"
         inkscape:connector-curvature="0"
         class="cls-13"
         d="m 155.43576,208.89779 c 0,4.29 -3,7.1 -7.61,7.14 -9.12,0.08 -18.24,0 -27.36,0 -4.85,0 -9.7,-0.12 -14.54,0 a 8.14,8.14 0 0 1 -8.309997,-8.2 c 0.33,-9.76 0.08,-19.54 0.11,-29.31 a 7.06,7.06 0 0 1 7.319997,-7.42 c 7.17,-0.05 14.33,0 21.5,0 7.17,0 14,0.16 21.06,-0.05 5,-0.14 7.67,3.26 7.78,7.82 0.22,10.04 0.1,20.03 0.05,30.02 z"
         id="path1050" />
      <path
         style="isolation:isolate;fill:#ffffff"
         inkscape:connector-curvature="0"
         class="cls-13"
         d="m 176.39576,206.06779 c 0,3 -1.65,4.05 -4.38,3 -3.31,-1.24 -6.62,-2.49 -9.94,-3.68 a 3.12,3.12 0 0 1 -2.27,-3.28 q 0,-8.57 0,-17.14 a 2.9,2.9 0 0 1 1.9,-3.07 c 3.51,-1.31 7,-2.7 10.56,-3.85 2.64,-0.85 4.06,0.27 4.1,3 0.05,4.27 0,8.54 0,12.81 0.04,4.11 0.07,8.16 0.03,12.21 z"
         id="path1052" />
    </g>
  </g>
</svg>
