<?xml version="1.0" encoding="UTF-8" standalone="no"?>
<!-- Created with Inkscape (http://www.inkscape.org/) -->

<svg
   xmlns:dc="http://purl.org/dc/elements/1.1/"
   xmlns:cc="http://creativecommons.org/ns#"
   xmlns:rdf="http://www.w3.org/1999/02/22-rdf-syntax-ns#"
   xmlns:svg="http://www.w3.org/2000/svg"
   xmlns="http://www.w3.org/2000/svg"
   xmlns:xlink="http://www.w3.org/1999/xlink"
   xmlns:sodipodi="http://sodipodi.sourceforge.net/DTD/sodipodi-0.dtd"
   xmlns:inkscape="http://www.inkscape.org/namespaces/inkscape"
   width="36mm"
   height="35.200001mm"
   viewBox="0 0 36 35.2"
   version="1.1"
   id="svg30782"
   inkscape:version="0.92.4 (5da689c313, 2019-01-14)"
   sodipodi:docname="videocall-off.svg">
  <defs
     id="defs30776">
    <radialGradient
       id="radialGradient31369"
       cx="256.76001"
       cy="1440.26"
       fy="1414.7965"
       r="54.279999"
       gradientTransform="matrix(0,-1.03,1.16,0,-1431.36,2457.37)"
       gradientUnits="userSpaceOnUse">
      <stop
         offset="0"
         stop-color="#43b5e7"
         id="stop31359"
         style="stop-color:#272727;stop-opacity:1" />
      <stop
         id="stop31371"
         stop-color="#317fbb"
         offset="0.49610168"
         style="stop-color:#a1a1a1;stop-opacity:0.98823529" />
      <stop
         offset="1"
         stop-color="#132370"
         id="stop31367"
         style="stop-color:#272727;stop-opacity:1" />
    </radialGradient>
    <radialGradient
       xlink:href="#Degradado_sin_nombre_10"
       gradientTransform="matrix(0,-0.27252083,0.30691666,0,-163.81701,213.67866)"
       r="54.279999"
       cy="1440.26"
       cx="850.5"
       id="Degradado_sin_nombre_10-3" />
    <radialGradient
       gradientUnits="userSpaceOnUse"
       gradientTransform="matrix(0,-1.03,1.16,0,-1431.36,2457.37)"
       r="54.279999"
       fy="1414.7965"
       cy="1440.26"
       cx="256.76001"
       id="Degradado_sin_nombre_10">
      <stop
         id="stop27407"
         stop-color="#43b5e7"
         offset="0" />
      <stop
         id="stop27409"
         stop-color="#317fbb"
         offset="0.3" />
      <stop
         id="stop27411"
         stop-color="#214e93"
         offset="0.62" />
      <stop
         id="stop27413"
         stop-color="#172f79"
         offset="0.86" />
      <stop
         id="stop27415"
         stop-color="#132370"
         offset="1" />
    </radialGradient>
    <linearGradient
       inkscape:collect="always"
       xlink:href="#radialGradient31369"
       id="linearGradient31357"
       x1="257.01221"
       y1="-17.8463"
       x2="301.53366"
       y2="-17.751806"
       gradientUnits="userSpaceOnUse" />
  </defs>
  <sodipodi:namedview
     id="base"
     pagecolor="#ffffff"
     bordercolor="#666666"
     borderopacity="1.0"
     inkscape:pageopacity="0.0"
     inkscape:pageshadow="2"
     inkscape:zoom="2.8"
     inkscape:cx="160.70465"
     inkscape:cy="117.63456"
     inkscape:document-units="mm"
     inkscape:current-layer="layer1"
     showgrid="false"
     inkscape:window-width="1920"
     inkscape:window-height="1001"
     inkscape:window-x="-9"
     inkscape:window-y="-9"
     inkscape:window-maximized="1" />
  <metadata
     id="metadata30779">
    <rdf:RDF>
      <cc:Work
         rdf:about="">
        <dc:format>image/svg+xml</dc:format>
        <dc:type
           rdf:resource="http://purl.org/dc/dcmitype/StillImage" />
        <dc:title></dc:title>
      </cc:Work>
    </rdf:RDF>
  </metadata>
  <g
     inkscape:label="Capa 1"
     inkscape:groupmode="layer"
     id="layer1"
     transform="translate(0,-261.8)">
    <rect
       id="rect27564"
       rx="17.605375"
       height="35.208107"
       width="35.231918"
       y="261.85785"
       x="0.23169962"
       class="cls-10"
       style="isolation:isolate;fill:#ffffff;stroke-width:0.26458332" />
    <rect
       id="rect27566"
       transform="rotate(90)"
       rx="16.967728"
       height="33.959278"
       width="33.938107"
       y="-34.825939"
       x="262.49286"
       class="cls-18"
       style="isolation:isolate;fill:url(#linearGradient31357);stroke-width:0.26458332;fill-opacity:1" />
    <path
       id="path27568"
       d="m 28.888727,282.75996 c 0,0.79375 -0.43657,1.07156 -1.15888,0.79375 -0.87577,-0.32808 -1.75154,-0.65881 -2.62996,-0.97367 a 0.8255,0.8255 0 0 1 -0.6006,-0.86783 q 0,-2.26748 0,-4.53496 a 0.76729167,0.76729167 0 0 1 0.50271,-0.81227 c 0.92868,-0.3466 1.85208,-0.71438 2.794,-1.01865 0.6985,-0.22489 1.0742,0.0714 1.08479,0.79375 0.0132,1.12977 0,2.25955 0,3.38932 0.0106,1.08743 0.0185,2.159 0.008,3.23056 z"
       class="cls-10"
       inkscape:connector-curvature="0"
       style="isolation:isolate;fill:#ffffff;stroke-width:0.26458332" />
    <path
       id="path27570"
       d="m 23.274267,284.04583 a 2.1775208,2.1775208 0 0 0 0.0688,-0.52916 c 0,-2.64584 0.045,-5.29167 -0.0132,-7.9375 -0.0291,-1.2065 -0.74083,-2.11667 -2.05846,-2.06904 -1.85208,0.0556 -3.70417,0.0159 -5.57212,0.0132 h -1.3679 z"
       class="cls-10"
       inkscape:connector-curvature="0"
       style="isolation:isolate;fill:#ffffff;stroke-width:0.26458332" />
    <path
       id="path27572"
       d="m 10.838847,273.52865 h -0.82815 a 1.8679583,1.8679583 0 0 0 -1.9367503,1.9632 c 0,2.58498 0.0582,5.17261 -0.0291,7.75494 a 2.1537083,2.1537083 0 0 0 2.1986903,2.16959 c 1.28058,-0.0423 2.56381,0 3.84704,0 2.25425,0 4.49792,0 6.7601,0 z"
       class="cls-10"
       inkscape:connector-curvature="0"
       style="isolation:isolate;fill:#ffffff;stroke-width:0.26458332" />
  </g>
</svg>
