<?xml version="1.0" encoding="UTF-8" standalone="no"?>
<!-- Created with Inkscape (http://www.inkscape.org/) -->

<svg
   xmlns:dc="http://purl.org/dc/elements/1.1/"
   xmlns:cc="http://creativecommons.org/ns#"
   xmlns:rdf="http://www.w3.org/1999/02/22-rdf-syntax-ns#"
   xmlns:svg="http://www.w3.org/2000/svg"
   xmlns="http://www.w3.org/2000/svg"
   xmlns:sodipodi="http://sodipodi.sourceforge.net/DTD/sodipodi-0.dtd"
   xmlns:inkscape="http://www.inkscape.org/namespaces/inkscape"
   version="1.1"
   id="svg22925"
   width="50"
   height="50"
   inkscape:version="0.92.4 (5da689c313, 2019-01-14)"
   sodipodi:docname="about.svg">
  <metadata
     id="metadata22931">
    <rdf:RDF>
      <cc:Work
         rdf:about="">
        <dc:format>image/svg+xml</dc:format>
        <dc:type
           rdf:resource="http://purl.org/dc/dcmitype/StillImage" />
        <dc:title></dc:title>
      </cc:Work>
    </rdf:RDF>
  </metadata>
  <defs
     id="defs22929" />
  <sodipodi:namedview
     pagecolor="#ffffff"
     bordercolor="#666666"
     borderopacity="1"
     objecttolerance="10"
     gridtolerance="10"
     guidetolerance="10"
     inkscape:pageopacity="0"
     inkscape:pageshadow="2"
     inkscape:window-width="1920"
     inkscape:window-height="1001"
     id="namedview22927"
     showgrid="false"
     inkscape:zoom="2.36"
     inkscape:cx="51.059322"
     inkscape:cy="50"
     inkscape:window-x="-9"
     inkscape:window-y="-9"
     inkscape:window-maximized="1"
     inkscape:current-layer="svg22925" />
  <g
     id="g23557"
     transform="translate(-85.169492,-4.6610169)">
    <path
       style="isolation:isolate;fill:#132370"
       inkscape:connector-curvature="0"
       class="cls-49"
       d="m 128.95712,41.654461 c -3.68,0.6 -7.36,1.23 -11.06,1.77 a 69.05,69.05 0 0 1 -8.33,1.2 c -2.63,0.06 -3.89,-1.1 -4.08,-3.73 -0.12,-1.7 -0.11,-3.41 -0.14,-5.12 -0.09,-5.77 -0.21,-11.54 -0.27,-17.31 0,-2.999999 0.94,-3.729999 3.86,-3.439999 6.37,0.64 12.76,1.219999 19.14,1.809999 0.29,0 0.7,0.27 0.88,-0.06 0.18,-0.33 -0.11,-0.75 -0.38,-0.999999 a 5.09,5.09 0 0 0 -3.1,-1.26 c -2.62,-0.35 -5.23,-0.65 -7.85,-1 -3.42,-0.42 -6.84,-0.9 -10.28,-1.26 -3.22,-0.33 -4.86,1 -5.37,4.079999 a 11,11 0 0 0 -0.13,1.81 c 0,4.74 0,9.48 0,14.22 q 0,6.84 0,13.68 a 21.3,21.3 0 0 0 0.23,3.19 q 0.57,3.649999 3.84,4.099999 a 9.4,9.4 0 0 0 3.69,-0.41 c 5.05,-1.35 10.06,-2.85 15.14,-4.079999 3.53,-0.86 4.57,-3 4.88,-6.59 0,-0.56 -0.15,-0.68 -0.67,-0.6 z m -11.18,7.42 a 2.21,2.21 0 1 1 0,-4.42 2.25,2.25 0 0 1 2.27,2.21 2.22,2.22 0 0 1 -2.27,2.21 z"
       id="path4476" />
    <path
       style="isolation:isolate;fill:#132370"
       inkscape:connector-curvature="0"
       class="cls-49"
       d="m 107.96712,9.4444617 c 4.1,0.49 8.18,1.0800003 12.28,1.5600003 a 11.21,11.21 0 0 0 3.47,0.22 6.3,6.3 0 0 0 -3.87,-1.8800003 c -6.91,-1.15 -13.81,-2.34 -20.740001,-3.32 a 5.87,5.87 0 0 0 -6.72,4.8600003 11.34,11.34 0 0 0 0.31,4.75 c 1.86,7.229999 3.56,14.499999 5.3,21.759999 a 16.21,16.21 0 0 0 1,3.62 v -0.78 q 0,-11.16 0,-22.33 c 0,-0.93 0,-1.86 0.06,-2.779999 0.27,-3.45 2.130001,-5.4300003 5.460001,-5.7300003 a 16.89,16.89 0 0 1 3.45,0.05 z"
       id="path4478" />
    <path
       style="isolation:isolate;fill:#132370"
       inkscape:connector-curvature="0"
       class="cls-49"
       d="m 97.077119,41.374461 c -1.46,-6.26 -3.09,-12.49 -4.64,-18.74 -0.14,-0.6 -0.38,-0.62 -0.88,-0.41 -2.76,1.16 -3.68,3.62 -2.29,6.52 2.95,6.16 6,12.28 9.11,18.72 a 3.16,3.16 0 0 0 -0.07,-1.35 c -0.26,-1.62 -0.86,-3.15 -1.23,-4.74 z"
       id="path4480" />
    <path
       style="isolation:isolate;fill:#132370"
       inkscape:connector-curvature="0"
       class="cls-49"
       d="m 124.47712,39.834461 c 0.71,-0.08 0.86,-0.37 0.86,-1 0,-4.16 0,-8.32 0,-12.48 0,-2.64 0,-2.61 -2.65,-2.59 -0.73,0 -0.89,0.27 -0.88,0.94 0,2.39 0,4.77 0,7.15 v 0 c 0,1.85 0,3.7 0,5.55 -0.03,2.75 -0.04,2.72 2.67,2.43 z"
       id="path4482" />
    <path
       style="isolation:isolate;fill:#132370"
       inkscape:connector-curvature="0"
       class="cls-49"
       d="m 116.88712,30.444461 c -0.65,0.09 -0.73,0.38 -0.72,0.9 0,1.46 0,2.92 0,4.38 v 0 2.66 c 0,2.52 0,2.46 2.46,2.21 0.86,-0.09 1.06,-0.44 1.06,-1.18 0,-2.21 0,-4.41 0,-6.62 0.01,-2.78 0.01,-2.75 -2.8,-2.35 z"
       id="path4484" />
    <path
       style="isolation:isolate;fill:#132370"
       inkscape:connector-curvature="0"
       class="cls-49"
       d="m 110.51712,38.534461 v 1 c 0,2.14 0,2.14 2,1.93 l 0.53,-0.06 c 0.69,0 1,-0.32 0.95,-1.07 -0.06,-0.92 0,-1.84 0,-2.77 0,-2.66 0,-2.64 -2.68,-2.17 -0.57,0.1 -0.89,0.29 -0.84,1 0.05,0.71 0,1.49 0,2.24 z"
       id="path4486" />
  </g>
</svg>
