<?xml version="1.0" encoding="UTF-8" standalone="no"?>
<!-- Created with Inkscape (http://www.inkscape.org/) -->

<svg
   xmlns:dc="http://purl.org/dc/elements/1.1/"
   xmlns:cc="http://creativecommons.org/ns#"
   xmlns:rdf="http://www.w3.org/1999/02/22-rdf-syntax-ns#"
   xmlns:svg="http://www.w3.org/2000/svg"
   xmlns="http://www.w3.org/2000/svg"
   xmlns:sodipodi="http://sodipodi.sourceforge.net/DTD/sodipodi-0.dtd"
   xmlns:inkscape="http://www.inkscape.org/namespaces/inkscape"
   width="13mm"
   height="20.5mm"
   viewBox="0 0 13 20.500001"
   version="1.1"
   id="svg50626"
   inkscape:version="0.92.4 (5da689c313, 2019-01-14)"
   sodipodi:docname="back.svg">
  <defs
     id="defs50620" />
  <sodipodi:namedview
     id="base"
     pagecolor="#ffffff"
     bordercolor="#666666"
     borderopacity="1.0"
     inkscape:pageopacity="0.0"
     inkscape:pageshadow="2"
     inkscape:zoom="1.979899"
     inkscape:cx="232.71014"
     inkscape:cy="-29.369383"
     inkscape:document-units="mm"
     inkscape:current-layer="layer1"
     showgrid="false"
     inkscape:window-width="1920"
     inkscape:window-height="1001"
     inkscape:window-x="-9"
     inkscape:window-y="-9"
     inkscape:window-maximized="1" />
  <metadata
     id="metadata50623">
    <rdf:RDF>
      <cc:Work
         rdf:about="">
        <dc:format>image/svg+xml</dc:format>
        <dc:type
           rdf:resource="http://purl.org/dc/dcmitype/StillImage" />
        <dc:title></dc:title>
      </cc:Work>
    </rdf:RDF>
  </metadata>
  <g
     inkscape:label="Capa 1"
     inkscape:groupmode="layer"
     id="layer1"
     transform="translate(0,-276.5)">
    <path
       id="path50474"
       d="m 5.1381823,286.67988 c 0.71702,0.70379 1.40758,1.37319 2.09021,2.05581 q 2.30981,2.30188 4.6116797,4.61169 a 1.8176875,1.8176875 0 0 1 0.47625,1.95527 1.889125,1.889125 0 0 1 -3.1194294,0.74877 c -1.8282703,-1.83092 -3.6433203,-3.67506 -5.4715903,-5.50862 -0.85196,-0.85461 -1.72508,-1.6854 -2.57175,-2.5453 a 1.80975,1.80975 0 0 1 -0.42067997,-2.05845 2.143125,2.143125 0 0 1 0.46830997,-0.69057 q 3.9026,-3.92112 7.8157903,-7.82637 c 1.2858694,-1.28852 2.9289394,-0.49477 3.2570194,0.69585 a 1.8811875,1.8811875 0 0 1 -0.52917,1.94469 q -3.1167897,3.10356 -6.2203497,6.21506 c -0.11906,0.11113 -0.22225,0.22755 -0.38629,0.40217 z"
       class="cls-1"
       inkscape:connector-curvature="0"
       style="fill:#ffffff;stroke-width:0.26458332" />
  </g>
</svg>
