<?xml version="1.0" encoding="UTF-8" standalone="no"?>
<!-- Created with Inkscape (http://www.inkscape.org/) -->

<svg
   xmlns:dc="http://purl.org/dc/elements/1.1/"
   xmlns:cc="http://creativecommons.org/ns#"
   xmlns:rdf="http://www.w3.org/1999/02/22-rdf-syntax-ns#"
   xmlns:svg="http://www.w3.org/2000/svg"
   xmlns="http://www.w3.org/2000/svg"
   xmlns:sodipodi="http://sodipodi.sourceforge.net/DTD/sodipodi-0.dtd"
   xmlns:inkscape="http://www.inkscape.org/namespaces/inkscape"
   version="1.1"
   id="svg25899"
   width="113"
   height="113"
   inkscape:version="0.92.4 (5da689c313, 2019-01-14)"
   sodipodi:docname="call.svg">
  <metadata
     id="metadata25905">
    <rdf:RDF>
      <cc:Work
         rdf:about="">
        <dc:format>image/svg+xml</dc:format>
        <dc:type
           rdf:resource="http://purl.org/dc/dcmitype/StillImage" />
        <dc:title></dc:title>
      </cc:Work>
    </rdf:RDF>
  </metadata>
  <defs
     id="defs25903" />
  <sodipodi:namedview
     pagecolor="#ffffff"
     bordercolor="#666666"
     borderopacity="1"
     objecttolerance="10"
     gridtolerance="10"
     guidetolerance="10"
     inkscape:pageopacity="0"
     inkscape:pageshadow="2"
     inkscape:window-width="1920"
     inkscape:window-height="1001"
     id="namedview25901"
     showgrid="false"
     inkscape:zoom="2.36"
     inkscape:cx="50"
     inkscape:cy="50"
     inkscape:window-x="-9"
     inkscape:window-y="-9"
     inkscape:window-maximized="1"
     inkscape:current-layer="svg25899" />
  <path
     id="path1796"
     d="M 57.089202,1.1449311 A 55.5,55.5 0 1 0 112.2792,56.86493 55.49,55.49 0 0 0 57.089202,1.1449311 Z m 20.63,79.2199989 c -5.47,4.82 -11.17,4.49 -17.86,0.2 -6.69,-4.29 -11.61,-10 -16.11,-16.45 a 93.83,93.83 0 0 1 -6.72,-10.42 c -2.27,-4.4 -4,-9 -4.16,-14 -0.24,-5.35 2.41,-9 6.8,-11.64 a 2.52,2.52 0 0 1 3.53,0.82 c 2.4,3.11 4.73,6.28 7,9.47 1.15,1.61 0.75,3.22 -1,4.49 -1.23,0.9 -2.43,1.8 -2.86,3.36 a 5,5 0 0 0 0.87,4.44 c 3.14,4.34 6.45,8.55 9.44,13 a 31.72,31.72 0 0 0 2.18,2.61 c 2.08,2.48 4.6,2.81 7.19,0.94 3.23,-2.31 4.19,-2.1 6.55,1.21 1.85,2.59 3.82,5.09 5.68,7.67 1.35,1.81 1.14,2.83 -0.53,4.3 z"
     class="cls-14"
     inkscape:connector-curvature="0"
     style="isolation:isolate;fill:#52bb00" />
</svg>
