<?xml version="1.0" encoding="UTF-8" standalone="no"?>
<!-- Created with Inkscape (http://www.inkscape.org/) -->

<svg
   xmlns:dc="http://purl.org/dc/elements/1.1/"
   xmlns:cc="http://creativecommons.org/ns#"
   xmlns:rdf="http://www.w3.org/1999/02/22-rdf-syntax-ns#"
   xmlns:svg="http://www.w3.org/2000/svg"
   xmlns="http://www.w3.org/2000/svg"
   xmlns:sodipodi="http://sodipodi.sourceforge.net/DTD/sodipodi-0.dtd"
   xmlns:inkscape="http://www.inkscape.org/namespaces/inkscape"
   version="1.1"
   id="svg22925"
   width="50"
   height="50"
   inkscape:version="0.92.4 (5da689c313, 2019-01-14)"
   sodipodi:docname="dibujo.svg">
  <metadata
     id="metadata22931">
    <rdf:RDF>
      <cc:Work
         rdf:about="">
        <dc:format>image/svg+xml</dc:format>
        <dc:type
           rdf:resource="http://purl.org/dc/dcmitype/StillImage" />
        <dc:title></dc:title>
      </cc:Work>
    </rdf:RDF>
  </metadata>
  <defs
     id="defs22929" />
  <sodipodi:namedview
     pagecolor="#ffffff"
     bordercolor="#666666"
     borderopacity="1"
     objecttolerance="10"
     gridtolerance="10"
     guidetolerance="10"
     inkscape:pageopacity="0"
     inkscape:pageshadow="2"
     inkscape:window-width="778"
     inkscape:window-height="480"
     id="namedview22927"
     showgrid="false"
     inkscape:zoom="2.36"
     inkscape:cx="51.059322"
     inkscape:cy="50"
     inkscape:window-x="0"
     inkscape:window-y="0"
     inkscape:window-maximized="0"
     inkscape:current-layer="svg22925" />
  <g
     transform="translate(-6931.1127,-1642.9456)"
     id="g4450"
     class="cls-156"
     style="opacity:0.4;isolation:isolate">
    <path
       id="path4440"
       d="m 6980,1646.39 a 2.4,2.4 0 0 0 -2.34,-2.48 h -37.92 a 2.29,2.29 0 0 0 -2.36,2.12 c -0.06,0.84 0,1.69 0,2.54 0,0 0,0 0,0.07 h 2.44 a 2.63,2.63 0 0 1 1.51,0.5 3.75,3.75 0 0 1 0.77,5 2.86,2.86 0 0 1 -2.48,1.28 h -2.25 a 0.62,0.62 0 0 0 0,0.16 c 0,1.36 0,2.73 0,4.09 0,0.18 0.09,0.2 0.23,0.2 h 2.11 a 2.72,2.72 0 0 1 2.33,1.23 3.72,3.72 0 0 1 0.17,4.07 2.67,2.67 0 0 1 -2.2,1.47 c -0.73,0.06 -1.46,0 -2.18,0 -0.43,0 -0.45,0 -0.45,0.42 0,0.91 0,1.82 0,2.74 h 2.35 a 2.79,2.79 0 0 1 2.36,1.25 3.63,3.63 0 0 1 0.59,2.8 3.08,3.08 0 0 1 -3.16,2.75 c -0.63,0 -1.27,0 -1.91,0 -0.2,0 -0.24,0.06 -0.24,0.25 v 3.75 c 0,0.14 0,0.29 0,0.45 0.81,0 1.6,0 2.38,0 a 2.88,2.88 0 0 1 2.44,1.52 3.75,3.75 0 0 1 0.46,2.08 3.16,3.16 0 0 1 -3.28,3.21 c -0.66,0 -1.32,0 -2,0 0,0.72 -0.05,1.41 0,2.1 a 2.26,2.26 0 0 0 2,2 15.84,15.84 0 0 0 1.69,0 h 36.47 a 2.34,2.34 0 0 0 2.41,-2.42 q 0,-13.72 0,-27.44 v -15.78 z m -27.61,13.15 a 8,8 0 0 1 5.95,-7.33 7.59,7.59 0 0 1 7.09,1.66 8,8 0 0 1 2.37,3.45 7.77,7.77 0 0 1 0.47,2.69 8.09,8.09 0 0 1 -3.2,6.63 7.7,7.7 0 0 1 -9.25,0.18 8,8 0 0 1 -3.43,-7.28 z m 22.37,22.86 h -29.29 c -0.24,0 -0.31,-0.07 -0.3,-0.3 a 16.94,16.94 0 0 1 0.65,-4.54 16.38,16.38 0 0 1 5.17,-8 15.28,15.28 0 0 1 3.56,-2.22 0.29,0.29 0 0 1 0.37,0.06 7.68,7.68 0 0 0 8.2,1.67 6.65,6.65 0 0 0 2.43,-1.52 0.34,0.34 0 0 1 0.45,-0.06 15.07,15.07 0 0 1 5.15,4 16.4,16.4 0 0 1 3.58,7.6 c 0.18,1 0.22,2 0.33,3.06 0.02,0.19 -0.06,0.25 -0.3,0.25 z"
       class="cls-49"
       inkscape:connector-curvature="0"
       style="fill:#132370" />
    <path
       id="path4442"
       d="m 6935.16,1665.56 h 4.34 a 1.82,1.82 0 0 0 1.44,-0.66 2.71,2.71 0 0 0 0.46,-2.61 2,2 0 0 0 -2,-1.48 c -0.69,0 -1.37,0 -2.06,0 v 0 c -0.65,0 -1.3,0 -2,0 a 2,2 0 0 0 -2.11,1.54 3,3 0 0 0 0.1,2 2,2 0 0 0 1.83,1.21 z"
       class="cls-49"
       inkscape:connector-curvature="0"
       style="fill:#132370" />
    <path
       id="path4444"
       d="m 6935.32,1654.32 c 0.69,0 1.37,0 2.06,0 h 2.2 a 1.82,1.82 0 0 0 1.37,-0.6 2.66,2.66 0 0 0 0.55,-2.5 2,2 0 0 0 -2.08,-1.65 c -1.39,0 -2.79,0 -4.18,0 a 1.88,1.88 0 0 0 -1.7,1 2.69,2.69 0 0 0 -0.31,2 2.07,2.07 0 0 0 2.09,1.75 z"
       class="cls-49"
       inkscape:connector-curvature="0"
       style="fill:#132370" />
    <path
       id="path4446"
       d="m 6939.52,1675.53 a 1.81,1.81 0 0 0 1.43,-0.64 2.78,2.78 0 0 0 0.1,-3.34 1.81,1.81 0 0 0 -1.46,-0.76 h -4.44 a 1.78,1.78 0 0 0 -1.45,0.72 2.71,2.71 0 0 0 -0.36,2.7 2,2 0 0 0 2,1.33 c 0.66,0 1.34,0 2,0 h 2.16 z"
       class="cls-49"
       inkscape:connector-curvature="0"
       style="fill:#132370" />
    <path
       id="path4448"
       d="m 6940.91,1686.12 a 2.62,2.62 0 0 0 0.42,-2.67 1.87,1.87 0 0 0 -2,-1.41 h -4.23 a 1.86,1.86 0 0 0 -1.54,0.8 2.68,2.68 0 0 0 -0.44,2.05 2.09,2.09 0 0 0 2.15,1.9 c 0.67,0 1.34,0 2,0 h 2.17 a 1.81,1.81 0 0 0 1.47,-0.67 z"
       class="cls-49"
       inkscape:connector-curvature="0"
       style="fill:#132370" />
  </g>
</svg>
