<?xml version="1.0" encoding="UTF-8" standalone="no"?>
<!-- Created with Inkscape (http://www.inkscape.org/) -->

<svg
   xmlns:dc="http://purl.org/dc/elements/1.1/"
   xmlns:cc="http://creativecommons.org/ns#"
   xmlns:rdf="http://www.w3.org/1999/02/22-rdf-syntax-ns#"
   xmlns:svg="http://www.w3.org/2000/svg"
   xmlns="http://www.w3.org/2000/svg"
   xmlns:sodipodi="http://sodipodi.sourceforge.net/DTD/sodipodi-0.dtd"
   xmlns:inkscape="http://www.inkscape.org/namespaces/inkscape"
   version="1.1"
   id="svg2"
   width="82"
   height="82"
   inkscape:version="0.92.4 (5da689c313, 2019-01-14)"
   sodipodi:docname="dibujo.svg">
  <metadata
     id="metadata8">
    <rdf:RDF>
      <cc:Work
         rdf:about="">
        <dc:format>image/svg+xml</dc:format>
        <dc:type
           rdf:resource="http://purl.org/dc/dcmitype/StillImage" />
        <dc:title></dc:title>
      </cc:Work>
    </rdf:RDF>
  </metadata>
  <defs
     id="defs6" />
  <sodipodi:namedview
     pagecolor="#ffffff"
     bordercolor="#666666"
     borderopacity="1"
     objecttolerance="10"
     gridtolerance="10"
     guidetolerance="10"
     inkscape:pageopacity="0"
     inkscape:pageshadow="2"
     inkscape:window-width="1920"
     inkscape:window-height="1001"
     id="namedview4"
     showgrid="false"
     inkscape:zoom="2.36"
     inkscape:cx="-30.084746"
     inkscape:cy="50"
     inkscape:window-x="-9"
     inkscape:window-y="-9"
     inkscape:window-maximized="1"
     inkscape:current-layer="Capa_2" />
  <g
     data-name="Capa 2"
     id="Capa_2"
     transform="translate(10.423729,-6.305085)">
    <g
       id="g893"
       transform="translate(-8.0508475,8.0508475)">
      <g
         id="Capa_1-2"
         data-name="Capa 1">
        <path
           inkscape:connector-curvature="0"
           d="M 40,0 A 40,40 0 1 0 80,40 40,40 0 0 0 40,0 Z m 0,77.52 A 37.52,37.52 0 1 1 77.52,40 37.52,37.52 0 0 1 40,77.52 Z"
           id="path10" />
        <path
           inkscape:connector-curvature="0"
           d="m 55.59,54.43 v 0 A 4.16,4.16 0 0 0 54.49,54 l -1.41,-0.18 -0.19,0.07 a 4.16,4.16 0 0 0 -1,0.32 L 36.17,38.73 35.23,39.19 a 11.82,11.82 0 0 1 -5.39,1.28 12.07,12.07 0 1 1 10.59,-6.28 l -0.58,1.07 5.88,4.82 v 4.6 h 10.9 l 1,0.82 a 3.61,3.61 0 0 0 -0.12,1.74 3.91,3.91 0 1 0 5.91,-4 4.11,4.11 0 0 0 -1.1,-0.45 L 61,42.6 60.66,42.66 a 3.77,3.77 0 0 0 -1.31,0.5 l -1.67,-1.41 h -9.02 v -3 l -5.11,-4.2 a 15,15 0 1 0 -13.71,8.9 14.81,14.81 0 0 0 5.74,-1.14 L 37.37,44 v 8.35 l 3.23,3.18 a 3.71,3.71 0 0 0 -0.28,2.18 3.89,3.89 0 0 0 3.51,3.17 3.93,3.93 0 0 0 4.06,-2.69 3.85,3.85 0 0 0 -1.66,-4.5 4.43,4.43 0 0 0 -1,-0.43 l -1.53,-0.2 -0.18,0.08 a 3.28,3.28 0 0 0 -0.9,0.28 L 40.3,51.13 v -4.22 l 9.61,9.47 a 3.8,3.8 0 0 0 -0.24,2.08 3.9,3.9 0 0 0 3.51,3.17 h 0.29 a 3.9,3.9 0 0 0 2.11,-7.21 z m -2.18,2.34 h 0.28 c 0.13,0.05 0.31,0.1 0.38,0.14 A 1,1 0 0 1 54.46,58 v 0 a 1,1 0 0 1 -1.08,0.68 1,1 0 0 1 -0.82,-0.79 0.94,0.94 0 0 1 0.17,-0.74 1,1 0 0 1 0.63,-0.4 z M 44.05,56 h 0.31 l 0.35,0.13 a 1,1 0 0 1 0.39,1.09 1,1 0 0 1 -1.9,-0.11 0.94,0.94 0 0 1 0.17,-0.74 0.9,0.9 0 0 1 0.61,-0.4 z M 61.2,45.55 h 0.28 a 3.19,3.19 0 0 1 0.39,0.14 0.93,0.93 0 0 1 0.38,1.09 1,1 0 0 1 -1.07,0.68 1,1 0 0 1 -0.82,-0.8 0.93,0.93 0 0 1 0.16,-0.72 v 0 a 1,1 0 0 1 0.65,-0.4 z"
           id="path12" />
        <path
           inkscape:connector-curvature="0"
           d="m 63.39,56.88 a 3.37,3.37 0 0 0 -0.85,-0.37 l 0.32,-2.83 -4.72,-4.4 h -2.26 v -1.86 a 1.47,1.47 0 1 0 -2.93,0 v 4.8 h 4 l 2.79,2.59 -0.22,1.95 a 3.62,3.62 0 0 0 -1.44,1.18 3.85,3.85 0 0 0 -0.64,3 3.89,3.89 0 0 0 3.56,3.13 h 0.29 A 3.88,3.88 0 0 0 65,61.38 3.84,3.84 0 0 0 63.39,56.88 Z m -1.14,3.59 v 0 a 1,1 0 0 1 -1.07,0.68 1,1 0 0 1 -0.82,-0.79 1,1 0 0 1 0.81,-1.14 v 0 h 0.28 a 4,4 0 0 1 0.39,0.14 0.93,0.93 0 0 1 0.41,1.11 z"
           id="path14" />
        <path
           inkscape:connector-curvature="0"
           d="m 40.46,28.52 a 10.55,10.55 0 1 0 -4.81,8.83 l 5.23,4.92 a 1.37,1.37 0 0 0 0.94,0.38 1.35,1.35 0 0 0 1,-0.43 1.32,1.32 0 0 0 0.37,-1 1.35,1.35 0 0 0 -0.42,-1 l -5,-4.72 a 10.46,10.46 0 0 0 2.69,-6.98 z M 30.32,25.06 a 3.54,3.54 0 1 1 -3.54,-3.54 3.55,3.55 0 0 1 3.54,3.54 z"
           id="path16" />
      </g>
      <path
         transform="translate(-10.423729,-11.694915)"
         inkscape:connector-curvature="0"
         id="path876"
         d="m 49.417264,51.83265 c -1.272373,-1.288377 -2.622588,-2.440634 -3.000478,-2.560572 -0.377891,-0.119938 -1.379033,0.07105 -2.224761,0.424418 -1.985704,0.829681 -5.821461,0.822536 -7.828516,-0.01458 -3.77951,-1.576387 -6.205045,-5.294766 -6.205045,-9.512424 0,-5.884314 4.328025,-10.182605 10.230469,-10.160186 3.178093,0.01207 5.424078,1.054363 7.600869,3.527329 3.296688,3.745236 3.489446,8.934441 0.485741,13.076542 -0.454529,0.626793 -0.169907,1.044275 2.132307,3.127659 1.911851,1.730126 2.620928,2.654839 2.528738,3.297749 -0.22431,1.56429 -1.341122,1.202181 -3.719324,-1.205935 z m -9.43845,-12.745656 c 1.345845,-1.529379 1.239021,-3.358077 -0.285203,-4.8823 -1.952999,-1.953 -4.719144,-1.447645 -5.763998,1.053042 -1.66141,3.976313 3.207532,7.058446 6.049201,3.829258 z"
         style="fill:#ffffff;fill-opacity:1;stroke-width:0.42372882" />
      <path
         transform="translate(-10.423729,-11.694915)"
         inkscape:connector-curvature="0"
         id="path878"
         d="m 62.330508,72.748492 c -1.371737,-0.778522 -1.906779,-1.711145 -1.906779,-3.323678 0,-1.367886 -0.472913,-1.986479 -4.872882,-6.373967 L 50.677966,58.19179 v 2.567531 c 0,3.238546 0.997615,4.410171 3.75517,4.410171 3.542437,0 5.090852,3.5073 2.633357,5.964796 -2.434926,2.434928 -5.964798,0.971691 -5.964798,-2.472585 0,-1.307779 -0.29394,-1.915951 -1.483051,-3.068483 l -1.483051,-1.437429 v -4.292169 c 0,-3.904961 -0.08601,-4.372455 -0.95339,-5.18213 -0.914639,-0.853788 -1.048113,-0.864302 -3.283898,-0.25869 -6.93605,1.878783 -14.804933,-2.224157 -17.383613,-9.064048 -0.753908,-1.999723 -0.886298,-3.07889 -0.740575,-6.03672 0.217547,-4.415703 1.365514,-6.924004 4.518784,-9.873519 9.415759,-8.80734 24.622353,-2.209224 24.622353,10.683598 0,1.593313 -0.265798,3.650283 -0.590661,4.571046 l -0.590662,1.674113 2.497441,2.0216 c 2.275711,1.842116 2.497442,2.168462 2.497442,3.67577 v 1.654172 h 4.820997 c 3.75857,0 4.936714,0.139429 5.346083,0.632689 0.375428,0.452364 0.97797,0.560271 2.114064,0.378602 1.808711,-0.289224 3.147737,0.273915 3.872822,1.628751 1.358572,2.538516 -0.28292,5.410805 -3.092233,5.410805 -2.371229,0 -3.331983,-1.114786 -3.834399,-4.449153 -0.119542,-0.793386 -0.499093,-0.854979 -5.948699,-0.965347 l -5.821008,-0.117889 -0.01699,-2.424484 c -0.01816,-2.590832 -0.0014,-2.56939 -4.935366,-6.32795 -0.610942,-0.465402 -0.58913,-0.71153 0.23227,-2.620925 1.958096,-4.551717 0.890129,-9.860838 -2.707208,-13.458174 -2.421933,-2.421934 -5.152654,-3.534383 -8.675822,-3.534383 -6.397217,0 -11.855265,5.399782 -11.946279,11.818751 -0.102443,7.225004 5.070384,12.550029 12.144462,12.501783 1.834002,-0.01251 3.626148,-0.298996 4.657193,-0.744485 l 1.675985,-0.724154 7.646049,7.601949 c 7.632123,7.588102 7.649471,7.601915 9.525002,7.584067 1.526941,-0.01453 2.062779,0.19583 2.86017,1.122852 0.539668,0.627402 0.981216,1.6915 0.981216,2.364661 0,2.467809 -3.23746,4.510373 -5.296611,3.341712 z m 2.083989,-2.327725 c 0.868656,-0.333335 0.866251,-1.695564 -0.0036,-2.029352 -0.884156,-0.339288 -1.444793,0.03701 -1.444793,0.96975 0,1.175962 0.394012,1.464208 1.448395,1.059602 z m -8.802946,-1.231246 c 0.321005,-0.836529 -0.587988,-1.91635 -1.36287,-1.619 -0.622207,0.238763 -0.823731,1.475898 -0.322127,1.9775 0.499743,0.499746 1.43175,0.301449 1.684997,-0.3585 z M 72.711864,58.177966 c 0,-0.766099 -0.227656,-1.059322 -0.822449,-1.059322 -0.452347,0 -0.94594,0.199809 -1.096873,0.44402 -0.453906,0.734441 0.140403,1.674624 1.058568,1.674624 0.635653,0 0.860754,-0.27703 0.860754,-1.059322 z"
         style="fill:#ffffff;fill-opacity:1;stroke-width:0.42372882" />
      <path
         transform="translate(-10.423729,-11.694915)"
         inkscape:connector-curvature="0"
         id="path880"
         d="m 70.262938,75.10622 c -2.3953,-1.007147 -2.912707,-3.530597 -1.152769,-5.622165 1.382681,-1.643222 1.342198,-3.037542 -0.129118,-4.447152 -0.978054,-0.937036 -1.578145,-1.138598 -3.38983,-1.138598 h -2.20139 v -2.512106 c 0,-1.689145 0.212236,-2.724343 0.647855,-3.159962 0.972332,-0.972332 1.831746,-0.378883 1.977038,1.365198 0.114164,1.370413 0.283285,1.577498 1.44102,1.764497 0.760571,0.122849 2.239008,1.048905 3.518806,2.204091 2.071857,1.870126 2.189843,2.084377 1.925065,3.495763 -0.185625,0.989465 -0.121065,1.503536 0.188821,1.503536 1.046904,0 2.165801,1.713097 2.165801,3.315969 0,2.700424 -2.462293,4.294297 -4.991299,3.230929 z m 2.365398,-3.316931 c -0.08159,-0.571832 -0.434908,-0.899458 -0.969991,-0.899458 -0.969521,0 -1.424952,1.422515 -0.615581,1.922734 0.847983,0.524082 1.725543,-0.04227 1.585572,-1.023276 z"
         style="fill:#ffffff;fill-opacity:1;stroke-width:0.42372882" />
      <path
         transform="translate(-10.423729,-11.694915)"
         inkscape:connector-curvature="0"
         id="path882"
         d="M 44.957627,91.169869 C 28.051522,88.50989 14.999336,76.156165 11.445978,59.451525 10.59641,55.457631 10.617357,47.990992 11.489968,43.771186 14.449939,29.457264 24.700425,18.161112 38.750344,13.729942 c 22.474681,-7.0882344 46.293368,7.398693 50.785669,30.888702 0.868296,4.540289 0.545572,12.712288 -0.686089,17.372881 -2.762627,10.453793 -10.776551,20.278712 -20.499869,25.132458 -5.680919,2.835835 -10.17008,3.945801 -16.612767,4.107576 -3.029661,0.07608 -6.080508,0.04831 -6.779661,-0.06169 z m 15.39253,-3.098433 C 73.055631,84.433178 82.335936,75.413771 86.530475,62.627119 87.62478,59.291237 87.713538,58.509432 87.733106,52.033898 87.751496,45.953771 87.627017,44.60296 86.778297,41.671541 82.994182,28.60151 72.690941,18.546471 59.576271,15.124808 54.980534,13.925763 46.496428,13.813017 42.064023,14.892085 20.808787,20.066667 8.4034605,41.128022 14.241916,62.127542 c 3.797643,13.659208 15.538851,24.140844 30.008447,26.789204 3.448806,0.631233 12.626145,0.149381 16.099794,-0.84531 z"
         style="fill:#ffffff;fill-opacity:1;stroke-width:0.42372882" />
    </g>
  </g>
</svg>
