<?xml version="1.0" encoding="UTF-8" standalone="no"?>
<!-- Created with Inkscape (http://www.inkscape.org/) -->

<svg
   xmlns:dc="http://purl.org/dc/elements/1.1/"
   xmlns:cc="http://creativecommons.org/ns#"
   xmlns:rdf="http://www.w3.org/1999/02/22-rdf-syntax-ns#"
   xmlns:svg="http://www.w3.org/2000/svg"
   xmlns="http://www.w3.org/2000/svg"
   xmlns:sodipodi="http://sodipodi.sourceforge.net/DTD/sodipodi-0.dtd"
   xmlns:inkscape="http://www.inkscape.org/namespaces/inkscape"
   version="1.1"
   id="svg31708"
   width="808"
   height="605"
   inkscape:version="0.92.4 (5da689c313, 2019-01-14)"
   sodipodi:docname="fondo-transp.svg">
  <metadata
     id="metadata31714">
    <rdf:RDF>
      <cc:Work
         rdf:about="">
        <dc:format>image/svg+xml</dc:format>
        <dc:type
           rdf:resource="http://purl.org/dc/dcmitype/StillImage" />
        <dc:title></dc:title>
      </cc:Work>
    </rdf:RDF>
  </metadata>
  <defs
     id="defs31712" />
  <sodipodi:namedview
     pagecolor="#ffffff"
     bordercolor="#666666"
     borderopacity="1"
     objecttolerance="10"
     gridtolerance="10"
     guidetolerance="10"
     inkscape:pageopacity="0"
     inkscape:pageshadow="2"
     inkscape:window-width="1920"
     inkscape:window-height="1001"
     id="namedview31710"
     showgrid="false"
     inkscape:zoom="2.36"
     inkscape:cx="118.91204"
     inkscape:cy="105.14343"
     inkscape:window-x="-9"
     inkscape:window-y="-9"
     inkscape:window-maximized="1"
     inkscape:current-layer="svg31708" />
  <g
     id="g30787"
     transform="translate(-248.25648,-1418)">
    <path
       id="path28126"
       d="m 848.68,1924.15 a 39.15,39.15 0 0 0 -38.82,34.46 l -7.73,-0.09 c 0,3.46 -0.08,6.94 -0.12,10.39 l 8,0.09 a 39.1,39.1 0 1 0 38.68,-44.85 z m -39.79,43 h -1.46 v -2.08 h 1.45 c 0.03,0.73 0.02,1.41 0.01,2.13 z m 0.06,-5 h -1.44 c 0,-0.69 0,-1.37 0,-2 H 809 c 0,0.64 0,1.33 0,2.01 z m 39.73,35.72 a 34.63,34.63 0 1 1 34.63,-34.63 34.67,34.67 0 0 1 -34.63,34.64 z"
       class="cls-49"
       inkscape:connector-curvature="0"
       style="opacity:0.3;fill:#ffffff" />
    <path
       id="path28128"
       d="m 863.24,1940.18 a 8.89,8.89 0 0 0 -12.62,-0.93 c -4,3.36 -7.87,6.77 -11.81,10.15 a 9.06,9.06 0 0 0 -2.55,11.11 c 0.16,0.36 0.26,0.4 0.57,0.13 1.27,-1.11 2.55,-2.22 3.85,-3.31 a 2.21,2.21 0 0 0 1,-1.64 2,2 0 0 1 0.35,-0.8 8,8 0 0 1 1.79,-2 c 2.34,-2 4.67,-4 7,-6 a 21.82,21.82 0 0 1 3.59,-2.83 3.4,3.4 0 0 1 4.51,0.65 c 1.1,1.16 2.16,2.37 3.14,3.63 1.52,2 1.39,3.64 -0.3,5.44 -0.25,0.26 -0.52,0.52 -0.8,0.76 l -4.94,4.25 c -0.6,0.52 -0.48,0.55 -1.05,0 a 8.74,8.74 0 0 0 -7.71,-2.88 9.26,9.26 0 0 0 -5.15,2.42 c -3.89,3.38 -7.81,6.73 -11.71,10.09 a 8.89,8.89 0 0 0 -1.24,12.36 c 1.49,1.85 3,3.65 4.65,5.4 a 8.85,8.85 0 0 0 12.14,0.84 q 6.3,-5.33 12.51,-10.76 a 8.65,8.65 0 0 0 3,-6.65 10.06,10.06 0 0 0 -1,-4.11 c -0.17,-0.38 -0.3,-0.41 -0.62,-0.14 -1.48,1.3 -3,2.57 -4.47,3.86 -0.14,0.11 -0.3,0.22 -0.32,0.43 a 5.16,5.16 0 0 1 -2.16,3.58 q -3.19,2.78 -6.4,5.51 a 46.77,46.77 0 0 1 -3.91,3.25 c -2,1.34 -3.36,1.16 -4.94,-0.62 -0.85,-1 -1.68,-2 -2.52,-2.93 a 10.78,10.78 0 0 1 -1.2,-1.58 3,3 0 0 1 0.13,-3.43 9.66,9.66 0 0 1 1.68,-1.82 c 1.69,-1.45 3.39,-2.89 5.06,-4.36 0.35,-0.31 0.52,-0.28 0.83,0 a 8.88,8.88 0 0 0 12.67,0.82 q 6,-5.16 12.05,-10.37 a 8.92,8.92 0 0 0 1,-12.59 c -1.29,-1.71 -2.69,-3.32 -4.1,-4.93 z m -12.71,23.17 c -1.71,1.11 -2.9,0.93 -4.16,-0.17 -0.26,-0.22 -0.3,-0.37 0,-0.54 a 4.32,4.32 0 0 1 1.93,-0.56 3.35,3.35 0 0 1 2.17,0.81 c 0.25,0.16 0.32,0.29 0.06,0.46 z"
       class="cls-49"
       inkscape:connector-curvature="0"
       style="opacity:0.3;fill:#ffffff" />
    <path
       id="path28130"
       d="m 1012.17,1750.32 c 0.22,0 0.38,0.06 0.54,0.06 7.23,0 14.46,0 21.68,0 a 4.87,4.87 0 0 0 4.85,-4.7 c 0.1,-4.88 0.08,-9.77 0,-14.65 a 4.42,4.42 0 0 0 -4.13,-4.21 8.15,8.15 0 0 1 -3,-0.85 17.37,17.37 0 0 1 -3.66,-2.77 7.4,7.4 0 0 0 -5.63,-2.47 c -1.7,0 -3.41,0.06 -5.11,0 a 7.61,7.61 0 0 0 -6.29,2.72 9.75,9.75 0 0 1 -6.69,3.43 3.54,3.54 0 0 0 -3.41,2.93 41.59,41.59 0 0 0 -0.35,5.6 11.79,11.79 0 0 1 11.2,14.91 z m 21.78,-20.16 a 1.94,1.94 0 1 1 0,3.88 1.9,1.9 0 0 1 -1.93,-2 1.93,1.93 0 0 1 1.98,-1.88 z m -13.42,-2.75 a 8.66,8.66 0 1 1 -8.69,8.6 8.66,8.66 0 0 1 8.69,-8.6 z"
       class="cls-49"
       inkscape:connector-curvature="0"
       style="opacity:0.3;fill:#ffffff" />
    <path
       id="path28132"
       d="m 1001,1756.54 a 9.53,9.53 0 1 0 -9.48,-9.44 9.53,9.53 0 0 0 9.48,9.44 z m -1.82,-11.42 c 0,-0.58 0,-1.12 0,-1.65 a 1.85,1.85 0 0 1 1.84,-1.94 1.83,1.83 0 0 1 1.84,1.93 c 0,0.54 0,1.08 0,1.67 1.55,0.17 3.62,-0.45 3.58,1.92 -0.04,2.37 -2.05,1.68 -3.58,1.86 0,0.59 0,1.16 0,1.73 a 1.84,1.84 0 1 1 -3.67,0 c 0,-0.57 0,-1.14 0,-1.75 -1.54,-0.18 -3.61,0.4 -3.58,-1.94 0.03,-2.34 2.05,-1.65 3.57,-1.83 z"
       class="cls-49"
       inkscape:connector-curvature="0"
       style="opacity:0.3;fill:#ffffff" />
    <path
       id="path28134"
       d="m 1020.46,1742.13 a 6.08,6.08 0 0 0 0.14,-12.15 6.08,6.08 0 1 0 -0.14,12.15 z"
       class="cls-49"
       inkscape:connector-curvature="0"
       style="opacity:0.3;fill:#ffffff" />
    <path
       id="path28136"
       d="m 973.53,1754.3 8.32,-2.11 a 36.31,36.31 0 1 0 -2.61,-13.49 c 0,1.14 0.06,2.28 0.17,3.4 l -8.42,2.12 c 0.84,3.35 1.7,6.78 2.54,10.08 z m 42.05,-47.47 a 31.87,31.87 0 1 1 -31.87,31.87 31.9,31.9 0 0 1 31.87,-31.87 z m -35.84,44.05 -1.41,0.35 c -0.17,-0.67 -0.33,-1.34 -0.5,-2 l 1.41,-0.34 c 0.16,0.63 0.33,1.29 0.5,1.99 z M 978,1744 c 0.15,0.62 0.32,1.29 0.48,2 l -1.39,0.37 -0.49,-2 z"
       class="cls-49"
       inkscape:connector-curvature="0"
       style="opacity:0.3;fill:#ffffff" />
    <path
       id="path28138"
       d="m 975.82,1692.56 c 0,-2.65 0.06,-5.33 0.09,-8 a 39.13,39.13 0 1 0 -10.39,0.14 c 0,2.59 -0.06,5.18 -0.08,7.74 z m -6.75,-5.5 h -2 c 0,-0.45 0,-1 0,-1.44 h 2 z m 5,0.07 H 972 c 0,-0.45 0,-1 0,-1.45 h 2.06 c 0.04,0.49 0.04,0.99 0.03,1.45 z m -38.56,-41.24 a 34.63,34.63 0 1 1 34.63,34.63 34.68,34.68 0 0 1 -34.61,-34.63 z"
       class="cls-49"
       inkscape:connector-curvature="0"
       style="opacity:0.3;fill:#ffffff" />
    <path
       id="path28140"
       d="m 983.53,1645 a 0.93,0.93 0 0 1 -0.74,1 5.9,5.9 0 0 0 -1.2,0.48 1,1 0 0 1 -1.34,-0.23 c -0.67,-0.74 -1.38,-1.45 -2,-2.12 l -3.73,3.67 c 0.47,0.46 1,0.92 1.44,1.4 1.4,1.39 1.24,1 0.54,2.64 -0.47,1 -0.44,1 -1.6,1 H 972 v 5.16 c 1.07,0 2.09,0 3.12,0 a 0.79,0.79 0 0 1 0.87,0.63 7.06,7.06 0 0 0 0.41,1.17 1,1 0 0 1 -0.27,1.34 c -0.78,0.72 -1.52,1.49 -2.23,2.19 l 3.66,3.66 2,-2 a 0.77,0.77 0 0 1 1,-0.19 c 0.53,0.28 1.09,0.5 1.59,0.83 a 1.14,1.14 0 0 1 0.46,0.74 13.62,13.62 0 0 1 0,1.69 v 1.48 h 5.13 c 0,-0.88 0,-1.72 0,-2.56 a 0.84,0.84 0 0 1 0.71,-0.93 10.41,10.41 0 0 0 1.55,-0.51 1,1 0 0 1 1.3,0.27 c 0.59,0.65 1.21,1.26 1.76,1.82 l 3.67,-3.69 -1.61,-1.55 a 0.81,0.81 0 0 1 -0.15,-1.11 19.09,19.09 0 0 0 0.84,-1.77 0.93,0.93 0 0 1 1,-0.63 c 0.84,0 1.69,0 2.53,0 v -5.06 c -0.71,0 -1.42,0 -2.14,0 a 1,1 0 0 1 -1.11,-0.78 9.86,9.86 0 0 0 -0.62,-1.62 1,1 0 0 1 0.23,-1.3 c 0.6,-0.55 1.17,-1.14 1.65,-1.61 l -3.67,-3.66 -1.67,1.71 a 0.8,0.8 0 0 1 -1,0.18 15.06,15.06 0 0 0 -1.6,-0.68 1,1 0 0 1 -0.75,-1.08 c 0,-0.89 0,-1.79 0,-2.69 h -5.15 c 0.01,0.95 -0.02,1.85 0.02,2.71 z m 8.08,10.31 a 6.22,6.22 0 1 1 -6.2,-6.23 6.2,6.2 0 0 1 6.2,6.26 z"
       class="cls-49"
       inkscape:connector-curvature="0"
       style="opacity:0.3;fill:#ffffff" />
    <path
       id="path28142"
       d="m 970.66,1658 c 0,-1.74 0,-3.49 0,-5.23 0,-1 0.16,-1.13 1.16,-1.13 1,0 1.87,0 2.81,0 0.45,0 0.6,-0.2 0.77,-0.55 0.17,-0.35 0,-0.51 -0.22,-0.71 l -1.95,-2 c -0.46,-0.47 -0.47,-0.79 0,-1.25 1.42,-1.43 2.84,-2.84 4.26,-4.26 0.49,-0.48 0.79,-0.48 1.29,0 0.7,0.69 1.41,1.36 2.06,2.08 0.29,0.32 0.52,0.18 0.79,0.06 0.27,-0.12 0.61,-0.16 0.59,-0.62 0,-0.78 0,-1.57 0,-2.36 0,-1 0.15,-1.16 1.18,-1.16 h 2.43 c 0,-0.54 0,-1 0,-1.44 0,-0.15 0,-0.29 0,-0.51 h -3.88 c -0.84,0 -0.94,-0.09 -1.21,-0.87 -0.27,-0.78 -0.69,-1.86 -1.07,-2.77 -0.38,-0.91 -0.33,-0.86 0.28,-1.47 l 3,-3 -6.32,-6.32 c -1,1 -2,2 -3.05,3.07 a 0.9,0.9 0 0 1 -1.15,0.21 q -1.41,-0.64 -2.85,-1.2 a 0.91,0.91 0 0 1 -0.66,-1 c 0,-0.93 0,-1.87 0,-2.81 v -2.08 H 960 v 0.65 c 0,1.42 0,2.85 0,4.27 a 0.85,0.85 0 0 1 -0.63,0.93 c -0.86,0.32 -1.71,0.67 -2.54,1.05 a 0.89,0.89 0 0 1 -1.11,-0.21 c -0.65,-0.68 -1.33,-1.33 -2,-2 -0.67,-0.67 -1.25,-1.27 -1.8,-1.84 l -6.31,6.31 c 1.18,1.19 2.4,2.44 3.65,3.65 a 1,1 0 0 1 0.23,1.29 22.21,22.21 0 0 0 -0.91,2.06 1,1 0 0 1 -1.05,0.71 c -1.73,0 -3.46,0 -5.18,0 h -0.58 v 8.9 h 0.57 c 1.58,0 3.15,0 4.73,0 a 1,1 0 0 1 1.1,0.8 11.89,11.89 0 0 0 0.41,1.28 c 0.64,1.72 0.79,1.29 -0.57,2.66 -1.13,1.15 -2.27,2.28 -3.37,3.37 2.12,2.12 4.2,4.19 6.29,6.29 l 0.36,-0.34 q 1.61,-1.59 3.18,-3.19 a 0.88,0.88 0 0 1 1.2,-0.19 c 0.78,0.43 1.59,0.83 2.41,1.21 a 0.9,0.9 0 0 1 0.57,0.92 c 0,1.43 0,2.86 0,4.28 v 1.13 h 8.91 v -0.64 c 0,-1.3 0,-2.59 0,-3.89 a 0.89,0.89 0 0 1 0.76,-1 c 0.64,-0.15 1.25,-0.38 1.89,-0.55 a 0.57,0.57 0 0 0 0.45,-0.59 z m -6.9,-5.22 a 10,10 0 1 1 10,-10 10,10 0 0 1 -10,9.98 z"
       class="cls-49"
       inkscape:connector-curvature="0"
       style="opacity:0.3;fill:#ffffff" />
    <path
       id="path28144"
       d="m 976.92,1565.29 -7.74,-0.09 c 0,3.46 -0.08,6.94 -0.12,10.39 l 8,0.09 a 39.13,39.13 0 1 0 -0.14,-10.39 z m -1,8.59 h -1.46 c 0,-0.69 0,-1.39 0,-2.08 h 1.45 c 0.09,0.68 0.09,1.36 0.03,2.08 z m 0.06,-5 h -1.44 c 0,-0.69 0,-1.37 0,-2 H 976 c 0,0.59 0,1.28 0,1.96 z m 39.73,-33.54 a 34.63,34.63 0 1 1 -34.63,34.63 34.66,34.66 0 0 1 34.65,-34.67 z"
       class="cls-49"
       inkscape:connector-curvature="0"
       style="opacity:0.3;fill:#ffffff" />
    <path
       id="path28146"
       d="m 1005.2,1597.75 c 7.5,0.06 15,0 22.51,0 a 4.7,4.7 0 0 0 4.77,-3.55 7.43,7.43 0 0 0 0.16,-1.7 q 0,-22.15 0,-44.32 c 0,-0.25 0,-0.5 0,-0.75 a 4.46,4.46 0 0 0 -3.16,-4.21 c -0.41,-0.14 -0.82,-0.23 -1.23,-0.34 h -23.59 a 0.64,0.64 0 0 1 -0.19,0.08 c -2.85,0.56 -4.21,2.19 -4.21,5.06 q 0,22.35 0,44.69 a 4.68,4.68 0 0 0 4.94,5.04 z m 11.28,-2 a 2.5,2.5 0 1 1 2.45,-2.52 2.49,2.49 0 0 1 -2.45,2.47 z m -5.42,-50.33 h 10.82 c 0.42,0 0.76,0.08 0.8,0.58 0.04,0.5 -0.21,0.68 -0.75,0.68 h -10.88 c -0.43,0 -0.8,-0.07 -0.82,-0.61 -0.02,-0.54 0.21,-0.7 0.83,-0.7 z m -8.28,3.77 h 27.36 v 39.8 h -27.36 z"
       class="cls-49"
       inkscape:connector-curvature="0"
       style="opacity:0.3;fill:#ffffff" />
    <path
       id="path28148"
       d="m 949.66,1491.72 c 0,2.76 -0.06,5.53 -0.09,8.26 l 10.39,0.12 c 0,-2.78 0.06,-5.6 0.09,-8.39 a 36.34,36.34 0 1 0 -10.39,0 z m 3.54,2.88 h -2 c 0,-0.45 0,-1 0,-1.44 h 2 c 0.01,0.47 0,0.97 0,1.44 z m 5,0.08 h -2.08 c 0,-0.45 0,-1 0,-1.45 h 2 c 0.12,0.48 0.11,0.98 0.11,1.45 z m -3.42,-70.79 a 31.87,31.87 0 1 1 -31.78,31.86 31.9,31.9 0 0 1 31.81,-31.86 z"
       class="cls-49"
       inkscape:connector-curvature="0"
       style="opacity:0.3;fill:#ffffff" />
    <path
       id="path28150"
       d="m 962.08,1459.89 a 2.21,2.21 0 0 0 -2.8,-0.2 8.74,8.74 0 0 1 -8.68,0.28 c -2,-1 -2.31,-1 -4,0.56 a 13.65,13.65 0 0 0 -4.82,11.32 c 0,0.62 0,1.25 0,1.87 a 2.65,2.65 0 0 0 2,3 21,21 0 0 0 3.4,0.71 36,36 0 0 0 16.41,-0.21 c 4.32,-1.18 4.33,-1.14 4.27,-5.59 a 14.06,14.06 0 0 0 -5.78,-11.74 z"
       class="cls-49"
       inkscape:connector-curvature="0"
       style="opacity:0.3;fill:#ffffff" />
    <path
       id="path28152"
       d="m 940.34,1466.6 a 14.49,14.49 0 0 1 6,-8 c 0.78,-0.49 0.79,-0.9 0.29,-1.6 a 8.1,8.1 0 0 1 -1.45,-6.23 c 0.16,-1.07 -0.16,-1.16 -1.06,-0.83 a 8.53,8.53 0 0 1 -7.94,-0.79 1.8,1.8 0 0 0 -2.22,0.08 13,13 0 0 0 -5.54,7.79 31.15,31.15 0 0 0 -0.54,6.4 2.6,2.6 0 0 0 2,2.79 31.22,31.22 0 0 0 8.92,1.54 c 1,0.09 1.2,-0.03 1.54,-1.15 z"
       class="cls-49"
       inkscape:connector-curvature="0"
       style="opacity:0.3;fill:#ffffff" />
    <path
       id="path28154"
       d="m 973.62,1449 a 8.73,8.73 0 0 1 -8,1 c -1,-0.3 -1.36,-0.07 -1.24,1 a 8,8 0 0 1 -0.91,5.19 c -0.92,1.49 -0.88,1.82 0.51,2.88 a 14.06,14.06 0 0 1 5.12,7.34 1.66,1.66 0 0 0 2.07,1.33 48,48 0 0 0 7.22,-1.31 c 2.95,-0.77 3.17,-1 3.17,-4.38 a 22.15,22.15 0 0 0 -0.21,-3.09 c -0.18,-4.34 -2.31,-7.5 -5.82,-9.86 a 1.56,1.56 0 0 0 -1.91,-0.1 z"
       class="cls-49"
       inkscape:connector-curvature="0"
       style="opacity:0.3;fill:#ffffff" />
    <path
       id="path28156"
       d="m 954.14,1458.92 c 4.62,0 8.25,-3.31 8.28,-7.64 a 7.87,7.87 0 0 0 -7.61,-7.67 7.67,7.67 0 0 0 -7.64,7.84 c -0.04,3.77 3.37,7.42 6.97,7.47 z"
       class="cls-49"
       inkscape:connector-curvature="0"
       style="opacity:0.3;fill:#ffffff" />
    <path
       id="path28158"
       d="m 941.08,1448.46 a 7.5912911,7.5912911 0 0 0 -0.28,-15.18 7.5912911,7.5912911 0 1 0 0.28,15.18 z"
       class="cls-49"
       inkscape:connector-curvature="0"
       style="opacity:0.3;fill:#ffffff" />
    <path
       id="path28160"
       d="m 968.73,1448.46 a 7.59,7.59 0 1 0 -7.75,-7.55 7.56,7.56 0 0 0 7.75,7.55 z"
       class="cls-49"
       inkscape:connector-curvature="0"
       style="opacity:0.3;fill:#ffffff" />
    <path
       id="path28162"
       d="m 583.91,1445.69 a 17.41,17.41 0 0 0 6.32,-1.34 1.65,1.65 0 0 1 1.06,-0.17 c 0.77,0.17 1.34,-0.24 1.78,-1.2 l 5,0.06 c 0,-0.22 0,-0.84 0,-1.64 h 8.18 c 11.17,0 11.17,3.13 11.17,4.47 0,7.28 0,14.16 10.45,14.16 l 66.4,-0.39 h 0.07 c 9.06,-0.37 8.86,-8 8.72,-13 a 35.37,35.37 0 0 1 0,-4.28 c 0.31,-3.4 2.08,-3.9 3.78,-3.93 7.44,-0.17 17.3,-0.1 22.48,-0.05 0,1 0,1.84 0,2.1 h 5 c 0,0.1 0,0.2 0,0.31 a 1.53,1.53 0 0 0 1.91,1.27 1,1 0 0 1 0.78,0.11 15.83,15.83 0 0 0 6.71,1.7 c 2.15,0 4.31,0 6.46,0 h 0.35 l 0.06,-14.18 h -0.24 c -2.3,0 -4.59,-0.06 -6.88,0 a 17.57,17.57 0 0 0 -6.31,1.38 1.66,1.66 0 0 1 -1.06,0.18 c -0.78,-0.17 -1.34,0.25 -1.77,1.22 h -5 c 0,0.2 0,0.74 0,1.46 -5.22,-0.05 -15.1,-0.12 -22.57,0 -4.72,0.1 -7.68,3 -8.14,8 a 40.61,40.61 0 0 0 0,4.81 c 0.16,6.08 -0.16,8.23 -4.4,8.42 l -66.35,0.39 c -5.76,0 -6,-1.7 -6,-9.69 0,-8.94 -11.36,-8.94 -15.64,-8.94 h -8.15 c 0,-0.94 0,-1.68 0,-1.92 l -5,-0.06 v -0.3 a 1.53,1.53 0 0 0 -1.9,-1.29 1,1 0 0 1 -0.78,-0.11 15.81,15.81 0 0 0 -6.7,-1.75 c -2.15,0 -4.31,-0.06 -6.46,-0.08 H 577 c -0.06,4.74 -0.11,9.46 -0.16,14.19 H 577 c 2.32,0.05 4.62,0.12 6.91,0.09 z"
       class="cls-49"
       inkscape:connector-curvature="0"
       style="opacity:0.3;fill:#ffffff" />
    <path
       id="path28166"
       d="m 548.09,1454.26 a 3.72,3.72 0 1 0 -3.71,-3.72 3.73,3.73 0 0 0 3.71,3.72 z m 0,-5.39 a 1.67,1.67 0 1 1 -1.66,1.67 1.68,1.68 0 0 1 1.65,-1.67 z"
       class="cls-49"
       inkscape:connector-curvature="0"
       style="opacity:0.3;fill:#ffffff" />
    <path
       id="path28168"
       d="m 534.8,1454.26 a 3.72,3.72 0 1 0 -3.71,-3.72 3.74,3.74 0 0 0 3.71,3.72 z m 0,-5.39 a 1.67,1.67 0 1 1 -1.69,1.68 1.68,1.68 0 0 1 1.7,-1.68 z"
       class="cls-49"
       inkscape:connector-curvature="0"
       style="opacity:0.3;fill:#ffffff" />
    <path
       id="path28172"
       d="m 786.1,1433.73 h 9.34 a 1.71,1.71 0 0 0 1.56,-0.73 2.17,2.17 0 0 1 1.92,-1 h 1.57 a 1.2,1.2 0 0 0 1.28,-1.06 4.91,4.91 0 0 1 0.21,-0.75 7.91,7.91 0 0 1 3.64,-4.09 l 0.48,-0.29 h -27.36 a 7.79,7.79 0 0 0 -3.77,1 8.41,8.41 0 0 0 -4.52,7 h 15.65 z"
       class="cls-49"
       inkscape:connector-curvature="0"
       style="opacity:0.3;fill:#ffffff" />
    <path
       id="path28174"
       d="m 794.29,1434.56 h -0.37 -22.82 c -0.32,0 -0.46,0.09 -0.45,0.41 0,1 0,2.09 0.11,3.13 a 7,7 0 0 0 1.2,3.28 2.32,2.32 0 0 0 2.2,1.15 c 0.44,0 0.88,0 1.31,0 H 777 v 5.06 h 3.47 v -5.08 H 796 c -1.67,-2.45 -1.91,-5.12 -1.71,-7.95 z"
       class="cls-49"
       inkscape:connector-curvature="0"
       style="opacity:0.3;fill:#ffffff" />
    <path
       id="path28176"
       d="m 782.15,1448.28 h -11 -0.27 v 2.16 H 782 a 2.05,2.05 0 0 0 0.56,0 1.09,1.09 0 0 0 -0.39,-2.12 z"
       class="cls-49"
       inkscape:connector-curvature="0"
       style="opacity:0.3;fill:#ffffff" />
    <path
       id="path28178"
       d="m 803.12,1429.46 a 6.54,6.54 0 0 1 1.54,2.6 c 0.08,0.23 0.19,0.29 0.41,0.24 0.48,-0.13 1,-0.23 1.43,-0.38 a 3.36,3.36 0 0 0 2.34,-2.59 4.59,4.59 0 0 0 -0.55,-3.24 0.36,0.36 0 0 0 -0.33,-0.15 8,8 0 0 0 -4.84,3.52 z"
       class="cls-49"
       inkscape:connector-curvature="0"
       style="opacity:0.3;fill:#ffffff" />
    <path
       id="path28180"
       d="m 802.76,1430.17 c -0.29,0.77 -0.66,1.45 0.15,2.06 a 1.33,1.33 0 0 1 0.31,0.48 7.7,7.7 0 0 1 0,6.89 2.18,2.18 0 0 1 -2,1.46 2.29,2.29 0 0 1 -2,-1.44 7,7 0 0 1 -0.78,-3.19 7.77,7.77 0 0 1 0.76,-3.73 c -0.83,-0.11 -1,0 -1.13,0.74 a 12.44,12.44 0 0 0 0,5.66 6.94,6.94 0 0 0 1.34,2.9 2,2 0 0 0 3.35,0 6.68,6.68 0 0 0 1,-1.66 11.87,11.87 0 0 0 0.38,-7.24 6.71,6.71 0 0 0 -1.38,-2.93 z"
       class="cls-49"
       inkscape:connector-curvature="0"
       style="opacity:0.3;fill:#ffffff" />
    <path
       id="path28182"
       d="m 797.24,1433.88 a 2.42,2.42 0 0 1 -1.78,0.65 c -0.34,0 -0.44,0.13 -0.44,0.42 0,0.77 0,1.55 0,2.31 a 9.06,9.06 0 0 0 1.34,4.37 2.59,2.59 0 0 0 2.89,1.26 c -2.2,-2.63 -2.35,-5.74 -2.01,-9.01 z"
       class="cls-49"
       inkscape:connector-curvature="0"
       style="opacity:0.3;fill:#ffffff" />
    <path
       id="path28184"
       d="m 800.86,1433.61 a 2.92,2.92 0 0 0 -0.23,0.47 5.46,5.46 0 0 0 -0.23,2.83 5.83,5.83 0 0 0 0.48,1.48 c 0.24,0.47 0.57,0.46 0.84,0 a 4.48,4.48 0 0 0 0.53,-2.57 1.09,1.09 0 0 1 -1.18,-0.82 1.11,1.11 0 0 1 0.67,-1.3 c -0.31,-0.56 -0.57,-0.58 -0.88,-0.09 z"
       class="cls-49"
       inkscape:connector-curvature="0"
       style="opacity:0.3;fill:#ffffff" />
    <path
       id="path28186"
       d="m 800,1433 a 7.05,7.05 0 0 0 0,6.27 1.47,1.47 0 0 0 1.3,1 c 0.67,0 1,-0.52 1.3,-1 a 6.64,6.64 0 0 0 0.57,-4.14 1.11,1.11 0 0 0 -0.12,0.5 6,6 0 0 1 -0.42,2.69 c -0.24,0.57 -0.55,1.14 -1.28,1.15 -0.73,0.01 -1.07,-0.57 -1.32,-1.16 a 6.41,6.41 0 0 1 -0.3,-3.6 3.42,3.42 0 0 1 1,-2 0.5,0.5 0 0 0 -0.73,0.29 z"
       class="cls-49"
       inkscape:connector-curvature="0"
       style="opacity:0.3;fill:#ffffff" />
    <path
       id="path28188"
       d="m 773.76,1451.64 c -0.73,0.41 -1.53,0.68 -2.3,1 -0.77,0.32 -0.76,0.44 -0.55,1.24 l 6.06,-2.66 a 5.16,5.16 0 0 0 -3.21,0.42 z"
       class="cls-49"
       inkscape:connector-curvature="0"
       style="opacity:0.3;fill:#ffffff" />
    <path
       id="path28190"
       d="m 770.85,1451.19 v 0.92 l 2.06,-0.92 z"
       class="cls-49"
       inkscape:connector-curvature="0"
       style="opacity:0.3;fill:#ffffff" />
    <path
       id="path28192"
       d="m 802.91,1434 a 3.17,3.17 0 0 0 -1,-1.79 l -0.43,0.31 c 0.82,0.18 0.93,1.01 1.43,1.48 z"
       class="cls-49"
       inkscape:connector-curvature="0"
       style="opacity:0.3;fill:#ffffff" />
    <path
       id="path28194"
       d="m 345.85,1463.63 c 2.25,-0.47 4.5,-0.9 6.74,-1.42 a 17.45,17.45 0 0 0 5.87,-2.67 1.68,1.68 0 0 1 1,-0.4 c 0.8,0 1.26,-0.53 1.48,-1.56 l 4.9,-1 c 0,-0.22 -0.2,-0.9 -0.38,-1.76 l 5.44,-1.16 c 7.46,-1.65 7.34,-7.7 7.15,-17.72 -0.05,-2.32 0.45,-4 1.47,-5 a 4.26,4.26 0 0 1 2.82,-1.08 H 429 c 5.48,0 10,3 14,5.55 a 39.59,39.59 0 0 0 5.54,3.21 c 4.51,1.93 25.19,2.32 34.21,2.4 0,0.83 0,1.47 0,1.7 h 5 v 0.31 a 1.54,1.54 0 0 0 1.91,1.28 1,1 0 0 1 0.78,0.1 15.88,15.88 0 0 0 6.71,1.71 c 2.16,0 4.31,0 6.47,0 h 0.35 c 0,-4.74 0,-9.45 0.06,-14.18 h -0.24 c -2.3,0 -4.59,-0.06 -6.89,0 a 17.37,17.37 0 0 0 -6.3,1.39 1.74,1.74 0 0 1 -1.06,0.18 c -0.78,-0.17 -1.34,0.25 -1.78,1.21 h -5 c 0,0.23 0,1 0,1.86 -12.28,-0.11 -29.31,-0.69 -32.45,-2 a 36.26,36.26 0 0 1 -4.85,-2.85 c -4.29,-2.79 -9.62,-6.27 -16.43,-6.27 h -46.38 a 8.63,8.63 0 0 0 -6.16,2.25 c -2,1.88 -3,4.7 -2.91,8.37 0.2,10.37 -0.07,12.48 -3.65,13.26 -1.87,0.42 -3.7,0.8 -5.42,1.15 -0.17,-0.83 -0.31,-1.49 -0.35,-1.71 l -4.86,1 -0.09,-0.3 a 1.54,1.54 0 0 0 -2.14,-0.84 1,1 0 0 1 -0.78,0.06 15.71,15.71 0 0 0 -6.92,-0.26 c -2.11,0.42 -4.22,0.88 -6.33,1.32 l -0.34,0.08 c 1,4.64 1.94,9.25 2.91,13.88 z"
       class="cls-49"
       inkscape:connector-curvature="0"
       style="opacity:0.3;fill:#ffffff" />
    <path
       id="path28196"
       d="m 278.22,1495.46 a 36.35,36.35 0 0 0 47.78,-3.89 l 5.81,4.43 6.3,-8.27 -6,-4.58 a 36,36 0 0 0 4.05,-19.44 l 7.85,-1.64 c -0.71,-3.38 -1.42,-6.79 -2.13,-10.17 l -7.93,1.66 a 36.34,36.34 0 1 0 -55.71,41.9 z m 60.15,-33.8 -1.37,0.34 c -0.13,-0.64 -0.26,-1.31 -0.4,-2 l 1.4,-0.3 c 0.09,0.65 0.23,1.3 0.37,1.96 z m -1.43,-6.9 0.42,2 -1.42,0.28 c -0.14,-0.65 -0.28,-1.32 -0.42,-2 z m -8.5,36.72 -1.16,-0.87 c 0.4,-0.51 0.81,-1.06 1.23,-1.6 l 1.15,0.86 z m 4.28,-5.59 c -0.42,0.55 -0.84,1.1 -1.27,1.64 l -1.14,-0.89 1.25,-1.64 z m -58.39,-38.6 a 31.86,31.86 0 1 1 6.56,44.58 31.81,31.81 0 0 1 -6.56,-44.58 z"
       class="cls-49"
       inkscape:connector-curvature="0"
       style="opacity:0.3;fill:#ffffff" />
    <path
       id="path28198"
       d="m 279.1,1483.19 c 0.77,0.29 1.51,0.63 2.27,1 l 1.32,0.54 v -19.45 l -1.88,0.76 a 19.71,19.71 0 1 1 39.3,0 l -1.87,-0.77 v 19.48 c 1.13,-0.48 2.16,-1 3.22,-1.34 a 4.8,4.8 0 0 0 2.81,-2.63 1.72,1.72 0 0 0 0.17,-0.71 q 0,-5.07 0,-10.13 a 1.1,1.1 0 0 0 -0.1,-0.58 c -0.5,-0.7 -1,-1.38 -1.54,-2.08 a 1.06,1.06 0 0 1 -0.24,-0.58 c 0,-1.4 0.12,-2.82 0,-4.2 a 21.67,21.67 0 0 0 -11.21,-17.29 22.13,22.13 0 0 0 -26.75,3.79 21.7,21.7 0 0 0 -6.2,17.52 0.87,0.87 0 0 1 -0.34,0.81 7.1,7.1 0 0 0 -1,1.13 3,3 0 0 0 -0.6,2 c 0,3.18 0,6.36 0,9.53 a 1.36,1.36 0 0 0 0.05,0.54 4.83,4.83 0 0 0 2.59,2.66 z"
       class="cls-49"
       inkscape:connector-curvature="0"
       style="opacity:0.3;fill:#ffffff" />
    <path
       id="path28200"
       d="m 284.49,1465.21 h -0.25 c -0.82,0 -1,0.22 -1,1 V 1481 c 0,0.94 0,1.87 0,2.81 0,0.6 0.25,0.83 0.85,0.86 h 0.41 c 0.83,0 1,-0.21 1,-1 v -17.44 c 0.01,-0.79 -0.23,-1.02 -1.01,-1.02 z"
       class="cls-49"
       inkscape:connector-curvature="0"
       style="opacity:0.3;fill:#ffffff" />
    <path
       id="path28202"
       d="m 317.35,1465.3 a 1.21,1.21 0 0 0 -1.91,1.06 v 17.09 c 0,1.11 0.14,1.26 1.23,1.25 0.9,0 1.07,-0.18 1.07,-1.1 v -17.39 a 0.9,0.9 0 0 0 -0.39,-0.91 z"
       class="cls-49"
       inkscape:connector-curvature="0"
       style="opacity:0.3;fill:#ffffff" />
    <path
       id="path28204"
       d="m 276.65,1583.41 2.42,2.16 a 13.12,13.12 0 0 1 17.3,0 l 2.42,-2.14 a 16.3,16.3 0 0 0 -22.14,-0.02 z"
       class="cls-49"
       inkscape:connector-curvature="0"
       style="opacity:0.3;fill:#ffffff" />
    <path
       id="path28206"
       d="m 281,1587.62 2.38,2.12 a 6.77,6.77 0 0 1 8.73,0 l 2.4,-2.12 a 9.84,9.84 0 0 0 -13.51,0 z"
       class="cls-49"
       inkscape:connector-curvature="0"
       style="opacity:0.3;fill:#ffffff" />
    <path
       id="path28208"
       d="m 287.7,1590.43 a 2.6,2.6 0 1 0 0,5.2 2.6,2.6 0 1 0 0,-5.2 z"
       class="cls-49"
       inkscape:connector-curvature="0"
       style="opacity:0.3;fill:#ffffff" />
    <path
       id="path28210"
       d="m 259.47,1607.35 h 23.32 c 0,2.66 0,5.33 0,8 h 10.39 c 0,-2.66 0,-5.34 0,-8 q 11.65,0 23.32,0 a 2.69,2.69 0 0 0 2.85,-2.83 q 0,-6.19 0,-12.39 h 8.56 c 0,-3.45 0,-6.94 0,-10.39 h -8.6 v -11 a 2.57,2.57 0 0 0 -2.86,-2.87 c -6.81,0 -50.66,0 -57.51,0 a 2.55,2.55 0 0 0 -2.46,1.54 c -0.05,0.1 -0.11,0.18 -0.16,0.27 v 35.89 a 2.93,2.93 0 0 0 3.15,1.78 z m 61.61,-23.81 h 1.45 c 0,0.7 0,1.39 0,2.08 h -1.45 c -0.01,-0.68 -0.01,-1.36 0,-2.08 z m 0,5 h 1.44 c 0,0.68 0,1.36 0,2 H 321 c 0,-0.54 0.05,-1.28 0.05,-1.96 z m -36.72,21.29 v -1.44 h 2 v 1.43 z m 7.05,0.06 h -2.08 c 0,-0.45 0,-1 0,-1.45 h 2.05 z m -31.93,-38.36 h 56.79 v 32.07 h -56.82 z"
       class="cls-49"
       inkscape:connector-curvature="0"
       style="opacity:0.3;fill:#ffffff" />
    <path
       id="path28212"
       d="m 299.84,1654.38 c 0,0.09 0,0.2 0,0.3 a 1.53,1.53 0 0 0 1.9,1.29 1,1 0 0 1 0.78,0.11 15.81,15.81 0 0 0 6.7,1.75 c 2.15,0.05 4.31,0.06 6.46,0.08 h 0.35 c 0.06,-4.74 0.11,-9.46 0.16,-14.19 H 316 c -2.29,0 -4.59,-0.1 -6.88,-0.07 a 17.62,17.62 0 0 0 -6.32,1.34 1.65,1.65 0 0 1 -1.06,0.17 c -0.77,-0.17 -1.34,0.24 -1.78,1.2 l -5,-0.06 c 0,0.28 0,1.23 0,2.39 v 0 a 5.93,5.93 0 0 1 -3.87,-1.27 4.59,4.59 0 0 1 -1.22,-3.51 v -6.1 h 1.77 c 0,-1.68 0,-3.32 0,-5 h 0.31 a 1.53,1.53 0 0 0 1.27,-1.91 1,1 0 0 1 0.11,-0.78 15.83,15.83 0 0 0 1.7,-6.71 c 0,-2.15 0,-4.31 0,-6.46 0,-0.12 0,-0.25 0,-0.35 l -14.19,-0.06 c 0,0.06 0,0.15 0,0.24 0,2.3 -0.06,4.59 0,6.88 a 17.57,17.57 0 0 0 1.38,6.31 1.6,1.6 0 0 1 0.18,1.06 c -0.17,0.78 0.25,1.34 1.22,1.77 0,1.64 0,3.3 0,5 h 1.79 v 6.1 a 8.85,8.85 0 0 0 2.65,6.78 10.11,10.11 0 0 0 6.89,2.47 c 0,0.57 0,1 0,1.17 z"
       class="cls-49"
       inkscape:connector-curvature="0"
       style="opacity:0.3;fill:#ffffff" />
    <path
       id="path28214"
       d="m 317.46,1645.64 c 0,3.45 -0.08,6.94 -0.12,10.39 l 7.7,0.08 a 33,33 0 1 0 -0.05,-10.38 z m 6.76,8.67 h -1.46 v -2.07 h 1.45 c 0.02,0.67 0.02,1.36 0.01,2.07 z m 0.06,-5 h -1.44 c 0,-0.68 0,-1.37 0,-2 h 1.45 c 0.01,0.6 0,1.28 -0.01,1.97 z m 33.3,-27 a 28.5,28.5 0 1 1 -28.51,28.5 28.54,28.54 0 0 1 28.51,-28.54 z"
       class="cls-49"
       inkscape:connector-curvature="0"
       style="opacity:0.3;fill:#ffffff" />
    <path
       id="path28216"
       d="m 339.7,1657.4 a 7,7 0 0 0 8.48,0 0.76,0.76 0 0 1 1,-0.12 c 2.47,1.33 4.94,2.65 7.42,3.94 0.43,0.21 0.48,0.46 0.45,0.89 a 11.78,11.78 0 0 0 0,2.52 7.08,7.08 0 1 0 2.55,-7 1.12,1.12 0 0 1 -0.95,0.13 c -2.47,-1.26 -4.91,-2.57 -7.35,-3.89 a 0.92,0.92 0 0 1 -0.4,-0.63 c 0,-1.21 0,-2.42 0,-3.71 2.8,-1.56 5.67,-3.18 8.56,-4.75 a 1.16,1.16 0 0 1 0.92,0.09 7.62,7.62 0 0 0 3.77,1 7.07,7.07 0 1 0 -6.78,-4.52 c -2.85,1.59 -5.67,3.18 -8.51,4.73 -0.19,0.1 -0.59,0 -0.82,-0.19 a 7.45,7.45 0 0 0 -3.86,-1.27 7.1,7.1 0 0 0 -4.48,12.77 z"
       class="cls-49"
       inkscape:connector-curvature="0"
       style="opacity:0.3;fill:#ffffff" />
    <path
       id="path28218"
       d="m 363.37,1923.56 c 0,-2.57 0.06,-5.15 0.09,-7.68 l -10.39,-0.12 c 0,2.59 -0.06,5.2 -0.09,7.81 a 48,48 0 1 0 10.39,0 z m -3.55,-2.3 h 2 c 0,0.45 0,1 0,1.45 h -2 z m -5,-0.08 h 2.08 c 0,0.45 0,1 0,1.45 h -2.06 c -0.05,-0.49 -0.05,-0.99 -0.04,-1.45 z m 3.41,93.69 a 43.56,43.56 0 1 1 43.56,-43.56 43.61,43.61 0 0 1 -43.58,43.56 z"
       class="cls-49"
       inkscape:connector-curvature="0"
       style="opacity:0.3;fill:#ffffff" />
    <path
       id="path28220"
       d="m 376.11,1963.5 2.07,-1.82 c -7.48,-7.24 -20,-6.57 -26.58,0 l 2,1.82 a 16.91,16.91 0 0 1 22.51,0 z"
       class="cls-49"
       inkscape:connector-curvature="0"
       style="opacity:0.3;fill:#ffffff" />
    <path
       id="path28222"
       d="m 355.51,1965.34 2.06,1.84 a 11.17,11.17 0 0 1 14.73,0 l 2.06,-1.83 a 13.89,13.89 0 0 0 -18.85,-0.01 z"
       class="cls-49"
       inkscape:connector-curvature="0"
       style="opacity:0.3;fill:#ffffff" />
    <path
       id="path28224"
       d="m 359.2,1968.93 2,1.81 a 5.76,5.76 0 0 1 7.43,0 l 2,-1.8 a 8.38,8.38 0 0 0 -11.43,-0.01 z"
       class="cls-49"
       inkscape:connector-curvature="0"
       style="opacity:0.3;fill:#ffffff" />
    <path
       id="path28226"
       d="m 364.92,1971.32 a 2.22,2.22 0 1 0 0,4.43 2.22,2.22 0 0 0 2.28,-2.25 2.26,2.26 0 0 0 -2.28,-2.18 z"
       class="cls-49"
       inkscape:connector-curvature="0"
       style="opacity:0.3;fill:#ffffff" />
    <path
       id="path28228"
       d="m 340.43,1949.46 a 2.29,2.29 0 0 0 -2.43,2.41 q 0,14.4 0,28.81 a 2.18,2.18 0 0 0 2.44,2.44 h 18 v 4.07 h -7.31 c -0.91,0 -0.91,0 -1.13,0.86 -0.22,0.86 -0.48,2 -0.73,3 h 31.18 c -0.35,-1.16 -0.7,-2.27 -1,-3.39 a 0.53,0.53 0 0 0 -0.61,-0.45 c -2.33,0 -4.66,0 -7,0 h -0.59 v -4.07 h 0.67 c 5.83,0 11.66,0 17.49,0 a 2.18,2.18 0 0 0 2.1,-1.32 2.53,2.53 0 0 1 0.13,-0.22 V 1951 a 2.5,2.5 0 0 0 -2.65,-1.56 q -24.27,0.07 -48.56,0.02 z m 48.57,30.48 h -48.35 v -27.32 H 389 Z"
       class="cls-49"
       inkscape:connector-curvature="0"
       style="opacity:0.3;fill:#ffffff" />
    <path
       id="path28230"
       d="m 334.28,1949.39 h -8.74 a 1.68,1.68 0 0 0 -1.91,1.92 V 1989 a 1.68,1.68 0 0 0 1.87,1.85 h 8.75 a 1.71,1.71 0 0 0 1.9,-1.9 v -37.68 a 1.71,1.71 0 0 0 -1.87,-1.88 z m -8.72,24.76 c -0.47,0 -0.6,-0.36 -0.6,-0.78 0,-0.42 0.11,-0.86 0.63,-0.86 0.52,0 0.55,0.52 0.55,0.86 0,0.34 -0.14,0.78 -0.58,0.78 z m 2.72,-0.81 c 0,0.48 -0.24,0.81 -0.68,0.81 a 0.73,0.73 0 0 1 -0.68,-0.81 c 0,-0.39 0.06,-0.9 0.68,-0.9 0.62,0 0.68,0.56 0.68,0.9 z m 5.38,1.12 a 0.84,0.84 0 0 1 -0.88,-0.87 0.83,0.83 0 0 1 0.85,-0.87 0.84,0.84 0 0 1 0.86,0.83 0.89,0.89 0 0 1 -0.83,0.91 z m 1.22,-13.57 a 0.34,0.34 0 0 1 -0.34,0.34 h -9.24 a 0.34,0.34 0 0 1 -0.34,-0.34 V 1960 a 0.34,0.34 0 0 1 0.34,-0.34 h 9.24 a 0.34,0.34 0 0 1 0.34,0.34 z m 0,-2.36 a 0.34,0.34 0 0 1 -0.34,0.33 h -9.24 a 0.34,0.34 0 0 1 -0.34,-0.33 v -0.89 a 0.34,0.34 0 0 1 0.34,-0.33 h 9.24 a 0.34,0.34 0 0 1 0.34,0.33 z m 0,-2.37 a 0.34,0.34 0 0 1 -0.34,0.34 h -9.24 a 0.34,0.34 0 0 1 -0.34,-0.34 v -0.88 a 0.34,0.34 0 0 1 0.34,-0.34 h 9.24 a 0.34,0.34 0 0 1 0.34,0.34 z"
       class="cls-49"
       inkscape:connector-curvature="0"
       style="opacity:0.3;fill:#ffffff" />
    <path
       id="path28232"
       d="m 341.72,1847.61 7.74,0.08 c 0,-3.45 0.08,-6.93 0.12,-10.38 l -8,-0.09 a 39.13,39.13 0 1 0 0.14,10.39 z m 1,-8.59 h 1.46 c 0,0.69 0,1.38 0,2.07 h -1.45 c -0.05,-0.67 -0.04,-1.36 -0.03,-2.09 z m -0.06,5 h 1.44 c 0,0.68 0,1.37 0,2 h -1.44 c -0.04,-0.59 -0.03,-1.28 -0.02,-1.96 z m -39.73,33.54 a 34.63,34.63 0 1 1 34.61,-34.56 34.67,34.67 0 0 1 -34.63,34.6 z"
       class="cls-49"
       inkscape:connector-curvature="0"
       style="opacity:0.3;fill:#ffffff" />
    <path
       id="path28234"
       d="m 321.48,1824.42 a 25.43,25.43 0 0 0 -18.08,-7.52 v 0 a 25.56,25.56 0 0 0 0,51.11 v 0 a 25.55,25.55 0 0 0 18.08,-43.59 z m -24.78,-3.72 a 27.68,27.68 0 0 0 -4.52,10.37 23.72,23.72 0 0 1 -5.38,-4.23 22.73,22.73 0 0 1 9.9,-6.14 z M 285,1829 v 0 l 0.66,0.67 a 25.12,25.12 0 0 0 5.82,4.19 c 0,0 0.09,0.05 0.09,0.07 a 49.41,49.41 0 0 0 -0.67,7.12 h -10.27 c -0.34,-2.47 2.26,-9.62 4.37,-12.05 z m 0,27 a 22.59,22.59 0 0 1 -4.38,-12.06 H 291 a 0.57,0.57 0 0 1 0,0.13 47.49,47.49 0 0 0 0.63,6.82 c 0,0.19 0,0.19 -0.13,0.28 a 25.16,25.16 0 0 0 -6.5,4.75 z m 1.79,2.14 a 22.37,22.37 0 0 1 5.37,-4.22 27,27 0 0 0 4.7,10.54 c -2.39,-0.63 -7.72,-3.78 -10.05,-6.4 z m 6.85,-14.2 H 302 v 4.29 a 26.49,26.49 0 0 0 -7.78,1.68 z M 302,1865 a 5.42,5.42 0 0 1 -1.54,-0.89 12,12 0 0 1 -2.93,-3.73 30.54,30.54 0 0 1 -2.75,-7.78 22.74,22.74 0 0 1 7.22,-1.65 z m 0,-23.94 h -8.32 l 0.53,-6 a 26.13,26.13 0 0 0 7.79,1.68 z m 0,-7 h -0.43 c -0.61,-0.06 -1.21,-0.12 -1.81,-0.21 a 23,23 0 0 1 -5,-1.4 v 0 a 28.06,28.06 0 0 1 3.22,-8.56 10,10 0 0 1 2.91,-3.26 4.9,4.9 0 0 1 1.1,-0.58 z m 19.78,-5 a 22.77,22.77 0 0 1 4.38,12.06 h -10.3 c 0,-0.14 0,-0.29 0,-0.43 0,-0.57 0,-1.17 -0.1,-1.75 -0.14,-1.45 -0.31,-3 -0.52,-4.7 0,-0.26 0,-0.27 0.15,-0.36 a 24.59,24.59 0 0 0 6.37,-4.88 z m -1.78,-2.14 a 23.12,23.12 0 0 1 -5.37,4.22 28,28 0 0 0 -4.53,-10.36 22.56,22.56 0 0 1 9.9,6.06 z M 304.8,1841 v -4.29 a 26,26 0 0 0 7.79,-1.68 l 0.53,6 z m 8.27,2.82 a 47.8,47.8 0 0 1 -0.52,5.9 l -0.88,-0.26 c -0.94,-0.29 -1.92,-0.58 -2.9,-0.79 -0.98,-0.21 -2,-0.34 -3,-0.48 l -1,-0.13 v -4.24 z m -8.28,-23.93 c 0.2,0.08 0.38,0.15 0.56,0.24 a 8.15,8.15 0 0 1 2.79,2.58 21.86,21.86 0 0 1 3.13,6.7 c 0.18,0.59 0.33,1.2 0.48,1.81 l 0.28,1.07 a 22.86,22.86 0 0 1 -7.24,1.64 z m 0,45 v 0 -14 a 23.18,23.18 0 0 1 7.25,1.67 l -0.15,0.59 c -0.16,0.63 -0.32,1.27 -0.51,1.9 a 22.58,22.58 0 0 1 -3.24,7.07 7.4,7.4 0 0 1 -3.33,2.88 z m 5.27,-0.76 a 28,28 0 0 0 4.53,-10.37 22.82,22.82 0 0 1 5.37,4.22 22.64,22.64 0 0 1 -9.88,6.23 z m 11.69,-8.29 -0.53,-0.52 a 25.15,25.15 0 0 0 -6,-4.35 c -0.08,0 -0.1,-0.06 -0.09,-0.12 a 48.25,48.25 0 0 0 0.66,-7.07 h 10.31 a 22.59,22.59 0 0 1 -4.33,12.14 z"
       class="cls-49"
       inkscape:connector-curvature="0"
       style="opacity:0.3;fill:#ffffff" />
    <path
       id="path28236"
       d="m 335.05,1749.94 7.91,0.09 c 0,-3.46 0.09,-6.94 0.13,-10.39 l -8,-0.09 a 42.66,42.66 0 1 0 0,10.39 z m 1.16,-8.59 h 1.45 v 2.08 h -1.45 c -0.02,-0.68 -0.01,-1.36 0,-2.08 z m -0.06,5 h 1.43 c 0,0.69 0,1.37 0,2 h -1.45 c -0.01,-0.59 0.01,-1.28 0.02,-1.96 z m -81.64,-1.6 a 38.2,38.2 0 1 1 38.19,38.25 38.23,38.23 0 0 1 -38.19,-38.21 z"
       class="cls-49"
       inkscape:connector-curvature="0"
       style="opacity:0.3;fill:#ffffff" />
    <path
       id="path28238"
       d="m 308.76,1768.41 a 4.73,4.73 0 0 0 3.16,-4.39 q 0,-11.34 0,-22.68 a 4.76,4.76 0 0 0 -4.68,-4.67 c -0.55,0 -1.1,0 -1.72,0 v -6.27 a 12.81,12.81 0 0 0 -25.43,-2.39 18.11,18.11 0 0 0 -0.2,2.54 c 0,2 0,4 0,6.11 h -1.37 a 4.82,4.82 0 0 0 -5,5 v 21.88 a 4.81,4.81 0 0 0 4,5.06 0.42,0.42 0 0 1 0.12,0.08 h 30.24 c 0.26,-0.07 0.58,-0.16 0.88,-0.27 z m -13.48,-15.57 a 1,1 0 0 0 -0.46,1 c 0,1.47 0,2.94 0,4.41 a 2.12,2.12 0 0 1 -4.22,0 c 0,-0.52 0,-1 0,-1.55 v -0.85 c 0,-0.7 0,-1.41 0,-2.11 a 0.86,0.86 0 0 0 -0.41,-0.82 4.15,4.15 0 0 1 -1.59,-4.51 4.27,4.27 0 0 1 8.08,-0.49 4.18,4.18 0 0 1 -1.4,4.92 z m -11.12,-16.2 v -1.22 c 0,-1.68 0,-3.37 0,-5.05 a 8.53,8.53 0 0 1 16.93,-1.61 22.25,22.25 0 0 1 0.13,3 c 0,1.63 0,3.26 0,4.93 z"
       class="cls-49"
       inkscape:connector-curvature="0"
       style="opacity:0.3;fill:#ffffff" />
    <path
       id="path28240"
       d="m 491.53,1930 a 39.15,39.15 0 1 0 38.8,44.3 l 8.44,0.1 c 0,-3.46 0.08,-6.94 0.12,-10.39 l -8.57,-0.1 A 39.21,39.21 0 0 0 491.53,1930 Z m 0,73.83 a 34.68,34.68 0 1 1 34.68,-34.68 34.71,34.71 0 0 1 -34.68,34.64 z M 532,1965.68 h 1.46 v 2.08 h -1.45 C 532,1967.08 532,1966.4 532,1965.68 Z m -0.06,5 h 1.44 c 0,0.69 0,1.37 0,2 h -1.45 c 0,-0.59 0.01,-1.28 0.07,-1.96 z"
       class="cls-49"
       inkscape:connector-curvature="0"
       style="opacity:0.3;fill:#ffffff" />
    <path
       id="path28242"
       d="m 498.92,1976.18 c -1.57,1.59 -3.15,3.16 -4.73,4.74 a 2.9,2.9 0 0 1 -4.32,0 l -4.73,-4.74 a 1.14,1.14 0 0 1 -0.2,-0.37 l -13.53,13.52 h 41.34 l -13.55,-13.58 a 2.15,2.15 0 0 1 -0.28,0.43 z"
       class="cls-49"
       inkscape:connector-curvature="0"
       style="opacity:0.3;fill:#ffffff" />
    <path
       id="path28244"
       d="m 470.17,1961.48 v 26.68 l 13.35,-13.33 z"
       class="cls-49"
       inkscape:connector-curvature="0"
       style="opacity:0.3;fill:#ffffff" />
    <path
       id="path28246"
       d="m 513.89,1988.09 v -26.64 l -13.33,13.31 z"
       class="cls-49"
       inkscape:connector-curvature="0"
       style="opacity:0.3;fill:#ffffff" />
    <path
       id="path28248"
       d="m 475.65,1949.21 h 32.82 v 15.26 l 4.38,-4.32 c -0.07,-0.08 -0.14,-0.17 -0.22,-0.25 -1.15,-1.16 -2.32,-2.31 -3.46,-3.48 a 1.3,1.3 0 0 1 -0.32,-0.77 c 0,-1.83 0,-3.67 0,-5.5 v -1.35 h -6.77 a 1.21,1.21 0 0 1 -0.92,-0.37 q -3.93,-4 -7.88,-7.9 a 1.51,1.51 0 0 0 -2.48,0 c -2.61,2.62 -5.23,5.23 -7.84,7.86 a 1.21,1.21 0 0 1 -1,0.4 c -2.06,0 -4.13,0 -6.19,0 h -0.57 v 0.71 q 0,3.06 0,6.1 a 1.09,1.09 0 0 1 -0.36,0.87 c -0.9,0.86 -1.76,1.75 -2.64,2.62 -0.35,0.34 -0.73,0.66 -1,0.91 1.52,1.54 3,3 4.42,4.44 z"
       class="cls-49"
       inkscape:connector-curvature="0"
       style="opacity:0.3;fill:#ffffff" />
    <path
       id="path28250"
       d="m 495.64,1957.81 c 0.05,-0.3 0,-0.45 -0.3,-0.51 a 13.68,13.68 0 0 0 -1.89,-0.36 4.86,4.86 0 0 0 -5.26,5 2.47,2.47 0 0 0 3.83,2.28 8.89,8.89 0 0 0 1.31,-1.1 2,2 0 0 1 0.09,0.26 1.54,1.54 0 0 0 1.38,1.18 3.47,3.47 0 0 0 2.36,-0.55 4.66,4.66 0 0 0 2,-3.41 6,6 0 0 0 -4.37,-6.93 7.85,7.85 0 0 0 -9.89,8 6.37,6.37 0 0 0 2.64,5.24 6.63,6.63 0 0 0 4.64,1.22 21.06,21.06 0 0 0 2.8,-0.57 0.57,0.57 0 0 0 0.32,-0.42 5,5 0 0 0 -0.25,-0.84 26.16,26.16 0 0 1 -2.65,0.5 5.29,5.29 0 0 1 -4,-1.08 5.5,5.5 0 0 1 -1.91,-4.87 6.12,6.12 0 0 1 7,-6.09 4.93,4.93 0 0 1 3.41,7.56 2.4,2.4 0 0 1 -0.89,0.75 c -0.6,0.28 -1,0 -1,-0.66 a 5.87,5.87 0 0 1 0.09,-1.18 c 0.15,-1.11 0.33,-2.23 0.54,-3.42 z m -2.64,3.47 a 3.36,3.36 0 0 1 -0.92,1.36 1,1 0 0 1 -1.67,-0.43 2.93,2.93 0 0 1 2.08,-3.56 5.62,5.62 0 0 1 1,0 22.12,22.12 0 0 1 -0.49,2.63 z"
       class="cls-49"
       inkscape:connector-curvature="0"
       style="opacity:0.3;fill:#ffffff" />
    <path
       id="path28252"
       d="m 628.91,1975.15 a 17.37,17.37 0 0 0 -6.31,1.39 1.7,1.7 0 0 1 -1.05,0.18 c -0.78,-0.17 -1.35,0.25 -1.78,1.21 h -5 c 0,0.25 0,1.07 0,2.1 a 17.2,17.2 0 0 1 -9.45,-3.18 l -1.36,-1 c -4.58,-3.33 -11.48,-8.37 -18.79,-8.37 h -23.84 c 0,-0.88 0,-1.57 0,-1.8 l -5,-0.05 v -0.31 a 1.53,1.53 0 0 0 -1.9,-1.29 1,1 0 0 1 -0.78,-0.11 15.81,15.81 0 0 0 -6.7,-1.75 c -2.15,-0.05 -4.31,-0.05 -6.46,-0.08 h -0.35 c -0.06,4.74 -0.11,9.45 -0.16,14.18 h 0.24 c 2.29,0 4.59,0.09 6.88,0.06 a 17.41,17.41 0 0 0 6.32,-1.34 1.71,1.71 0 0 1 1.06,-0.17 c 0.77,0.18 1.34,-0.24 1.78,-1.2 l 5,0.06 c 0,-0.22 0,-0.9 0,-1.76 h 23.87 c 5.85,0 12.05,4.52 16.15,7.51 l 1.4,1 c 3.86,2.75 7.38,3.67 12.06,4 0,0.7 0,1.24 0,1.44 h 5 c 0,0.1 0,0.21 0,0.31 a 1.53,1.53 0 0 0 1.91,1.28 1,1 0 0 1 0.78,0.1 15.84,15.84 0 0 0 6.71,1.71 c 2.15,0 4.31,0 6.46,0 h 0.4 c 0,-4.74 0,-9.45 0.07,-14.18 h -0.25 c -2.32,0.07 -4.62,0.02 -6.91,0.06 z"
       class="cls-49"
       inkscape:connector-curvature="0"
       style="opacity:0.3;fill:#ffffff" />
    <path
       id="path28254"
       d="m 686.1,1980.11 2.43,-2.14 a 16.31,16.31 0 0 0 -22.14,0 l 2.42,2.16 a 13.1,13.1 0 0 1 17.29,-0.02 z"
       class="cls-49"
       inkscape:connector-curvature="0"
       style="opacity:0.3;fill:#ffffff" />
    <path
       id="path28256"
       d="m 670.73,1982.19 2.38,2.12 a 6.76,6.76 0 0 1 8.73,0 l 2.4,-2.12 a 9.83,9.83 0 0 0 -13.51,0 z"
       class="cls-49"
       inkscape:connector-curvature="0"
       style="opacity:0.3;fill:#ffffff" />
    <path
       id="path28258"
       d="m 677.44,1985 a 2.6,2.6 0 1 0 0,5.2 2.61,2.61 0 0 0 2.68,-2.64 2.65,2.65 0 0 0 -2.68,-2.56 z"
       class="cls-49"
       inkscape:connector-curvature="0"
       style="opacity:0.3;fill:#ffffff" />
    <path
       id="path28260"
       d="m 705.71,1961.91 q -11.65,0 -23.32,0 c 0,-2.67 0,-5.34 0,-8 H 672 c 0,2.65 0,5.33 0,8 h -23.32 a 2.69,2.69 0 0 0 -2.85,2.83 q 0,6.19 0,12.39 h -8.56 c 0,3.46 0,6.94 0,10.39 h 8.6 v 11 a 2.56,2.56 0 0 0 2.86,2.86 h 57.51 a 2.55,2.55 0 0 0 2.46,-1.54 l 0.16,-0.26 v -35.9 a 2.94,2.94 0 0 0 -3.15,-1.77 z m -61.61,23.81 h -1.45 c 0,-0.69 0,-1.38 0,-2.07 h 1.45 c 0.01,0.67 0.01,1.35 0,2.07 z m 0,-5 h -1.44 c 0,-0.68 0,-1.37 0,-2 h 1.44 c 0.04,0.59 0.03,1.28 0.03,1.96 z m 36.72,-21.29 v 1.44 h -2 v -1.44 z m -7.05,-0.05 h 2.08 c 0,0.45 0,1 0,1.45 h -2.05 z m 31.93,38.36 H 649 v -32.08 h 56.78 z"
       class="cls-49"
       inkscape:connector-curvature="0"
       style="opacity:0.3;fill:#ffffff" />
    <path
       id="path28262"
       d="m 977.77,1944.44 c 0,-2.58 0.06,-5.18 0.09,-7.73 l -10.39,-0.12 c 0,2.65 -0.06,5.33 -0.09,8 a 39.1,39.1 0 1 0 10.39,-0.15 z m -3.55,-2.35 h 2 c 0,0.46 0,1 0,1.45 h -2 z m -5,-0.08 h 2.07 c 0,0.45 0,1 0,1.44 h -2.06 c -0.04,-0.45 -0.04,-0.97 -0.03,-1.45 z m 3.93,75.88 a 34.63,34.63 0 1 1 34.63,-34.63 34.66,34.66 0 0 1 -34.65,34.63 z"
       class="cls-49"
       inkscape:connector-curvature="0"
       style="opacity:0.3;fill:#ffffff" />
    <path
       id="path28264"
       d="m 993.52,1964 c -2.43,0 -4.87,0 -7.31,0 -4.15,0 -8.31,0 -12.47,0 a 4.54,4.54 0 0 0 -3.81,2 4.49,4.49 0 0 0 -0.83,2.67 c 0,3.59 0,7.17 0,10.76 a 4.59,4.59 0 0 0 4,4.25 c 0.53,0.06 1,0.07 1.64,0.11 v 6.1 l 0.26,-0.19 c 2.37,-1.91 4.73,-3.82 7.11,-5.71 a 1,1 0 0 1 0.63,-0.23 h 10.64 a 4.73,4.73 0 0 0 4.88,-4.73 c 0,-3.42 0,-6.85 0,-10.28 a 4.73,4.73 0 0 0 -4.74,-4.75 z m -16.69,14 a 4.9,4.9 0 0 1 -3.62,-0.23 c 0.11,-0.48 0.22,-0.92 0.31,-1.28 l 2,0.35 h 0.16 c 0.58,0 1,-0.3 1,-0.7 0,-0.4 -0.14,-0.71 -0.7,-1 -0.56,-0.29 -0.94,-0.37 -1.38,-0.6 a 2.09,2.09 0 0 1 -1.29,-2.11 2.27,2.27 0 0 1 1.81,-1.91 4.53,4.53 0 0 1 3,0.25 c -0.12,0.44 -0.23,0.88 -0.35,1.34 a 3.59,3.59 0 0 0 -2,-0.3 c -0.36,0.07 -0.67,0.2 -0.74,0.6 -0.07,0.4 0.19,0.64 0.51,0.8 0.54,0.26 1.11,0.46 1.65,0.74 a 2,2 0 0 1 1.2,2 2.15,2.15 0 0 1 -1.56,2.05 z m 9.3,0.1 q -0.09,-2.92 -0.2,-5.83 v 0 c -0.22,0.75 -0.44,1.51 -0.67,2.26 -0.32,1.06 -0.66,2.11 -1,3.17 a 0.38,0.38 0 0 1 -0.44,0.32 c -1,0 -1,0 -1.25,-0.91 -0.37,-1.4 -0.72,-2.8 -1.08,-4.2 -0.06,-0.22 -0.1,-0.45 -0.14,-0.67 h -0.05 c -0.09,2 -0.18,3.89 -0.28,5.86 h -1.57 c 0.16,-2.51 0.31,-5 0.48,-7.55 h 2.3 q 0.7,2.57 1.41,5.2 c 0.17,-0.62 0.32,-1.25 0.5,-1.86 0.31,-1.06 0.65,-2.11 1,-3.16 a 0.39,0.39 0 0 1 0.27,-0.19 c 0.57,0 1.13,0 1.7,0 0.26,0 0.33,0.09 0.34,0.35 0.08,1.78 0.18,3.57 0.28,5.36 0,0.62 0.06,1.23 0.1,1.88 z m 6.43,-0.14 a 4.93,4.93 0 0 1 -3.71,-0.18 l 0.32,-1.3 c 0.66,0.13 1.3,0.26 1.94,0.35 a 1.66,1.66 0 0 0 0.62,-0.08 0.75,0.75 0 0 0 0.58,-0.67 0.7,0.7 0 0 0 -0.41,-0.74 c -0.48,-0.24 -1,-0.39 -1.47,-0.67 a 4,4 0 0 1 -1.21,-1 2,2 0 0 1 0.86,-2.82 4.48,4.48 0 0 1 3.66,-0.06 l -0.34,1.24 c -0.7,-0.06 -1.35,-0.15 -2,-0.16 a 0.69,0.69 0 0 0 -0.72,0.61 0.67,0.67 0 0 0 0.46,0.75 c 0.56,0.27 1.16,0.49 1.72,0.78 a 2,2 0 0 1 1.18,1.94 2.12,2.12 0 0 1 -1.48,1.99 z"
       class="cls-49"
       inkscape:connector-curvature="0"
       style="opacity:0.3;fill:#ffffff" />
    <path
       id="path28266"
       d="m 974,1994.08 a 0.68,0.68 0 0 0 -0.14,0.42 c 0,0.78 0,1.56 0,2.34 v 1.92 h -20.73 v -31 h 14.11 v -0.79 a 4.7,4.7 0 0 1 4.87,-4.81 h 3 a 3.88,3.88 0 0 0 -3.34,-1.89 h -16.62 a 3.87,3.87 0 0 0 -3.91,3.91 v 39.14 a 3.93,3.93 0 0 0 3.93,4 c 5.52,0 11,0 16.55,0 a 4,4 0 0 0 4,-4 c 0,-3.53 0,-7.07 0,-10.6 a 3.12,3.12 0 0 0 0,-0.35 c -0.64,0.63 -1.21,1.14 -1.72,1.71 z m -13,-30.68 a 0.87,0.87 0 0 1 0.48,-0.11 H 966 c 0.55,0 0.9,0.31 0.91,0.78 a 0.79,0.79 0 0 1 -0.89,0.78 h -4.46 a 0.8,0.8 0 0 1 -0.86,-0.61 0.69,0.69 0 0 1 0.3,-0.84 z m 2.72,42.22 a 2.37,2.37 0 0 1 -2.33,-2.39 2.34,2.34 0 1 1 2.33,2.39 z"
       class="cls-49"
       inkscape:connector-curvature="0"
       style="opacity:0.3;fill:#ffffff" />
    <path
       id="path28268"
       d="m 982.62,1849.9 h 48.61 c 3.08,0 3.84,-0.74 3.84,-3.77 q 0,-13.65 0,-27.29 c 0,-3.14 -0.65,-3.82 -3.79,-3.82 q -24.42,0 -48.84,0 c -3.1,0 -3.7,0.6 -3.7,3.63 q 0,13.77 0,27.54 c 0.01,3.05 0.71,3.71 3.88,3.71 z m 2.53,-31.73 q 21.68,0.09 43.33,0 c 2,0 2.56,0.63 2.54,2.59 -0.1,7.66 -0.12,15.32 0,23 0,2.19 -0.73,2.66 -2.76,2.63 -7.18,-0.12 -14.36,0 -21.54,0 -7.18,0 -14.53,-0.06 -21.79,0 -1.94,0 -2.45,-0.64 -2.44,-2.47 0.07,-7.74 0.09,-15.48 0,-23.22 -0.02,-2.09 0.76,-2.54 2.66,-2.53 z"
       class="cls-49"
       inkscape:connector-curvature="0"
       style="opacity:0.3;fill:#ffffff" />
    <path
       id="path28270"
       d="m 1034.65,1853 a 2.81,2.81 0 0 0 -2,-0.82 q -25.71,-0.12 -51.43,-0.11 c -0.64,0 -1.63,0.2 -1.87,0.63 -1.95,3.52 -3.77,7.12 -5.74,10.91 h 68.51 c -2.63,-3.7 -4.98,-7.19 -7.47,-10.61 z m -52.56,0.87 c 0.25,-0.42 1.25,-0.56 1.9,-0.56 15.14,0 30.28,0 45.42,0 a 3.81,3.81 0 0 1 2.52,1.28 60.46,60.46 0 0 1 3.55,5 h -56.26 c 1.04,-2.08 1.84,-3.95 2.87,-5.69 z m 18.56,8.77 c 0.73,-1.85 0.73,-1.88 9.72,-1.81 1.51,0 3.57,-0.81 4.29,1.81 z"
       class="cls-49"
       inkscape:connector-curvature="0"
       style="opacity:0.3;fill:#ffffff" />
    <path
       id="path28272"
       d="m 1041.75,1866.1 a 5.15,5.15 0 0 0 -1.89,-0.08 H 976 a 4.09,4.09 0 0 0 -1.65,0.06 c -0.53,0.26 -1.31,0.94 -1.24,1.28 a 2.65,2.65 0 0 0 1.31,1.51 4.72,4.72 0 0 0 1.89,0.07 h 63.38 a 6,6 0 0 0 2.13,-0.13 1.77,1.77 0 0 0 0.9,-1.38 1.83,1.83 0 0 0 -0.97,-1.33 z"
       class="cls-49"
       inkscape:connector-curvature="0"
       style="opacity:0.3;fill:#ffffff" />
    <path
       id="path28274"
       d="m 1016.47,1830.65 2.43,-2.14 a 16.31,16.31 0 0 0 -22.14,0 l 2.41,2.16 a 13.13,13.13 0 0 1 17.3,-0.02 z"
       class="cls-49"
       inkscape:connector-curvature="0"
       style="opacity:0.3;fill:#ffffff" />
    <path
       id="path28276"
       d="m 1001.09,1832.73 2.39,2.12 a 6.76,6.76 0 0 1 8.72,0 l 2.41,-2.12 a 9.84,9.84 0 0 0 -13.52,0 z"
       class="cls-49"
       inkscape:connector-curvature="0"
       style="opacity:0.3;fill:#ffffff" />
    <path
       id="path28278"
       d="m 1007.81,1835.53 a 2.6,2.6 0 1 0 0,5.2 2.61,2.61 0 0 0 2.68,-2.64 2.66,2.66 0 0 0 -2.68,-2.56 z"
       class="cls-49"
       inkscape:connector-curvature="0"
       style="opacity:0.3;fill:#ffffff" />
    <path
       id="path28280"
       d="m 940.81,1851.72 c 2.16,0 4.31,0.06 6.47,0.08 h 0.35 c 0,-4.74 0.11,-9.46 0.16,-14.19 h -0.24 c -2.3,0 -4.59,-0.1 -6.89,-0.07 a 17.36,17.36 0 0 0 -6.31,1.34 1.67,1.67 0 0 1 -1.06,0.17 c -0.78,-0.17 -1.35,0.24 -1.79,1.2 l -5,-0.06 c 0,0.24 0,1 0,2 -5.82,-0.06 -8.91,-0.13 -11,-0.19 v -17 c 0.58,-0.71 1.18,-1.44 1.84,-2.2 1.22,-1.41 2,-2 6.94,-0.86 2,0.46 3.78,0.93 5.33,1.35 -0.3,1.07 -0.54,1.93 -0.62,2.19 l 4.77,1.36 c 0,0.1 0,0.2 0,0.3 a 1.53,1.53 0 0 0 1.49,1.75 0.94,0.94 0 0 1 0.72,0.31 15.83,15.83 0 0 0 6,3.45 c 2.07,0.61 4.15,1.19 6.22,1.78 l 0.34,0.09 q 1.95,-6.84 3.89,-13.64 a 2,2 0 0 0 -0.23,-0.08 c -2.21,-0.63 -4.41,-1.3 -6.63,-1.88 a 17.44,17.44 0 0 0 -6.44,-0.37 1.74,1.74 0 0 1 -1.07,-0.11 c -0.7,-0.37 -1.36,-0.12 -2,0.69 l -4.81,-1.38 c 0,0.17 -0.17,0.63 -0.34,1.24 -1.59,-0.43 -3.47,-0.92 -5.5,-1.4 -4.29,-1 -7.21,-1.17 -9.81,0.82 v -30 c 2.15,-0.17 6.35,-0.84 9,-3.5 a 7.79,7.79 0 0 0 2.31,-5.69 c 0,-5.15 0,-11.18 0,-11.18 v -0.22 c 0,-0.49 -0.23,-4.83 5.74,-6.2 4.9,-1.13 12.72,-3.11 18.48,-4.6 0.18,0.69 0.31,1.22 0.36,1.42 l 4.81,-1.22 c 0,0.09 0.06,0.19 0.1,0.29 a 1.54,1.54 0 0 0 2.17,0.76 1,1 0 0 1 0.78,-0.1 15.74,15.74 0 0 0 6.93,0 c 2.09,-0.5 4.17,-1 6.26,-1.58 l 0.34,-0.09 c -1.16,-4.6 -2.32,-9.17 -3.47,-13.75 h -0.24 c -2.23,0.57 -4.46,1.09 -6.67,1.7 a 17.73,17.73 0 0 0 -5.77,2.91 1.62,1.62 0 0 1 -1,0.44 c -0.79,0 -1.23,0.58 -1.41,1.62 l -4.86,1.22 c 0.07,0.25 0.28,1 0.54,2 -5.76,1.49 -13.5,3.45 -18.37,4.57 -7.89,1.81 -9.47,7.83 -9.2,10.88 0,0.85 0,6.34 0,11.09 0,0.75 0,2.76 -3.58,4 a 16.15,16.15 0 0 1 -3.27,0.69 v -55.94 h 12.36 35.95 c 3,0 8.6,-1.52 8.6,-6.93 v -6 h 1.72 c 0,-1.69 0,-3.32 0,-5 0.1,0 0.21,0 0.31,0 a 1.53,1.53 0 0 0 1.29,-1.9 1,1 0 0 1 0.11,-0.78 15.8,15.8 0 0 0 1.75,-6.69 c 0,-2.16 0.06,-4.31 0.08,-6.47 0,-0.12 0,-0.25 0,-0.35 l -14.18,-0.16 c 0,0.06 0,0.15 0,0.24 0,2.3 -0.1,4.59 -0.07,6.89 a 17.4,17.4 0 0 0 1.34,6.31 1.67,1.67 0 0 1 0.17,1.06 c -0.18,0.78 0.24,1.34 1.2,1.79 0,1.63 0,3.29 -0.06,5 h 1.84 v 6 c 0,2.35 -4.14,2.46 -4.15,2.46 -0.39,0 -34,0 -48.29,0 v -151.3 h 31.14 c 0,0.84 0,1.49 0,1.72 h 5 v 0.31 a 1.54,1.54 0 0 0 1.9,1.29 1,1 0 0 1 0.78,0.11 15.85,15.85 0 0 0 6.7,1.75 c 2.16,0 4.31,0 6.46,0.08 h 0.36 c 0.05,-4.74 0.1,-9.45 0.16,-14.18 h -0.25 c -2.29,0 -4.59,-0.09 -6.88,-0.07 a 17.58,17.58 0 0 0 -6.31,1.35 1.74,1.74 0 0 1 -1.06,0.17 c -0.78,-0.18 -1.35,0.24 -1.79,1.2 l -5,-0.06 c 0,0.23 0,0.94 0,1.84 h -31.26 v -16.38 c 3.16,0 24.28,0.37 31.47,0.37 7.94,0 10.07,-7.7 10.09,-11.78 v -17.36 h 1.25 c 0,-1.69 0,-3.32 0.06,-5 h 0.3 a 1.53,1.53 0 0 0 1.29,-1.9 1,1 0 0 1 0.11,-0.78 15.66,15.66 0 0 0 1.75,-6.69 c 0,-2.16 0.06,-4.31 0.08,-6.47 0,-0.12 0,-0.25 0,-0.35 h -4.9 v -0.23 h -4.47 v 0.17 l -4.82,-0.06 c 0,0.06 0,0.15 0,0.24 0,2.3 -0.1,4.59 -0.07,6.89 a 17.57,17.57 0 0 0 1.34,6.31 1.67,1.67 0 0 1 0.17,1.06 c -0.17,0.78 0.25,1.35 1.21,1.79 0,1.63 0,3.29 -0.07,5 h 2.31 l 0.05,17.38 c 0,0.75 -0.24,7.32 -5.62,7.32 -7.21,0 -28.54,-0.32 -31.47,-0.37 v -50.22 a 25.31,25.31 0 0 0 -25.3,-25.31 h -28.2 v -27.54 c -0.06,-2.73 -2.17,-6.8 -7.72,-6.8 h -5.75 c 0,-1 0,-1.82 0,-2.08 l -5,-0.05 c 0,-0.1 0,-0.2 0,-0.31 a 1.53,1.53 0 0 0 -1.9,-1.29 1,1 0 0 1 -0.78,-0.1 15.67,15.67 0 0 0 -6.69,-1.76 c -2.16,0 -4.31,-0.05 -6.47,-0.08 h -0.35 c 0,4.74 -0.11,9.45 -0.16,14.18 h 0.24 c 2.3,0 4.59,0.09 6.89,0.07 a 17.57,17.57 0 0 0 6.31,-1.34 1.6,1.6 0 0 1 1.06,-0.17 c 0.78,0.17 1.35,-0.25 1.79,-1.21 l 5,0.06 v -1.47 h 5.78 c 2.77,0 3.2,1.67 3.25,2.42 v 27.44 H 419.72 a 25.31,25.31 0 0 0 -25.31,25.31 v 60.3 c -1.59,0 -3.61,0 -6,0.08 -2.65,0 -4.62,-0.59 -5.86,-1.86 a 6.44,6.44 0 0 1 -1.62,-4.26 v -16.3 c 0,-11.12 -2,-13.11 -9.6,-19 -3.5,-2.7 -11.56,-8 -17.26,-11.78 0.5,-0.66 0.89,-1.17 1,-1.34 l -3.95,-3 0.16,-0.26 a 1.53,1.53 0 0 0 -0.75,-2.17 0.92,0.92 0 0 1 -0.56,-0.55 15.8,15.8 0 0 0 -4.33,-5.4 c -1.71,-1.32 -3.43,-2.62 -5.14,-3.92 l -0.29,-0.21 -8.59,11.29 0.19,0.16 c 1.82,1.39 3.62,2.81 5.48,4.16 a 17.6,17.6 0 0 0 5.87,2.69 1.75,1.75 0 0 1 0.95,0.49 c 0.52,0.61 1.22,0.61 2.15,0.1 l 4,3 1.11,-1.49 c 5.66,3.7 13.82,9.12 17.22,11.74 6.81,5.24 7.85,6 7.85,15.42 v 16.14 a 11,11 0 0 0 2.84,7.49 c 2.08,2.16 5.06,3.26 8.86,3.26 h 0.33 c 2.35,0 4.35,-0.07 5.92,-0.08 v 23.82 c -11.91,0 -34.76,0 -44,0 0,-0.93 0,-1.65 0,-1.89 h -5 c 0,-0.1 0,-0.2 0,-0.31 a 1.52,1.52 0 0 0 -1.91,-1.27 1,1 0 0 1 -0.78,-0.11 15.69,15.69 0 0 0 -6.71,-1.7 c -2.15,0 -4.31,0 -6.46,0 h -0.35 c 0,4.74 0,9.46 -0.07,14.19 h 0.25 c 2.29,0 4.59,0.06 6.88,0 a 17.37,17.37 0 0 0 6.31,-1.39 1.63,1.63 0 0 1 1.05,-0.17 c 0.78,0.16 1.35,-0.26 1.78,-1.22 h 5 c 0,-0.22 0,-0.85 0,-1.67 9.25,0 32.1,-0.06 44,0 V 1792 c -7.06,0 -11.16,-0.13 -13.32,-0.22 v -37.55 c 0,-3.67 -2.24,-8.27 -6.51,-10 -1.64,-0.65 -5.28,-0.94 -9.06,-1.07 0,-0.9 0,-1.61 0,-1.85 h -5 c 0,-0.1 0,-0.2 0,-0.31 a 1.54,1.54 0 0 0 -1.9,-1.29 1,1 0 0 1 -0.78,-0.1 15.67,15.67 0 0 0 -6.7,-1.76 c -2.15,0 -4.3,0 -6.46,-0.08 h -0.35 c -0.05,4.74 -0.11,9.45 -0.16,14.18 h 0.24 c 2.3,0 4.59,0.09 6.89,0.07 a 17.61,17.61 0 0 0 6.31,-1.34 1.6,1.6 0 0 1 1.06,-0.17 c 0.78,0.17 1.34,-0.25 1.78,-1.21 l 5,0.06 v -1.7 c 3.48,0.11 6.42,0.34 7.45,0.75 2.68,1.06 3.68,4.12 3.68,5.8 v 81.6 a 4.53,4.53 0 0 1 -1.25,3.49 5.9,5.9 0 0 1 -3.36,1.37 c 0,-0.82 0,-1.45 0,-1.67 h -5 c 0,-0.1 0,-0.21 0,-0.31 a 1.53,1.53 0 0 0 -1.9,-1.29 1,1 0 0 1 -0.78,-0.11 15.8,15.8 0 0 0 -6.69,-1.75 c -2.16,0 -4.31,-0.06 -6.47,-0.08 h -0.35 c -0.05,4.74 -0.11,9.45 -0.16,14.18 h 0.24 c 2.3,0 4.59,0.1 6.89,0.07 a 17.36,17.36 0 0 0 6.31,-1.34 1.67,1.67 0 0 1 1.06,-0.17 c 0.78,0.17 1.35,-0.24 1.79,-1.2 l 5,0.06 c 0,-0.23 0,-1 0,-1.86 a 10.58,10.58 0 0 0 6.42,-2.59 8.86,8.86 0 0 0 2.68,-6.77 v -39.57 c 2.28,0.09 6.4,0.2 13.32,0.21 v 79.39 a 25.08,25.08 0 0 0 0.6,5.45 h -2.33 c -9.79,-0.08 -19,-0.15 -25.37,-0.1 -8.55,0.08 -10.86,5.39 -10.89,8.21 v 3.93 h -1.65 c 0,1.68 0,3.32 0,5 h -0.31 a 1.53,1.53 0 0 0 -1.29,1.9 1,1 0 0 1 -0.11,0.78 15.81,15.81 0 0 0 -1.75,6.7 c 0,2.15 -0.05,4.3 -0.08,6.46 0,0.12 0,0.25 0,0.35 l 14.18,0.16 a 1.54,1.54 0 0 0 0,-0.24 c 0,-2.3 0.09,-4.59 0.07,-6.88 a 17.63,17.63 0 0 0 -1.35,-6.32 1.74,1.74 0 0 1 -0.17,-1.06 c 0.18,-0.78 -0.24,-1.34 -1.2,-1.78 0,-1.64 0,-3.3 0.06,-5 h -1.91 v -3.94 c 0,-0.15 0.11,-3.7 6.46,-3.76 6.35,-0.06 15.52,0 25.29,0.1 2,0 3.13,0 3.81,0 a 25.3,25.3 0 0 0 23.27,15.35 h 255.91 c 0,8.14 0,22.58 0,30.32 h -1.93 c 0,1.68 0,3.31 0,5 h -0.31 a 1.53,1.53 0 0 0 -1.27,1.91 1,1 0 0 1 -0.11,0.78 15.83,15.83 0 0 0 -1.7,6.71 c 0,2.15 0,4.31 0,6.46 0,0.13 0,0.25 0,0.36 l 14.19,0.06 c 0,-0.06 0,-0.16 0,-0.25 0,-2.29 0.06,-4.59 0,-6.88 a 17.57,17.57 0 0 0 -1.38,-6.31 1.57,1.57 0 0 1 -0.18,-1 c 0.17,-0.78 -0.25,-1.35 -1.22,-1.78 0,-1.64 0,-3.29 0,-5 H 680 c 0,-7.73 0,-22.17 0,-30.31 h 54 c -0.07,13 -0.07,30.48 0,48.84 0,7.42 3.84,15.36 14.41,15.36 7.09,0 22.36,0.19 31.15,0.31 0,0.76 0,1.34 0,1.55 h 5 v 0.31 a 1.53,1.53 0 0 0 1.9,1.29 1,1 0 0 1 0.78,0.11 15.81,15.81 0 0 0 6.7,1.75 c 2.15,0 4.31,0 6.46,0.08 h 0.35 c 0.06,-4.74 0.11,-9.45 0.17,-14.18 h -0.25 c -2.29,0 -4.59,-0.09 -6.88,-0.07 a 17.62,17.62 0 0 0 -6.32,1.34 1.57,1.57 0 0 1 -1.05,0.17 c -0.78,-0.17 -1.35,0.25 -1.79,1.21 l -5,-0.06 c 0,0.24 0,1 0,2 -8.81,-0.12 -24.08,-0.31 -31.18,-0.31 -8.92,0 -9.92,-7.63 -9.93,-10.92 -0.09,-18.34 -0.09,-35.79 0,-48.81 h 151.67 a 25.3,25.3 0 0 0 25.3,-25.3 v -29.43 c 2.09,0.06 5.18,0.13 11,0.19 0,0.78 0,1.39 0,1.6 l 5,0.06 c 0,0.09 0,0.2 0,0.3 a 1.53,1.53 0 0 0 1.9,1.29 1,1 0 0 1 0.78,0.11 15.8,15.8 0 0 0 6.64,1.68 z m -31.43,18.17 a 25.3,25.3 0 0 1 -25.3,25.3 h -145.56 -4.47 v 0 H 680 675.53 v 0 h -249.7 a 25.31,25.31 0 0 1 -25.31,-25.3 v -367.72 a 25.31,25.31 0 0 1 25.31,-25.3 h 458.25 a 25.3,25.3 0 0 1 25.3,25.3 z"
       class="cls-49"
       inkscape:connector-curvature="0"
       style="opacity:0.3;fill:#ffffff" />
    <path
       id="path28284"
       d="m 795.2,1576.75 a 7.29,7.29 0 1 0 -10.3,0.27 7.28,7.28 0 0 0 10.3,-0.27 z"
       class="cls-49"
       inkscape:connector-curvature="0"
       style="opacity:0.3;fill:#ffffff" />
    <path
       id="path28286"
       d="m 801.37,1593.5 a 4.79,4.79 0 0 0 6.31,0.25 l 0.14,-0.11 a 25.2,25.2 0 0 0 2.61,-2.44 28.32,28.32 0 0 0 -1,-40 4.8069767,4.8069767 0 1 0 -6.59,7 18.72,18.72 0 0 1 0.69,26.44 13.34,13.34 0 0 1 -1.67,1.56 l -0.16,0.13 a 4.77,4.77 0 0 0 -0.28,7.2 z"
       class="cls-49"
       inkscape:connector-curvature="0"
       style="opacity:0.3;fill:#ffffff" />
    <path
       id="path28288"
       d="m 821,1601.26 c -0.63,0.66 -0.78,0.8 -1.21,1.2 l -0.73,0.67 a 4.81,4.81 0 0 0 -0.2,6.78 l 0.19,0.19 a 4.81,4.81 0 0 0 6.59,0 c 0.27,-0.27 0.48,-0.46 0.65,-0.62 0.55,-0.5 0.85,-0.78 1.66,-1.64 a 52.53,52.53 0 0 0 -2,-74.18 4.79,4.79 0 1 0 -6.59,6.95 43,43 0 0 1 1.64,60.65 z"
       class="cls-49"
       inkscape:connector-curvature="0"
       style="opacity:0.3;fill:#ffffff" />
    <path
       id="path28290"
       d="m 839.52,1618.8 c -0.85,0.9 -1.24,1.31 -2,2 a 4.79,4.79 0 0 0 -0.16,6.78 l 0.17,0.16 a 4.8,4.8 0 0 0 6.61,0 c 1,-0.93 1.5,-1.49 2.35,-2.38 a 78,78 0 0 0 -2.89,-110.22 4.8104054,4.8104054 0 0 0 -6.6,7 68.44,68.44 0 0 1 2.52,96.66 z"
       class="cls-49"
       inkscape:connector-curvature="0"
       style="opacity:0.3;fill:#ffffff" />
    <path
       id="path28292"
       d="m 690.13,1718 c -1.7,-6.41 -7.89,-10.93 -14.88,-10.93 v 0 a 15.59,15.59 0 0 0 -15.58,15.58 v 134.18 h 29.47 a 146.13,146.13 0 0 1 4.05,-20.07 47,47 0 0 1 3.4,-9.19 36.45,36.45 0 0 1 -13.43,-11.57 c -5.29,-7.43 -7,-17.18 -7,-17.18 h 20.41 v -12.59 h 10 c 0,0 -6.42,-19.1 -10,-35.23 -3.04,-13.6 -5.64,-30 -6.44,-33 z m -12,36.5 a 6.85,6.85 0 1 1 6.85,-6.85 6.85,6.85 0 0 1 -6.89,6.85 z"
       class="cls-49"
       inkscape:connector-curvature="0"
       style="opacity:0.3;fill:#ffffff" />
    <path
       id="path28294"
       d="m 752.89,1707.07 v 0 c -7,0 -13.18,4.52 -14.88,10.93 -0.8,3 -3.4,19.4 -6.46,33 -3.62,16.13 -10,35.23 -10,35.23 h 10 v 12.59 H 752 c 0,0 -1.69,9.75 -7,17.18 a 36.45,36.45 0 0 1 -13.43,11.57 47,47 0 0 1 3.4,9.19 146.13,146.13 0 0 1 4,20.07 h 29.47 v -134.18 a 15.59,15.59 0 0 0 -15.55,-15.58 z M 750,1754.5 a 6.85,6.85 0 1 1 6.85,-6.85 6.85,6.85 0 0 1 -6.85,6.85 z"
       class="cls-49"
       inkscape:connector-curvature="0"
       style="opacity:0.3;fill:#ffffff" />
    <path
       id="path28296"
       d="m 814.48,1796.7 a 4.67,4.67 0 0 1 -0.42,-5.18 37.81,37.81 0 0 1 3.6,-4.22 l 55.71,-53.92 h -41.89 c -13,12.45 -28.31,27.25 -36.16,35.19 -4.18,4.23 -11.84,13 -12,25.15 v 0 0.06 0 c 0.16,12.15 6.82,18.89 12.59,25.63 2.13,2.48 21.31,21 38.38,37.42 h 41.85 l -57.87,-56 c -1.08,-1.2 -2.19,-2.42 -3.79,-4.13 z"
       class="cls-49"
       inkscape:connector-curvature="0"
       style="opacity:0.3;fill:#ffffff" />
    <rect
       id="rect28298"
       rx="6.2199998"
       height="28.92"
       width="28.92"
       y="1560.21"
       x="609.83002"
       class="cls-49"
       style="opacity:0.3;fill:#ffffff" />
    <path
       id="path28300"
       d="m 632.48,1597.27 h -16.39 a 6.26,6.26 0 0 0 -6.26,6.26 v 44.26 c 0,12.7 -12.12,12.85 -12.24,12.85 h -45.15 a 16.78,16.78 0 0 1 -15.29,-9.46 c -1.18,-2.54 -2.45,-5.23 -3.78,-8 -3.65,-7.75 -7.7,-16.33 -11.45,-25.08 H 540 c 30.11,0 49.56,-20.58 49.56,-52.45 0,-20.1 -8.29,-32.15 -15.24,-38.71 -8.9,-8.4 -21.09,-13 -34.32,-13 h -94.87 v 219.52 h -14.65 a 6.27,6.27 0 0 0 -6.27,6.27 V 1756 a 6.27,6.27 0 0 0 6.27,6.27 h 14.65 v 55 h 0.08 v 2.3 c 0,12.57 3,23.63 12.74,30.44 9.54,6.67 20.81,6.83 23.65,6.83 h 41.54 c -20.4,-5.72 -22.79,-28.94 -22.79,-28.94 h -18.68 c -3.87,0 -7.53,-3.26 -7.53,-8.32 v -30.81 h -0.08 v -26.47 h 127.11 c 6.33,0 8.66,4.37 8.66,9.27 v 10.66 H 545.7 c -14.73,0 -35.47,11.57 -35.47,37.28 0,12.31 4.9,22.85 13.79,29.68 a 36.94,36.94 0 0 0 21.65,7.64 h 93.08 v -86 c 0,-12.57 -4.06,-22.9 -13.6,-30 -10,-7.42 -17.45,-7.42 -23.74,-7.42 H 474.06 V 1542.79 H 540 c 6.21,0 20.64,2.23 20.64,22.82 0,16.05 -6.56,23.53 -20.64,23.53 h -27.11 c -6.33,0 -14.14,1.81 -19.13,8.61 -3.35,4.56 -6.3,12.55 -1.35,24.71 4.75,11.68 10.09,23 14.8,33 1.3,2.77 2.55,5.41 3.7,7.9 a 45.87,45.87 0 0 0 41.5,26.2 h 45.18 c 20.23,0 41.16,-15.62 41.16,-41.77 v -44.26 a 6.27,6.27 0 0 0 -6.27,-6.26 z m -22.65,230.63 h -64.1 a 6.55,6.55 0 0 1 -4.17,-1.71 c -0.66,-0.52 -2.41,-1.91 -2.41,-6.68 0,-4.77 1.75,-6.1 2.41,-6.64 a 7.05,7.05 0 0 1 4.28,-1.71 h 64 z"
       class="cls-49"
       inkscape:connector-curvature="0"
       style="opacity:0.3;fill:#ffffff" />
    <path
       id="path28302"
       d="m 727.31,1560.21 h -26.48 c -20.23,0 -41.16,15.62 -41.16,41.76 v 81.32 a 6.27,6.27 0 0 0 6.27,6.27 h 16.39 a 6.27,6.27 0 0 0 6.26,-6.27 V 1602 c 0,-12.69 12.12,-12.84 12.24,-12.84 h 26.48 c 0.12,0 12.24,0.14 12.24,12.83 v 81.32 a 6.27,6.27 0 0 0 6.26,6.27 h 16.39 a 6.27,6.27 0 0 0 6.27,-6.27 V 1602 c 0,-26.17 -20.93,-41.79 -41.16,-41.79 z"
       class="cls-49"
       inkscape:connector-curvature="0"
       style="opacity:0.3;fill:#ffffff" />
  </g>
</svg>
