<?xml version="1.0" encoding="UTF-8" standalone="no"?>
<!-- Created with Inkscape (http://www.inkscape.org/) -->

<svg
   xmlns:dc="http://purl.org/dc/elements/1.1/"
   xmlns:cc="http://creativecommons.org/ns#"
   xmlns:rdf="http://www.w3.org/1999/02/22-rdf-syntax-ns#"
   xmlns:svg="http://www.w3.org/2000/svg"
   xmlns="http://www.w3.org/2000/svg"
   xmlns:sodipodi="http://sodipodi.sourceforge.net/DTD/sodipodi-0.dtd"
   xmlns:inkscape="http://www.inkscape.org/namespaces/inkscape"
   version="1.1"
   id="svg20579"
   width="106"
   height="88"
   inkscape:version="0.92.4 (5da689c313, 2019-01-14)"
   sodipodi:docname="hamburguer.svg">
  <metadata
     id="metadata20585">
    <rdf:RDF>
      <cc:Work
         rdf:about="">
        <dc:format>image/svg+xml</dc:format>
        <dc:type
           rdf:resource="http://purl.org/dc/dcmitype/StillImage" />
        <dc:title></dc:title>
      </cc:Work>
    </rdf:RDF>
  </metadata>
  <defs
     id="defs20583" />
  <sodipodi:namedview
     pagecolor="#ffffff"
     bordercolor="#666666"
     borderopacity="1"
     objecttolerance="10"
     gridtolerance="10"
     guidetolerance="10"
     inkscape:pageopacity="0"
     inkscape:pageshadow="2"
     inkscape:window-width="1920"
     inkscape:window-height="1001"
     id="namedview20581"
     showgrid="false"
     inkscape:zoom="2.36"
     inkscape:cx="51.059322"
     inkscape:cy="50"
     inkscape:window-x="-9"
     inkscape:window-y="-9"
     inkscape:window-maximized="1"
     inkscape:current-layer="svg20579" />
  <path
     id="path1896"
     d="m 53.000234,0.6621837 h 43.17 a 9,9 0 0 1 4.860006,1.32 8.55,8.55 0 0 1 -3.000006,15.6600003 11.21,11.21 0 0 1 -1.92,0.14 q -22.17,0 -44.33,0 H 9.7802333 a 8.61,8.61 0 0 1 -4.66,-1.2 8.31,8.31 0 0 1 -4.18999991,-7.72 8.48,8.48 0 0 1 7.10999991,-8.0700003 11.19,11.19 0 0 1 1.83,-0.13 z"
     class="cls-1"
     inkscape:connector-curvature="0"
     style="isolation:isolate;fill:#ffffff" />
  <path
     id="path1898"
     d="m 52.930234,70.082184 h 43.26 a 8.8,8.8 0 0 1 5.190006,1.57 8.55,8.55 0 0 1 -3.490006,15.41 11.19,11.19 0 0 1 -1.83,0.14 H 9.7602333 a 8.75,8.75 0 0 1 -4.23,-1 8.3,8.3 0 0 1 -4.58999991,-6.7 8.49,8.49 0 0 1 7.21999991,-9.36 11.34,11.34 0 0 1 1.65,-0.1 z"
     class="cls-1"
     inkscape:connector-curvature="0"
     style="isolation:isolate;fill:#ffffff" />
  <path
     id="path1900"
     d="m 53.000234,35.382184 h 43.17 a 9.14,9.14 0 0 1 4.119996,0.9 8.56,8.56 0 0 1 -2.169996,16.06 11.28,11.28 0 0 1 -2,0.16 H 9.8702333 a 8.76,8.76 0 0 1 -4.52,-1.08 8.31,8.31 0 0 1 -4.40999991,-7.81 8.48,8.48 0 0 1 7.15999991,-8.11 11.88,11.88 0 0 1 1.79,-0.12 z"
     class="cls-1"
     inkscape:connector-curvature="0"
     style="isolation:isolate;fill:#ffffff" />
</svg>
