<svg xmlns="http://www.w3.org/2000/svg" viewBox="0 0 656.93 151.82"><defs><style>.cls-1{opacity:0.3;}.cls-2{fill:#c99f4f;}</style></defs><g id="Capa_2" data-name="Capa 2"><g id="Capa_1-2" data-name="Capa 1"><g class="cls-1"><path class="cls-2" d="M254.24,48l-4.6,4.61a2.82,2.82,0,0,1-4.2,0L240.84,48a1.23,1.23,0,0,1-.2-.36L227.5,60.76h40.18l-13.17-13.2A2.2,2.2,0,0,1,254.24,48Z"/><path class="cls-2" d="M226.29,33.7V59.64l13-13Z"/><path class="cls-2" d="M268.79,59.57V33.68l-13,12.93Z"/><path class="cls-2" d="M231.62,21.77h31.9V36.61l4.25-4.2a2.32,2.32,0,0,0-.21-.25c-1.12-1.12-2.26-2.24-3.36-3.38a1.15,1.15,0,0,1-.31-.74c0-1.79,0-3.57,0-5.36v-1.3h-.56c-2,0-4,0-6,0a1.15,1.15,0,0,1-.89-.37l-7.66-7.67a1.47,1.47,0,0,0-2.41,0q-3.83,3.81-7.63,7.64a1.2,1.2,0,0,1-.93.39c-2,0-4,0-6,0h-.55v.69c0,2,0,3.95,0,5.93a1.07,1.07,0,0,1-.36.84c-.86.83-1.7,1.7-2.56,2.54-.34.34-.71.65-1,.89,1.48,1.5,2.88,2.89,4.3,4.32Z"/><path class="cls-2" d="M251.05,30.13c0-.29,0-.44-.29-.49a14.58,14.58,0,0,0-1.84-.36,4.73,4.73,0,0,0-5.11,4.9c.06,2.14,1.89,3.26,3.72,2.23a9.09,9.09,0,0,0,1.27-1.08,1.52,1.52,0,0,1,.09.25,1.5,1.5,0,0,0,1.34,1.15,3.32,3.32,0,0,0,2.29-.53,4.5,4.5,0,0,0,1.92-3.31,5.83,5.83,0,0,0-4.25-6.75,7.64,7.64,0,0,0-9.61,7.79,6.18,6.18,0,0,0,2.56,5.1,6.44,6.44,0,0,0,4.51,1.18,20,20,0,0,0,2.73-.55.53.53,0,0,0,.3-.41,3.41,3.41,0,0,0-.24-.81c-.88.17-1.72.4-2.57.49a5.22,5.22,0,0,1-3.85-1,5.36,5.36,0,0,1-1.86-4.74A6,6,0,0,1,249,27.22a4.79,4.79,0,0,1,3.31,7.34,2.25,2.25,0,0,1-.86.73c-.59.28-1,0-1-.63a6.38,6.38,0,0,1,.1-1.15C250.67,32.38,250.84,31.25,251.05,30.13Zm-2.57,3.37a3.29,3.29,0,0,1-.89,1.32,1,1,0,0,1-1.62-.41A2.84,2.84,0,0,1,248,31a6.47,6.47,0,0,1,1,0A20.76,20.76,0,0,1,248.48,33.5Z"/><path class="cls-2" d="M207.6,23.73l5.08,2.63a37,37,0,0,0-2.49,13.38A37.39,37.39,0,0,0,243.5,76.87c0,1.71,0,3.42-.06,5.11l8.13.09c0-1.72,0-3.46.06-5.2a37.35,37.35,0,1,0-35.22-57.74l-5.06-2.62Zm37.1,54V77c.53,0,1.05.07,1.58.09v.69Zm5.51.08-1.62,0,0-.73c.54,0,1.08,0,1.61-.08ZM247.54,5.39a34.36,34.36,0,1,1-34.35,34.35A34.4,34.4,0,0,1,247.54,5.39Zm-33,14.15c.31.17.67.35,1,.52l-.74,1.4-1-.51ZM212.76,23l1,.54c-.24.45-.49.93-.74,1.43l-1-.53C212.26,24,212.51,23.47,212.76,23Z"/><path class="cls-2" d="M302.12,90.33c-1.09,1.42-2.22,2.83-3.28,4.27a13.62,13.62,0,0,0-2.14,4.58,1.32,1.32,0,0,1-.4.74c-.47.41-.48,1-.09,1.69l-2.4,3.09.6.45-6.72,8.14a14.45,14.45,0,0,1-10.93,4.84h-27V99.65h.47c0-1.31,0-2.59,0-3.88l.24,0a1.21,1.21,0,0,0,1-1.49.76.76,0,0,1,.08-.61A12.31,12.31,0,0,0,253,88.4c0-1.68,0-3.37.06-5.05,0-.1,0-.2,0-.28l-11.1-.13a1.09,1.09,0,0,0,0,.19c0,1.8-.08,3.6-.06,5.39a13.85,13.85,0,0,0,1,5,1.29,1.29,0,0,1,.14.83c-.14.6.19,1,.94,1.39,0,1.28,0,2.58-.05,3.92h.82v18.51H209.15v-7.94c0-8.62-1.38-10.5-7.81-15.44-2.83-2.18-9.42-6.55-13.9-9.48l.16-.2-3.09-2.35.12-.21a1.21,1.21,0,0,0-.59-1.7.72.72,0,0,1-.44-.43,12.45,12.45,0,0,0-3.39-4.23c-1.33-1-2.68-2-4-3.07l-.23-.16-6.72,8.84a.94.94,0,0,0,.14.12c1.43,1.09,2.84,2.21,4.29,3.26a13.74,13.74,0,0,0,4.6,2.11,1.25,1.25,0,0,1,.74.39c.41.47,1,.47,1.69.07l3.11,2.38c.09-.11.31-.42.61-.82,4.43,2.89,11.14,7.33,13.87,9.44,5.31,4.08,5.86,4.51,5.86,11.48v8l-48.58,0c0-.36,0-.62,0-.74H151.7l0-.24a1.2,1.2,0,0,0-1.49-1,.75.75,0,0,1-.61-.08,12.35,12.35,0,0,0-5.26-1.34c-1.68,0-3.37,0-5.06,0H139c0,3.71,0,7.4,0,11.1h.19c1.8,0,3.59,0,5.39,0a13.84,13.84,0,0,0,4.94-1.09,1.28,1.28,0,0,1,.82-.14c.61.13,1-.2,1.39-1l3.92,0v-.55l48.57,0v7.66a9.13,9.13,0,0,0,2.37,6.3c1.81,1.92,4.42,2.89,7.76,2.89h69.28c2.3-.14,8.87.11,11.51,3,2,2.24,4.72,5.85,6.85,8.8h6.13a148.36,148.36,0,0,0-9.27-12.15c-4.62-5.12-14-4.77-15.46-4.68H249.77V123.12h27a19.54,19.54,0,0,0,14.83-6.71l6.79-8.23c.2.16.35.28.43.33l2.37-3.07.21.13a1.21,1.21,0,0,0,1.7-.58.75.75,0,0,1,.43-.44,12.35,12.35,0,0,0,4.26-3.36c1-1.32,2.06-2.67,3.09-4L311,97l-8.79-6.79ZM244.77,135H214.28a5.53,5.53,0,0,1-4.09-1.3,4.15,4.15,0,0,1-1-2.7v-7.86h35.62Z"/><path class="cls-2" d="M415.48,145.9c0,2,0,3.95,0,5.92h8.13c0-2,0-4,0-5.95Zm3,5.36h-1.61c0-.38,0-.77,0-1.14h1.63C418.52,150.48,418.52,150.88,418.52,151.26Zm2.33,0c0-.37,0-.76,0-1.13h1.58c0,.35,0,.75,0,1.13Z"/><path class="cls-2" d="M341.75,150.46l.48,1.36h8.63c-.48-1.36-1-2.73-1.44-4.07Z"/><path class="cls-2" d="M376.92,151.82h8.13c0-2.2,0-4.41,0-6.58l-8.13,0C376.93,147.4,376.93,149.62,376.92,151.82Zm6.93-2.34v1.13h-1.58v-1.13Zm-5.52,0H380c0,.35,0,.75,0,1.13h-1.61Z"/><path class="cls-2" d="M307.68,85.59,304,90.32l6.43,5,3.64-4.71A39.56,39.56,0,0,0,374.39,61l5.55.06c0-2.7.07-5.43.1-8.13l-5.66-.06a39.58,39.58,0,1,0-66.7,32.69Zm1.16,3.08-1.26-1,.69-.9,1.25,1Zm3.1,2.42-1.28-1,.7-.89,1.28,1ZM374.65,54.3l1.14,0c0,.54,0,1.08,0,1.62l-1.14,0C374.64,55.4,374.64,54.86,374.65,54.3Zm1.08,4c0,.53,0,1.07,0,1.58h-1.13c0-.5,0-1,0-1.57ZM335,20.41A36.58,36.58,0,1,1,298.42,57,36.62,36.62,0,0,1,335,20.41Z"/><path class="cls-2" d="M330.32,51.08l1.59,1.41a13.1,13.1,0,0,1,17.41,0l1.61-1.41C345.13,45.45,335.41,46,330.32,51.08Z"/><path class="cls-2" d="M333.35,53.91l1.6,1.43a8.66,8.66,0,0,1,11.42,0l1.6-1.42A10.78,10.78,0,0,0,333.35,53.91Z"/><path class="cls-2" d="M336.21,56.69l1.58,1.41a4.46,4.46,0,0,1,5.76,0l1.59-1.4A6.52,6.52,0,0,0,336.21,56.69Z"/><path class="cls-2" d="M340.65,58.55a1.72,1.72,0,1,0,0,3.43,1.73,1.73,0,0,0,1.77-1.75A1.75,1.75,0,0,0,340.65,58.55Z"/><path class="cls-2" d="M321.67,67.7h14v3.16H330c-.71,0-.71,0-.88.66s-.38,1.53-.57,2.3H352.7c-.27-.9-.54-1.76-.79-2.63a.41.41,0,0,0-.47-.34h-5.88V67.7h.52c4.53,0,9.05,0,13.57,0a1.67,1.67,0,0,0,1.62-1,1.63,1.63,0,0,1,.11-.17V42.81a1.94,1.94,0,0,0-2.06-1.21q-18.82,0-37.66,0a1.78,1.78,0,0,0-1.89,1.86c0,7.45,0,14.9,0,22.34A1.7,1.7,0,0,0,321.67,67.7Zm.16-23.65h37.5V65.23h-37.5Z"/><path class="cls-2" d="M316.87,73.69a1.33,1.33,0,0,0,1.47-1.48V43a1.32,1.32,0,0,0-1.45-1.45h-6.78A1.3,1.3,0,0,0,308.63,43V72.25a1.31,1.31,0,0,0,1.45,1.44Zm-5.16-12.95c-.34,0-.52-.3-.52-.63s0-.69.52-.69.53.42.53.69S312.05,60.74,311.71,60.74Zm4.7.24a.64.64,0,0,1-.68-.67.66.66,0,1,1,1.32,0A.69.69,0,0,1,316.41,61Zm-6.75-14.87a.26.26,0,0,1,.26-.26h7.17a.25.25,0,0,1,.26.26v.68a.25.25,0,0,1-.26.26h-7.17a.26.26,0,0,1-.26-.26Zm0,1.83a.26.26,0,0,1,.26-.26h7.17a.26.26,0,0,1,.26.26v.69a.26.26,0,0,1-.26.26h-7.17a.26.26,0,0,1-.26-.26Zm0,1.84a.26.26,0,0,1,.26-.26h7.17a.25.25,0,0,1,.26.26v.68a.26.26,0,0,1-.26.26h-7.17a.26.26,0,0,1-.26-.26Zm0,10.36c0-.33.08-.67.49-.67s.43.4.43.67-.12.6-.45.6S309.66,60.46,309.66,60.14Z"/><path class="cls-2" d="M113.27,113.18l1.89-1.68a12.76,12.76,0,0,0-17.33,0l1.89,1.69A10.27,10.27,0,0,1,113.27,113.18Z"/><path class="cls-2" d="M101.23,114.8l1.86,1.66a5.32,5.32,0,0,1,6.84,0l1.88-1.65A7.7,7.7,0,0,0,101.23,114.8Z"/><path class="cls-2" d="M106.48,117a2.1,2.1,0,0,0-2.13,2.06,2.08,2.08,0,0,0,2.14,2,2,2,0,0,0,2.1-2.07A2.07,2.07,0,0,0,106.48,117Z"/><path class="cls-2" d="M131.25,101.55A2,2,0,0,0,129,99.3c-5.33,0-39.66,0-45,0a2,2,0,0,0-1.93,1.2,1.2,1.2,0,0,1-.13.21v10.68l-3.87,0a2,2,0,0,0,0-.24,1.2,1.2,0,0,0-1.5-1,.72.72,0,0,1-.61-.07,12.4,12.4,0,0,0-5.27-1.28c-1.69,0-3.38,0-5.06,0h-.28c0,3.71,0,7.41.08,11.11h.19c1.8,0,3.59,0,5.39,0a13.7,13.7,0,0,0,4.92-1.14,1.38,1.38,0,0,1,.83-.15c.61.13,1-.21,1.38-1l3.83,0v11.14a2.3,2.3,0,0,0,2.45,1.43q22.32,0,44.65,0a2.1,2.1,0,0,0,2.23-2.21v-3.7l6.69,0c0-2.71,0-5.44,0-8.14l-6.73,0Q131.26,108.87,131.25,101.55Zm-2.43,25.79H84.37V102.23h44.45Zm3.79-9.74h1.14c0,.54,0,1.09,0,1.63l-1.14,0C132.61,118.7,132.61,118.16,132.61,117.6Zm0,4h1.13c0,.54,0,1.07,0,1.59h-1.13C132.58,122.62,132.59,122.08,132.59,121.55Z"/><path class="cls-2" d="M554.5,151.82h8.13c0-1.92,0-3.85,0-5.75l-8.13,0C554.51,148,554.51,149.89,554.5,151.82Zm6.92-1.51v1.13l-1.57,0c0-.37,0-.76,0-1.12Zm-5.51-.05,1.62,0c0,.35,0,.75,0,1.13H555.9C555.9,151,555.91,150.63,555.91,150.26Z"/><path class="cls-2" d="M77.88,47.51a13.64,13.64,0,0,0,5-1,1.36,1.36,0,0,1,.83-.13c.6.14,1-.19,1.39-.94l3.92,0v-.6h1.92c.91,0,1.85,0,2.62,0a15.78,15.78,0,0,0,9.69-3.73c2.64-2.64,7.73-12.27,13.16-22.66a54.59,54.59,0,0,1,3.23-4.9c1.1-1.67,3.73-2.71,6.84-2.71,1.21,0,6.11-.06,12.31-.13,14-.16,37.59-.44,39.7-.29.64,0,1.23.08,1.78.11,3.79.23,5.58.35,12.53,3.65-.12.22-.2.39-.25.46L196,16.41a1.55,1.55,0,0,0-.08.23,1.2,1.2,0,0,0,.87,1.57.75.75,0,0,1,.51.35,12.25,12.25,0,0,0,4.06,3.58c1.49.79,3,1.56,4.49,2.34l.25.12,5.11-9.86-.16-.1c-1.6-.83-3.18-1.68-4.79-2.47a13.85,13.85,0,0,0-4.89-1.29,1.4,1.4,0,0,1-.8-.25c-.48-.4-1-.31-1.67.21L195.37,9l-.34.68c-7.62-3.63-10-3.92-14.51-4.19l-1.73-.11c-2.14-.15-20.19,0-40.11.28-6.19.07-11.07.13-12.25.13-4.92,0-8.93,1.8-11,4.95-1.06,1.6-2.25,3.19-3.24,4.91-5.25,9.14-10.24,19.6-12.51,21.87a11,11,0,0,1-6.31,2.27c-1.25,0-3.07,0-4.36,0,0-.33,0-.58,0-.69l-3.89,0c0-.08,0-.16,0-.24a1.2,1.2,0,0,0-1.49-1,.76.76,0,0,1-.61-.09,12.45,12.45,0,0,0-5.25-1.37c-1.68,0-3.37,0-5.05-.06h-.28q-.06,5.56-.13,11.11h.19C74.29,47.48,76.09,47.53,77.88,47.51Z"/><path class="cls-2" d="M64.34,110.37l-5.51,0a22.09,22.09,0,1,0-.14,8.13l5.71,0C64.38,115.8,64.36,113.07,64.34,110.37Zm-4.22,1.44v1.62h-1c0-.54-.06-1.07-.11-1.61ZM56,116.65a18.77,18.77,0,0,1-7.26,12.55A18.92,18.92,0,1,1,56,116.65Zm3,.68v-.82c0-.25,0-.5.06-.75l1.06,0c0,.53,0,1.07,0,1.58Z"/><path class="cls-2" d="M643.56,101.43a13.77,13.77,0,0,0-4.93,1.11,1.31,1.31,0,0,1-.83.14c-.61-.13-1,.2-1.39,1h-3.92c0,.12,0,.42,0,.82H615.25l0-16.52h.27c0-1.32,0-2.6,0-3.88l.24,0a1.21,1.21,0,0,0,1-1.49.76.76,0,0,1,.08-.61,12.31,12.31,0,0,0,1.38-5.24c0-1.69,0-3.37.06-5.06,0-.1,0-.2,0-.28l-11.1-.12a1,1,0,0,0,0,.19c0,1.8-.08,3.59-.06,5.39a13.75,13.75,0,0,0,1,4.94,1.24,1.24,0,0,1,.13.83c-.13.61.2,1,1,1.4,0,1.28,0,2.58,0,3.92h1l0,16.55H565.41c-5.62,0-9,3.66-9,9.79v5.09H545.92c-.94-.06-5.85-.21-9,2.71a8.1,8.1,0,0,0-2.55,6.07c0,3,0,4.2,0,5.11s0,1.44,0,3c-.06,2.9-.09,4.64-5.62,4.64l-59.24.07c0-.07,0-.13,0-.2V124.11h53.64a7.52,7.52,0,0,0,5.73-2.25,8.11,8.11,0,0,0,2-5.64v-.82h.63c0-1.32,0-2.6,0-3.89l.24,0a1.21,1.21,0,0,0,1-1.49.76.76,0,0,1,.08-.61,12.29,12.29,0,0,0,1.37-5.24c0-1.69,0-3.37.07-5.06,0-.1,0-.2,0-.28l-11.1-.12s0,.12,0,.19c0,1.79-.07,3.59-.05,5.39a13.79,13.79,0,0,0,1.05,4.94,1.24,1.24,0,0,1,.13.83c-.13.61.19,1,.95,1.4,0,1.28,0,2.58,0,3.92h.65v1a3.17,3.17,0,0,1-.67,2,2.79,2.79,0,0,1-2.07.65H469.49v-24a7.47,7.47,0,0,0-1.9-5.23c-1.62-1.75-4-2.64-7.13-2.64H447.7a1.81,1.81,0,0,1-1.94-2v-.49h.49c0-1.31,0-2.59,0-3.88l.24,0a1.21,1.21,0,0,0,1-1.49.76.76,0,0,1,.08-.61A12.19,12.19,0,0,0,449,73.49c0-1.68.05-3.37.07-5.06,0-.09,0-.19,0-.27L438,68a1.09,1.09,0,0,0,0,.19c0,1.8-.08,3.6-.06,5.39a13.85,13.85,0,0,0,1.05,5,1.21,1.21,0,0,1,.13.82c-.13.61.2,1.06.95,1.4,0,1.28,0,2.58-.05,3.92h.8v.52a6.79,6.79,0,0,0,6.9,7h12.8a4.9,4.9,0,0,1,3.41,1,2.43,2.43,0,0,1,.63,1.59v24.25H448.74V105.36a9.2,9.2,0,0,0-2.48-6.22,10.12,10.12,0,0,0-7.53-2.83c-6.67,0-15.71-.08-25.07-.1,0-14.23,0-33.68,0-35.48v-.1c0-1.5-.1-6.05-6.43-6.07-3,0-7.27,0-9.62,0,0-.12,0-.22,0-.27l-3.88,0,0-.24a1.21,1.21,0,0,0-1.49-1,.76.76,0,0,1-.61-.08,12.15,12.15,0,0,0-5.24-1.37c-1.69,0-3.37,0-5.06-.07H381c0,3.71-.08,7.4-.12,11.1h.19c1.8,0,3.59.08,5.39.06a13.75,13.75,0,0,0,4.94-1,1.24,1.24,0,0,1,.83-.13c.61.13,1.05-.19,1.4-.95l3.92,0v-1c2.32,0,6.63,0,9.63,0a3.46,3.46,0,0,1,1.38.19,6.74,6.74,0,0,1,.07,1v.11c0,1.75,0,21.47,0,35.38H388.59c-5.06,0-10.17,3.35-10.19,10.86,0,1.71,0,3.78,0,6-16.06,0-34,.1-38.33.1-3.53,0-5.27,1.45-6.1,2.67-1.87,2.75-.59,6.22-.47,6.54l4,11-.52.18c.44,1.24.86,2.45,1.29,3.67l-.21.1a1.19,1.19,0,0,0-.44,1.74.75.75,0,0,1,.13.61,12.46,12.46,0,0,0,.52,5.39c.55,1.6,1.12,3.18,1.69,4.77a2.39,2.39,0,0,0,.1.26l10.46-3.71-.05-.18c-.6-1.69-1.17-3.4-1.81-5.08a13.58,13.58,0,0,0-2.69-4.28,1.36,1.36,0,0,1-.41-.73c-.08-.62-.54-.92-1.36-1-.43-1.2-.86-2.43-1.31-3.69l-.68.25-4-11.05a2.87,2.87,0,0,1-.08-2c.15-.22.76-.48,2-.48,4.34,0,22.26,0,38.33-.1,0,4.07,0,7.81,0,9.62h-.29v3.88l-.24,0a1.2,1.2,0,0,0-1,1.49.78.78,0,0,1-.08.62,12.33,12.33,0,0,0-1.33,5.25c0,1.69,0,3.37,0,5.06,0,.1,0,.2,0,.28l11.11,0s0-.12,0-.19c0-1.8,0-3.6,0-5.39a13.59,13.59,0,0,0-1.09-4.94,1.28,1.28,0,0,1-.14-.82c.13-.61-.2-1.06-1-1.4,0-1.28,0-2.57,0-3.91h-1c0-1.81,0-5.56,0-9.63l22.7-.07c3-.13,7.55-2.13,7.55-7.09v-9.61c9.35,0,18.38.05,25,.1,4.67,0,5.05,3,5.05,4v13.81H425.9c-5.87,0-9,2.84-9,8.21v1h-.39c0,1.31,0,2.6,0,3.88l-.24,0a1.19,1.19,0,0,0-1,1.5.76.76,0,0,1-.08.61,12.37,12.37,0,0,0-1.29,5.27c0,1.69,0,3.37,0,5.06v.27l11.11,0s0-.12,0-.19c0-1.8,0-3.6,0-5.39a13.79,13.79,0,0,0-1.13-4.93,1.28,1.28,0,0,1-.14-.82c.12-.62-.21-1.05-1-1.39,0-1.28,0-2.58,0-3.92l-.9,0v-.94c0-1.72,0-3.21,4-3.21h17.84V136.7a9,9,0,0,0,2.55,6.66,10,10,0,0,0,6.64,2.61H463.6a9,9,0,0,1-1.9,3.18l-2.29,2.68H466a16.29,16.29,0,0,0,2.84-5.87l59.91-.07c10.44,0,10.56-6.69,10.62-9.54,0-1.67,0-2.27,0-3.18s0-2.09,0-5a3,3,0,0,1,.93-2.42c1.46-1.36,4.38-1.48,5.36-1.41h10.8c0,1.46,0,2.86,0,4.12h-.73c0,1.31,0,2.59,0,3.88l-.24,0a1.19,1.19,0,0,0-1,1.49.76.76,0,0,1-.08.61,12.35,12.35,0,0,0-1.34,5.26c0,1.68,0,3.37,0,5.06V145l11.11.05c0-.05,0-.12,0-.19,0-1.8.05-3.6,0-5.39a13.78,13.78,0,0,0-1.08-4.94,1.29,1.29,0,0,1-.14-.83c.13-.61-.2-1.05-1-1.39,0-1.28,0-2.58,0-3.92h-.56c0-1.26,0-2.66,0-4.12h45.18c6.81,0,8.64-6.52,8.65-10v-4.9h17.26c0,.22,0,.38,0,.47h3.89a1.94,1.94,0,0,0,0,.24,1.2,1.2,0,0,0,1.5,1,.76.76,0,0,1,.61.08,12.35,12.35,0,0,0,5.26,1.31c1.69,0,3.37,0,5.06,0h.28v-11.1H649C647.15,101.43,645.36,101.39,643.56,101.43Zm-234.91,4.12v5.27c0,1.78-2.18,2.05-2.74,2.09l-22.51.07c0-2.15,0-4.21,0-5.92,0-5.3,3.63-5.87,5.19-5.87h20.06ZM453,141a5.08,5.08,0,0,1-3.21-1.2,4.09,4.09,0,0,1-1-3.07V124.11H464.5v16.64c0,.07,0,.14,0,.21Zm157.3-26.64c0,.51-.17,5-3.65,5H561.44v-5.09c0-4.21,1.91-4.79,4-4.79h44.86Z"/><path class="cls-2" d="M656.93,102.93h-6.81v8.14h6.81Zm-1.44,6.73h-1.14V108l1.13,0Zm0-4h-1.12v-1.58h1.13C655.5,104.64,655.49,105.18,655.49,105.71Z"/><path class="cls-2" d="M66.05,45.89l5.29.06.09-8.13-5.38-.06a33.18,33.18,0,1,0,0,8.13Zm1.06-1.2h-.93c0-.52.08-1,.1-1.58h.84C67.12,43.64,67.11,44.18,67.11,44.69Zm.08-5.52,0,1.63-.88,0q0-.83-.09-1.62ZM3,41.84A30.16,30.16,0,1,1,33.15,72,30.19,30.19,0,0,1,3,41.84Z"/><path class="cls-2" d="M45.73,60.34A3.7,3.7,0,0,0,48.2,56.9c0-5.92,0-11.83,0-17.75a3.74,3.74,0,0,0-3.67-3.66c-.43,0-.86,0-1.34,0V30.58a10,10,0,0,0-19.91-1.87,13.35,13.35,0,0,0-.16,2c0,1.58,0,3.16,0,4.79-.37,0-.72,0-1.07,0a3.76,3.76,0,0,0-3.94,3.93c0,5.71,0,11.42,0,17.13a3.75,3.75,0,0,0,3.12,4l.09.06H45C45.24,60.5,45.49,60.43,45.73,60.34ZM35.17,48.15a.79.79,0,0,0-.36.75c0,1.15,0,2.3,0,3.44a1.63,1.63,0,0,1-1.66,1.55,1.67,1.67,0,0,1-1.64-1.54c0-.4,0-.81,0-1.21,0-.22,0-.45,0-.67,0-.55,0-1.09,0-1.64a.67.67,0,0,0-.32-.65,3.25,3.25,0,0,1-1.24-3.53,3.34,3.34,0,0,1,6.32-.38A3.26,3.26,0,0,1,35.17,48.15Zm-8.7-12.69v-1c0-1.32,0-2.64,0-3.95A6.68,6.68,0,0,1,39.73,29.3a17.7,17.7,0,0,1,.1,2.3c0,1.28,0,2.56,0,3.86Z"/><path class="cls-2" d="M172.85,52.62a28.2,28.2,0,1,0-7.92,24L169.35,80c1.64-2.15,3.3-4.32,4.93-6.47l-4.49-3.42A28,28,0,0,0,172.85,52.62Zm-6.14,23.82-.9-.68.39-.51c.21-.24.41-.47.6-.71l.87.64Zm2.45-5.07.91.7-1,1.28-.88-.68.29-.41Zm-4,.39a25.21,25.21,0,1,1,4.71-18.7A25.22,25.22,0,0,1,165.17,71.76Z"/><path class="cls-2" d="M162.88,57.46a1,1,0,0,1-.19-.46c0-1.09.1-2.2,0-3.29a17,17,0,0,0-8.78-13.53,17.31,17.31,0,0,0-20.92,3,17,17,0,0,0-4.86,13.72.67.67,0,0,1-.26.63,6.56,6.56,0,0,0-.77.89,2.33,2.33,0,0,0-.47,1.53c0,2.48,0,5,0,7.46a1,1,0,0,0,.05.42,3.75,3.75,0,0,0,2,2.11c.6.23,1.18.5,1.77.75l1,.42V55.89l-1.47.6A15.44,15.44,0,0,1,154.76,43a15.19,15.19,0,0,1,6,13.5l-1.45-.6V71.13c.88-.37,1.68-.75,2.52-1A3.74,3.74,0,0,0,164,68a1.22,1.22,0,0,0,.14-.56c0-2.64,0-5.29,0-7.93a.83.83,0,0,0-.08-.45C163.7,58.54,163.28,58,162.88,57.46Z"/><path class="cls-2" d="M132.89,55.87h-.2c-.64,0-.81.17-.81.81V68.26c0,.74,0,1.47,0,2.2,0,.47.19.66.67.67.1,0,.2,0,.31,0,.65,0,.81-.16.82-.81V56.67C133.69,56.06,133.5,55.87,132.89,55.87Z"/><path class="cls-2" d="M158.61,56a1,1,0,0,0-1.49.83V70.16c0,.87.11,1,1,1s.84-.14.84-.86V56.66C158.92,56.37,158.9,56.11,158.61,56Z"/><path class="cls-2" d="M439.51,61.49c0,1.87,0,3.74-.06,5.58l8.13.09c0-1.88,0-3.78.06-5.67a30.91,30.91,0,1,0-8.13,0Zm1.2,1.34c0-.35,0-.75,0-1.13l1.2,0h.37v1.12Zm5.51.09-1.62,0c0-.35,0-.75,0-1.14l1.61,0C446.23,62.16,446.23,62.55,446.22,62.92ZM443.55,3a27.89,27.89,0,1,1-27.88,27.88A27.91,27.91,0,0,1,443.55,3Z"/><path class="cls-2" d="M426.13,18h1.47c0,.12.07.22.09.31q2.65,10.22,5.32,20.42c.24.93.53,1.16,1.47,1.16h19.33c1,0,1.28-.23,1.53-1.18l2.55-9.82q.81-3.09,1.6-6.18a1.05,1.05,0,0,0-.62-1.33,2.44,2.44,0,0,0-.76-.1h-27c-.32,0-.45-.08-.52-.39-.33-1.34-.69-2.67-1-4a1.21,1.21,0,0,0-1.42-1.09c-1.66,0-3.32,0-5,0a1.4,1.4,0,0,0-1.46.81v.6a1.4,1.4,0,0,0,1.47.8C424.15,18,425.14,18,426.13,18ZM453.54,37c-.19.76-.19.76-1,.76h-3.05V34.47h4.67C454,35.32,453.76,36.15,453.54,37Zm1.27-4.91a.31.31,0,0,1-.22.18h-5.07V29h6.09C455.35,30,455.09,31.06,454.81,32.07Zm-5.29-8.54H457c-.28,1.07-.56,2.14-.84,3.23h-6.68Zm-2.23,8.7H441V29h6.25ZM441,23.52h6.24v3.24H441Zm0,11h6.26v3.25l-.37,0c-1.83,0-3.67,0-5.5,0-.3,0-.41-.07-.4-.38C441,36.4,441,35.44,441,34.47Zm-2.2,3.24-.34,0c-1.05,0-2.1,0-3.14,0-.28,0-.38-.08-.45-.35-.23-1-.49-1.92-.75-2.93h4.68Zm0-5.47-.34,0c-1.53,0-3.05,0-4.58,0a.37.37,0,0,1-.43-.33c-.23-1-.49-2-.75-3h6.1Zm0-8.72v3.23a2.77,2.77,0,0,1-.3,0h-6.06c-.12,0-.33-.09-.35-.18-.29-1-.54-2-.82-3.07Z"/><path class="cls-2" d="M451.32,40.81a4,4,0,1,0,3.95,4A4,4,0,0,0,451.32,40.81Zm0,5.77a1.79,1.79,0,1,1,0-3.58,1.79,1.79,0,1,1,0,3.58Z"/><path class="cls-2" d="M437.06,40.81a4,4,0,1,0,3.95,4A4,4,0,0,0,437.06,40.81Zm0,5.77a1.79,1.79,0,1,1,1.81-1.8A1.8,1.8,0,0,1,437,46.58Z"/><path class="cls-2" d="M524.77,92.45c0,1.77,0,3.54-.06,5.28l8.13.1.06-5.39a33.13,33.13,0,1,0-8.13,0Zm1.2,1v-.93c.53.05,1,.08,1.58.1v.85Zm5.51.08-1.62,0c0-.27,0-.57,0-.87.54,0,1.08-.05,1.62-.1C531.49,92.92,531.49,93.26,531.48,93.58Zm-2.67-64.19a30.16,30.16,0,1,1-20.4,52.34V67.9c0-.11,0-.23,0-.34a1.18,1.18,0,0,0-1.36-1.07c-.62.09-1,.6-1,1.39V79.3a30.13,30.13,0,0,1,22.75-49.91Z"/><path class="cls-2" d="M526.7,54.9h10.64a1.94,1.94,0,0,0,1.75-.84,2.51,2.51,0,0,1,2.18-1.16h1.79a1.36,1.36,0,0,0,1.46-1.21,6.46,6.46,0,0,1,.24-.86,9.09,9.09,0,0,1,4.14-4.65l.55-.33h-.3q-15.4,0-30.82,0A8.82,8.82,0,0,0,514,46.92a9.54,9.54,0,0,0-5.15,8H526.7Z"/><path class="cls-2" d="M536,55.85l-.42,0h-26c-.36,0-.53.1-.52.47,0,1.18,0,2.38.13,3.56a8.09,8.09,0,0,0,1.37,3.74,2.64,2.64,0,0,0,2.51,1.3c.49,0,1,0,1.49,0h1.77v5.76h4V64.85H538C536.07,62.1,535.8,59.06,536,55.85Z"/><path class="cls-2" d="M522.21,71.46H509.65l-.3,0v2.46H522a2.21,2.21,0,0,0,.63-.06,1.24,1.24,0,0,0-.44-2.42Z"/><path class="cls-2" d="M546.08,50a7.54,7.54,0,0,1,1.76,3c.09.26.21.33.46.27.55-.15,1.1-.25,1.63-.43a3.83,3.83,0,0,0,2.66-3A5.29,5.29,0,0,0,552,46.2a.41.41,0,0,0-.38-.16A9.13,9.13,0,0,0,546.08,50Z"/><path class="cls-2" d="M545.67,50.85c-.32.87-.75,1.65.17,2.35a1.4,1.4,0,0,1,.35.53,8.83,8.83,0,0,1,0,7.86A2.49,2.49,0,0,1,544,63.24a2.59,2.59,0,0,1-2.25-1.64,7.75,7.75,0,0,1-.88-3.63,8.67,8.67,0,0,1,.86-4.24c-.94-.13-1.1,0-1.29.83a14.05,14.05,0,0,0,.06,6.45A7.9,7.9,0,0,0,542,64.32a2.22,2.22,0,0,0,3.81,0,7.47,7.47,0,0,0,1.08-1.88,13.53,13.53,0,0,0,.42-8.25A7.53,7.53,0,0,0,545.67,50.85Z"/><path class="cls-2" d="M539.38,55.07a2.75,2.75,0,0,1-2,.74c-.38,0-.49.15-.49.48,0,.88-.06,1.76,0,2.63a10.2,10.2,0,0,0,1.53,5,3,3,0,0,0,3.29,1.44C539.17,62.33,539,58.79,539.38,55.07Z"/><path class="cls-2" d="M543.51,54.77a2,2,0,0,0-.26.53,6.21,6.21,0,0,0-.27,3.22,6.13,6.13,0,0,0,.55,1.68c.27.54.64.53,1,0a5.14,5.14,0,0,0,.6-2.92,1.23,1.23,0,0,1-1.34-.93,1.26,1.26,0,0,1,.76-1.49C544.16,54.23,543.86,54.21,543.51,54.77Z"/><path class="cls-2" d="M542.49,54.08a8.07,8.07,0,0,0,0,7.14A1.67,1.67,0,0,0,544,62.39c.76,0,1.16-.59,1.48-1.18a7.59,7.59,0,0,0,.65-4.72,1.19,1.19,0,0,0-.13.57,7,7,0,0,1-.48,3.07c-.28.64-.63,1.29-1.46,1.3s-1.22-.65-1.5-1.32a7.17,7.17,0,0,1-.34-4.1,3.82,3.82,0,0,1,1.11-2.28A.57.57,0,0,0,542.49,54.08Z"/><path class="cls-2" d="M512.66,75.28c-.83.47-1.75.78-2.62,1.17s-.87.5-.63,1.41l6.9-3A6,6,0,0,0,512.66,75.28Z"/><path class="cls-2" d="M509.34,74.77v1.06l2.35-1.06Z"/><path class="cls-2" d="M545.84,55.2a3.58,3.58,0,0,0-1.2-2l-.48.36C545.14,53.72,545.27,54.67,545.84,55.2Z"/><path class="cls-2" d="M608.74,64.71c0,1.86,0,3.72-.06,5.55l8.13.1.06-5.66a28.19,28.19,0,1,0-8.13,0Zm1.2,1.32c0-.35,0-.75,0-1.13h.63l.94.06v1.08ZM615.47,65c0,.38,0,.78,0,1.14l-1.62,0c0-.34,0-.73,0-1.1l.5,0Zm-2.69-53.36a25.2,25.2,0,1,1-25.2,25.2A25.22,25.22,0,0,1,612.78,11.61Z"/><path class="cls-2" d="M618.47,40a1.72,1.72,0,0,0-2.19-.15,6.85,6.85,0,0,1-6.8.21c-1.59-.74-1.81-.73-3.14.45a10.68,10.68,0,0,0-3.77,8.85c0,.49,0,1,0,1.47a2.08,2.08,0,0,0,1.54,2.32,17.11,17.11,0,0,0,2.65.56,28.31,28.31,0,0,0,12.85-.17c3.38-.92,3.39-.89,3.35-4.38A11,11,0,0,0,618.47,40Z"/><path class="cls-2" d="M601.45,45.3a11.36,11.36,0,0,1,4.69-6.25c.61-.39.62-.71.23-1.25a6.35,6.35,0,0,1-1.14-4.88c.13-.84-.12-.91-.83-.65a6.63,6.63,0,0,1-6.21-.62,1.43,1.43,0,0,0-1.74.06,10.23,10.23,0,0,0-4.34,6.1,24.06,24.06,0,0,0-.43,5A2.06,2.06,0,0,0,593.22,45a24.13,24.13,0,0,0,7,1.2C601,46.27,601.15,46.18,601.45,45.3Z"/><path class="cls-2" d="M627.51,31.51a6.85,6.85,0,0,1-6.29.81c-.79-.24-1.07-.06-1,.82a6.25,6.25,0,0,1-.71,4.06c-.72,1.17-.69,1.42.4,2.25a11.12,11.12,0,0,1,4,5.75,1.29,1.29,0,0,0,1.62,1,37.39,37.39,0,0,0,5.65-1c2.31-.61,2.48-.81,2.48-3.43a16.6,16.6,0,0,0-.16-2.42A9.4,9.4,0,0,0,629,31.65,1.21,1.21,0,0,0,627.51,31.51Z"/><path class="cls-2" d="M612.26,39.28a6,6,0,1,0,.52-12,6,6,0,0,0-.52,12Z"/><path class="cls-2" d="M602,31.09a5.94,5.94,0,0,0-.22-11.88A5.94,5.94,0,1,0,602,31.09Z"/><path class="cls-2" d="M623.68,31.09a5.94,5.94,0,1,0-6.07-5.91A5.92,5.92,0,0,0,623.68,31.09Z"/><path class="cls-2" d="M43.92,103.54a4.23,4.23,0,0,0-6-.45c-1.88,1.6-3.74,3.23-5.62,4.83a4.32,4.32,0,0,0-1.21,5.29c.07.17.12.19.27.07.6-.54,1.21-1.06,1.83-1.58a1.07,1.07,0,0,0,.5-.78.86.86,0,0,1,.17-.38,3.54,3.54,0,0,1,.85-1q1.66-1.45,3.34-2.88a10.58,10.58,0,0,1,1.71-1.35,1.62,1.62,0,0,1,2.15.31,22.27,22.27,0,0,1,1.49,1.73,1.74,1.74,0,0,1-.14,2.58c-.12.13-.25.25-.38.37l-2.35,2c-.29.25-.23.26-.5,0A4.2,4.2,0,0,0,36.35,111a4.51,4.51,0,0,0-2.46,1.16c-1.85,1.61-3.71,3.2-5.57,4.8a4.24,4.24,0,0,0-.59,5.89c.71.88,1.45,1.73,2.21,2.57a4.23,4.23,0,0,0,5.78.4c2-1.69,4-3.4,6-5.13a4.08,4.08,0,0,0,1.42-3.16,4.76,4.76,0,0,0-.45-2c-.08-.18-.15-.2-.3-.06l-2.13,1.83c-.06.06-.14.11-.15.21a2.4,2.4,0,0,1-1,1.7l-3,2.63a22.53,22.53,0,0,1-1.85,1.54,1.53,1.53,0,0,1-2.36-.3c-.4-.45-.8-.93-1.2-1.39a5.93,5.93,0,0,1-.57-.75,1.43,1.43,0,0,1,.06-1.63,4.4,4.4,0,0,1,.8-.87c.81-.69,1.61-1.37,2.41-2.08.17-.14.25-.13.39,0a4.24,4.24,0,0,0,6,.39c1.92-1.64,3.83-3.28,5.74-4.94a4.24,4.24,0,0,0,.46-6C45.26,105.07,44.6,104.3,43.92,103.54Zm-6.05,11a1.43,1.43,0,0,1-2-.07c-.12-.11-.14-.18,0-.26a2.07,2.07,0,0,1,.91-.27,1.64,1.64,0,0,1,1,.39C38,114.42,38,114.48,37.87,114.56Z"/></g></g></g></svg>