<?xml version="1.0" encoding="UTF-8" standalone="no"?>
<!-- Created with Inkscape (http://www.inkscape.org/) -->

<svg
   xmlns:dc="http://purl.org/dc/elements/1.1/"
   xmlns:cc="http://creativecommons.org/ns#"
   xmlns:rdf="http://www.w3.org/1999/02/22-rdf-syntax-ns#"
   xmlns:svg="http://www.w3.org/2000/svg"
   xmlns="http://www.w3.org/2000/svg"
   xmlns:xlink="http://www.w3.org/1999/xlink"
   xmlns:sodipodi="http://sodipodi.sourceforge.net/DTD/sodipodi-0.dtd"
   xmlns:inkscape="http://www.inkscape.org/namespaces/inkscape"
   version="1.1"
   id="svg19058"
   width="103"
   height="103"
   inkscape:version="0.92.4 (5da689c313, 2019-01-14)"
   sodipodi:docname="ico-password.svg">
  <metadata
     id="metadata19064">
    <rdf:RDF>
      <cc:Work
         rdf:about="">
        <dc:format>image/svg+xml</dc:format>
        <dc:type
           rdf:resource="http://purl.org/dc/dcmitype/StillImage" />
        <dc:title></dc:title>
      </cc:Work>
    </rdf:RDF>
  </metadata>
  <defs
     id="defs19062">
    <radialGradient
       xlink:href="#Degradado_sin_nombre_10"
       gradientTransform="matrix(0,-1.03,1.16,0,-3712.3801,1302.74)"
       r="41.450001"
       fy="3215.0178"
       cy="3234.46"
       cx="1314.63"
       id="Degradado_sin_nombre_10-3" />
    <radialGradient
       gradientUnits="userSpaceOnUse"
       gradientTransform="matrix(0,-1.03,0.96,0,25.43,3407.4)"
       r="313.20001"
       fy="1393.4077"
       cy="1540.3"
       cx="1666.96"
       id="Degradado_sin_nombre_10">
      <stop
         id="stop842"
         stop-color="#43b5e7"
         offset="0" />
      <stop
         id="stop844"
         stop-color="#317fbb"
         offset="0.3" />
      <stop
         id="stop846"
         stop-color="#214e93"
         offset="0.62" />
      <stop
         id="stop848"
         stop-color="#172f79"
         offset="0.86" />
      <stop
         id="stop850"
         stop-color="#132370"
         offset="1" />
    </radialGradient>
    <radialGradient
       inkscape:collect="always"
       xlink:href="#Degradado_sin_nombre_10"
       id="radialGradient20732"
       gradientTransform="matrix(0,-1.03,1.16,0,-3712.3801,1302.74)"
       cx="1314.63"
       cy="3234.46"
       fy="3215.0178"
       r="41.450001" />
  </defs>
  <sodipodi:namedview
     pagecolor="#ffffff"
     bordercolor="#666666"
     borderopacity="1"
     objecttolerance="10"
     gridtolerance="10"
     guidetolerance="10"
     inkscape:pageopacity="0"
     inkscape:pageshadow="2"
     inkscape:window-width="1920"
     inkscape:window-height="1001"
     id="namedview19060"
     showgrid="false"
     inkscape:zoom="2.36"
     inkscape:cx="51.059322"
     inkscape:cy="50"
     inkscape:window-x="-9"
     inkscape:window-y="-9"
     inkscape:window-maximized="1"
     inkscape:current-layer="g20722" />
  <g
     id="g20722"
     transform="translate(6.3559322,-1.6610169)">
    <g
       id="g20730"
       transform="translate(-4.9661017,3.3898305)">
      <rect
         id="rect1500"
         rx="50.150002"
         height="101.62"
         width="101.69"
         y="-0.67993164"
         x="-1"
         class="cls-1"
         style="isolation:isolate;fill:#ffffff" />
      <rect
         id="rect1502"
         transform="rotate(90)"
         rx="48.98"
         height="98.019997"
         width="97.949997"
         y="-98.859894"
         x="1.1599121"
         class="cls-33"
         style="isolation:isolate;fill:url(#radialGradient20732)" />
      <path
         id="path1504"
         d="m 76.729993,48.219952 a 6,6 0 0 0 -5.57,-4.22 c -2.3,0 -4.6,0 -6.91,0 h -22.25 c -0.17,0 -0.28,0 -0.28,-0.24 0,-3.43 0,-6.86 0,-10.3 a 10.29,10.29 0 0 1 0.7,-3.55 11.22,11.22 0 0 1 4,-5.19 11.09,11.09 0 0 1 6.33,-2.15 c 1,0 2,0 3,0 a 11.36,11.36 0 0 1 10.87,7.92 c 0.06,0.19 0,0.27 -0.15,0.35 a 6,6 0 0 0 4,11.2 6,6 0 0 0 4.41,-7.78 5.68,5.68 0 0 0 -3.37,-3.6 1.17,1.17 0 0 1 -0.8,-0.88 14.79,14.79 0 0 0 -3.37,-6.21 15.27,15.27 0 0 0 -10.88,-5.15 39.23,39.23 0 0 0 -4.47,0 14.58,14.58 0 0 0 -4.33,0.93 15.47,15.47 0 0 0 -10,14.4 c 0,3.32 0,6.64 0,9.95 0,0.23 -0.07,0.29 -0.29,0.28 h -8.72 a 1.931269,1.931269 0 1 0 0.14,3.86 h 12.73 a 0.43,0.43 0 0 0 0.37,-0.19 3.38,3.38 0 0 1 3.54,-1.32 3.47,3.47 0 0 1 2.64,4.3 3.5,3.5 0 0 1 -6.13,1.29 0.59,0.59 0 0 0 -0.52,-0.25 h -19.42 a 0.52,0.52 0 0 1 -0.47,-0.22 3.38,3.38 0 0 0 -3.17,-1.35 3.5,3.5 0 0 0 -3,4.33 3.53,3.53 0 0 0 6.21,1.31 0.48,0.48 0 0 1 0.43,-0.21 h 29 a 0.47,0.47 0 0 0 0.31,-0.12 4.49,4.49 0 0 1 1.43,-0.84 4.86,4.86 0 0 1 4.76,0.72 4.93,4.93 0 0 1 1.74,5.26 4.83,4.83 0 0 1 -1.82,2.63 0.27,0.27 0 0 0 -0.11,0.35 q 0.88,2.85 1.75,5.71 a 1,1 0 0 1 -1,1.33 h -7.26 a 0.94,0.94 0 0 1 -1,-1.27 c 0.22,-0.75 0.45,-1.49 0.68,-2.23 0.35,-1.14 0.68,-2.28 1,-3.41 a 0.43,0.43 0 0 0 -0.17,-0.57 4.84,4.84 0 0 1 -1.89,-3.45 c 0,-0.24 -0.08,-0.29 -0.31,-0.29 h -23.66 a 2.69,2.69 0 0 0 -0.57,0 1.94,1.94 0 0 0 -1.46,2.18 1.92,1.92 0 0 0 1.86,1.62 h 12 a 0.35,0.35 0 0 0 0.32,-0.16 3.51,3.51 0 0 1 6.31,1.82 3.35,3.35 0 0 1 -1.15,2.86 3.46,3.46 0 0 1 -5.18,-0.54 0.33,0.33 0 0 0 -0.29,-0.14 c -2.2,0 -4.39,0 -6.59,0 a 1.82,1.82 0 0 0 -1.7,1 1.91,1.91 0 0 0 1.73,2.8 c 1.79,0 3.58,0 5.38,0 a 1.91,1.91 0 0 1 1.51,3.07 1.93,1.93 0 0 1 -1.66,0.76 h -3.36 c -0.19,0 -0.21,0.05 -0.13,0.21 a 6.13,6.13 0 0 0 1.84,2.08 6.2,6.2 0 0 0 3.66,1.11 h 32.85 a 6.75,6.75 0 0 0 1.89,-0.27 6,6 0 0 0 4.27,-5.7 v -22.05 a 6.22,6.22 0 0 0 -0.25,-1.78 z m -7.59,-13.91 a 1.85,1.85 0 1 1 -1.83,1.84 1.84,1.84 0 0 1 1.83,-1.84 z m -50.43,20.38 a 1.11,1.11 0 0 1 -1.06,-1.1 1.1,1.1 0 1 1 2.19,0 1.11,1.11 0 0 1 -1.13,1.1 z"
         class="cls-1"
         inkscape:connector-curvature="0"
         style="isolation:isolate;fill:#ffffff" />
      <path
         id="path1506"
         d="m 41.549993,65.149952 a 1.14,1.14 0 0 0 -1.11,-1.12 1.08,1.08 0 0 0 -1.1,1.1 1.12,1.12 0 0 0 1.11,1.12 1.15,1.15 0 0 0 1.1,-1.1 z"
         class="cls-1"
         inkscape:connector-curvature="0"
         style="isolation:isolate;fill:#ffffff" />
      <path
         id="path1508"
         d="m 45.689993,49.749952 a 1.11,1.11 0 0 0 -2.21,0 1.11,1.11 0 1 0 2.21,0 z"
         class="cls-1"
         inkscape:connector-curvature="0"
         style="isolation:isolate;fill:#ffffff" />
      <path
         id="path1510"
         d="m 56.789993,59.259952 a 2.4005208,2.4005208 0 0 0 -4.8,-0.1 2.4005208,2.4005208 0 0 0 4.8,0.1 z"
         class="cls-1"
         inkscape:connector-curvature="0"
         style="isolation:isolate;fill:#ffffff" />
    </g>
  </g>
</svg>
