<?xml version="1.0" encoding="UTF-8" standalone="no"?>
<!-- Created with Inkscape (http://www.inkscape.org/) -->

<svg
   xmlns:dc="http://purl.org/dc/elements/1.1/"
   xmlns:cc="http://creativecommons.org/ns#"
   xmlns:rdf="http://www.w3.org/1999/02/22-rdf-syntax-ns#"
   xmlns:svg="http://www.w3.org/2000/svg"
   xmlns="http://www.w3.org/2000/svg"
   xmlns:xlink="http://www.w3.org/1999/xlink"
   xmlns:sodipodi="http://sodipodi.sourceforge.net/DTD/sodipodi-0.dtd"
   xmlns:inkscape="http://www.inkscape.org/namespaces/inkscape"
   version="1.1"
   id="svg18455"
   width="103"
   height="103"
   inkscape:version="0.92.4 (5da689c313, 2019-01-14)"
   sodipodi:docname="ico-key.svg">
  <metadata
     id="metadata18461">
    <rdf:RDF>
      <cc:Work
         rdf:about="">
        <dc:format>image/svg+xml</dc:format>
        <dc:type
           rdf:resource="http://purl.org/dc/dcmitype/StillImage" />
        <dc:title></dc:title>
      </cc:Work>
    </rdf:RDF>
  </metadata>
  <defs
     id="defs18459">
    <radialGradient
       xlink:href="#Degradado_sin_nombre_10"
       gradientTransform="matrix(0,-1.03,1.16,0,-3554.3801,1302.74)"
       r="41.450001"
       fy="3081.7715"
       cy="3101.21"
       cx="1314.63"
       id="Degradado_sin_nombre_10-2" />
    <radialGradient
       gradientUnits="userSpaceOnUse"
       gradientTransform="matrix(0,-1.03,0.96,0,25.43,3407.4)"
       r="313.20001"
       fy="1393.4077"
       cy="1540.3"
       cx="1666.96"
       id="Degradado_sin_nombre_10">
      <stop
         id="stop842"
         stop-color="#43b5e7"
         offset="0" />
      <stop
         id="stop844"
         stop-color="#317fbb"
         offset="0.3" />
      <stop
         id="stop846"
         stop-color="#214e93"
         offset="0.62" />
      <stop
         id="stop848"
         stop-color="#172f79"
         offset="0.86" />
      <stop
         id="stop850"
         stop-color="#132370"
         offset="1" />
    </radialGradient>
    <radialGradient
       inkscape:collect="always"
       xlink:href="#Degradado_sin_nombre_10"
       id="radialGradient20741"
       gradientTransform="matrix(0,-1.03,1.16,0,-3554.3801,1302.74)"
       cx="1314.63"
       cy="3101.21"
       fy="3081.7715"
       r="41.450001" />
  </defs>
  <sodipodi:namedview
     pagecolor="#ffffff"
     bordercolor="#666666"
     borderopacity="1"
     objecttolerance="10"
     gridtolerance="10"
     guidetolerance="10"
     inkscape:pageopacity="0"
     inkscape:pageshadow="2"
     inkscape:window-width="1920"
     inkscape:window-height="1001"
     id="namedview18457"
     showgrid="false"
     inkscape:zoom="2.36"
     inkscape:cx="-29.025424"
     inkscape:cy="50"
     inkscape:window-x="-9"
     inkscape:window-y="-9"
     inkscape:window-maximized="1"
     inkscape:current-layer="svg18455" />
  <g
     id="g20739"
     transform="translate(2.5423729,-0.84745766)">
    <rect
       style="isolation:isolate;fill:#ffffff"
       class="cls-1"
       x="-1"
       y="2.3200684"
       width="101.69"
       height="101.62"
       rx="50.150002"
       id="rect1476" />
    <rect
       style="isolation:isolate;fill:url(#radialGradient20741)"
       class="cls-29"
       x="4.1599121"
       y="-98.859894"
       width="97.949997"
       height="98.019997"
       rx="48.98"
       transform="rotate(90)"
       id="rect1478" />
    <path
       style="isolation:isolate;fill:#ffffff"
       inkscape:connector-curvature="0"
       class="cls-1"
       d="m 67.729993,71.369968 a 5.44,5.44 0 0 0 -1.06,-0.44 l -1.52,-0.19 -0.19,0.07 a 4.12,4.12 0 0 0 -1.37,0.51 l -18.45,-18.16 -0.72,0.36 a 14.76,14.76 0 1 1 8.15,-13.2 14.77,14.77 0 0 1 -1.81,7.09 l -0.44,0.82 6.74,5.53 v 5.08 h 12.41 l 1.61,1.37 a 3.9,3.9 0 0 0 -0.25,2.11 4,4 0 0 0 3.58,3.25 h 0.3 a 4,4 0 0 0 2.17,-7.37 4.43,4.43 0 0 0 -1.06,-0.44 l -1.39,-0.18 h -0.32 a 4.06,4.06 0 0 0 -1.67,0.74 l -2.14,-1.81 h -11 v -3.88 l -6.14,-5 a 17,17 0 1 0 -8.49,8.25 l 2.56,2.51 v 9.8 l 3.91,3.84 a 3.89,3.89 0 0 0 -0.46,2.58 4,4 0 0 0 3.58,3.24 h 0.29 a 4,4 0 0 0 2.18,-7.36 4.6,4.6 0 0 0 -1.06,-0.44 l -1.52,-0.19 -0.19,0.06 a 3.94,3.94 0 0 0 -1.25,0.47 l -3.21,-3.16 v -6.61 l 12.57,12.38 a 3.9,3.9 0 0 0 -0.41,2.46 4,4 0 0 0 3.58,3.24 h 0.3 a 4,4 0 0 0 2.17,-7.37 z m 5.61,-10.77 a 1.67,1.67 0 0 1 1.11,-0.71 h 0.13 l 0.55,0.07 a 3,3 0 0 1 0.57,0.22 1.68,1.68 0 0 1 0.71,2 1.73,1.73 0 0 1 -3.35,-0.21 1.68,1.68 0 0 1 0.28,-1.37 z m -19,11.59 h 0.14 l 0.53,0.07 a 3.88,3.88 0 0 1 0.58,0.23 1.71,1.71 0 0 1 0.72,2 1.77,1.77 0 0 1 -1.87,1.19 1.73,1.73 0 0 1 -0.1,-3.42 z m 12.94,3.09 a 1.7,1.7 0 0 1 -1.86,1.19 1.74,1.74 0 0 1 -1.49,-1.4 1.75,1.75 0 0 1 1.38,-2 h 0.15 l 0.54,0.07 a 3,3 0 0 1 0.58,0.23 1.68,1.68 0 0 1 0.68,1.91 z"
       id="path1480" />
    <path
       style="isolation:isolate;fill:#ffffff"
       inkscape:connector-curvature="0"
       class="cls-1"
       d="m 76.879993,74.239968 a 4.43,4.43 0 0 0 -1.06,-0.44 h -0.27 l 0.4,-3.55 -5.15,-4.79 h -3 v -2.78 a 1.14,1.14 0 0 0 -2.27,0 v 5.05 h 4.38 l 3.67,3.4 -0.33,2.91 a 3.81,3.81 0 0 0 -1.75,1.32 4,4 0 0 0 2.92,6.28 h 0.3 a 4,4 0 0 0 2.17,-7.37 z m -0.47,3.9 a 1.74,1.74 0 0 1 -1.86,1.19 1.73,1.73 0 0 1 -0.1,-3.42 h 0.14 l 0.54,0.08 a 3,3 0 0 1 0.57,0.22 1.65,1.65 0 0 1 0.71,1.93 z"
       id="path1482" />
    <path
       style="isolation:isolate;fill:#ffffff"
       inkscape:connector-curvature="0"
       class="cls-1"
       d="m 50.489993,40.319968 a 12.72,12.72 0 1 0 -5.41,10.36 l 6.93,6.52 a 1.09,1.09 0 0 0 0.77,0.32 1.13,1.13 0 0 0 0.78,-2 l -6.73,-6.35 a 12.59,12.59 0 0 0 3.66,-8.85 z m -16.64,0.68 a 5,5 0 1 1 5,-5 5,5 0 0 1 -5,5 z"
       id="path1484" />
  </g>
</svg>
