<?xml version="1.0" encoding="UTF-8" standalone="no"?>
<!-- Created with Inkscape (http://www.inkscape.org/) -->

<svg
   xmlns:dc="http://purl.org/dc/elements/1.1/"
   xmlns:cc="http://creativecommons.org/ns#"
   xmlns:rdf="http://www.w3.org/1999/02/22-rdf-syntax-ns#"
   xmlns:svg="http://www.w3.org/2000/svg"
   xmlns="http://www.w3.org/2000/svg"
   xmlns:sodipodi="http://sodipodi.sourceforge.net/DTD/sodipodi-0.dtd"
   xmlns:inkscape="http://www.inkscape.org/namespaces/inkscape"
   version="1.1"
   id="svg19675"
   width="390"
   height="60"
   inkscape:version="0.92.4 (5da689c313, 2019-01-14)"
   sodipodi:docname="ico-blackflower.svg">
  <metadata
     id="metadata19681">
    <rdf:RDF>
      <cc:Work
         rdf:about="">
        <dc:format>image/svg+xml</dc:format>
        <dc:type
           rdf:resource="http://purl.org/dc/dcmitype/StillImage" />
        <dc:title></dc:title>
      </cc:Work>
    </rdf:RDF>
  </metadata>
  <defs
     id="defs19679" />
  <sodipodi:namedview
     pagecolor="#ffffff"
     bordercolor="#666666"
     borderopacity="1"
     objecttolerance="10"
     gridtolerance="10"
     guidetolerance="10"
     inkscape:pageopacity="0"
     inkscape:pageshadow="2"
     inkscape:window-width="1920"
     inkscape:window-height="1001"
     id="namedview19677"
     showgrid="false"
     inkscape:zoom="2.36"
     inkscape:cx="239.83388"
     inkscape:cy="50"
     inkscape:window-x="-9"
     inkscape:window-y="-9"
     inkscape:window-maximized="1"
     inkscape:current-layer="svg19675" />
  <rect
     id="rect1146"
     height="3"
     width="1124"
     y="118.92041"
     x="-423.86441"
     class="cls-11"
     style="opacity:0.6;isolation:isolate;fill:#ffffff" />
  <g
     id="g20309"
     transform="translate(28.389831,20.644068)">
    <path
       style="isolation:isolate;fill:#ffffff"
       inkscape:connector-curvature="0"
       class="cls-1"
       d="m 210.32558,-4.469558 h 5.27 l 6.21,16.56 c 0.4,1.1 0.74,2 1,2.87 0.26,0.87 0.52,1.6 0.73,2.31 0.52,-1.73 1.07,-3.43 1.63,-5.09 l 0.16,-0.42 6.59,-17.53 7,17.86 c 0.33,0.87 0.64,1.74 0.93,2.6 0.29,0.86 0.57,1.75 0.82,2.63 0.15,-0.67 0.35,-1.41 0.61,-2.22 0.26,-0.81 0.58,-1.76 1,-2.87 l 6.17,-16.7 h 5.31 l -12.71,34.1 -7.49,-18.72 c -0.33,-0.84 -0.63,-1.64 -0.89,-2.41 -0.26,-0.77 -0.51,-1.5 -0.72,-2.19 -0.26,0.88 -0.51,1.71 -0.77,2.48 -0.26,0.77 -0.51,1.5 -0.78,2.21 l -7.35,18.63 z"
       id="path1408" />
    <path
       style="isolation:isolate;fill:#ffffff"
       inkscape:connector-curvature="0"
       class="cls-1"
       d="m 257.33558,28.350442 v -32.82 h 18.32 v 4.52 h -13 v 8.23 h 13 v 4.69 h -13 v 10.6 h 13 v 4.78 z"
       id="path1410" />
    <path
       style="isolation:isolate;fill:#ffffff"
       inkscape:connector-curvature="0"
       class="cls-1"
       d="m 286.77558,13.660442 v 14.69 h -5 v -32.82 h 7.45 a 23.56,23.56 0 0 1 5.07,0.42 8.14,8.14 0 0 1 3.09,1.41 7.88,7.88 0 0 1 2.35,3.08 10.14,10.14 0 0 1 0.83,4.12 9.23,9.23 0 0 1 -1.9,6.18 8.41,8.41 0 0 1 -5.63,2.68 l 11.3,14.93 h -6 l -10.92,-14.69 z m 0.34,-4.14 h 1 c 2.83,0 4.7,-0.33 5.63,-1 a 4,4 0 0 0 1.39,-3.5 4.47,4.47 0 0 0 -1.49,-3.82 c -1,-0.74 -2.84,-1.11 -5.53,-1.11 h -1 z"
       id="path1412" />
    <path
       style="isolation:isolate;fill:#ffffff"
       inkscape:connector-curvature="0"
       class="cls-1"
       d="m 181.39558,-18.869558 a 29.26,29.26 0 1 0 29.26,29.26 29.26,29.26 0 0 0 -29.26,-29.26 z m 0,54.64 a 25.38,25.38 0 1 1 25.38,-25.38 25.39,25.39 0 0 1 -25.38,25.38 z"
       id="path1414" />
    <path
       style="isolation:isolate;fill:#ffffff"
       inkscape:connector-curvature="0"
       class="cls-1"
       d="m 161.78558,16.920442 a 12.86,12.86 0 0 1 6.89,-6.93 11,11 0 0 1 3.91,-0.7 14.38,14.38 0 0 1 5.26,1.05 13.76,13.76 0 0 0 -4.82,-2.43 h -0.75 c -0.61,0 -1.23,0 -1.83,0.1 a 15.43,15.43 0 0 0 -3.76,1.12 l -0.35,0.16 -0.3,-0.25 a 3.74,3.74 0 0 1 -0.37,-0.34 c -4.75,2.4 -7,7.74 -7,7.74 0,0 1.2,0.75 2.71,1.49 q 0.17,-0.52 0.41,-1.01 z"
       id="path1416" />
    <path
       style="isolation:isolate;fill:#ffffff"
       inkscape:connector-curvature="0"
       class="cls-1"
       d="m 167.43558,-3.179558 v 0 a 12.1,12.1 0 0 1 7.86,2.57 c 3.72,3 4.29,7.74 4.38,8.89 a 14,14 0 0 0 0,-5.47 17.89,17.89 0 0 0 -1.64,-2.77 15,15 0 0 0 -2.86,-2.69 l -0.31,-0.22 0.07,-0.38 c 0,0 0,-0.26 0.13,-0.61 -4.43,-2.83 -10.09,-2.13 -10.09,-2.13 0,0 0,1.35 0,3 a 17,17 0 0 1 2.46,-0.19 z"
       id="path1418" />
    <path
       style="isolation:isolate;fill:#ffffff"
       inkscape:connector-curvature="0"
       class="cls-1"
       d="m 174.60558,21.150442 a 13,13 0 0 1 5.13,-8 14,14 0 0 0 -4.8,2.95 16.47,16.47 0 0 0 -1.19,2.22 15,15 0 0 0 -0.9,3.81 v 0.39 l -0.36,0.13 -0.72,0.22 c -0.39,5.39 3.19,10.13 3.19,10.13 0,0 1.35,-0.72 2.81,-1.71 -0.19,-0.23 -0.37,-0.48 -0.56,-0.75 a 12.82,12.82 0 0 1 -2.6,-9.39 z"
       id="path1420" />
    <path
       style="isolation:isolate;fill:#ffffff"
       inkscape:connector-curvature="0"
       class="cls-1"
       d="m 195.19558,24.300442 a 12.15,12.15 0 0 1 -7.87,-2.57 c -3.46,-2.8 -4.19,-7.11 -4.35,-8.61 l -0.12,-0.1 a 14,14 0 0 0 0,5.4 17.76,17.76 0 0 0 1.52,2.52 15.82,15.82 0 0 0 2.85,2.69 l 0.32,0.22 -0.07,0.38 c 0,0 -0.07,0.35 -0.19,0.82 4.46,3 10.29,2.26 10.29,2.26 0,0 0,-1.46 -0.06,-3.17 a 17.32,17.32 0 0 1 -2.32,0.16 z"
       id="path1422" />
    <path
       style="isolation:isolate;fill:#ffffff"
       inkscape:connector-curvature="0"
       class="cls-1"
       d="m 201.13558,4.070442 a 12.88,12.88 0 0 1 -6.89,6.94 11,11 0 0 1 -3.91,0.7 14.54,14.54 0 0 1 -5.8,-1.28 h -0.09 a 14,14 0 0 0 4.9,2.75 h 0.91 c 0.62,0 1.23,0 1.84,-0.09 a 15.42,15.42 0 0 0 3.76,-1.13 l 0.35,-0.16 0.29,0.25 c 0,0 0.24,0.21 0.57,0.53 4.83,-2.37 7.12,-7.8 7.12,-7.8 0,0 -1.21,-0.75 -2.73,-1.5 -0.15,0.3 -0.26,0.54 -0.32,0.79 z"
       id="path1424" />
    <path
       style="isolation:isolate;fill:#ffffff"
       inkscape:connector-curvature="0"
       class="cls-1"
       d="m 178.48558,-0.309558 a 17.43,17.43 0 0 1 3.25,8 c 0,0 4.65,-2.88 5.45,-7.95 1.13,-7.2 -5.77,-12.57 -5.77,-12.57 a 28.31,28.31 0 0 0 -4.11,4.83 16.76,16.76 0 0 0 -1.81,4.86 15.73,15.73 0 0 1 2.99,2.83 z"
       id="path1426" />
    <path
       style="isolation:isolate;fill:#ffffff"
       inkscape:connector-curvature="0"
       class="cls-1"
       d="m 166.57558,8.540442 a 15.93,15.93 0 0 1 4,-1.17 17.5,17.5 0 0 1 8.56,1.18 c 0,0 -0.18,-5.46 -4.17,-8.69 -5.66,-4.58 -13.77,-1.3 -13.77,-1.3 a 28.36,28.36 0 0 0 2.13,6 16.77,16.77 0 0 0 3.25,3.98 z"
       id="path1428" />
    <path
       style="isolation:isolate;fill:#ffffff"
       inkscape:connector-curvature="0"
       class="cls-1"
       d="m 173.19558,18.100442 a 17.53,17.53 0 0 1 5.3,-6.82 c 0,0 -4.81,-2.58 -9.61,-0.74 -6.8,2.61 -8,11.28 -8,11.28 a 27.79,27.79 0 0 0 6.25,1.1 16.44,16.44 0 0 0 5.11,-0.86 15.91,15.91 0 0 1 0.95,-3.96 z"
       id="path1430" />
    <path
       style="isolation:isolate;fill:#ffffff"
       inkscape:connector-curvature="0"
       class="cls-1"
       d="m 183.90558,21.290442 a 17.51,17.51 0 0 1 -3.26,-8 c 0,0 -4.64,2.88 -5.44,8 -1.14,7.2 5.76,12.57 5.76,12.57 a 28.18,28.18 0 0 0 4.12,-4.83 16.76,16.76 0 0 0 1.81,-4.86 15.73,15.73 0 0 1 -2.99,-2.88 z"
       id="path1432" />
    <path
       style="isolation:isolate;fill:#ffffff"
       inkscape:connector-curvature="0"
       class="cls-1"
       d="m 196.05558,12.580442 a 15.93,15.93 0 0 1 -4,1.17 17.47,17.47 0 0 1 -8.56,-1.18 c 0,0 0.17,5.46 4.16,8.69 5.67,4.58 13.77,1.29 13.77,1.29 a 27.88,27.88 0 0 0 -2.12,-6 16.77,16.77 0 0 0 -3.25,-3.97 z"
       id="path1434" />
    <path
       style="isolation:isolate;fill:#ffffff"
       inkscape:connector-curvature="0"
       class="cls-1"
       d="m 189.67558,2.920442 a 17.5,17.5 0 0 1 -5.31,6.82 c 0,0 4.82,2.58 9.61,0.74 6.8,-2.61 8,-11.28 8,-11.28 a 27.79,27.79 0 0 0 -6.24,-1.14 16.6,16.6 0 0 0 -5.11,0.85 16,16 0 0 1 -0.95,4.01 z"
       id="path1436" />
    <path
       style="isolation:isolate;fill:#ffffff"
       inkscape:connector-curvature="0"
       class="cls-1"
       d="m 187.78558,-0.169558 a 12.84,12.84 0 0 1 -4.79,7.7 c 0,0.21 0,0.33 0,0.33 a 14.09,14.09 0 0 0 5,-3 17.23,17.23 0 0 0 1.18,-2.23 14.71,14.71 0 0 0 0.91,-3.82 v -0.38 l 0.36,-0.13 c 0,0 0.29,-0.1 0.71,-0.22 0.4,-5.39 -3.18,-10.13 -3.18,-10.13 a 33.25,33.25 0 0 0 -3.12,1.92 l 0.39,0.53 a 12.86,12.86 0 0 1 2.54,9.43 z"
       id="path1438" />
    <path
       style="isolation:isolate;fill:#ffffff"
       inkscape:connector-curvature="0"
       class="cls-1"
       d="m -25.664417,28.280442 v -32.82 h 8.27 a 26.45,26.45 0 0 1 5.24,0.38 7.56,7.56 0 0 1 2.8800002,1.26 7.43,7.43 0 0 1 2.36,2.93 9.46,9.46 0 0 1 0.84,4 7.53,7.53 0 0 1 -1.21,4.38 6.28,6.28 0 0 1 -3.5200002,2.45 6.73,6.73 0 0 1 4.5200002,2.62 8.73,8.73 0 0 1 1.65,5.45 10.21,10.21 0 0 1 -0.7,3.79 8.41,8.41 0 0 1 -2,3 7.39,7.39 0 0 1 -3.3400002,1.93 28,28 0 0 1 -6.7,0.56 z m 5.22,-19 h 2 c 2.54,0 4.34,-0.34 5.39,-1 a 3.86,3.86 0 0 0 1.58,-3.51 c 0,-1.79 -0.48,-3.05 -1.45,-3.78 -0.97,-0.73 -2.81,-1.08 -5.52,-1.08 h -2 z m 0,14.51 h 1.84 a 28.61,28.61 0 0 0 4.19,-0.22 5.39,5.39 0 0 0 2.2,-0.79 4.24,4.24 0 0 0 1.52,-1.75 5.88,5.88 0 0 0 -0.11,-5.15 4.47,4.47 0 0 0 -1.86,-1.82 6.7,6.7 0 0 0 -1.74,-0.56 14.83,14.83 0 0 0 -2.59,-0.18 h -3.45 z"
       id="path1440" />
    <path
       style="isolation:isolate;fill:#ffffff"
       inkscape:connector-curvature="0"
       class="cls-1"
       d="m 0.78558322,28.280442 v -32.82 H 6.1355832 v 28.05 H 20.705583 l -2.64,4.77 z"
       id="path1442" />
    <path
       style="isolation:isolate;fill:#ffffff"
       inkscape:connector-curvature="0"
       class="cls-1"
       d="m 44.065583,28.280442 -3.73,-8.45 h -13 l -3.81,8.45 h -5.61 l 15.9,-34.12 15.87,34.12 z m -14.76,-12.89 h 9.15 l -3.32,-7.47 c -0.2,-0.48 -0.4,-1 -0.61,-1.65 -0.21,-0.65 -0.42,-1.31 -0.63,-2.07 q -0.27,1.08 -0.57,2 c -0.2,0.62 -0.41,1.19 -0.61,1.71 z"
       id="path1444" />
    <path
       style="isolation:isolate;fill:#ffffff"
       inkscape:connector-curvature="0"
       class="cls-1"
       d="m 78.315583,3.440442 a 16.25,16.25 0 0 0 -4.78,-2.89 14.8,14.8 0 0 0 -5.31,-1 11.68,11.68 0 0 0 -8.75,3.46 13.42,13.42 0 0 0 -0.09,17.71 11,11 0 0 0 8.28,3.45 15,15 0 0 0 5.55,-1 17.71,17.71 0 0 0 5.06,-3.12 v 6 a 15.43,15.43 0 0 1 -4.69,2.31 18.92,18.92 0 0 1 -5.49,0.77 19.22,19.22 0 0 1 -7,-1.24 16.38,16.38 0 0 1 -9.31,-9.18 18.54,18.54 0 0 1 0,-13.59 16.84,16.84 0 0 1 9.35,-9.2 18.52,18.52 0 0 1 6.84,-1.25 18,18 0 0 1 5.52,0.84 19.22,19.22 0 0 1 5.08,2.55 z"
       id="path1446" />
    <path
       style="isolation:isolate;fill:#ffffff"
       inkscape:connector-curvature="0"
       class="cls-1"
       d="m 84.935583,28.280442 v -32.82 h 5.33 v 13.59 l 11.799997,-13.59 h 6.52 l -12.999997,14.59 14.549997,18.23 h -6.89 l -12.999997,-16.77 v 16.77 z"
       id="path1448" />
    <path
       style="isolation:isolate;fill:#ffffff"
       inkscape:connector-curvature="0"
       class="cls-1"
       d="m 113.40558,28.280442 v -32.82 h 18.32 v 4.53 h -13 v 8.18 h 13 v 4.69 h -13 v 15.42 z"
       id="path1450" />
    <path
       style="isolation:isolate;fill:#ffffff"
       inkscape:connector-curvature="0"
       class="cls-1"
       d="m 152.13558,23.510442 h -9.28 v -28.05 h -5.34 v 32.82 h 17.26 a 32,32 0 0 1 -2.64,-4.77 z"
       id="path1452" />
    <path
       style="isolation:isolate;fill:#c99b35"
       inkscape:connector-curvature="0"
       class="cls-21"
       d="m 307.22558,28.250442 v -32.8 h 18.3 v 4.52 h -13 v 8.23 h 13 v 4.72 h -13 v 10.59 h 13 v 4.78 z"
       id="path1454" />
    <path
       style="isolation:isolate;fill:#c99b35"
       inkscape:connector-curvature="0"
       class="cls-21"
       d="m 331.64558,28.250442 v -32.8 h 7.19 a 47,47 0 0 1 9.86,0.7 13.35,13.35 0 0 1 5,2.37 13.62,13.62 0 0 1 4.31,5.58 19.44,19.44 0 0 1 1.47,7.77 19.22,19.22 0 0 1 -1.47,7.74 13.86,13.86 0 0 1 -4.31,5.57 13.4,13.4 0 0 1 -4.89,2.36 37.46,37.46 0 0 1 -8.55,0.71 h -8.62 z m 5.33,-4.82 h 4.48 a 23.59,23.59 0 0 0 5.54,-0.49 8.1,8.1 0 0 0 3.22,-1.66 9.85,9.85 0 0 0 2.79,-4 16.7,16.7 0 0 0 0,-11 9.85,9.85 0 0 0 -2.79,-4 8.42,8.42 0 0 0 -3.33,-1.66 27.43,27.43 0 0 0 -6.06,-0.49 h -3.85 z"
       id="path1456" />
  </g>
</svg>
