<?xml version="1.0" encoding="UTF-8" standalone="no"?>
<!-- Created with Inkscape (http://www.inkscape.org/) -->

<svg
   xmlns:dc="http://purl.org/dc/elements/1.1/"
   xmlns:cc="http://creativecommons.org/ns#"
   xmlns:rdf="http://www.w3.org/1999/02/22-rdf-syntax-ns#"
   xmlns:svg="http://www.w3.org/2000/svg"
   xmlns="http://www.w3.org/2000/svg"
   xmlns:xlink="http://www.w3.org/1999/xlink"
   xmlns:sodipodi="http://sodipodi.sourceforge.net/DTD/sodipodi-0.dtd"
   xmlns:inkscape="http://www.inkscape.org/namespaces/inkscape"
   version="1.1"
   id="svg55580"
   width="183"
   height="183"
   inkscape:version="0.92.4 (5da689c313, 2019-01-14)"
   sodipodi:docname="laguage-settings.svg">
  <metadata
     id="metadata55586">
    <rdf:RDF>
      <cc:Work
         rdf:about="">
        <dc:format>image/svg+xml</dc:format>
        <dc:type
           rdf:resource="http://purl.org/dc/dcmitype/StillImage" />
        <dc:title></dc:title>
      </cc:Work>
    </rdf:RDF>
  </metadata>
  <defs
     id="defs55584">
    <radialGradient
       id="Degradado_sin_nombre_10-3"
       cx="368.13"
       cy="1382.1899"
       fy="1347.6833"
       r="73.57"
       gradientTransform="matrix(0,-1.03,1.16,0,-1515.9665,284.38845)"
       xlink:href="#Degradado_sin_nombre_10" />
    <radialGradient
       id="Degradado_sin_nombre_10"
       cx="1222.55"
       cy="991.33002"
       fy="973.53265"
       r="37.939999"
       gradientTransform="matrix(0,-1.03,1.16,0,-29.69,1898.01)"
       gradientUnits="userSpaceOnUse">
      <stop
         offset="0"
         stop-color="#43b5e7"
         id="stop52331" />
      <stop
         offset="0.3"
         stop-color="#317fbb"
         id="stop52333" />
      <stop
         offset="0.62"
         stop-color="#214e93"
         id="stop52335" />
      <stop
         offset="0.86"
         stop-color="#172f79"
         id="stop52337" />
      <stop
         offset="1"
         stop-color="#132370"
         id="stop52339" />
    </radialGradient>
    <radialGradient
       id="Degradado_sin_nombre_10-4"
       cx="368.13"
       cy="1694.24"
       fy="1659.7378"
       r="73.57"
       gradientTransform="matrix(0,-1.03,1.16,0,-1705.4062,584.57731)"
       xlink:href="#Degradado_sin_nombre_10-7" />
    <radialGradient
       id="Degradado_sin_nombre_10-7"
       cx="1222.55"
       cy="991.33002"
       fy="973.53265"
       r="37.939999"
       gradientTransform="matrix(0,-1.03,1.16,0,-29.69,1898.01)"
       gradientUnits="userSpaceOnUse">
      <stop
         offset="0"
         stop-color="#43b5e7"
         id="stop52331-5" />
      <stop
         offset="0.3"
         stop-color="#317fbb"
         id="stop52333-5" />
      <stop
         offset="0.62"
         stop-color="#214e93"
         id="stop52335-4" />
      <stop
         offset="0.86"
         stop-color="#172f79"
         id="stop52337-6" />
      <stop
         offset="1"
         stop-color="#132370"
         id="stop52339-8" />
    </radialGradient>
    <radialGradient
       id="Degradado_sin_nombre_10-5"
       cx="368.13"
       cy="2006.3"
       fy="1971.7922"
       r="73.57"
       gradientTransform="matrix(0,-1.03,1.16,0,-1904.17,386.38002)"
       xlink:href="#Degradado_sin_nombre_10-2" />
    <radialGradient
       id="Degradado_sin_nombre_10-2"
       cx="1222.55"
       cy="991.33002"
       fy="973.53265"
       r="37.939999"
       gradientTransform="matrix(0,-1.03,1.16,0,-29.69,1898.01)"
       gradientUnits="userSpaceOnUse">
      <stop
         offset="0"
         stop-color="#43b5e7"
         id="stop52331-0" />
      <stop
         offset="0.3"
         stop-color="#317fbb"
         id="stop52333-1" />
      <stop
         offset="0.62"
         stop-color="#214e93"
         id="stop52335-3" />
      <stop
         offset="0.86"
         stop-color="#172f79"
         id="stop52337-4" />
      <stop
         offset="1"
         stop-color="#132370"
         id="stop52339-81" />
    </radialGradient>
  </defs>
  <sodipodi:namedview
     pagecolor="#ffffff"
     bordercolor="#666666"
     borderopacity="1"
     objecttolerance="10"
     gridtolerance="10"
     guidetolerance="10"
     inkscape:pageopacity="0"
     inkscape:pageshadow="2"
     inkscape:window-width="1920"
     inkscape:window-height="1001"
     id="namedview55582"
     showgrid="false"
     inkscape:zoom="2.36"
     inkscape:cx="129.87288"
     inkscape:cy="50"
     inkscape:window-x="-9"
     inkscape:window-y="-9"
     inkscape:window-maximized="1"
     inkscape:current-layer="g56186" />
  <g
     id="g56186"
     transform="translate(296.37529,-174.28916)">
    <g
       transform="translate(-196.81615,-163.4876)"
       id="g57547">
      <rect
         style="fill:#ffffff"
         id="rect53047"
         rx="89"
         height="180.35001"
         width="180.46001"
         y="339.50006"
         x="-97.839989"
         class="cls-9" />
      <rect
         style="fill:url(#Degradado_sin_nombre_10-5)"
         id="rect53049"
         transform="rotate(90)"
         rx="86.919998"
         height="173.95"
         width="173.84"
         y="-79.360023"
         x="342.74994"
         class="cls-55" />
      <path
         style="fill:#ffffff"
         inkscape:connector-curvature="0"
         id="path53051"
         d="m -36.160022,429.98999 a 1.22,1.22 0 0 0 -0.78,0.42 c -1.92,2.23 -3.81,4.48 -5.7,6.72 l -2,2.34 -0.18,-0.05 v -9.45 h -9.74 a 7.34,7.34 0 0 1 -7.54,-7.46 c 0,-7.41 0,-14.81 0,-22.22 a 7.46,7.46 0 0 1 7.55,-7.46 q 22.31,0.09 44.6100001,0 a 7.39,7.39 0 0 1 7.54,7.32 c 0.09,7.51 0.06,15 0,22.52 a 7.38,7.38 0 0 1 -5.6,7.17 c -0.47,0.11 -0.95,0.16 -1.42,0.23 v 5.29 c 0.66,-0.06 1.28,-0.07 1.87,-0.18 a 12.76,12.76 0 0 0 10.550004,-12.44 c 0.07,-7.56 0.14,-15.12 0,-22.67 a 12.26,12.26 0 0 0 -7.210004,-11.3 25.13,25.13 0 0 0 -4.14,-1.27 H -56.000022 a 3.38,3.38 0 0 1 -0.42,0.13 12.64,12.64 0 0 0 -11,12.11 q -0.15,11.65 0,23.33 a 12.52,12.52 0 0 0 10.23,12 47,47 0 0 0 6.06,0.26 h 1 v 0.88 c 0,2.72 0,5.43 0,8.15 a 4.39,4.39 0 0 0 0.14,1.31 3.36,3.36 0 0 0 2.7,2.46 3.23,3.23 0 0 0 3.3,-1.2 q 4.66,-5.5 9.32,-11 a 1.5,1.5 0 0 1 1.3,-0.62 c 2.77,0 5.53,0 8.3,0 0.26,0 0.52,0 0.79,0 v -5.23 a 3.11,3.11 0 0 0 -0.34,0 c -3.83,-0.11 -7.69,-0.11 -11.54,-0.09 z"
         class="cls-9" />
      <path
         style="fill:#ffffff"
         inkscape:connector-curvature="0"
         id="path53053"
         d="m 50.829982,428.53999 a 12.61,12.61 0 0 0 -12.6,-12.29 h -29.7899999 -0.78 v 5.3 H 38.079982 a 7.27,7.27 0 0 1 7.43,7.24 q 0.09,11.3 0,22.59 a 7.26,7.26 0 0 1 -7.41,7.27 h -9.9 v 9.63 l -0.46,-0.49 c -2.41,-2.85 -4.82,-5.69 -7.21,-8.55 a 1.52,1.52 0 0 0 -1.32,-0.6 q -12.8799999,0 -25.7800039,0 a 9.46,9.46 0 0 1 -1.92,-0.17 7.39,7.39 0 0 1 -5.7000001,-7.28 q 0,-11.09 0,-22.15 a 7.63,7.63 0 0 1 7.0600001,-7.55 v -5.33 c -0.78,0.09 -1.52,0.13 -2.23,0.28 a 12.82,12.82 0 0 0 -10.1800001,12.54 c 0,7.41 0,14.82 0,22.22 a 12.63,12.63 0 0 0 0.21,2.21 12.79,12.79 0 0 0 12.9000001,10.59 c 7.68,-0.13 15.370004,0 23.0000039,0 a 1.76,1.76 0 0 1 1.5,0.7 q 4.61,5.52 9.27,11 a 3.28,3.28 0 0 0 3.8,1.06 3.48,3.48 0 0 0 2.35,-3.26 c 0,-0.55 0,-1.09 0,-1.63 v -7.84 c 1.68,0 3.25,0 4.83,0 a 12.59,12.59 0 0 0 12.44,-12.28 q 0.24,-11.62 0.07,-23.21 z"
         class="cls-9" />
      <path
         style="fill:#ffffff"
         inkscape:connector-curvature="0"
         id="path53055"
         d="m 9.8499821,450.03999 a 12.94,12.94 0 0 0 7.7599999,-4.55 c 1.41,-1.76 2.73,-3.6 4.11,-5.43 a 3.89,3.89 0 0 1 1,6.44 7.68,7.68 0 0 1 -3.48,1.87 c -1,0.26 -2,0.44 -3,0.67 0.71,1 1.39,2 2.1,2.89 a 0.64,0.64 0 0 0 0.49,0.21 15.38,15.38 0 0 0 7,-2.49 c 3.63,-2.59 4.45,-10.63 -2,-13.25 l -0.8,-0.33 0.17,-0.85 -3.95,-0.71 c -0.4,0.39 -0.63,0.8 -0.9,0.83 -1.09,0.14 -2.2,0.16 -3.31,0.23 v -3.44 l 10.29,-0.93 -0.38,-4.19 -9.69,1.16 0.16,-3.31 -4.48,-0.34 -0.17,3.74 H 5.1599821 c 0.08,1.39 0.14,2.69 0.21,4 h 5.3799999 a 29.89,29.89 0 0 0 0,3 c 0.12,1.11 -0.11,1.86 -1.2899999,2.22 a 6,6 0 0 0 -1.58,0.95 9.42,9.42 0 0 0 -3.88,5.33 c -1.17,4.39 1.43,7.18 5.85,6.28 z m 7.5999999,-10.9 -2.06,3.16 -0.22,-0.07 c -0.07,-0.9 -0.14,-1.81 -0.22,-2.79 z m -9.4499999,5.7 a 3.91,3.91 0 0 1 1.57,-2.9 c 0.4,-0.35 0.8599999,-0.64 1.3999999,-1 0.2,1.53 0.38,2.89 0.54,4.25 0,0.16 -0.08,0.45 -0.18,0.47 a 9.94,9.94 0 0 1 -2.2699999,0.51 c -0.81,-0.06 -1.14,-0.56 -1.06,-1.33 z"
         class="cls-9" />
      <path
         style="fill:#ffffff"
         inkscape:connector-curvature="0"
         id="path53057"
         d="m -30.360022,396.83999 a 1,1 0 0 0 -0.7,-0.42 c -1.45,0 -2.91,0 -4.37,0 a 0.84,0.84 0 0 0 -0.94,0.67 q -4.44,11.76 -8.91,23.49 c -0.07,0.2 -0.12,0.4 -0.19,0.66 1.66,0 3.24,0 4.82,0 a 0.78,0.78 0 0 0 0.88,-0.64 c 0.55,-1.64 1.14,-3.25 1.72,-4.89 3,0 6,0 8.93,0 0.17,0 0.44,0.27 0.51,0.46 0.53,1.49 1,3 1.54,4.47 0.08,0.23 0.35,0.53 0.54,0.54 1.72,0 3.45,0 5.2,0 a 0.94,0.94 0 0 0 0,-0.28 q -4.51,-12.06 -9.03,-24.06 z m -6.25,14.73 3.17,-8.93 h 0.16 l 3.07,9 z"
         class="cls-9" />
    </g>
  </g>
</svg>
