<?xml version="1.0" encoding="UTF-8" standalone="no"?>
<!-- Created with Inkscape (http://www.inkscape.org/) -->

<svg
   xmlns:dc="http://purl.org/dc/elements/1.1/"
   xmlns:cc="http://creativecommons.org/ns#"
   xmlns:rdf="http://www.w3.org/1999/02/22-rdf-syntax-ns#"
   xmlns:svg="http://www.w3.org/2000/svg"
   xmlns="http://www.w3.org/2000/svg"
   xmlns:sodipodi="http://sodipodi.sourceforge.net/DTD/sodipodi-0.dtd"
   xmlns:inkscape="http://www.inkscape.org/namespaces/inkscape"
   version="1.1"
   id="svg22925"
   width="50"
   height="50"
   inkscape:version="0.92.4 (5da689c313, 2019-01-14)"
   sodipodi:docname="logout.svg">
  <metadata
     id="metadata22931">
    <rdf:RDF>
      <cc:Work
         rdf:about="">
        <dc:format>image/svg+xml</dc:format>
        <dc:type
           rdf:resource="http://purl.org/dc/dcmitype/StillImage" />
        <dc:title></dc:title>
      </cc:Work>
    </rdf:RDF>
  </metadata>
  <defs
     id="defs22929" />
  <sodipodi:namedview
     pagecolor="#ffffff"
     bordercolor="#666666"
     borderopacity="1"
     objecttolerance="10"
     gridtolerance="10"
     guidetolerance="10"
     inkscape:pageopacity="0"
     inkscape:pageshadow="2"
     inkscape:window-width="778"
     inkscape:window-height="480"
     id="namedview22927"
     showgrid="false"
     inkscape:zoom="2.36"
     inkscape:cx="28.142678"
     inkscape:cy="55.840939"
     inkscape:window-x="0"
     inkscape:window-y="0"
     inkscape:window-maximized="0"
     inkscape:current-layer="svg22925" />
  <g
     id="g23719"
     transform="translate(-16.101695,30.932203)">
    <path
       style="isolation:isolate;fill:#132370"
       inkscape:connector-curvature="0"
       class="cls-49"
       d="m 32.099146,-9.9810109 a 13.52,13.52 0 0 0 -0.08,6 1.66,1.66 0 0 1 -0.41,1.23 c -1.46,1.54 -3,3.00000005 -4.47,4.51 a 6.52,6.52 0 1 0 9.2,9.2199999 q 3.14,-3.1199999 6.26,-6.2599999 a 6.52,6.52 0 0 0 -1.91,-10.73 1.28,1.28 0 0 1 -0.62,-1 4.7,4.7 0 0 1 1.73,-3.6100001 0.92,0.92 0 0 1 0.81,-0.1 11.26,11.26 0 0 1 7,9.2900001 11.38,11.38 0 0 1 -3.57,9.92 c -2.05,1.9999999 -4.06,4.1099999 -6.13,6.1199999 -3.44,3.32 -7.51,4.41 -12,2.88 a 11.08,11.08 0 0 1 -7.83,-9.5699999 10.63,10.63 0 0 1 2.69,-8.92 c 2.5,-2.71 5.19,-5.25 7.81,-7.84 a 19.09,19.09 0 0 1 1.52,-1.14 z"
       id="path4452" />
    <path
       style="isolation:isolate;fill:#132370"
       inkscape:connector-curvature="0"
       class="cls-49"
       d="m 50.969146,3.1789891 a 13.68,13.68 0 0 0 0,-6.2 1.27,1.27 0 0 1 0.36,-1 c 1.52,-1.57 3.08,-3.09 4.61,-4.64 a 6.53,6.53 0 0 0 -4.25,-11.2300001 6,6 0 0 0 -4.71,1.79 12.28,12.28 0 0 0 -0.91,1.07 6.4,6.4 0 0 1 -1.19,-0.72 2.6,2.6 0 0 1 -0.77,-1.15 1,1 0 0 0 -1.11,-1 c -0.2,0 -0.37,-0.22 -0.47,-0.29 l -0.82,0.66 -0.29,-0.3 c 0.62,-0.62 1.22,-1.25 1.85,-1.84 a 11.2,11.2 0 0 1 11.44,-2.89 11.59,11.59 0 0 1 5.38,18.8700001 c -2.37,2.58 -4.92,5.00000005 -7.41,7.43 a 19,19 0 0 1 -1.71,1.44 z"
       id="path4454" />
    <path
       style="isolation:isolate;fill:#132370"
       inkscape:connector-curvature="0"
       class="cls-49"
       d="m 41.019146,-14.431011 a 17.36,17.36 0 0 1 -0.16,1.91 2.19,2.19 0 0 1 -0.53,1.09 6.43,6.43 0 0 0 -0.25,8.8800001 9.65,9.65 0 0 0 2.3,1.68000005 c 0.45,0.26 0.69,0.49 0.65,1 a 5.07,5.07 0 0 1 -1.75,3.61999995 1,1 0 0 1 -0.82,0.13 c -4.31,-1.56 -7.53,-6.8 -7.11,-11.4 a 11.93,11.93 0 0 1 3.47,-7.6100001 1.18,1.18 0 0 1 1.34,-0.46 2,2 0 0 0 1,0.07 2.38,2.38 0 0 1 2.2,1 z"
       id="path4456" />
    <path
       style="isolation:isolate;fill:#132370"
       inkscape:connector-curvature="0"
       class="cls-49"
       d="m 30.719146,-24.271011 2.54,-2.41 c 1.64,2.39 3.33,4.87 5,7.35 l -0.14,0.13 z"
       id="path4458" />
    <path
       style="isolation:isolate;fill:#132370"
       inkscape:connector-curvature="0"
       class="cls-49"
       d="m 36.439146,-16.731011 -8.88,1.66 v -3.52 l 8.88,1.67 z"
       id="path4460" />
    <path
       style="isolation:isolate;fill:#132370"
       inkscape:connector-curvature="0"
       class="cls-49"
       d="m 40.579146,-20.901011 -1.69,-8.95 h 3.52 l -1.69,9 z"
       id="path4462" />
  </g>
</svg>
