<?xml version="1.0" encoding="UTF-8" standalone="no"?>
<!-- Created with Inkscape (http://www.inkscape.org/) -->

<svg
   xmlns:dc="http://purl.org/dc/elements/1.1/"
   xmlns:cc="http://creativecommons.org/ns#"
   xmlns:rdf="http://www.w3.org/1999/02/22-rdf-syntax-ns#"
   xmlns:svg="http://www.w3.org/2000/svg"
   xmlns="http://www.w3.org/2000/svg"
   xmlns:sodipodi="http://sodipodi.sourceforge.net/DTD/sodipodi-0.dtd"
   xmlns:inkscape="http://www.inkscape.org/namespaces/inkscape"
   version="1.1"
   id="svg30124"
   width="102"
   height="113"
   inkscape:version="0.92.4 (5da689c313, 2019-01-14)"
   sodipodi:docname="logout-title.svg">
  <metadata
     id="metadata30130">
    <rdf:RDF>
      <cc:Work
         rdf:about="">
        <dc:format>image/svg+xml</dc:format>
        <dc:type
           rdf:resource="http://purl.org/dc/dcmitype/StillImage" />
        <dc:title></dc:title>
      </cc:Work>
    </rdf:RDF>
  </metadata>
  <defs
     id="defs30128" />
  <sodipodi:namedview
     pagecolor="#ffffff"
     bordercolor="#666666"
     borderopacity="1"
     objecttolerance="10"
     gridtolerance="10"
     guidetolerance="10"
     inkscape:pageopacity="0"
     inkscape:pageshadow="2"
     inkscape:window-width="1920"
     inkscape:window-height="1001"
     id="namedview30126"
     showgrid="false"
     inkscape:zoom="2.36"
     inkscape:cx="50"
     inkscape:cy="50"
     inkscape:window-x="-9"
     inkscape:window-y="-9"
     inkscape:window-maximized="1"
     inkscape:current-layer="svg30124" />
  <g
     id="g30104"
     transform="translate(-458.47053,-771.56814)">
    <path
       id="path28108"
       d="m 518,832.31 a 4.75,4.75 0 0 1 -4.75,-4.78 4.7,4.7 0 0 1 9.39,-0.09 4.75,4.75 0 0 1 -4.64,4.87 z"
       class="cls-9"
       inkscape:connector-curvature="0"
       style="fill:#ffffff" />
    <path
       id="path28110"
       d="m 494.51,827.53 a 4.53,4.53 0 0 1 -4.65,4.77 4.72,4.72 0 0 1 -4.63,-4.58 4.63,4.63 0 0 1 4.84,-4.86 4.55,4.55 0 0 1 4.44,4.67 z"
       class="cls-9"
       inkscape:connector-curvature="0"
       style="fill:#ffffff" />
    <path
       id="path28112"
       d="m 503.8,822.83 a 4.7501684,4.7501684 0 1 1 0.08,9.5 4.7501684,4.7501684 0 0 1 -0.08,-9.5 z"
       class="cls-9"
       inkscape:connector-curvature="0"
       style="fill:#ffffff" />
    <path
       id="path28114"
       d="m 487.44,817.89 a 31.74,31.74 0 0 0 -0.2,14 3.75,3.75 0 0 1 -0.94,2.84 c -3.38,3.57 -6.92,7 -10.38,10.47 -6.28,6.33 -6.45,15.73 -0.43,21.76 6.02,6.03 15.51,5.87 21.78,-0.37 4.85,-4.83 9.71,-9.66 14.53,-14.53 7.83,-7.92 5.63,-20 -4.43,-24.89 a 3,3 0 0 1 -1.44,-2.26 10.91,10.91 0 0 1 4,-8.38 2.14,2.14 0 0 1 1.88,-0.22 c 9.33,4.21 14.94,11.33 16.24,21.54 1.15,9 -1.86,16.66 -8.28,23 -4.76,4.71 -9.42,9.52 -14.23,14.19 -8,7.71 -17.41,10.23 -27.92,6.7 -10.51,-3.53 -16.62,-11.22 -18.16,-22.18 a 24.62,24.62 0 0 1 6.25,-20.7 c 5.78,-6.29 12,-12.17 18.11,-18.19 a 38.51,38.51 0 0 1 3.62,-2.78 z"
       class="cls-9"
       inkscape:connector-curvature="0"
       style="fill:#ffffff" />
    <path
       id="path28116"
       d="m 531.23,848.41 a 32.15,32.15 0 0 0 0.09,-14.37 3,3 0 0 1 0.83,-2.26 c 3.51,-3.64 7.14,-7.18 10.7,-10.77 4.58,-4.62 5.93,-10.11 3.71,-16.18 -2.22,-6.07 -7,-9.47 -13.57,-9.88 a 14,14 0 0 0 -10.94,4.16 24.6,24.6 0 0 0 -2.1,2.5 15.21,15.21 0 0 1 -2.77,-1.69 6.13,6.13 0 0 1 -1.79,-2.67 2.39,2.39 0 0 0 -2.58,-2.2 c -0.45,0 -0.86,-0.51 -1.09,-0.66 l -1.89,1.52 -0.67,-0.7 c 1.42,-1.43 2.82,-2.88 4.28,-4.27 7.59,-7.22 16.57,-9.59 26.55,-6.71 9.98,2.88 16.28,9.69 18.67,19.75 a 25.38,25.38 0 0 1 -6.2,24 c -5.48,6 -11.41,11.55 -17.19,17.24 a 47,47 0 0 1 -4.04,3.19 z"
       class="cls-9"
       inkscape:connector-curvature="0"
       style="fill:#ffffff" />
    <path
       id="path28118"
       d="m 508.13,807.56 a 40.71,40.71 0 0 1 -0.37,4.43 5.26,5.26 0 0 1 -1.22,2.53 c -5.62,5.94 -6,14.69 -0.6,20.61 a 22.39,22.39 0 0 0 5.35,3.89 c 1,0.6 1.6,1.13 1.51,2.35 a 11.76,11.76 0 0 1 -4.06,8.39 2.27,2.27 0 0 1 -1.92,0.3 c -10,-3.61 -17.46,-15.78 -16.49,-26.45 A 27.73,27.73 0 0 1 498.38,806 c 0.91,-0.92 1.74,-1.52 3.11,-1.07 a 4.45,4.45 0 0 0 2.2,0.18 c 2.28,-0.44 3.71,0.82 5.12,2.21 z"
       class="cls-9"
       inkscape:connector-curvature="0"
       style="fill:#ffffff" />
    <path
       id="path28120"
       d="m 484.23,784.72 5.89,-5.59 11.65,17 -0.31,0.3 z"
       class="cls-9"
       inkscape:connector-curvature="0"
       style="fill:#ffffff" />
    <path
       id="path28122"
       d="m 497.51,802.22 -20.6,3.85 v -8.17 l 20.61,3.89 z"
       class="cls-9"
       inkscape:connector-curvature="0"
       style="fill:#ffffff" />
    <path
       id="path28124"
       d="m 507.11,792.44 -3.92,-20.78 h 8.16 c -1.31,7 -2.61,13.93 -3.91,20.85 z"
       class="cls-9"
       inkscape:connector-curvature="0"
       style="fill:#ffffff" />
  </g>
</svg>
