<?xml version="1.0" encoding="UTF-8" standalone="no"?>
<!-- Created with Inkscape (http://www.inkscape.org/) -->

<svg
   xmlns:dc="http://purl.org/dc/elements/1.1/"
   xmlns:cc="http://creativecommons.org/ns#"
   xmlns:rdf="http://www.w3.org/1999/02/22-rdf-syntax-ns#"
   xmlns:svg="http://www.w3.org/2000/svg"
   xmlns="http://www.w3.org/2000/svg"
   xmlns:sodipodi="http://sodipodi.sourceforge.net/DTD/sodipodi-0.dtd"
   xmlns:inkscape="http://www.inkscape.org/namespaces/inkscape"
   version="1.1"
   id="svg42676"
   width="42"
   height="42"
   inkscape:version="0.92.4 (5da689c313, 2019-01-14)"
   sodipodi:docname="myprofile.svg">
  <metadata
     id="metadata42682">
    <rdf:RDF>
      <cc:Work
         rdf:about="">
        <dc:format>image/svg+xml</dc:format>
        <dc:type
           rdf:resource="http://purl.org/dc/dcmitype/StillImage" />
        <dc:title></dc:title>
      </cc:Work>
    </rdf:RDF>
  </metadata>
  <defs
     id="defs42680" />
  <sodipodi:namedview
     pagecolor="#ffffff"
     bordercolor="#666666"
     borderopacity="1"
     objecttolerance="10"
     gridtolerance="10"
     guidetolerance="10"
     inkscape:pageopacity="0"
     inkscape:pageshadow="2"
     inkscape:window-width="1920"
     inkscape:window-height="1001"
     id="namedview42678"
     showgrid="false"
     inkscape:zoom="2.36"
     inkscape:cx="-29.025424"
     inkscape:cy="50"
     inkscape:window-x="-9"
     inkscape:window-y="-9"
     inkscape:window-maximized="1"
     inkscape:current-layer="g42102" />
  <g
     id="g43240"
     transform="translate(172.61707,-1134.4722)">
    <g
       transform="translate(-366.83434,-15.016611)"
       id="g42102">
      <path
         style="fill:#ffffff;fill-opacity:1"
         inkscape:connector-curvature="0"
         class="cls-42"
         d="m 209.62,1170.7 a 10.36,10.36 0 0 0 12.46,-0.25 10.89,10.89 0 0 0 4.3,-8.92 9.94,9.94 0 0 0 -0.64,-3.62 10.69,10.69 0 0 0 -3.18,-4.65 10.2,10.2 0 0 0 -9.56,-2.26 11.08,11.08 0 0 0 -3.39,19.67 z"
         id="path38783" />
      <path
         style="fill:#ffffff;fill-opacity:1"
         inkscape:connector-curvature="0"
         class="cls-42"
         d="m 196.16,1185.59 a 19.66,19.66 0 0 0 -0.88,5.7 c 0,0.3 0.09,0.38 0.4,0.38 h 39.44 c 0.32,0 0.44,-0.08 0.4,-0.37 -0.15,-1.29 -0.19,-2.59 -0.44,-3.85 a 19.93,19.93 0 0 0 -4.82,-9.55 20.32,20.32 0 0 0 -6.93,-5 0.47,0.47 0 0 0 -0.6,0.09 9.33,9.33 0 0 1 -3.29,1.9 10.85,10.85 0 0 1 -11,-2.09 0.4,0.4 0 0 0 -0.49,-0.08 20.84,20.84 0 0 0 -4.8,2.79 20.42,20.42 0 0 0 -6.99,10.08 z"
         id="path38785" />
    </g>
  </g>
</svg>
