<?xml version="1.0" encoding="UTF-8" standalone="no"?>
<!-- Created with Inkscape (http://www.inkscape.org/) -->

<svg
   xmlns:dc="http://purl.org/dc/elements/1.1/"
   xmlns:cc="http://creativecommons.org/ns#"
   xmlns:rdf="http://www.w3.org/1999/02/22-rdf-syntax-ns#"
   xmlns:svg="http://www.w3.org/2000/svg"
   xmlns="http://www.w3.org/2000/svg"
   xmlns:sodipodi="http://sodipodi.sourceforge.net/DTD/sodipodi-0.dtd"
   xmlns:inkscape="http://www.inkscape.org/namespaces/inkscape"
   version="1.1"
   id="svg42676"
   width="42"
   height="42"
   inkscape:version="0.92.4 (5da689c313, 2019-01-14)"
   sodipodi:docname="phone.svg">
  <metadata
     id="metadata42682">
    <rdf:RDF>
      <cc:Work
         rdf:about="">
        <dc:format>image/svg+xml</dc:format>
        <dc:type
           rdf:resource="http://purl.org/dc/dcmitype/StillImage" />
        <dc:title></dc:title>
      </cc:Work>
    </rdf:RDF>
  </metadata>
  <defs
     id="defs42680" />
  <sodipodi:namedview
     pagecolor="#ffffff"
     bordercolor="#666666"
     borderopacity="1"
     objecttolerance="10"
     gridtolerance="10"
     guidetolerance="10"
     inkscape:pageopacity="0"
     inkscape:pageshadow="2"
     inkscape:window-width="1920"
     inkscape:window-height="1001"
     id="namedview42678"
     showgrid="false"
     inkscape:zoom="2.36"
     inkscape:cx="51.059322"
     inkscape:cy="50"
     inkscape:window-x="-9"
     inkscape:window-y="-9"
     inkscape:window-maximized="1"
     inkscape:current-layer="svg42676" />
  <g
     id="g43291">
    <path
       style="fill:#075ea3"
       inkscape:connector-curvature="0"
       id="path38813"
       d="m 36.5681,39.179849 c -4,3.51 -8.14,3.27 -13,0.14 -4.86,-3.13 -8.47,-7.32 -11.75,-12 a 66.89,66.89 0 0 1 -4.9000003,-7.6 23.78,23.78 0 0 1 -3,-10.2000003 c -0.18,-3.91 1.75,-6.58 5,-8.49 a 1.83,1.83 0 0 1 2.5700003,0.6 q 2.63,3.4 5.11,6.9 c 0.84,1.17 0.55,2.3500003 -0.71,3.2700003 a 4.71,4.71 0 0 0 -2.09,2.46 3.66,3.66 0 0 0 0.64,3.24 c 2.29,3.15 4.7,6.22 6.88,9.46 a 24,24 0 0 0 1.59,1.91 3.52,3.52 0 0 0 5.24,0.68 c 2.35,-1.69 3.05,-1.53 4.77,0.88 1.35,1.89 2.78,3.71 4.14,5.59 0.88,1.34 0.73,2.06 -0.49,3.16 z"
       class="cls-42" />
  </g>
</svg>
