<?xml version="1.0" encoding="UTF-8" standalone="no"?>
<!-- Created with Inkscape (http://www.inkscape.org/) -->

<svg
   xmlns:dc="http://purl.org/dc/elements/1.1/"
   xmlns:cc="http://creativecommons.org/ns#"
   xmlns:rdf="http://www.w3.org/1999/02/22-rdf-syntax-ns#"
   xmlns:svg="http://www.w3.org/2000/svg"
   xmlns="http://www.w3.org/2000/svg"
   xmlns:sodipodi="http://sodipodi.sourceforge.net/DTD/sodipodi-0.dtd"
   xmlns:inkscape="http://www.inkscape.org/namespaces/inkscape"
   version="1.1"
   id="svg43405"
   width="42"
   height="42"
   sodipodi:docname="profesion.svg"
   inkscape:version="0.92.4 (5da689c313, 2019-01-14)">
  <metadata
     id="metadata43411">
    <rdf:RDF>
      <cc:Work
         rdf:about="">
        <dc:format>image/svg+xml</dc:format>
        <dc:type
           rdf:resource="http://purl.org/dc/dcmitype/StillImage" />
        <dc:title></dc:title>
      </cc:Work>
    </rdf:RDF>
  </metadata>
  <defs
     id="defs43409" />
  <sodipodi:namedview
     pagecolor="#ffffff"
     bordercolor="#666666"
     borderopacity="1"
     objecttolerance="10"
     gridtolerance="10"
     guidetolerance="10"
     inkscape:pageopacity="0"
     inkscape:pageshadow="2"
     inkscape:window-width="773"
     inkscape:window-height="480"
     id="namedview43407"
     showgrid="false"
     inkscape:zoom="2.36"
     inkscape:cx="50"
     inkscape:cy="50"
     inkscape:window-x="0"
     inkscape:window-y="0"
     inkscape:window-maximized="0"
     inkscape:current-layer="svg43405" />
  <g
     id="g44055"
     transform="translate(-193.9051,-1851.5318)">
    <path
       id="path38889"
       d="m 233.84,1869.68 a 3.19,3.19 0 0 0 -3.62,0.49 c -0.92,0.83 -1.82,1.68 -2.73,2.52 l -2.26,2.1 a 4.78,4.78 0 0 1 -3.88,7.52 c -2,0 -3.94,0 -5.9,0 -0.34,0 -0.69,0 -1,0 a 0.68,0.68 0 0 1 0,-1.36 h 6.76 a 3.42,3.42 0 1 0 0,-6.83 c -4.51,0 -9,0 -13.51,0 a 8.64,8.64 0 0 0 -1.82,0.23 c -2.2,0.46 -3.62,2 -5,3.53 L 210,1887 a 2.28,2.28 0 0 1 1.75,-0.63 c 3.59,0 7.19,0 10.78,0 a 7.26,7.26 0 0 0 6,-3 c 2.19,-2.94 4.32,-5.94 6.47,-8.91 a 3,3 0 0 0 0.6,-1.75 3.17,3.17 0 0 0 -1.76,-3.03 z"
       class="cls-42"
       inkscape:connector-curvature="0"
       style="fill:#075ea3" />
    <path
       id="path38891"
       d="m 220,1863.92 c 0,0.52 0.17,1.29 -0.68,1.3 -0.85,0.01 -0.64,-0.79 -0.72,-1.31 h -6.8 c -0.07,1 -0.22,1.35 -0.68,1.32 -0.89,0 -0.67,-0.78 -0.74,-1.43 h -4.07 c 0,0 0,0.11 0,0.22 v 5.21 a 2.07,2.07 0 0 0 2.19,2.16 h 13.42 a 2.07,2.07 0 0 0 2.19,-2.21 v -5.4 z"
       class="cls-42"
       inkscape:connector-curvature="0"
       style="fill:#075ea3" />
    <path
       id="path38893"
       d="m 207.36,1862.49 c 1,0.06 2,0 3,0 0.09,-1.08 0.22,-1.33 0.68,-1.35 0.46,-0.02 0.61,0.22 0.76,1.33 h 6.78 c 0.06,-0.53 -0.15,-1.28 0.66,-1.31 0.81,-0.03 0.68,0.78 0.75,1.34 h 0.51 c 0.81,0 1.62,0 2.43,0 a 2.7,2.7 0 0 0 2.51,-2.57 q 0,-1.11 0,-2.22 a 1.37,1.37 0 0 0 -1.35,-1.34 H 206.4 a 1.39,1.39 0 0 0 -1.52,1.51 c 0,0.66 0,1.31 0,2 a 2.69,2.69 0 0 0 2.48,2.61 z"
       class="cls-42"
       inkscape:connector-curvature="0"
       style="fill:#075ea3" />
    <path
       id="path38895"
       d="m 199.88,1879 a 1.93,1.93 0 0 0 -1.24,-0.58 2.14,2.14 0 0 0 -1.71,0.65 l -2,2 c -0.47,0.48 -0.47,0.79 0,1.27 l 2.88,2.87 7.76,7.75 c 0.45,0.44 0.79,0.48 1.18,0.09 0.73,-0.7 1.45,-1.41 2.15,-2.14 a 2,2 0 0 0 0,-2.85 q -4.49,-4.58 -9.02,-9.06 z"
       class="cls-42"
       inkscape:connector-curvature="0"
       style="fill:#075ea3" />
    <path
       id="path38897"
       d="m 211.7,1855 c 0.19,-0.9 0.65,-1.34 1.43,-1.35 1.35,0 2.71,0 4.06,0 a 1.37,1.37 0 0 1 1.34,1 c 0,0.1 0.05,0.21 0.08,0.3 h 1.3 a 2.66,2.66 0 0 0 -2.55,-2.7 q -2.22,-0.06 -4.44,0 a 2.63,2.63 0 0 0 -2.52,2.7 z"
       class="cls-42"
       inkscape:connector-curvature="0"
       style="fill:#075ea3" />
  </g>
</svg>
