<?xml version="1.0" encoding="UTF-8" standalone="no"?>
<!-- Created with Inkscape (http://www.inkscape.org/) -->

<svg
   xmlns:dc="http://purl.org/dc/elements/1.1/"
   xmlns:cc="http://creativecommons.org/ns#"
   xmlns:rdf="http://www.w3.org/1999/02/22-rdf-syntax-ns#"
   xmlns:svg="http://www.w3.org/2000/svg"
   xmlns="http://www.w3.org/2000/svg"
   xmlns:sodipodi="http://sodipodi.sourceforge.net/DTD/sodipodi-0.dtd"
   xmlns:inkscape="http://www.inkscape.org/namespaces/inkscape"
   version="1.1"
   id="svg22925"
   width="50"
   height="50"
   inkscape:version="0.92.4 (5da689c313, 2019-01-14)"
   sodipodi:docname="profile.svg">
  <metadata
     id="metadata22931">
    <rdf:RDF>
      <cc:Work
         rdf:about="">
        <dc:format>image/svg+xml</dc:format>
        <dc:type
           rdf:resource="http://purl.org/dc/dcmitype/StillImage" />
        <dc:title></dc:title>
      </cc:Work>
    </rdf:RDF>
  </metadata>
  <defs
     id="defs22929" />
  <sodipodi:namedview
     pagecolor="#ffffff"
     bordercolor="#666666"
     borderopacity="1"
     objecttolerance="10"
     gridtolerance="10"
     guidetolerance="10"
     inkscape:pageopacity="0"
     inkscape:pageshadow="2"
     inkscape:window-width="778"
     inkscape:window-height="480"
     id="namedview22927"
     showgrid="false"
     inkscape:zoom="2.36"
     inkscape:cx="51.059322"
     inkscape:cy="50"
     inkscape:window-x="0"
     inkscape:window-y="0"
     inkscape:window-maximized="0"
     inkscape:current-layer="svg22925" />
  <g
     id="g23516"
     transform="matrix(1.2420748,0,0,1.2420748,-91.5052,32.791969)">
    <path
       style="isolation:isolate;fill:#132370"
       inkscape:connector-curvature="0"
       class="cls-49"
       d="m 104.37384,-14.977755 a 9.62,9.62 0 0 0 -0.6,-3.39 10.09,10.09 0 0 0 -3,-4.37 9.59,9.59 0 0 0 -8.999997,-2.09 10.39,10.39 0 0 0 -3.18,18.4599996 9.73,9.73 0 0 0 11.689997,-0.23 10.2,10.2 0 0 0 4.09,-8.3799996 z"
       id="path4490" />
    <path
       style="isolation:isolate;fill:#132370"
       inkscape:connector-curvature="0"
       class="cls-49"
       d="m 92.293843,-3.0977554 a 10.28,10.28 0 0 1 -4.79,-2.56 0.36,0.36 0 0 0 -0.46,-0.08 19.09,19.09 0 0 0 -4.5,2.81 20.67,20.67 0 0 0 -6.54,10.13 21.34,21.34 0 0 0 -0.82,5.7400004 c 0,0.3 0.08,0.38 0.38,0.38 h 14.53 l 2.86,-12.42000039 -2,-2.00000001 z"
       id="path4492" />
    <path
       style="isolation:isolate;fill:#132370"
       inkscape:connector-curvature="0"
       class="cls-49"
       d="m 112.53384,9.0622446 a 20.59,20.59 0 0 0 -4.53,-9.58999999 19.07,19.07 0 0 0 -6.5,-5.00000001 0.42,0.42 0 0 0 -0.56,0.09 8.61,8.61 0 0 1 -3.079997,1.91 12.32,12.32 0 0 1 -2.2,0.53 l 1.29,1.9 -2,2.00000001 2.86,12.40000039 h 14.759997 c 0.3,0 0.41,-0.08 0.37,-0.38 -0.13,-1.28 -0.18,-2.58 -0.41,-3.8600004 z"
       id="path4494" />
  </g>
</svg>
