<?xml version="1.0" encoding="UTF-8" standalone="no"?>
<!-- Created with Inkscape (http://www.inkscape.org/) -->

<svg
   xmlns:dc="http://purl.org/dc/elements/1.1/"
   xmlns:cc="http://creativecommons.org/ns#"
   xmlns:rdf="http://www.w3.org/1999/02/22-rdf-syntax-ns#"
   xmlns:svg="http://www.w3.org/2000/svg"
   xmlns="http://www.w3.org/2000/svg"
   xmlns:sodipodi="http://sodipodi.sourceforge.net/DTD/sodipodi-0.dtd"
   xmlns:inkscape="http://www.inkscape.org/namespaces/inkscape"
   version="1.1"
   id="svg20007"
   width="54"
   height="54"
   inkscape:version="0.92.4 (5da689c313, 2019-01-14)"
   sodipodi:docname="search.svg">
  <metadata
     id="metadata20013">
    <rdf:RDF>
      <cc:Work
         rdf:about="">
        <dc:format>image/svg+xml</dc:format>
        <dc:type
           rdf:resource="http://purl.org/dc/dcmitype/StillImage" />
        <dc:title></dc:title>
      </cc:Work>
    </rdf:RDF>
  </metadata>
  <defs
     id="defs20011" />
  <sodipodi:namedview
     pagecolor="#ffffff"
     bordercolor="#666666"
     borderopacity="1"
     objecttolerance="10"
     gridtolerance="10"
     guidetolerance="10"
     inkscape:pageopacity="0"
     inkscape:pageshadow="2"
     inkscape:window-width="1920"
     inkscape:window-height="1001"
     id="namedview20009"
     showgrid="false"
     inkscape:zoom="2.36"
     inkscape:cx="50"
     inkscape:cy="50"
     inkscape:window-x="-9"
     inkscape:window-y="-9"
     inkscape:window-maximized="1"
     inkscape:current-layer="svg20007" />
  <path
     id="path2194"
     d="m 47.392068,52.984848 a 4.55,4.55 0 0 1 -2,-0.81 21.79,21.79 0 0 1 -1.6,-1.54 q -5.21,-5.19 -10.39,-10.39 l -0.23,-0.24 a 22.59,22.59 0 0 0 6.71,-6.71 c 0.39,0.41 0.76,0.8 1.13,1.17 3.46,3.46 6.9,6.92 10.37,10.36 a 4.78,4.78 0 0 1 0,6.84 4.57,4.57 0 0 1 -2.47,1.25 1.06,1.06 0 0 0 -0.19,0.06 z"
     class="cls-97"
     inkscape:connector-curvature="0"
     style="isolation:isolate;fill:#808080" />
  <path
     id="path2196"
     d="m 40.162068,21.474848 a 18.95,18.95 0 1 1 -18.67,-19 19,19 0 0 1 18.67,19 z m -4.74,0 a 14.21,14.21 0 1 0 -14.63,14.16 14.18,14.18 0 0 0 14.63,-14.18 z"
     class="cls-97"
     inkscape:connector-curvature="0"
     style="isolation:isolate;fill:#808080" />
  <path
     id="path2198"
     d="m 21.202068,10.404848 v 3.11 a 8,8 0 0 0 -7.89,7.88 h -3.11 a 11,11 0 0 1 11,-10.99 z"
     class="cls-97"
     inkscape:connector-curvature="0"
     style="isolation:isolate;fill:#808080" />
</svg>
