<?xml version="1.0" encoding="UTF-8" standalone="no"?>
<!-- Created with Inkscape (http://www.inkscape.org/) -->

<svg
   xmlns:dc="http://purl.org/dc/elements/1.1/"
   xmlns:cc="http://creativecommons.org/ns#"
   xmlns:rdf="http://www.w3.org/1999/02/22-rdf-syntax-ns#"
   xmlns:svg="http://www.w3.org/2000/svg"
   xmlns="http://www.w3.org/2000/svg"
   xmlns:sodipodi="http://sodipodi.sourceforge.net/DTD/sodipodi-0.dtd"
   xmlns:inkscape="http://www.inkscape.org/namespaces/inkscape"
   version="1.1"
   id="svg45901"
   width="115"
   height="115"
   inkscape:version="0.92.4 (5da689c313, 2019-01-14)"
   sodipodi:docname="setting-title.svg">
  <metadata
     id="metadata45907">
    <rdf:RDF>
      <cc:Work
         rdf:about="">
        <dc:format>image/svg+xml</dc:format>
        <dc:type
           rdf:resource="http://purl.org/dc/dcmitype/StillImage" />
        <dc:title></dc:title>
      </cc:Work>
    </rdf:RDF>
  </metadata>
  <defs
     id="defs45905" />
  <sodipodi:namedview
     pagecolor="#ffffff"
     bordercolor="#666666"
     borderopacity="1"
     objecttolerance="10"
     gridtolerance="10"
     guidetolerance="10"
     inkscape:pageopacity="0"
     inkscape:pageshadow="2"
     inkscape:window-width="1920"
     inkscape:window-height="1001"
     id="namedview45903"
     showgrid="false"
     inkscape:zoom="2.36"
     inkscape:cx="50"
     inkscape:cy="50"
     inkscape:window-x="-9"
     inkscape:window-y="-9"
     inkscape:window-maximized="1"
     inkscape:current-layer="svg45901" />
  <g
     id="g45295"
     transform="translate(-431.68786,-769.89219)">
    <path
       id="path44728"
       d="m 545,827.66 v 7 a 4.67,4.67 0 0 1 -3.72,4.87 10.48,10.48 0 0 1 -2.43,0.58 c -4.34,0.24 -7.09,2.17 -8.16,6.63 -0.38,1.56 -0.63,2.7 0.34,4.07 1.17,1.66 2.17,3.44 3.2,5.2 a 4.77,4.77 0 0 1 -0.73,6.33 c -3.27,3.27 -6.54,6.56 -9.83,9.82 a 4.84,4.84 0 0 1 -6.34,0.75 12.76,12.76 0 0 1 -2.13,-1.3 c -3.2,-2.8 -6.47,-3.16 -10.25,-0.95 -1.38,0.82 -2.39,1.43 -2.68,3.07 -0.35,2 -0.87,4 -1.36,6 a 4.71,4.71 0 0 1 -4.93,4 c -4.82,0 -9.64,0 -14.45,0 a 4.4,4.4 0 0 1 -4.42,-3.53 13,13 0 0 1 -0.55,-2.44 c -0.37,-4.36 -2.23,-7.31 -6.83,-8.36 -1.46,-0.33 -2.52,-0.61 -3.8,0.28 -1.66,1.17 -3.44,2.19 -5.18,3.23 -2.36,1.41 -4.58,1.3 -6.58,-0.69 -3.28,-3.27 -6.56,-6.53 -9.82,-9.82 a 4.75,4.75 0 0 1 -0.69,-6.33 c 0.91,-1.51 1.74,-3.07 2.77,-4.49 1.25,-1.73 1.13,-3.22 0.55,-5.32 -1.09,-3.93 -3.42,-5.58 -7.17,-5.94 a 18.15,18.15 0 0 1 -3.25,-0.72 4.66,4.66 0 0 1 -3.74,-4.61 c -0.09,-4.72 -0.09,-9.44 0,-14.17 a 4.84,4.84 0 0 1 4.22,-5.08 11.46,11.46 0 0 1 1.89,-0.43 c 4.84,-0.15 7.48,-2.83 8.43,-7.37 a 4.53,4.53 0 0 0 -0.2,-2.78 c -1,-2.06 -2.35,-4 -3.53,-6 a 4.58,4.58 0 0 1 0.73,-6.08 q 5,-5 10,-10 a 4.69,4.69 0 0 1 6.09,-0.74 13.14,13.14 0 0 1 2.36,1.46 c 3.11,2.73 6.23,3.18 10,1 1.6,-0.93 2.61,-1.7 2.91,-3.54 0.32,-2 0.89,-4 1.41,-5.94 a 4.48,4.48 0 0 1 4.6,-3.67 c 4.72,0 9.45,0 14.17,0 a 4.76,4.76 0 0 1 5,3.92 c 0.2,0.72 0.36,1.44 0.53,2.16 1.54,6.34 1.53,6.38 7.61,8.54 a 3.53,3.53 0 0 0 2.49,-0.33 c 2,-1.08 4,-2.37 6,-3.53 a 4.67,4.67 0 0 1 6.1,0.72 q 5.05,5 10,10 a 4.67,4.67 0 0 1 0.68,6.1 c -0.42,0.72 -0.86,1.43 -1.29,2.15 -3.25,5.51 -3.28,5.52 -0.59,11.22 a 3.5,3.5 0 0 0 2,1.54 c 2.12,0.65 4.31,1 6.46,1.61 3,0.79 4.09,2.24 4.14,5.38 0,2.22 0,4.45 0,6.67 z m -55.91,-30.49 a 30.39,30.39 0 1 0 30.28,30.33 30.47,30.47 0 0 0 -30.28,-30.33 z"
       class="cls-9"
       inkscape:connector-curvature="0"
       style="fill:#ffffff" />
    <path
       id="path44730"
       d="m 503,832.31 a 4.75,4.75 0 0 1 -4.75,-4.78 4.7,4.7 0 0 1 9.39,-0.09 4.75,4.75 0 0 1 -4.64,4.87 z"
       class="cls-9"
       inkscape:connector-curvature="0"
       style="fill:#ffffff" />
    <path
       id="path44732"
       d="m 479.51,827.53 a 4.53,4.53 0 0 1 -4.65,4.77 4.72,4.72 0 0 1 -4.63,-4.58 4.63,4.63 0 0 1 4.84,-4.86 4.55,4.55 0 0 1 4.44,4.67 z"
       class="cls-9"
       inkscape:connector-curvature="0"
       style="fill:#ffffff" />
    <path
       id="path44734"
       d="m 488.8,822.83 a 4.7501684,4.7501684 0 1 1 0.08,9.5 4.7501684,4.7501684 0 0 1 -0.08,-9.5 z"
       class="cls-9"
       inkscape:connector-curvature="0"
       style="fill:#ffffff" />
  </g>
</svg>
