<?xml version="1.0" encoding="UTF-8" standalone="no"?>
<!-- Created with Inkscape (http://www.inkscape.org/) -->

<svg
   xmlns:dc="http://purl.org/dc/elements/1.1/"
   xmlns:cc="http://creativecommons.org/ns#"
   xmlns:rdf="http://www.w3.org/1999/02/22-rdf-syntax-ns#"
   xmlns:svg="http://www.w3.org/2000/svg"
   xmlns="http://www.w3.org/2000/svg"
   xmlns:sodipodi="http://sodipodi.sourceforge.net/DTD/sodipodi-0.dtd"
   xmlns:inkscape="http://www.inkscape.org/namespaces/inkscape"
   version="1.1"
   id="svg22359"
   width="132"
   height="132"
   inkscape:version="0.92.4 (5da689c313, 2019-01-14)"
   sodipodi:docname="user2.svg">
  <metadata
     id="metadata22365">
    <rdf:RDF>
      <cc:Work
         rdf:about="">
        <dc:format>image/svg+xml</dc:format>
        <dc:type
           rdf:resource="http://purl.org/dc/dcmitype/StillImage" />
        <dc:title></dc:title>
      </cc:Work>
    </rdf:RDF>
  </metadata>
  <defs
     id="defs22363">
    <clipPath
       id="clip-path-2">
      <path
         inkscape:connector-curvature="0"
         id="path875"
         d="m 3042,2086.7 a 57.35,57.35 0 1 1 57.5,-57.12 57.32,57.32 0 0 1 -57.5,57.12 z"
         class="cls-1" />
    </clipPath>
  </defs>
  <sodipodi:namedview
     pagecolor="#ffffff"
     bordercolor="#666666"
     borderopacity="1"
     objecttolerance="10"
     gridtolerance="10"
     guidetolerance="10"
     inkscape:pageopacity="0"
     inkscape:pageshadow="2"
     inkscape:window-width="1920"
     inkscape:window-height="1001"
     id="namedview22361"
     showgrid="false"
     inkscape:zoom="2.36"
     inkscape:cx="51.059322"
     inkscape:cy="50"
     inkscape:window-x="-9"
     inkscape:window-y="-9"
     inkscape:window-maximized="1"
     inkscape:current-layer="svg22359" />
  <path
     id="path1678"
     d="M 66.025158,131.15177 A 64.83,64.83 0 1 1 131.02516,66.581763 64.8,64.8 0 0 1 66.025158,131.15177 Z"
     class="cls-49"
     inkscape:connector-curvature="0"
     style="isolation:isolate;fill:#132370" />
  <path
     id="path1680"
     d="M 66.025158,123.67177 A 57.35,57.35 0 1 1 123.52516,66.551763 57.32,57.32 0 0 1 66.025158,123.67177 Z"
     class="cls-1"
     inkscape:connector-curvature="0"
     style="isolation:isolate;fill:#ffffff" />
  <g
     transform="translate(-2975.9748,-1963.0282)"
     style="isolation:isolate"
     id="g1696"
     clip-path="url(#clip-path-2)"
     class="cls-56">
    <path
       id="path1682"
       d="m 2999.08,2067.64 c 5.8,-4.1 12.44,-5.23 19.34,-5.47 1.13,1.41 2.83,0.63 4.19,1.11 2.24,0.79 4.79,2.56 3.15,4.8 -3.15,4.3 0.49,5.68 2.56,7.6 3.49,3.23 7.27,6.15 11.12,9.36 -2.72,1.42 -5.46,-0.32 -7.49,1.59 -13.09,-2.63 -24.77,-7.74 -32.87,-18.99 z"
       class="cls-57"
       inkscape:connector-curvature="0"
       style="fill:#2a1e16" />
    <path
       id="path1684"
       d="m 3066.85,2062.18 c 6.51,1.38 13.52,1 19.15,5.5 -8.54,11.17 -20.26,16.69 -33.8,19 -1.55,-1.94 -4.31,-0.07 -6.48,-2 4.29,-3.45 8.39,-6.61 12.32,-10 1.88,-1.61 4.25,-3 1.36,-6.28 -2.18,-2.48 0.42,-4.25 2.7,-5.14 1.49,-0.59 3.41,0.44 4.75,-1.08 z"
       class="cls-57"
       inkscape:connector-curvature="0"
       style="fill:#2a1e16" />
    <path
       id="path1686"
       d="m 3032,2086.63 c 2,-1.91 4.77,-0.17 7.49,-1.59 -3.85,-3.21 -7.63,-6.13 -11.12,-9.36 -2.07,-1.92 -5.71,-3.3 -2.56,-7.6 1.64,-2.24 -0.91,-4 -3.15,-4.8 -1.36,-0.48 -3.06,0.3 -4.19,-1.11 5.48,0.84 9.32,-1.76 12.43,-5.9 v 0.07 c -1.78,5.7 2.18,9.85 4,14.58 0.86,2.25 1.91,4.43 2.87,6.64 0.58,3.52 4.34,6 3.35,10 z"
       class="cls-52"
       inkscape:connector-curvature="0"
       style="fill:#080606" />
    <path
       id="path1688"
       d="m 3066.85,2062.18 c -1.34,1.52 -3.26,0.49 -4.75,1.07 -2.28,0.89 -4.88,2.66 -2.7,5.14 2.89,3.28 0.52,4.67 -1.36,6.28 -3.93,3.36 -8,6.52 -12.32,10 2.17,2 4.93,0.09 6.48,2 l -8.1,0.91 c -0.86,-3.63 2.47,-6 2.75,-9.31 2.49,-7.32 8.15,-13.47 7.9,-22.15 2.3,6.13 7.25,6.05 12.1,6.06 z"
       class="cls-52"
       inkscape:connector-curvature="0"
       style="fill:#080606" />
    <path
       id="path1690"
       d="m 3046.85,2078.27 c -0.28,3.29 -3.61,5.68 -2.75,9.31 a 2.88,2.88 0 0 1 -3,0 c 1,-4 -2.77,-6.48 -3.35,-10 3.08,-2.24 3,-5.57 2.26,-8.58 a 4.53,4.53 0 0 1 1.22,-4.43 c 0.73,-0.89 1.76,-0.41 2.41,0.25 a 4.06,4.06 0 0 1 1.1,4.37 9.69,9.69 0 0 0 2.11,9.08 z"
       class="cls-58"
       inkscape:connector-curvature="0"
       style="fill:#3d5ba7" />
    <path
       id="path1692"
       d="m 3030.85,2056.27 c 0.77,-8.19 -5.12,-13.53 -8.93,-19.56 -2.83,-4.48 -3.94,-8.52 -2,-13.37 1.07,1.24 0,3.84 2.83,4.34 0.53,-3.72 1.09,-7.21 1.52,-10.72 0.71,-5.71 3.45,-7.81 9,-6.9 5.76,1 11.64,1.34 17.31,0.14 6,-1.27 8.37,1.74 9.5,6.66 0.89,3.83 1.35,7.77 2.19,12.78 l 2.92,-5.92 c 4.11,4.25 0.53,8.08 -1.06,11.64 -3.09,6.94 -9.94,11.73 -11,20.06 -0.47,3.52 -11.13,6.12 -14.6,4.36 -2.48,-1.25 -4.76,-3 -7.62,-3.44 z"
       class="cls-59"
       inkscape:connector-curvature="0"
       style="fill:#f6ba93" />
    <path
       id="path1694"
       d="m 3065.2,2023.72 -2.92,5.92 c -0.84,-5 -1.3,-9 -2.19,-12.78 -1.13,-4.92 -3.48,-7.93 -9.5,-6.66 -5.67,1.2 -11.55,0.82 -17.31,-0.14 -5.54,-0.91 -8.28,1.19 -9,6.9 -0.43,3.51 -1,7 -1.52,10.72 -2.78,-0.5 -1.76,-3.1 -2.83,-4.34 -0.66,-4.22 -1.93,-8.32 -1.65,-12.72 0.86,-13.75 16.05,-22.1 28.06,-21.21 0.25,0 0.61,0.83 0.65,0.81 11,-6.32 14.44,3.54 19,9.5 3.48,4.53 1.89,10.52 1.28,15.88 -0.27,2.75 -1.35,5.4 -2.07,8.12 z"
       class="cls-51"
       inkscape:connector-curvature="0"
       style="fill:#6b3914" />
  </g>
</svg>
