<?xml version="1.0" encoding="UTF-8" standalone="no"?>
<!-- Created with Inkscape (http://www.inkscape.org/) -->

<svg
   xmlns:dc="http://purl.org/dc/elements/1.1/"
   xmlns:cc="http://creativecommons.org/ns#"
   xmlns:rdf="http://www.w3.org/1999/02/22-rdf-syntax-ns#"
   xmlns:svg="http://www.w3.org/2000/svg"
   xmlns="http://www.w3.org/2000/svg"
   xmlns:sodipodi="http://sodipodi.sourceforge.net/DTD/sodipodi-0.dtd"
   xmlns:inkscape="http://www.inkscape.org/namespaces/inkscape"
   version="1.1"
   id="svg18514"
   width="132"
   height="132"
   inkscape:version="0.92.4 (5da689c313, 2019-01-14)"
   sodipodi:docname="user5.svg">
  <metadata
     id="metadata18520">
    <rdf:RDF>
      <cc:Work
         rdf:about="">
        <dc:format>image/svg+xml</dc:format>
        <dc:type
           rdf:resource="http://purl.org/dc/dcmitype/StillImage" />
        <dc:title></dc:title>
      </cc:Work>
    </rdf:RDF>
  </metadata>
  <defs
     id="defs18518">
    <clipPath
       id="clip-path-5">
      <path
         inkscape:connector-curvature="0"
         id="path884"
         d="m 3042,2581.7 a 57.35,57.35 0 1 1 57.5,-57.12 57.32,57.32 0 0 1 -57.5,57.12 z"
         class="cls-1" />
    </clipPath>
  </defs>
  <sodipodi:namedview
     pagecolor="#ffffff"
     bordercolor="#666666"
     borderopacity="1"
     objecttolerance="10"
     gridtolerance="10"
     guidetolerance="10"
     inkscape:pageopacity="0"
     inkscape:pageshadow="2"
     inkscape:window-width="1920"
     inkscape:window-height="1001"
     id="namedview18516"
     showgrid="false"
     inkscape:zoom="2.36"
     inkscape:cx="50"
     inkscape:cy="50"
     inkscape:window-x="-9"
     inkscape:window-y="-9"
     inkscape:window-maximized="1"
     inkscape:current-layer="svg18514" />
  <path
     id="path1758"
     d="M 66.354904,130.72804 A 64.83,64.83 0 1 1 131.3549,66.158032 64.8,64.8 0 0 1 66.354904,130.72804 Z"
     class="cls-49"
     inkscape:connector-curvature="0"
     style="isolation:isolate;fill:#132370" />
  <path
     id="path1760"
     d="M 66.354904,123.24804 A 57.35,57.35 0 1 1 123.8549,66.128032 57.32,57.32 0 0 1 66.354904,123.24804 Z"
     class="cls-1"
     inkscape:connector-curvature="0"
     style="isolation:isolate;fill:#ffffff" />
  <g
     transform="translate(-2975.6451,-2458.4519)"
     style="isolation:isolate"
     id="g1776"
     clip-path="url(#clip-path-5)"
     class="cls-67">
    <path
       id="path1762"
       d="m 2997.68,2563.92 c 2.05,-5.9 7.72,-5.59 12.29,-6.83 3.63,-1 7.51,-1 11.27,-1.45 1.67,1.58 2.27,4.22 4.87,4.89 -0.15,2.28 -4.74,3.64 -2.36,5.85 4.75,4.42 8.7,10.16 15.66,11.7 2.89,4.9 3.33,0.22 4.61,-1.17 0.4,0.6 0,2.52 1.58,1.29 4.23,-3.3 8.32,-6.79 12.49,-10.17 1.4,-1.14 2.28,-2.36 1,-4.05 -3.17,-4.15 0.09,-5.2 3.06,-6.06 2.62,-0.76 5.57,0.81 8.15,-0.89 a 22.72,22.72 0 0 1 15.7,5.97 c -13.78,15.39 -31.48,20.61 -51.38,18.75 -14.31,-1.37 -27.04,-6.92 -36.94,-17.83 z"
       class="cls-58"
       inkscape:connector-curvature="0"
       style="fill:#3d5ba7" />
    <path
       id="path1764"
       d="m 3044.09,2560.2 c -1.58,2.15 -2.83,3.92 -5.05,0.21 a 14,14 0 0 0 -8.57,-6.07 c -0.33,-3.14 0.14,-6.65 -1.14,-9.33 -3,-6.25 -3.54,-12.76 -2.89,-19.3 1.12,-11.29 3.1,-22.45 14.43,-28.68 8.43,-4.63 16.39,-1.11 18.93,8.27 a 58.75,58.75 0 0 1 1.11,5.89 c 0.57,3.59 -1.77,8.88 5.2,8.65 0.28,0 0.59,0.49 0.88,0.76 -1.37,7.68 -6.61,13.36 -10.55,19.64 -3.94,6.28 -4.29,6 -1.29,12.26 -1.38,1.41 -3.94,0.93 -5,2.94 -2.42,1.03 -4.95,1.99 -6.06,4.76 z"
       class="cls-64"
       inkscape:connector-curvature="0"
       style="fill:#c38156" />
    <path
       id="path1766"
       d="m 3067,2520.6 c -0.29,-0.27 -0.6,-0.77 -0.88,-0.76 -7,0.23 -4.63,-5.06 -5.2,-8.65 a 58.75,58.75 0 0 0 -1.11,-5.89 c -2.54,-9.38 -10.5,-12.9 -18.93,-8.27 -11.33,6.23 -13.31,17.39 -14.43,28.68 -0.65,6.54 -0.11,13.05 2.89,19.3 1.28,2.68 0.81,6.19 1.14,9.33 q 1.91,5.35 3.79,10.73 c -3.85,0.52 -4.63,-4.48 -8.15,-4.54 -2.6,-0.67 -3.2,-3.31 -4.87,-4.89 a 65.76,65.76 0 0 1 -10.34,-30.29 c 1.39,-6.29 1.07,-12.59 0.13,-18.89 0.95,-16 20,-30.62 37.57,-20.43 a 7.78,7.78 0 0 0 2.25,0.71 c 15.25,3.35 21.11,12.64 17.67,28.08 -0.44,1.94 -1.03,3.85 -1.53,5.78 z"
       class="cls-51"
       inkscape:connector-curvature="0"
       style="fill:#6b3914" />
    <path
       id="path1768"
       d="m 3070.29,2557 c -2.58,1.7 -5.53,0.13 -8.15,0.89 -3,0.86 -6.23,1.91 -3.06,6.06 1.29,1.69 0.41,2.91 -1,4.05 -4.17,3.38 -8.26,6.87 -12.49,10.17 -1.58,1.23 -1.18,-0.69 -1.58,-1.29 2.86,-6.49 5.66,-13 8.6,-19.45 0.75,-1.64 1.64,-4.71 4,-2.93 4.31,3.34 9.22,1.27 13.68,2.5 z"
       class="cls-53"
       inkscape:connector-curvature="0"
       style="fill:#564033" />
    <path
       id="path1770"
       d="m 3026.11,2560.53 c 3.52,0.06 4.3,5.06 8.15,4.54 q 2.58,6.51 5.15,13 c -7,-1.55 -10.91,-7.29 -15.66,-11.71 -2.38,-2.19 2.25,-3.55 2.36,-5.83 z"
       class="cls-53"
       inkscape:connector-curvature="0"
       style="fill:#564033" />
    <path
       id="path1772"
       d="m 3011,2506.46 c 0.94,6.3 1.26,12.6 -0.13,18.89 a 63,63 0 0 1 0.13,-18.89 z"
       class="cls-57"
       inkscape:connector-curvature="0"
       style="fill:#2a1e16" />
    <path
       id="path1774"
       d="m 3044.09,2560.2 c 1.11,-2.77 3.64,-3.73 6.1,-4.76 -0.92,3 -2.48,5.19 -6.1,4.76 z"
       class="cls-68"
       inkscape:connector-curvature="0"
       style="fill:#f8caad" />
  </g>
</svg>
