<?xml version="1.0" encoding="UTF-8" standalone="no"?>
<!-- Created with Inkscape (http://www.inkscape.org/) -->

<svg
   xmlns:dc="http://purl.org/dc/elements/1.1/"
   xmlns:cc="http://creativecommons.org/ns#"
   xmlns:rdf="http://www.w3.org/1999/02/22-rdf-syntax-ns#"
   xmlns:svg="http://www.w3.org/2000/svg"
   xmlns="http://www.w3.org/2000/svg"
   xmlns:sodipodi="http://sodipodi.sourceforge.net/DTD/sodipodi-0.dtd"
   xmlns:inkscape="http://www.inkscape.org/namespaces/inkscape"
   version="1.1"
   id="svg2772"
   width="1135"
   height="1135"
   inkscape:version="0.92.4 (5da689c313, 2019-01-14)"
   sodipodi:docname="user-call.svg">
  <metadata
     id="metadata2778">
    <rdf:RDF>
      <cc:Work
         rdf:about="">
        <dc:format>image/svg+xml</dc:format>
        <dc:type
           rdf:resource="http://purl.org/dc/dcmitype/StillImage" />
        <dc:title></dc:title>
      </cc:Work>
    </rdf:RDF>
  </metadata>
  <defs
     id="defs2776">
    <clipPath
       id="clip-path">
      <path
         inkscape:connector-curvature="0"
         id="path842"
         d="M 651.55,1693.65 C 353.13,1692.2 114.83,1452.3 116,1154.52 117.17,858.63 358.86,620.11 656,621.67 c 295.57,1.55 535.21,243.49 533,538.16 -2.2,296.49 -242.58,535.26 -537.45,533.82 z"
         class="cls-1" />
    </clipPath>
  </defs>
  <sodipodi:namedview
     pagecolor="#ffffff"
     bordercolor="#666666"
     borderopacity="1"
     objecttolerance="10"
     gridtolerance="10"
     guidetolerance="10"
     inkscape:pageopacity="0"
     inkscape:pageshadow="2"
     inkscape:window-width="1920"
     inkscape:window-height="1001"
     id="namedview2774"
     showgrid="false"
     inkscape:zoom="0.417193"
     inkscape:cx="495.94192"
     inkscape:cy="447.41275"
     inkscape:window-x="-9"
     inkscape:window-y="-9"
     inkscape:window-maximized="1"
     inkscape:current-layer="svg2772" />
  <g
     id="g3361"
     transform="translate(520.14296,-183.14296)">
    <path
       style="isolation:isolate;fill:#132370"
       inkscape:connector-curvature="0"
       class="cls-15"
       d="m 48.994706,1311.9309 c -312.849996,-1.53 -562.679996,-253.03 -561.449996,-565.21996 1.22,-310.21 254.61,-560.31 566.059996,-558.64 309.840004,1.63 561.099984,255.27 558.839984,564.2 -2.31,310.83996 -254.30998,561.12996 -563.449984,559.65996 z"
       id="path986" />
    <path
       style="isolation:isolate;fill:#ffffff"
       inkscape:connector-curvature="0"
       class="cls-13"
       d="m 49.034706,1285.9309 c -298.369996,-1.45 -536.639996,-241.32 -535.469996,-539.06996 1.17,-295.86 242.88,-534.35 539.879996,-532.79 295.530004,1.55 535.129984,243.46 532.999984,538.09 -2.22,296.46996 -242.56998,535.23996 -537.409984,533.76996 z"
       id="path988" />
    <g
       class="cls-16"
       clip-path="url(#clip-path)"
       id="g1004"
       style="isolation:isolate"
       transform="translate(-602.55529,-407.5991)">
      <path
         style="fill:#2a1e16"
         inkscape:connector-curvature="0"
         class="cls-17"
         d="m 252,1517 c 53.31,-37.64 114.34,-48.08 177.72,-50.27 10.37,13 26.06,5.8 38.48,10.2 20.64,7.31 44,23.57 29,44.12 -28.92,39.49 4.54,52.22 23.55,69.83 32,29.71 66.8,56.51 102.22,86 -25,13 -50.21,-3 -68.84,14.55 C 433.78,1667.18 326.46,1620.46 252,1517 Z"
         id="path990" />
      <path
         style="fill:#2a1e16"
         inkscape:connector-curvature="0"
         class="cls-17"
         d="m 874.74,1466.92 c 59.86,12.66 124.31,9.41 176,50.47 C 972.25,1620 864.52,1670.8 740.1,1692 c -14.23,-17.87 -39.57,-0.65 -59.53,-18.66 39.42,-31.72 77.08,-60.78 113.21,-91.63 17.33,-14.8 39.05,-27.6 12.56,-57.71 -20,-22.77 3.83,-39.08 24.81,-47.25 13.63,-5.34 31.28,4.06 43.59,-9.83 z"
         id="path992" />
      <path
         style="fill:#080606"
         inkscape:connector-curvature="0"
         class="cls-18"
         d="m 554.08,1691.51 c 18.63,-17.53 43.79,-1.53 68.84,-14.55 -35.42,-29.53 -70.17,-56.33 -102.22,-86 -19,-17.61 -52.47,-30.34 -23.55,-69.83 15.05,-20.55 -8.33,-36.81 -29,-44.12 -12.42,-4.4 -28.11,2.79 -38.48,-10.2 50.33,7.72 85.63,-16.21 114.25,-54.16 l 0.15,0.62 c -16.34,52.39 20,90.53 36.62,133.94 7.9,20.68 17.5,40.72 26.34,61 5.32,32.3 39.86,54.83 30.81,91.92 z"
         id="path994" />
      <path
         style="fill:#080606"
         inkscape:connector-curvature="0"
         class="cls-18"
         d="m 874.74,1466.92 c -12.31,13.89 -30,4.49 -43.59,9.79 -21,8.17 -44.85,24.48 -24.81,47.25 26.49,30.11 4.77,42.91 -12.56,57.71 -36.13,30.85 -73.79,59.91 -113.21,91.63 20,18 45.3,0.79 59.53,18.66 l -74.38,8.28 c -7.93,-33.31 22.69,-55.26 25.28,-85.47 22.88,-67.28 74.88,-123.82 72.59,-203.59 21.13,56.34 66.34,55.62 111.15,55.74 z"
         id="path996" />
      <path
         style="fill:#3d5ba7"
         inkscape:connector-curvature="0"
         class="cls-19"
         d="m 691,1614.77 c -2.59,30.21 -33.21,52.16 -25.28,85.47 -9.34,5.38 -18.63,5 -27.88,-0.1 9.08,-37.09 -25.46,-59.62 -30.78,-91.92 28.3,-20.58 27.52,-51.16 20.81,-78.89 -4.5,-18.57 1.78,-29.32 11.15,-40.67 6.72,-8.17 16.24,-3.79 22.17,2.26 10.86,11 14.62,21.79 10.15,40.15 -7.02,28.87 -2.53,59.47 19.66,83.7 z"
         id="path998" />
      <path
         style="fill:#f6ba93"
         inkscape:connector-curvature="0"
         class="cls-20"
         d="m 544,1412.61 c 7,-75.3 -47,-124.36 -82,-179.83 -26,-41.17 -36.23,-78.23 -18.22,-122.82 9.83,11.43 0.43,35.29 26,39.92 4.91,-34.22 10,-66.34 14,-98.6 6.54,-52.44 31.63,-71.76 82.59,-63.31 53,8.77 106.94,12.26 159.08,1.24 55.27,-11.69 76.92,16 87.32,61.16 8.14,35.27 12.41,71.44 20.12,117.5 l 26.79,-54.45 c 37.75,39.08 4.85,74.25 -9.71,106.95 -28.43,63.83 -91.36,107.84 -101.55,184.34 -4.31,32.38 -102.26,56.31 -134.2,40.13 -22.8,-11.55 -43.69,-27.75 -70,-31.61 z"
         id="path1000" />
      <path
         style="fill:#6b3914"
         inkscape:connector-curvature="0"
         class="cls-21"
         d="m 859.59,1113.42 -26.79,54.45 c -7.71,-46.06 -12,-82.23 -20.12,-117.5 -10.4,-45.13 -32,-72.85 -87.32,-61.16 -52.14,11 -106.13,7.53 -159.08,-1.24 -51,-8.45 -76,10.87 -82.59,63.31 -4,32.26 -9.11,64.38 -14,98.6 -25.55,-4.63 -16.15,-28.49 -26,-39.92 -6.05,-38.81 -17.72,-76.5 -15.18,-116.87 8,-126.35 147.53,-203.08 257.9,-195 2.22,0.16 5.57,7.67 5.93,7.47 101.42,-58.03 132.66,32.61 174.66,87.35 32,41.66 17.36,96.62 11.76,145.95 -2.85,25.26 -12.56,49.73 -19.17,74.56 z"
         id="path1002" />
    </g>
  </g>
</svg>
