<?xml version="1.0" encoding="UTF-8" standalone="no"?>
<!-- Created with Inkscape (http://www.inkscape.org/) -->

<svg
   xmlns:dc="http://purl.org/dc/elements/1.1/"
   xmlns:cc="http://creativecommons.org/ns#"
   xmlns:rdf="http://www.w3.org/1999/02/22-rdf-syntax-ns#"
   xmlns:svg="http://www.w3.org/2000/svg"
   xmlns="http://www.w3.org/2000/svg"
   xmlns:sodipodi="http://sodipodi.sourceforge.net/DTD/sodipodi-0.dtd"
   xmlns:inkscape="http://www.inkscape.org/namespaces/inkscape"
   version="1.1"
   id="svg21757"
   width="132"
   height="132"
   inkscape:version="0.92.4 (5da689c313, 2019-01-14)"
   sodipodi:docname="user1.svg">
  <metadata
     id="metadata21763">
    <rdf:RDF>
      <cc:Work
         rdf:about="">
        <dc:format>image/svg+xml</dc:format>
        <dc:type
           rdf:resource="http://purl.org/dc/dcmitype/StillImage" />
        <dc:title></dc:title>
      </cc:Work>
    </rdf:RDF>
  </metadata>
  <defs
     id="defs21761">
    <clipPath
       id="clip-path">
      <path
         inkscape:connector-curvature="0"
         id="path872"
         d="m 3042,1921.7 a 57.35,57.35 0 1 1 57.5,-57.12 57.32,57.32 0 0 1 -57.5,57.12 z"
         class="cls-1" />
    </clipPath>
  </defs>
  <sodipodi:namedview
     pagecolor="#ffffff"
     bordercolor="#666666"
     borderopacity="1"
     objecttolerance="10"
     gridtolerance="10"
     guidetolerance="10"
     inkscape:pageopacity="0"
     inkscape:pageshadow="2"
     inkscape:window-width="1920"
     inkscape:window-height="1001"
     id="namedview21759"
     showgrid="false"
     inkscape:zoom="2.36"
     inkscape:cx="51.059322"
     inkscape:cy="50"
     inkscape:window-x="-9"
     inkscape:window-y="-9"
     inkscape:window-maximized="1"
     inkscape:current-layer="svg21757" />
  <path
     id="path1622"
     d="m -25.191109,108.90177 c 0.21,-0.53 0.43,-1.06 0.64,-1.6 -0.21,0.54 -0.43,1.07 -0.64,1.6 z"
     class="cls-43"
     inkscape:connector-curvature="0"
     style="isolation:isolate;fill:#805f47" />
  <path
     id="path1644"
     d="M 66.448888,131.15176 A 64.83,64.83 0 1 1 131.44888,66.581763 64.8,64.8 0 0 1 66.448888,131.15176 Z"
     class="cls-49"
     inkscape:connector-curvature="0"
     style="isolation:isolate;fill:#132370" />
  <path
     id="path1646"
     d="M 66.448888,123.67177 A 57.35,57.35 0 1 1 123.94888,66.551763 57.32,57.32 0 0 1 66.448888,123.67177 Z"
     class="cls-1"
     inkscape:connector-curvature="0"
     style="isolation:isolate;fill:#ffffff" />
  <g
     transform="translate(-2975.5511,-1798.0282)"
     style="isolation:isolate"
     id="g1660"
     clip-path="url(#clip-path)"
     class="cls-50">
    <path
       id="path1648"
       d="m 2999,1905 c 5.66,-3.91 16.06,-6.34 22.7,-6.34 4.13,0 7.24,-1 9.19,-4.74 2,3.78 1.73,8.35 4.28,11.92 2.28,5 4.55,10.06 7.17,15.85 2.63,-5.53 4.83,-10.14 7,-14.76 0.21,-0.53 0.43,-1.06 0.64,-1.6 v -0.06 l 4.74,-10.26 c 1.57,2.79 4,3.4 7.1,3.57 7.43,0.41 17.48,1.22 23.16,7.42 -21.21,21 -55.91,25.72 -79,7 -1.57,-1.29 -7.98,-4.81 -6.98,-8 z"
       class="cls-51"
       inkscape:connector-curvature="0"
       style="fill:#6b3914" />
    <path
       id="path1650"
       d="m 3063,1862.42 c 2.15,5.09 1.7,9.39 -2.32,13.8 -3,3.31 -3.88,8.38 -7.8,11.26 -3.51,3.46 -7.93,3.73 -12.4,3.17 a 68.4,68.4 0 0 1 -8.24,-2.05 c -3.85,-6.52 -9.83,-11.82 -11.38,-19.63 -0.31,-1.54 -1.59,-3.5 0.94,-4.55 1.24,0.71 1,2.7 2.92,3.22 0.69,-2.21 1.27,-4.41 2.07,-6.53 0.8,-2.12 2.23,-4.68 4.73,-4.69 6.58,0 11.54,-3.43 16.66,-6.84 3.42,-2.29 6.14,-1.61 8.47,2.19 3.17,5.18 2.42,10.88 2.71,16.64 2.83,-1.41 2.25,-4.23 3.64,-5.99 z"
       class="cls-43"
       inkscape:connector-curvature="0"
       style="fill:#805f47" />
    <path
       id="path1652"
       d="m 3063,1862.42 c -1.36,1.76 -0.78,4.6 -3.64,6 -0.29,-5.76 0.46,-11.46 -2.71,-16.64 -2.33,-3.8 -5,-4.48 -8.47,-2.19 -5.12,3.41 -10.08,6.81 -16.66,6.84 -2.5,0 -3.89,2.43 -4.73,4.69 -0.84,2.26 -1.38,4.32 -2.07,6.53 -1.94,-0.52 -1.68,-2.51 -2.92,-3.22 1,-2.76 -0.58,-5.29 -0.77,-8 -0.64,-9 2.47,-15 10.47,-18.81 2.09,-1 2.45,-1.65 1.92,-3.92 -0.93,-4 3,-10 8.13,-12 3.95,-1.57 8.18,-0.82 11.93,1.39 0.9,0.54 1.87,2 1.11,2.73 -3.6,3.6 1.39,7.47 -0.56,11.05 -0.33,0.63 0.11,1.24 0.91,1.63 10.83,5.23 10.56,14.2 8.06,23.92 z"
       class="cls-52"
       inkscape:connector-curvature="0"
       style="fill:#080606" />
    <path
       id="path1654"
       d="m 3054.74,1895 -4.74,10.26 c -4.91,1 -9.89,0.38 -14.83,0.57 -2.55,-3.57 -2.3,-8.14 -4.28,-11.92 0.5,-0.75 1,-1.51 1.51,-2.26 6.69,3 13.38,2.46 20.09,0 z"
       class="cls-43"
       inkscape:connector-curvature="0"
       style="fill:#805f47" />
    <path
       id="path1656"
       d="m 3052.49,1891.71 c -6.71,2.41 -13.4,3 -20.09,0 -0.07,-1 -0.13,-2 -0.19,-3.07 a 66.61,66.61 0 0 0 8.24,2.06 c 4.47,0.56 8.89,0.29 12.4,-3.17 z"
       class="cls-53"
       inkscape:connector-curvature="0"
       style="fill:#564033" />
    <path
       id="path1658"
       d="m 3035.17,1905.84 c 4.94,-0.19 9.92,0.48 14.83,-0.57 v 0.06 c -0.21,0.54 -0.43,1.07 -0.64,1.6 -2.19,4.62 -4.39,9.23 -7,14.76 -2.64,-5.79 -4.91,-10.82 -7.19,-15.85 z"
       class="cls-54"
       inkscape:connector-curvature="0"
       style="fill:#eaeaea" />
  </g>
</svg>
