<?xml version="1.0" encoding="UTF-8" standalone="no"?>
<!-- Created with Inkscape (http://www.inkscape.org/) -->

<svg
   xmlns:dc="http://purl.org/dc/elements/1.1/"
   xmlns:cc="http://creativecommons.org/ns#"
   xmlns:rdf="http://www.w3.org/1999/02/22-rdf-syntax-ns#"
   xmlns:svg="http://www.w3.org/2000/svg"
   xmlns="http://www.w3.org/2000/svg"
   xmlns:sodipodi="http://sodipodi.sourceforge.net/DTD/sodipodi-0.dtd"
   xmlns:inkscape="http://www.inkscape.org/namespaces/inkscape"
   version="1.1"
   id="svg60867"
   width="90"
   height="90"
   inkscape:version="0.92.4 (5da689c313, 2019-01-14)"
   sodipodi:docname="video-msj.svg">
  <metadata
     id="metadata60873">
    <rdf:RDF>
      <cc:Work
         rdf:about="">
        <dc:format>image/svg+xml</dc:format>
        <dc:type
           rdf:resource="http://purl.org/dc/dcmitype/StillImage" />
        <dc:title></dc:title>
      </cc:Work>
    </rdf:RDF>
  </metadata>
  <defs
     id="defs60871">
    <clipPath
       id="clip-path">
      <path
         inkscape:connector-curvature="0"
         class="cls-1"
         d="M 438.71,997.94 A 129.31,129.31 0 0 1 309.47,867.84 c 0.28,-71.4 58.61,-129 130.3,-128.59 71.32,0.38 129.15,58.76 128.63,129.87 -0.53,71.55 -58.54,129.17 -129.69,128.82 z"
         id="path58990" />
    </clipPath>
  </defs>
  <sodipodi:namedview
     pagecolor="#ffffff"
     bordercolor="#666666"
     borderopacity="1"
     objecttolerance="10"
     gridtolerance="10"
     guidetolerance="10"
     inkscape:pageopacity="0"
     inkscape:pageshadow="2"
     inkscape:window-width="1920"
     inkscape:window-height="1001"
     id="namedview60869"
     showgrid="false"
     inkscape:zoom="2.36"
     inkscape:cx="173.61266"
     inkscape:cy="151.69492"
     inkscape:window-x="-9"
     inkscape:window-y="-9"
     inkscape:window-maximized="1"
     inkscape:current-layer="svg60867" />
  <path
     style="fill:#ffffff"
     inkscape:connector-curvature="0"
     class="cls-1"
     d="m 45.154833,1.6654024 a 43.42,43.42 0 1 0 43.18,43.6000096 43.4,43.4 0 0 0 -43.18,-43.6000096 z m 13.26,53.2000096 c 0,2.93 -2,4.85 -5.2,4.87 -6.23,0.06 -12.46,0 -18.69,0 -3.31,0 -6.63,-0.08 -9.94,0 a 5.58,5.58 0 0 1 -5.68,-5.6 c 0.23,-6.67 0.06,-13.35 0.08,-20 a 4.82,4.82 0 0 1 5,-5.07001 c 4.9,0 9.79,0 14.69,0 4.9,0 9.6,0.1 14.39,0 3.4,-0.09 5.24,2.23 5.32,5.34001 0.14,6.8 0.03,13.6 0.03,20.46 z m 14.33,-1.94 c 0,2 -1.13,2.77 -3,2.07 -2.26,-0.84 -4.52,-1.7 -6.79,-2.51 a 2.12,2.12 0 0 1 -1.55,-2.24 c 0,-3.91 0,-7.81 0,-11.72 a 2,2 0 0 1 1.3,-2.1 c 2.4,-0.89 4.78,-1.84 7.22,-2.62 1.8,-0.58 2.77,0.18 2.79,2.07 0,2.91 0,5.83 0,8.75 0.02,2.76 0.04,5.53 0.02,8.3 z"
     id="path64300" />
</svg>
